<svg xmlns="http://www.w3.org/2000/svg" width="1024" height="898.351" viewBox="0 0 1024 898.351">
  <g id="Blue_Section_BG" data-name="Blue Section BG" transform="translate(0 -1838.649)">
    <g id="Layer_2" data-name="Layer 2" transform="translate(0 1838.649)">
      <g id="Layer_1" data-name="Layer 1">
        <path id="Path_563" data-name="Path 563" d="M584.219,854.1q-2.584,1.853-5.109,3.793Q581.64,855.943,584.219,854.1Z" transform="translate(-267.357 -422.75)" fill="#2788c4"/>
        <path id="Path_564" data-name="Path 564" d="M783.051,790.817A34.685,34.685,0,0,1,770.444,803.4a39.791,39.791,0,0,0,3.973-2.02,36.886,36.886,0,0,1-5.141,2.525c-12.678,5-26.6,1.187-39.029-2.48a159.979,159.979,0,0,0-42.076-6.949c-28.446-.586-56.762,6.217-82.9,16.373a166.838,166.838,0,0,0-19.245,8.737c-2.53,1.379-5.007,2.828-7.4,4.4h-.032l-.113.076-.075.051-.108.076a1.437,1.437,0,0,1-.145.1c2.406-2.707,4.759-5.555,7.4-8.081a164.761,164.761,0,0,1,26.971-15.434c25.49-11.464,53.914-19.075,82.2-20.439a152.2,152.2,0,0,1,41.22,3.4c13.464,3.086,26.879,9.3,41.124,8.081A34.862,34.862,0,0,0,783.051,790.817Z" transform="translate(-266.914 -386.142)" fill="#ffecb7"/>
        <path id="Path_565" data-name="Path 565" d="M503.548,986.64a96.9,96.9,0,0,0-.226,27c.113.838-1.615,2.086-2.153,2.631-1.96,1.869-4.086,3.586-6.218,5.278s-4.307,3.323-6.562,4.788l-.054.035c-.415.252-3.09,1.9-3.138,1.55a97.97,97.97,0,0,1,.926-31.216q8.285-4.9,16.688-9.636Z" transform="translate(-223.616 -488.353)" fill="#f9db7d"/>
        <path id="Path_566" data-name="Path 566" d="M544.578,851.67c-2.643,2.525-5,5.369-7.4,8.081h0l-1.319,1.237c-1.125,1.076-.974.929-2.024,2.02-1.793,1.864-3.526,3.783-5.157,5.778a106.058,106.058,0,0,0-21.867,46.024q-8.721,5.106-17.318,10.394a107.535,107.535,0,0,1,15.348-34.984c7.155-10.661,16.269-19.9,26.287-28.241q1.793-1.515,3.612-2.939l1.346-1.066,1.68-1.3q2.519-1.934,5.109-3.793l.1-.076Z" transform="translate(-225.982 -421.547)" fill="#f9db7d"/>
        <path id="Path_567" data-name="Path 567" d="M958.068,743.749q8.237-3.954,16.436-7.969-1.077,3.576-2.455,7.07c-2.643,6.767-5.922,13.469-10.9,19.025a95.128,95.128,0,0,1-14.3,12.424c-1.34,1.01-2.692,2.02-4.113,2.949-.468.318-.942.626-1.416.934l-.716.455-.635.389-.641.379-.969.551c-.98.535-1.981,1.01-3,1.485a34.533,34.533,0,0,0,12.608-12.585l.135-.035a78.622,78.622,0,0,0,7.052-15.151,89.344,89.344,0,0,0,2.923-9.919Z" transform="translate(-431.82 -364.186)" fill="#f9db7d"/>
        <path id="Path_568" data-name="Path 568" d="M996.9,693.736q-5.62,2.7-11.257,5.374L980,701.786a95.3,95.3,0,0,0,.807-23.025c-.075-.874,1.577-2.066,2.153-2.636,1.96-1.864,4.081-3.581,6.212-5.273s4.307-3.323,6.563-4.793h0c.334-.2,3.133-1.914,3.165-1.566A95.442,95.442,0,0,1,996.9,693.736Z" transform="translate(-452.433 -328.879)" fill="#f9db7d"/>
        <path id="Path_569" data-name="Path 569" d="M102.9,1520a3.888,3.888,0,0,1-.565.859,46.7,46.7,0,0,0-3.973,5.424h0l-2.536,1.969c-10.352,8.081-20.742,16.075-31.051,24.181l-1.863,1.47-.1.081-.1.081-.07.055-.043.04-1.346,1.1-.065.055a1.239,1.239,0,0,0-.162.131c-.484.414-.958.838-1.437,1.257l-.162.141-.054.05-.054.051-.108.1-.065.061h0a.122.122,0,0,0-.038.035l-.086.076c-.689.646-1.615,1.515-1.847,1.747a64.977,64.977,0,0,0-4.64,5.121,2.7,2.7,0,0,1,.172-.288,78.554,78.554,0,0,1,6.029-7.828c1-1.172,1.906-2.389,2.81-3.616,1.168-.924,2.342-1.838,3.51-2.752q16.312-12.732,32.672-25.429c1.184-.919,2.439-1.813,3.6-2.768l.065-.056.42-.379c.312-.273.538-.439.624-.5h.027l.258-.258Z" transform="translate(-24.259 -752.347)" fill="#ffecb7"/>
        <path id="Path_570" data-name="Path 570" d="M46.757,1601.2q-1.723,1.475-3.4,2.995Q45.034,1602.67,46.757,1601.2Z" transform="translate(-20.021 -792.538)" fill="#99cef6"/>
        <path id="Path_571" data-name="Path 571" d="M147,1519.1Z" transform="translate(-67.868 -751.902)" fill="#99cef6"/>
        <path id="Path_572" data-name="Path 572" d="M147,1519.09h.005l-.005.005Z" transform="translate(-67.867 -751.897)" fill="#99cef6"/>
        <path id="Path_573" data-name="Path 573" d="M147,1519.08Z" transform="translate(-67.868 -751.892)" fill="#99cef6"/>
        <path id="Path_574" data-name="Path 574" d="M160,1189.7l1.227-.9c-.415.313-.834.621-1.249.924h0l-2.81,2.02c1.33-.955,2.595-1.97,3.833-3.03h0l-.07.066-.032.03h-.027l-.129.126h0l-.032.03-.043.04-.054.05-.038.035C160.308,1189.362,160.158,1189.538,160,1189.7Z" transform="translate(-72.563 -588.37)" fill="#99cef6"/>
        <path id="Path_575" data-name="Path 575" d="M164.3,1188.73Z" transform="translate(-75.854 -588.38)" fill="#99cef6"/>
        <path id="Path_576" data-name="Path 576" d="M172.75,1180.62c.538-.505,1.109-.975,1.642-1.48C173.859,1179.65,173.31,1180.14,172.75,1180.62Z" transform="translate(-79.755 -583.633)" fill="#99cef6"/>
        <path id="Path_577" data-name="Path 577" d="M35.942,1654.6c.592.394-7.731,7.388-8.387,7.9-1.227.975-2.482,1.944-3.768,2.874-.377.278-.759.545-1.141.813-.538.389-1.131.773-1.7,1.141.043,0-2.627,1.894-3.139,1.55a40.459,40.459,0,0,1-17.5-28.045c-1.556-11.747,3-22.934,10.557-32.166.91-1.111,1.841-2.2,2.8-3.267.285-.323.571-.641.861-.954q1.136-1.243,2.315-2.444c.35-.359.7-.717,1.077-1.071q1.846-1.853,3.768-3.646.824-.763,1.663-1.515,1.68-1.515,3.4-2.995c1.039-.894,2.083-1.773,3.139-2.651l2.083-1.712q2.643-2.152,5.313-4.247c-.9,1.227-1.814,2.444-2.81,3.616a78.546,78.546,0,0,0-6.029,7.828,2.724,2.724,0,0,0-.172.288h0l-.651.808q-.6.758-1.163,1.515-.678.934-1.319,1.889c-.3.449-.6.9-.872,1.359-.21.333-.415.667-.614,1.01C13.283,1620.058,18.441,1642.784,35.942,1654.6Z" transform="translate(-0.006 -784.109)" fill="#f9db7d"/>
        <path id="Path_578" data-name="Path 578" d="M45.952,1615.75c-.3.449-.592.9-.872,1.358C45.355,1616.649,45.651,1616.2,45.952,1615.75Z" transform="translate(-20.815 -799.74)" fill="#99cef6"/>
        <path id="Path_579" data-name="Path 579" d="M151.243,1297.406c-2.692-10.484-10.153-18.868-17.189-27.07a105.1,105.1,0,0,1-10.971-14.909,239.736,239.736,0,0,0-12.113,23.231c4.926,6.212,10.53,11.979,15.073,18.464,6.573,9.394,9.652,20.2,7.467,31.373a37.609,37.609,0,0,1-6.659,15.136,34.944,34.944,0,0,1-2.692,3.177l-.28.3-.135.141h0l-.1.111h0l-.361.354-.124.121a3.883,3.883,0,0,1-.565.859,46.739,46.739,0,0,0-3.973,5.424l.775-.6q2.9-2.258,5.771-4.545c.463-.369.926-.737,1.384-1.111s.824-.667,1.227-1.01q.2-.157.4-.333c.452-.369.9-.742,1.351-1.126q.878-.727,1.755-1.48c.705-.6,1.4-1.212,2.094-1.823,4.926-4.374,9.792-9.04,13.2-14.59a39.566,39.566,0,0,0,4.662-30.09Zm-34.136-55.523a61.049,61.049,0,0,1,.425-36.681,64.228,64.228,0,0,1,7.7-15.429,59.276,59.276,0,0,1,5.281-6.747c.339-.369.6-.651.84-.9.086-.091.167-.182.253-.263h0l.3-.3-2.81,2.02c.662-.475,1.314-.97,1.949-1.475s1.249-1.01,1.857-1.515l-.07.066-.032.03h-.027l-.129.126h0l-.032.03-.043.04-.054.05-.038.036c-.188.192-.361.353-.538.5l1.227-.9c.377-.278.754-.561,1.125-.849l.452-.349.888-.7c.4-.323.807-.651,1.2-.98l.662-.566c.538-.505,1.109-.975,1.642-1.48.183-.177.371-.354.538-.53s.361-.354.538-.535l.506-.505q.275-.288.538-.576c.388-.434,1.491-1.364.382-1.313-1.351.061-3.677,2.182-4.576,2.823-12.134,8.7-24.085,18.53-31.665,31.171a62.119,62.119,0,0,0-.538,63.634,256.007,256.007,0,0,1,14.352-22.1,56.133,56.133,0,0,1-2.1-5.848Zm15.806-61.321Z" transform="translate(-44.489 -580.196)" fill="#f9db7d"/>
        <path id="Path_580" data-name="Path 580" d="M138.435,1531.29l-.775.606h0Z" transform="translate(-63.556 -757.935)" fill="#99cef6"/>
        <path id="Path_581" data-name="Path 581" d="M147,1519.1Z" transform="translate(-67.868 -751.902)" fill="#99cef6"/>
        <path id="Path_582" data-name="Path 582" d="M159.95,1189.75l-2.81,2.02c1.33-.955,2.595-1.97,3.833-3.03h0l-.07.066-.032.03h-.027l-.129.126h0l-.032.031-.043.04-.054.051-.038.035c-.188.192-.361.353-.538.505h0Z" transform="translate(-72.549 -588.385)" fill="#99cef6"/>
        <path id="Path_583" data-name="Path 583" d="M164.3,1188.73Z" transform="translate(-75.854 -588.38)" fill="#99cef6"/>
        <path id="Path_584" data-name="Path 584" d="M1442.8,230.41a30.1,30.1,0,0,1-5.039,6.53c-.953.944-1.976,1.828-3.026,2.682a104.36,104.36,0,0,1-9.566,5.616c-10.524,5.419-21.609,9.808-32.532,14.459-5.383,2.3-10.767,4.651-16,7.247a127.709,127.709,0,0,0-12.769,7.2c1.8-2.364,3.645-4.763,5.652-6.985h0c2.18-1.515,4.388-3.03,6.595-4.449a202.189,202.189,0,0,1,30.567-15.838c10.271-4.449,20.726-8.55,30.8-13.394,1.653-.793,3.289-1.616,4.893-2.49Z" transform="translate(-629.647 -114.045)" fill="#ffecb7"/>
        <path id="Path_585" data-name="Path 585" d="M1299.417,557.267a27.713,27.713,0,0,1-6.783,15.989,87.076,87.076,0,0,1-13.038,11.262c-3.483,2.6-7.106,5.247-11.305,6.8-1.222.455.21-1.111.388-1.313a48.891,48.891,0,0,1,5.109-4.616c1.432-1.2,2.9-2.369,4.409-3.5.237-.429.458-.864.668-1.3a27.5,27.5,0,0,0,2.428-9.51c.651-7.166-.3-14.479-.915-21.621l-.323-3.662,18.142-14.3.5,5.666C1299.283,543.813,1300.106,550.6,1299.417,557.267Z" transform="translate(-585.3 -263.074)" fill="#f9db7d"/>
        <path id="Path_586" data-name="Path 586" d="M1333.688,303.15c-2.008,2.222-3.849,4.621-5.652,6.985h0a52.17,52.17,0,0,0-3.844,4.151,73.107,73.107,0,0,0-9.3,14.394c-11.618,23.232-11.408,49.554-9.443,74.6.318,4.04.678,8.081,1.039,12.121l-18.11,14.646c-1.147-12.752-2.288-25.514-2.1-38.317.328-22.257,5.1-45.61,19.719-63.705.312-.389.63-.778.953-1.162s.538-.652.829-.975c.188-.222.377-.439.571-.657s.414-.475.624-.707.511-.576.77-.859q.775-.854,1.577-1.692c.242-.253.479-.505.727-.758q2.056-2.121,4.237-4.151l.861-.793c.285-.268.576-.53.867-.788l1.007-.9c.5-.439,1-.879,1.5-1.308l.307-.263c.474-.4.953-.808,1.437-1.207q2.837-2.359,5.787-4.581c.608-.465,1.222-.919,1.841-1.374l1.615-1.172q.646-.47,1.292-.924l.651-.465Z" transform="translate(-593.823 -150.049)" fill="#f9db7d"/>
        <path id="Path_587" data-name="Path 587" d="M1374.144,303.13h0l-.264.177Z" transform="translate(-634.273 -150.039)" fill="#99cef6"/>
        <path id="Path_588" data-name="Path 588" d="M1541.126,27.544a396,396,0,0,0-9.62,45.67c-1.077,7.172-1.787,14.373-2.692,21.565-.84,6.788-2.153,13.8-5.814,19.807-4.086,6.707-10.675,12.06-16.9,16.959q-1.97,1.555-3.989,3.03c-.393.3-.791.591-1.19.879l-1.378.985c-.667.475-1.346.944-2.024,1.4s-1.357.919-2.046,1.369a36.281,36.281,0,0,0,3.026-2.682,30.108,30.108,0,0,0,5.039-6.53c.4-.505.791-1.01,1.168-1.566l.372-.54c.118-.172.232-.343.345-.505a18.575,18.575,0,0,0,1.007-1.768,37.383,37.383,0,0,0,2.756-7.823c1.432-6,1.836-12.171,2.552-18.267q1.141-9.646,2.751-19.222a390.589,390.589,0,0,1,8.479-38.448c.285-1.045,1.389-1.889,2.153-2.636,1.96-1.869,4.086-3.581,6.218-5.273s4.307-3.318,6.557-4.788h0C1538.2,29.009,1541.2,27.287,1541.126,27.544Z" transform="translate(-690.406 -13.621)" fill="#f9db7d"/>
        <path id="Path_589" data-name="Path 589" d="M995.773,722.44q-.764,3.394-1.787,6.737-8.2,4.04-16.435,7.969.781-3.313,1.319-6.656l5.663-2.677Q990.174,725.137,995.773,722.44Z" transform="translate(-451.302 -357.583)" fill="#f9db7d"/>
        <path id="Path_590" data-name="Path 590" d="M505.894,976.74q-.5,2.49-.867,5h0l-.759.429q-8.393,4.737-16.689,9.636.436-2.348,1-4.672Q497.168,981.846,505.894,976.74Z" transform="translate(-225.101 -483.452)" fill="#f9db7d"/>
        <path id="Path_591" data-name="Path 591" d="M323.294,1055.778a812.743,812.743,0,0,1,83.351-58.458q-.538,2.323-1,4.672c-31.891,18.838-62.544,39.544-90.554,63.241q-2.5,2.111-4.985,4.257l1.017-1.121c3.8-4.237,7.87-8.227,11.843-12.323Z" transform="translate(-143.169 -493.639)" fill="#bbdfff"/>
        <path id="Path_592" data-name="Path 592" d="M767.635,738.38q-.538,3.348-1.3,6.656l-7.214,3.444q-19.014,9.045-38.19,17.843-13.135,6.06-26.308,12.045C635.543,805.317,576.326,832,520,863.76q.366-2.525.867-5,6.638-3.894,13.345-7.677c48.806-27.57,99.781-51.362,150.966-74.745h0q13.6-6.227,27.213-12.429h0C730.85,755.47,749.288,747.021,767.635,738.38Z" transform="translate(-240.068 -365.472)" fill="#bbdfff"/>
        <path id="Path_593" data-name="Path 593" d="M1160.176,557.177A691.839,691.839,0,0,1,1102,595.6c-30.411,18.232-61.909,34.767-93.918,50.443q1.018-3.343,1.787-6.737c36.515-17.545,72.525-36.08,107.129-56.816,14.659-8.793,29.269-17.883,42.959-28.009Z" transform="translate(-465.397 -274.448)" fill="#bbdfff"/>
        <path id="Path_594" data-name="Path 594" d="M1308.544,528.52l-18.142,14.3-.242-2.7,18.11-14.646Z" transform="translate(-595.623 -260.094)" fill="#f9db7d"/>
        <path id="Path_595" data-name="Path 595" d="M1335.622,511.64q-5.652,5.126-11.547,10.03l-.275-3.03c.291-.252.581-.505.872-.778h0Q1330.222,514.852,1335.622,511.64Z" transform="translate(-611.153 -253.244)" fill="#bbdfff"/>
        <path id="Path_596" data-name="Path 596" d="M1351.531,501.05q-2.853,2.7-5.771,5.348Q1348.683,503.757,1351.531,501.05Z" transform="translate(-621.291 -248.002)" fill="#705613"/>
        <path id="Path_597" data-name="Path 597" d="M1358.711,236.018l-1.615,1.773-1.3,1.414q-.735.8-1.475,1.581l-1.507,1.6c-.732.763-1.464,1.515-2.2,2.278l-.312.318q-.937.955-1.879,1.9-3.1,3.121-6.3,6.166-2.853,2.7-5.771,5.348-5.383,3.2-10.934,6.192c.732-.662,1.464-1.328,2.191-2.02l1.615-1.515c.409-.384.813-.773,1.217-1.162.135-.126.269-.258.4-.389.275-.258.538-.505.807-.778q1.206-1.167,2.385-2.359c.7-.707,1.394-1.414,2.089-2.131s1.378-1.429,2.056-2.151,1.362-1.449,2.03-2.182q2.019-2.187,3.962-4.429c.608-.687,1.2-1.379,1.787-2.076.092-.1.172-.2.258-.3q.9-1.066,1.793-2.146t1.873-2.3q.823-1.01,1.615-2.05c.081-.1.156-.192.232-.293q.807-1.03,1.615-2.071l.447-.591c.506-.667,1.012-1.333,1.507-2.02.587-.793,1.174-1.6,1.75-2.4,47.89-66.553,55.276-150.743,49.226-228.72a.915.915,0,0,1,.118-.505h18.933q.425,7.576.657,15.121C1428.285,92.881,1413.556,174.858,1358.711,236.018Z" transform="translate(-611.901)" fill="#99cef6"/>
        <path id="Path_598" data-name="Path 598" d="M1329.52,513.827q3.289-3.03,6.46-6.217Q1332.815,510.787,1329.52,513.827Z" transform="translate(-613.793 -251.249)" fill="#f9db7d"/>
        <path id="Path_599" data-name="Path 599" d="M1353,490.469q2.019-2.187,3.962-4.429Q1355,488.282,1353,490.469Z" transform="translate(-624.633 -240.573)" fill="#f9db7d"/>
        <path id="Path_600" data-name="Path 600" d="M130.368,1329.476a239.8,239.8,0,0,0-12.112,23.232,74.617,74.617,0,0,1-5.658-8.03c-.156-.258-.312-.505-.458-.783a255.99,255.99,0,0,1,14.352-22.1,63.559,63.559,0,0,0,3.876,7.676Z" transform="translate(-51.774 -654.245)" fill="#f9db7d"/>
        <path id="Path_601" data-name="Path 601" d="M101.363,1574.28H74.215q-1.028-1.859-1.986-3.752c-10.977-21.606-20.225-58.271-20.9-82.068q-.065-2.293-.075-4.6a212.56,212.56,0,0,1,3.386-38.3A245.231,245.231,0,0,1,84.05,1365.61c.145.263.3.505.458.783a74.618,74.618,0,0,0,5.658,8.03c-13.458,29.666-21.291,62.69-21,95.108,0,.853,0,1.7.043,2.556C69.957,1503.772,82.118,1546.1,101.363,1574.28Z" transform="translate(-23.663 -675.93)" fill="#99cef6"/>
        <path id="Path_602" data-name="Path 602" d="M243.906,1113.62c-3.962,4.1-8.032,8.081-11.843,12.323l-1.007,1.111h0q-1.346,1.152-2.692,2.318l-.587.505c-.91.793-1.82,1.586-2.724,2.389s-1.895,1.667-2.837,2.525l-.285.252q-1.421,1.258-2.832,2.525t-2.762,2.525l-2.562,2.348-1.717,1.591c-8.4,7.8-16.586,15.858-24.435,24.186-.915.964-1.82,1.934-2.724,2.914q-7.569,8.171-14.632,16.666-1.131,1.353-2.234,2.722-6.024,7.424-11.585,15.106l-1,1.394c-.2.273-.393.545-.587.823-.382.505-.759,1.066-1.131,1.6q-3.935,5.621-7.574,11.383c-1.168,1.853-2.32,3.727-3.435,5.626a63.587,63.587,0,0,1-3.876-7.661q2.783-3.849,5.728-7.611a471.706,471.706,0,0,1,31.374-36.08q1.51-1.575,3.036-3.141,7.623-7.833,15.579-15.4c1.077-1.01,2.121-2.02,3.187-3.03q3.1-2.919,6.229-5.782,1.012-.934,2.03-1.848c.474-.439.953-.869,1.427-1.3q1.615-1.47,3.268-2.934,3.688-3.3,7.418-6.535,1.244-1.081,2.493-2.162Q232.1,1123.079,243.906,1113.62Z" transform="translate(-64.105 -551.203)" fill="#99cef6"/>
      </g>
    </g>
    <path id="Path_476" data-name="Path 476" d="M2154.638,1466.667s43.452,166.323-130.653,304.549-753.83,238.742-619.315,593.793H2317.3V1466.667Z" transform="translate(-1293.305 371.991)" fill="#99cef6"/>
    <g id="Group_89" data-name="Group 89" transform="translate(677.548 2157.984)" opacity="0.12">
      <g id="Group_70" data-name="Group 70" transform="translate(0)">
        <path id="Path_398" data-name="Path 398" d="M0,0H173.2L0,159.615Z" fill="#fff"/>
        <path id="Path_399" data-name="Path 399" d="M0,0H173.2L0,159.615Z" transform="translate(0 159.615)" fill="#fff"/>
        <path id="Path_397" data-name="Path 397" d="M0,0H173.2L0,159.615Z" transform="translate(173.202)" fill="#fff"/>
      </g>
    </g>
    <g id="Group_90" data-name="Group 90" transform="translate(850.721 1838.649)" opacity="0.12">
      <g id="Group_70-2" data-name="Group 70" transform="translate(0)">
        <path id="Path_398-2" data-name="Path 398" d="M0,0H173.2L0,159.615Z" transform="translate(0)" fill="#fff"/>
        <path id="Path_399-2" data-name="Path 399" d="M0,0H173.2L0,159.615Z" transform="translate(0 159.615)" fill="#fff"/>
      </g>
    </g>
  </g>
</svg>
