<svg xmlns="http://www.w3.org/2000/svg" width="1024" height="615.346" viewBox="0 0 1024 615.346">
  <g id="Grey_Section_BG" data-name="Grey Section BG" transform="translate(0 -3617)">
    <g id="Layer_2" data-name="Layer 2" transform="translate(116.409 3617)">
      <g id="Layer_1" data-name="Layer 1">
        <path id="Path_603" data-name="Path 603" d="M264.84,329.89c20.452,15.509,41.977,29.422,65.231,40.453,36.11,17.093,74.754,27.348,113.494,36.111C529.093,425.8,615.318,444.405,698.579,472.6c42.8,14.495,84.774,32.208,123.569,55.836a560.826,560.826,0,0,1,47.67,32.379c6.978,5.293,14.4,11.247,20.179,16.181,3.751,3.2,7.474,6.472,11.248,9.931l-.207-.268a134.148,134.148,0,0,0-12.922-13.737q-2.076-1.954-4.131-3.931a650.889,650.889,0,0,0-77.367-55.34c-38.611-23.5-80.191-41.41-122.749-55.99-42.981-14.734-86.945-26.209-130.915-37.365C511.649,409.8,470.2,400.431,428.627,391.1c-38.756-8.734-77.473-18.751-113.722-35.558A322.465,322.465,0,0,1,285.1,339.832C278.242,336.733,271.477,333.445,264.84,329.89Z" transform="translate(-117.006 -141.933)" fill="#e2e2e2"/>
        <path id="Path_604" data-name="Path 604" d="M1374,749.49q2.06,1.971,4.131,3.931a134.148,134.148,0,0,1,12.922,13.737l.207.268h0l.558.49.558.5c.346.313.7.638,1.049.969,2.1,1.949,4.226,3.954,6.386,6.039,45.717,44.122,83.73,99.451,100.805,161.543h14.005c-22.261-66.092-67.436-122.1-118.3-168.164q-8.373-7.561-16.947-14.814l-2.5-2.108Z" transform="translate(-607.031 -322.464)" fill="#ebebeb"/>
        <path id="Path_605" data-name="Path 605" d="M1405,781h0l.508.462Z" transform="translate(-620.727 -336.02)" fill="#ebebeb"/>
        <path id="Path_606" data-name="Path 606" d="M0,0C15.836,61.887,60.61,113.142,107.5,154.62l3.042,2.678,3.048,2.666q3.059,2.661,6.14,5.287c9.171,7.828,18.516,15.44,28.094,22.7h0c6.637,3.555,13.4,6.837,20.257,9.942q-6.14-3.658-12.04-7.612c-1-.661-1.993-1.328-2.981-2.011q-1.234-.838-2.445-1.709l-.5-.353c-.9-.632-1.786-1.265-2.674-1.909l-.251-.182q-1.457-1.054-2.9-2.125a440.974,440.974,0,0,1-40.442-33.861c-27.436-25.8-52.119-55.42-69.1-89.514A208.283,208.283,0,0,1,15.585,0Z" fill="#ebebeb"/>
        <path id="Path_607" data-name="Path 607" d="M291.706,341.638q-6.14-3.675-12.146-7.658,5.928,3.954,12.04,7.612Z" transform="translate(-123.509 -143.693)" fill="#ebebeb"/>
        <path id="Path_608" data-name="Path 608" d="M720.47,467.32a62.439,62.439,0,0,1,10.344,3.6A75.128,75.128,0,0,1,744.9,479.16l1.328,1.026h0a.2.2,0,0,1,.05.046h0l.045.034.3.245h0l.039.034h0c.262.245.982.9,1.234,1.139l.045.04.034.029h0c1.189,1.139,3.137,3.037,4.566,4.478,17.862,18,35.423,38.219,58.611,49.17.955.45-.2-.969-.3-1.111a30.247,30.247,0,0,0-3.974-3.908c-2.735-2.467-5.7-5.4-9.048-6.98a70.958,70.958,0,0,1-8.585-4.786q-1.624-1.065-3.182-2.233h0l-.407-.308h0a.111.111,0,0,1-.039-.034h0l-.039-.034-.05-.04c-.229-.194-.558-.49-.848-.7l.184.171-.262-.217h-.034l-.067-.057-.067-.057-.045-.04h0c-.463-.41-.927-.82-1.384-1.236l-.061-.057h0l-.061-.063c-.335-.325-1.144-1.083-1.15-1.088l-1.317-1.259c-2.054-1.988-4.309-4.3-6.425-6.472-10.578-10.877-21.083-21.725-33.006-31.109-.971-.763-1.954-1.521-2.958-2.279-1.675-.427-3.3-.809-4.94-1.231q-5.532-1.436-11.125-2.575Z" transform="translate(-318.303 -201.062)" fill="#bbdfff"/>
        <path id="Path_609" data-name="Path 609" d="M484.2,378.49a26.06,26.06,0,0,1,1.312,2.279,37.021,37.021,0,0,1,3.266,9.378c1.312,6.085,1.613,12.329,2.356,18.5a56.3,56.3,0,0,0,3.573,15.235c2.032,4.826,5.364,8.774,9.071,12.364h0c2.233.963,4.466,1.9,6.7,2.741a38.228,38.228,0,0,1-4.466-13c-1.892-10.62-1.278-21.919-5.671-31.963a39.4,39.4,0,0,0-8.981-12.147h0a44.772,44.772,0,0,0-4.8-2.421C485.763,379.094,484.959,378.781,484.2,378.49Z" transform="translate(-213.919 -162.843)" fill="#bbdfff"/>
        <path id="Path_610" data-name="Path 610" d="M837.27,552.83l.039.034h0Z" transform="translate(-369.905 -237.852)" fill="#9b7518"/>
        <path id="Path_611" data-name="Path 611" d="M835,551h0l.045.04.067.057.067.057h.033l.262.217-.184-.171-.162-.131h-.039A.914.914,0,0,0,835,551Z" transform="translate(-368.902 -237.064)" fill="#9b7518"/>
        <path id="Path_612" data-name="Path 612" d="M767.4,490.494h0l-.039-.034Z" transform="translate(-339.019 -211.017)" fill="#9b7518"/>
        <path id="Path_613" data-name="Path 613" d="M519.28,464.23c.486.473.966.929,1.462,1.39,8.792,8.142,18.2,15.173,30.31,16.289,10.494.963,19.928-2.507,28.736-8.1,9.283-5.891,17.907-13.395,28.586-16.557l1.423-.393c.463-.12.927-.222,1.39-.325s.927-.194,1.39-.273l.7-.12c.463-.074.927-.142,1.4-.2l.7-.08.29-.029,1.055-.091.787-.051a41.479,41.479,0,0,1,4.533,0l1.044.063q1.574.12,3.137.33l.91.137c.726.114,1.451.245,2.166.387s1.535.319,2.294.507l1.457.273q5.582,1.14,11.125,2.575c1.636.422,3.293.8,4.94,1.231-.4-.3-.793-.57-1.195-.883-.2-.148-.4-.3-.6-.439-.8-.57-1.624-1.168-2.451-1.738-.4-.279-.8-.57-1.206-.826l-.849-.57-1.055-.7q-1.58-1.026-3.2-1.994l-.653-.387c-1.312-.775-2.646-1.527-3.991-2.239l-1.289-.667q-.67-.342-1.34-.667c-.452-.222-.9-.433-1.357-.644a71.98,71.98,0,0,0-8.579-3.35l-.759-.234-.48-.142-.558-.165-.709-.194q-1.061-.291-2.127-.53c-.4-.091-.8-.177-1.195-.256q-.832-.171-1.675-.308l-.441-.074-.486-.074-.765-.114q-1.574-.211-3.148-.319l-.748-.046c-.262,0-.519-.029-.782-.034a41.565,41.565,0,0,0-19.035,3.783c-10.355,4.746-18.834,12.763-28.954,17.93a39.978,39.978,0,0,1-28.044,3.544A35.476,35.476,0,0,1,526,467.011v-.029C523.718,466.128,521.5,465.193,519.28,464.23Z" transform="translate(-229.417 -190.844)" fill="#99cef6"/>
        <path id="Path_614" data-name="Path 614" d="M718.654,466.937c-.759-.188-1.524-.359-2.294-.507.726.148,1.44.308,2.155.484Z" transform="translate(-316.487 -200.679)" fill="#ceb47a"/>
        <path id="Path_615" data-name="Path 615" d="M708.367,465.26c-1.044-.142-2.088-.256-3.137-.33Q706.8,465.05,708.367,465.26Z" transform="translate(-311.57 -200.033)" fill="#ceb47a"/>
        <path id="Path_616" data-name="Path 616" d="M693.83,464.84a43.63,43.63,0,0,1,5.32-.063A41.437,41.437,0,0,0,693.83,464.84Z" transform="translate(-306.533 -199.943)" fill="#ceb47a"/>
        <path id="Path_617" data-name="Path 617" d="M410.654,345.347a28.893,28.893,0,0,0,3.969,3.909c1.77,1.6,3.6,3.145,5.493,4.592.664.513,2.557,2.239,3.561,2.393a142.255,142.255,0,0,1,16.886,3.384,66.886,66.886,0,0,1,7.887,2.7c.977.41,1.948.843,2.9,1.328l.05.08c.759.279,1.535.6,2.344.94a44.775,44.775,0,0,1,4.8,2.421c-.357-.348-.7-.684-1.066-1.026-5.493-5.2-11.477-10.193-18.147-13.737-8.965-4.769-19.085-6.6-28.982-8.1C409.426,344.093,410.42,345.033,410.654,345.347Z" transform="translate(-181.122 -148.097)" fill="#99cef6"/>
        <path id="Path_618" data-name="Path 618" d="M252.28,246c.067.068.128.148.19.216h0A2.684,2.684,0,0,0,252.28,246Z" transform="translate(-111.457 -105.84)" fill="#ffefca"/>
        <path id="Path_619" data-name="Path 619" d="M235.59,241.269c.307-.034.614-.051.927-.057.145.353.29.712.424,1.071,3.55,9.361,3.863,19.987,5.537,29.8s4.293,19.714,10.143,27.918c2.188,3.077,5.442,5.532,8.306,7.885a31.632,31.632,0,0,0,4.432,3.3s1.831,1.077,1.155.125c-7.257-10.221-9.35-22.682-11.119-34.9-1.529-10.592-2.289-22.574-9.294-31.149-.324-.393-.664-.775-1-1.14h0c-.279-.148-.558-.285-.854-.416h0c-.3-.137-.6-.268-.9-.393h0c-.3-.125-.6-.245-.91-.359h0l-.938-.336c-1.256-.439-2.534-.826-3.785-1.242A3.356,3.356,0,0,0,235.59,241.269Z" transform="translate(-104.083 -103.753)" fill="#bbdfff"/>
        <path id="Path_620" data-name="Path 620" d="M252.492,246.218a2.683,2.683,0,0,0-.212-.228c.067.068.128.148.19.217Z" transform="translate(-111.457 -105.836)" fill="#ba9a49"/>
        <path id="Path_621" data-name="Path 621" d="M247.153,240.921c-.72-.718-1.462-1.419-2.233-2.091C245.69,239.5,246.433,240.209,247.153,240.921Z" transform="translate(-108.205 -102.755)" fill="#ba9a49"/>
        <path id="Path_622" data-name="Path 622" d="M57.82,128.8c2.378,8.461,6.883,15.2,12.61,21.132,2.233,1.048,4.544,2.119,6.894,2.974-.212-.336-.424-.667-.625-1.008-5.777-9.606-7.592-21.155-6.76-32.288.9-12.022,4.957-23.52,10.081-34.345,2.54-5.339,5.4-10.484,8.245-15.651s5.543-10.352,6.659-16.135c2.149-11.236-3.634-21.052-11.2-28.687-.374-.376-.754-.741-1.116-1.105-2.568-1.356-5.024-2.991-7.6-4.285a31.4,31.4,0,0,1,2.462,3.646,28.17,28.17,0,0,1,3.3,8.233c2.691,12.535-5.4,23.747-10.935,34.185C59.623,84.694,51.658,106.915,57.82,128.8Z" transform="translate(-24.591 -8.347)" fill="#bbdfff"/>
        <path id="Path_623" data-name="Path 623" d="M100.735,23.973c-.631-.615-1.273-1.208-1.915-1.783Q99.786,23.073,100.735,23.973Z" transform="translate(-43.659 -9.547)" fill="#ba9a49"/>
        <path id="Path_624" data-name="Path 624" d="M95.539,19.369q-.971-.883-1.959-1.709Q94.562,18.509,95.539,19.369Z" transform="translate(-41.344 -7.598)" fill="#ba9a49"/>
        <path id="Path_625" data-name="Path 625" d="M91.208,15.826c-.988-.849-1.987-1.664-3-2.456C89.209,14.173,90.22,14.988,91.208,15.826Z" transform="translate(-38.971 -5.752)" fill="#ba9a49"/>
        <path id="Path_626" data-name="Path 626" d="M82.107,236.318c.279.291.558.57.848.866l1.116,1.077.826.786c.391.37.787.735,1.189,1.1l1.038.929c.352.308.7.615,1.061.917q1.066.912,2.16,1.812c4.41,3.612,9.316,7.464,15.016,8.546s11.538-.325,17.064-2.023a224.791,224.791,0,0,0,32.934-13.07l.77-.387,1.423-.735,1.77-.923.8-.41c.307-.148.614-.3.927-.444l.709-.33c.4-.177.787-.348,1.189-.507s.793-.308,1.195-.444l.4-.137h0c.223-.074.452-.142.681-.205l.123-.034c.391-.108.787-.2,1.183-.279h.039c.268-.051.558-.1.815-.131l.413-.046h0a3.356,3.356,0,0,1,2.049.08c1.25.416,2.529.8,3.785,1.242.313.108.625.217.938.336h0c.307.114.608.234.91.359h0c.3.125.6.256.9.393h0c.29.131.558.268.854.416h0c-.061-.068-.123-.148-.19-.217-.313-.359-.642-.712-.977-1.06s-.592-.627-.9-.929q-1.08-1.068-2.233-2.091h0l-1.038-.929-.207-.182-1.033-.883q-1.167-.986-2.328-1.931a43.682,43.682,0,0,0-7.541-5.316c-4.728-2.416-9.6-1.259-14.2.929-11.3,5.379-22.479,10.592-34.374,14.512-5.861,1.926-12.107,4.148-18.348,3.618a16.429,16.429,0,0,1-4.812-1.2l-.067-.108h0c-2.35-.855-4.672-1.926-6.894-2.974a.027.027,0,0,1,.017.006Z" transform="translate(-36.267 -94.733)" fill="#99cef6"/>
        <path id="Path_627" data-name="Path 627" d="M252.28,246c.067.068.128.148.19.216h0A2.684,2.684,0,0,0,252.28,246Z" transform="translate(-111.457 -105.84)" fill="#f9db7d"/>
        <path id="Path_628" data-name="Path 628" d="M56.6,0a28.214,28.214,0,0,0,5.805,4.091c2.953,1.453,5.917,2.889,8.8,4.484q2.121,1.174,4.164,2.45h0c2.6,1.293,5.024,2.929,7.6,4.285h0l-.943-.917q-.955-.906-1.915-1.783l-.966-.872q-.977-.866-1.959-1.709c-.988-.838-1.987-1.652-3-2.456Q71.716,5.629,69.1,3.783q-1.044-.735-2.11-1.453c-.709-.479-1.418-.946-2.138-1.407L63.4,0Z" transform="translate(-25.006)" fill="#99cef6"/>
        <path id="Path_629" data-name="Path 629" d="M1163.74,590.313a24.756,24.756,0,0,1,8.032,1.9c.647.279,1.591,1.065,2.333,1.35h0c6.961,6.678,14.318,13.7,22.942,18.078.949.479-.2-.98-.3-1.111a30.6,30.6,0,0,0-3.974-3.909c-2.791-2.5-5.716-5.287-9.048-6.98-.223-.12-.876-.6-1.418-.94l-1.976-1.886c-2.043-1.926-4.119-3.829-6.246-5.663l-.313-.074a52.849,52.849,0,0,0-10.036-.769Z" transform="translate(-514.139 -253.974)" fill="#bbdfff"/>
        <path id="Path_630" data-name="Path 630" d="M990.007,581.518a30.926,30.926,0,0,0,3.969,3.909c1.769,1.6,3.606,3.145,5.493,4.592a14.813,14.813,0,0,0,3.561,2.387,76.066,76.066,0,0,0,28.887,3.219c8.931-.746,17.338-3.316,25.594-6.791,7.9-3.327,15.87-7.008,24.511-7.652h.485a2.11,2.11,0,0,1,.268,0,28.846,28.846,0,0,1,3.907,0,52.855,52.855,0,0,1,10.048.775l.313.074-.061-.051-.949-.815-1.022-.86q-1.021-.855-2.065-1.681c-.273-.222-.558-.439-.832-.655q-1.675-1.316-3.405-2.558c-6.76-4.849-13.955-7.1-22.233-6.159-8.641.974-16.551,4.826-24.516,8.119-16.807,6.951-34.776,8.484-52.248,3.054C988.751,580.111,989.845,581.3,990.007,581.518Z" transform="translate(-437.081 -244.827)" fill="#99cef6"/>
        <path id="Path_631" data-name="Path 631" d="M1156.74,590.23a32,32,0,0,1,3.841,0h.067a28.836,28.836,0,0,0-3.907,0Z" transform="translate(-511.046 -253.914)" fill="#f9db7d"/>
        <path id="Path_632" data-name="Path 632" d="M1423.032,831.363a15.132,15.132,0,0,0,1.434.7,30.436,30.436,0,0,0,6.469,1.4q8.373,1.487,16.8,2.433c10.382,1.168,20.815,1.259,31.209,2.245a71.367,71.367,0,0,1,16.154,3.191,43.334,43.334,0,0,1,5.387,2.228,50.055,50.055,0,0,0-4.728-5.823c-.754-.815-1.518-1.675-2.305-2.518h0a57.553,57.553,0,0,0-5.582-3.31c-11.253-5.766-24.22-6.057-36.534-6.678-7.1-.359-14.184-.934-21.212-1.846q-3.288-.427-6.564-.934c.106-.4.218-.8.341-1.2a4.622,4.622,0,0,0-.162.467C1422.775,824.788,1422.993,828.133,1423.032,831.363Z" transform="translate(-628.672 -353.338)" fill="#bbdfff"/>
        <path id="Path_633" data-name="Path 633" d="M1401.616,685.354a1.36,1.36,0,0,1-.3-.234,7.993,7.993,0,0,0,.82.917c-.106-.154-.218-.3-.341-.45Z" transform="translate(-619.101 -294.769)" fill="#ffefca"/>
        <path id="Path_634" data-name="Path 634" d="M1343.112,645.154a29.257,29.257,0,0,0,3.969,3.914,48.506,48.506,0,0,0,9.054,6.98c4.979,2.678,9.958,5.384,14.753,8.4,1.088.684,2.171,1.379,3.226,2.114.151.108.631.376,1.116.678h0l.14.085c-1.328-1.709-2.5-3.5-3.74-5.265q-2.574-1.971-5.164-3.846c-7.485-5.407-15.557-9.817-23.656-14.176C1341.873,643.541,1343.022,645.04,1343.112,645.154Z" transform="translate(-593.09 -277.051)" fill="#bbdfff"/>
        <path id="Path_635" data-name="Path 635" d="M1401.18,684.85a.206.206,0,0,0,.073.142A.344.344,0,0,1,1401.18,684.85Z" transform="translate(-619.039 -294.652)" fill="#ffefca"/>
        <path id="Path_636" data-name="Path 636" d="M1526.578,930.6c-.061.735,1.228,1.749,1.675,2.228,1.524,1.584,3.176,3.037,4.834,4.467s3.349,2.809,5.1,4.051h0c.184.114,2.456,1.641,2.478,1.339,1.167-14.4,10.416-25.673,17.115-37.786,5.811-10.5,10.288-23.212,5.23-34.954-2.49-5.777-7.067-10.352-11.616-14.478-1.021-.923-2.054-1.846-3.109-2.752l-1.306-1.14c-.491-.416-.988-.826-1.485-1.225l-.039-.04-.748-.57q-1.44-1.139-2.925-2.233c-.324-.239-.653-.473-.983-.7-.53-.376-1.066-.741-1.6-1.094.787.843,1.552,1.709,2.305,2.518a50.042,50.042,0,0,1,4.728,5.823l.117.057a25.549,25.549,0,0,1,4.013,8.165,31.143,31.143,0,0,1-.134,14.381C1545.792,896.19,1528.236,910.149,1526.578,930.6Z" transform="translate(-674.439 -363.862)" fill="#99cef6"/>
        <path id="Path_637" data-name="Path 637" d="M1396.578,749.042c-.447,2.023-1.027,4.41-.38,6.438.8,2.518,3.645,4.626,5.482,6.267l1.736,1.578.6.57.614.57c.765.678,1.552,1.35,2.361,1.988l.558.444.558.427.441.313c.29.2.586.4.888.57l.447.273.6.342c-.061-3.208-.257-6.552.647-9.686a4.652,4.652,0,0,1,.162-.467.186.186,0,0,1,.039-.137l.285-.906c.123-.37.245-.741.374-1.105l.329-.906c.14-.359.274-.718.419-1.077,1.753-4.37,4.019-8.5,6.1-12.706,3.706-7.487,6.531-15.235,5.621-23.765-.9-8.37-4.605-16.141-9.624-22.733q-1.987-2.6-4.209-5.048-.318-.359-.653-.718c-.558-.57-1.083-1.14-1.641-1.709l-.6-.615-.77-.769-.776-.758q-2.378-2.307-4.9-4.467c-.514-.45-1.033-.889-1.552-1.316-.636-.541-1.284-1.071-1.931-1.6q-.726-.57-1.457-1.139c-.558-.444-1.116-.889-1.674-1.322,1.239,1.761,2.411,3.572,3.74,5.265l.05.034.184.12a3.4,3.4,0,0,1,.821.678.523.523,0,0,0-.1-.091,3.536,3.536,0,0,0-.452-.285l-.268-.154.184.234c.123.148.234.3.34.45l.162.165.385.382.112.114c.073.068.134.125.179.177l.062.063.033.034c6.637,7.846,11.086,18.318,10.377,28.807-.625,9.116-5.409,17.041-9.316,25.035A55.141,55.141,0,0,0,1396.578,749.042Z" transform="translate(-616.168 -290.793)" fill="#99cef6"/>
        <path id="Path_638" data-name="Path 638" d="M1401.18,684.85a.206.206,0,0,0,.073.142A.344.344,0,0,1,1401.18,684.85Z" transform="translate(-619.039 -294.652)" fill="#f9db7d"/>
      </g>
    </g>
    <path id="Path_484" data-name="Path 484" d="M1450.333,3245.455s62.245,274.813,478.154,339.737,414.778,274.5,414.778,274.5H1373v-614.24Z" transform="translate(-1373 371.804)" fill="#e2e2e2"/>
    <g id="Group_85" data-name="Group 85" transform="translate(0 3721.528)" opacity="0.13">
      <path id="Path_410" data-name="Path 410" d="M0,0H101.372L0,102.164Z" transform="translate(0 0)" fill="#fff"/>
      <path id="Path_411" data-name="Path 411" d="M0,0H101.372L0,102.164Z" transform="translate(0 102.164)" fill="#fff"/>
      <g id="Group_72" data-name="Group 72" transform="translate(0 306.491)">
        <path id="Path_398" data-name="Path 398" d="M0,0H101.372L0,102.164Z" transform="translate(0 0)" fill="#fff"/>
        <path id="Path_399" data-name="Path 399" d="M0,0H101.372L0,102.164Z" transform="translate(0 102.164)" fill="#fff"/>
        <path id="Path_397" data-name="Path 397" d="M0,0H101.372L0,102.164Z" transform="translate(101.372 0)" fill="#fff"/>
      </g>
      <g id="Group_73" data-name="Group 73" transform="translate(101.372 102.164)">
        <path id="Path_398-2" data-name="Path 398" d="M0,0H101.372L0,102.164Z" transform="translate(0 0)" fill="#fff"/>
        <path id="Path_399-2" data-name="Path 399" d="M0,0H101.372L0,102.164Z" transform="translate(0 102.164)" fill="#fff"/>
      </g>
    </g>
  </g>
</svg>
