<svg xmlns="http://www.w3.org/2000/svg" width="814.215" height="659.493" viewBox="0 0 814.215 659.493">
  <g id="Red_Section_BG" data-name="Red Section BG" transform="translate(-682.765 0)">
    <g id="Layer_2" data-name="Layer 2" transform="translate(682.765 0)">
      <g id="Layer_2-2" data-name="Layer 2">
        <path id="Path_491" data-name="Path 491" d="M436.284,199.2c-.336-3.41-.8-6.8-1.37-10.182h0a210.177,210.177,0,0,0-7.871-30.986c-8.917-27.078-22.53-52.57-31.223-79.684-4.982-15.392-4.857-30.63,1.856-45.513a73.727,73.727,0,0,1,12.89-19.453,41.076,41.076,0,0,1,4.508-4.215.482.482,0,0,1,.125-.095c.511-.414,1.034-.817,1.557-1.184s1.009-.746,1.532-1.1c1.059-.722,2.13-1.421,3.226-2.1.523-.332,1.059-.651,1.582-.959l1.632-.983c.548-.32,1.1-.628,1.656-.924l1.769-.971c.5-.272.984-.556,1.47-.852h-6.476c-.81.545-1.607,1.089-2.4,1.658s-1.881,1.326-2.815,2.013-1.569,1.184-2.354,1.752l-2.055,1.587h0l-.448.355q-2.491,1.954-4.982,4.049t-4.745,4.251c-.772.722-1.532,1.456-2.279,2.19A94.5,94.5,0,0,0,381.97,43.477a60.646,60.646,0,0,0-5.816,37.19c2.354,13.379,8.369,26.249,13.588,38.8,10.922,26.273,22.829,52.582,27.923,80.6.511,2.794,1.071,5.79,1.544,8.9.262,1.693.511,3.41.71,5.15,1.046,9.472.81,19.252-4.048,26.83l-.062.095a55.387,55.387,0,0,0,9.166-4.132c.971-.924,1.905-1.859,2.815-2.806,9.353-9.673,9.7-21.584,8.519-34.04Z" transform="translate(92.128 0)" fill="#ffecb7"/>
        <path id="Path_492" data-name="Path 492" d="M407.924,203.59h0l-.274.154a2.526,2.526,0,0,1,.274-.154Z" transform="translate(100.05 37.463)" fill="#ffecb7"/>
        <path id="Path_493" data-name="Path 493" d="M34.515,585.672a105.476,105.476,0,0,0,13.351-8.762c10.462-7.968,20.313-16.884,25.88-28.689,11.147-23.68,5.866-50.593-2.877-74.107-1.245-3.327-2.491-6.642-3.9-9.946-1.943-4.819-3.973-9.614-5.978-14.421-7.672-18.494-14.883-37.154-15.493-57.27-.411-13.592,2.416-27.232,10.076-38.824a60.355,60.355,0,0,1,6.1-7.8c.174-.2,2.989-2.581,2.491-2.368a21.155,21.155,0,0,1,1.918-1.184,110.2,110.2,0,0,1,20.936-9.685c16.427-5.825,33.776-8.821,50.951-11.935l54.874-9.922c3.736-.663,8.058-5.458,10.773-7.743,1.482-1.184,3.811-2.688,4.733-4.333.187-.332,1.507-1.433.349-1.184-31.559,5.707-64.214,9.733-95.051,18.447-26.839,7.59-52.458,22.982-69.943,44.021-28.4,34.194-11.819,72.6,3.313,109.805C49.51,475.961,52,482.106,54.243,488.2a151.8,151.8,0,0,1,7.8,27.753c2.229,14.054,1.781,29.008-3.736,42.364a56.179,56.179,0,0,1-4.508,8.726,45.738,45.738,0,0,1-3.138,4.416c-.548.651-1.108,1.291-1.669,1.942l-.648.651h0a89,89,0,0,1-9.64,3.836c-1.532.545-3.064,1.03-4.621,1.48Z" transform="translate(6.933 54.735)" fill="#ffecb7"/>
        <path id="Path_494" data-name="Path 494" d="M418.156,0A158.865,158.865,0,0,0,396.05,17.855c1.1-.663,2.192-1.35,3.238-2.048,3.537-2.368,7.136-4.736,10.9-6.784a84.743,84.743,0,0,1,12.94-8.17c.5-.272.984-.556,1.47-.852Z" transform="translate(97.203 0)" fill="#f9db7d"/>
        <path id="Path_495" data-name="Path 495" d="M378.9,212.41,352.971,226.2a637.974,637.974,0,0,1-75.971-1.6,21.475,21.475,0,0,1,2.005-2.475,68.022,68.022,0,0,1,5.754-4.949c1.831-1.456,6.439-6.181,9.029-5.92A632.536,632.536,0,0,0,378.9,212.41Z" transform="translate(67.985 38.872)" fill="#f9db7d"/>
        <path id="Path_496" data-name="Path 496" d="M430.739,200.09l-.1.095-1.557,1.468-1.694,1.527c-.573.509-1.146,1.006-1.744,1.5s-.971.829-1.47,1.184-1.046.853-1.569,1.255l-.872.675c-2.329,1.788-4.758,3.481-7.248,5.044-.772.485-1.557.947-2.341,1.409-.585.343-1.158.675-1.756.995-.374.2-.747.414-1.133.6-.648.343-1.308.687-1.968,1.006l-.535.26-.959.45-1.245.58-.872.367c-.585.26-1.183.5-1.793.734s-1.32.509-1.98.746c-13.6,4.843-28.471,5.837-42.83,6.926-1.644.13-3.3.249-4.982.343l22.418-13.782c3.736-.284,7.572-.628,11.358-.995a145.016,145.016,0,0,0,23.576-3.848,71.8,71.8,0,0,0,10.362-3.552c.448-.2.934-.438,1.407-.7h0l.274-.154h0a55.4,55.4,0,0,0,9.254-4.144Z" transform="translate(86.414 36.818)" fill="#f9db7d"/>
        <path id="Path_497" data-name="Path 497" d="M49.825,535.086c.909-1.516,1.769-3.067,2.7-4.558.087-.142.174-.3.274-.438l-.423.485-.648.651h0a89,89,0,0,1-9.64,3.836,89.446,89.446,0,0,1-11.383,3.209c-3.736.805-7.971,5.387-10.773,7.743-1.32,1.113-4.135,2.794-4.72,4.333-.125.308-1.557,1.48-.361,1.184A88.6,88.6,0,0,0,49.24,535.643C49.439,535.465,49.626,535.264,49.825,535.086Z" transform="translate(3.529 97.542)" fill="#f9db7d"/>
        <path id="Path_498" data-name="Path 498" d="M202.571,297.424c-31.559,5.707-64.214,9.733-95.051,18.447a148.315,148.315,0,0,0-54.039,28.2A90.445,90.445,0,0,1,62.2,340.96a115.452,115.452,0,0,1,18.681-8.383c16.427-5.825,33.776-8.821,50.951-11.935l54.874-9.922c3.736-.663,8.058-5.458,10.773-7.743,1.482-1.184,3.811-2.688,4.733-4.333C202.409,298.312,203.729,297.211,202.571,297.424Z" transform="translate(13.126 54.724)" fill="#f9db7d"/>
        <path id="Path_499" data-name="Path 499" d="M131,348.75Z" transform="translate(32.152 64.173)" fill="#fcb2b2"/>
        <path id="Path_500" data-name="Path 500" d="M131.1,348.7l-.075.059h0Z" transform="translate(32.159 64.164)" fill="#fcb2b2"/>
        <path id="Path_501" data-name="Path 501" d="M135.265,345.19l-.125.107h0Z" transform="translate(33.168 63.518)" fill="#fcb2b2"/>
        <path id="Path_502" data-name="Path 502" d="M407.469,180.2l-.386.32-.212.166h0c.448-.426-.785.438-1.021.7l.286-.166a.484.484,0,0,1-.125.095l.262-.178.336-.225h.137l.635-.5h0Zm.473-.355h0l.062-.059Zm0,0h0s.05-.047.037-.024Zm.125-.107Z" transform="translate(99.609 33.074)" fill="#fcb2b2"/>
        <path id="Path_503" data-name="Path 503" d="M409.35,223.08c-18.681,11.047-37.9,21.312-57.464,31.009-64.638,31.968-132.551,58.384-192.245,98.746-5.306,3.552-10.113,7-14.945,10.656-8.718,5.233-17.237,10.656-25.805,16,15.929-13.474,32.556-26.178,49.568-38.172,60.379-42.541,128.279-71.455,195.022-103.329q14.223-6.784,28.246-13.924Q400.495,223.7,409.35,223.08Z" transform="translate(29.179 41.049)" fill="#fcb2b2"/>
        <path id="Path_504" data-name="Path 504" d="M377.986,211.44l-22.418,13.782q-8.805.6-17.6.947l25.955-13.794Q370.961,212.008,377.986,211.44Z" transform="translate(82.949 38.907)" fill="#f9db7d"/>
        <path id="Path_505" data-name="Path 505" d="M421.851,182.27c-9.59,7.566-19.516,14.682-29.392,21.5q-9.677,6.69-19.591,13.024-7.024.568-14.048.935c14.273-7.921,28.271-16.292,41.859-25.267h0a231.992,231.992,0,0,0,21.172-10.194Z" transform="translate(88.066 33.539)" fill="#fcb2b2"/>
        <path id="Path_506" data-name="Path 506" d="M148.094,357.59l-4.87,4.132q-2.329,2.025-4.658,4.061-2.566,2.25-5.094,4.547l-.087.071-4.982,4.523q-2.491,2.309-4.982,4.653c-1.644,1.551-3.288,3.126-4.907,4.736s-3.251,3.173-4.857,4.736q-2.628,2.7-5.306,5.387c-.959.983-1.918,1.977-2.864,2.972s-2.242,2.368-3.338,3.552q-2.491,2.6-4.895,5.257c-.772.841-1.532,1.669-2.279,2.51q-5.679,6.287-11.109,12.74c-.61.71-1.245,1.433-1.793,2.143q-2.329,2.818-4.633,5.683l-1.47,1.8c-.722.9-1.432,1.812-2.142,2.723-.884,1.184-1.756,2.25-2.628,3.386l-.76,1.006-1.906,2.522c-.212.284-.423.556-.623.841q-1.669,2.238-3.288,4.476l-2.2,3.078c-2.889,4.073-5.717,8.205-8.432,12.385q-2.155,3.244-4.2,6.548c-.511.781-1,1.575-1.482,2.368s-1.245,1.906-1.756,2.865a367.588,367.588,0,0,0-25.569,50.829C12.454,545.1,3.923,566.437.81,588.863c-.349,2.557-.61,5.115-.81,7.72H28.433c2.74-1.729,14.061-7.388,13.924-8.773-.336-3.552-.648-6.938-.909-10.277a83.668,83.668,0,0,1-23.065,8.655c-1.245.26.237-.912.361-1.184.585-1.539,3.4-3.22,4.72-4.333,2.8-2.368,7.012-6.938,10.773-7.743,2.279-.485,4.521-1.03,6.75-1.669-1.42-22.105-.461-41.31,8.133-63.321q5.53-14.208,12.118-27.919,4.309-8.975,9.141-17.76c1.158-2.1,2.329-4.168,3.537-6.24A404.279,404.279,0,0,1,152.541,359.2c3.051-2.735,5.6-4.949,8.444-7.341l2.08-1.729h.075l.112-.095h.062l.174-.154.075-.059.436-.355,2.79-2.238,1.1-.864.149-.118.087-.083.187-.142.187-.142h0l2.615-2.013c.872-.675,1.731-1.326,2.6-1.977C165.231,346.827,156.663,352.2,148.094,357.59Z" transform="translate(0 62.911)" fill="#f87e7d"/>
        <path id="Path_507" data-name="Path 507" d="M131,348.75Z" transform="translate(32.152 64.173)" fill="#d87777"/>
        <path id="Path_508" data-name="Path 508" d="M131.866,348.1l-.436.355Z" transform="translate(32.257 64.054)" fill="#d87777"/>
        <path id="Path_509" data-name="Path 509" d="M135.294,345.19l-.125.107-.149.118.087-.083Z" transform="translate(33.138 63.518)" fill="#d87777"/>
        <path id="Path_510" data-name="Path 510" d="M135.43,345Z" transform="translate(33.239 63.483)" fill="#d87777"/>
        <path id="Path_511" data-name="Path 511" d="M138.065,343.31l-2.615,2.025h0Z" transform="translate(33.244 63.172)" fill="#d87777"/>
        <path id="Path_512" data-name="Path 512" d="M131,348.8Z" transform="translate(32.152 64.183)" fill="#d87777"/>
        <path id="Path_513" data-name="Path 513" d="M131,348.75Z" transform="translate(32.152 64.173)" fill="#d87777"/>
        <path id="Path_514" data-name="Path 514" d="M406.64,180.663h0a.584.584,0,0,1,.149-.107.686.686,0,0,0-.149.107Zm.635-.533Zm-.635.5Z" transform="translate(99.802 33.146)" fill="#d87777"/>
        <path id="Path_515" data-name="Path 515" d="M452.664,0H412.5c-2.952,2.723-4.733,4.878-4.147,5.66a202.183,202.183,0,0,1,35.682,78.831c6.675,31.968,7.7,64.221-7.473,94.295a125.539,125.539,0,0,1-25.083,33.8c-.274.272-.461.45-.573.58h0l.374-.284h0l.087-.071h.075l-.125.095h0l-.062.059h0l-.386.3h0a.3.3,0,0,0-.062.118l-.237.154-.162.118a.584.584,0,0,0-.149.107h-.075l-.336.225-.262.178-.137.107-3.873,2.806q-5.492,3.907-11.134,7.649c-.635.438-1.245.852-1.93,1.279a231.986,231.986,0,0,0,21.172-10.194l.174-.095c4.11-3.244,8.158-6.571,12.093-9.981l2.653-2.368c1.793-1.61,3.574-3.244,5.318-4.89,1.133-1.077,2.267-2.167,3.388-3.268l.112-.107c1.071-1.066,2.142-2.143,3.2-3.232.747-.77,1.495-1.539,2.217-2.368s1.694-1.8,2.491-2.711c1.769-1.942,3.5-3.931,5.169-5.92.685-.817,1.358-1.634,2.018-2.475.971-1.184,1.93-2.439,2.864-3.682.735-.971,1.47-1.965,2.18-2.96,19.8-27.658,26.054-60.811,21.409-93.667C475.045,50.735,466.688,24.189,452.664,0Z" transform="translate(96.334 0)" fill="#f87e7d"/>
      </g>
    </g>
    <path id="Path_472" data-name="Path 472" d="M2454.041-423.515s90.6,76.853,0,194.52-394.489,125.258-481.314,464.973h699.038V-423.515Z" transform="translate(-1175 423.515)" fill="#f87e7d"/>
    <g id="Group_86" data-name="Group 86" transform="translate(1267.204 199.796)" opacity="0.09">
      <g id="Group_70" data-name="Group 70" transform="translate(0)">
        <path id="Path_398" data-name="Path 398" d="M0,0H229.775L0,229.775Z" fill="#fff"/>
        <path id="Path_399" data-name="Path 399" d="M0,0H229.775L0,229.775Z" transform="translate(0 229.775)" fill="#fff"/>
      </g>
    </g>
  </g>
</svg>
