<svg xmlns="http://www.w3.org/2000/svg" width="1024.481" height="622.656" viewBox="0 0 1024.481 622.656">
  <g id="Group_153" data-name="Group 153" transform="translate(-0.001 -2799.345)">
    <path id="Subtraction_2" data-name="Subtraction 2" d="M-14155,836.656h-1024V339.618a331.824,331.824,0,0,1,39.083-18.556,383.16,383.16,0,0,1,44.558-14.567c15.081-3.951,30.372-7.427,45.447-10.333,14.611-2.817,29.442-5.18,44.081-7.022,14.151-1.781,28.528-3.128,42.731-4,13.7-.842,27.625-1.269,41.4-1.269,13.922,0,28.107.436,42.162,1.3,13.42.821,27.123,2.053,40.73,3.663,12.919,1.528,26.149,3.443,39.323,5.691,12.414,2.119,25.178,4.6,37.938,7.382,23.018,5.014,46.508,11.06,71.814,18.484,20.077,5.89,41.225,12.623,66.552,21.189,13.628,4.609,26.914,9.219,39.762,13.678,68.082,23.625,126.88,44.028,177.416,44.028,5.347,0,10.6-.233,15.626-.692a147.724,147.724,0,0,0,15.092-2.155c42.99-8.486,74.865-28.18,94.741-58.537a138.735,138.735,0,0,0,18.177-42.28,183.681,183.681,0,0,0,5.3-40.043,210.651,210.651,0,0,0-1.368-29.855c-.876-7.343-1.825-11.677-1.835-11.718H-14155V836.655Z" transform="translate(15179 2585.346)" fill="#fcb2b2"/>
    <path id="Subtraction_1" data-name="Subtraction 1" d="M-13946.23,2733.31h-1024V2269.566a291.981,291.981,0,0,1,27.125-20.554,309.392,309.392,0,0,1,30.823-18.12,340.259,340.259,0,0,1,34.738-15.387,387.282,387.282,0,0,1,38.87-12.357c15.072-3.948,30.362-7.425,45.446-10.333,14.614-2.818,29.444-5.18,44.079-7.022,14.152-1.781,28.528-3.127,42.73-4,13.7-.842,27.626-1.269,41.4-1.269,13.923,0,28.107.436,42.161,1.3,13.42.821,27.124,2.053,40.73,3.663,12.916,1.527,26.146,3.442,39.323,5.691,12.414,2.119,25.179,4.6,37.938,7.382,23.021,5.014,46.513,11.06,71.815,18.483,20.089,5.893,41.236,12.626,66.552,21.188,13.621,4.607,26.906,9.217,39.754,13.676,68.085,23.626,126.886,44.031,177.427,44.031,5.346,0,10.6-.233,15.626-.692a147.659,147.659,0,0,0,15.093-2.156c42.989-8.486,74.864-28.181,94.741-58.537a138.766,138.766,0,0,0,18.176-42.279,183.663,183.663,0,0,0,5.3-40.042,210.8,210.8,0,0,0-1.368-29.854c-.876-7.345-1.825-11.677-1.835-11.718h57.353v622.655Z" transform="translate(14970.23 688.691)" fill="#f87e7d"/>
    <g id="Group_134" data-name="Group 134" transform="translate(692.661 3090.258)" opacity="0.09">
      <g id="Group_70" data-name="Group 70" transform="translate(166.015 165.564)">
        <path id="Path_398" data-name="Path 398" d="M0,0H165.806L0,165.806Z" fill="#fff"/>
      </g>
      <g id="Group_70-2" data-name="Group 70" transform="translate(0)">
        <path id="Path_398-2" data-name="Path 398" d="M0,0H165.806L0,165.806Z" fill="#fff"/>
        <path id="Path_399" data-name="Path 399" d="M0,0H165.806L0,165.806Z" transform="translate(0 165.806)" fill="#fff"/>
        <path id="Path_397" data-name="Path 397" d="M0,0H165.806L0,165.806Z" transform="translate(165.806)" fill="#fff"/>
      </g>
    </g>
  </g>
</svg>
