<svg xmlns="http://www.w3.org/2000/svg" width="899.908" height="626.351" viewBox="0 0 899.908 626.351">
  <g id="Yellow_Section_BG" data-name="Yellow Section BG" transform="translate(-273 -1001.944)">
    <g id="Layer_2" data-name="Layer 2" transform="translate(559.353 1001.944)">
      <g id="Layer_1" data-name="Layer 1">
        <path id="Path_516" data-name="Path 516" d="M167.325,394.311a32.254,32.254,0,0,1-3.335-.531,28.647,28.647,0,0,0,3.335.531Z" transform="translate(-39.11 -99.198)" fill="#fcb2b2"/>
        <path id="Path_517" data-name="Path 517" d="M154.679,390.765c-.7-.292-1.394-.583-2.079-.905C153.285,390.182,153.978,390.488,154.679,390.765Z" transform="translate(-36.394 -98.211)" fill="#fcb2b2"/>
        <path id="Path_518" data-name="Path 518" d="M149.416,388.044a53.885,53.885,0,0,1-5.886-3.434,51.567,51.567,0,0,0,5.886,3.434Z" transform="translate(-34.231 -96.888)" fill="#fcb2b2"/>
        <path id="Path_519" data-name="Path 519" d="M141.8,383.24q-2.848-1.893-5.521-4.07A66.4,66.4,0,0,0,141.8,383.24Z" transform="translate(-32.502 -95.518)" fill="#fcb2b2"/>
        <path id="Path_520" data-name="Path 520" d="M78,56.27c.175.12.388.292.571.426h0c2.285,2.91,4.805,5.551,6.854,8.663a105.988,105.988,0,0,1,9.991,20.2c21,54.917,12.512,115.056,9.656,172.142-.343,6.9-.761,13.952,1.348,20.64,1.751,5.506,5.331,9.92,9.565,13.84l1.2,1.122h0c2.087.935,4.242,1.728,6.435,2.529l-.891-.419a27.579,27.579,0,0,1-3.115-5.528c-2.749-7.055-2.056-14.917-1.683-22.293.762-14.431,1.767-28.854,2.589-43.269,1.645-28.622,2.574-57.513-1.569-85.978-3.808-26.183-11.3-55.762-30.75-75.153q-1.965-1.96-4.036-3.853c-1.2-.569-2.406-1.122-3.6-1.683A20.767,20.767,0,0,0,78.594,56.6a2.32,2.32,0,0,0-.244-.165A1.87,1.87,0,0,1,78,56.27Z" transform="translate(-18.602 -14.175)" fill="#fcb2b2"/>
        <path id="Path_521" data-name="Path 521" d="M676.68,726.84a45.533,45.533,0,0,0,3.252,4.967q1.858,1.324,3.724,2.551c12.854,8.491,28.107,14.214,42.987,18.216a178.884,178.884,0,0,0,48.295,6.075,21.834,21.834,0,0,0-1.523-1.945,56.793,56.793,0,0,0-4.394-3.9c-1.523-1.257-4.782-4.743-6.9-4.721a176.873,176.873,0,0,1-56.085-8.513,169.58,169.58,0,0,1-25.891-10.75C678.972,728.2,677.83,727.506,676.68,726.84Z" transform="translate(-161.382 -183.101)" fill="#fcb2b2"/>
        <path id="Path_522" data-name="Path 522" d="M519,572.08a30.257,30.257,0,0,0,3.442,5.865h0a60.225,60.225,0,0,0,6.808,3.8c11.689,5.528,25.13,5.394,37.786,4.578,13.372-.875,27.125-2.955,40.444-.5a48.868,48.868,0,0,1,9.534,2.745c1.036.426,2.01.943,2.993,1.444.183.1.365.194.556.284a25.929,25.929,0,0,0-3.145-4.489,1.132,1.132,0,0,0-.312-.269.33.33,0,0,0-.069-.15c-.03-.052-.2-.277-.3-.419.564.411,1.119.83,1.683,1.257a56.272,56.272,0,0,0-15.992-9.082,61.919,61.919,0,0,0-18.055-2.88c-13.456-.441-26.813,1.848-40.253,1.945a70.181,70.181,0,0,1-20.561-2.446A45.741,45.741,0,0,1,519,572.08Z" transform="translate(-123.777 -144.114)" fill="#fcb2b2"/>
        <path id="Path_523" data-name="Path 523" d="M442.8,420.386c.7,1.294,2.483,2.431,3.61,3.419,2.193,1.908,5.331,5.379,8.232,6.112a69.475,69.475,0,0,1,11.552,3.935,62.613,62.613,0,0,1,5.947,3.067c.609.352,2.513,2.057,3.366,2.3-.762-.277-1.873-1.87,0,0h0l.129.127a2.415,2.415,0,0,1,.19.2,17.927,17.927,0,0,0-2.779-3.15l-.32-.389-.107-.112a21.62,21.62,0,0,0-2.01-2.6c-8.445-6.261-17.713-11.319-28.1-13.907C441.608,419.2,442.651,420.154,442.8,420.386Z" transform="translate(-105.448 -105.644)" fill="#fcb2b2"/>
        <path id="Path_524" data-name="Path 524" d="M205.47,348.716c8.8-8.341,15.672-18.582,22.274-28.629.236-.352,13.814,9.1,12.839,10.578-5.6,8.513-12.039,17.834-19.639,25.794Z" transform="translate(-49.003 -80.632)" fill="#d87777"/>
        <path id="Path_525" data-name="Path 525" d="M196.99,373.371c-9.9,8.618-21.52,14.49-35.54,13.862-.4,0-.761-.045-1.18-.075s-.762-.067-1.165-.112l-.845-.1q-.845-.112-1.668-.269l-.822-.165h-.137l-.762-.18-.366-.09-.845-.224-.236-.067c-.343-.09-.685-.195-1.02-.3s-.655-.209-.975-.314l-.206-.075-.807-.284-.251-.1-.96-.374c-.7-.284-1.394-.584-2.079-.905-.343-.157-.678-.322-1.02-.494a53.829,53.829,0,0,1-5.886-3.426c-.472-.314-.944-.636-1.409-.965q-1.409-.987-2.764-2.042L134.7,375.6l-.114-.09c-.518-.419-1.028-.845-1.523-1.272-1.2-1.017-2.384-2.065-3.541-3.12,2.087.928,4.242,1.721,6.435,2.521.381.165.761.329,1.142.479l.183.075.145.045.6.232c.2.082.4.157.6.224l.891.3c13.814,4.444,28.648-.4,40.017-8.476.761-.524,1.462-1.055,2.17-1.608Z" transform="translate(-30.889 -91.926)" fill="#d87777"/>
        <path id="Path_526" data-name="Path 526" d="M137.91,376.55q1.31.583,2.673,1.055c-.807-.284-1.6-.613-2.384-.958Z" transform="translate(-32.89 -94.858)" fill="#d87777"/>
        <path id="Path_527" data-name="Path 527" d="M57.308,39.29q-.2,2.454-.358,4.915a80.876,80.876,0,0,1,11.689,5.184c1.363.748,2.719,1.5,4.021,2.371l.3.232c.122.067.244.12.366.2a2.32,2.32,0,0,1,.244.165,20.768,20.768,0,0,1,1.972,1.055c1.2.561,2.406,1.115,3.6,1.683q-3.884-3.568-8.08-6.808c-.426-.344-.86-.673-1.3-.995l-.069-.052c-.6-.441-1.211-.89-1.82-1.317-.762-.561-1.523-1.107-2.33-1.631l-.853-.569c-.525-.359-1.051-.7-1.584-1.025s-1-.643-1.523-.935c-.624-.389-1.256-.748-1.9-1.13s-1.279-.748-1.919-1.085A4.413,4.413,0,0,0,57.308,39.29Z" transform="translate(-13.582 -9.898)" fill="#d87777"/>
        <path id="Path_528" data-name="Path 528" d="M0,23.1s1.333,1.736,1.523,1.953a55.191,55.191,0,0,0,4.394,3.9c1.713,1.421,4.569,4.489,6.907,4.72,1.363.142,2.719.292,4.082.471.1-2.805.228-5.581.388-8.371A158.7,158.7,0,0,0,0,23.1Z" transform="translate(0 -5.819)" fill="#d87777"/>
        <path id="Path_529" data-name="Path 529" d="M479.51,438a21.614,21.614,0,0,1,2.01,2.6l.107.112.32.389a17.922,17.922,0,0,1,2.779,3.149h0c.221.224.434.456.64.681l.632.7a55.457,55.457,0,0,1,3.808,4.72,62.571,62.571,0,0,1,6.092,10.406,64.5,64.5,0,0,1,5.8,25.2,58.354,58.354,0,0,1-.762,10.885c-.251,1.556-.556,3.1-.9,4.646,1.523.98,3.092,1.99,4.622,2.992q4.371,2.9,8.681,5.872c.289-1.257.525-2.529.693-3.815a.793.793,0,0,1,.038-.3,65.337,65.337,0,0,0-1.043-22.166c-3.175-14.393-11.126-26.535-21.985-36.514l-1.729-1.564c-.815-.748-1.63-1.451-2.46-2.154l-1.782-1.5-1.607-1.309-.4-.329c-.541-.426-1.089-.86-1.637-1.279S480.134,438.471,479.51,438Z" transform="translate(-114.359 -110.338)" fill="#d87777"/>
        <path id="Path_530" data-name="Path 530" d="M503.981,553.36c.487.591.99,1.167,1.523,1.736.2.232.4.456.609.681.373.4.761.748,1.135,1.167s.762.748,1.18,1.145l.609.569q1.279,1.189,2.635,2.312c.3.247.6.486.9.748s.678.524,1.013.793c1.424,1.1,2.9,2.14,4.4,3.09a30.25,30.25,0,0,1-3.442-5.865h0a16.061,16.061,0,0,1-1.142-9.1c.906-6.433,3.488-12.471,4.912-18.814q-4.295-2.992-8.681-5.872c-1.523-1.017-3.046-2.027-4.622-2.992-.761,3.337-1.683,6.643-2.711,10.009C500.1,539.947,498.91,547.24,503.981,553.36Z" transform="translate(-119.343 -131.738)" fill="#d87777"/>
        <path id="Path_531" data-name="Path 531" d="M647.34,589.35c.1.142.206.277.3.419s0,.1.069.15a1.13,1.13,0,0,1,.312.269,25.932,25.932,0,0,1,3.145,4.489h0a.208.208,0,0,1,.084,0l.107.12.647.83a47.355,47.355,0,0,1,8.529,18.934,65.425,65.425,0,0,1,.655,21.889l12.489,13.077a71.165,71.165,0,0,0,.495-19.577c-1.919-15.523-10.28-27.3-22.282-37.105-.4-.329-.807-.666-1.218-.98-.548-.441-1.1-.868-1.653-1.294S647.9,589.762,647.34,589.35Z" transform="translate(-154.385 -148.465)" fill="#d87777"/>
        <path id="Path_532" data-name="Path 532" d="M617.654,612.135l-.114-.1c.076.082.16.15.236.224l-.069-.075Z" transform="translate(-147.278 -154.178)" fill="#bbdfff"/>
        <path id="Path_533" data-name="Path 533" d="M617.22,611.72Z" transform="translate(-147.201 -154.1)" fill="#bbdfff"/>
        <path id="Path_534" data-name="Path 534" d="M616.93,611.43Z" transform="translate(-147.132 -154.027)" fill="#bbdfff"/>
        <path id="Path_535" data-name="Path 535" d="M599.7,595.337c-.472-.411-.952-.83-1.424-1.257.571.509,1.142,1,1.713,1.5.107.09.228.209.373.329a.379.379,0,0,0,.107.09.253.253,0,0,0,.046.045.454.454,0,0,0-.107-.1c-.251-.232-.762-.658-.952-.853Z" transform="translate(-142.684 -149.656)" fill="#bbdfff"/>
        <path id="Path_536" data-name="Path 536" d="M129.79,312.65l.046.037h0Z" transform="translate(-30.954 -78.761)" fill="#bbdfff"/>
        <path id="Path_537" data-name="Path 537" d="M129.472,312.385a1.611,1.611,0,0,0,.183.15h0l-.335-.284c.091.082.175.142.251.217Z" transform="translate(-30.842 -78.66)" fill="#bbdfff"/>
        <path id="Path_538" data-name="Path 538" d="M128.981,311.985a.16.16,0,0,1-.061-.045.654.654,0,0,0,.107.1h0Z" transform="translate(-30.746 -78.582)" fill="#bbdfff"/>
        <path id="Path_539" data-name="Path 539" d="M129.393,312.337s0-.037-.053-.037a.981.981,0,0,0,.137.12l-.069-.075Z" transform="translate(-30.846 -78.672)" fill="#bbdfff"/>
        <path id="Path_540" data-name="Path 540" d="M523.87,533.286l1.523,1.055c1.355.943,2.688,1.893,4.036,2.835a.673.673,0,0,0,.13.09.516.516,0,0,0,.137.1h0l.137.1.221.165.053.037a.5.5,0,0,0,.1.06h.038l.053.045a.185.185,0,0,1,.061.045h.046a.211.211,0,0,1,.069.052c.244.165.487.344.761.524,5.133,3.688,10.2,7.481,15.23,11.259l.19.142a1.579,1.579,0,0,1,.129.1l.365.277.236.179,2.064,1.594,3.693,2.865c1.386,1.077,2.772,2.177,4.158,3.269l1.18.935.274.217.137.1c2.688,2.11,5.331,4.317,7.935,6.5l3.107,2.581c.114.1.228.21.35.3l.236.187-.114-.082.13.1.137.112.274.224.061.06a.934.934,0,0,0,.145.12l.13.12h0s.068.06.091.075h0a.077.077,0,0,0,.038,0c.251.224.5.449.762.658l2,1.728q6.953,4.676,13.791,9.523c2.452,1.743,5,3.366,7.524,5.012q5.574,4.982,11.065,10.077c-17.142-15.942-35.029-31.12-53.367-45.716Q539.092,539.7,524.555,529a.828.828,0,0,1-.038.3A27.478,27.478,0,0,1,523.87,533.286Z" transform="translate(-124.938 -133.262)" fill="#ffecb7"/>
        <path id="Path_541" data-name="Path 541" d="M213.319,371.721c2.026-1.765,3.967-3.651,5.841-5.618l-15.474-7.743a74.946,74.946,0,0,1-5.7,4.878Z" transform="translate(-47.219 -90.276)" fill="#d87777"/>
        <path id="Path_542" data-name="Path 542" d="M218.12,374.328c11.765,6.314,23.713,12.284,35.639,18.1C310.232,419.961,369.165,442.9,423.179,475.1q7.3,4.354,14.469,8.932c.343-1.541.647-3.09.9-4.646q-16.182-11.334-33.065-21.6c-54.006-32.706-113-56.062-169.816-83.4q-5.833-2.82-11.682-5.671C222.087,370.677,220.146,372.563,218.12,374.328Z" transform="translate(-52.02 -92.883)" fill="#ffecb7"/>
        <path id="Path_543" data-name="Path 543" d="M114.67,304.93a340.861,340.861,0,0,0,31.138,24.447c10.4,7.294,21.231,14.042,32.311,20.4a74.924,74.924,0,0,0,5.7-4.878c-18.5-9.486-36.659-19.667-53.709-31.337l-.762-.5-.069-.052-.716-.524-2.071-1.5a.07.07,0,0,1-.038,0H126.4a.312.312,0,0,1-.084-.075h-.084l-.107-.075h0C122.239,308.925,118.439,306.972,114.67,304.93Z" transform="translate(-27.348 -76.816)" fill="#ffecb7"/>
        <path id="Path_544" data-name="Path 544" d="M659.759,699.3c.358.464.762.928,1.119,1.377.274.336.564.666.853.987s.632.7.959,1.047c1.089,1.167,2.246,2.3,3.45,3.4.3.284.609.554.921.83,1.66,1.459,3.389,2.85,5.155,4.182l1.264.935c.457.337.921.666,1.378.987a45.556,45.556,0,0,1-3.252-4.967l-.061-.037c-.221-.284-.434-.584-.632-.89a18.574,18.574,0,0,1-2.681-12.067c.762-7.481,3.952-14.633,5.818-21.942.19-.7.358-1.406.51-2.11q.609-2.783,1.043-5.6L663.117,652.36c-.1.838-.221,1.683-.35,2.528-.213,1.369-.465,2.708-.762,4.047-1.523,6.875-3.869,13.466-5.612,20.281C654.558,686.435,655.1,693.273,659.759,699.3Z" transform="translate(-156.31 -164.338)" fill="#d87777"/>
        <path id="Path_545" data-name="Path 545" d="M739.455,795.092c-10.166-39.14-33.887-86.03-59.565-117.547.19-.7.358-1.406.51-2.11q.609-2.783,1.043-5.6c31.062,33.447,60.974,81.968,76.966,125.252Z" transform="translate(-162.148 -168.741)" fill="#f9db7d"/>
        <path id="Path_546" data-name="Path 546" d="M590,586.74c1.043.89,2.086,1.8,3.13,2.708l3.183,2.783c.388.352.762.7,1.18,1.032l.084.067h0l.1.1h0l.084.067.48.434.137.127h0a.1.1,0,0,0,.053.045.246.246,0,0,0,.046.045c1.165,1.077,2.346,2.125,3.511,3.179q4.128,3.74,8.186,7.578l.259.239h0a1.25,1.25,0,0,1,.107.1l.091.09h0a.627.627,0,0,0,.107.1l.129.127c.076.082.16.15.236.224l1.1,1.047c1.348,1.294,2.688,2.581,4.028,3.882,4.843,4.721,10.014,9.912,14.408,14.52q7.943,8.311,15.664,17.071c.3-1.339.548-2.678.762-4.047.129-.845.251-1.691.35-2.528-1.965-2.012-3.929-3.987-5.9-5.985-1.424-1.429-2.863-2.843-4.3-4.257s-2.772-2.716-4.166-4.055c-.221-.224-.449-.434-.67-.643-.952-.935-1.911-1.848-2.879-2.76s-1.873-1.788-2.81-2.663a1.648,1.648,0,0,0-.206-.195q-2.1-1.975-4.211-3.942-5.49-5.08-11.065-10.077c-2.528-1.646-5.072-3.269-7.524-5.012Q596.93,591.423,590,586.74Z" transform="translate(-140.71 -147.807)" fill="#f9db7d"/>
        <path id="Path_547" data-name="Path 547" d="M617.654,612.135l-.114-.1c.076.082.16.15.236.224l-.069-.075Z" transform="translate(-147.278 -154.178)" fill="#99cef6"/>
        <path id="Path_548" data-name="Path 548" d="M617.22,611.72h0a.637.637,0,0,0,.107.1Z" transform="translate(-147.201 -154.1)" fill="#99cef6"/>
        <path id="Path_549" data-name="Path 549" d="M616.93,611.43h0l.2.187A1.138,1.138,0,0,1,616.93,611.43Z" transform="translate(-147.132 -154.027)" fill="#99cef6"/>
        <path id="Path_550" data-name="Path 550" d="M600.782,596.313c-.251-.232-.762-.658-.952-.853l.244.224.289.262c.107.09.229.209.373.329a.381.381,0,0,0,.107.09.252.252,0,0,0,.046.045A.452.452,0,0,0,600.782,596.313Z" transform="translate(-143.054 -150.004)" fill="#99cef6"/>
        <path id="Path_551" data-name="Path 551" d="M589.89,586.67c1.066.928,2.14,1.848,3.206,2.76-1.043-.905-2.087-1.818-3.13-2.708A.231.231,0,0,1,589.89,586.67Z" transform="translate(-140.683 -147.79)" fill="#99cef6"/>
        <path id="Path_552" data-name="Path 552" d="M128.75,311.74Z" transform="translate(-30.706 -78.531)" fill="#99cef6"/>
        <path id="Path_553" data-name="Path 553" d="M128.75,311.82Z" transform="translate(-30.706 -78.552)" fill="#99cef6"/>
        <path id="Path_554" data-name="Path 554" d="M128.82,311.86Z" transform="translate(-30.722 -78.562)" fill="#99cef6"/>
        <path id="Path_555" data-name="Path 555" d="M128.94,312Z" transform="translate(-30.751 -78.597)" fill="#99cef6"/>
        <path id="Path_556" data-name="Path 556" d="M129.163,312.147s-.038-.037-.053-.037h0Z" transform="translate(-30.792 -78.625)" fill="#99cef6"/>
        <path id="Path_557" data-name="Path 557" d="M51.038,0a2.975,2.975,0,0,1,1.02,1.938c-.678,5.887-2.437,21.537-2.909,27.455-1.843-.965-3.739-1.953-5.65-2.805-.586-.277-1.18-.524-1.774-.748a105.346,105.346,0,0,0-18.984-5.85c.183-3.426,1.523-15.874,1.828-19.952Z" transform="translate(-5.423)" fill="#f9db7d"/>
        <path id="Path_558" data-name="Path 558" d="M48.564,43.82a436.622,436.622,0,0,0-.069,60.55,288.642,288.642,0,0,0,5.719,41.646A238.634,238.634,0,0,0,67.4,186.068c5.78,13.9,12.626,27.455,21.391,39.791q2,2.813,4.15,5.528a113.921,113.921,0,0,0,9.382,10.473l.251.247.152.142.069.06.4.367v.045h0a.21.21,0,0,0,.046.06h0a.1.1,0,0,0,.053.045.653.653,0,0,0,.107.1.448.448,0,0,1,.076.082c.023.037-.038-.037-.053-.037h0a.1.1,0,0,1,.046.037h0l.053.052a.976.976,0,0,0,.137.12l.053.052a.26.26,0,0,0,.107.06c-3.891-1.75-7.684-3.7-11.423-5.73h0q-2.582-2.289-5.095-4.653c-.7-.651-1.386-1.3-2.071-1.967q-2.444-2.356-4.813-4.758c-.4-.411-.762-.808-1.188-1.219q-1.713-1.751-3.366-3.546A166.5,166.5,0,0,1,50.11,183.869a248.589,248.589,0,0,1-25.335-80.045A388.335,388.335,0,0,1,21.987,37.76a124.5,124.5,0,0,1,26.577,6.06Z" transform="translate(-5.158 -9.512)" fill="#f9db7d"/>
        <path id="Path_559" data-name="Path 559" d="M129,312Z" transform="translate(-30.765 -78.597)" fill="#99cef6"/>
        <path id="Path_560" data-name="Path 560" d="M128.91,312Z" transform="translate(-30.744 -78.597)" fill="#99cef6"/>
        <path id="Path_561" data-name="Path 561" d="M128.716,311.8Z" transform="translate(-30.687 -78.546)" fill="#99cef6"/>
        <path id="Path_562" data-name="Path 562" d="M22.22,35.054a124.508,124.508,0,0,1,26.447,5.985q.16-2.454.358-4.915c-1.843-.965-3.739-1.953-5.65-2.805-.586-.277-1.18-.524-1.774-.748a105.346,105.346,0,0,0-18.984-5.85Q22.365,30.849,22.22,35.054Z" transform="translate(-5.299 -6.731)" fill="#d87777"/>
      </g>
    </g>
    <path id="Path_482" data-name="Path 482" d="M1823.958,630.3s-49.67,230.35,252.105,350.13,306.577,275.495,306.577,275.495H1571V630.3Z" transform="translate(-1298 371.868)" fill="#f9db7d"/>
    <g id="Group_133" data-name="Group 133" transform="translate(314.53 1312.822)">
      <path id="Path_397" data-name="Path 397" d="M0,0H319.863L0,314.225Z" transform="translate(0 0)" fill="#fff" opacity="0.09"/>
    </g>
  </g>
</svg>
