<svg xmlns="http://www.w3.org/2000/svg" width="1920" height="812.998" viewBox="0 0 1920 812.998">
  <g id="Contact_Header_" data-name="Contact Header " transform="translate(0 1)">
    <g id="Layer_2" data-name="Layer 2" transform="translate(0 551.999)">
      <g id="Layer_1" data-name="Layer 1" transform="translate(0 0.001)">
        <path id="Path_717" data-name="Path 717" d="M1046.59,214q5.55.661,11.12,1.287l-5.56-.634Z" transform="translate(0 -22.799)" fill="#7dacc9"/>
        <path id="Path_718" data-name="Path 718" d="M1068.83,216.7l-7.41-.813-3.71-.42Q1063.26,216.1,1068.83,216.7Z" transform="translate(0 -22.955)" fill="#7dacc9"/>
        <path id="Path_719" data-name="Path 719" d="M436.89,87.969c-26.86-3.645-53.9-6.746-81-9.131-3.54-.313-7.07-.608-10.61-.893q-37.11-3.011-74.37-4.065c21-2.153,42.06-4.324,63.13-6.058q12.15-.992,24.3-1.635l2.13-.116c2.37-.125,4.73-.232,7.1-.331q21.57-.893,43.22-.733,5.42,0,10.86.054l.33.045C428.94,71.02,433.36,79.294,436.89,87.969Z" transform="translate(0 -6.924)" fill="#fcb2b2"/>
        <path id="Path_720" data-name="Path 720" d="M798,157.975c-68.46-14.019-136.7-29.118-205.31-42.565h0l-11.21-2.189c-32.73-6.326-65.56-12.241-98.54-17.458-3.13-7.014-5.6-14.2-8.14-21.363,44,7.416,87.85,15.966,131.56,24.937l15.1,3.118c42.37,8.783,84.65,17.869,127,26.643q21.74,4.467,43.51,8.783c2,6.594,3.8,13.259,5.91,19.656Z" transform="translate(0 -7.927)" fill="#fcb2b2"/>
        <path id="Path_721" data-name="Path 721" d="M474.77,73.411c2.54,7.148,5,14.349,8.14,21.363q-20.81-3.3-41.69-6.192l-4.33-.6c-3.53-8.676-7.95-16.976-14.95-22.864Q448.42,68.953,474.77,73.411Z" transform="translate(0 -6.938)" fill="#bbdfff"/>
        <path id="Path_722" data-name="Path 722" d="M1152.41,193.456l-1.63.054q-3.18.1-6.34.107h-5.62c-.7,0-1.4,0-2.09-.054h-1.2l-1.83-.063c-.85,0-1.69-.063-2.54-.107-1.51-.063-3-.143-4.51-.232-1-.054-2.07-.116-3.11-.188l-5-.348c-4.95-.366-9.89-.8-14.84-1.233q-8.45-.733-16.91-1.376l-3.9-.295-6.94-.5-3.51-.241-4.37-.295-4.31-.286h0l-1.45-.1-9.37-.572-9.86-.581-12.4-.679-9.51-.509-14.88-.786c-49-2.564-98.09-4.467-147.06-7.657l-2.2-.143-6.57-1.26h0q-6.37-1.215-12.75-2.484-19.87-3.913-39.72-7.988l-.15-.456c-2.11-6.379-3.89-13.045-5.91-19.656q22.68,4.467,45.39,8.658c74.13,13.67,148.64,25.017,223.87,32.388q30.35,2.975,60.86,5.093,6.06.42,12.12.8Q1143.3,192.973,1152.41,193.456Z" transform="translate(0 -15.504)" fill="#fcb2b2"/>
        <path id="Path_723" data-name="Path 723" d="M396,60.841q-8.58-1.126-17.15-2.171Q387.39,59.733,396,60.841Z" transform="translate(0 -6.251)" fill="#7dacc9"/>
        <path id="Path_724" data-name="Path 724" d="M373,57.781c-1.53-.188-3.06-.366-4.6-.536l-3.24-.375,3.25.366Z" transform="translate(0 -6.059)" fill="#7dacc9"/>
        <path id="Path_725" data-name="Path 725" d="M1436.39,195.41c-1.79.152-3.57.295-5.36.429h-.25l-4.77.366C1429.47,195.937,1432.93,195.687,1436.39,195.41Z" transform="translate(0 -20.818)" fill="#99cef6"/>
        <path id="Path_726" data-name="Path 726" d="M1339.9,201.472q4.68-.143,9.36-.322l-4.22.161-3.73.125-1.4.045-3.56.116-3.23.1-3.23.089-6.46.17c-2.07.054-4.15.107-6.23.143-3.14.08-6.29.134-9.43.188h-1q-4.63.08-9.27.134h-4.09c-1.92,0-3.84.045-5.77.054-2.65,0-5.3,0-8,.045h-13.98q22.78.071,45.57-.366Q1325.57,201.909,1339.9,201.472Z" transform="translate(0 -21.43)" fill="#99cef6"/>
        <path id="Path_727" data-name="Path 727" d="M1352.2,201h1c-1,.045-2,.089-3,.116Z" transform="translate(0 -21.414)" fill="#99cef6"/>
        <path id="Path_728" data-name="Path 728" d="M1366.27,200.36h.83c-1.65.08-3.29.161-4.93.223q-3.23.152-6.45.268l-2.47.1,5.64-.232h.39l6.54-.286Z" transform="translate(0 -21.345)" fill="#99cef6"/>
        <path id="Path_729" data-name="Path 729" d="M1380.3,199.59h-.02Z" transform="translate(0 -21.263)" fill="#99cef6"/>
        <path id="Path_730" data-name="Path 730" d="M1368.63,200.174c3.69-.17,7.39-.348,11.08-.554l-4.63.241Z" transform="translate(0 -21.267)" fill="#99cef6"/>
        <path id="Path_731" data-name="Path 731" d="M1256.18,202.67c-5.33,0-10.64-.089-16-.17l-5-.08Q1245.69,202.6,1256.18,202.67Z" transform="translate(0 -21.565)" fill="#99cef6"/>
        <path id="Path_732" data-name="Path 732" d="M1234.69,202.3q-18.39-.322-36.76-.947Q1216.31,201.931,1234.69,202.3Z" transform="translate(0 -21.451)" fill="#99cef6"/>
        <path id="Path_733" data-name="Path 733" d="M268.13,74.8q-6-.152-12.09-.232c2.56,0,5.12.071,7.69.125C265.2,74.722,266.66,74.758,268.13,74.8Z" transform="translate(0 -7.945)" fill="#99cef6"/>
        <path id="Path_734" data-name="Path 734" d="M156.51,77.93q-5.91.447-11.82.974Q150.6,78.386,156.51,77.93Z" transform="translate(0 -8.303)" fill="#99cef6"/>
        <path id="Path_735" data-name="Path 735" d="M144.69,79q-5.91.518-11.81,1.126Q138.78,79.554,144.69,79Z" transform="translate(0 -8.417)" fill="#99cef6"/>
        <path id="Path_736" data-name="Path 736" d="M1082.92,214.384c-1.69-.17-3.38-.357-5.05-.536l-7.61-.8q-5.57-.6-11.12-1.233T1048,210.5l-1.23-.143c-3.31-.393-6.63-.786-9.93-1.2q-6.79-.831-13.58-1.7-10-1.287-20-2.68L991.9,203.2l-11.17-1.6c-2.34-.34-4.67-.679-7-1.036l-3.66-.536q-5.82-.893-11.62-1.787-3.68-.554-7.34-1.144Q943,195.916,935,194.6l-10-1.635c-3.69-.617-7.4-1.233-11.1-1.876h0c-3.5-.59-7-1.206-10.49-1.787l-1-.2-9.27-1.626-3.58-.652q-4-.7-8-1.438l-1.62-.295c-3.3-.608-6.61-1.206-9.91-1.832l-1.57-.295c-3.29-.608-6.57-1.224-9.86-1.85h-.15c49.7,3.3,99.52,5.2,149.26,7.8l14.88.786,9.51.509,12.4.679,9.86.581,9.37.572a137.52,137.52,0,0,0,19.19,22.337Z" transform="translate(0 -19.296)" fill="#f87e7d"/>
        <path id="Path_737" data-name="Path 737" d="M1059.14,215.313q5.55.634,11.12,1.233l-7.41-.813-3.71-.411-5.56-.643L1048,214Q1053.57,214.688,1059.14,215.313Z" transform="translate(0 -22.799)" fill="#7dacc9"/>
        <path id="Path_738" data-name="Path 738" d="M1356.85,227.152q-47.16,1.153-94.36.2h-1.43q-14.71-.295-29.42-.8l-1.43-.054q-6.7-.223-13.41-.5-11.46-.474-22.89-1.072-5.52-.286-11.05-.6l-9.56-.572-2.34-.143c-3-.188-5.92-.375-8.9-.59l-2.3-.152h0l-1.62-.116c-5.23-3.082-10.36-6.254-15.35-9.667a215.014,215.014,0,0,1-19.2-14.51c1,.071,2.07.134,3.11.188,1.5.089,3,.17,4.51.232.85.045,1.69.08,2.54.107l1.83.063h1.2c.69,0,1.39.045,2.09.054h5.62c2.58,0,5.18,0,7.77-.107l1.63-.054q11,.608,22,1.081,3.43.161,6.87.295h.83l5.85.232,2.65.1,5.84.206h0q18.39.634,36.76.947h1.95l3.57.054c5.33.08,10.64.143,16,.17h23.48c2.66,0,5.31,0,8-.045,1.93,0,3.85,0,5.77-.054h4.09q4.63-.054,9.27-.134h1c3.14-.054,6.29-.107,9.43-.188,2.08,0,4.16-.089,6.23-.143s4.31-.107,6.46-.17l3.23-.089,3.23-.1,3.56-.116C1345.76,209.729,1351.26,218.468,1356.85,227.152Z" transform="translate(0 -21.155)" fill="#f87e7d"/>
        <path id="Path_739" data-name="Path 739" d="M1142.74,212.483c5,3.377,10.12,6.585,15.35,9.667-2.21-.143-4.43-.3-6.64-.465l-3.48-.25-7.39-.563-4.66-.357c-2.39-.188-4.77-.393-7.16-.59-1.4-.107-2.79-.223-4.19-.348-1.91-.152-3.83-.322-5.74-.491q-3.21-.268-6.4-.563l-6.93-.625-2.72-.268c-3-.268-5.88-.554-8.82-.84l-4.22-.42-5.44-.545-1.38-.143a137.223,137.223,0,0,1-19.11-22.283l-.07-.1,1.45.1,4.36.286,4.37.295,3.51.241,6.94.5q2,.134,3.9.295,8.46.634,16.91,1.376c5,.438,9.89.893,14.84,1.233q1.7.134,3.39.241l1.56.107c1,.071,2.07.134,3.11.188,1.5.089,3,.17,4.51.232.85.045,1.69.08,2.54.107l1.83.063h1.2c.69,0,1.39.045,2.09.054h-1.43c-.7,0-1.4,0-2.09-.054h-1.2l-1.83-.063c-.85,0-1.69-.063-2.54-.107-1.51-.063-3-.143-4.51-.232-1-.054-2.07-.116-3.11-.188a215.033,215.033,0,0,0,19.2,14.51Z" transform="translate(0 -20.593)" fill="#7dacc9"/>
        <path id="Path_740" data-name="Path 740" d="M1311.25,202.326l6-.116c-3.14.08-6.29.134-9.43.188Z" transform="translate(0 -21.543)" fill="#7dacc9"/>
        <path id="Path_741" data-name="Path 741" d="M1708.12,181.421q-21.55,4.619-43.27,8.693l-.79.152-1.11-.259c-.7-.17-2,.375-3.11,1.027q-34,6.3-68.32,11.276Q1536,210.379,1480,215.15l-1.41.116q-20.4,1.787-40.84,3.056l-1.38.089q-14.36.893-28.74,1.617l-1.39.063c-4.59-6.308-8.8-12.857-13-19.29-1.52-2.332-3-4.682-4.53-7.023l1.37-.08h.45l8.43-.5q7.5-.474,15-.983c3.16-.205,6.33-.447,9.5-.688h.26l1-.071h.46l.83-.063,4.77-.366h.25c1.79-.134,3.57-.277,5.36-.429h0q3.74-.295,7.47-.617c4.75-.4,9.51-.822,14.25-1.26l.68-.063,7.46-.706,1-.1,1.36-.125,5.11-.5q11.2-1.126,22.36-2.368,7.46-.84,14.89-1.733a1802.809,1802.809,0,0,0,193.61-33.818,67.03,67.03,0,0,0,0,14.162,113.956,113.956,0,0,0,3.54,17.95Z" transform="translate(0 -15.907)" fill="#f87e7d"/>
        <path id="Path_742" data-name="Path 742" d="M1393.24,206.136c4.18,6.433,8.39,12.982,13,19.29q-24,1.179-48,1.787h-1.41c-5.59-8.685-11.09-17.423-16.94-25.911l1.4-.045,3.73-.125,4.22-.161h1l1.93-.08h1l2.47-.1c.84,0,1.7-.063,2.55-.107h1.01l2.89-.116,3.65-.17h2.81c2.15-.1,4.3-.2,6.45-.313,1.55-.071,3.09-.152,4.64-.241h.56l.75-.045q3-.143,6-.322l1.69-.089C1390.21,201.454,1391.72,203.8,1393.24,206.136Z" transform="translate(0 -21.242)" fill="#7dacc9"/>
        <path id="Path_743" data-name="Path 743" d="M1663,194.856l1.11.259-2,.366-2.19.4A5.243,5.243,0,0,1,1663,194.856Z" transform="translate(0 -20.756)" fill="#7dacc9"/>
        <path id="Path_744" data-name="Path 744" d="M1920,77.464v36.2A1639.967,1639.967,0,0,1,1748.26,164.6l-1.34.321q-18.66,4.467-37.45,8.47l-1.35.286a113.937,113.937,0,0,1-3.52-18.048,67.053,67.053,0,0,1,0-14.162l1.46-.34q16.42-3.833,32.75-7.988l1.38-.348q67.44-17.208,132.9-39.983,22-7.648,43.63-15.957A4.867,4.867,0,0,1,1920,77.464Z" transform="translate(0 -8.176)" fill="#f87e7d"/>
        <path id="Path_745" data-name="Path 745" d="M423,63.161q-5.44,0-10.86-.054-21.66-.188-43.22.733c-2.37.1-4.73.206-7.1.331l-2.13.116q-12.15.625-24.3,1.635c-21.07,1.733-42.1,3.9-63.13,6.058h0l-2.53-.063-.2-.34c-4.84-8.256-9.23-16.726-15-24.427,33.42,1.278,66.8,3.824,100,7.353l8.87.956,3.23.375,3.24.375c1.54.17,3.07.348,4.6.536l4.59.545.51.063.74.089q8.58,1.063,17.15,2.171l8.55,1.153,8.56,1.179C417.35,62.339,420.19,62.75,423,63.161Z" transform="translate(0 -5.024)" fill="#f87e7d"/>
        <path id="Path_746" data-name="Path 746" d="M269.74,71.806h-1.61c-1.47,0-2.93-.08-4.4-.107-2.56-.054-5.12-.089-7.69-.125h-.86q-3.72-.054-7.43-.071-7.22-.054-14.44,0h-4.35c-1.9,0-3.82,0-5.73.063-1.07,0-2.16,0-3.24.054H215.8c-1,0-2,0-3,.071-1.83,0-3.68.08-5.52.134h-.52c-2.19.063-4.39.134-6.57.214L198,72.19q-3.41.125-6.8.268c-2,.089-4.05.179-6.07.286-1.27.054-2.53.116-3.79.188q-3.33.161-6.68.375c-2,.116-4.07.241-6.1.375l-6.17.411c-1.95.134-3.92.277-5.87.447q-5.91.447-11.82.974T132.89,76.64l-5.89.643c-2,.206-3.93.42-5.89.652-4.19.482-8.38.983-12.56,1.528l-3.81.491c-1.61.205-3.21.429-4.82.661q-4.11.554-8.2,1.162-5.88.867-11.72,1.76l-7.32,1.215L67,85.771c-1.1.188-2.2.384-3.29.59s-2.28.411-3.42.625-2.17.393-3.25.608c-2.08.393-4.16.786-6.24,1.206q-24,4.718-47.5,10.882a5.5,5.5,0,0,1-3.3-.59V66.928c61.79-13.4,125-19.656,188.45-20.675q33-.509,66.05.786c5.81,7.7,10.2,16.172,15,24.427Z" transform="translate(0 -4.913)" fill="#f87e7d"/>
        <path id="Path_747" data-name="Path 747" d="M310.57,110.736h1c-8.24.6-9.63-1.546-9.63-1.546A35.1,35.1,0,0,0,310.57,110.736Z" transform="translate(0 -11.633)" fill="#fcb2b2"/>
        <path id="Path_748" data-name="Path 748" d="M327.55,110.476c1.16-.893,2.29-1.858,3.42-2.805Q329.29,109.091,327.55,110.476Z" transform="translate(0 -11.471)" fill="#fcb2b2"/>
        <path id="Path_749" data-name="Path 749" d="M355.85,80.386a252.228,252.228,0,0,1-23.06,22.792h0q-6.473,1.961-13.15,3.306l1.09-.3q1.23-1.34,2.43-2.68c3.82-4.253,7.54-8.586,11.36-12.848q5.16-5.763,10.73-11.142Q350.545,79.912,355.85,80.386Z" transform="translate(0 -8.471)" fill="#ffecb7"/>
        <path id="Path_750" data-name="Path 750" d="M518.09,151.4a21.838,21.838,0,0,0,7.63,1.573C520.09,153.017,518.29,151.579,518.09,151.4Z" transform="translate(0 -16.13)" fill="#fcb2b2"/>
        <path id="Path_751" data-name="Path 751" d="M581.45,117.85l11.21,2.189q-14.89,7.219-29.25,15.359-8.4,4.771-16.55,9.882a86.557,86.557,0,0,1-18.11,3.976,22.707,22.707,0,0,0,4.46-1c1.36-.447,3.46-1.957,4.89-2.252h.02l.18-.143q3.47-2.43,7-4.843c6.36-4.387,12.84-8.649,19.38-12.821Q572.92,122.88,581.45,117.85Z" transform="translate(0 -12.556)" fill="#ffecb7"/>
        <path id="Path_752" data-name="Path 752" d="M681.61,67.569a90.557,90.557,0,0,1-9.49,8.166c-4.2,3.342-8.61,6.576-13.11,9.6-2.46,1.644-5.55,3.958-8.51,4.994q-14.73,5.182-29.07,11.133l-15.1-3.118a568.518,568.518,0,0,1,76-33.058C684.6,64.451,681.94,67.211,681.61,67.569Z" transform="translate(0 -6.939)" fill="#ffecb7"/>
        <path id="Path_753" data-name="Path 753" d="M532.45,159.11a.264.264,0,0,0-.08.063l-.18.125.1-.08Z" transform="translate(0 -16.951)" fill="#fcb2b2"/>
        <path id="Path_754" data-name="Path 754" d="M538.18,149.33h-.1Z" transform="translate(0 -15.909)" fill="#fcb2b2"/>
        <path id="Path_755" data-name="Path 755" d="M957,213.19c-3.07,3.735-17.7,14.724-15.91,12.187h0c.37-.393,1.62-1.787,1.62-1.787a81.006,81.006,0,0,1,8.87-7.988c.51-.188,1-.393,1.53-.608.74-.3,1.47-.616,2.19-.965C955.89,213.744,958.16,211.778,957,213.19Z" transform="translate(0 -22.658)" fill="#ad2323"/>
        <path id="Path_756" data-name="Path 756" d="M1231.64,229.836q14.7.509,29.42.8a51.282,51.282,0,0,1-1.92,6.746,43.21,43.21,0,0,1-10.72,16.082c-2.39,2.341-4.91,4.673-7.54,6.951a113.091,113.091,0,0,1-15.11-2.252l1,.134a59.148,59.148,0,0,0,1.68-8.711c.81-6.656,1.18-13.25,1.8-19.79Z" transform="translate(0 -24.482)" fill="#ffecb7"/>
        <path id="Path_757" data-name="Path 757" d="M1283.32,145.63q-1.6,1.97-3,3.94a90.43,90.43,0,0,0-16.83,47.095h-7.33c-5.33,0-10.64-.089-16-.17l-3.57-.054h-1.42a103.371,103.371,0,0,1,19.36-32.6,151.779,151.779,0,0,1,17.67-17.047c2.18-.339,4.19-.59,6-.75l-2.26,1.68c.77-.223,1.53-.652,2.29-.893.59-.2,1.18-.384,1.79-.554l.42-.107h.16a7,7,0,0,1,.72-.17c.33-.072.67-.134,1-.188h0Z" transform="translate(0 -15.515)" fill="#ffecb7"/>
        <path id="Path_758" data-name="Path 758" d="M1282.77,145.6l.62-.071-.07.089h-.9Z" transform="translate(0 -15.504)" fill="#fcb2b2"/>
        <path id="Path_759" data-name="Path 759" d="M1436.15,259.16a42.152,42.152,0,0,0,5.95,2.082C1437,260.009,1436.23,259.249,1436.15,259.16Z" transform="translate(0 -27.609)" fill="#fcb2b2"/>
        <path id="Path_760" data-name="Path 760" d="M1457.56,268.994c1.54-1.17,3.06-2.368,4.54-3.574C1460.62,266.635,1459.1,267.823,1457.56,268.994Z" transform="translate(0 -28.276)" fill="#fcb2b2"/>
        <path id="Path_761" data-name="Path 761" d="M1436.39,189.1c-1.79.152-3.57.295-5.36.429h-.25l-4.77.366-.83.063h-.46l-1,.071a36.822,36.822,0,0,1-.52-20.139c2.21-8.282,7.22-15.189,13.36-21.4a92.388,92.388,0,0,1,24-12.348,37.686,37.686,0,0,0-1.86,3.574,33.2,33.2,0,0,0-2.77,17.208c1,10.48,6.17,20.023,11.32,29.4l-1,.1-7.46.706-.68.063c-4.74.438-9.5.893-14.25,1.26q-3.73.322-7.47.617Z" transform="translate(0 -14.504)" fill="#ffecb7"/>
        <path id="Path_762" data-name="Path 762" d="M1478.81,236a29.273,29.273,0,0,1-5.66,13.813A72.743,72.743,0,0,1,1462.1,260.9c-8-1.108-13.62-2.091-17.46-2.913l.81.152a43.358,43.358,0,0,0-.27-7.568c-1-8.452-4.68-16.431-8.83-24.293l1.38-.089q20.44-1.313,40.84-3.056a40.258,40.258,0,0,1,.24,12.875Z" transform="translate(0 -23.771)" fill="#ffecb7"/>
        <path id="Path_763" data-name="Path 763" d="M1439,147.38l.09-.08-.88.84C1438.44,147.925,1438.7,147.631,1439,147.38Z" transform="translate(0 -15.693)" fill="#fcb2b2"/>
        <path id="Path_764" data-name="Path 764" d="M1471.56,133.15c-1.57.25-3.13.554-4.69.893a45.352,45.352,0,0,1,4.69-.893Z" transform="translate(0 -14.186)" fill="#fcb2b2"/>
        <path id="Path_765" data-name="Path 765" d="M1292.56,134.1l-.57.518c-2.6,2.779-5.78,6.183-8.6,9.694l-.62.071-.35.054h0a9.52,9.52,0,0,0-1,.188,7,7,0,0,0-.72.17h-.16l-.42.107c-.61.17-1.2.357-1.79.554-.76.268-1.52.7-2.29.893l2.26-1.68Q1285.41,139.434,1292.56,134.1Z" transform="translate(0 -14.287)" fill="#fcb2b2"/>
        <path id="Path_766" data-name="Path 766" d="M1711.81,221.89a9.791,9.791,0,0,1-1,.438l.59-.268Z" transform="translate(0 -23.639)" fill="#fcb2b2"/>
        <path id="Path_767" data-name="Path 767" d="M1709.87,222.792h0l1-.4Z" transform="translate(0 -23.692)" fill="#fcb2b2"/>
        <path id="Path_768" data-name="Path 768" d="M1713.24,207.193v.634a18.241,18.241,0,0,1-.18,2.162,4.293,4.293,0,0,1-.1.706c-.04.232-.06.42-.1.625s-.11.634-.18.947-.1.482-.15.724l-.24.938c-.07.259-.15.527-.23.786s-.12.411-.19.608-.16.482-.25.715c-.14.4-.29.8-.46,1.206q-.36.849-.78,1.689h0c-.15.3-.31.59-.47.893h0c-.78.331-1.57.634-2.37.893-4.46,1.474-9.54,2.046-14.23,2.68a174.433,174.433,0,0,1-64-3.3c-.52-.125,3.61-4.271,4-4.655,3.64-3.306,7.58-6.344,11.54-9.337a148.214,148.214,0,0,1,12.29-8.533c.31-.188,1.48-1.01,2.73-1.715s2.41-1.2,3.11-1.027l1.11.259a171.435,171.435,0,0,0,39,4.628c3.13,0,6.25-.063,9.37-.232a26.914,26.914,0,0,1,.78,7.7Z" transform="translate(0 -20.753)" fill="#ffecb7"/>
        <path id="Path_769" data-name="Path 769" d="M1712.76,221.37a8.181,8.181,0,0,1-1,.465l.62-.3Z" transform="translate(0 -23.584)" fill="#fcb2b2"/>
        <path id="Path_770" data-name="Path 770" d="M1843.11,60.665c-3.64,3.3-7.58,6.335-11.54,9.328s-8,5.879-12.2,8.488h0c-.59.348-5.72,3.4-5.88,2.761-1-4.208-6.74-4.315-10.61-4.467a149.445,149.445,0,0,0-16.62.25,116.419,116.419,0,0,0-34.46,7.621c-.72.286-1.44.581-2.15.894-.66.84-1.3,1.707-1.91,2.582a119.277,119.277,0,0,1,12.39-15.984h0l.4-.259c14-9.113,29.17-15.805,46.35-18.611a146.4,146.4,0,0,1,23.57-1.867c4.72,0,15.41-1.108,16.74,4.583C1847.47,57.386,1844.1,59.771,1843.11,60.665Z" transform="translate(0 -5.467)" fill="#ffecb7"/>
        <path id="Path_771" data-name="Path 771" d="M972.3,187.7c-7.48,7.755-16.36,14.5-25.28,20.88-7.15,5.129-14.53,10.069-22.7,13.858a82.455,82.455,0,0,1-33.69,7.255c-47.37.572-80.09-35.882-92.65-73.336l-.15-.456c-2.11-6.379-3.89-13.045-5.91-19.656-4.56-14.823-10.39-29.288-24.21-39.313-16.77-12.151-40.56-15.77-60.61-8.408-2.27.831.4-1.984.72-2.314a88.478,88.478,0,0,1,9.49-8.175c4.2-3.35,8.6-6.585,13.11-9.6,2.51-1.68,5.52-3.9,8.51-4.994,20.971-7.5,44.838-4.358,62.49,8.238,18.08,13.161,22.57,34.113,28.31,53.2a147.146,147.146,0,0,0,7.58,20.058,117.667,117.667,0,0,0,13.14,21.908h0a105.343,105.343,0,0,0,7.67,8.979c13.36,13.974,31.25,24.553,51.74,27.626a85.114,85.114,0,0,0,29.18-.554q2.49-.5,5-1.162c.4-.1.79-.206,1.18-.331l1.28-.366,1.26-.4q.48-.143,1-.322c1-.322,2-.679,2.93-1.063a81.006,81.006,0,0,0-8.87,7.988s-1.25,1.385-1.62,1.787l.1-.134a.814.814,0,0,0-.19.223l.06-.063c-1.79,2.537,12.84-8.452,15.91-12.187,1.16-1.412-1.11.554-1.67.822-.72.348-1.45.661-2.19.965-.51.214-1,.42-1.53.608.67-.527,1.34-1.036,2-1.555.92-.7,1.86-1.385,2.8-2.064l.27-.2,2.49-1.787c2.06-1.438,4.12-2.841,6.15-4.208.63-.438,1.89-1.385,3.3-2.35Z" transform="translate(0 -6.331)" fill="#f9db7d"/>
        <path id="Path_772" data-name="Path 772" d="M948.68,216.993c1-.331,2-.688,2.93-1.063C950.64,216.314,949.67,216.672,948.68,216.993Z" transform="translate(0 -23.004)" fill="#f87e7d"/>
        <path id="Path_773" data-name="Path 773" d="M957,213.19c-3.07,3.735-17.7,14.724-15.91,12.187l-.09.1a3,3,0,0,1,.32-.384l-.23.295c.37-.393,1.62-1.787,1.62-1.787a81.008,81.008,0,0,1,8.87-7.988c.51-.188,1-.393,1.53-.608.74-.3,1.47-.616,2.19-.965C955.89,213.744,958.16,211.778,957,213.19Z" transform="translate(0 -22.658)" fill="#f87e7d"/>
        <path id="Path_774" data-name="Path 774" d="M1240.88,249.232l-1.58,1.358q-1.59,1.349-3.22,2.68c-.64.518-1.29,1.036-1.95,1.546q-3.27,2.573-6.7,4.968c-.76.536-1.52,1.063-2.29,1.573s-1.28.893-1.93,1.269q-2.19,1.438-4.43,2.752l-1.5.893q-2,1.144-4,2.18c-14.47,7.577-28.46,2.94-42.16-3.735-31.11-15.189-64.85-32.656-89.67-56.289l-.18-.17a137.389,137.389,0,0,1-19-22.212l-.06-.089c-.37-.536-.72-1.072-1.07-1.617a100.9,100.9,0,0,1-14.37-34.032c-.3-1.394,3-3.753,4-4.655,3.64-3.306,7.58-6.344,11.54-9.337s8-5.879,12.2-8.479l.09-.054c.71-.42,5.7-3.377,5.84-2.743a94.9,94.9,0,0,0,6,18.566c7.79,17.521,20.45,32.755,35.5,45.826.45.4.9.8,1.37,1.179l.13.107a215.033,215.033,0,0,0,19.2,14.51c5,3.377,10.12,6.585,15.35,9.667l.19.116c8.5,5.012,17.26,9.694,26.1,14.215,7,3.574,14.12,7.148,21.25,10.588,1.4.679,2.82,1.358,4.26,2.01l1.47.661c.11.054.59.277,1.43.617,1,.438,2.08.893,3.14,1.251.51.188,1,.375,1.52.545,1.09.375,2.19.724,3.31,1.027.25.08.5.143.75.206l.89.214c.27.071.55.134.83.188.55.125,1.1.241,1.66.331q.42.08.84.134h0A113.132,113.132,0,0,0,1240.88,249.232Z" transform="translate(0 -13.312)" fill="#f9db7d"/>
        <path id="Path_775" data-name="Path 775" d="M1211.34,256.371h0l-1.47-.661Z" transform="translate(0 -27.242)" fill="#f87e7d"/>
        <path id="Path_776" data-name="Path 776" d="M1462.1,249.621c-1.48,1.224-3,2.421-4.54,3.574-4.63,3.5-9.48,6.755-14.09,9.828-7.11,4.771-14.36,8.935-23.43,9.435a40.877,40.877,0,0,1-20.14-4.324c-12.79-6.388-21.27-17.869-29-28.645-4.92-6.889-9.54-13.947-14.1-21.032-5.59-8.685-11.09-17.423-16.94-25.911h0c-4.83-7.058-9.91-13.974-15.47-20.621a170.213,170.213,0,0,0-14-14.885c-4.86-4.557-10.14-9.614-16.49-12.509-.45-.205-.9-.393-1.36-.572l-.22-.089-.8-.277c-.27-.1-.55-.188-.82-.259s-.55-.161-.83-.232-.56-.143-.84-.2l-1.7-.295h0c-.38-.054-.75-.089-1.14-.116a16.558,16.558,0,0,0-2.82.045c2.82-3.511,6-6.915,8.6-9.694l.57-.518q-7.15,5.361-14.31,10.641c-1.81.161-3.82.411-6,.751l2.17-1.787c9.94-8.041,20.7-16.726,32.8-22.122,6.54-2.913,13.81-3.574,20.45-.554,6.34,2.922,11.62,7.952,16.48,12.509,10.23,9.6,18.87,20.425,26.75,31.62,6.22,8.836,12,17.923,17.81,26.983,1.5,2.341,3,4.691,4.53,7.023,4.18,6.433,8.39,12.982,13,19.29a139.789,139.789,0,0,0,11.62,14.126c.48.5,1,1,1.48,1.5s.85.831,1.29,1.242a59.292,59.292,0,0,0,9.34,7.2c.34.223.68.438,1,.634l.1.063c.38.223.77.438,1.16.652s.84.465,1.27.679.87.447,1.3.643.72.34,1.08.5l.23.107h0c.08.089.86.849,5.95,2.082l.61.152c.47.125.94.232,1.42.322l.51.107C1448.48,247.53,1454.05,248.513,1462.1,249.621Z" transform="translate(0 -12.495)" fill="#f9db7d"/>
        <path id="Path_777" data-name="Path 777" d="M1278.25,144.731q7.15-5.307,14.31-10.641l-.57.518c-2.6,2.779-5.78,6.183-8.6,9.694l-.07.089h-.9C1281.2,144.5,1279.81,144.588,1278.25,144.731Z" transform="translate(0 -14.286)" fill="#f87e7d"/>
        <path id="Path_778" data-name="Path 778" d="M1570.65,138.51a149.153,149.153,0,0,1-12.29,8.533c-.08.054-4.77,3.306-5.84,2.743-6.89-3.574-13.91-7.032-21.17-10.025-14.29-5.9-29.67-10.266-45.52-10.65h-3.63c-1,0-2,.054-3,.107s-2,.134-3,.223a10.1,10.1,0,0,0-1.48.161c-1,.1-2,.232-3,.393h-.15a45.346,45.346,0,0,0-4.69.893h-.06c-.49.116-1,.241-1.57.393s-1.19.322-1.83.509h-.07l-1.06.313c-.57.17-1.13.348-1.69.536h0a92.392,92.392,0,0,0-24,12.348c.53-.536,1.07-1.063,1.62-1.59l.88-.84.28-.259a3.819,3.819,0,0,1,.29-.259l1.29-1.179,1.32-1.17,1.33-1.153c2.24-1.912,4.53-3.762,6.83-5.566,14-11.061,29.72-22.819,48.22-27.206,30.5-7.246,61.75,5.129,87.61,18.665C1587.06,124.947,1571.87,137.59,1570.65,138.51Z" transform="translate(0 -11.04)" fill="#f9db7d"/>
        <path id="Path_779" data-name="Path 779" d="M1471.71,133.083c1-.161,2-.295,3-.393q-1.5.161-3,.4Z" transform="translate(0 -14.137)" fill="#f87e7d"/>
        <path id="Path_780" data-name="Path 780" d="M1709.87,222.83h.01l-.01.009Z" transform="translate(0 -23.739)" fill="#f87e7d"/>
        <path id="Path_781" data-name="Path 781" d="M1747.15,165.546c1,3.654,1.66,7.478.42,11.15-2.08,6.093-9.54,10.936-14.61,14.876-3,2.332-6.15,4.914-9.47,7.38L1722.06,200c-.72.518-1.45,1.027-2.18,1.528-1.52,1.036-3.08,2.019-4.68,2.922l-.22.125-1,.545-.25.134-1,.491-.33.161-.25.125-.25.116-.12.063-.38.17-.59.268c-.24.107-.49.214-.73.3l-.23.1h0c.16-.3.32-.59.47-.893h0c.29-.563.55-1.135.78-1.689.17-.4.32-.8.46-1.206.09-.241.17-.482.25-.715s.13-.4.19-.608.16-.527.23-.786l.24-.938a4.651,4.651,0,0,1,.15-.724c.04-.241.13-.625.18-.947s.07-.42.1-.625.07-.474.1-.706c.09-.742.15-1.465.18-2.162v-.634a26.925,26.925,0,0,0-.82-7.684c-.83-2.225-1.64-4.226-2.1-5.709-.78-2.5-1.52-5.012-2.2-7.532a113.924,113.924,0,0,1-3.52-18.048,67.045,67.045,0,0,1,0-14.161,57.642,57.642,0,0,1,9.47-26.25q2.07-3.082,4.47-6c.77-.956,1.58-1.894,2.39-2.823.44-.5.89-.992,1.34-1.483.84-.893,1.69-1.787,2.56-2.68,1.38-1.412,2.82-2.8,4.29-4.146l1.44-1.313c1.46-1.313,3-2.591,4.47-3.851,1-.84,2-1.671,3.07-2.493,2.27-1.787,4.59-3.574,6.93-5.254l2.58-1.858c4.15-2.948,8.35-5.754,12.48-8.443a119.278,119.278,0,0,0-12.39,15.984,24.891,24.891,0,0,0-1.39,2.1l-.68,1.108a4.9,4.9,0,0,0-.26.429l-.2.34q-.21.34-.39.67c-.18.313-.36.634-.52.956a.153.153,0,0,0,0,.089c-.19.322-.36.652-.52.983s-.38.733-.56,1.108a.143.143,0,0,1-.08.152l-.12.241c-.7,1.465-1.33,2.966-1.87,4.467-.15.375-.28.751-.4,1.135-.24.706-.47,1.421-.67,2.135-.13.438-.25.893-.36,1.322a62.409,62.409,0,0,0-.82,25.017c1.61,10.668,5.13,21.193,8.12,31.781C1747,164.992,1747.07,165.269,1747.15,165.546Z" transform="translate(0 -7.957)" fill="#f9db7d"/>
        <path id="Path_782" data-name="Path 782" d="M1742.92,101.69h0c-.7,1.474-1.33,2.975-1.89,4.467Q1741.87,103.892,1742.92,101.69Z" transform="translate(0 -10.834)" fill="#f87e7d"/>
        <path id="Path_783" data-name="Path 783" d="M1743.12,100.572a54.936,54.936,0,0,1,3.18-5.682,57.025,57.025,0,0,0-3.07,5.486Z" transform="translate(0 -10.11)" fill="#f87e7d"/>
        <path id="Path_784" data-name="Path 784" d="M1747.69,92.54l-.22.348c-.4.581-.79,1.162-1.17,1.787C1746.74,93.934,1747.21,93.228,1747.69,92.54Z" transform="translate(0 -9.859)" fill="#f87e7d"/>
        <path id="Path_785" data-name="Path 785" d="M332.78,94.708c-.93.8-1.87,1.6-2.83,2.386l-.13.107c-.75.616-1.5,1.233-2.27,1.841-9.27,7.362-19.08,14.849-29.92,20.353a42.716,42.716,0,0,1-17.76,5.021c-29.06,1.206-42.26-27.778-53.48-46.532a93.836,93.836,0,0,0-7.83-11.159A98.858,98.858,0,0,0,187,41.341a120.52,120.52,0,0,0-15-6.5C116.56,14.993,57.25,31.075,1,38.866c-2.17.295.12-1.7.71-2.323a91.583,91.583,0,0,1,9.49-8.175c4.29-3.35,8.7-6.576,13.21-9.6,1.61-1.081,6.1-4.664,8.5-4.994,60.91-8.408,128.23-26.974,186.25,1.421a98.726,98.726,0,0,1,28.36,20.335,74.288,74.288,0,0,1,5.55,6.585c5.81,7.7,10.2,16.172,15,24.427l.2.34c6.12,10.4,13.41,20.434,24.73,26.858q1,.563,2,1.072l.86.429.58.268c.29.134.58.268.87.384s.74.322,1.12.474.76.3,1.14.438.76.277,1.15.4.76.259,1.15.366c0,0,1.39,2.144,9.63,1.546h1.1a5.163,5.163,0,0,0,1-.063c.33-.063.61-.054.91-.089h.17l.74-.1c.27-.045.54-.08.81-.134s.57-.1.86-.161l.46-.089c.65-.125,1.29-.286,1.92-.447h.11q6.694-1.349,13.2-3.324Z" transform="translate(0 -0.001)" fill="#f9db7d"/>
        <path id="Path_786" data-name="Path 786" d="M311.65,110.94h0Z" transform="translate(0 -11.82)" fill="#f87e7d"/>
        <path id="Path_787" data-name="Path 787" d="M319.52,109.69c-.63.161-1.27.322-1.92.447C318.25,109.967,318.89,109.851,319.52,109.69Z" transform="translate(0 -11.686)" fill="#f87e7d"/>
        <path id="Path_788" data-name="Path 788" d="M546.86,135.567l-2.81,1.787-2.18,1.385-.07.045-.28.179-.28.188-.82.536q-2.16,1.421-4.3,2.859l-3.75,2.546a.263.263,0,0,1,.08-.063l-.16.107-.1.08h-.05a.2.2,0,0,0-.07,0h0c-1,.679-2,1.367-2.94,2.055-11.51,8.041-28.5,22.337-44.6,16.225-11.71-4.467-18.35-16.431-24-25.911a214.892,214.892,0,0,1-17.06-35.739c-2.12-5.772-4.13-12-6.57-18.03-3.53-8.676-7.95-16.976-14.95-22.864A37.1,37.1,0,0,0,402.61,52.6a57.3,57.3,0,0,0-25,2.439L373,54.565c-1.53-.188-3.06-.366-4.6-.536h0q3.57-2.734,7.25-5.361c19.59-14.036,48.73-30.378,74-17.047,10.46,5.513,16.33,15.269,20.38,25.142,1.7,4.155,3.22,8.363,4.72,12.571,2.54,7.148,5,14.349,8.14,21.363.17.393.35.786.53,1.179,5.27,11.5,11.4,23.141,19.2,33.46,1,1.322,2.07,2.618,3.22,3.869l.81.893.1.107q.87.893,1.8,1.742c.31.286.63.572.95.893a8.222,8.222,0,0,0,1,.813c.35.259.67.536,1,.786s.68.5,1,.742.7.474,1.06.7.71.447,1.08.652.73.411,1.1.608l.1.054c.34.179.69.348,1,.5s.76.34,1.15.491h0c.2.179,2,1.617,7.63,1.573h2.21a2.435,2.435,0,0,0,.67-.063h.15a86.464,86.464,0,0,0,18.21-4.128Z" transform="translate(0 -2.843)" fill="#f9db7d"/>
      </g>
    </g>
    <path id="Path_487" data-name="Path 487" d="M5465,273.576s-184.52,110.006-707.158,84.62S3890.1,227.881,3638.756,248.19c-73.808,5.077-93.756,11.847-93.756,11.847V-289l1920,1Z" transform="translate(-3545 288)" fill="#f87e7d"/>
    <g id="Group_86" data-name="Group 86" transform="translate(-5264.201 -630.581)" opacity="0.09">
      <g id="Group_70" data-name="Group 70" transform="translate(6869.201 630.581)">
        <path id="Path_398" data-name="Path 398" d="M0,0H314.79L0,314.79Z" transform="translate(0)" fill="#fff"/>
        <path id="Path_399" data-name="Path 399" d="M0,0H314.79L0,314.79Z" transform="translate(0 314.79)" fill="#fff"/>
      </g>
    </g>
  </g>
</svg>
