<svg xmlns="http://www.w3.org/2000/svg" width="1924" height="467.788" viewBox="0 0 1924 467.788">
  <g id="Episodes_-_View_Header" data-name="Episodes - View Header" transform="translate(2)">
    <path id="Path_641" data-name="Path 641" d="M3546,4042s178,68,350,0,138-172,756-124,712,14,816-56V3716H3546Z" transform="translate(-3546 -3716)" fill="#99cef6"/>
    <g id="Layer_2" data-name="Layer 2" transform="translate(-2 227.979)">
      <g id="Layer_1" data-name="Layer 1" transform="translate(0 -16.706)">
        <path id="Path_789" data-name="Path 789" d="M583.369,107.687l-8.3,3.255-.21.087c-35,12.626-69.37,26.619-103.829,40.449-48.37,18.78-86.79,33.582-90.93,35.181l-.18.067q-20.22,7.281-40.72,13.82,1.55-2.34,3.05-4.709l1.22-1.926q1.84-2.947,3.65-5.932c.82-1.339,1.62-2.687,2.42-4.026s1.75-2.889,2.62-4.392c12.85-3.794,25.52-7.859,38-12.1q17.24-5.884,34.29-12.231,14.08-5.21,28.1-10.68c37.82-14.687,75.32-30.317,113.159-45.013Q574.339,103.97,583.369,107.687Z" transform="translate(-0.002 -3.697)" fill="#99cef6"/>
        <path id="Path_790" data-name="Path 790" d="M335.25,187.475q8.5-2.321,16.91-4.815l-2.62,4.392c-.8,1.339-1.6,2.687-2.42,4.026q-1.8,2.985-3.65,5.932l-1.22,1.926q-1.5,2.369-3.05,4.709-8.31,2.648-16.69,5.133c3.41-5.653,6.75-11.354,10.16-17Q334,189.661,335.25,187.475Z" transform="translate(-0.002 -6.768)" fill="#99cef6"/>
        <path id="Path_791" data-name="Path 791" d="M778,38.09l-4.83,1.05-.72.154-4.71,1.05-2.69.607q-4.08.91-8.31,1.926h0L751,44.225l-2.92.722-.93.222-4.07,1.011c-1.89.472-3.79.963-5.68,1.454q-5.67,1.464-11.3,3.014l-2.17.607-4.75,1.358a4.113,4.113,0,0,0-.49.144c-1.76.5-3.5,1.021-5.22,1.541s-3.42,1.05-5.09,1.579a1.4,1.4,0,0,0-.48.154q-2.62.838-5.16,1.676l-.29.1q-2.4.809-4.71,1.628l-1.62.578-1.59.578-3.1,1.165c-1,.395-2.05.8-3,1.194l-1.4.578c-1.43.587-2.82,1.185-4.15,1.782-3.58,1.608-9,3.9-15.86,6.741l-2.65,1.1-5.7,2.331-2.56,1.05-6.93,2.8-3.34,1.348-3.45,1.387L635,84.991l-2.4.963-4.6,1.82-5.87,2.34q-9.23-3.274-18.15-7.252c44.13-16.035,89-29.951,135.589-38.821h0c2.63-.51,5.27-.963,7.93-1.464q5-.876,9.91-1.656Q767.709,39.3,778,38.09Z" transform="translate(-0.003 -1.428)" fill="#99cef6"/>
        <path id="Path_792" data-name="Path 792" d="M622.14,91.832l-2.86,1.136-4,1.579a.53.53,0,0,1-.13.058l-4.21,1.666c-.7.289-1.42.568-2.13.847l-4.31,1.7-6,2.369-14.14,5.576-1,.385h0q-9-3.737-17.7-8.128Q584.755,91.6,603.98,84.58,612.9,88.538,622.14,91.832Z" transform="translate(-0.003 -3.145)" fill="#99cef6"/>
        <path id="Path_793" data-name="Path 793" d="M471,153.53c-28.72,11.557-57.48,23.056-86.61,33.62-1.43.53-2.88,1.059-4.32,1.56C384.24,187.112,422.66,172.281,471,153.53Z" transform="translate(-0.002 -5.692)" fill="#99cef6"/>
        <path id="Path_794" data-name="Path 794" d="M863.149,61.968a693.554,693.554,0,0,0-113.869,3.043q-10,1.117-19.89,2.552a604.07,604.07,0,0,0-63.08,12.52q-5.76,1.473-11.5,3.024-6.57,1.772-13.09,3.669c-2.9.828-5.8,1.685-8.69,2.552l-1.42.424c-1.82.549-3.63,1.1-5.44,1.666-1.35-.453-2.69-.963-4-1.4l5.83-2.36,4.58-1.82,2.4-.963,7.4-2.957,3.45-1.387,3.34-1.348,6.94-2.774,2.53-1.03,5.7-2.331L667,71.926c6.87-2.831,12.28-5.123,15.86-6.741,1.33-.6,2.72-1.194,4.15-1.782l1.4-.578c1-.395,2-.8,3-1.194l3.1-1.165,1.59-.578,1.62-.578q2.31-.828,4.71-1.628l.29-.1q2.54-.838,5.16-1.676c.15-.058.31-.106.48-.154q2.5-.8,5.09-1.579t5.22-1.541a4.113,4.113,0,0,1,.49-.144l4.75-1.358,2.17-.607q5.63-1.541,11.3-3.014c1.89-.491,3.79-.963,5.68-1.454l4.07-1.011.93-.222,2.92-.722,5.74-1.358h0q4.23-1,8.31-1.926l2.69-.607,4.71-1.05.72-.154,4.85-1.03c1.58-.193,3.18-.376,4.76-.549l3.58-.385c2.39-.241,4.77-.482,7.16-.7l3.58-.318h.43c3-.25,6.08-.491,9.13-.7,1.31-.1,2.6-.183,3.91-.26l2.55.751a152.4,152.4,0,0,1,50.05,26.157Z" transform="translate(-0.003 -1.316)" fill="#bbdfff"/>
        <path id="Path_795" data-name="Path 795" d="M622.14,92.11c1.34.482,2.68.963,4,1.4-2,.616-4,1.233-6,1.868-2.21.693-4.42,1.406-6.63,2.119l-4.76,1.551L603,100.97l-5.44,1.839-2.51.848-2.3.8q-2.28.78-4.53,1.57h0l-.4.135-4.08,1.435-2.34.828-.94.337q-2.72.963-5.41,1.926l8.3-3.255h0l1-.385,14.14-5.576,6-2.369,4.31-1.7c.71-.279,1.43-.559,2.13-.847l4.21-1.656a.529.529,0,0,0,.13-.058l4-1.579Z" transform="translate(-0.003 -3.423)" fill="#bbdfff"/>
        <path id="Path_796" data-name="Path 796" d="M1237.868,107.848c-53.5-6.27-106.87-13.637-160.139-20.985-33.33-4.6-66.73-9.525-100.12-13.8q-4.86-.636-9.73-1.242c-17.73-2.225-35.48-4.257-53.26-5.971-7.33-6.963-14-14.61-21.71-21.187A146.533,146.533,0,0,0,878.69,34c24.18.732,48.35,2.485,72.45,4.921q20,2.013,40,4.4l7.72.963c53.69,6.539,107.219,14.61,160.789,21.9l28.46,3.852C1205.348,81.845,1221.228,95.231,1237.868,107.848Z" transform="translate(-0.005 -1.277)" fill="#bbdfff"/>
        <path id="Path_797" data-name="Path 797" d="M914.619,65.836c-15.74-1.512-31.51-2.783-47.32-3.7l-4.14-.222h0a152.39,152.39,0,0,0-50-26.186l-2.59-.78.86-.058,4.79-.279,4.79-.25,4.79-.212,4.78-.173c1.26,0,2.52-.087,3.79-.116h1.77q2-.058,4-.087l5.82-.1h3.76q14.47-.087,28.94.356h0a146.552,146.552,0,0,1,14.25,10.642C900.57,51.226,907.289,58.873,914.619,65.836Z" transform="translate(-0.004 -1.264)" fill="#bbdfff"/>
        <path id="Path_798" data-name="Path 798" d="M1922,31.24q-7.32,2.889-14.69,5.7h0c-2.2,1.685-4.46,3.332-6.78,4.815-.36.231-3.44,2.552-4.48,2.215-1.48-.472-3-.963-4.44-1.339h0A896.469,896.469,0,0,1,1773.3,75.156q-6,1.223-12,2.369c-62.26,11.961-125.9,18.086-189.419,19.839-27.79.77-55.56.713-83.319,0h0c-13,4.517-25.78,9.746-38.28,14.976-9,3.756-18,7.56-27.11,11.181q36.07,1.57,72.24,1.656c82.849.077,166.439-6.491,247.529-23.268h0q7.5-1.541,15-3.226a867.769,867.769,0,0,0,113.119-33.216q22.7-8.417,44.76-18.221a48.534,48.534,0,0,0,6.19-3.351Z" transform="translate(-0.008 -1.175)" fill="#bbdfff"/>
        <path id="Path_799" data-name="Path 799" d="M1463.509,97.976q12.54.52,25,.847c-13,4.517-25.78,9.746-38.28,14.976-9,3.756-18,7.56-27.11,11.181h0q-17.65-.78-35.3-1.926h0q-39.13-2.408-78.14-6.192h0q-36-3.409-71.82-7.7c-16.64-12.616-32.52-26-49.74-37.868q31.8,4.237,63.66,8.167h0C1322.129,88.124,1392.729,95.087,1463.509,97.976Z" transform="translate(-0.006 -2.654)" fill="#bbdfff"/>
        <path id="Path_800" data-name="Path 800" d="M1907.3,37.16c-2.2,1.685-4.46,3.332-6.78,4.815-.36.231-3.44,2.552-4.48,2.215-1.48-.472-3-.963-4.44-1.339C1896.86,41.022,1902.08,39.125,1907.3,37.16Z" transform="translate(-0.01 -1.393)" fill="#bbdfff"/>
        <path id="Path_801" data-name="Path 801" d="M580.48,109.39l-5.62,2.022.21-.087Q577.77,110.343,580.48,109.39Z" transform="translate(-0.003 -4.061)" fill="#bbdfff"/>
        <path id="Path_802" data-name="Path 802" d="M581.42,108.641q13.61-4.815,27.34-9.371Q595,103.825,581.42,108.641Z" transform="translate(-0.003 -3.688)" fill="#bbdfff"/>
        <path id="Path_803" data-name="Path 803" d="M222.069,208.386c-14.42,1.377-28.88,2.167-43.29,2.282-45.95.385-91.53-6.038-134.759-22.247a311,311,0,0,1-39.71-18.3c-.82-.453-2.4.125-4.31,1.213V211.69c63.1,25.9,132.729,30.105,201.149,22.2q21.09-2.441,42-6.327c22.68-4.18,45-9.505,66.79-15.6q6.31-1.772,12.6-3.64c3.41-5.653,6.75-11.354,10.16-17q1.31-2.157,2.58-4.334C298.438,197.061,260.329,204.756,222.069,208.386Z" transform="translate(0 -6.299)" fill="#99cef6"/>
        <path id="Path_804" data-name="Path 804" d="M270.07,264.63l-.32.1h.05a1.076,1.076,0,0,0,.27-.1Z" transform="translate(-0.001 -9.796)" fill="#ffecb7"/>
        <path id="Path_805" data-name="Path 805" d="M222.069,192.516c-14.42,1.086-28.88,1.709-43.29,1.8a180.966,180.966,0,0,0-28.64-18.05C125.243,163.772,96.7,156.092,67,153.894a26.428,26.428,0,0,1,3.1-2.969c2.79-2.1,5.81-4.04,8.84-5.946s6.17-3.8,9.43-5.445c.79-.395,3.14-1.845,4.48-1.747,33.033,2.429,64.571,11.643,91.23,26.654,12.19,6.91,22.55,15.1,32.68,23.608C218.509,189.584,220.279,191.042,222.069,192.516Z" transform="translate(0 10.055)" fill="#ffecb7"/>
        <path id="Path_806" data-name="Path 806" d="M300.939,241.086c-1.77,1.859-4.06,4.132-6.82,6.568-.83.722-1.69,1.464-2.6,2.215h0c-.9.742-1.85,1.5-2.83,2.254-2,1.551-4.15,3.091-6.46,4.584-.72.472-1.47.963-2.24,1.406a80.575,80.575,0,0,1-10.14,5.268h0a47.492,47.492,0,0,1-10.52,1.608c-15.33.568-30-6.019-41.91-14.687a136.74,136.74,0,0,1-16.22-14.215q21.09-2.441,42-6.327a87.179,87.179,0,0,0,8.56,5.6c12.7,7.252,28.07,11.557,42.8,7.82a47.616,47.616,0,0,0,6.38-2.09Z" transform="translate(-0.001 -8.508)" fill="#ffecb7"/>
        <path id="Path_807" data-name="Path 807" d="M269.83,264.688a1.083,1.083,0,0,0,.24-.058l-.32.1h.05Z" transform="translate(-0.001 -9.796)" fill="#ffecb7"/>
        <path id="Path_808" data-name="Path 808" d="M271.37,264.227c.64-.183,1.27-.385,1.9-.607l-.62.2C272.22,263.986,271.8,264.1,271.37,264.227Z" transform="translate(-0.001 -9.758)" fill="#ffecb7"/>
        <path id="Path_809" data-name="Path 809" d="M278.93,261.276l.24-.1q-1.21.559-2.46,1.069C277.46,261.97,278.19,261.613,278.93,261.276Z" transform="translate(-0.001 -9.668)" fill="#ffecb7"/>
        <path id="Path_810" data-name="Path 810" d="M301.3,240.96c1.22-1.387,2.46-2.764,3.67-4.16C304.58,237.3,303.32,238.832,301.3,240.96Z" transform="translate(-0.002 -8.768)" fill="#ffecb7"/>
        <path id="Path_811" data-name="Path 811" d="M459.11,139.21a89.722,89.722,0,0,1-6.6,6.443q-14,5.451-28.1,10.68a141.132,141.132,0,0,0-46.24-7.6,52.432,52.432,0,0,0-6.46.424c3.11-5.046,5.62-9.2,6.24-10.468,1.85-3.785,10.19-7.993,10.71-8.253h0c7.08-2.562,15.29-2.321,22.74-1.926a143.832,143.832,0,0,1,47.71,10.7Z" transform="translate(-0.002 -4.759)" fill="#ffecb7"/>
        <path id="Path_812" data-name="Path 812" d="M723.15,103.985c1.87-1.57,3.7-3.178,5.47-4.815Q726,101.645,723.15,103.985Z" transform="translate(-0.004 -3.684)" fill="#ffecb7"/>
        <path id="Path_813" data-name="Path 813" d="M729.39,68.7q9.92-1.445,19.89-2.552c-.13.356-.26.722-.4,1.079-2.8,7.464-6.23,14.744-11.31,21.1A89.608,89.608,0,0,1,730,96.65a107,107,0,0,1-13.8,5.095c.62-.963,1.22-2.042,1.78-3.082C723.1,89.167,726.07,78.872,729.39,68.7Z" transform="translate(-0.004 -2.464)" fill="#ffecb7"/>
        <path id="Path_814" data-name="Path 814" d="M762.13,29.43c-.42.838-.82,1.685-1.21,2.542-1.29,2.831-2.42,5.721-3.48,8.668q-5,.78-9.91,1.656-3.99.708-7.93,1.464a62.883,62.883,0,0,1,7.6-9.371h0a44.656,44.656,0,0,1,14.93-4.96Z" transform="translate(-0.004 -1.108)" fill="#ffecb7"/>
        <path id="Path_815" data-name="Path 815" d="M772.62,28.759h-3.21C771.42,28.691,772.62,28.759,772.62,28.759Z" transform="translate(-0.004 -1.082)" fill="#ffecb7"/>
        <path id="Path_816" data-name="Path 816" d="M967.88,73.27q4.88.607,9.73,1.242c-3.07,3.2-6.35,6.241-9.77,9.178-3,.462-5.69.722-8,.867l.39-.125c.68-.857,1.33-1.734,2-2.639C964.17,79.01,966,76.14,967.88,73.27Z" transform="translate(-0.005 -2.727)" fill="#ffecb7"/>
        <path id="Path_817" data-name="Path 817" d="M1015.29,25.974c0,1.175-4.87,4.921-5.36,5.355-.75.665-1.52,1.319-2.28,1.926l-.13.1-.31.27c-.35.3-.76.674-1.19,1.088s-.92.963-1.35,1.425c-.64.761-1.27,1.541-1.88,2.34-1.36,1.762-2.66,3.583-3.91,5.422l-7.72-.963c4.43-3.958,9.11-7.7,13.89-11.239,2.56-1.926,5.25-4.18,8.18-5.6C1014.53,25.521,1015.34,24.683,1015.29,25.974Z" transform="translate(-0.005 -0.955)" fill="#ffecb7"/>
        <path id="Path_818" data-name="Path 818" d="M1008.21,33.17a21.14,21.14,0,0,1-2.21,1.859c.43-.414.84-.79,1.19-1.088l.31-.27.13-.1a3.182,3.182,0,0,1,.58-.4Z" transform="translate(-0.005 -1.246)" fill="#ffecb7"/>
        <path id="Path_819" data-name="Path 819" d="M1716.07,140.58c-6.87,3.13-9.83,3.149-10.1,3.14a46.129,46.129,0,0,0,7.28-2C1714.22,141.37,1715.15,140.984,1716.07,140.58Z" transform="translate(-0.009 -5.213)" fill="#ffecb7"/>
        <path id="Path_820" data-name="Path 820" d="M1720.83,142.346q2.22-1.714,4.4-3.5Q1723.05,140.632,1720.83,142.346Z" transform="translate(-0.009 -5.15)" fill="#ffecb7"/>
        <path id="Path_821" data-name="Path 821" d="M1725.23,138.843l.21-.173Z" transform="translate(-0.009 -5.143)" fill="#ffecb7"/>
        <path id="Path_822" data-name="Path 822" d="M1743,104.486q7.5-1.541,15-3.226a160.643,160.643,0,0,1-13.46,17.942c-2,2.311-4.19,4.546-6.4,6.741h0l-1.45.963c-3.48,2.427-6.61,4.459-9.43,6.183-.7.424-1.37.838-2,1.213l-.62.356-.77.443-1,.559-1.08.6c-1,.559-2,1.059-2.9,1.522,2.2-2.475,4.9-5.037,6.83-7.579,6.3-8.273,11.7-17.094,17.33-25.772Z" transform="translate(-0.009 -3.761)" fill="#ffecb7"/>
        <path id="Path_823" data-name="Path 823" d="M1788,58c-.67.665-1.32,1.348-2,2.042a140.428,140.428,0,0,0-12.74,16.122q-6,1.223-12,2.369,4.89-5.432,10.22-10.478C1777.87,63.981,1783.33,60.668,1788,58Z" transform="translate(-0.009 -2.163)" fill="#ffecb7"/>
        <path id="Path_824" data-name="Path 824" d="M1736.58,128.363c.5-.482,1-.963,1.47-1.473h.06Z" transform="translate(-0.009 -4.708)" fill="#ffecb7"/>
        <path id="Path_825" data-name="Path 825" d="M1809.37,47.07c-1.18.453-2.34.9-3.49,1.368C1807.86,47.59,1809,47.186,1809.37,47.07Z" transform="translate(-0.01 -1.759)" fill="#ffecb7"/>
        <path id="Path_826" data-name="Path 826" d="M388.659,130.52c-.52.26-8.86,4.469-10.71,8.253-.62,1.271-3.13,5.422-6.24,10.468l-.63.077c-4.4,7.1-8.63,14.311-13,21.447-.71,1.185-1.43,2.379-2.13,3.563v.067c-1.19,1.926-2.37,3.958-3.54,5.932-.09.135-.17.279-.25.414l-2.62,4.392c-.8,1.339-1.6,2.687-2.42,4.026q-1.8,2.985-3.65,5.932l-1.22,1.926q-1.5,2.369-3.05,4.709c-1.53,2.331-3.1,4.632-4.73,6.915-9.69,13.637-21.88,25.04-35.48,35.248l-2.32,1.734c-.7.51-1.4,1.021-2.12,1.522l-.65.462-1.6,1.117-.13.087-1.74,1.165c-.58.385-1.18.77-1.76,1.136s-1.19.742-1.79,1.108l-.35.212-1.45.848c-.6.347-1.22.684-1.82,1.011l-.93.491c-.73.385-1.47.751-2.2,1.1-.28.135-.55.27-.84.395l-.12.058-.24.1-1.1.5-1.12.472c-1.12.472-2.27.9-3.44,1.281q-.3.116-.62.2c-.43.145-.85.279-1.28.4s-.87.26-1.3.366a1.082,1.082,0,0,1-.24.058A80.592,80.592,0,0,0,280,254.466c.77-.462,1.52-.963,2.24-1.406,2.31-1.493,4.46-3.034,6.46-4.584,1-.751,1.93-1.512,2.83-2.254h0c.91-.751,1.77-1.493,2.6-2.215,2.76-2.437,5.05-4.709,6.82-6.568h0l.28-.318.05-.058c2-2.128,3.28-3.66,3.67-4.16l.15-.173a62.333,62.333,0,0,0,3.9-4.921c4.82-6.741,9.21-13.8,13.49-20.9,3.41-5.653,6.75-11.354,10.16-17q1.31-2.157,2.58-4.334c7.43-12.684,14.49-25.868,25.8-35.845C369,142.674,378.289,134.276,388.659,130.52Z" transform="translate(-0.001 -4.842)" fill="#f9db7d"/>
        <path id="Path_827" data-name="Path 827" d="M269.83,264.688a1.083,1.083,0,0,0,.24-.058l-.32.1h.05Z" transform="translate(-0.001 -9.796)" fill="#f9db7d"/>
        <path id="Path_828" data-name="Path 828" d="M271.37,264.227c.64-.183,1.27-.385,1.9-.607l-.62.2C272.22,263.986,271.8,264.1,271.37,264.227Z" transform="translate(-0.001 -9.758)" fill="#f9db7d"/>
        <path id="Path_829" data-name="Path 829" d="M278.93,261.276l.24-.1q-1.21.559-2.46,1.069C277.46,261.97,278.19,261.613,278.93,261.276Z" transform="translate(-0.001 -9.668)" fill="#f9db7d"/>
        <path id="Path_830" data-name="Path 830" d="M1596.317,67.039c-2.8,2.668-5.82,5.123-8.86,7.541a115.6,115.6,0,0,1-9.43,6.905c-.74.482-3.17,2.369-4.48,2.215-29.3-3.313-57.69,3.034-85,12.52h0c-13,4.517-25.78,9.746-38.28,14.976-9,3.756-18,7.56-27.11,11.181h0c-25,9.929-50.62,18.472-77.81,20.918-18.21,1.647-36.69.154-54-5.692-15.37-5.2-29.29-13.483-42.26-22.69q-5.7-4.064-11.24-8.3c-16.64-12.616-32.52-26-49.74-37.868-6.27-4.315-12.73-8.427-19.46-12.231a323.813,323.813,0,0,0-99.28-36.047c-.35-.067,2.76-3.448,3.1-3.766,2.79-2.668,5.82-5.123,8.85-7.541q4.531-3.679,9.43-6.905c.59-.376,3.27-2.446,4.48-2.215a322.862,322.862,0,0,1,110.489,42.693c16.38,10.17,31.11,22.3,46,34.179h0a398.6,398.6,0,0,0,33.16,24.337,157.719,157.719,0,0,0,24.73,13.049h0a118.9,118.9,0,0,0,21,6.539c18.18,3.852,37,3.236,55.24,0,.65-.116,1.29-.231,1.95-.366h0c26-4.815,50.88-14.8,75.65-25.126,43.75-18.221,87.16-37.559,135.9-32.08C1599.687,63.3,1596.647,66.712,1596.317,67.039Z" transform="translate(-0.006 -0.021)" fill="#f9db7d"/>
        <path id="Path_831" data-name="Path 831" d="M1738.109,126.85l-1.53,1.512c-.86.819-1.72,1.637-2.58,2.437l-.49.453c-.46.424-.92.847-1.39,1.262l-.59.52-1.19,1.059c-.82.713-1.64,1.425-2.48,2.128l-.57.482-1.31,1.088q-2.54,2.09-5.15,4.112-1.8,1.416-3.65,2.783t-3.5,2.552c-.19.144-.38.289-.58.424-1.11.8-2.23,1.589-3.35,2.369-9.6,6.674-20.12,12.626-32.12,14.253-24,3.236-45.13-11.557-68.84-11.277a46.214,46.214,0,0,1,3.09-3.766c2.8-2.677,5.83-5.133,8.85-7.55a110.029,110.029,0,0,1,9.43-6.9c1-.665,3-2.205,4.48-2.225a69.394,69.394,0,0,1,12.43,1.059c1.29.221,2.58.472,3.86.742s2.56.559,3.83.867,2.55.636,3.82.963,2.83.761,4.24,1.165l3.35.963,1.89.539c2.36.674,4.7,1.329,7,1.926l1,.26,1.77.443c1.76.433,3.53.828,5.3,1.165l1.66.308a61.087,61.087,0,0,0,16.82.857c1-.106,2-.231,3.08-.4h.08q.56-.087,1.11-.2h0c.27,0,3.23,0,10.1-3.14.37-.164.75-.347,1.15-.539s1-.482,1.55-.751h0a152.141,152.141,0,0,0,19.43-11.942Z" transform="translate(-0.008 -4.706)" fill="#f9db7d"/>
        <path id="Path_832" data-name="Path 832" d="M1668.06,139.32c2.34.665,4.7,1.319,7,1.926C1672.76,140.649,1670.42,139.975,1668.06,139.32Z" transform="translate(-0.009 -5.167)" fill="#f9db7d"/>
        <path id="Path_833" data-name="Path 833" d="M1676.13,141.6c2.36.6,4.71,1.146,7.07,1.608C1680.84,142.756,1678.49,142.207,1676.13,141.6Z" transform="translate(-0.009 -5.251)" fill="#f9db7d"/>
        <path id="Path_834" data-name="Path 834" d="M1704.76,144.031a60.239,60.239,0,0,1-21.56-.761,60.665,60.665,0,0,0,21.56.761Z" transform="translate(-0.009 -5.313)" fill="#f9db7d"/>
        <path id="Path_835" data-name="Path 835" d="M1706,143.84q-.56.116-1.11.2l1.1-.2Z" transform="translate(-0.009 -5.334)" fill="#f9db7d"/>
        <path id="Path_836" data-name="Path 836" d="M1918.809,26.8c-2.81,2.716-5.81,5.123-8.81,7.531-.87.693-1.75,1.387-2.64,2.071h0c-2.2,1.685-4.46,3.332-6.78,4.815-.36.231-3.44,2.552-4.48,2.215-1.48-.472-3-.963-4.44-1.339h0a131.547,131.547,0,0,0-65.25-1.262c-1.44.327-2.86.684-4.28,1.069s-2.83.77-4.23,1.194-2.81.857-4.2,1.329-2.76.963-4.13,1.454h-.12c-.36.116-1.51.52-3.49,1.368h-.07l-.53.222c-1.31.52-2.61,1.088-3.9,1.685-.63.27-1.25.559-1.87.857l-2,.963c-2.57,1.271-5.08,2.658-7.53,4.112-.64.385-1.25.761-1.88,1.165l-.18.231c-4.66,2.668-10.12,5.981-16.46,10.054a221.726,221.726,0,0,1,23.72-19.521c.87-.626,1.75-1.242,2.63-1.859s1.53-1.069,2.3-1.589c1.14-.78,2.28-1.541,3.43-2.3,34.28-22.613,78.12-31.174,118.289-18.231C1922.349,23.182,1919.129,26.485,1918.809,26.8Z" transform="translate(-0.009 -0.648)" fill="#f9db7d"/>
        <path id="Path_837" data-name="Path 837" d="M1801.38,50.435c1.29-.6,2.59-1.165,3.9-1.685C1804,49.289,1802.67,49.848,1801.38,50.435Z" transform="translate(-0.01 -1.821)" fill="#f9db7d"/>
        <path id="Path_838" data-name="Path 838" d="M1813.62,45.52q-2.08.7-4.14,1.473h0C1810.86,46.464,1812.23,45.982,1813.62,45.52Z" transform="translate(-0.01 -1.702)" fill="#f9db7d"/>
        <path id="Path_839" data-name="Path 839" d="M730,96.38c-.44.433-.89.857-1.34,1.281-1.77,1.656-3.6,3.265-5.47,4.815l-1.59,1.291-1.08.876-1.86,1.445c-1,.761-2,1.512-3,2.244s-1.86,1.348-2.79,2.013l-.29.193c-.84.6-1.68,1.175-2.52,1.743q-1.77,1.2-3.54,2.35c-17.33,11.287-37,11.74-57.29,9.12a259.213,259.213,0,0,1-65.42-17.4h0l-.38-.154h0q-9-3.737-17.7-8.128a254.489,254.489,0,0,1-31.22-18.674c-.87-.616,11-10.594,11.95-11.316,1.45-1.146,12.06-10.411,13.91-9.12A260.375,260.375,0,0,0,604,83.629q8.91,3.958,18.15,7.252c1.34.482,2.68.963,4,1.4A239.946,239.946,0,0,0,686,104.46c9.92.7,20.07.453,29.59-2.514l.43-.144c.07-.106.13-.222.19-.327A106.991,106.991,0,0,0,730,96.38Z" transform="translate(-0.003 -2.194)" fill="#f9db7d"/>
        <path id="Path_840" data-name="Path 840" d="M967.839,81.257c-1.7,1.454-3.41,2.889-5.18,4.3-9.58,7.627-20.55,16.661-33.53,18.134-9.2,1.04-17.85-1.762-25.45-6.52-15.31-9.573-25.87-24.423-39.73-35.633-.27-.212-.52-.424-.79-.626h0a152.392,152.392,0,0,0-50-26.186l-2.59-.742a154.6,154.6,0,0,0-26.45-5.22c-1-.106-1.9-.2-2.86-.289-1.43-.125-2.87-.241-4.31-.327q-1.44-.106-2.88-.144h-1.45s-1.2-.067-3.21,0h-1.26a49.568,49.568,0,0,0-6,.5l-.06.125a44.664,44.664,0,0,0-14.92,4.912c.34-.356.69-.713,1.06-1.069s.53-.53.81-.79.73-.722,1.12-1.079,1-.963,1.58-1.445,1.08-.963,1.64-1.435c9.91-8.446,20.94-17.971,34.7-19.7,18.25-2.3,38.44,1.994,55.55,7.839a154.048,154.048,0,0,1,35,17.162h0a146.531,146.531,0,0,1,14.28,10.69c7.66,6.549,14.38,14.2,21.71,21.187a91.177,91.177,0,0,0,16.1,12.6c6.93,4.112,15,6.741,23.23,5.865l1.29-.164c.64-.1,1.27-.212,1.9-.347l1-.241c.54-.135,1.08-.289,1.63-.453h0C962.149,81.979,964.879,81.719,967.839,81.257Z" transform="translate(-0.004 -0.293)" fill="#f9db7d"/>
      </g>
    </g>
  </g>
</svg>
