<svg xmlns="http://www.w3.org/2000/svg" width="1920.66" height="853.349" viewBox="0 0 1920.66 853.349">
  <g id="Episodes_Main_-_Header" data-name="Episodes Main - Header" transform="translate(0 0.349)">
    <g id="Layer_2" data-name="Layer 2" transform="translate(0 601.996)">
      <g id="Layer_1" data-name="Layer 1" transform="translate(0 0.004)">
        <path id="Path_651" data-name="Path 651" d="M178.87,93.57c-15.36.75-30.51,4.907-45.07,9.048Q98,112.791,62.21,123c-9.55,2.729-19.17,5.378-28.38,8.777-2.29.854-4.48,1.811-6.65,2.809-.6.662-1.17,1.34-1.72,2.043-3.45,4.444-10.1,7.979-15.09,11.171a58.346,58.346,0,0,1-8.11,4.716c-.22.112-3.06,1.46-2,.152,8.16-10.476,21-18.767,33.18-26.083A153.442,153.442,0,0,1,63.7,112.728c12.93-4.357,26.19-8.178,39.5-11.881h0a414.476,414.476,0,0,1,75.67-7.277Z" transform="translate(0 -18.914)" fill="#ffecb7"/>
        <path id="Path_652" data-name="Path 652" d="M765.51,161.39c-1,1.005-1.87,2-2.6,2.872-12.29,14.729-19.42,31.637-29.14,47.443a111.579,111.579,0,0,1-16.71,21.543,134.559,134.559,0,0,1-15.95,13.205,149.783,149.783,0,0,1-16.59,5.585c1.78-.559,3.53-1.173,5.23-1.867a24.263,24.263,0,0,0,2.39-1.261l-.29.263a17.674,17.674,0,0,1,1.77-1.037,14.289,14.289,0,0,0-1.47.8c.77-.726,1.51-1.468,2.24-2.21a84.26,84.26,0,0,0,8.46-10.277c11-15.352,17.84-32.283,28.53-47.754a100.363,100.363,0,0,1,19-20.865c1-.8,1.91-1.548,2.88-2.314h0a118.824,118.824,0,0,1,12.25-4.125Z" transform="translate(0 -32.62)" fill="#ffecb7"/>
        <path id="Path_653" data-name="Path 653" d="M778.16,159.158q-1.9-.066-3.79.048a16.661,16.661,0,0,1,3.79-.048Z" transform="translate(0 -32.152)" fill="#ffecb7"/>
        <path id="Path_654" data-name="Path 654" d="M694.19,269.73c-.18.072-.38.176-.56.263Z" transform="translate(0 -54.516)" fill="#ffecb7"/>
        <path id="Path_655" data-name="Path 655" d="M693.62,270.07a17.674,17.674,0,0,0-1.77,1.037l.29-.263h0Q692.9,270.405,693.62,270.07Z" transform="translate(0 -54.585)" fill="#ffecb7"/>
        <path id="Path_656" data-name="Path 656" d="M1273.72,203.77l1,.327c-.18-.048-.35-.112-.52-.168Z" transform="translate(0 -41.185)" fill="#ffecb7"/>
        <path id="Path_657" data-name="Path 657" d="M1303,208.51c-6.59,1-9.77.3-10,.255a56.642,56.642,0,0,0,10-.255Z" transform="translate(0 -42.143)" fill="#ffecb7"/>
        <path id="Path_658" data-name="Path 658" d="M1348.89,48.38a143.548,143.548,0,0,0-11.73,11.889c-.27.391-.52.8-.76,1.189-6,9.878-6.3,21.687-6.68,32.442a180.835,180.835,0,0,0,2.16,34.214c1.44,9.232,3.35,18.862.43,28.038-1.82,5.721-5.77,10.5-10.65,14.721a95.68,95.68,0,0,1-15.93,4.787,20.064,20.064,0,0,0,1.12-2.96,37.872,37.872,0,0,0,1.22-13.221c-.59-10.373-3.08-20.7-3.75-31.118-.75-11.721-.64-23.737,1.42-35.379,1.68-9.463,5.65-17.961,13.84-25.046A129.149,129.149,0,0,1,1348.89,48.38Z" transform="translate(0 -9.781)" fill="#ffecb7"/>
        <path id="Path_659" data-name="Path 659" d="M1853.7,18.54c-3.89,4.564-14,12.072-39.71,22.844-21.16,4.787-43.64,4.4-65.36,6.24a589.731,589.731,0,0,0-67.43,9.726c-20.84,4.237-41.9,9.288-61.61,16.229-3.37,1.189-6.67,2.473-9.89,3.91l-.7.854a89.592,89.592,0,0,1,5.61-7.979h0c2.17-1.285,4.36-2.521,6.54-3.726,16.45-9.072,35.3-14.442,54.18-19.357a586.978,586.978,0,0,1,67.21-13.293c22.2-3.056,44.47-4.2,66.87-5.777,11.5-.8,23.06-2.114,34-5.162q4.489-1.258,8.77-2.928A20.531,20.531,0,0,1,1853.7,18.54Z" transform="translate(0 -3.75)" fill="#ffecb7"/>
        <path id="Path_660" data-name="Path 660" d="M1614.61,83.466a90.763,90.763,0,0,0-5.61,7.979h0a26.251,26.251,0,0,0-4,6.862.256.256,0,0,1,0,.04h0a21.1,21.1,0,0,0-1.18,4.436c-.07.4-.12.8-.16,1.2,0,.239-.05.479-.07.71s0,.638,0,.957c0,1.125-2.14,2.394-3.07,3.192-2.77,2.242-5.77,4.3-8.78,6.335s-6.06,3.989-9.27,5.761c-.33.144-4.52,2.3-4.51,1.9.21-7.564,4-14.139,10-19.947l1.44-1.356c.37-.343.73-.67,1.11-1.005l1.32-1.165c.47-.415,1-.8,1.45-1.229s.88-.726,1.34-1.093c.3-.263.62-.511.94-.8a3.044,3.044,0,0,1,.42-.327c.46-.375.93-.734,1.41-1.093.82-.622,1.64-1.237,2.48-1.843.54-.4,1.08-.8,1.62-1.165s1.35-.95,2-1.412q2.37-1.6,4.79-3.192.88-.575,1.8-1.125c.68-.431,1.36-.854,2-1.261l2.37-1.42Z" transform="translate(0 -16.86)" fill="#f9db7d"/>
        <path id="Path_661" data-name="Path 661" d="M1605,102.178v-.048a.256.256,0,0,1,0,.04h0a21.5,21.5,0,0,0-1.21,4.444,21.133,21.133,0,0,1,1.21-4.436Z" transform="translate(0 -20.644)" fill="#f9db7d"/>
        <path id="Path_662" data-name="Path 662" d="M1605,100.392a26.251,26.251,0,0,1,4-6.862c0,.072-.1.144-.14.215a25.936,25.936,0,0,0-3.79,6.575.541.541,0,0,0-.07.072Z" transform="translate(0 -18.906)" fill="#f9db7d"/>
        <path id="Path_663" data-name="Path 663" d="M1614.61,83.47h0l-.16.088Z" transform="translate(0 -16.872)" fill="#f9db7d"/>
        <path id="Path_664" data-name="Path 664" d="M1877.17.567c-8.6,10.077-21.26,18.232-33.52,25.3A106.258,106.258,0,0,1,1814,37.638c25.69-10.772,35.82-18.28,39.71-22.844l.07-.072c.47-.439,1-.878,1.47-1.293.26-.223.51-.431.77-.638s.81-.622,1.21-.918c.23-.184.47-.359.71-.527.53-.383,1.07-.75,1.6-1.125.78-.527,1.59-1.045,2.38-1.6l1.21-.8c.34-.215.66-.423,1-.622L1867,5.426a58.236,58.236,0,0,1,8.1-4.708C1875.51.527,1878.26-.693,1877.17.567Z" transform="translate(0 -0.004)" fill="#f9db7d"/>
        <path id="Path_665" data-name="Path 665" d="M1200,108.216q-16.95,3.192-33.9,6.319l-1.56.3h0a124.232,124.232,0,0,0-10.91-9.391c-16-12.312-36.15-19.15-58.34-20.283-26.61-1.348-53,4.173-78.44,9.678-1.72.383.22-1.237.55-1.6a52.6,52.6,0,0,1,7.21-5.585c3.22-2.266,6.55-4.476,10-6.527,1.56-.926,4.4-2.944,6.47-3.4,27.42-5.936,56.26-11.968,84.91-9.447,24.64,2.13,45.15,11.817,61.21,26.594A163.854,163.854,0,0,1,1200,108.216Z" transform="translate(0 -13.684)" fill="#f9db7d"/>
        <path id="Path_666" data-name="Path 666" d="M1321.66,188.691l-.09.072c-.55.479-1.11.942-1.68,1.4l-.08.064c-.58.471-1.17.934-1.77,1.38l-.36.279c-.55.423-1.12.8-1.7,1.245l-.06.04c-.65.471-1.31.934-2,1.388-2.74,1.875-5.55,3.67-8.31,5.418-9.27,5.888-18.55,10.492-30.57,11.234-20.38,1.261-38.62-7.181-52.7-18.2-18.48-14.49-30.5-32.969-44.79-50.036l34.14-6.439c13.21,16.8,26,33.839,45.91,46.015q1.88,1.149,3.88,2.226l1.42.758.2.1.91.455,1.13.551c.27.136.55.263.82.383.49.231,1,.455,1.48.67l.77.343c1,.447,2.09.878,3.16,1.277l.84.327,1.48.535.46.16c.17.056.34.12.52.168.35.128.7.239,1,.351l3.27.973,1.91.5,3.67.8c.3.056.61.12.92.168l1.51.255c.35.064.71.112,1.06.16h.1c.38.048.77.1,1.16.144l1.5.168c.3,0,.6.064.9.08l.6.048.6.048c.24.048,3.42.742,10-.255h.24c.41-.04.83-.1,1.25-.16l1.24-.2v-.08h0a95.7,95.7,0,0,0,16.06-4.819Z" transform="translate(0 -27.598)" fill="#f9db7d"/>
        <path id="Path_667" data-name="Path 667" d="M1292.94,208.8h0l-1.2-.1Z" transform="translate(0 -42.182)" fill="#f9db7d"/>
        <path id="Path_668" data-name="Path 668" d="M1303.2,208.42l1.25-.16c-.5.072-1,.144-1.49.2Z" transform="translate(0 -42.093)" fill="#f9db7d"/>
        <path id="Path_669" data-name="Path 669" d="M1446.61,58.652q-22.71,3.367-45.35,7.085c-16.9-7.6-35.49-12.663-55.17-9.5a75,75,0,0,0-8.93,1.979,143.535,143.535,0,0,1,11.73-11.889q2-.942,4.07-1.8c.69-.287,1.38-.559,2.08-.8a86.707,86.707,0,0,1,11.86-3.622l1.57-.343c.56-.12,1.13-.223,1.7-.327l1.14-.2h.09l1.35-.207c.34-.056.67-.1,1-.144l.93-.12.34-.048,1-.112,1.12-.112,1.89-.152,1.69-.1h1.2c1.62-.056,3.27-.056,4.92,0C1409.15,38.84,1428.73,48.606,1446.61,58.652Z" transform="translate(0 -7.725)" fill="#f9db7d"/>
        <path id="Path_670" data-name="Path 670" d="M1517.87,100.091c-2.77,2.242-5.77,4.3-8.78,6.335s-6.12,3.989-9.35,5.8c-.8.439-3.1,1.963-4.44,1.859-26-1.8-47.23-13.979-67.91-25.74q22.8-3.279,45.69-6.136c14.63,7.436,30.2,13.492,47.87,14.713A28.44,28.44,0,0,1,1517.87,100.091Z" transform="translate(0 -16.618)" fill="#f9db7d"/>
        <path id="Path_671" data-name="Path 671" d="M867.72,172q-22,2.1-44.13,3.774c-7.69-5.585-15.56-11.059-24.41-15.3-.46-.231-.94-.447-1.42-.654s-.67-.3-1-.447c-.63-.279-1.27-.543-1.92-.8l-.92-.351c-1.18-.447-2.38-.862-3.6-1.229l-1.1-.319h-.11l-1.5-.391c-.39-.1-.77-.191-1.16-.271a41.381,41.381,0,0,0-5.43-.9c-.94-.1-1.88-.168-2.82-.207h0a16.66,16.66,0,0,0-3.79.048h-.08l-.65.056-1.3.12a7.693,7.693,0,0,0-1,.12,39.992,39.992,0,0,0-5.7,1.253l-.16.168a119.072,119.072,0,0,0-12.21,4.053c2.46-1.947,5-3.886,7.63-5.761.37-.271.73-.527,1.1-.8.61-.439,1.22-.87,1.82-1.285l1.16-.8c1.24-.838,2.5-1.652,3.76-2.442l1.46-.91c.85-.519,1.69-1.021,2.54-1.508.66-.375,1.33-.8,2-1.125,2.11-1.165,4.25-2.266,6.44-3.271.73-.335,1.46-.67,2.2-.981s1.48-.622,2.22-.926c18.85-7.508,37.15-.088,51.92,9.8,7.89,5.29,15.14,11.171,23,16.508Q864.07,169.661,867.72,172Z" transform="translate(0 -27.861)" fill="#f9db7d"/>
        <path id="Path_672" data-name="Path 672" d="M1000.52,238.544c-2.77,2.25-5.77,4.317-8.78,6.383s-6.12,3.989-9.36,5.793c-.59.319-3.24,2.051-4.44,1.867-46.858-7.38-90.982-23.209-129-46.278h0l5.82-.574c3.73-.383,7.46-.758,11.19-1.157l1.23-.128c3.34-.359,6.68-.71,10-1.077l13.67-1.532,5.44-.63a363.257,363.257,0,0,0,107.29,34.142C1003.93,235.408,1000.84,238.256,1000.52,238.544Z" transform="translate(0 -40.668)" fill="#f9db7d"/>
        <path id="Path_673" data-name="Path 673" d="M773.64,159.3l.65-.056h-.2Z" transform="translate(0 -32.186)" fill="#f9db7d"/>
        <path id="Path_674" data-name="Path 674" d="M778.2,159.18a25.786,25.786,0,0,1,2.82.207c-.92-.088-1.84-.16-2.76-.191Z" transform="translate(0 -32.174)" fill="#f9db7d"/>
        <path id="Path_675" data-name="Path 675" d="M786.45,160.342a45.787,45.787,0,0,0-5.43-.9,41.384,41.384,0,0,1,5.43.9Z" transform="translate(0 -32.226)" fill="#f9db7d"/>
        <path id="Path_676" data-name="Path 676" d="M576.58,178.219h-1q-6.5-.184-13-.391l-6.11-.215h-.67c-4.24-.16-8.47-.319-12.71-.5l-5.11-.215h0a295.461,295.461,0,0,1-21.43-39.44c-.37-.8,2.41-2.633,3.07-3.192,2.77-2.242,5.77-4.309,8.79-6.343.93-.63,13.48-8.33,13.78-7.66a302.774,302.774,0,0,0,34.35,57.975h0Z" transform="translate(0 -24.299)" fill="#f9db7d"/>
        <path id="Path_677" data-name="Path 677" d="M701.11,258.7q-1.71,1.221-3.45,2.394c-1.16.8-2.32,1.6-3.5,2.394l-3.08,2.027c-1.33.862-2.67,1.723-4,2.561-16.41,10.317-36.38,19.748-58,15.112-20.4-4.38-34.82-19.413-47.4-31.972a329.246,329.246,0,0,1-26-29.235q20.32.447,40.65.535,10.26,11.25,21.72,21.759c13.19,12.072,29.42,23.937,50.91,22.9h.27l.67-.04a3.849,3.849,0,0,0,.45-.04c.59-.04,1.17-.088,1.76-.152l.94-.112c.6-.072,1.2-.152,1.78-.247s1.19-.191,1.78-.3,1.18-.223,1.75-.359,1.17-.247,1.75-.391c1.15-.287,2.3-.59,3.43-.934.12-.04.25-.072.37-.12s.47-.136.7-.215A149.774,149.774,0,0,0,701.11,258.7Z" transform="translate(0 -44.866)" fill="#f9db7d"/>
        <path id="Path_678" data-name="Path 678" d="M669.36,278.507c1.2-.072,2.41-.184,3.6-.327-1.26.16-2.54.279-3.82.343Z" transform="translate(0 -56.224)" fill="#f9db7d"/>
        <path id="Path_679" data-name="Path 679" d="M684.52,275c-.35.12-.72.231-1.07.335.25-.072.49-.16.75-.239Z" transform="translate(0 -55.581)" fill="#f9db7d"/>
        <path id="Path_680" data-name="Path 680" d="M300.23,143.563q-19.12-2.992-38.15-6.383a119.841,119.841,0,0,0-19.44-23.937c-10.86-10.237-24.65-18.751-41-22.341l-2.39-.487-1.2-.207c-.39-.072-.8-.136-1.19-.191s-.8-.136-1.2-.184-.79-.112-1.19-.152-.79-.1-1.19-.144l-1.82-.184a87.622,87.622,0,0,0-9.91-.3h-.39c-.74,0-1.49,0-2.23.072h0a414.433,414.433,0,0,0-75.7,7.333l.43-.12,8.58-2.394,3.3-.91c3.17-.87,6.34-1.731,9.5-2.609l4.74-1.309,2.44-.678c2.35-.654,4.68-1.309,7-1.979C161.56,80.074,184.8,71.7,208.94,71.72a84.358,84.358,0,0,1,48.37,15.328C278.6,102.088,290.69,122.57,300.23,143.563Z" transform="translate(0 -14.498)" fill="#f9db7d"/>
        <path id="Path_681" data-name="Path 681" d="M473.61,252.544c-17,14.881-38.91,29.371-63.75,34.772-18.61,4.045-39,3.543-57-2.29-35.45-11.5-52.76-41.02-64.73-68.1-3.55-8.019-6.84-16.157-10.32-24.216q17.47,2.633,35,4.963c10.61,24.519,24.26,49.733,52.07,64.43,14.85,7.851,32.82,11.306,50.54,10.58a109.312,109.312,0,0,0,26.6-4.468,85.964,85.964,0,0,0,11.48-4.261,132.485,132.485,0,0,1,14.19-9.575C468.29,254,478.05,248.659,473.61,252.544Z" transform="translate(0 -38.95)" fill="#f9db7d"/>
        <path id="Path_682" data-name="Path 682" d="M178.89,93.552c.74,0,1.49-.056,2.23-.072q-1,0-2,.072Z" transform="translate(0 -18.896)" fill="#f9db7d"/>
        <path id="Path_683" data-name="Path 683" d="M189.48,93.67h0Z" transform="translate(0 -18.934)" fill="#f9db7d"/>
        <path id="Path_684" data-name="Path 684" d="M189.31,93.619h-.21c-.77-.048-1.55-.088-2.32-.112h-.2c-.8,0-1.62,0-2.43-.048C185.87,93.452,187.59,93.516,189.31,93.619Z" transform="translate(0 -18.891)" fill="#f9db7d"/>
        <path id="Path_685" data-name="Path 685" d="M189.6,93.68c1.21.08,2.42.184,3.64.319-.56-.064-1.11-.1-1.67-.16Z" transform="translate(0 -18.936)" fill="#f9db7d"/>
        <path id="Path_686" data-name="Path 686" d="M184.14,93.44Z" transform="translate(0 -18.887)" fill="#f9db7d"/>
        <path id="Path_687" data-name="Path 687" d="M854.7,206.79l-5.6.559h-.2l-5.39.519c1.8-.168,3.58-.351,5.38-.527Z" transform="translate(0 -41.796)" fill="#7dacc9"/>
        <path id="Path_688" data-name="Path 688" d="M933.61,194.59q11.24-1.46,22.45-3Q944.86,193.13,933.61,194.59Z" transform="translate(0 -38.724)" fill="#7dacc9"/>
        <path id="Path_689" data-name="Path 689" d="M824.75,186.234c-2.49.176-5,.343-7.46.527l-1.34.1-3.8.287q-1.9.128-3.81.287c-15.74,1.237-31.5,2.434-47.34,1.987l-1.64-.048c6.13-.3,12.24-.614,18.37-.957q23-1.269,45.86-3.032Z" transform="translate(0 -37.469)" fill="#bbdfff"/>
        <path id="Path_690" data-name="Path 690" d="M1177.58,141c-33.76,6.383-67.55,12.671-101.41,18.615q-9.72,1.715-19.46,3.359c-50,2.968-100.18,4.676-150.25,7.021-4.09.184-8.19.375-12.27.574l-8.92.415q-7.26.359-14.49.718c-1-.638-2-1.285-3.06-1.947,99.89-9.455,198.56-24.862,296.77-42.991h0A186.166,186.166,0,0,1,1177.58,141Z" transform="translate(0 -25.624)" fill="#bbdfff"/>
        <path id="Path_691" data-name="Path 691" d="M1211.72,132.89l-34.14,6.439a188.117,188.117,0,0,0-13.08-14.234l1.56-.3q16.95-3.12,33.9-6.319C1204,123.18,1207.89,128.023,1211.72,132.89Z" transform="translate(0 -23.948)" fill="#f9db7d"/>
        <path id="Path_692" data-name="Path 692" d="M1473.08,78.5q-22.9,2.849-45.69,6.136h0q-3.9-2.242-7.8-4.412c-5.85-3.255-12-6.455-18.32-9.3q22.65-3.71,45.35-7.085l5.64,3.192C1459.05,70.915,1466,74.873,1473.08,78.5Z" transform="translate(0 -12.903)" fill="#f9db7d"/>
        <path id="Path_693" data-name="Path 693" d="M1419.58,82.013q3.9,2.178,7.8,4.412c-32.71,4.692-65.27,10-97.74,15.639q-12.56,2.17-25.07,4.412-46.5,8.378-92.85,17.163c-3.83-4.867-7.68-9.71-11.76-14.41,36.06-6.766,72.11-13.644,108.24-20.267q11.19-2.059,22.42-4.077,35.27-6.343,70.64-12.176C1407.62,75.558,1413.73,78.758,1419.58,82.013Z" transform="translate(0 -14.698)" fill="#bbdfff"/>
        <path id="Path_694" data-name="Path 694" d="M1646.79,63.288h-1c-57.16,1.4-114.25,6.232-170.53,13.173l-2.22.279c-7.13-3.622-14-7.58-20.83-11.466l-5.64-3.192q24.15-3.591,48.43-6.742c3.65,0,7.29,0,10.94-.048q38.685-.292,77.26,2.529,7.62.559,15.24,1.189l6.46.527c2.38.2,4.76.4,7.14.614l7.13.622,9.78.87,17.1,1.6h0Z" transform="translate(0 -11.172)" fill="#bbdfff"/>
        <path id="Path_695" data-name="Path 695" d="M1520.87,50.887q8.63-1.005,17.26-1.947Q1529.49,49.889,1520.87,50.887Z" transform="translate(0 -9.894)" fill="#7dacc9"/>
        <path id="Path_696" data-name="Path 696" d="M1555.15,46.71q-8.14.8-16.28,1.7Q1547,47.524,1555.15,46.71Z" transform="translate(0 -9.443)" fill="#7dacc9"/>
        <path id="Path_697" data-name="Path 697" d="M312.84,189.809q-17.56-2.338-35-4.963c-4.57-10.612-9.47-21.1-15.73-31.046q19,3.367,38.15,6.383c2.91,6.383,5.58,12.838,8.21,19.15Q310.59,184.527,312.84,189.809Z" transform="translate(0 -31.086)" fill="#f9db7d"/>
        <path id="Path_698" data-name="Path 698" d="M555.59,209.827a2211.28,2211.28,0,0,1-236.83-17.634l-5.92-.8q-2.26-5.282-4.4-10.476c-2.63-6.383-5.3-12.766-8.21-19.15q49.54,7.756,99.61,13.1,7.49.8,15,1.548,11.25,1.125,22.51,2.13c2.5.223,5,.447,7.51.654q15,1.3,30.07,2.394h0l5.64.391c1.6.112,3.2.231,4.81.335l1.3.088c3.61.239,7.22.479,10.83.694q7.53.463,15.08.886,5.22.287,10.44.551l1.58.08q2,.1,4,.191c.67.04,1.33.072,2,.1q3,.156,6,.279l1.37.056h0l5.11.223-5.11-.215Q546.12,197.859,555.59,209.827Z" transform="translate(0 -32.697)" fill="#99cef6"/>
        <path id="Path_699" data-name="Path 699" d="M854.7,202.661l-5.6.559h-.2l-5.39.519c-2.56.247-5.11.495-7.66.726q-3.23.319-6.47.606l-5.48.495-4.25.375c-3,.255-5.91.519-8.87.758l-2.74.239-7,.567q-3.21.263-6.44.5c-1.93.152-3.86.3-5.78.439-1.41.12-2.81.223-4.22.319l-7.2.527-4.7.319c-2.48.176-5,.343-7.44.5l-3.51.231-8.35.527-2.33.136-9,.527-2.36.128-3.08.16c-2.18.128-4.36.239-6.54.351-3.42.176-6.83.343-10.25.5h-.88q-11.5.551-23,.965-49.83,1.819-99.74,1.6-10.49-11.514-19.66-23.737h0l5.53.152c1.09,0,2.16.056,3.25.072l3.26.08,5.42.112,8.84.152h0c2.93.056,5.85.1,8.78.128h1.65l5.42.064,5.88.048h31.1q11.1-.064,22.21-.247,18.51-.271,37-.846l5.89-.184,2.66-.088,5.9-.207h.83l3.28-.128h0l3.63-.136,11.65-.487,10.53-.487,1.64.048c15.84.447,31.6-.75,47.34-1.987q1.9-.152,3.81-.287l3.8-.287,1.34-.1c2.48-.184,5-.351,7.46-.527,7.21,5.3,14.28,10.716,21.9,15.447.74.463,1.49.91,2.23,1.356Z" transform="translate(0 -37.667)" fill="#99cef6"/>
        <path id="Path_700" data-name="Path 700" d="M896.24,196.983l-5.44.63-13.67,1.532c-3.33.367-6.67.718-10,1.077l-1.23.128c-3.73.4-7.46.8-11.19,1.157l-5.82.574c-.74-.447-1.49-.894-2.23-1.356-7.62-4.732-14.69-10.149-21.9-15.447l-1.16-.854q22.11-1.676,44.13-3.774c1,.662,2,1.309,3.06,1.947q7.41,4.652,15.16,8.936Q891,194.35,896.24,196.983Z" transform="translate(0 -36.513)" fill="#f9db7d"/>
        <path id="Path_701" data-name="Path 701" d="M1056.71,172.15h-.15q-4.95.846-9.92,1.668l-1.58.271-10,1.6-1.64.271c-2.66.439-5.34.878-8,1.293l-3.6.582-9.33,1.468-1,.168-10.56,1.6h0q-5.58.862-11.17,1.684c-3.34.5-6.68.989-10,1.476q-8.11,1.173-16.23,2.314c-2.46.343-4.92.694-7.39,1.029q-11.2,1.532-22.45,3-5.61.734-11.24,1.436l-11.44,1.42q-7.35.9-14.69,1.747-5.21-2.633-10.3-5.45-7.74-4.285-15.16-8.936,7.23-.371,14.49-.718l8.92-.415c4.08-.2,8.18-.391,12.27-.574C956.53,176.818,1006.69,175.118,1056.71,172.15Z" transform="translate(0 -34.795)" fill="#99cef6"/>
        <path id="Path_702" data-name="Path 702" d="M414.83,180.12q11.25,1.125,22.51,2.13Q426.06,181.245,414.83,180.12Z" transform="translate(0 -36.406)" fill="#99cef6"/>
        <path id="Path_703" data-name="Path 703" d="M444.85,183.61q15,1.293,30.07,2.394Q459.88,184.911,444.85,183.61Z" transform="translate(0 -37.111)" fill="#99cef6"/>
        <path id="Path_704" data-name="Path 704" d="M474.93,186.6q11.28.8,22.58,1.508Q486.22,187.414,474.93,186.6Z" transform="translate(0 -37.715)" fill="#99cef6"/>
        <path id="Path_705" data-name="Path 705" d="M596.24,216.3q-20.32-.1-40.65-.535-9.47-11.968-17.57-24.583l5.11.215c4.24.184,8.47.343,12.71.5h.67l6.11.215q6.5.215,13,.391h1A307.556,307.556,0,0,0,596.24,216.3Z" transform="translate(0 -38.641)" fill="#f9db7d"/>
        <path id="Path_706" data-name="Path 706" d="M576.57,192.542c2.92.088,5.85.16,8.78.231-1.09,0-2.16-.048-3.25-.072l-5.52-.144h-1q-6.5-.184-13-.391l-6.11-.215h-.67c-4.24-.16-8.47-.319-12.71-.5l-5.11-.215-1.38-.064,1.37.056h0Q557.28,192.024,576.57,192.542Z" transform="translate(0 -38.639)" fill="#99cef6"/>
        <path id="Path_707" data-name="Path 707" d="M602.87,193.523l-8.84-.152-5.42-.112-3.26-.08C591.18,193.316,597,193.427,602.87,193.523Z" transform="translate(0 -39.045)" fill="#99cef6"/>
        <path id="Path_708" data-name="Path 708" d="M611.71,193.76h0Z" transform="translate(0 -39.162)" fill="#99cef6"/>
        <path id="Path_709" data-name="Path 709" d="M648.35,193.972H624.66l-5.88-.048-5.43-.064Q630.85,193.972,648.35,193.972Z" transform="translate(0 -39.183)" fill="#99cef6"/>
        <path id="Path_710" data-name="Path 710" d="M648.35,193.929q14.82-.048,29.62-.279Q663.17,193.873,648.35,193.929Z" transform="translate(0 -39.14)" fill="#99cef6"/>
        <path id="Path_711" data-name="Path 711" d="M678,193.416q18.51-.287,37-.846Q696.48,193.144,678,193.416Z" transform="translate(0 -38.922)" fill="#99cef6"/>
        <path id="Path_712" data-name="Path 712" d="M1646.82,65.245q8.16-.2,16.34-.3Q1655,65.062,1646.82,65.245Z" transform="translate(0 -13.13)" fill="#99cef6"/>
        <path id="Path_713" data-name="Path 713" d="M1763.35,68.32c4,.271,7.94.559,11.9.886C1771.29,68.863,1767.32,68.6,1763.35,68.32Z" transform="translate(0 -13.811)" fill="#99cef6"/>
        <path id="Path_714" data-name="Path 714" d="M1775.25,69.43q6,.455,11.89,1.013Q1781.2,69.885,1775.25,69.43Z" transform="translate(0 -14.035)" fill="#99cef6"/>
        <path id="Path_715" data-name="Path 715" d="M1920.66,54.961c-116.45-22.612-237.92-22.5-356.58-11.226l-8.93.87q-8.14.8-16.28,1.7l-.74.08q-8.64.949-17.26,1.947l-8.62,1.037c-2.87.351-5.74.694-8.61,1.061s-5.73.718-8.6,1.093c3.65,0,7.29,0,10.94-.048q38.685-.292,77.26,2.529c21.21,1.556,42.38,3.511,63.55,5.45h0q8.16-.2,16.34-.3h.86q3.74-.056,7.49-.072,7.24-.048,14.53,0h4.37c1.92,0,3.85.04,5.77.064s4,.048,5.93.088h1.55c1,0,2,0,3,.064l5.56.12h.53l6.61.184,2.22.08q3.44.1,6.85.239c2,.08,4.08.16,6.11.255l3.81.176q3.36.144,6.73.327l6.14.343c2.07.12,4.14.239,6.21.375s4,.247,5.91.391c4,.271,7.94.559,11.9.886s7.93.646,11.89,1.013q3,.263,5.93.559c2,.184,4,.375,5.94.59q6.33.638,12.64,1.364l3.83.447q2.43.275,4.86.59c2.76.335,5.51.678,8.26,1.045,3.93.519,7.87,1.061,11.79,1.6,2.46.351,4.91.718,7.37,1.093l5.71.886,3.3.527c1.16.176,2.31.375,3.45.567l3.27.543c2.1.359,4.19.71,6.29,1.085q24.12,4.253,47.81,9.782a5.725,5.725,0,0,0,3.07-.431Z" transform="translate(0 -7.338)" fill="#99cef6"/>
        <path id="Path_716" data-name="Path 716" d="M262.08,137.048q-76.08-13.4-150.21-32.77-9.5-2.481-18.94-5.075-29-7.939-57.61-16.852Q17.57,76.822,0,70.91v33.943q20.84,6.495,41.91,12.479,6.06,1.731,12.16,3.423a1898.373,1898.373,0,0,0,223.74,47.339C273.24,157.482,268.34,147,262.08,137.048Z" transform="translate(0 -14.334)" fill="#99cef6"/>
      </g>
    </g>
    <path id="Path_487" data-name="Path 487" d="M3545,273.576s184.52,110.006,707.158,84.62S5119.9,227.881,5371.244,248.19c73.808,5.077,93.756,11.847,93.756,11.847V-314H3545Z" transform="translate(-3545 314)" fill="#99cef6"/>
    <g id="Group_86" data-name="Group 86" transform="translate(-5293.201 -612.581)" opacity="0.09">
      <g id="Group_70" data-name="Group 70" transform="translate(6889.201 612.232)">
        <path id="Path_398" data-name="Path 398" d="M0,0H323.964L0,323.964Z" transform="translate(0)" fill="#fff"/>
        <path id="Path_399" data-name="Path 399" d="M0,0H323.964L0,323.964Z" transform="translate(0 323.964)" fill="#fff"/>
      </g>
    </g>
  </g>
</svg>
