<svg xmlns="http://www.w3.org/2000/svg" width="34.986" height="34.986" viewBox="0 0 34.986 34.986">
  <path id="facebook" d="M33.055,0H1.93A1.931,1.931,0,0,0,0,1.931V33.056a1.931,1.931,0,0,0,1.931,1.93H18.689V21.456H14.145v-5.3h4.544v-3.9c0-4.519,2.759-6.979,6.791-6.979a37.384,37.384,0,0,1,4.074.208v4.724h-2.78c-2.193,0-2.618,1.042-2.618,2.572V16.16H29.4l-.683,5.3H24.155v13.53h8.9a1.931,1.931,0,0,0,1.931-1.93h0V1.929A1.931,1.931,0,0,0,33.055,0Zm0,0" transform="translate(0 0)" fill="#25577d"/>
</svg>
