<svg xmlns="http://www.w3.org/2000/svg" width="200" height="200" viewBox="0 0 200 200">
  <g id="Same_File_Image" data-name="Same File Image" transform="translate(-140 -908)">
    <rect id="Rectangle_67" data-name="Rectangle 67" width="200" height="200" transform="translate(140 908)" fill="#aaa"/>
    <g id="document" transform="translate(187.507 945.692)">
      <g id="Group_121" data-name="Group 121" transform="translate(0)">
        <g id="Group_120" data-name="Group 120">
          <path id="Path_644" data-name="Path 644" d="M139.083,16.5h-10.5V6a6.016,6.016,0,0,0-6-6H46.1a6.017,6.017,0,0,0-6,6v95.987a6.017,6.017,0,0,0,6,6h10.5v10.5a6.016,6.016,0,0,0,6,6h50.992a17.5,17.5,0,0,0,10.367-4.111L140.711,104.6a15.929,15.929,0,0,0,4.369-10.11l0-71.99A6.017,6.017,0,0,0,139.083,16.5Zm-82.489,6v80.989H46.1a1.52,1.52,0,0,1-1.5-1.5V6a1.52,1.52,0,0,1,1.5-1.5h76.491a1.521,1.521,0,0,1,1.5,1.5V16.5H62.594A6.016,6.016,0,0,0,56.594,22.5Zm81.033,78.824L120.868,117.1a7.961,7.961,0,0,1-1.284.94v-13.8a3.761,3.761,0,0,1,3.75-3.749H138.34A6.3,6.3,0,0,1,137.627,101.322Zm2.953-6.835a7,7,0,0,1-.2,1.5H123.334a8.266,8.266,0,0,0-8.249,8.249V119.8a7.842,7.842,0,0,1-1.5.181H62.594a1.519,1.519,0,0,1-1.5-1.5V22.5a1.519,1.519,0,0,1,1.5-1.5h76.489a1.52,1.52,0,0,1,1.5,1.5Z" transform="translate(-40.097)" fill="#707070"/>
        </g>
      </g>
      <g id="Group_123" data-name="Group 123" transform="translate(36.746 37.495)">
        <g id="Group_122" data-name="Group 122">
          <path id="Path_645" data-name="Path 645" d="M236.979,154.216H193.485a2.25,2.25,0,0,0,0,4.5h43.494a2.25,2.25,0,0,0,0-4.5Z" transform="translate(-191.235 -154.216)" fill="#707070"/>
        </g>
      </g>
      <g id="Group_125" data-name="Group 125" transform="translate(36.746 67.491)">
        <g id="Group_124" data-name="Group 124">
          <path id="Path_646" data-name="Path 646" d="M236.979,277.59H193.485a2.25,2.25,0,0,0,0,4.5h43.494a2.25,2.25,0,0,0,0-4.5Z" transform="translate(-191.235 -277.59)" fill="#707070"/>
        </g>
      </g>
      <g id="Group_127" data-name="Group 127" transform="translate(36.747 82.489)">
        <g id="Group_126" data-name="Group 126">
          <path id="Path_647" data-name="Path 647" d="M217.482,339.277h-24a2.25,2.25,0,1,0,0,4.5h24a2.25,2.25,0,0,0,0-4.5Z" transform="translate(-191.236 -339.277)" fill="#707070"/>
        </g>
      </g>
      <g id="Group_129" data-name="Group 129" transform="translate(36.746 52.493)">
        <g id="Group_128" data-name="Group 128">
          <path id="Path_648" data-name="Path 648" d="M236.979,215.9H193.485a2.25,2.25,0,0,0,0,4.5h43.494a2.25,2.25,0,0,0,0-4.5Z" transform="translate(-191.235 -215.903)" fill="#707070"/>
        </g>
      </g>
    </g>
  </g>
</svg>
