<svg xmlns="http://www.w3.org/2000/svg" width="1812.091" height="1080.486" viewBox="0 0 1812.091 1080.486">
  <g id="Grey_Section_BG" data-name="Grey Section BG" transform="translate(0 -3617)">
    <g id="Layer_2" data-name="Layer 2" transform="translate(206 3617)">
      <g id="Layer_1" data-name="Layer 1">
        <path id="Path_603" data-name="Path 603" d="M264.84,329.89c36.193,27.232,74.283,51.663,115.435,71.031,63.9,30.013,132.287,48.021,200.84,63.408,151.351,33.965,303.938,66.639,451.278,116.141,75.735,25.451,150.018,56.555,218.67,98.043a992.872,992.872,0,0,1,84.358,56.855c12.348,9.294,25.476,19.749,35.709,28.412,6.638,5.612,13.227,11.365,19.9,17.438l-.365-.47a236.322,236.322,0,0,0-22.868-24.12q-3.675-3.432-7.31-6.9a1151.734,1151.734,0,0,0-136.91-97.172c-68.327-41.258-141.908-72.712-217.218-98.313C930.3,528.366,852.5,508.218,774.7,488.629c-73.1-18.428-146.452-34.875-220.014-51.252-68.583-15.337-137.1-32.924-201.245-62.437a572.2,572.2,0,0,1-52.749-27.592C288.557,341.905,276.585,336.133,264.84,329.89Z" transform="translate(-3.23 0.144)" fill="#e2e2e2"/>
        <path id="Path_604" data-name="Path 604" d="M1374,749.49q3.645,3.462,7.31,6.9a236.329,236.329,0,0,1,22.868,24.121l.365.47h0l.988.86.988.87c.612.55,1.235,1.12,1.857,1.7,3.724,3.422,7.478,6.943,11.3,10.6,80.9,77.474,148.171,174.626,178.388,283.654h24.784C1583.454,962.623,1503.511,864.28,1413.5,783.395q-14.817-13.276-29.99-26.011l-4.425-3.7Z" transform="translate(-16.757 0.327)" fill="#ebebeb"/>
        <path id="Path_605" data-name="Path 605" d="M1405,781h0l.9.81Z" transform="translate(-17.135 0.34)" fill="#ebebeb"/>
        <path id="Path_606" data-name="Path 606" d="M0,0C28.024,108.667,107.256,198.667,190.241,271.5l5.384,4.7,5.393,4.682q5.413,4.672,10.866,9.284c16.23,13.746,32.765,27.112,49.716,39.867h0c11.745,6.243,23.707,12.005,35.847,17.458q-10.866-6.423-21.307-13.366c-1.768-1.161-3.526-2.331-5.275-3.532q-2.183-1.471-4.327-3l-.889-.62c-1.59-1.11-3.161-2.221-4.732-3.351l-.445-.32q-2.578-1.851-5.127-3.732a778.956,778.956,0,0,1-71.566-59.456C135.23,214.8,91.55,162.8,61.5,102.935A363.741,363.741,0,0,1,27.58,0Z" fill="#ebebeb"/>
        <path id="Path_607" data-name="Path 607" d="M301.055,347.426q-10.866-6.453-21.495-13.446,10.49,6.943,21.307,13.366Z" transform="translate(-3.409 0.146)" fill="#ebebeb"/>
        <path id="Path_608" data-name="Path 608" d="M720.47,467.32a111.067,111.067,0,0,1,18.3,6.323,133.2,133.2,0,0,1,24.932,14.466l2.351,1.8h0a.357.357,0,0,1,.089.08h0l.079.06.533.43h0l.069.06h0c.464.43,1.739,1.581,2.183,2l.079.07.059.05h0c2.1,2,5.551,5.332,8.08,7.863,31.61,31.614,62.686,67.109,103.719,86.338,1.689.79-.346-1.7-.524-1.951a53.337,53.337,0,0,0-7.033-6.863c-4.84-4.332-10.1-9.484-16.012-12.255a125.868,125.868,0,0,1-15.193-8.4q-2.874-1.871-5.63-3.922h0l-.721-.54h0a.2.2,0,0,1-.069-.06h0l-.069-.06-.089-.07c-.4-.34-.988-.86-1.5-1.231l.326.3-.464-.38h-.059l-.119-.1-.119-.1-.079-.07h0c-.82-.72-1.64-1.441-2.45-2.171l-.109-.1h0l-.109-.11c-.593-.57-2.025-1.9-2.035-1.911l-2.331-2.211c-3.635-3.492-7.626-7.543-11.37-11.365-18.719-19.1-37.309-38.147-58.409-54.624-1.719-1.341-3.457-2.671-5.235-4-2.963-.75-5.848-1.421-8.742-2.161q-9.789-2.521-19.687-4.522Z" transform="translate(-8.787 0.204)" fill="#bbdfff"/>
        <path id="Path_609" data-name="Path 609" d="M484.2,378.49a45.691,45.691,0,0,1,2.321,4,64.667,64.667,0,0,1,5.779,16.467c2.321,10.685,2.855,21.649,4.169,32.484,1.1,9.1,2.726,18.278,6.322,26.752s9.493,15.407,16.052,21.709h0c3.951,1.691,7.9,3.331,11.854,4.812-4.178-6.893-6.49-14.947-7.9-22.83-3.349-18.648-2.262-38.487-10.036-56.124-3.665-8.3-9.483-15.1-15.894-21.329h0a79.479,79.479,0,0,0-8.5-4.252C486.966,379.55,485.543,379,484.2,378.49Z" transform="translate(-5.905 0.165)" fill="#bbdfff"/>
        <path id="Path_610" data-name="Path 610" d="M837.27,552.83l.069.06h0Z" transform="translate(-10.211 0.241)" fill="#9b7518"/>
        <path id="Path_611" data-name="Path 611" d="M835,551h0l.079.07.119.1.119.1h.059l.464.38-.326-.3-.286-.23h-.069A1.629,1.629,0,0,0,835,551Z" transform="translate(-10.183 0.24)" fill="#9b7518"/>
        <path id="Path_612" data-name="Path 612" d="M767.429,490.52h0l-.069-.06Z" transform="translate(-9.358 0.214)" fill="#9b7518"/>
        <path id="Path_613" data-name="Path 613" d="M519.28,479.846c.859.83,1.709,1.631,2.588,2.441,15.558,14.3,32.2,26.642,53.638,28.6,18.571,1.691,35.265-4.4,50.852-14.226,16.427-10.345,31.689-23.52,50.586-29.073l2.519-.69c.82-.21,1.64-.39,2.46-.57s1.64-.34,2.46-.48l1.235-.21c.82-.13,1.64-.25,2.47-.35l1.235-.14.514-.05,1.867-.16,1.393-.09a73.97,73.97,0,0,1,8.021,0l1.847.11q2.786.21,5.551.58l1.61.24c1.284.2,2.568.43,3.833.68s2.716.56,4.06.89l2.578.48q9.878,2,19.687,4.522c2.894.74,5.828,1.411,8.742,2.161-.7-.52-1.4-1-2.114-1.551-.356-.26-.7-.52-1.067-.77-1.422-1-2.875-2.051-4.336-3.051-.7-.49-1.413-1-2.134-1.451l-1.5-1L736,465.469q-2.8-1.8-5.66-3.5l-1.156-.68c-2.321-1.361-4.682-2.681-7.063-3.932l-2.282-1.171q-1.185-.6-2.371-1.171c-.8-.39-1.6-.76-2.4-1.13A128,128,0,0,0,699.89,448l-1.343-.41-.849-.25-.988-.29-1.255-.34q-1.877-.51-3.764-.93c-.7-.16-1.413-.31-2.114-.45q-1.472-.3-2.963-.54l-.78-.13-.859-.13-1.353-.2q-2.786-.37-5.571-.56l-1.324-.08c-.464,0-.919-.05-1.383-.06a74.049,74.049,0,0,0-33.684,6.643c-18.324,8.334-33.329,22.41-51.237,31.484-15.341,7.773-32.854,10.455-49.627,6.223a63.117,63.117,0,0,1-9.631-3.251v-.05C527.133,483.177,523.2,481.537,519.28,479.846Z" transform="translate(-6.333 0.193)" fill="#99cef6"/>
        <path id="Path_614" data-name="Path 614" d="M720.42,467.32c-1.343-.33-2.7-.63-4.06-.89,1.284.26,2.549.54,3.813.85Z" transform="translate(-8.736 0.203)" fill="#ceb47a"/>
        <path id="Path_615" data-name="Path 615" d="M710.781,465.51c-1.847-.25-3.694-.45-5.551-.58Q708.016,465.14,710.781,465.51Z" transform="translate(-8.601 0.203)" fill="#ceb47a"/>
        <path id="Path_616" data-name="Path 616" d="M693.83,464.93a77.814,77.814,0,0,1,9.414-.11A73.9,73.9,0,0,0,693.83,464.93Z" transform="translate(-8.462 0.203)" fill="#ceb47a"/>
        <path id="Path_617" data-name="Path 617" d="M411.185,346.2c1.926,2.571,4.643,4.732,7.023,6.863,3.131,2.8,6.371,5.522,9.72,8.064,1.175.9,4.524,3.932,6.3,4.2a253.458,253.458,0,0,1,29.881,5.943,119,119,0,0,1,13.958,4.742c1.729.72,3.447,1.481,5.137,2.331l.089.14c1.343.49,2.716,1.06,4.149,1.651a79.477,79.477,0,0,1,8.5,4.252c-.632-.61-1.245-1.2-1.887-1.8-9.72-9.124-20.309-17.9-32.114-24.121-15.864-8.374-33.773-11.585-51.287-14.226C409.012,344,410.77,345.651,411.185,346.2Z" transform="translate(-5 0.15)" fill="#99cef6"/>
        <path id="Path_618" data-name="Path 618" d="M252.28,246c.119.12.227.26.336.38h0a4.729,4.729,0,0,0-.336-.38Z" transform="translate(-3.077 0.107)" fill="#ffefca"/>
        <path id="Path_619" data-name="Path 619" d="M235.59,241.36c.543-.06,1.087-.09,1.64-.1.257.62.514,1.251.751,1.881,6.282,16.437,6.836,35.1,9.8,52.333s7.6,34.615,17.948,49.021c3.872,5.4,9.631,9.714,14.7,13.846a55.943,55.943,0,0,0,7.843,5.793s3.24,1.891,2.045.22c-12.841-17.948-16.546-39.827-19.677-61.277-2.707-18.6-4.05-39.637-16.447-54.694-.573-.69-1.175-1.361-1.778-2h0c-.494-.26-.988-.5-1.511-.73h0c-.524-.24-1.057-.47-1.59-.69h0c-.533-.22-1.067-.43-1.61-.63h0l-1.66-.59c-2.223-.77-4.485-1.451-6.7-2.181A5.983,5.983,0,0,0,235.59,241.36Z" transform="translate(-2.873 0.105)" fill="#bbdfff"/>
        <path id="Path_620" data-name="Path 620" d="M252.655,246.39a4.722,4.722,0,0,0-.375-.4c.119.12.227.26.336.38Z" transform="translate(-3.077 0.107)" fill="#ba9a49"/>
        <path id="Path_621" data-name="Path 621" d="M248.871,242.5c-1.274-1.261-2.588-2.491-3.951-3.672C246.283,240,247.6,241.251,248.871,242.5Z" transform="translate(-2.987 0.104)" fill="#ba9a49"/>
        <path id="Path_622" data-name="Path 622" d="M59.483,211.494C63.691,226.35,71.662,238.175,81.8,248.6c3.951,1.841,8.041,3.722,12.2,5.222-.375-.59-.751-1.171-1.106-1.771-10.224-16.867-13.434-37.146-11.962-56.695,1.59-21.109,8.772-41.3,17.84-60.306,4.495-9.374,9.562-18.408,14.59-27.482s9.809-18.178,11.785-28.332c3.8-19.729-6.431-36.966-19.815-50.372-.662-.66-1.334-1.3-1.976-1.941-4.544-2.381-8.89-5.252-13.444-7.523a55.113,55.113,0,0,1,4.356,6.4A49.243,49.243,0,0,1,100.1,40.259c4.761,22.01-9.562,41.7-19.351,60.026C62.673,134.05,48.577,173.067,59.483,211.494Z" transform="translate(-0.679 0.008)" fill="#bbdfff"/>
        <path id="Path_623" data-name="Path 623" d="M102.208,25.321c-1.116-1.08-2.252-2.121-3.388-3.131Q100.529,23.741,102.208,25.321Z" transform="translate(-1.205 0.01)" fill="#ba9a49"/>
        <path id="Path_624" data-name="Path 624" d="M97.047,20.661q-1.719-1.551-3.467-3Q95.319,19.151,97.047,20.661Z" transform="translate(-1.141 0.008)" fill="#ba9a49"/>
        <path id="Path_625" data-name="Path 625" d="M93.515,17.682c-1.748-1.491-3.517-2.921-5.3-4.312C89.978,14.781,91.766,16.211,93.515,17.682Z" transform="translate(-1.076 0.006)" fill="#ba9a49"/>
        <path id="Path_626" data-name="Path 626" d="M82.12,248.512c.494.51.988,1,1.5,1.521l1.976,1.891,1.462,1.381c.691.65,1.393,1.291,2.1,1.931L91,256.866c.622.54,1.245,1.08,1.877,1.611q1.887,1.6,3.823,3.181c7.8,6.343,16.486,13.106,26.572,15.007s20.418-.57,30.2-3.552a399.631,399.631,0,0,0,58.28-22.95l1.363-.68,2.519-1.291,3.131-1.621,1.422-.72c.543-.26,1.087-.53,1.64-.78l1.255-.58c.7-.31,1.393-.61,2.1-.89s1.4-.54,2.114-.78l.7-.24h0c.4-.13.8-.25,1.205-.36l.217-.06c.691-.19,1.393-.35,2.094-.49h.069c.474-.09.988-.17,1.442-.23l.731-.08h0a5.983,5.983,0,0,1,3.625.14c2.213.73,4.475,1.411,6.7,2.181.553.19,1.106.38,1.66.59h0c.543.2,1.077.41,1.61.63h0c.533.22,1.067.45,1.59.69h0c.514.23.988.47,1.511.73h0c-.109-.12-.217-.26-.336-.38-.553-.63-1.136-1.251-1.729-1.861s-1.047-1.1-1.59-1.631q-1.911-1.876-3.951-3.672h0l-1.837-1.631-.365-.32-1.827-1.551q-2.065-1.731-4.119-3.391c-4.178-3.391-8.525-6.893-13.345-9.334-8.367-4.242-16.99-2.211-25.13,1.631-20,9.444-39.779,18.6-60.829,25.481-10.372,3.381-21.425,7.283-32.469,6.353a29.258,29.258,0,0,1-8.515-2.1l-.119-.19h0c-4.159-1.5-8.268-3.381-12.2-5.222a.049.049,0,0,1,.03.01Z" transform="translate(-1.001 0.096)" fill="#99cef6"/>
        <path id="Path_627" data-name="Path 627" d="M252.28,246c.119.12.227.26.336.38h0a4.729,4.729,0,0,0-.336-.38Z" transform="translate(-3.077 0.107)" fill="#f9db7d"/>
        <path id="Path_628" data-name="Path 628" d="M56.6,0A49.93,49.93,0,0,0,66.873,7.183c5.225,2.551,10.471,5.072,15.568,7.873q3.754,2.061,7.369,4.3h0c4.6,2.271,8.89,5.142,13.444,7.523h0l-1.669-1.611Q99.9,23.68,98.2,22.14l-1.709-1.531q-1.729-1.521-3.467-3c-1.748-1.471-3.517-2.9-5.3-4.312Q83.35,9.884,78.727,6.643,76.88,5.352,74.993,4.092c-1.255-.84-2.509-1.661-3.783-2.471L68.631,0Z" transform="translate(-0.69)" fill="#99cef6"/>
        <path id="Path_629" data-name="Path 629" d="M1163.74,590.32a44.093,44.093,0,0,1,14.214,3.341c1.146.49,2.815,1.871,4.129,2.371h0c12.318,11.725,25.337,24.06,40.6,31.744,1.679.84-.356-1.721-.524-1.951a53.959,53.959,0,0,0-7.033-6.863c-4.939-4.382-10.115-9.284-16.012-12.255-.4-.21-1.551-1.06-2.509-1.651l-3.5-3.311c-3.615-3.381-7.29-6.723-11.053-9.944l-.553-.13a94.244,94.244,0,0,0-17.761-1.351Z" transform="translate(-14.193 0.257)" fill="#bbdfff"/>
        <path id="Path_630" data-name="Path 630" d="M990.535,590.95a54.528,54.528,0,0,0,7.023,6.863c3.131,2.8,6.381,5.522,9.72,8.063,1.61,1.211,4.228,3.552,6.3,4.192a135.6,135.6,0,0,0,51.119,5.652c15.8-1.311,30.681-5.823,45.291-11.925,13.987-5.843,28.083-12.305,43.375-13.436h.859a3.768,3.768,0,0,1,.474,0,51.442,51.442,0,0,1,6.915,0,94.247,94.247,0,0,1,17.78,1.361l.553.13-.109-.09-1.679-1.431-1.808-1.511q-1.808-1.5-3.655-2.951c-.484-.39-.988-.77-1.472-1.151q-2.963-2.311-6.026-4.492c-11.962-8.514-24.7-12.465-39.344-10.815-15.291,1.711-29.288,8.474-43.384,14.256-29.743,12.205-61.54,14.9-92.458,5.362C988.312,588.478,990.249,590.569,990.535,590.95Z" transform="translate(-12.065 0.248)" fill="#99cef6"/>
        <path id="Path_631" data-name="Path 631" d="M1156.74,590.28a57.042,57.042,0,0,1,6.8,0h.119a51.45,51.45,0,0,0-6.915,0Z" transform="translate(-14.107 0.257)" fill="#f9db7d"/>
        <path id="Path_632" data-name="Path 632" d="M1423.069,839.008a26.906,26.906,0,0,0,2.539,1.231c3.536,1.481,7.7,1.8,11.449,2.461q14.817,2.611,29.733,4.272c18.373,2.051,36.835,2.211,55.228,3.942a127.166,127.166,0,0,1,28.587,5.6,77.01,77.01,0,0,1,9.532,3.912,87.983,87.983,0,0,0-8.366-10.224c-1.334-1.43-2.687-2.941-4.08-4.422h0a102,102,0,0,0-9.878-5.812c-19.914-10.124-42.861-10.635-64.652-11.725-12.565-.63-25.1-1.641-37.536-3.241q-5.818-.75-11.617-1.641c.188-.71.385-1.411.6-2.111a8.094,8.094,0,0,0-.286.82C1422.615,827.463,1423,833.335,1423.069,839.008Z" transform="translate(-17.354 0.358)" fill="#bbdfff"/>
        <path id="Path_633" data-name="Path 633" d="M1401.844,685.53a2.414,2.414,0,0,1-.524-.41,14.1,14.1,0,0,0,1.452,1.611c-.188-.27-.385-.53-.6-.79Z" transform="translate(-17.09 0.299)" fill="#ffefca"/>
        <path id="Path_634" data-name="Path 634" d="M1343.625,646.071c1.926,2.571,4.643,4.732,7.023,6.873,4.939,4.422,10.145,9.114,16.022,12.255,8.811,4.7,17.622,9.454,26.108,14.756,1.926,1.2,3.843,2.421,5.709,3.712.267.19,1.116.66,1.976,1.19h0l.247.15c-2.351-3-4.425-6.153-6.618-9.244q-4.554-3.462-9.137-6.753c-13.246-9.494-27.53-17.237-41.863-24.891C1341.432,643.24,1343.467,645.871,1343.625,646.071Z" transform="translate(-16.372 0.281)" fill="#bbdfff"/>
        <path id="Path_635" data-name="Path 635" d="M1401.18,684.85a.361.361,0,0,0,.128.25.6.6,0,0,1-.129-.25Z" transform="translate(-17.088 0.299)" fill="#ffefca"/>
        <path id="Path_636" data-name="Path 636" d="M1526.58,994.765c-.109,1.291,2.173,3.071,2.964,3.912,2.7,2.781,5.62,5.332,8.554,7.843s5.927,4.932,9.019,7.113h0c.326.2,4.346,2.881,4.386,2.351,2.064-25.291,18.432-45.08,30.286-66.349,10.283-18.438,18.205-40.758,9.256-61.377-4.406-10.144-12.506-18.178-20.556-25.421-1.808-1.621-3.635-3.241-5.5-4.832l-2.311-2c-.869-.73-1.748-1.451-2.628-2.151l-.069-.07-1.324-1q-2.548-2-5.176-3.922c-.573-.42-1.156-.83-1.739-1.23-.938-.66-1.887-1.3-2.835-1.921,1.393,1.481,2.746,3,4.08,4.422a88.009,88.009,0,0,1,8.367,10.224l.207.1c2.963,4.432,5.69,8.7,7.1,14.336a54.268,54.268,0,0,1-.237,25.251C1560.58,934.349,1529.514,958.859,1526.58,994.765Z" transform="translate(-18.617 0.369)" fill="#99cef6"/>
        <path id="Path_637" data-name="Path 637" d="M1398.038,804.346c-.79,3.552-1.818,7.743-.672,11.3,1.422,4.422,6.45,8.124,9.7,11l3.072,2.771,1.067,1,1.087,1c1.353,1.191,2.746,2.371,4.178,3.492l.988.78.988.75.78.55c.514.35,1.037.7,1.571,1l.79.48,1.067.6c-.109-5.632-.454-11.505,1.146-17.007a8.094,8.094,0,0,1,.286-.82.325.325,0,0,1,.069-.24l.5-1.591c.217-.65.435-1.3.662-1.941l.583-1.591c.247-.63.484-1.261.741-1.891,3.1-7.673,7.112-14.916,10.8-22.31,6.559-13.146,11.557-26.752,9.947-41.728-1.59-14.7-8.149-28.342-17.03-39.917q-3.517-4.572-7.448-8.864-.563-.63-1.156-1.261c-.988-1-1.916-2-2.9-3l-1.067-1.08-1.363-1.351-1.373-1.331q-4.208-4.052-8.663-7.843c-.909-.79-1.827-1.561-2.746-2.311-1.126-.95-2.272-1.881-3.418-2.8q-1.284-1-2.578-2c-.988-.78-1.976-1.561-2.963-2.321,2.193,3.091,4.267,6.273,6.618,9.244l.089.06.326.21a6.01,6.01,0,0,1,1.452,1.191.922.922,0,0,0-.178-.16,6.271,6.271,0,0,0-.8-.5l-.474-.27.326.41c.217.26.415.52.6.79l.286.29.682.67.2.2c.128.12.237.22.316.31l.109.11.059.06c11.745,13.776,19.618,32.164,18.363,50.582-1.106,16.007-9.572,29.923-16.486,43.959C1402.839,789.77,1399.728,796.843,1398.038,804.346Z" transform="translate(-17.009 0.295)" fill="#99cef6"/>
        <path id="Path_638" data-name="Path 638" d="M1401.18,684.85a.361.361,0,0,0,.128.25.6.6,0,0,1-.129-.25Z" transform="translate(-17.088 0.299)" fill="#f9db7d"/>
      </g>
    </g>
    <path id="Path_484" data-name="Path 484" d="M1502,3245.454S1620,3728,2356,3842s734,482,734,482H1373V3245.454Z" transform="translate(-1373 372)" fill="#e2e2e2"/>
    <g id="Group_85" data-name="Group 85" transform="translate(-7194.526 3421.151)" opacity="0.13">
      <path id="Path_410" data-name="Path 410" d="M0,0H179.389L0,179.389Z" transform="translate(7194.526 379.389)" fill="#fff"/>
      <path id="Path_411" data-name="Path 411" d="M0,0H179.389L0,179.389Z" transform="translate(7194.526 558.778)" fill="#fff"/>
      <g id="Group_72" data-name="Group 72" transform="translate(7194.526 917.557)">
        <path id="Path_398" data-name="Path 398" d="M0,0H179.389L0,179.389Z" transform="translate(0 0)" fill="#fff"/>
        <path id="Path_399" data-name="Path 399" d="M0,0H179.389L0,179.389Z" transform="translate(0 179.389)" fill="#fff"/>
        <path id="Path_397" data-name="Path 397" d="M0,0H179.389L0,179.389Z" transform="translate(179.389 0)" fill="#fff"/>
      </g>
      <g id="Group_73" data-name="Group 73" transform="translate(7373.916 558.778)">
        <path id="Path_398-2" data-name="Path 398" d="M0,0H179.389L0,179.389Z" transform="translate(0 0)" fill="#fff"/>
        <path id="Path_399-2" data-name="Path 399" d="M0,0H179.389L0,179.389Z" transform="translate(0 179.389)" fill="#fff"/>
      </g>
    </g>
  </g>
</svg>
