<svg id="instagram" xmlns="http://www.w3.org/2000/svg" width="34.979" height="34.986" viewBox="0 0 34.979 34.986">
  <path id="Path_380" data-name="Path 380" d="M35.339,10.286a12.784,12.784,0,0,0-.813-4.244A8.962,8.962,0,0,0,29.406.923,12.817,12.817,0,0,0,25.162.109C23.289.021,22.695,0,17.945,0S12.6.021,10.734.1A12.788,12.788,0,0,0,6.49.916a8.536,8.536,0,0,0-3.1,2.023,8.614,8.614,0,0,0-2.016,3.1,12.818,12.818,0,0,0-.813,4.244C.469,12.152.449,12.746.449,17.5s.021,5.345.1,7.21a12.783,12.783,0,0,0,.813,4.244A8.961,8.961,0,0,0,6.483,34.07a12.819,12.819,0,0,0,4.244.813c1.866.082,2.46.1,7.21.1s5.345-.02,7.21-.1a12.781,12.781,0,0,0,4.244-.813,8.949,8.949,0,0,0,5.119-5.119,12.827,12.827,0,0,0,.813-4.244c.082-1.866.1-2.46.1-7.21s-.007-5.345-.089-7.21ZM32.188,24.57a9.589,9.589,0,0,1-.6,3.246,5.8,5.8,0,0,1-3.322,3.322,9.623,9.623,0,0,1-3.246.6c-1.845.082-2.4.1-7.067.1s-5.228-.02-7.067-.1a9.584,9.584,0,0,1-3.246-.6,5.383,5.383,0,0,1-2.009-1.305,5.439,5.439,0,0,1-1.305-2.009,9.625,9.625,0,0,1-.6-3.246c-.082-1.845-.1-2.4-.1-7.067s.02-5.228.1-7.067a9.584,9.584,0,0,1,.6-3.246A5.318,5.318,0,0,1,5.636,5.187,5.431,5.431,0,0,1,7.645,3.882a9.63,9.63,0,0,1,3.246-.6c1.845-.082,2.4-.1,7.067-.1s5.228.021,7.067.1a9.589,9.589,0,0,1,3.246.6,5.38,5.38,0,0,1,2.009,1.305A5.438,5.438,0,0,1,31.587,7.2a9.628,9.628,0,0,1,.6,3.246c.082,1.845.1,2.4.1,7.067s-.021,5.215-.1,7.06Zm0,0" transform="translate(-0.449 0)" fill="#25577d"/>
  <path id="Path_381" data-name="Path 381" d="M133.936,124.5a8.987,8.987,0,1,0,8.987,8.987A8.99,8.99,0,0,0,133.936,124.5Zm0,14.817a5.83,5.83,0,1,1,5.83-5.83,5.831,5.831,0,0,1-5.83,5.83Zm0,0" transform="translate(-116.44 -115.991)" fill="#25577d"/>
  <path id="Path_382" data-name="Path 382" d="M366.646,90.7a2.1,2.1,0,1,1-2.1-2.1A2.1,2.1,0,0,1,366.646,90.7Zm0,0" transform="translate(-337.709 -82.546)" fill="#25577d"/>
</svg>
