<svg id="linkedin" xmlns="http://www.w3.org/2000/svg" width="36.591" height="34.975" viewBox="0 0 36.591 34.975">
  <path id="Path_383" data-name="Path 383" d="M4.437-.668C1.754-.668,0,1.094,0,3.41A4.06,4.06,0,0,0,4.334,7.486h.051A4.09,4.09,0,1,0,4.437-.668Zm0,0" transform="translate(0 0.668)" fill="#25577d"/>
  <path id="Path_384" data-name="Path 384" d="M8.109,198.313h7.844v23.6H8.109Zm0,0" transform="translate(-7.646 -186.937)" fill="#25577d"/>
  <path id="Path_385" data-name="Path 385" d="M236.128,188.625c-4.231,0-7.069,3.976-7.069,3.976v-3.422h-7.844v23.6h7.844V199.6a5.376,5.376,0,0,1,.258-1.914,4.294,4.294,0,0,1,4.024-2.868c2.838,0,3.974,2.164,3.974,5.336v12.624h7.843V199.246c0-7.248-3.87-10.621-9.03-10.621Zm0,0" transform="translate(-208.568 -177.803)" fill="#25577d"/>
</svg>
