<svg xmlns="http://www.w3.org/2000/svg" width="1875.714" height="794" viewBox="0 0 1875.714 794">
  <g id="Red_Section_Contact_Us" data-name="Red Section Contact Us" transform="translate(-44.769 -4696)">
    <path id="Path_485" data-name="Path 485" d="M3014,4324s52,195.21-177.636,232.634-581.818-229.375-1112.121-114.687S1369.7,5118,1369.7,5118H3217V4324Z" transform="translate(-1297 372)" fill="#fcb2b2"/>
    <path id="Path_486" data-name="Path 486" d="M3014,4324s52,195.21-177.636,232.634-581.818-229.375-1112.121-114.687S1369.7,5118,1369.7,5118H3143V4324Z" transform="translate(-1223 372)" fill="#f87e7d"/>
    <g id="Group_134" data-name="Group 134" transform="translate(57.155 47.119)" opacity="0.09">
      <g id="Group_70" data-name="Group 70" transform="translate(1642.37 5221.516)">
        <path id="Path_398" data-name="Path 398" d="M0,0H220.957L0,220.957Z" fill="#fff"/>
      </g>
      <g id="Group_70-2" data-name="Group 70" transform="translate(1421.135 5000.881)">
        <path id="Path_398-2" data-name="Path 398" d="M0,0H220.957L0,220.957Z" transform="translate(0)" fill="#fff"/>
        <path id="Path_399" data-name="Path 399" d="M0,0H220.957L0,220.957Z" transform="translate(0 220.957)" fill="#fff"/>
        <path id="Path_397" data-name="Path 397" d="M0,0H220.957L0,220.957Z" transform="translate(220.957)" fill="#fff"/>
      </g>
    </g>
  </g>
</svg>
