<svg xmlns="http://www.w3.org/2000/svg" width="1922.787" height="767.109" viewBox="0 0 1922.787 767.109">
  <g id="Resources_Header" data-name="Resources Header" transform="translate(1 3.758)">
    <path id="Path_643" data-name="Path 643" d="M8857,134.85s166.061,124.241,960,127.271,960-127.273,960-127.273l1.787-510.606L8857-372Z" transform="translate(-8857 372)" fill="#f9db7d"/>
    <g id="Group_86" data-name="Group 86" transform="translate(-5264.201 -630.581)" opacity="0.09">
      <g id="Group_70" data-name="Group 70" transform="translate(6869.201 630.581)">
        <path id="Path_398" data-name="Path 398" d="M0,0H314.79L0,314.79Z" transform="translate(0)" fill="#fff"/>
        <path id="Path_399" data-name="Path 399" d="M0,0H314.79L0,314.79Z" transform="translate(0 314.79)" fill="#fff"/>
      </g>
    </g>
    <g id="Layer_2" data-name="Layer 2" transform="translate(-1 573.996)">
      <g id="Layer_1" data-name="Layer 1" transform="translate(0 0.004)">
        <path id="Path_841" data-name="Path 841" d="M451.82,153.6q-58.67-4.63-117.16-10.562-24.43-2.521-48.79-5.344l-5.45-.655q-37.22-4.462-74.18-10.083A125.808,125.808,0,0,1,185.07,93.6l-.24-.546q13.51,2.42,27,4.705c34.33,5.882,68.85,10.6,103.48,14.713l-.66.42c-1.22.79-2.44,1.6-3.65,2.4,2.6-.84,5.21-1.681,7.8-2.412l5.74.672c26.51,3.059,53.09,5.764,79.7,8.327q6.44.622,12.88,1.218c12.72,8.982,23.48,19.889,34.5,30.308Z" transform="translate(0 -14.868)" fill="#f9db7d"/>
        <path id="Path_842" data-name="Path 842" d="M206.24,117.538q-27.39-4.2-54.61-9.125-8-1.454-15.93-2.974c-31.91-6.117-63.7-12.789-94.9-21.2C26.8,80.474,13.32,76.172,0,71.5V34c8.61,3.63,17.23,7.218,26.09,10.385,32.46,11.6,66.34,20.477,100.68,27.9,19.27,4.2,38.68,7.873,58.06,11.335l.24.546A125.45,125.45,0,0,0,206.24,117.538Z" transform="translate(0 -5.435)" fill="#f9db7d"/>
        <path id="Path_843" data-name="Path 843" d="M318.81,116.592c-2.59.739-5.2,1.538-7.8,2.412,1.21-.84,2.43-1.613,3.65-2.4l.66-.42Z" transform="translate(0 -18.563)" fill="#f9db7d"/>
        <path id="Path_844" data-name="Path 844" d="M1130.25,155.914c-13.91,6.722-27.84,13.284-42.21,18.813-5.61,2.159-11.35,4.2-17.2,6.075h0q-48.39.63-96.78.7-37,.05-74-.235-79.2-.6-158.42-2.764l-13.47-.387a31.706,31.706,0,0,1,.71-3.143h0a42.611,42.611,0,0,1,5.48-11.982c.53-.84,1.09-1.613,1.67-2.4l-.06.1c.17-.244.35-.487.53-.723s.37-.487.56-.723c.78-.328,1.57-.647,2.36-.949,4.73-1.84,9.67-3.512,14.74-5.042h0q21.95.681,43.88,1.2,31.05.739,62.08,1.26h0q36.23.622,72.45.916h0Q1031.43,157.493,1130.25,155.914Z" transform="translate(0 -24.485)" fill="#f9db7d"/>
        <path id="Path_845" data-name="Path 845" d="M741.22,148.957q6.46.21,12.93.412c-5.07,1.5-10,3.168-14.74,5.041-.79.3-1.58.622-2.36.949-.19.235-.38.479-.56.723s-.36.479-.53.723l.04-.1c-.58.79-1.14,1.588-1.67,2.4a42.609,42.609,0,0,0-5.48,11.982h0a31.724,31.724,0,0,0-.71,3.143q-10.46-.3-20.92-.664-59.6-1.966-119.1-5.176l-4.81-.269q-29.48-1.613-58.92-3.537-36.31-2.386-72.58-5.252l-.19-.176c-11-10.419-21.78-21.326-34.5-30.308q33.69,3.151,67.46,5.84,126.24,10.083,253.06,14.167Z" transform="translate(0 -20.587)" fill="#f9db7d"/>
        <path id="Path_846" data-name="Path 846" d="M1533.68,154.085c-126.74,12.839-254.32,19.653-381.91,22.535q-27.63.613-55.24,1.067c18.55-8.881,37-17.939,56.52-24.922h0q20.75-.395,41.47-.907,33.63-.84,67.24-2.033h0q53.51-1.9,107-4.848,64.38-3.579,128.61-8.907h0a125.084,125.084,0,0,1,25.41,10.923,108.731,108.731,0,0,1,10.9,7.092Z" transform="translate(0 -21.741)" fill="#f9db7d"/>
        <path id="Path_847" data-name="Path 847" d="M1130.25,156.343q11.4-.176,22.8-.4c-19.51,6.982-38,16.04-56.52,24.922h0q-12.84.2-25.68.37c5.85-1.857,11.59-3.916,17.2-6.075C1102.41,169.628,1116.34,163.023,1130.25,156.343Z" transform="translate(0 -24.915)" fill="#f9db7d"/>
        <path id="Path_848" data-name="Path 848" d="M1746.14,119.5c-33,6.251-66.19,11.545-99.52,16.15q-10.5,1.462-21,2.815h0q-19.81,2.571-39.7,4.857c-2-2.521-4-4.983-6.24-7.319a95.035,95.035,0,0,0-13.13-11.427q14.13-1.42,28.25-2.949,23.64-2.521,47.17-5.453,9.12-1.118,18.22-2.311,34-4.42,67.76-9.823a180.166,180.166,0,0,1,14.22,11.9C1743.44,117.114,1744.77,118.291,1746.14,119.5Z" transform="translate(0 -16.624)" fill="#f9db7d"/>
        <path id="Path_849" data-name="Path 849" d="M1579.65,139.9c2.23,2.336,4.24,4.823,6.24,7.319q-13,1.512-25.94,2.907t-26.27,2.739a108.7,108.7,0,0,0-10.91-7.109,125.088,125.088,0,0,0-25.41-10.923q34.62-2.9,69.16-6.378a95.015,95.015,0,0,1,13.13,11.444Z" transform="translate(0 -20.525)" fill="#f9db7d"/>
        <path id="Path_850" data-name="Path 850" d="M1922,50.53V61.739c-7.46,3.2-15.16,6.109-22.51,9.016q-20.522,7.914-41.92,14.049l-4.75,1.412q-9.52,2.773-19.15,5.31c-11.94,3.168-24,6.083-36.09,8.823h0c-.29-.16-.58-.336-.86-.513-.43-.26-.86-.521-1.29-.84s-.69-.42-1-.647c-.91-.588-1.8-1.193-2.68-1.807-.41-.277-.82-.563-1.22-.84-1.61-1.16-3.19-2.37-4.75-3.613-.39-.3-.78-.613-1.16-.941-1.84-1.5-3.66-3.042-5.47-4.6,3.1-.588,6.19-1.185,9.29-1.79,18.94-3.705,37.82-7.7,56.52-12.184q11.79-2.832,23.49-5.949,5.13-1.378,10.22-2.8C1893,59.8,1907.67,55.5,1922,50.53Z" transform="translate(0 -8.076)" fill="#f9db7d"/>
        <path id="Path_851" data-name="Path 851" d="M1797.57,107.164q-19.14,4.319-38.43,8.108-6.5,1.286-13,2.521c-1.37-1.193-2.7-2.386-4-3.563a180.01,180.01,0,0,0-14.22-11.932q25.66-4.126,51.19-8.949c1.81,1.554,3.63,3.092,5.47,4.6.38.328.77.639,1.16.941,1.56,1.244,3.14,2.454,4.75,3.613.4.3.81.588,1.22.84.88.613,1.77,1.218,2.68,1.807.34.227.68.445,1,.647s.86.538,1.29.84C1797,106.828,1797.28,107,1797.57,107.164Z" transform="translate(0 -14.916)" fill="#f9db7d"/>
        <path id="Path_852" data-name="Path 852" d="M272.58,152.456l.15-.076h0Z" transform="translate(0 -24.346)" fill="#f27d7d"/>
        <path id="Path_853" data-name="Path 853" d="M285.87,146.057l-1.59,1.21q-2.46,1.849-5,3.672c-5.75,1.681-11.15,3.134-15.53,4.319l.62-.227a60.24,60.24,0,0,0,6.77-2.975l1-.5h0c.6-.445,1.28-.933,1.66-1.168l3.78-2.874,2.8-2.1Z" transform="translate(0 -23.233)" fill="#fcb2b2"/>
        <path id="Path_854" data-name="Path 854" d="M344.65,109.69l-.74.168a117.45,117.45,0,0,0-19.36,6.369l-5.74-.672A251.637,251.637,0,0,1,344.65,109.69Z" transform="translate(0 -17.526)" fill="#fcb2b2"/>
        <path id="Path_855" data-name="Path 855" d="M272.73,152.38h.09Z" transform="translate(0 -24.346)" fill="#f27d7d"/>
        <path id="Path_856" data-name="Path 856" d="M744.79,147.29q-1.92,2.37-3.57,4.613c-2,2.748-3.74,5.344-5.2,7.713-.58.79-1.14,1.588-1.67,2.4A42.608,42.608,0,0,0,728.87,174h0a31.723,31.723,0,0,0-.71,3.143,34.827,34.827,0,0,0-.14,11.839c.22,1.386-3,3.479-4,4.386-3.64,3.1-7.59,5.957-11.54,8.772s-8,5.529-12.19,7.966l-.1.059c-.76.42-5.75,3.168-5.84,2.58-2.16-13.637,3.59-25.7,12.93-36.265,8.32-9.428,19.49-17.645,30.42-24.712C740.05,150.231,742.44,148.727,744.79,147.29Z" transform="translate(0 -23.533)" fill="#f87e7d"/>
        <path id="Path_857" data-name="Path 857" d="M1240.71,143.033a120.121,120.121,0,0,0-14.3-2.319,140.973,140.973,0,0,0-40,2.134,219.978,219.978,0,0,0-33.34,9.243h0c-19.51,6.982-38,16.04-56.52,24.922h0c-3.65,1.739-7.29,3.479-11,5.184-35.34,3.949-55.55,4.823-67.08,4.437h-.81c18.2,0,36.11-3.815,53.15-9.243h0c5.85-1.857,11.59-3.916,17.2-6.075,14.37-5.529,28.3-12.133,42.21-18.813,15-7.193,30-14.469,45.46-20.6C1199.26,133.665,1228.21,140.059,1240.71,143.033Z" transform="translate(0 -21.075)" fill="#f87e7d"/>
        <path id="Path_858" data-name="Path 858" d="M1598.81,166.76a25.016,25.016,0,0,0,2.61,1.681,15.094,15.094,0,0,1-2.62-1.681Z" transform="translate(0 -26.643)" fill="#f27d7d"/>
        <path id="Path_859" data-name="Path 859" d="M1625.6,144.465q10.53-1.361,21-2.815c-5.51,8.335-11.67,16.276-19.82,23.031q-1,.84-2.1,1.68a40.249,40.249,0,0,1-13.62.84c1.46-2.117,2.86-4.268,4.23-6.42,3.47-5.462,6.81-10.923,10.28-16.385Z" transform="translate(0 -22.632)" fill="#fcb2b2"/>
        <path id="Path_860" data-name="Path 860" d="M1676.37,92.71l-.9.294c-.63.21-1.26.437-1.89.672-.51.571-1,1.151-1.49,1.739a139.021,139.021,0,0,0-8.66,11.629c-1.12,1.681-2.2,3.361-3.27,5.041q-9.11,1.193-18.22,2.311a107.746,107.746,0,0,1,9.94-9.923q3.88-3.361,8-6.663-2.17,1.739-4.31,3.521a106.72,106.72,0,0,1,20.8-8.621Z" transform="translate(0 -14.814)" fill="#fcb2b2"/>
        <path id="Path_861" data-name="Path 861" d="M1662.09,95.721q3.32-2.588,6.77-5.041Q1665.43,93.15,1662.09,95.721Z" transform="translate(0 -14.49)" fill="#f27d7d"/>
        <path id="Path_862" data-name="Path 862" d="M1689.78,89.379h.16a1.82,1.82,0,0,0-.3,0Z" transform="translate(0 -14.281)" fill="#f27d7d"/>
        <path id="Path_863" data-name="Path 863" d="M1809.33,116.17a53.8,53.8,0,0,0,5.28,1.428,34.65,34.65,0,0,1-5.28-1.428Z" transform="translate(0 -18.562)" fill="#f27d7d"/>
        <path id="Path_864" data-name="Path 864" d="M1829.74,125.4q3.39-2.521,6.64-5.134Q1833.14,122.908,1829.74,125.4Z" transform="translate(0 -19.217)" fill="#f27d7d"/>
        <path id="Path_865" data-name="Path 865" d="M1852.82,92.736l4.75-1.386c-4.57,7.445-9.51,14.511-16.74,20.653-.92.781-1.86,1.571-2.81,2.336a89.55,89.55,0,0,1-14.15.445c3.42-5.512,6.55-11.184,9.8-16.738Q1843.29,95.476,1852.82,92.736Z" transform="translate(0 -14.597)" fill="#fcb2b2"/>
        <path id="Path_866" data-name="Path 866" d="M1902.76.79l-34.35,57.759q-11.69,3.126-23.49,5.949l24.66-41.475c1.42-2.386,4.69-4.395,7-6.218,4.1-3.269,8.45-6.31,12.86-9.243a90.294,90.294,0,0,1,10.65-6.52C1900.23.933,1903.87-1.066,1902.76.79Z" transform="translate(0 -0.004)" fill="#fcb2b2"/>
        <path id="Path_867" data-name="Path 867" d="M272.58,152.456l.15-.076h0Z" transform="translate(0 -24.346)" fill="#cc7171"/>
        <path id="Path_868" data-name="Path 868" d="M272.73,152.38h.09Z" transform="translate(0 -24.346)" fill="#cc7171"/>
        <path id="Path_869" data-name="Path 869" d="M279.32,128.48q-2.2,1.613-4.44,3.2c-11.77,8.36-24.12,16.713-37.87,22.687-9,3.932-19.44,6.571-29.68,5.041-11-1.68-19.32-8.05-26.65-14.7a117.155,117.155,0,0,1-20.1-23.477,132.667,132.667,0,0,1-9-17.46c-1.58-3.521-3.14-7.041-4.87-10.512a85.135,85.135,0,0,0-20-25.6C107.2,50.261,80.18,38.9,54.37,28.591c-.65-.26,3.6-4.008,4-4.386,3.64-3.1,7.59-5.957,11.54-8.772s8-5.571,12.29-8.033c.24-.134,4.65-3.05,5.84-2.58,20.31,8.117,40.81,16.511,58.54,28.274a109.734,109.734,0,0,1,22.46,19.233c7.07,8.159,11.51,17.284,15.69,26.67l.24.546A125.54,125.54,0,0,0,206.14,112.9a105.2,105.2,0,0,0,15.3,13.9c7.64,5.747,16.77,9.638,27.25,9.192.42,0,.84-.042,1.25-.076s.68-.05,1-.092.81-.084,1.22-.143.68-.084,1-.143h.06c.43-.059.86-.134,1.29-.218h.2c.85-.16,1.69-.336,2.53-.546s1.76-.445,2.63-.706c.44-.118.87-.252,1.3-.387l1.28-.42h0c.41-.134.82-.277,1.22-.429h0C268.17,131.605,273.57,130.16,279.32,128.48Z" transform="translate(0 -0.765)" fill="#f87e7d"/>
        <path id="Path_870" data-name="Path 870" d="M254.74,160.016c.85-.168,1.69-.344,2.53-.546C256.43,159.68,255.59,159.857,254.74,160.016Z" transform="translate(0 -25.479)" fill="#cc7171"/>
        <path id="Path_871" data-name="Path 871" d="M257.27,159.336c.89-.21,1.76-.445,2.63-.706C259,158.89,258.15,159.117,257.27,159.336Z" transform="translate(0 -25.345)" fill="#cc7171"/>
        <path id="Path_872" data-name="Path 872" d="M591.66,157.256c-1.09,1.084-2.29,2.126-3.53,3.134-1.94,1.58-4,3.084-6,4.546C570,174.027,556,184.614,539.56,187.58a78.182,78.182,0,0,1-30.86-.949c-23.52-5.336-41.17-20.46-56.88-35.29l-.19-.176c-11-10.419-21.78-21.326-34.5-30.308a117.124,117.124,0,0,0-12.82-7.932c-.9-.479-1.8-.933-2.71-1.37q-.87-.445-1.74-.84c-.91-.42-1.83-.84-2.76-1.218s-1.62-.672-2.45-.983c-.51-.2-1-.395-1.55-.58-1-.378-2.09-.739-3.14-1.076l-1-.319c-.61-.185-1.21-.37-1.83-.538-.38-.118-.76-.218-1.14-.319q-1.34-.37-2.7-.681c-.43-.109-.86-.21-1.29-.294-.86-.193-1.72-.37-2.59-.529-.44-.092-.87-.168-1.31-.235-.87-.16-1.74-.294-2.62-.412a83.93,83.93,0,0,0-16.13-.731,19.663,19.663,0,0,0-2.22.126h-.36l-1.29.109q-3.949.35-7.83,1.084l-.86.168a4.513,4.513,0,0,0-.49.1l-.68.134q-.48.084-1,.2a251.6,251.6,0,0,0-25.84,5.882c-2.59.739-5.2,1.538-7.8,2.411,1.21-.84,2.43-1.613,3.65-2.4l.66-.42c1-.664,2-1.311,3-1.949.67-.437,1.35-.84,2-1.294l2-1.269c17.75-11.016,37.25-21.846,59.24-25.544a88.359,88.359,0,0,1,57.74,9.722c17.57,9.663,31.06,23.367,44.84,36.45l.37.353c11.71,11.1,24.32,22.493,39.81,29.9a87.947,87.947,0,0,0,8.34,3.479,83.337,83.337,0,0,0,26.9,4.865,61.749,61.749,0,0,0,15.14-1.68,37.393,37.393,0,0,0,8.33-3.075c-1.26.781-4.82,3.084-11.62,8.159,3.85-2.848,7.83-5.571,11.9-8.184l.55-.353c1.88-1.193,5.83-4.437,8.5-4.7C594.42,154.878,592.35,156.558,591.66,157.256Z" transform="translate(0 -12.602)" fill="#f87e7d"/>
        <path id="Path_873" data-name="Path 873" d="M353.61,107.9l.58-.059Z" transform="translate(0 -17.231)" fill="#cc7171"/>
        <path id="Path_874" data-name="Path 874" d="M350.3,108.424l.88-.134Z" transform="translate(0 -17.303)" fill="#cc7171"/>
        <path id="Path_875" data-name="Path 875" d="M344.65,109.492c1.88-.42,3.77-.756,5.65-1.042-1.78.269-3.57.6-5.35.991Z" transform="translate(0 -17.328)" fill="#cc7171"/>
        <path id="Path_876" data-name="Path 876" d="M354.19,107.789c.91-.1,1.82-.193,2.73-.269h-.16C355.91,107.612,355.05,107.7,354.19,107.789Z" transform="translate(0 -17.18)" fill="#cc7171"/>
        <path id="Path_877" data-name="Path 877" d="M361.58,107.26Z" transform="translate(0 -17.138)" fill="#cc7171"/>
        <path id="Path_878" data-name="Path 878" d="M357.1,107.47c1.5-.109,3-.176,4.48-.21-1.49,0-3,.1-4.49.218Z" transform="translate(0 -17.138)" fill="#cc7171"/>
        <path id="Path_879" data-name="Path 879" d="M351.18,108.229c.81-.118,1.62-.227,2.43-.319C352.8,107.986,352,108.112,351.18,108.229Z" transform="translate(0 -17.242)" fill="#cc7171"/>
        <path id="Path_880" data-name="Path 880" d="M372.43,107.764l-1.34-.134Z" transform="translate(0 -17.197)" fill="#cc7171"/>
        <path id="Path_881" data-name="Path 881" d="M357.12,107.5h0Z" transform="translate(0 -17.177)" fill="#cc7171"/>
        <path id="Path_882" data-name="Path 882" d="M375.47,108.151c-1-.143-2-.26-3-.361C373.44,107.891,374.46,108.008,375.47,108.151Z" transform="translate(0 -17.223)" fill="#cc7171"/>
        <path id="Path_883" data-name="Path 883" d="M371.09,107.595c-.83-.076-1.66-.134-2.5-.185C369.43,107.46,370.26,107.519,371.09,107.595Z" transform="translate(0 -17.162)" fill="#cc7171"/>
        <path id="Path_884" data-name="Path 884" d="M368.59,107.392c-.64,0-1.29-.067-1.94-.092C367.3,107.325,368,107.35,368.59,107.392Z" transform="translate(0 -17.145)" fill="#cc7171"/>
        <path id="Path_885" data-name="Path 885" d="M365.78,107.265h-3.76C363.28,107.232,364.53,107.232,365.78,107.265Z" transform="translate(0 -17.135)" fill="#cc7171"/>
        <path id="Path_886" data-name="Path 886" d="M366.65,107.3h0Z" transform="translate(0 -17.145)" fill="#cc7171"/>
        <path id="Path_887" data-name="Path 887" d="M932.58,150.561q-36.23-.3-72.45-.916h0a113.064,113.064,0,0,0-47.25-10.856,204.743,204.743,0,0,0-58.71,8.4h0c-5.07,1.5-10,3.168-14.74,5.042-.79.3-1.58.622-2.36.949-.19.235-.38.479-.56.723s-.32.412-.47.622c1.46-2.37,3.18-4.966,5.2-7.713q1.65-2.243,3.57-4.613l.6-.37,2.28-1.395,1.13-.681c23.67-14.284,52.48-21.435,81.26-23.981,25.27-2.235,48.93,1.613,70.27,13.352C911.84,135.42,922.18,143.033,932.58,150.561Z" transform="translate(0 -18.402)" fill="#fcb2b2"/>
        <path id="Path_888" data-name="Path 888" d="M1085.57,190.946l-3.81,1.773q-4.42,2.042-8.88,4.008c-1.41.63-2.83,1.244-4.26,1.857-.6.252-1.19.513-1.79.756a3.148,3.148,0,0,1-.35.151c-.82.353-1.64.7-2.47,1.034-1.32.555-2.65,1.092-4,1.63q-4.33,1.739-8.72,3.361c-22,8.041-45.66,14.057-69.82,13.629-22-.387-41.87-7.058-59.58-17.746-7.61-4.6-14.77-9.663-21.86-14.788q37,.286,74,.235a112.8,112.8,0,0,0,39.47,8.495c1.4.042,2.79.059,4.18.059h.81C1030,195.769,1050.23,194.895,1085.57,190.946Z" transform="translate(0 -29.814)" fill="#fcb2b2"/>
        <path id="Path_889" data-name="Path 889" d="M736.49,161.22c-.18.235-.36.479-.53.723l.04-.067C736.17,161.632,736.33,161.43,736.49,161.22Z" transform="translate(0 -25.758)" fill="#cc7171"/>
        <path id="Path_890" data-name="Path 890" d="M1369.82,140.145s-.46.538-1.08,1.218q-53.45,2.974-107,4.848h0l-1.28-.445-2.27-.765c-2.27-.748-4.55-1.47-6.85-2.143-.73-.227-1.47-.437-2.21-.639s-1.47-.412-2.21-.6h-.17q-1.5-.391-3-.756c-1-.244-2-.479-3-.7h-.08c-12.5-2.974-41.45-9.386-65-11.133l3.45-1.344,3-1.143c1.08-.4,2.18-.84,3.27-1.193q3-1.059,6-2.05c1.12-.37,2.25-.731,3.38-1.084l2.43-.739c.62-.193,1.25-.378,1.87-.555s1.54-.445,2.31-.655c1.29-.361,2.58-.706,3.88-1.042l1.25-.319c.62-.16,1.23-.311,1.85-.454q3.52-.84,7.09-1.571l.71-.143c1.43-.286,2.87-.555,4.31-.84l1.54-.26,2.61-.412c1-.143,1.92-.277,2.89-.4l.46-.059c.67-.092,1.35-.176,2-.252a136.831,136.831,0,0,1,36.92.4c12.12,1.891,23.62,5.739,34.88,9.848C1323.49,132.608,1345.56,142.061,1369.82,140.145Z" transform="translate(0 -18.127)" fill="#fcb2b2"/>
        <path id="Path_891" data-name="Path 891" d="M1624.7,159.855l-.16.126c-.81.655-1.63,1.311-2.46,1.958l-.89.706-2.32,1.781-.78.58c-.88.664-1.77,1.328-2.66,1.975l-.48.353-3,2.1-1.65,1.143-1.73,1.168-1.61,1.067c-1.59,1.042-3.19,2.067-4.81,3.059l-1.15.706c-.86.529-1.73,1.042-2.6,1.554-4.56,2.68-9.52,5.436-15.11,6.26-9.54,1.42-17.29-2.781-23.29-8.755s-10.55-13.083-16.74-19.074a94.535,94.535,0,0,0-9.62-8.134,108.7,108.7,0,0,0-10.91-7.109,125.085,125.085,0,0,0-25.41-10.923h0c-26.14-8.008-55.6-8.184-81.39,1.109-2.27.84.41-1.874.71-2.185a90.262,90.262,0,0,1,9.49-7.688c6.4-4.789,13.65-10.848,21.62-13.721,36.84-13.268,81.33-7.865,113.16,12.31q2.86,1.815,5.58,3.8a95.038,95.038,0,0,1,13.13,11.427c2.23,2.336,4.24,4.823,6.24,7.319a84.474,84.474,0,0,0,10.2,11.285c.43.378.88.748,1.33,1.092s.92.714,1.39,1.042h0a15.1,15.1,0,0,0,2.62,1.68l.12.067c.49.269,1,.529,1.51.765q.938.463,1.93.84l.2.067q.274.11.56.193c.23.084.46.151.7.218l.72.2a19.091,19.091,0,0,0,3.88.6v-.067A40.237,40.237,0,0,0,1624.7,159.855Z" transform="translate(0 -16.083)" fill="#f87e7d"/>
        <path id="Path_892" data-name="Path 892" d="M1601.78,168.978c.42.227.84.437,1.27.647-.51-.235-1-.5-1.51-.765Z" transform="translate(0 -26.979)" fill="#cc7171"/>
        <path id="Path_893" data-name="Path 893" d="M1603.05,169.74c.63.294,1.27.563,1.93.84q-.991-.377-1.93-.84Z" transform="translate(0 -27.119)" fill="#cc7171"/>
        <path id="Path_894" data-name="Path 894" d="M1838,109.422l-1.64,1.336q-3.24,2.613-6.64,5.134c-3.31,2.437-6.73,4.8-10.24,7.016-.68.437-1.36.84-2,1.277q-.67.42-1.35.84l-1.21.714-1.71.983c-.51.294-1,.58-1.54.84-.76.412-1.52.84-2.28,1.218a39.652,39.652,0,0,1-16.5,4.823c-19,1.042-34.26-10.083-46.72-21.006-1.37-1.193-2.7-2.386-4-3.563a180.06,180.06,0,0,0-14.25-11.948c-10.08-7.369-21.58-12.923-35.85-12.452h-1.06l-.92.059h-.61a13.358,13.358,0,0,0-1.64.168h0c-.54.067-1.08.134-1.61.227s-1.09.168-1.62.269-1.08.2-1.62.319-1.06.235-1.6.37-1.06.252-1.58.4-1,.286-1.57.437-1.17.353-1.76.538h-.09a106.772,106.772,0,0,0-20.79,8.587q2.13-1.781,4.31-3.521c.73-.58,1.46-1.16,2.2-1.731q3.33-2.571,6.77-5.042c1.66-1.193,3.33-2.361,5-3.521l1.79-1.2q3.3-2.2,6.68-4.285c.44-.277.88-.538,1.32-.84.74-.462,1.49-.907,2.24-1.353s1.39-.84,2.09-1.218,1.47-.84,2.21-1.26c.92-.521,1.84-1.034,2.77-1.538,8.34-4.529,17.48-8.218,27.39-9.377a58.172,58.172,0,0,1,6.7-.395h1.81a28.738,28.738,0,0,1,2.87.176q.271.013.54.05,2.017.194,4,.571l.5.092q2.179.413,4.29,1.034.53.134,1,.3l.58.185.64.218a1.643,1.643,0,0,1,.29.1q.36.118.72.252c1.26.445,2.48.941,3.69,1.487.44.193.88.4,1.32.613.25.118.5.235.74.361l.92.462c.54.269,1.07.555,1.6.84s.78.429,1.16.655.91.529,1.36.84l1.11.689c1.47.924,2.91,1.907,4.33,2.932l1.05.765c.9.664,1.8,1.344,2.68,2.05l1.17.924c.84.664,1.67,1.344,2.49,2.033l1.23,1.034,1.23,1.042c.82.7,1.63,1.4,2.45,2.109l.33.286,2.11,1.84,3.78,3.285c1.81,1.554,3.63,3.092,5.47,4.6.38.328.77.639,1.16.941,1.55,1.252,3.14,2.462,4.75,3.613.4.3.81.588,1.22.84.88.613,1.77,1.218,2.68,1.807.34.227.68.445,1,.647s.86.538,1.29.84c.28.176.57.353.86.513h0c.14.092.28.168.42.244.43.26.87.5,1.31.731s.88.479,1.32.7c.89.462,1.79.907,2.71,1.319.45.218.91.42,1.38.613l1.41.58q1.41.563,2.88,1.059l.2.076h.12a34.644,34.644,0,0,0,5.28,1.428l.33.067c.33.084.67.151,1,.21s.9.176,1.36.252a42.112,42.112,0,0,0,6.56.6,89.594,89.594,0,0,0,14.23-.21Z" transform="translate(0 -9.705)" fill="#f87e7d"/>
        <path id="Path_895" data-name="Path 895" d="M1676.46,92.568c.59-.185,1.17-.37,1.76-.538-.52.151-1,.311-1.55.479Z" transform="translate(0 -14.705)" fill="#cc7171"/>
        <path id="Path_896" data-name="Path 896" d="M1790.49,103.593c-1.61-1.151-3.2-2.361-4.75-3.613C1787.3,101.224,1788.88,102.434,1790.49,103.593Z" transform="translate(0 -15.975)" fill="#cc7171"/>
        <path id="Path_897" data-name="Path 897" d="M1800.63,111.78c.89.462,1.79.9,2.71,1.319C1802.42,112.687,1801.52,112.242,1800.63,111.78Z" transform="translate(0 -17.86)" fill="#cc7171"/>
        <path id="Path_898" data-name="Path 898" d="M1806.13,114.77c.94.37,1.9.723,2.88,1.05h0Q1807.54,115.341,1806.13,114.77Z" transform="translate(0 -18.338)" fill="#cc7171"/>
      </g>
    </g>
  </g>
</svg>
