<?xml version="1.0" encoding="utf-8"?>
<!-- Generator: Adobe Illustrator 23.0.3, SVG Export Plug-In . SVG Version: 6.00 Build 0)  -->
<svg version="1.1" id="Layer_1" xmlns="http://www.w3.org/2000/svg" xmlns:xlink="http://www.w3.org/1999/xlink" x="0px" y="0px"
	 viewBox="0 0 904.7 495" style="enable-background:new 0 0 904.7 495;" xml:space="preserve">
<style type="text/css">
	.st0{opacity:0.15;fill:#DA97A6;enable-background:new    ;}
	.st1{fill:none;}
	.st2{fill:#BA7B6B;}
	.st3{fill:#242C42;}
	.st4{fill:#C65474;}
	.st5{fill:#EDBCBD;}
	.st6{fill:#E07E93;}
	.st7{fill:#D56B7E;}
	.st8{fill:#AF2C4C;}
	.st9{fill:#D3728C;}
	.st10{fill:#E5B0B1;}
	.st11{fill:#F5EBEA;}
	.st12{fill:#C65D74;}
	.st13{fill:#C9667B;}
	.st14{fill:#D6A3A4;}
	.st15{fill:#548363;}
	.st16{fill:#548364;}
	.st17{fill:#DA97A6;}
	.st18{fill:#5C4C4B;}
	.st19{fill:#CB919E;}
	.st20{fill:#A19F9F;}
	.st21{fill:#F4D1D9;}
	.st22{fill:#262220;}
	.st23{fill:#63504A;}
	.st24{fill:#EAB4C0;}
	.st25{fill:#E9B4BF;}
	.st26{fill:#5C4943;}
	.st27{fill:#E9B4C0;}
	.st28{fill:#7C6063;}
	.st29{fill:#F9F4F3;}
	.st30{fill:#B66069;}
	.st31{fill:#4F413D;}
	.st32{fill:#282321;}
	.st33{fill:#2A2523;}
	.st34{fill:#231E1C;}
	.st35{fill:#221D1B;}
	.st36{fill:#F1E5E1;}
	.st37{fill:#EF9341;}
	.st38{fill:#C58778;}
	.st39{fill:#B87A6A;}
	.st40{fill:#7A519E;}
	.st41{fill:#B66174;}
	.st42{fill:#C98F80;}
	.st43{fill:#C28B7D;}
	.st44{fill:#92675C;}
	.st45{fill:#CD988A;}
	.st46{fill:#CD536A;}
	.st47{fill:#AE6F5F;}
	.st48{fill:#25211F;}
	.st49{fill:#26211F;}
	.st50{fill:#2D2624;}
	.st51{fill:#312826;}
	.st52{fill:#282425;}
	.st53{fill:#444444;}
	.st54{fill:#B57761;}
	.st55{fill:#F6F0F0;}
	.st56{fill:#ECB6B2;}
	.st57{fill:#ECD8DA;}
	.st58{fill:#DC9791;}
	.st59{fill:#BCA5A4;}
	.st60{fill:#B9646D;}
	.st61{fill:#578464;}
	.st62{fill:#282424;}
	.st63{fill:#272424;}
	.st64{fill:#FAF1F3;}
	.st65{fill:#EDE3E3;}
	.st66{fill:#EBC3CC;}
	.st67{fill:#BB7F70;}
	.st68{fill:#9C4051;}
	.st69{fill:#A76859;}
	.st70{fill:#292321;}
	.st71{fill:#272220;}
	.st72{fill:#2B2523;}
	.st73{fill:#2E2624;}
	.st74{fill:#495A5B;}
	.st75{fill:#211E1D;}
	.st76{fill:#F6ECE5;}
	.st77{fill:#EAA7B1;}
	.st78{fill:#374745;}
	.st79{fill:#EDCCBC;}
	.st80{fill:#384549;}
	.st81{fill:#292828;}
	.st82{fill:#2E3A3D;}
	.st83{fill:#E8C6BA;}
	.st84{fill:#E1BBA1;}
	.st85{fill:#DBB69D;}
	.st86{fill:#CD546A;}
	.st87{fill:#DAB093;}
	.st88{fill:#2B2624;}
	.st89{fill:#2A2624;}
	.st90{fill:#322D2A;}
	.st91{fill:#2F2927;}
	.st92{fill:#B47565;}
	.st93{fill:#233B3F;}
	.st94{fill:#222C51;}
	.st95{fill:#ECE3E2;}
	.st96{fill:#72332E;}
	.st97{fill:#F4BD76;}
	.st98{fill:#BB7E70;}
	.st99{fill:#DECDCC;}
	.st100{fill:#B47667;}
	.st101{fill:#B37668;}
	.st102{fill:#2C3253;}
	.st103{fill:#BB7C6C;}
	.st104{fill:#6B535E;}
	.st105{fill:#755A61;}
	.st106{fill:#B2776A;}
	.st107{fill:#DB96BE;}
	.st108{fill:#AA6B5C;}
	.st109{fill:#633D39;}
	.st110{fill:#633E39;}
	.st111{fill:#58423F;}
	.st112{fill:#57423F;}
	.st113{fill:#B7924F;}
	.st114{fill:#F4DAD9;}
	.st115{fill:#EFD0D0;}
	.st116{fill:#DA98A6;}
	.st117{fill:#F0CCCA;}
	.st118{fill:#F4D5D4;}
	.st119{fill:#F3D4CA;}
	.st120{fill:#F0CCC9;}
	.st121{fill:#ECC8C6;}
	.st122{fill:#CE546B;}
	.st123{fill:#E8BEBB;}
	.st124{fill:#DDC0A2;}
	.st125{fill:#3FA1BA;}
	.st126{fill:#42A2BA;}
	.st127{fill:#939393;}
</style>
<g id="Shadow" transform="translate(2.242 436.881)">
	<path id="Path_16" class="st0" d="M42.4,30.6c-2.6,14.3,49,9.5,57.3,11.7c8.2,2.2,15.7,7,23.8,9.6c15.1,4.8,31.3,1.9,47-0.2
		c30.1-4,60.5-4.8,90.8-5.7c32.1-0.9,64.7-1.7,96,5.5c13,3,25.9,7.3,39.2,6.4c11.4-0.8,22-5.6,33.1-8.3c21.1-5.2,43.6-4.4,64.2,1.3
		c20.6,5.7,42.9,3.4,61.6-7.1c3.3-1.9,6.6-4,10.4-4c2.4,0.1,4.7,0.6,7,1.5c25.1,8.5,52.5,12.7,78.2,6.4c7.9-1.9,15.7-4.8,23.8-5.9
		c8.6-1.1,17.3-0.2,25.9,0.7l58.8,6.5c16.8,1.9,34.3,3.5,51-0.1c8.4-1.9,14.8-6.7,22.6-9.3c7.8-2.6,17.4-2,25.8-2.5
		c6.3-0.4,14.2-2.1,15.6-8.3c1.7-8.2-9.4-12.4-17.7-13.1c-10.2,0-18.6-4.1-28.7-5.5s-20.3-0.8-30.4,0.2c-20.1,2-40.1,6.7-60.5,5.7
		c-18.4-0.9-36.3-6.6-54.7-6.7c-24.4-0.1-47.9,9.5-72.3,10.1C572.4,20.4,539.7-0.6,501.5,0c-11.9,0.2-23.7,2.8-35.3,5.3
		c-21.5,4.7-42,11.3-64.1,8.6C383.3,11.6,365,5.6,346,3.9c-28.9-2.6-57.6,4.8-86.5,7.5c-39.5,3.6-79.1-1.8-118.6-1
		c-21.3,0.4-42.8,1.3-63.7,5.7C69.7,17.6,44.1,21,42.4,30.6z"/>
</g>
<g>
	<path id="Path_17" class="st1" d="M768.8,18.9c0.1,0.1,0.1,0.1,0.2,0.2L768.8,18.9z"/>
	<path id="Path_18_1_" class="st2" d="M750.6,26.7c5.3-4.1,11.5-6.7,18.1-7.7l0,0l0.2,0.2c0.2,0.4-0.3,0.5-0.5,0.7
		c-1.5,1-2.8,2.3-3.9,3.7c-4.1,5-6.9,10.6-6.8,17.3c0.1,4.9,1.7,9.6,3.5,14.1c-0.4-0.1-0.8-0.2-1.2-0.3c-2.2-0.2-4.2,0.1-5.6,2.1
		c-1.2,1.8-0.5,3.7,0.4,5.3c1.6,2.9,4.3,5,7.5,5.8c1.1,0.3,2.3,0.4,3,1.8c1.4,2.8,3,5.5,5,7.9c-0.5,2.8-1.2,5.6-2.1,8.3
		c-1.9-0.5-3.9-0.8-5.9-0.9c-2.4,0-2.9,0.3-3.3,2.6c-1.7,9.1-4.1,18.1-7.2,26.8c-2.3,6-3.5,12.4-3.5,18.9c0,1.5,0.6,3,0.2,4.5l0,0
		c-6.9,1.1-6.8-0.6-13.7,0.7c-3.9,0.8-5.6-0.9-6.2-4.9C741.4,32.7,750.6,26.7,750.6,26.7z"/>
	<path id="Path_19" class="st3" d="M836.3,223.6L836.3,223.6c2.2,13.2,4.1,26.4,5.2,39.7c0.6,8.6,0.8,17.2,0.4,25.7
		c-0.4,8.2-1.6,16.3-3.6,24.2c-2.6,11.2-4.7,22.6-7.5,33.8c-1.8,7.5-3.7,14.9-4.9,22.5c-1.4,8.8-2.2,17.6-2.9,26.5
		c-0.9,10.7-2.1,21.4-3,32.2c-0.3,3.1-0.6,6.3-1.1,9.4c-0.1,0.7-0.3,1.4-0.6,2.1c-1.4,1.1-2.9,0.3-4.4,0.3
		c-5.4,0.3-10.8-0.5-15.8-2.4c-0.7-0.8-1.1-1.9-1-3c-0.5-11-1.3-22-1.7-33c-0.3-8.6,0-17.2,0.8-25.8c0.5-6,0.9-12.1,2.3-18
		c1.8-7.4,2.7-14.9,3.8-22.3c0.6-3.9,1-7.9,1.2-11.9c0.4-5.6,1.7-11.2,1.9-16.8c0.2-6.8,0.1-13.6-0.4-20.4c-0.5-5.6-0.7-11.2-1-16.8
		c-0.1-1.2-0.2-2.4-0.3-3.6c0.2-0.4,0.1-0.9-0.2-1.3c-0.6,1.7-0.8,3.5-0.6,5.3c-0.9,4.9-0.5,9.9-1.2,14.8c-1.4,10.1-3.2,20.1-5.2,30
		c-0.9,4.9-1.5,9.9-2.8,14.8c-2,7.1-3.1,14.4-5.1,21.5c-3.1,11-4.8,22.2-6.8,33.4c-0.8,4.6-0.7,9.3-0.9,13.9
		c-0.6,12.6-1.2,25.3-1.9,37.9c-0.1,1.6,0.1,3.3-1.3,4.6c-0.4,0.1-0.8,0.1-1.2,0c-5.5-1.9-11.3-2.6-16.8-4.3l0,0
		c-0.9-0.6-1.5-1.6-1.5-2.7c-0.9-7.7-2-15.4-2.4-23.1c-0.3-6.5-0.7-13.1-0.5-19.6c0.2-7.9,0.3-15.9,0.8-23.8
		c0.6-8.7,2.9-17.2,5.8-25.4c0.4-1.1,0.7-2.2,1.1-3.3c2.1-4.8,2.8-10.1,1.9-15.2c-1.1-7.5-1.5-14.9-2.5-22.4
		c-1.1-7.8-2.7-15.5-3.9-23.3c-1-6.5-1.9-13-2.2-19.6c-0.2-4.2-1-8.4-1.1-12.6c-0.1-2.3,0-4.6,0.2-6.9l0,0c0.7-0.8,1.6-0.5,2.4-0.4
		c2.4,0.4,4.8,0.6,7.2,0.4c3.9-0.4,7.9,0,11.8-0.1c5.3-0.1,10.6,0.4,15.9,0.7c2.8,0,5.6,0.2,8.3,0.5c0,0,0.1,0,0.1,0
		c2.4,0.4,4.7-1.2,5.1-3.6c1.1-4.5,1.8-9.1,2-13.8c0.2-4.9,0.3-9.8,0.5-14.7l0,0c5.7-0.6,11.1-2.7,17-2c1.1,0.1,2.2-0.3,3.1-0.9l0,0
		c0.6,1.8,1.2,3.6,1.8,5.3C832,214.9,834.8,219,836.3,223.6z"/>
	<path id="Path_20" class="st4" d="M831.7,140.4L831.7,140.4l-5.5,0.1c-0.5,0-1,0-1,0.7l0,0c-1.7-1.4-3.5-1-5.4-0.4
		c-2-0.3-4-0.2-6,0.1c-0.9,0.1-1.1,0.5-1.1,1.4c0,6-0.1,12-0.1,17.9c0,13.4-1.6,26.6-3.7,39.8c-0.4,2.6-1,5.2-0.5,7.9l0,0
		c-0.1,4.9-0.2,9.8-0.5,14.7c-0.2,4.6-0.9,9.3-2,13.8c0,0,0,0.1,0,0.1c-0.5,2.4-2.8,4-5.2,3.5c-2.8-0.3-5.5-0.5-8.3-0.5
		c-5.3-0.3-10.6-0.8-15.9-0.7c-3.9,0.1-7.8-0.3-11.8,0.1c-2.4,0.1-4.8,0-7.2-0.4c-0.8-0.1-1.7-0.4-2.4,0.4l0,0
		c-1.9-0.7-1.9-2.2-1.9-4c0.2-4.8,0.9-9.5,2.1-14.1c2.4-11.5,7.9-22.1,10.3-33.6c0.5-2.3,0.9-4.6,1.1-7c0.3-3-1-5.6-2.4-8
		c-4.1-7.3-7.3-15.3-12.1-22.3c-1.2-1.8-2-3.8-2.4-5.9c-0.4-2.1-0.9-4.1-1.3-6.2l0,0c0.4-1.5-0.2-3-0.2-4.5c0-6.5,1.1-12.9,3.5-18.9
		c3.1-8.7,5.6-17.7,7.2-26.8c0.4-2.3,0.9-2.6,3.3-2.6c2,0.1,4,0.4,5.9,0.9l0,0c6,1.5,11.9,3.5,17,7.1l8,5.5c0.1,0.8,0.5,1.5,1.1,2
		c2.3,2.1,4.7,4.1,7.2,5.9c2.8,2,5.7,3.5,9.3,3.2c1.6-0.1,3.2-1,4.9-0.6l0,0c-0.6,0.9-1.3,1.9-1.9,2.8c-1.9,2.4-3.3,5.1-4,8
		c-0.3,0.8,0,1.6,0.7,2.1c0.8,0.6,1.5,0.2,2.1-0.3c0.4-0.3,0.7-0.7,1-1c1.8-1.9,2.6-4.3,3.9-6.5c0.3,0.2,0.4,0.5,0.4,0.8l0,0
		c-0.1,1.1-0.2,2.3-0.4,3.4c-0.3,1.1-0.3,2.3,0,3.4c0.1,0.7,0.7,1.3,1.4,1.5c0.7,0.1,1.5-0.4,1.7-1.1c0.5-1,0.9-2.1,1.4-3.2
		c0.6-1.4,0.8-2.9,1.9-4.4c0.2,1.3,0.5,2.5,1.1,3.7c1.2,2.2,2.8,2.3,4.2,0.2l0,0c0.2,0.2,0.6,0.4,0.6,0.7c0.5,2.7,1,5.4,1.3,8.2
		c0.4,4,0.6,7.9,2,11.7C833.2,140.3,832.9,140.5,831.7,140.4z"/>
	<path id="Path_21" class="st5" d="M842.9,108.9c-1,0.4-1.9,0.8-2.8,1.4c-0.2,0.1-0.4,0.3-0.5,0.5c-0.1,0.3,0,0.7,0.1,0.9
		c2.1,4.3,4.4,7.8,5.8,12.5c0.9,2.8,1.6,5.7,2.1,8.6c0.5,2.1,0.7,4.2,0.7,6.3c3.1-0.6,5-1.1,7.6-3.1c2.9-2.3,5.8-4.6,8.5-7.1
		c1.9-1.5,3.5-3.5,4.5-5.7c4.3-10.5,2.9-23.5,1.2-34.4c-1.9-12.4-5.4-24.4-8.9-36.4c-1.9-6.7-4.8-9.1-10.8-12.4
		c-3.1-1.6-7.1-4.1-10.8-3.7c-3.3,0.3-6.1,4.3-7.9,6.9c-0.9,1-1.1,2.5-0.6,3.7c0.6,1.4,0,2.1-0.9,2.8c-0.8,0.4-1.3,1.4-1,2.3
		c0.3,0.9,1.2,1.5,2.1,1.5c4.3,0.7,8.7,1.4,13.1,2.3c2.7,0,5.7,1.8,8.1,2.7c0.6,0.2,1,0.5,1.4,0.9c0.2,0.4,0.3,0.8,0.3,1.2
		c0.5,4.7,0.5,9.5,0.2,14.2c-0.3,6.6-0.7,13.3-1.6,19.8c-0.8,5.6,0.1,9.7-5.7,12.5C845.7,107.8,844.3,108.3,842.9,108.9L842.9,108.9
		z M840.4,43.2c-0.8,2-2.4,2.6-4,3.3c-0.3,0.1-0.5,0.3-0.8,0c-0.3-0.3,0-0.7,0.2-0.9C836.8,44,838.6,43.1,840.4,43.2L840.4,43.2z"/>
	<path id="Path_22_2_" class="st2" d="M819.7,103.2c-0.1,0.4-0.1,0.7-0.1,1.1l0,0c-0.6,1.5-2,2.3-3,3.5l0,0
		c-0.1-0.2-0.2-0.4-0.4-0.6c-6.2-4.7-12.5-9.3-20.8-9.2l0,0c-0.2-2.9-0.1-5.8-0.7-8.7l0,0c0.5-0.2,0.9-0.3,1.4-0.3
		c2.2,0.1,3.8-0.9,5.3-2.3c3.5-3.2,4-7.3,4-11.6c0-4.8-1.4-9.4-2.2-14.1c-0.5-4.2-1.6-8.3-3.2-12.2c-0.6-1.4-1.2-1.9-2.7-1.1
		c-1.8,1-3.8,1.6-5.9,1.7c-3,0.1-5.9,1.1-8.4,2.7c-2.1,1.2-4.3,2.1-6.7,1.6c-4.3-1-8.8-0.5-12.7,1.5l0,0c0-0.4,0-0.7,0-1.1
		c-0.7-5.2-0.6-10.5,0.3-15.6c0.6-3.7,3-6.6,5.4-9.3c2.8-3.2,5.7-6.2,9.8-7.7c2.3-0.6,4.6-1.1,7-1.5c0.8,0.2,1.5,0.4,2.3,0.5
		c5.2,1.1,8.7,4.3,10.8,9.1c0.9,2.1,2.1,4.1,3.6,5.8c2.1,2.2,2.4,5.1,2.2,8C805.1,43.4,808.8,43.8,819.7,103.2z"/>
	<path id="Path_23" class="st6" d="M851.2,140.6l-6.3,2c-1.7-0.3-3.2,0.5-4.7,0.8c-1.2,0.3-2.4,0.5-3.6,0.4c-1.1,0-2.1-0.6-2.6-1.7
		c-0.4-1.2-1.3-1.5-2.2-1.8l0,0c1.1,0.1,1.4-0.1,1-1.4c-1.3-3.8-1.5-7.8-2-11.7c-0.3-2.8-0.8-5.5-1.3-8.2c0-0.2-0.4-0.4-0.6-0.7l0,0
		c0.1-0.6,0.1-1.3,0.1-1.9c-0.4-3.6-1.1-7.2-0.8-10.9c1.1-2.2,2.4-2.8,5.6-2.3c1.7,0.2,3.3,0.4,5,0.4c1.6,0.1,3.2,0.5,4.7,1.4
		c1.2,0.8,2.1,2,2.4,3.5c1.2,6.6,3.9,12.9,5,19.6c0.5,3.2,0.9,6.4,1.7,9.6l0,0C852.9,139.1,851.7,139.7,851.2,140.6z"/>
	<path id="Path_24" class="st7" d="M779.6,450c1.5-0.1,3-0.4,4.4-0.9c1.8-0.5,2.8,0.2,3.6,1.9c1.7,3.7,4.3,6.9,6.8,10.1
		c1.6,2,2.9,4.2,3.7,6.6c0.4,1.3,0.3,2.8-0.3,4c-1,1.8-2.2,2.4-4.2,1.7c-4.1-1.2-8-2.9-11.7-4.9c-7.6-4.4-15.6-7.9-23-12.7
		c-1-0.6-2.6-1-2.4-2.4c0.3-2.2-0.4-4.7,1.7-6.4l0,0c4.2,1.6,8.1,4,12,6.3c3.4,2.1,6.9,4,10.4,5.8c0-0.9-0.5-1.3-0.8-1.9
		c-0.8-1.4-1.5-2.9-2-4.5C777.3,451.1,777.9,450.4,779.6,450z"/>
	<path id="Path_25" class="st8" d="M768.8,18.9L768.8,18.9c-4-4.4-2.9-9.5-2-14.6c0.3-1.4,1.5-1.5,2.6-0.3c1.9,2.1,3.6,4.2,4.3,7.4
		c1.2-2,2.5-3.9,4.1-5.6c1.1-1.1,2.2-2.1,3.5-2.9c1.7-1.1,2.9-0.4,3.2,1.5c0.6,4.6-1.4,7.9-4.9,10.7c-0.6,0.5-1.2,0.9-2.1,1.5
		c3.2,0.5,6.2,1.6,8.9,3.3c-2.4,0.6-4.7,0.7-7,1.5c-4.2,1.5-7.1,4.5-9.9,7.7c-2.4,2.8-4.8,5.5-5.4,9.3c-0.9,5.2-1.1,10.4-0.3,15.6
		c0,0.4,0,0.7,0,1.1l0,0l-2.5-0.2c-1.9-4.5-3.5-9.2-3.5-14.1c-0.1-6.7,2.7-12.3,6.8-17.3c1.1-1.4,2.4-2.7,3.9-3.7
		c0.2-0.1,0.7-0.3,0.5-0.7C768.9,19.1,768.9,19,768.8,18.9L768.8,18.9z"/>
	<path id="Path_26" class="st7" d="M816.7,448.4c1.9-0.4,3.7-1,5.5-1.7c3.1-0.5,3.3-0.3,4.8,2.8c1.9,3.9,4,7.6,6.3,11.2
		c0.6,0.8,1,1.8,1.4,2.7c0.3,0.7,0.4,1.5,0.2,2.2c-0.5,1.8-2.3,2.8-4.1,2.3c-0.9-0.1-1.8-0.4-2.6-0.7c-10.4-4.6-20.6-9.9-30.3-15.7
		c-1.5-0.8-2.3-2.5-1.9-4.1c0.1-0.7,0.5-1.3,1.1-1.5l0,0c0.7,0,1.4,0.2,2.1,0.4c5.6,2.1,11,4.6,16.2,7.6c0.6,0.3,1.2,1,2.2,0.5
		c-0.4-0.6-0.8-1-1.1-1.5c-0.4-0.5-0.7-1-1-1.5C814.8,449.8,815.1,448.9,816.7,448.4z"/>
	<path id="Path_27" class="st8" d="M825.2,141.2L825.2,141.2c1.4,4.3,1.9,8.9,2.6,13.3c1.5,9.6,4,19,5.3,28.7
		c0.7,4.7,1,9.5,1.1,14.3c0,6.8,1.2,13.5,1.9,20.2c0.2,2,0.7,3.9,0.2,5.9l0,0c-1.5-4.6-4.3-8.7-5.9-13.2c-0.6-1.8-1.2-3.5-1.8-5.3
		l0,0c-0.1-0.5-0.2-0.9-0.3-1.4c-1.3-7.8-1.1-15.6-1.3-23.5c-0.1-4.1-0.1-8.2-0.6-12.3c-0.7-5.4-2-10.7-3.1-16
		c-0.8-3.8-2.6-7.3-3.4-11.1C821.7,140.2,823.5,139.9,825.2,141.2z"/>
	<path id="Path_28" class="st9" d="M876.3,138.2c-1.4,4.3-4,8.1-5.9,12.2c-0.4,0.8-1.2,0.9-2,0.9c-4.6,0.1-9-1-13.4-2.1
		c-1-0.3-2-0.6-3-0.8c-3.6-0.5-5.6-2.9-7.2-5.9l6.3-2l0,0c3,1.1,5.9,2.3,9.3,2.2c3.3,0.1,6.2-2.2,6.9-5.4c1.1-4.3,1.4-8.7,1.1-13.2
		l0,0l1.1-2.5c1.6,1.9,3.8,6.5,5.5,8.4C877.2,132.5,877.2,135.3,876.3,138.2z"/>
	<path id="Path_29" class="st5" d="M777.7,441L777.7,441c0.4,2.5,2.2,4.1,3.7,5.8c0.8,0.9,1.1,2.4,2.7,2.4c-1.4,0.4-2.9,0.7-4.4,0.9
		c-1.8,0.3-2.3,1.1-1.9,2.8c0.5,1.6,1.1,3.1,2,4.5c0.5,0.5,0.8,1.2,0.8,1.9c-3.6-1.7-7.1-3.7-10.4-5.8c-3.9-2.2-7.7-4.7-12-6.3l0,0
		c0.9-3.4,1.4-7,1.5-10.5l0,0c5.5,1.8,11.3,2.5,16.8,4.3C776.9,441,777.3,441,777.7,441z"/>
	<path id="Path_30" class="st5" d="M816.6,107.8c0.9-1.3,2.4-2,3-3.5l0,0c0.9,0.7,1.6-0.3,2.5-0.3c2.2,0.1,4.3,0.7,6.2,1.7
		c-0.3,3.7,0.4,7.2,0.8,10.9c0,0.6,0,1.3-0.1,1.9l0,0c-1.4,2.1-3,2-4.2-0.2c-0.5-1.2-0.9-2.4-1.1-3.7c-1.1,1.5-1.3,3-1.9,4.4
		c-0.4,1-0.9,2.1-1.4,3.2c-0.2,0.7-1,1.2-1.7,1.1c-0.7-0.2-1.3-0.8-1.4-1.5c-0.3-1.1-0.3-2.3,0-3.4c0.2-1.1,0.3-2.3,0.4-3.4l0,0
		c0.4-0.4,0.5-1,0.3-1.6c-0.4,0.1-0.5,0.5-0.6,0.8c-1.3,2.2-2.1,4.7-3.9,6.5c-0.3,0.4-0.7,0.7-1,1c-0.6,0.5-1.4,0.9-2.1,0.3
		c-0.7-0.5-0.9-1.3-0.7-2.1c0.8-2.9,2.1-5.7,4-8.1c0.7-0.9,1.3-1.9,1.9-2.8l0,0C816,108.5,816.3,108.2,816.6,107.8L816.6,107.8
		L816.6,107.8z"/>
	<path id="Path_31" class="st5" d="M818.4,439.7L818.4,439.7c0.2,1.8,1.4,3,2.3,4.4c0.5,0.9,1.1,1.7,1.6,2.6
		c-1.8,0.7-3.6,1.2-5.5,1.6c-1.6,0.5-2,1.4-1.2,2.9c0.3,0.5,0.6,1,1,1.5c0.3,0.5,0.7,0.9,1.1,1.5c-1,0.5-1.6-0.2-2.2-0.5
		c-5.2-2.9-10.6-5.5-16.2-7.6c-0.7-0.2-1.4-0.4-2.1-0.4l0,0c0.5-2.7,0.9-5.5,1-8.3l0,0c5,1.9,10.5,2.8,15.9,2.4
		C815.5,439.9,817,440.7,818.4,439.7z"/>
	<path id="Path_32" class="st5" d="M770.3,77.6c2.9,2.9,6.1,5.5,9.5,7.7c2.8,1.8,6,3,9.3,3.4c1.8,0.4,3.7,0.6,5.6,0.6l0,0
		c0.5-0.2,0.9-0.3,1.4-0.3c2.2,0.1,3.8-0.9,5.3-2.3c3.5-3.2,4-7.3,4-11.6c0-4.8-1.4-9.4-2.2-14.1c-0.5-4.2-1.6-8.3-3.2-12.2
		c-0.6-1.4-1.2-1.9-2.7-1.1c-1.8,1-3.8,1.6-5.9,1.7c-3,0.1-5.9,1.1-8.4,2.7c-2.1,1.2-4.3,2.1-6.7,1.6c-4.3-1-8.8-0.5-12.7,1.5l0,0
		l-2.5-0.2c-0.4-0.1-0.8-0.2-1.2-0.3c-2.2-0.2-4.2,0.1-5.6,2.1c-1.2,1.8-0.5,3.7,0.4,5.3c1.6,2.9,4.3,5,7.5,5.8
		c1.1,0.3,2.3,0.4,3,1.8C766.6,72.5,768.3,75.2,770.3,77.6L770.3,77.6z M778.2,62.6C778.2,62.6,778.2,62.6,778.2,62.6
		c-0.9-0.1-1.6-0.8-1.5-1.7c0-0.8,0.6-1.1,1.3-1.3c0.8,0.5,1.6,1,1.5,2.1C779.5,62.4,778.9,62.7,778.2,62.6z M797.3,79.1
		c-1.5,0.6-3.2,0.8-4.8,0.7c-1.8,0-3.6-0.5-5.2-1.4c-0.4-0.2-0.8-0.4-0.8-0.9c0-0.6,0.6-0.4,1-0.6c1.2-0.4,2.3-0.9,3.3-1.5
		c1.1-0.7,2.1-1.6,3.6-0.8c0.6,0.3,1.2-0.3,1.8-0.7c1.1-0.8,1.9-0.6,2.6,0.7C800,77.1,799.7,78,797.3,79.1L797.3,79.1z M795,57.1
		c1.1,0.1,1.4,1,1.6,1.9c-0.1,0.8-0.5,1.3-1.3,1.2c-1.2-0.1-1.4-1-1.5-1.9c0-0.1,0-0.3,0-0.4C793.9,57.3,794.5,57,795,57.1L795,57.1
		z M789.6,57.9c0.9,2.8,3.2,4.2,5.5,5.6c1,0.4,1.5,1.5,1.4,2.5c-0.1,2-1.1,3.9-2.8,5c-0.3,0.3-0.7,0.7-1.1,0.2s0.3-0.7,0.5-1
		c0.4-0.7,0.9-1.4,1.2-2.2c0.7-1.6,0.6-2.7-1.2-3.7c-2.3-1.2-4.3-3-4.8-5.8c-0.1-0.5-0.4-1.1,0.3-1.4
		C789,56.9,789.4,57.4,789.6,57.9L789.6,57.9z"/>
	<path id="Path_33" class="st10" d="M793.2,98.4l-8-5.5c-5.2-3.6-11-5.6-17-7.1l0,0c0.9-2.7,1.6-5.4,2-8.2c2.9,2.9,6.1,5.5,9.5,7.7
		c2.8,1.8,6,3,9.3,3.4c1.8,0.4,3.7,0.6,5.6,0.6l0,0c0.6,2.9,0.5,5.8,0.7,8.7l0,0L793.2,98.4z"/>
	<path id="Path_34" class="st11" d="M808.6,207.9L808.6,207.9c-0.4-2.7,0.1-5.3,0.5-7.9c2-13.2,3.7-26.4,3.7-39.8
		c0-6,0.1-12,0.1-17.9c0-1,0.2-1.3,1.1-1.4c2-0.3,4-0.4,5.9-0.1c0.8,3.8,2.6,7.3,3.4,11.1c1.1,5.3,2.4,10.6,3.1,16
		c0.5,4.1,0.5,8.2,0.6,12.3c0.3,7.8,0,15.7,1.3,23.5c0.1,0.5,0.2,1,0.3,1.4l0,0c-0.9,0.7-2,1-3.1,0.9
		C819.7,205.2,814.2,207.3,808.6,207.9z"/>
	<path id="Path_35" class="st12" d="M815.7,108.9L815.7,108.9c-1.7-0.4-3.2,0.5-4.9,0.6c-3.6,0.3-6.5-1.2-9.3-3.2
		c-2.5-1.8-4.9-3.8-7.2-5.9c-0.6-0.5-1-1.2-1.1-2l2.1-0.4l0,0c8.3-0.1,14.6,4.5,20.8,9.3c0.2,0.2,0.3,0.4,0.4,0.6l0,0
		C816.3,108.2,816,108.5,815.7,108.9z"/>
	<path id="Path_36" class="st13" d="M817.8,114.8L817.8,114.8c0-0.3-0.1-0.6-0.4-0.8c0.1-0.3,0.2-0.7,0.6-0.8
		C818.3,113.8,818.2,114.4,817.8,114.8z"/>
	<path id="Path_37" class="st10" d="M868.4,124.1c0.4,4.4,0,8.9-1.1,13.2c-0.7,3.2-3.6,5.5-6.9,5.4c-3.3,0.1-6.3-1.1-9.3-2.2l0,0
		c0.5-0.9,1.8-1.5,1.5-2.8l0,0c2.2-0.5,3.5-2.2,5.2-3.5C861.7,131.2,865.2,127.8,868.4,124.1z"/>
	<path id="Path_38" class="st12" d="M797.2,79.1c-1.5,0.6-3.2,0.8-4.8,0.7c-1.8,0-3.6-0.5-5.2-1.4c-0.4-0.2-0.8-0.4-0.8-0.9
		c0-0.6,0.6-0.4,1-0.6c1.2-0.4,2.3-0.9,3.3-1.5c1.1-0.7,2.1-1.6,3.6-0.8c0.6,0.3,1.2-0.3,1.8-0.7c1.1-0.8,1.9-0.6,2.6,0.7
		C800,77.1,799.7,78,797.2,79.1z"/>
	<path id="Path_39" class="st14" d="M788.6,57.2c0.4,0,0.8,0.3,0.8,0.8c0.9,2.8,3.3,4.2,5.6,5.6c1,0.4,1.5,1.5,1.4,2.5
		c-0.1,2-1.1,3.9-2.8,5c-0.3,0.3-0.7,0.7-1.1,0.2s0.3-0.7,0.5-1c0.4-0.7,0.9-1.4,1.2-2.2c0.7-1.6,0.6-2.7-1.2-3.7
		c-2.3-1.2-4.3-3-4.8-5.8c-0.1-0.5-0.4-1.1,0.3-1.4C788.5,57.2,788.6,57.2,788.6,57.2z"/>
	<path id="Path_40" class="st15" d="M793.8,58.3c0-0.1,0-0.2,0-0.4c0.1-0.6,0.7-0.9,1.2-0.8c1.1,0.1,1.4,0.9,1.6,1.9
		c-0.1,0.8-0.5,1.3-1.3,1.2C794.2,60.2,793.9,59.2,793.8,58.3L793.8,58.3z"/>
	<path id="Path_41" class="st16" d="M779.6,61.7c-0.1,0.7-0.6,1-1.3,0.9c0,0,0,0-0.1,0c-0.9-0.1-1.5-0.8-1.4-1.7
		c0-0.8,0.6-1.1,1.3-1.3C778.8,60.1,779.6,60.6,779.6,61.7z"/>
</g>
<g id="_5KbQQQ" transform="translate(114.462)">
	<path id="Path_54" class="st17" d="M358,360.3c0.6,1,0.8,2.3,0.5,3.4c-1.1,9.3-3.7,18.4-4.8,27.7c-0.6,6-0.6,12,0.1,18
		c0.5,6.1,0.7,12.3,0.6,18.4c-0.1,8.3,0.6,16.6,2.1,24.7c1,4.7,2.6,9.1,4.9,13.4c0.4,0.8,0.8,1.5,1.2,2.2c1.6,3.4,0.1,5.8-3.6,6.1
		c-7.1,0.6-11.4-3.5-14.7-8.9c-2.2-3.6-4.3-7.3-7.4-10.6c-0.9,2.6-1.7,5.2-2.4,7.8c-0.1,0.5-0.3,1-0.5,1.5c-0.2,0.6-0.8,1-1.4,0.9
		c-0.7-0.1-1.1-0.8-1.1-1.4c0.1-2,0.3-4.1,0.6-6.1c0.7-7.9,2.7-15.7,1.9-23.7c-0.5-5.6-1.2-11.2-1.9-16.8c-0.4-2.9-0.6-5.7-0.6-8.6
		c0.4-10.4-1.3-20.6-3.3-30.7c-0.9-4.6-1.3-9.3-1.3-14c-0.1-2.6,0.7-3.2,3.3-2.7c0.8,0.2,1.4,0.3,1.5-0.8c3.1,2.3,6.7,1.8,10.2,1.4
		c4.3-0.5,8.6-0.8,12.8-1.5C355.8,359.9,356.9,359.9,358,360.3z"/>
	<path id="Path_55" class="st17" d="M375.4,422.5l0.9-13.6c0.2-2.5,0.3-4.9,0.5-7.4c0.5-6.6,0.9-13.1,1.4-19.7
		c0.1-3.1-0.2-6.1-0.8-9.1c-0.6-4.3-1.1-8.6-1.6-12.8c-0.1-0.4,0.2-0.9,0.6-1c3.1-0.3,6.3-0.4,9.5-0.5c5-0.2,9.9-0.8,14.7-2
		c0.7-0.2,1.5-0.6,2.2-0.1c1.2,0.9,0.8,2.2,0.6,3.3c-1.2,5.9-1.5,11.9-2.4,17.8c-1.2,8.7-1.9,17.4-3.6,26c-0.6,3.7-1,7.4-1.1,11.1
		c-0.5,6.9-0.5,13.8-0.5,20.8c0,2.8,0.5,5.6,1.6,8.3c2.5,6,5,12,7.6,17.9c0.9,1.9,1,4.1,0.3,6.2c-0.4,1.3-1.6,2.1-3,1.9
		c-6.5,0-10.3-4.2-14-8.7c-2.7-3.3-3.9-7.5-6.3-10.9c-1.2-1.8-2.4-3.6-3.6-5.5l-0.5,0.1c-0.3,2.1-0.6,4.2-0.8,6.3
		c-0.1,1.1-0.5,2.1-1.1,3c-0.5,0.7-1.1,1.1-2,0.8c-0.7-0.3-1.1-1-0.9-1.8c0.3-2.5,0.4-4.9,0.8-7.3c0.8-6.1,1.2-12.3,1.1-18.5
		c0-0.7-0.2-1.4,0.3-2.1C375.6,424.2,375.6,423.3,375.4,422.5z"/>
	<path id="Path_56" class="st18" d="M402.7,356.3c-5.9,1.7-12,2.6-18.1,2.6c-2,0-4.1,0.3-6.1,0.3c-0.8,0.1-1.6,0-2.3-0.3
		c-1.3-7.2-2.7-14.4-2.6-21.7c0.1-8.2,1-16.3,1.8-24.4c0.2-3.8,0.1-7.7-0.3-11.5c-0.4-4.7-1.1-10.1-1.7-14.7
		c2.3-0.7,4.7,0.6,7.1,0.2c2.4-0.5,4.5-0.8,6.7-1.3c1.6-0.3,2.9-1.6,3.2-3.3c0.7-3.3,1.2-6.6,1.5-10c1.1-8.9,1.1-17.9,2.2-26.8
		c0.5-0.5-0.4-1.5,0.6-1.8l3.7,35.8c0.6,5.9,1.1,6.2,7.6,6.1c-0.6,5.7-1.4,11.3-1.7,17c-0.4,8.5-0.8,17.1-0.5,25.6
		C404.1,337.4,403.7,346.9,402.7,356.3L402.7,356.3z"/>
	<path id="Path_57" class="st18" d="M357.9,360.3c-3.7,0.4-7.5,1-11.2,1.3c-3.6,0.3-7.1,1-10.7,0.9c-1.2-0.2-2.3-0.4-3.5-0.8
		c-0.8-0.2-0.5-1.1-0.9-1.4c-0.4-6.4-1-12.8-0.9-19.3c-0.1-5,0.3-10,1.1-14.9c1.5-7.6,1.3-15.4-0.6-22.9c-1.8-7.2-3.3-14.5-5-21.8
		c-0.6-5.4,1.1-10.6,1.9-15.9c0.6-6,1.7-11.9,3.2-17.7c0.1-0.3,0.2-0.5,0.3-0.9c0.7,0.2,0.4,0.7,0.4,1c0,7.6,0.1,15.3,0,22.9
		c0,3.7-0.4,7.5-0.6,11.1c0,0.6-0.1,1.2,0,1.8c0.1,1.9,0.8,2.6,2.7,2.6c5,0,10-0.1,14.9-0.3c3.2-0.1,6.4,0.2,9.6,0.3
		c1,0,1.4,0.4,1.3,1.4c0,0.6,0,1.2,0,1.8c-0.9,11.3-0.7,22.6,0.7,33.8c1.1,9.4,0.3,18.9-1.2,28.2
		C358.9,354.6,358.4,357.4,357.9,360.3z"/>
	<path id="Path_62" class="st19" d="M375.4,422.5c0.5,0.8,0.4,1.8-0.1,2.5C375.4,424.1,375.4,423.3,375.4,422.5z"/>
	<path id="Path_50" class="st20" d="M356.5,0.3c0-0.1,0-0.2,0-0.3h2.2c0,0.1,0,0.2,0,0.3c-0.3,0.3-0.7,0.5-1.1,0.5
		C357.2,0.8,356.8,0.6,356.5,0.3z"/>
	<path id="Path_51" class="st17" d="M408.6,229c-0.3-3.5-0.7-7-1.1-10.5c-0.1-0.9-0.7-1.7,0-2.6c0-1.4-1.1-2.6-2.5-2.6
		c-0.4,0.6-0.8,1.3-1,2.1c-0.3,0.6-0.4,1.3-1.3,1.3c-0.8,0-1.1-0.6-1.5-1.2c-2.4-3.8-4.4-7.8-7.3-11.3c-1.9-2.4-2.5-4.7-0.7-7.3
		c-0.2-1.1-0.5-2.2-1.8-2.7c-2.2,0.4-4.3,1-6.3,1.8c-0.7,0.1-1.2,0.5-1.5,1.1c-0.1,1.2-1,2.1-2.2,2c-0.1,0-0.2,0-0.3,0
		c-2,0.1-4,0-6-0.3c-0.6-0.1-1.3-0.1-1.6,0.5s0.3,0.9,0.7,1.4c0.5,0.6,1.3,1.1,1,2c-0.3,0.9-1.4,1-2.3,1.1c-0.4,0-0.8,0-1.3,0
		c-3.9-0.4-7.8-0.7-11.6-1.5c-2.4-0.6-4.8-1-7.3-1.1c-0.3,0.1-0.5,0.4-0.5,0.7c-0.5,3.6-3.1,5.8-5.5,8c-2.1,1.9-3.5,1.5-5.2-0.6
		c-0.5-0.6-0.8-1.4-1.8-1.4c-2.4,0.3-4.8,0.2-7.2-0.1c-3-0.4-6-0.6-9-0.4c-0.9,0-1.9,0.1-2.1,1.3c-0.9,5.1-1.9,10.2-2.8,15.2
		c-1.4,8-2.3,36-3.1,44.1c-0.5,5.3-1.2,10.6-1.7,15.9c-0.6,4.7-0.9,9.5-0.8,14.2c0.1,3.3,1,4.3,4.2,5.1c1.4,0.2,2.7,0.4,4.1,0.7
		c2.5,0.9,3.9,0.2,4-2.5c0-0.9,0.4-0.4,0.7-0.2c0.3-0.4,0.5-0.9,0.4-1.3c-0.1-1.5,0-3,0.4-4.5c1.5-8.9,2.5-17.8,4.6-26.7
		c-0.1,0.7-0.1,1.4-0.1,2.1c0,10.6,0.1,21.2-0.7,31.7c-0.2,3.1,0.9,4.2,4.1,4.3c6.4,0.2,12.7-0.5,19.1-0.1c0.1,0,0.3,0,0.4,0h0.8
		c0.3-0.2,0.7-0.3,1-0.3c9.6,0,19.1-0.2,28.7-0.2h0.1c5.1-1.1,6-2.2,6.8-7.5c0-0.2,0-0.4,0.1-0.5c1.6-10.9,1.9-21.9,2.8-32.9
		c-0.2-0.8-0.2-1.7,0-2.5c0,0.3,0,0.5-0.1,0.8c0.1,1.9,0.2,3.8,0.4,5.7c0.5,5.1,1.2,10.1,1.7,15.2c0.5,5.6,0.8,11.3,1.8,16.8
		c0.7,4,4,5.6,7.8,3.9c1.8-0.7,3.1-1.8,3.2-3.9c0.1-2.5,0.3-5,0.3-7.5C409.9,278.9,409.8,244,408.6,229z"/>
	<path id="Path_52" class="st21" d="M340.3,208.3c-3.4,0.9-6.9,0.2-10.3-0.1c-2.4-0.3-4.9-0.1-7.3-0.2c-0.6,0-0.8,0.4-1.2,0.7
		c0-0.4-0.4-0.7-0.8-0.7c0,0,0,0-0.1,0c-1.4,0.1-2.9-0.4-4.3-0.3c-5,0.2-8.4-3.7-9.7-7.9c-0.8-3.2-1.3-6.6-1.5-9.9v-26.1
		c0.8-7.1,0.8-14.2,1.4-21.3c0.6-7.7,1.9-15.3,3-23c0.6-3.7,1.6-7.4,3-10.9c1.8-4.2,4.9-7.8,8.7-10.4c3.4-2.5,7.1-4.5,11-6.1
		c2.6,4.3,6.3,7.7,9.1,11.8c0.7,0.9,1.4,1.6,2.2,2.3c1.3,1.2,3.2,1.6,4.9,1.1c3.2-0.8,6.4-1.3,9.6-0.3c1.1,0.2,2.2,0.8,2.8,1.8
		c0.4,0.8,1.3,0.9,1.9,1.3c0.6,0.7,1,1.6,1,2.6c0.3,2.2,0.8,4.3,1.3,6.4c-0.2,0.6-0.3,1.2-0.2,1.8c0.1,5.7,0.2,11.4,0,17.1
		c-0.2,6.1-0.3,12.2-0.9,18.3c-0.1,1.4-0.2,2.8-0.1,4.1c-0.5,2-0.7,4-0.7,6.1c0,5.1-0.8,10.1-1.3,15.1c0,2.4-1.4,3.2-3.6,3.6
		c-3.1,0.5-6.1,1.8-9.3,2.2c-1.2,0-2.2-0.8-2.5-1.9c-0.5-1.4-1.9-2.3-3.4-2c-3,0.2-6,0.8-8.8,1.7c-2,0.6-2.6,1.9-1.9,4
		c2.1,5.7,4.4,11.3,7.2,16.7C340.1,206.6,340.9,207.3,340.3,208.3z"/>
	<path id="Path_53" class="st21" d="M391.6,194.6c-2.5,0.9-5.3,1.3-7.6,2.6c-0.9,0.1-1.5-0.6-2.2-1c-1.1-0.7-2.3-1.3-3.5-1.9
		c-0.5-0.2-1.2-0.4-1-1c0.1-0.6,0.9-0.5,1.4-0.6c0.8-0.1,1.6,0,2.4,0c0.5,0,1.1-0.1,1.3-0.7c0.1-0.5-0.1-1.1-0.5-1.5
		c-0.9-0.9-1.9-1.5-3.1-1.9c-0.9-0.3-1.6-0.8-1.6-1.9c0.9-6.1,2.4-12.1,3.2-18.3c0.4-2.7,0.6-5.5,0.6-8.3c-0.1-7.3-0.3-14.7-0.8-22
		c-0.3-6.4-1.2-12.7-2.5-19c0-2.9-0.9-5.6-0.7-8.5c0.2-2.6,0.7-2.9,3.2-1.9s3.2,0.8,4.8-1.1c2.5-2.8,4.9-5.8,8.2-7.7
		c1.3-0.7,2.4-1.8,3.2-3.1c0.2-0.3,0.4-0.8,0.9-0.7c0,0.2,0,0.4,0.1,0.5c4.9,3.6,7.1,9.3,11,13.7c2.3,2.6,2.6,6,3.4,9.2
		c1.4,6.4,2.3,12.8,3.3,19.3c1.1,7.3,1.6,14.8,2.2,22.2c0.5,5.4,0.4,10.8,1.1,16.1c0.9,7.2-1.9,13.4-4.2,19.8
		c-0.7,2-1.6,3.9-2.4,5.8c-0.9,0.3-1.4-0.5-1.9-1c-2.4-2.8-4.6-5.8-6.4-9c-1.7-2.8-3.8-5.3-6.3-7.4c-1.6-1.5-2.9-1.3-3.8,0.7
		c-1,2.3-2,4.7-1.5,7.3C392,194,391.9,194.3,391.6,194.6z"/>
	<path id="Path_58" class="st22" d="M356.5,0.3h2.2c2.7,0.7,3.6,3.4,5.3,5.1c0.3,0.3,0.3,0.9,0.6,1.1c2.5,1.9,2.4,4.4,2,7.1
		c0,0.5-0.2,1.1-0.4,1.5c-0.7,1-1.3,2-1.9,3c-0.5,1-0.2,2.3-1,3.4c11.7-1.9,23.8,7.3,25.8,19.5c0.1,0.4,0.2,0.7-0.3,0.9
		c-0.6-0.2-0.7-0.7-0.9-1.2c-0.7-1.6-1.6-3.1-2.7-4.5c-2.5-3.3-5.9-3.5-9.6-3.2c-0.1,0-0.2,0-0.4,0.1c-2.5,0.1-4.6,1.7-5.3,4.1
		c-1.1,3-3.2,5.3-5.1,7.8c-2.5,3.2-4.8,6.5-6.8,9.9c-0.5,1-0.8,2-0.7,3.1c0.1,0.7-0.3,1.5-1,1.7c-0.8,0.2-1.6-0.1-2-0.8
		c-0.5-0.6-0.8-1.3-1.4-1.9c-0.8-0.9-1.7-1.5-2.8-0.8c-1,0.6-1.4,1.7-1.1,2.8c0.7,3.5,2.7,6.5,5.6,8.6c2.7,2,4.3,4.8,6,7.6
		c0.1,0.3,0.2,0.6,0.2,0.9c-0.3,1.1-0.7,2.1-2.1,1.1c-0.7-0.3-1-0.9-1.4-1.4c-1.7-2.3-3.8-4.2-6.3-5.6c-1.2-0.6-2.2-1.5-3-2.6
		c-1.4-1.8-2.8-3.4-4.2-5.2c-3.9-4.4-5.2-10.5-3.6-16.1c1.9-7,5.5-13.5,10.4-19c-1.2-0.3-2.4-0.3-3.5,0c-3.6,0.4-6.8-2.1-7.3-5.7
		c0-0.1,0-0.2,0-0.3c-0.2-1.1-0.5-2.1-0.9-3.1c-1-2.6-1.1-5.1,0.6-7.4c1.4-1.9,1.8-4.4,3.7-5.9c2.3-2,5.1-3.2,8.1-3.5
		C353,1.5,354.8,1,356.5,0.3z"/>
	<path class="st22" d="M394,69c0,0,9.8-14.3,10.1-20c0.3-5.7,1.4-5.2-2.4-13.6c-3.8-8.4-0.2-8.5-8.9-14.8c-8.7-6.2-10-7.7-23.2-7.4
		c-13.1,0.3-23.8-2.9-29.2,6.1s-5.3,11.3-4.4,21s-1.9,10.7-0.3,16.4c1.6,5.6,13,10.8,15.5,15s2.5,4.6,7.5,5.1
		c5.1,0.5,5.1,0.5,5.1,0.5"/>
	<path id="Path_59" class="st23" d="M360.5,76.3c-1.9-3.3-3.9-6.4-7-8.7c-2.8-2.1-4.6-5.2-5.1-8.6c-0.3-1.2,0.3-2.5,1.5-3
		c1-0.6,2.3-0.4,3,0.6c0.6,0.7,1.1,1.4,1.6,2.2c0.2,0.7,0.9,1,1.6,0.9c0.9-0.2,0.9-0.9,0.8-1.6c-0.3-2.5,1.2-4.2,2.5-6
		c2.4-3.7,5-7.2,7.8-10.6c1.7-1.9,2.5-4.5,3.6-6.8c0.2-0.6,0.7-1,1.4-1.2c2.5-0.8,5.2-1.1,7.8-0.8c1.9,0.3,3.6,1.1,5,2.5
		c1.3,1.3,1.7,3,3,4.2c1.8,1.7,2.3,4.7,2.8,7c0.5,2.7,0.6,5.5,0.9,8.3c0.4,2.9,0.7,5.8,0.9,8.8c0.5,4.4-0.5,8.8-2.7,12.6
		c-1.3,2-2.3,4.1-3,6.3c-0.8,2.8-3.4,4.2-6.2,4.5c-1.2,0.1-2.3,0-3.5-0.2c-6.2-0.8-11.3-5.6-16-9.3
		C360.9,77.1,360.6,76.7,360.5,76.3L360.5,76.3z"/>
	<path id="Path_60" class="st24" d="M391.6,194.6c-0.9-3.1,0.2-5.9,1.5-8.7c1-2.2,2.6-2.5,4.4-0.8c2.9,2.5,5.3,5.6,7.2,8.9
		c1.7,2.9,3.7,5.6,5.9,8.1c0.4,0.3,0.8,0.6,1.2,0.8c3,2.8,3.1,3.2,1.1,6.8c-1.2,2.1-2.1,4.7-5.1,5.2c-0.4,0.1-0.3,0.6-0.4,0.9
		c-0.4-1.3-1.6-1.7-2.4-2.6c-0.8-0.1-1.2-0.7-1.6-1.3c-1.8-2.5-3.7-4.8-5.8-7.1c-2-2.1-3.2-4.7-4.6-7.1c-0.2-0.2-0.2-0.6,0-0.8
		L391.6,194.6z"/>
	<path id="Path_61" class="st25" d="M377.3,90.3c0-1,0-2.1-0.1-3.2c0,0.4,5.3-0.7,5.9-0.9c0.8-0.2,1.5-0.8,2.3-0.3
		c1.3,1.1,3,1.5,4.4,2.5c1.6,1,3.3,1.9,5.1,2.7c2,1.1,3.1,2.6,2.7,5c-1,2-2.6,3.6-4.6,4.6c-3,1.7-5.1,4.4-7.2,6.9s-2.8,2.8-5.7,1.5
		c-2-0.9-2.3-0.8-2.4,1.2c-1.2-1.3-1.8-3.2-1.5-4.9c0.4-3,0.8-5.9,1-8.9C377.3,94.4,377.3,92.4,377.3,90.3z"/>
	<path id="Path_63" class="st26" d="M378.1,90.2c-0.1,2.1-0.3,4.2-0.5,6.3c-0.3,2.9-0.6,5.9-1.1,8.8c-0.3,1.8,0.9,3.3,1,5
		c0,2.1,0.2,4.2,0.6,6.2c0.1,0.8,0.6,1.6-0.2,2.3c-1.4,1-3,0.8-4.5,0.8c-2.1,0-4.3-0.2-6.4-0.2c-0.6,0.1-1.2-0.1-1.6-0.6
		c-0.7-0.2-1.2-0.8-1.2-1.5c-0.1-2.4-0.6-4.8-1.4-7.1c-0.4-4.6-2.6-8.4-5-12.2c-2-3.2-3.5-6.6-4.5-10.2c-0.3-0.7-0.3-1.5,0.1-2.1
		c0.7-1.2,1.1-2.7,1.1-4.1c1.8-1.1,3.9-1.9,4.3-4.3c1.1,0.4,1.5-0.3,1.9-1.1c-0.2,0.4,6.6,5,7.3,5.5c1.3,0.9,2.6,1.8,4,2.6
		c2.5,1.5,5.9,2.7,8.6,2.4c0,0-0.9,0.1-1.3,0.2c-0.3,0.1-0.7,0.1-0.9,0.4c-0.1,0.2-0.1,0.4-0.1,0.5
		C378.2,88.7,378.2,89.5,378.1,90.2z"/>
	<path id="Path_64" class="st27" d="M354.4,81.7c0.7,1.1,0.6,2.5-0.3,3.5c-0.6,0.8-0.8,1.9-0.4,2.9c1,3.5,2.5,6.8,4.4,9.8
		c2,2.9,3.6,6.1,4.7,9.5c0.4,0.9,0.4,2,0,3c-0.7,0-1.5,0.1-1.8-0.6c-1.3-2.6-3.8-2.3-6-2.6c-2-0.2-4.1,0.1-6,0.7
		c-2.5,0.8-4.3,0-6-1.7c-2.3-2.2-3.9-5-6.1-7.3c-1-1.1-1.9-2.3-2.9-3.4c-0.9-0.9-1.4-2-1.5-3.2c0.1-2.5,1.7-4,3.7-5.1
		c3.1-1.6,6.6-1.8,9.7-3.4C348.4,82.3,351.4,81.6,354.4,81.7L354.4,81.7z"/>
	<path id="Path_65" class="st23" d="M377.5,187c0,0.8,0.6,0.9,1.2,1.1c1.4,0.5,2.6,1.2,3.7,2.1c0.6,0.5,0.9,1.4,0.6,2.1
		c-0.3,0.7-0.9,0.9-1.6,0.9c-1.3,0-2.5,0-3.8,0.1c2.3,1,4.5,2.3,6.5,3.9c0.1,2.1-0.2,2.5-2.3,2.5c-2.7,0-5.3-0.1-7.9-0.4
		c0.2,0.9,1,1.1,1.5,1.6c1.3,1.4,0.9,2.7-0.9,3.2c-2,0.6-3.9,0.1-5.9-0.1c-5.4-0.5-10.7-1.4-15.9-2.6c-0.7-0.6-1.1-1.4-1.2-2.3
		c-1-3.4-2-6.8-3.2-10.1c-0.3-0.9-0.5-1.8,0.9-2c3.7-0.9,7.5-1.9,11.3-2.7c1.5-0.4,0.5-1.8,1.2-2.5c0.6,1.6,1.9,1.6,3.2,1.3
		c2.2-0.4,4.4-0.3,6.6,0.1c2.1,0.3,2.7,0.9,3.1,3c0.1,0.6,0.5,0.6,0.8,0.7C376.1,187.2,376.8,186.9,377.5,187z"/>
	<path id="Path_66" class="st27" d="M349.1,187c-0.9,0.3-0.7,0.9-0.5,1.7c1.4,4.2,2.7,8.5,4,12.7c0.4,3.1-2,4.9-3.6,7
		c-0.6,0.7-1.2,1.3-1.9,1.9c-2.7,2.1-4.5,1.7-6.3-1.3c-0.1-0.3-0.4-0.5-0.5-0.7c-1.4-3.8-3.7-7.3-5.1-11.1c-0.9-2.8-2.5-5.5-3.3-8.4
		c-0.5-1.9-0.2-3.2,1.6-3.8c3.5-1.4,7.3-2,11.1-2c1.3,0,1.9,0.9,2.3,2S347.6,187.1,349.1,187z"/>
	<path id="Path_67" class="st23" d="M393.2,197c2.9,6.2,8.1,10.8,12,16.3c-0.2,1.1-0.6,2.1-1.1,3c-0.6,1.4-1.9,1.4-2.8,0.1
		c-0.7-1.1-1.4-2.2-2.1-3.4c-2-3.6-4.5-6.9-6.8-10.4C391,200.7,391.3,198.9,393.2,197z"/>
	<path id="Path_68" class="st28" d="M394.9,243.4c-0.6,0.4,0,1.3-0.6,1.8c-0.2-1,0-2.1,0.5-3C394.9,242.6,395,243,394.9,243.4
		L394.9,243.4z"/>
	<path id="Path_69" class="st29" d="M365.3,119c4.2-0.1,8.4,0.4,12.6,0c1.5,0.8,0.8,2.3,1.1,3.5c1.3,6.7,1.6,13.6,2.2,20.4
		c0,0.1,0,0.1,0,0.2c-0.3,5.8,0.6,11.5,0.3,17.3c-1.8,1.3-3.9,1.3-5.9,1.4c-3.3,0.2-6.6,0.1-9.9-0.4c-0.7,0-1.4-0.3-1.9-0.8
		c-1.2-1.3-0.4-2.9-0.2-4.2c0.4-2.6,0.3-5.1,0.5-7.7c0.6-9.1,0.4-18.1,0.5-27.2C364.6,120.7,363.1,119.2,365.3,119z"/>
	<path id="Path_70" class="st26" d="M363.8,160.5c5.8,1.1,11.9,1.1,17.7-0.2c0.1,8.1-1.9,15.8-3.4,23.7c-0.2,1-0.4,2-0.6,3
		c-1.2,1.6-2.7-0.1-4,0.4c1.1-2.1,0.3-3.3-2.1-3.7c-2.5-0.4-5.1-0.4-7.6,0c-1.8,0.4-2.3-0.3-2.1-1.9c0.7-6.7,1.3-13.5,1.5-20.3
		C363.1,161.1,363.1,160.6,363.8,160.5z"/>
	<path id="Path_71" class="st30" d="M377.7,76.3c1.4-0.7,2.7-1.4,4-2.3c1.1-0.6,2.6-0.4,4-0.8c0.9-0.3,1.6,1.1,1.7,2
		c0.1,1.2-0.5,2.4-1.7,2.9c-2.3,1.3-4.4,0.5-6.5-0.5C378.5,77.4,378,77,377.7,76.3L377.7,76.3z"/>
	<path id="Path_72" class="st31" d="M379.4,57.8c0.3-0.1,0.6,0.1,0.7,0.4c0.9,2.7,3,4.5,4.6,6.6c0.9,1.3,1.3,2.2,0.3,3.5
		c-0.5,0.7-1.1,1.4-1.8,1.9c-1.5,1-0.4-0.9,0-1.5c1.1-1.5,1.1-2.5-0.2-4.1C381.5,62.7,379.5,60.7,379.4,57.8z"/>
	<path id="Path_73" class="st32" d="M372.8,46.5c-0.1,0.8-0.7,0.9-1.3,0.9c-2.1,0-4.2,0.6-6,1.8c-0.3,0.2-0.6,0.5-0.9,0.1
		c-0.2-0.3,0-0.6,0.2-0.8c0.8-0.9,1.8-1.5,2.9-1.9c1.2-0.5,2.5-0.9,3.8-1C372.1,45.5,372.7,45.7,372.8,46.5z"/>
	<path id="Path_74" class="st33" d="M383.2,46.5c1.7-1.1,4.5-0.4,5.1,1.1c0.2,0.3,0.2,0.7-0.1,1c-0.4,0.3-0.6-0.1-0.9-0.3
		C386.1,47.4,384.7,46.7,383.2,46.5L383.2,46.5z"/>
	<path id="Path_75" class="st34" d="M387.4,55c0.8,0.1,1.3,0.8,1.2,1.6c-0.1,0.6-0.6,1.1-1.2,1.2c-0.6,0.1-1.2-0.4-1.3-1
		c0-0.1,0-0.2,0-0.3C386.1,55.8,386.3,55,387.4,55z"/>
	<path id="Path_76" class="st35" d="M368.5,56.4c0-0.7,0.1-1.4,0.9-1.4s1.2,0.7,1.2,1.5s-0.1,1.3-1,1.3S368.5,57.2,368.5,56.4z"/>
</g>
<g id="oP682W" transform="translate(567.098 8.1)">
	<path id="Path_94" class="st36" d="M104.7,140.9h0.3v-3.3c-0.1,0-0.2,0-0.3,0C103.9,138.6,103.9,140,104.7,140.9z"/>
	<path id="Path_95" class="st37" d="M-46.5,213.8c0.4-4,0.4-8.1,2-12c0.9-1.9,1.3-3.9,1.3-5.9c0.2-0.1,0.4-0.3,0.5-0.5
		c2.8-5.1,5.8-10.1,8.6-15.2c3.3-6.1,7.5-11.6,11.7-17.1c5.5-7.2,4.9-14.8-2.5-20.8c-4.4-3.5-7.3-8.6-8-14.2
		c-0.3-1.9-0.5-3.8-0.9-5.7c-0.8-3.7-0.9-7.6-0.3-11.3c1.2-6.9,4.1-13.2,7.8-19.1c4.2-6.3,6-14,5.1-21.5c0.2-0.6,0.6-1,1.2-1.3
		c3.5-1.9,6.9-4.1,10.6-5.6c0.5-0.1,0.9-0.4,1.3-0.7l0.4-0.1c1.3-0.2,2.5-0.8,3.8-0.9c0.1,0,0.2,0,0.3-0.1c1.7,1.2,3.4,2.3,5.2,3.5
		c7.2,4.8,15.1,7.5,23.8,6.9c5.4-0.2,10.7-1.5,15.6-3.8c0.9,0.4,1.9,0.8,2.8,1.1C50.5,71.6,57.1,74,63,78c-0.2,0.8-0.6,1.5-1.1,2
		c-1.6,2.2-2.9,4.6-3.7,7.2c-0.8,2.5-1.4,5-1.7,7.6c-0.8,4.3-1.2,8.7-1.2,13.1c0,2.4,0.1,4.8,0.4,7.2c0.4,4.1,0.2,8.5,3.7,11.7
		c0.2,0.2,0.2,0.4,0.3,0.7c-0.3,3.3-1.9,6-3.3,8.9c-1.8,3.7-2.7,7.8-2.4,11.9c0.4,3.5,1.3,7,2.6,10.3c2.1,6.1,5.4,11.7,8.2,17.4
		c0.1,0.5-0.1,1.1-0.4,1.5c-2.8,5.3-5,10.8-7.6,16.2c-0.8,1.8-2.5,3-4.5,3c-1.6,0.2-3.1,0.1-4.7-0.1c-0.6-0.2-1.3-0.2-2,0
		c-0.9,0.3-1.9,0.5-2,1.5c-0.1,1,0.5,1.9,1.4,2.3c1,0.6,2.2,0.9,3.3,1.5c0.4,0.2,0.8,0.4,0.9,0.8s-0.5,0.8-0.9,1
		c-1.4,0.6-2.8,1.1-4.3,1.4c-2.6,0.5-5.1,1.4-7.5,2.5c-0.7,0.3-1.3,0.8-1.1,1.7c0.1,0.7,0.7,1.3,1.4,1.5c0.4,0.2,0.8,0.1,1.2,0.3
		c0.9,0.4,2.4-0.2,2.7,0.9c0.2,0.9-1.3,1.3-1.9,2s-1.7,1.4-1.1,2.6s1.5,1.3,2.6,1.3c2.2,0.1,4.3-0.1,6.4-0.7c0.7-0.2,1.5-0.6,2,0.1
		s-0.3,1.2-0.6,1.8c-0.6,0.9-1.1,1.9-1.5,2.9c-0.6,1.8,0.3,2.9,2.2,2.5c1.8-0.4,3.4-1.2,4.8-2.3c4.2-3.1,7.9-6.7,11.1-10.8
		c0.8-1.1,1.7-2.1,2.7-2.9c1.6-1.1,2.9-2.6,3.9-4.2c0.3-0.5,0.6-0.9,1.3-0.8c1.5,22-5.1,42-14.8,61.1c-0.5-0.3-0.9-0.8-1.6-0.8
		c-2.2-0.2-4.3-0.5-6.4-0.8c-5-0.6-10,0.1-14.9,0.1c-6.9,0-13.8-0.4-20.8,0.3c-1.7,0.2-3.4,0.2-5,0c-6.5-0.6-13-0.8-19.5-0.7
		c-5.7-0.2-11.4-0.7-17.1-1.5c-4.2-0.7-8.5-0.9-12.8-0.8c-0.8-0.9-1.3-2.1-1.4-3.3c-0.5-2.9-1.1-5.9-1.6-8.8
		C-45.3,236.8-47.5,225.5-46.5,213.8z"/>
	<path id="Path_96" class="st38" d="M57.6,264.6c-0.1-0.6,0.2-1.4-0.9-1.4c-4.2-0.3-8.5-1.3-12.7-1c-8.8,0.6-17.6-0.2-26.3,0.4
		c-9.3,0.6-18.5-0.9-27.7-0.5h-0.7c0.5,1.2,1.6,0.8,2.5,0.8c2.6,0.1,2.6,0.1,2.8,2.8c0.2,2.9,0.2,5.8,0.6,8.6c0.3,1.9-0.3,3.9,0,5.8
		c0.4,2.3,0.9,4.5,1.2,6.8c1.6,9.6,4.2,19.1,6,28.6c1.9,10.4,3.2,20.8,4.9,31.2c0.1,0.6,0,1.2-0.1,1.8c-0.4,0.8-0.3,1.8,0.3,2.5
		l0.3-0.4c0.4-0.2,0.5,0.1,0.6,0.4c0.2,3.4,0.5,6.8,0.7,10.3c0.5,6.8,0.7,13.7,1,20.5c0.2,4.4,0.6,8.8,0.5,13.2
		c-0.1,3.3,0.3,6.6,0.3,9.9c0,7.8-0.6,15.5-0.7,23.2c0,0.1-0.1,0.2-0.2,0.3v0.4c0.3,2.1,1.4,3.8,2.2,5.7c1.1,2.6,2.4,5,4,7.3
		c1,1.5,2.8,2.2,4.6,1.7c1.6-0.4,3.3-0.6,5-1c2.2-0.4,3.9-2,4.6-4.1c1.5-4.2,3.7-8.1,4.8-12.5c-0.5-0.4-0.9-1-0.9-1.6
		c-0.7-14.1-1.6-28.3,2.2-42.2c2-7.1,4.5-14.1,7.5-20.9c2.5-6,3.8-12.5,3.7-19c0.1-8.1,0-16.1-0.5-24.2c-0.4-6.3-0.4-12.5-0.2-18.7
		c0.1-5.5,1.4-11,3.9-16C53.9,277.5,55.7,271,57.6,264.6z"/>
	<path id="Path_97" class="st39" d="M7.4,351.1c0.8-6.3-1-12.3-1.8-18.4c-1.1-9.3-2.7-18.4-4.8-27.5c-1.7-6.4-2.7-13-4-19.5
		c-0.7-2.9-1.1-6-1-9c0.2-4.2-0.4-8.5-0.6-12.7c-0.1-1.1-0.5-1.6-1.7-1.6c-1.4,0-2.8,0.4-4.1-0.3c-7.1-0.4-14.1-1.1-21-2.1
		c-2.4-0.4-4.9-0.3-7.3-0.5c-0.6,0-1.3-0.2-1.3,0.7c2.1,8.9,4.7,17.7,6,26.8c1.4,9.6,3.2,19.1,5,28.6c0.4,2.9,0.6,5.9,0.6,8.8
		c0.3,10.4,1.9,20.6,4.8,30.6c2.3,8.1,3.6,16.5,4,24.9c0.6,10.2,0.8,20.5,0.7,30.7c-0.1,4-0.5,7.9-1.1,11.8
		c-0.4,2.5-1.5,4.9-3.2,6.8c-3.1,3.5-6.5,6.8-10,10c-0.8,0.8-1.7,1.3-2.8,1.5c0.3,0.3,0.7,0.5,1.1,0.5c1.6,0.2,3.2,0.6,4.7,1.4
		c1.9,1.1,4.2,1.3,6.3,0.7c5.9-1.7,12-2.7,17.7-5c4-1.7,7.7-4,11.1-6.7c0.5-0.4,1.1-0.8,1.2-1.5c-0.4-0.7-0.5-1.5-0.2-2.3
		c0.6-5.5,0.2-11,0.4-16.4c0.2-9.3,1.3-18.7,1-28c-0.2-6-0.4-11.9-0.2-17.9C6.6,360.7,7.4,355.9,7.4,351.1z"/>
	<path id="Path_98" class="st38" d="M64.5,176c-3.1,5.7-5.4,11.7-8.3,17.4c-0.7,1.8-2.5,2.9-4.4,2.8c-1.6,0.1-3.1,0.1-4.7-0.2
		c-0.3-0.1-0.6-0.1-0.9-0.1c-1.4,0.2-3.1,0.3-3.4,2.1s0.9,2.5,2.3,3.1s2.5,1.1,4,1.7c-1.6,0.9-3.3,1.5-5.1,1.9
		c-2.7,0.6-5.3,1.4-7.9,2.6c-0.9,0.4-1.7,1.1-1.5,2.2c0.2,1.1,1,1.9,2.1,2c1.2,0.3,2.4,0.3,3.9,0.5c-1.1,0.7-2.1,1.5-3,2.5
		c-0.5,0.7-1.1,1.3-0.6,2.3c0.4,1,1.3,1.6,2.3,1.7c3.1,0.1,6.2-0.3,9.2-1.2c-0.9,1.6-1.7,2.9-2.4,4.3c-0.6,0.9-0.6,2,0.1,2.9
		c0.7,0.8,1.8,1,2.8,0.6c2.6-0.8,5-2.2,6.9-4c3.6-2.9,6.8-6.2,9.6-9.9c1.5-2.1,3.9-3.1,5.4-5.3c0.5-0.8,0.8-1.8,1.7-2.3
		c3-3.9,4.6-8.6,7.5-12.6c7-9.7,11.5-20.8,17.8-30.9c3.6-5.8,5.4-12.4,7-19v-3.3c-0.8-4-3.2-7.3-5.2-10.7
		c-4.8-8.2-11-15.3-16.9-22.7c-1.6-1.8-3-3.7-4.3-5.8c-3.3-5.7-7.6-10.8-10.9-16.5c-0.9-1.8-2.5-3.3-4.4-4.1c-3,3.1-5.1,6.9-6,11.1
		c-1.5,5.7-2.3,11.6-2.3,17.6c-0.1,5.5,0.4,10.9,1.4,16.3c0.4,2.1,2.2,3.1,3.2,4.7c0.5,2.1,2.3,3.3,3.5,4.9c2.3,2.7,4.7,5.2,7.2,7.6
		c3,2.9,4.3,7.2,3.2,11.3c-1.3,6.5-3.4,12.8-6.2,18.8c-0.7,1.4-1.5,2.6-2.1,4C64.7,174.7,64.2,175.3,64.5,176z"/>
	<path id="Path_99" class="st40" d="M-10.4,62.4c1.8-0.8,3.8,0.2,5.5-0.9c0.2-0.1,0.7,0.4,1.1,0.6c2,0.9,4.3,0.6,6.2-0.6
		c0.3-0.7-0.1-1.3-0.3-1.9C-0.7,53-1.6,46-2.2,38.9c-0.1-1.2-0.3-2.4-0.4-3.6c-0.3-3.9,0.6-7.8,2.6-11.2c0.3-0.6,0.6-1.2,0.9-1.8
		c2.6-4.2,5.7-8.1,9.1-11.6c2.5-2.7,6-2.5,9.2-2.7c0.6,0,1.2,0.5,1.2,1.1c0.9,4.9,3.6,9.2,5.3,13.8c1.3,3.4,1.2,7.2-0.2,10.5
		c-1.4,3.6-1.5,7.6-0.5,11.4c0.5,1.8,1.5,3.5,2.8,4.8c1.4,1.4,1.9,3.4,1.4,5.3c-0.6,2-0.9,4.1-0.9,6.2c0,1.6,0.1,3.3,0.4,4.9
		c0.2,1.5,1.2,2.4,2.3,1.8c2.3-1.2,4.7-1.5,7.1-2.1L52,64.2c0.5,0,1-0.1,1.4-0.3c3.4-2.1,7.1-1.7,10.8-1.4s7.7-0.5,11.5-1.2
		C77.4,61,78,60,77,58.6c-2.3-3.4-2.4-7.2-2.7-11c-0.4-4.5-1.1-8.8-3.5-12.7c-1.5-2.4-3.6-4.3-6.1-5.5c-4.6-2.3-7.7-5.6-9.1-10.8
		c-1.2-4.9-4.7-8.9-9.4-10.8c-6.2-2.6-12.6-5.1-19-7.3c-1.8-0.7-3.7-0.6-5.5,0.2c-0.3,0.2-0.7,0.2-1,0.1C14.9-0.5,10.3,2.2,6.1,5.6
		C3.4,8,1.2,10.9-0.2,14.1c-0.6,1.3-1.3,2.4-1.9,3.7c-1.7,3.8-4.5,7-8.2,9c-4.6,2.8-6.9,7-6.3,12.5c0.2,1.7,0.2,3.4,0,5
		c-0.2,2.1-1.1,4.1-2.7,5.6c-2.7,2.5-3.5,5.8-3.9,9.3c-0.3,2.5,0.6,3.4,3.1,3.3C-16.8,62.3-13.6,62.3-10.4,62.4L-10.4,62.4z"/>
	<path id="Path_100" class="st38" d="M-43.2,195.9c0.2,0.1,0.3,0.9,0.8,0c3.7-6.6,7.4-13.1,11.2-19.6c2.7-4.8,6.3-9,9.5-13.3
		c2.3-3.2,4.1-6.8,3.4-10.9c-0.5-3.9-2.6-7.4-5.7-9.7c-4.8-3.5-7.8-8.9-8.4-14.8c-0.4-3.9-1.4-7.7-1.5-11.6
		c-0.2-6.4,2.1-12.1,4.7-17.8c1.9-4.1,4.8-7.5,6.4-11.7c1.9-4.8,2.7-10,2.4-15.2c0-0.5-0.1-0.8-0.7-0.9c-1.2,1.1-2.2,2.2-3.1,3.5
		c-5,7.2-9.6,14.7-12.3,23.2c-1.9,5.8-2.6,11.9-3.7,17.8c-2.1,10.2-3.7,20.5-5,30.8c-0.9,7.1-0.5,14.3-0.3,21.4
		c0.3,8.1,1.4,16.2,2,24.2C-43.5,193-43.4,194.4-43.2,195.9z"/>
	<path id="Path_101" class="st41" d="M5.5,430.1c-3,2.5-6.3,4.6-9.7,6.5c-4.3,2.4-9,3.3-13.6,4.5c-2.4,0.6-4.9,1.1-7.3,1.9
		c-1.9,0.5-3.9,0.2-5.5-0.8c-1.8-1-3.8-1.5-5.9-1.5c-0.6-0.1-1.2,0.1-1.7,0.5c-2.6,2.4-5.4,4.5-7.2,7.7c-1.2,2.2-2.9,4.1-3.9,6.5
		c-1.2,3-0.4,4.2,2.7,4.2s6.2-1.2,9.3-1.2c7-0.1,13-3.3,18.8-6.7c3.6-2.1,7.5-2.9,11.5-3.5c0.8-0.1,0.9,0.1,1.1,0.7
		c0.4,1.6,1.6,2.1,3.1,2c2.5-0.1,4.9-0.6,7.2-1.4c1.5-0.4,2.6-1.7,2.7-3.2c0.5-4.1,0.4-8.2-0.2-12.2c-0.2-0.9-0.1-1.8-0.2-2.7
		C6.5,430.8,6.6,429.9,5.5,430.1z"/>
	<path id="Path_102" class="st41" d="M35.2,425.9c-0.8,0.1-0.9,0.7-1,1.3c-1,4.4-3.4,8.2-4.9,12.4c-0.6,1.6-2.2,2.1-3.7,2.5
		c-1.3,0.4-2.7,0.5-4,0.8c-3.9,1-4.7-0.8-6-3c-1.8-3.1-3.4-6.3-4.7-9.7c-0.2-0.5-0.5-0.9-0.8-1.4c-0.7,1.9-0.3,3.8-0.4,5.7
		c-0.2,6.8,0.3,13.5,3,19.8c1.7,3.7,4.2,7.1,7.2,9.9c1,1,2.5,1.4,3.8,0.9c2.4-0.8,4.5-2.4,5.9-4.5c2.2-2.9,4.2-5.9,6.4-8.8
		c2-2.7,1.6-5.7,1.4-8.7c-0.2-4-0.6-8-0.9-12.1C36.2,429.4,36.2,427.5,35.2,425.9z"/>
	<path id="Path_103" class="st39" d="M2.3,61.3c-1.9,0.9-4,0.8-6.1,0.8c6.2,4.6,12.6,8.6,20.4,9.9c7.7,1.3,15.7,0.5,23-2.6
		c0.6-0.3,1.3-0.5,1.5-1.2c-1-0.7-1.8-1.5-2.5-2.5c-2.3-0.2-4.4-0.2-6.4,1.4c-1.3,1.1-2.5,0.4-2.7-1.4S29.1,62.6,29,61
		c-0.8-0.1-1.3,0.5-1.9,0.9c-4.7,2.6-9.3,5.1-14.8,5.2c-3.4,0.1-6.7-1.5-8.7-4.4C3.3,62.2,3,61.5,2.3,61.3z"/>
	<path id="Path_104" class="st42" d="M32.9,367.4c0.4-0.9,0.8-1.4,0.5-2.1c-0.1-0.1-0.3-0.1-0.5,0C32.5,365.9,32.6,366.4,32.9,367.4
		z"/>
	<path id="Path_105" class="st43" d="M-25,339.8c-0.2,0.4-0.2,0.9,0,1.2C-24.7,340.6-24.7,340.1-25,339.8z"/>
	<path id="Path_106" class="st38" d="M2.3,61.3C5.1,66.5,9,68.2,15,67.2c5.1-1,9.9-3.1,14-6.2c0.1-2,0.4-4.1,0.9-6
		c0.5-1.9,0-3.9-1.3-5.4c-4.3-4.5-4.5-9.9-2.6-15.3c1.8-4.5,1.5-9.6-0.6-14c-1.8-3.8-3.6-7.6-4.5-11.8c-0.2-0.9-0.7-1.2-1.6-1.2
		C14.2,7.5,10,8.9,7,13.4c-2,3-4.9,5.5-6.5,8.9c-0.1,0.3,0.1,0.5,0.3,0.6c1.8-0.3,3.5-1.3,5.5-0.6c-2.3,0.1-4,1.8-6.3,1.6l-0.2-0.1
		c-2.6,3.7-3.2,7.8-2.9,12.1c0.4,5.9,1.3,11.7,2.5,17.4C0,56.1,1,58.8,2.3,61.3L2.3,61.3z"/>
	<path id="Path_107" class="st44" d="M0.9,22.7l-0.4-0.4c-0.5,0.4-0.7,0.9-0.7,1.5l0,0C0.6,23.9,0.9,23.5,0.9,22.7z"/>
	<path id="Path_108" class="st45" d="M-38.5,112.6c0.8-0.5,0.7-1.1,0.5-2C-38.2,111.4-38.3,111.9-38.5,112.6z"/>
	<path id="Path_109" class="st46" d="M14.3,55.1c-2.2-0.9-3.8-2.3-6.4-1.5c-1.3,0.4-2.7,0.1-4,1.2c-0.8,0.7-0.5,0.9,0,1.5
		c2.3,2.2,4.3,2.4,7.2,1C12.2,56.6,13.3,55.9,14.3,55.1z"/>
	<path id="Path_110" class="st47" d="M10,48.2c-1.9-1.3-3.2-2.5-3-4.7c0.1-0.8,0.4-1.6,0.8-2.3c1.2-1.9,2.1-4.1,2.4-6.3
		c0.3-0.8,0-1.8-0.7-2.4c-0.1,4-2.7,6.9-3.7,10.3C4.8,45.9,6.6,48.5,10,48.2z"/>
	<path id="Path_111" class="st48" d="M16.9,22.6c2.8-0.4,5.2,0.6,7.6,1.8c0.4,0.2,0.8,0.4,1.1-0.1s0-0.8-0.3-1.1
		C23.6,20.9,19.1,20.5,16.9,22.6z"/>
	<path id="Path_112" class="st49" d="M0.9,22.7c-0.3,0.4-0.5,0.9-1.1,1.1c0.1,1.2,0.7,0.9,1.5,0.6c2-0.8,4-1.9,6.2-2
		C5.2,21,3,21.4,0.9,22.7z"/>
	<path id="Path_113" class="st50" d="M18.6,33.2c0,0.6,0.5,1,1.1,1c0,0,0.1,0,0.1,0c0.6,0,1-0.5,1-1.1c0-0.1,0-0.1,0-0.2
		c0-0.5-0.4-0.9-0.9-0.9c-0.1,0-0.1,0-0.2,0c-0.6,0-1,0.4-1.1,1C18.6,33.1,18.6,33.2,18.6,33.2L18.6,33.2z"/>
	<path id="Path_114" class="st51" d="M2.3,32c-0.6-0.1-1,0.3-1.1,0.9c0,0.1,0,0.1,0,0.2c0,0.5,0.4,1,0.9,1.1c0,0,0,0,0,0
		c0.6,0.1,1.1-0.3,1.2-0.9c0,0,0-0.1,0-0.1C3.4,32.5,2.9,32.1,2.3,32z"/>
</g>
<g id="_2i4F6x" transform="translate(207.212 16.693)">
	<path id="Path_147" class="st52" d="M30.8,457.9c-1.3-1.2-2.8-2.2-4-3.5c-2.3-2.5-3.2-5.7-4.3-8.8c-0.6-1.7-1-3.4-1.6-5.2
		c-0.1-0.5-0.6-1.1,0.5-1c2.1,0.9,4.1,2.1,6,3.6c3.1,2.2,5.8,1.9,8.6-0.4c1.4-1.4,3.1-2.4,5-3c0.5,0.2,0.4,0.7,0.3,1.1
		c-0.5,6.2-3.3,12-8,16.2c-0.6,0.4-1.1,0.7-1.8,1L30.8,457.9z"/>
	<path id="Path_148" class="st53" d="M6.2,226.1c-0.6,6.2,0.1,12.4,0,18.6c0,8.7-0.7,17.4-1.4,26.1c-0.8,9.8-1.7,19.6-2.6,29.5
		c-0.9,9-2.1,17.9-3.3,26.9c-1.5,11.4-3.5,22.8-4.7,34.3c-0.8,6.7-1.3,13.4-1.4,20.1c0,5-0.8,9.9-1.4,14.9
		c-0.6,6.3-0.9,12.6-1.8,18.8c-0.3,2.1-0.5,4.2-0.8,6.3c-0.1,1.2-0.6,2.2-1.5,3c-0.6,0.6-1.4,1-2.3,0.9c-4,0.1-8,0.2-11.9-0.1
		c-1.5-0.1-3.2,0.1-4.1-1.6c-0.8-1.4-0.2-2.8-0.2-4.3c0.1-7.8,0.8-15.5,0.8-23.3c0.1-11.2,0.1-22.4-0.6-33.6
		c-0.3-5.7-0.4-11.4-0.7-17.1c-0.3-5.2-1.2-10.4-1.9-15.6c-1.4-10.3-2.8-20.5-3.5-30.8c-1-14.6,0-29.1-0.2-43.7
		c-0.2-16.4,0.1-32.9-0.4-49.3c0.9-0.2,1.7-0.7,2.2-1.4c3.6-3.9,6.1-8.6,9.3-12.8c0.1-0.2,0.3-0.4,0.4-0.6c0.7-1,1.8-1.9,2-3.2
		s-1.4-1.8-2-2.8c-0.1-0.2-0.1-0.3-0.2-0.5c0.1-2-0.1-3.9-0.6-5.8c-0.3-1.7-0.9-3-2.7-3.6c-1.7-4.7-1.3-5.3,3.6-5
		c3.5,0.1,7.1,0.6,10.5,1.4c4.9,1.2,9.6,0.9,14.5,0.4c7.4-0.8,14.8-1.6,22.2-2.5c6-0.7,12-1.3,17.9-2.5c1.3-0.2,2.6-0.7,3.7-1.4
		c1.1-0.8,1.9-0.4,2.4,0.8c0.6,1.3,1,2.7,1.4,4.1c2.6,9.6,4.8,19.4,6.4,29.3c0.1,0.4,0.1,0.8,0.1,1.3c-1.5,2.4-0.7,4.9-0.5,7.3
		c0.2,1.2,0.3,2.5,0.3,3.7c-0.1,2,0.6,3.4,2.6,4c0.8,0.8,0.3,1.6,0.1,2.3c-0.9,2.4-2,4.8-3.5,6.9c-0.7,0.9-1.3,1.9-1.8,2.9
		c-0.4,0.8-0.9,1.6-0.2,2.3s1.6,0.1,2.3-0.3c1.5-1,2.9-2.1,4.2-3.4c0.4-0.4,0.8-1.1,1.4-0.8s0.5,1.1,0.3,1.8c-0.9,4.5-1.7,9-4,13.1
		c-0.6,1-1.4,2.5-0.1,3.5s2.2-0.4,3-1.2c0.3-0.3,0.6-0.7,1.1-0.6c1.4,0.3,2.4-0.6,3.6-1c0.5,0.1,0.5,0.4,0.3,0.9
		c-1.1,8.3-2.1,16.6-4.3,24.7c-2.1,7.7-2.9,15.7-4,23.6c-1.7,12.4-3.6,24.8-5.2,37.2c-0.9,6.6-1.4,13.3-2,19.9
		c-0.5,4.6-0.9,9.2-1.5,13.8c-0.7,6.2-0.9,12.5-0.7,18.8c0.1,9-1.2,17.9-2,26.8c-0.4,4.2-0.6,8.4-0.9,12.6c-0.2,2.1,0.2,4.3-1.6,5.9
		c-0.5,0.5-1.2,0.8-2,0.7c-4.3,0.1-8.5,0-12.8-0.4c-1.2-0.2-2.4-0.6-3.6-1.2c-1.4-0.5-1.6-1.6-1.5-2.9c0.4-5.7,1-11.4,1-17.1
		c0.1-6.5,0.8-13,0.4-19.5c-0.4-7.5-0.9-14.9-1.6-22.3c-0.5-5.2-0.9-10.4-1-15.7c-0.1-7.1-0.7-14.2-1.3-21.2
		c-0.5-6.5-0.8-13.1-1.3-19.6c-0.5-8.2-1.2-16.3-2-24.5c-0.7-7.5-1.3-15-2-22.5c-0.8-9-1.3-18-2.9-26.9c-0.8-3.6-1.9-7.2-3.3-10.7
		c-0.7-0.2-0.5,0.3-0.5,0.6C6.4,223.8,6.4,225,6.2,226.1z"/>
	<path id="Path_150" class="st54" d="M-25.2,41.9c-0.2-2.6-0.8-5.2-1.9-7.7c-1.9-4.3-2.6-8.7-0.7-13.3c2.7-6.5,6.1-12.5,12.9-15.6
		C-11,3.8-6.9,2.6-2.8,1.8c5.1-1,10.2-1.5,15.4-1.5c3-0.1,6.1-0.6,9.2-0.1c1.7,0.3,3.2,1.1,4.4,2.3c1.9,1.9,3.6,4.1,5.1,6.3
		c3.4,5,16.9,50.3,19,55.9c2.2,5.8,0.9,11-3.1,15.6c-3.8,4.4-14.9-9.4-18.5-4.8c-1.9,2.3-7.5-10.2-10.1-9C17.2,67,16,64.2,14.8,65
		c-0.5,0.8-2-3.3-3.1-3.6s-1.4-1.2-1.6-2.2c-0.4-3.2-0.6-6.4-0.4-9.6c0-1.7,0.9-3.2,2.4-4c0.7-0.4,1.5-0.8,2.2-1.3
		c2.4-1.6,2.6-4,2.1-6.4c-0.2-1-1-1.7-2-1.9c-1.1-0.1-1.6,0.6-2.1,1.4c-2.6,4.3-2.7,4.3-6.7,1.3C-0.3,34.2-5.9,29.3-11.1,24
		c-1.6-1.7-3-3.6-4.1-5.7c-0.7-1.1-1.1-1-1.8,0c-1.4,2.3-1.6,4.9-1.9,7.5c-0.5,4.3-1.4,8.6-2.8,12.7c-0.5,1.4-1.2,2.6-2.1,3.7
		C-24.5,43-25,43-25.2,41.9z"/>
	<path id="Path_149" class="st55" d="M53.2,201.5c-1.7-10.5-4-20.9-6.8-31.1c-0.1-0.3-0.2-0.6-0.3-0.8c-0.4-1.1-0.5-2.6-1.4-3.3
		c-1-0.9-1.8,0.9-2.9,1.1c-3.7,0.9-7.5,1.5-11.4,1.9c-7.4,0.9-14.8,1.9-22.2,2.7c-5.3,0.6-10.5,1.2-15.8,1.5
		c-3.5,0.2-6.9-1.1-10.3-1.5c-3.7-0.4-7.4-0.8-11.1-1.3c-0.8-0.1-0.7,0.4-0.6,0.9c0.2,1.4,0.5,2.7,0.8,4.1c-0.8,1.3-2.2,1.7-3.4,2.1
		c-5.7,2.3-10.7,5.7-15.9,8.8c-0.5,0.3-1,0.9-1.8,0.7c-3.5-6.8-5.7-14.2-6.5-21.7c-0.4-4.3-0.8-8.6-1.1-12.9
		c-0.2-2.6-0.3-5.3-0.3-7.9c0.2-5.9,0.8-11.8,1.4-17.7c0.3-2.5,0.3-5,0.4-7.5c0.3-8,0.9-15.9,1.3-23.9c0.2-4.3,2-8.4,5-11.4
		c4.2-4.4,9.4-7.7,15.1-9.8c0.2-0.2,0.4-0.3,0.7-0.2c3.4,1.3,7,1.3,10.4,2c2.2,0.4,2.5,0.9,1.5,2.9c-0.9,1.9-1.8,3.7-2.8,5.4
		c-1.6,2.8-1.3,3.9,1.6,5.5c0.9,0.5,1.9,1,2.8,1.6c6.3,3.8,10.2,9.8,13.6,16c1.7,3.2,3.7,6.3,5.7,9.4c0.8,1.3,2.3,1.1,2.9-0.7
		c0.8-2.1,1.5-4.3,2.5-6.4c3.7-7.9,9-14.5,16.5-19.1c0.7-0.4,1.5-0.8,2.2-1.3c2.5-1.6,2.7-2.4,1.7-5.1c-0.7-1.9-1.8-3.5-2.6-5.3
		c-1.1-2.4-1-2.7,1.4-3.8c3.2-1.5,6.6-2.6,10.1-3.2c1.5,0,2.8-0.9,3.4-2.2c7,1.8,13.5,5.1,19.1,9.7c5.1,4.1,8.8,9.7,10.5,16
		c1,3.7,2.3,7.3,3.3,11c0.7,3,1.1,6,1.3,9c0.4,5,0.4,10.1,0.8,15.1c0.5,7.2,0.4,14.4,0.8,21.6c0.3,6.2-0.1,12.5,0.7,18.7
		s1.7,12.3,1.4,18.4c0,3.8-0.4,7.7-1,11.4c-0.7,0.5-1.6,0.7-2.4,0.5c-5.7-0.5-11.5-0.5-17.2,0.1C53.9,201.8,53.5,201.7,53.2,201.5z"
		/>
	<path id="Path_151" class="st56" d="M18.9,64c-0.6-0.3-1.1-0.6-1.7-1c-1.2-0.8-2.9-1.2-3.4-2.9c-0.8,0.4-1.3,1.5-2.3,0.9
		s-0.8-1.6-1-2.6c-0.2-2.3-0.4-4.7-0.4-7c-0.4-2.6,1-5.1,3.4-6.1c3.1-1.6,4-3.6,3.5-7c-0.1-1.4-1.1-2.5-2.5-2.8
		c-1.4-0.3-2.2,0.7-2.8,1.8c-0.2,0.4-0.4,0.8-0.5,1.1c-1.2,2.3-1.9,2.5-4,1c-3.4-2.5-6.7-5.2-9.9-8.1c-4.8-4.3-9.7-8.4-12.7-14.1
		c-0.6-1.1-0.9-0.8-1.5,0c-0.9,1.3-1.6,2.7-1.9,4.2c-0.6,3.7-1.1,7.4-1.9,11c-0.6,3.2-1.3,6.5-3.4,9.2c-0.1,0.2-0.3,0.5-0.5,0.7
		c-0.1,0.2-0.3,0.4-0.6,0.5c-0.1,0.3-0.4,0.5-0.7,0.7c-0.1,0.1-0.3,0.3-0.5,0.3c-0.6,0.5-1.2,0.9-1.9,1.3c-1.6,1.2-1.8,3.1-0.2,4
		s2.9,1.8,4.7,1.8c0.6-0.1,1.3,0.2,1.7,0.6c0.1,0.2,0.2,0.5,0.3,0.8c0,0.4-0.1,0.8,0.1,1.1c0.1,0.1,0.3,0.2,0.5,0.3
		c1.1,0.3,2.1,0.7,3.1,1.2c1.4,0.7,1.4,0.7,0.2,1.7c-0.9,0.8-2.2,1.2-3.2,2V60c0,2.9,0.6,3.7,3.5,4.2c1.2,0.1,2.5,0.2,3.7,0.1
		c0.4-0.1,1-0.7,1.1,0.4c-1.6,0.8-3.3,1.4-5,1.9c-0.1,1.3,0.8,2.1,1.3,3.1c2.5,4.5,5.3,8.8,7,13.6c0.7,2,1.2,4,2,6
		c2.7,6.5,4.8,13.2,6.5,20.1c0.2,0.8,0.1,2.1,1.2,2.1c1,0,0.9-1.3,1.1-2C4.2,97.3,9.2,86.1,14.4,75c1.3-2.8,2.9-5.5,4.4-8.3
		C19.4,65.9,20.1,64.9,18.9,64z"/>
	<path id="Path_152" class="st55" d="M-17.6,66.6c3.4,5.6,7,11.1,9.1,17.3c3,8.8,6.7,17.5,8.5,26.7c0,0.2,0,0.5,0.5,0.6
		c0.6-2.3,1.4-4.6,1.9-7c1.4-6.5,4.2-12.6,6.7-18.8c2.7-6.5,5.8-12.8,9.3-18.9c0.4-0.8,1.1-1.5,0.4-2.5c3.6-1.7,6.7-0.1,9.7,1.6
		c2,1,4,1.9,6,2.7c1,0.3,1.8,1,2.4,1.9c0.2,1.9-1.2,2.3-2.6,2.5c-4,0.7-7.8,1.9-11.5,3.6c-1.2,0.6-1.4,1-0.8,2.3
		c1.1,1.9,2.1,3.8,2.9,5.7c1.3,3.2,1,4.3-2.1,6c-3.3,1.9-6.3,4.2-9.1,6.8c-3.2,2.8-5.3,6.4-7.5,9.9c-1.8,3-3.2,6.2-4.1,9.6
		c-0.2,1.1-1.2,2-2.4,2.1c-1.3,0.2-1.3-0.9-1.8-1.7c-4.7-6.8-7.8-14.6-13.5-20.8c-2.1-2-4.4-3.7-7-5c-0.7-0.4-1.5-0.8-2.2-1.3
		c-2.1-1.3-2.3-2.3-1.2-4.5c1.1-2.2,2.3-4.2,3.4-6.4c0.9-1.7,0.7-1.9-1.2-2.2c-2.5-0.4-5-0.8-7.5-1.1c-1.3-0.1-2.4-0.9-3.6-1.1
		c-0.9-1.9-0.7-2.5,1.1-3.4c3.5-1.8,7.1-3.6,10.5-5.6c1.3-0.8,2.7-1,3.9,0.3C-18.8,66.3-18.2,66.6-17.6,66.6L-17.6,66.6z"/>
	<path id="Path_153" class="st56" d="M62.3,242c-0.9,0.9-1.7,1.9-3.2,1.2c-0.6-0.3-0.7,0.2-1,0.5c-0.4,0.5-0.9,1-1.4,1.3
		c-0.7,0.5-1.6,0.5-2.4,0.1c-0.7-0.5-1-1.5-0.6-2.3c0.4-1.3,0.9-2.5,1.5-3.7c2.3-4,2.3-8.5,3.4-12.8c-1.6,1.5-3.2,2.9-5,4.2
		c-0.5,0.4-1,0.7-1.5,0.9c-0.6,0.4-1.5,0.3-2-0.3c-0.6-0.5-0.7-1.4-0.3-2c0.7-1.3,1.5-2.6,2.4-3.8c1.9-2.6,3.2-5.6,4-8.8
		c0.7-0.5,1.5-0.7,2.4-0.6c4,0,8,0.1,12-0.9c1-0.2,1.9-0.2,2.3,1.1c-0.2,3.9-0.3,7.8-0.8,11.6s-2.4,6.9-4.4,10
		c-0.2,0.2-0.4,0.5-0.5,0.7c-0.8,1.7-1.9,3-4.1,2.6C62.8,241.6,62.6,241.8,62.3,242z"/>
	<path id="Path_154" class="st57" d="M72.7,216.3c-0.4-0.5-0.8-0.9-1.5-0.7c-5,1.5-10.1,0.9-15.1,1.1c-1.4,0.3-2.8-0.7-3.1-2.1
		c0-0.2,0-0.4,0-0.6c-0.2-3.2-0.4-6.4-0.9-9.6c-0.2-1.1,0.2-2.2,1.1-2.9c1.8-0.6,3.6-0.8,5.5-0.7c5,0.1,10.1-0.1,15.1,0.4
		c1.3,0.7,2.9,0.5,3.7,2c0.6,1.1,0.8,2.3,0.5,3.5c-0.4,1.9-0.8,3.8-1.4,5.7c-0.4,1.4-1.4,2.4-2.8,2.7
		C73.2,215.2,72.6,215.5,72.7,216.3z"/>
	<path id="Path_155" class="st57" d="M-49.9,187.4c6.6-4.6,13.7-8.5,21.1-11.6c1.1-0.4,1.7-0.1,2.1,1.1c0.8,2.7,1.8,5.4,1.1,8.3
		c0.4,0.9-0.3,1.4-0.9,1.9c-4.3,3.9-9.2,7.2-13.3,11.3c-0.5,0.5-1.1,0.8-1.7,0.9c-2.9,1.4-4.7,1-6.6-1.6c-0.9-1.2-1.8-2.5-2.7-3.8
		C-52.9,190.8-52.7,189.7-49.9,187.4z"/>
	<path id="Path_156" class="st56" d="M22.2,425c6.1,1.3,12.2,1.1,18.3,0.9c0.9,4.5,1,9.1,0.4,13.6c-2.4,1.8-5,3.6-7.6,5.1
		c-1,0.7-2.3,0.7-3.4,0.1c-3.1-1.4-5.9-3.2-8.5-5.4c0-4.3,0.5-8.5,1.3-12.7C22.9,426.1,22.7,425.4,22.2,425L22.2,425z"/>
	<path id="Path_157" class="st56" d="M-30.9,423.8c0.9,0.6,2,0.9,3,0.9c5.1,0.4,10.2,0.7,15.2-0.2v1.1c-0.5,5.6-3.6,9.5-8,12.6
		c-1.4,0.9-2.7,2-3.9,3.2c-0.9,1-2.4,1.4-3.7,1c-1.9-0.5-3.7-1-5.6-1.5c-1.6-0.5-3.3-0.9-4.9-1.1c-0.8-0.1-1.9-0.1-2.3-1.1
		c2.4-2.9,4.9-5.9,7.3-8.9C-32.4,428.1-31.4,426-30.9,423.8L-30.9,423.8z"/>
	<path id="Path_158" class="st52" d="M-41.2,438.7l14.1,3.6c0.6,0.2,1-0.2,1.4-0.5c1.9-1.5,3.8-3.2,5.8-4.7c3.5-2.5,6-6.3,6.8-10.5
		c0.1-0.3,0.1-0.7,0.5-0.9c0,0.3,0,0.6,0.1,0.9c0.7,4.4-0.8,7.6-4.5,10.2c-2.9,2-5.6,4.3-8.1,6.9c-1.3,1.1-2.7,2-4.3,2.6
		c-4.8,2.3-9.5,4.6-14.9,5.3c-2.7,0.3-4-1.1-3.1-3.6c1.2-2.9,2.7-5.7,4.5-8.4C-42.5,439-41.9,438.7-41.2,438.7L-41.2,438.7z"/>
	<path id="Path_159" class="st56" d="M-41.5,199.3c3-2.9,6.1-5.5,9.4-8c2-1.6,3.7-3.5,5.9-5c0.4-0.3,0.6-0.7,0.7-1.2
		c0.1,0.1,0.2,0.3,0.3,0.4c2.6,2.6,2.7,2.6,0.3,5.7c-3.7,4.9-6.6,10.3-10.8,14.8c-0.7,0.7-1.1,0.8-1.8,0.2c-0.2-0.8-0.6-1.6-1.2-2.2
		C-40,202.6-40.6,200.9-41.5,199.3z"/>
	<path id="Path_160" class="st58" d="M-21.6,53.3c0.5,0,1.1,0.1,1.6,0.3c1.6,0.5,3,1.5,4.7,1.7c-0.8,0.6-1.7,1.4-2.5,2
		c-0.4,0.4-0.9,0.7-1.4,0.9c-0.3,0.1-1.4,0.6-1.7,0.4c-0.4-0.3-0.9-0.6-1-1.1c-0.1-0.5,0.2-1,0.6-1.3c0.1-0.1,0.3-0.2,0.5-0.3
		c0.1,0,0.3,0,0.4-0.1c-0.5,0-1-0.2-1.4-0.4c-0.3-0.2-0.5-0.2-0.6-0.6S-22.2,53.4-21.6,53.3z"/>
	<path id="Path_161" class="st56" d="M-13.7,64.4c0.6-0.5,1.2-0.3,1.9-0.4c-0.2,0.6-0.5,0.6-0.8,0.7C-12.9,64.3-13.3,64.4-13.7,64.4
		z"/>
	<path id="Path_162" class="st59" d="M62.3,242c0.1-0.3,0.4-0.6,0.7-0.7c0.1,0.5,0,1-0.3,1.4C62.5,242.5,62.7,242.1,62.3,242z"/>
	<path id="Path_163" class="st60" d="M-10.2,28.7c-2.6-0.8-4.9-0.2-7.2,0C-16.1,26.2-12.2,26-10.2,28.7z"/>
	<path id="Path_164" class="st61" d="M-13.4,36.7c-0.2,0.8-0.5,1.3-1.4,1.3c-0.6,0.1-1.1-0.4-1.2-0.9c0-0.1,0-0.2,0-0.3
		c0-0.7,0.6-1.2,1.3-1.2c0,0,0,0,0,0C-13.8,35.5-13.5,36.2-13.4,36.7z"/>
</g>
<g id="WdP2Kc" transform="translate(667.418 19.187)">
	<path id="Path_165" class="st62" d="M-21.6,455.4c3.4-0.6,4.7-3.3,6-6c2.9-6.4,4.9-13.2,6-20.1c0.9-5.2,1.8-10.5,1.3-15.9
		c-0.1-2-0.4-4-0.8-5.9c-0.8,0.2-0.8,0.9-0.9,1.5c-0.6,2-1,4.1-1.2,6.2c-0.5,5-1.7,9.8-3.7,14.4c-0.4-1.6-0.5-3.3-0.5-5
		c-0.2-2.8-1.1-4.1-3.3-4.5c-2.6-0.5-4.3,0.4-5.5,3c-0.4,0.9-0.7,1.9-1.1,2.8c-0.2,0.6-0.4,1.2-0.5,1.8c-0.7-3.8-0.5-7.9-0.8-11.9
		c0-0.6,0.2-1.7-1.1-1.4c-2.1,5.7-2,11.7-2.4,17.7c-0.1,2.1,0,4.2-0.3,6.3c-0.4,1.4,0.2,2.8-0.2,4.2l0.1,2.5c0.5,2,0.4,4.1,1.1,6.1
		c1.1,3.2,2,3.9,5.5,4.1c0.7,0.1,1.5-0.2,2.2,0.1L-21.6,455.4z"/>
	<path id="Path_166" class="st63" d="M23.7,412.1c-0.9-0.1-0.6,0.6-0.6,1.1c-0.3,5.6,0.6,11.2,2.6,16.5c2.1,5.6,4.4,11.1,6.5,16.6
		c1.5,4,4.1,6.8,8.5,7.6h0.7c1.2-0.8,2.3-1.9,3.3-3c0.9-1.2,1.5-2.7,1.5-4.2c0-8.2-0.2-16.3-2.5-24.3c-0.5-1.6-1.2-3.2-1.8-4.8
		c-0.7,0-0.7,0.5-0.7,1c0,3.4,0.1,6.8,0.1,10.2c0,0.1,0.1,0.2,0.1,0.2c-0.3-0.4-0.2-0.8-0.3-1.2c-0.2-1.7-1.7-2.9-3.4-2.7
		c-0.1,0-0.2,0-0.3,0.1c-0.4,0-0.8,0.1-1.2,0.2c-4,0.7-4.9,1.9-4.6,6c0.1,0.3,0.1,0.7-0.1,1c0,0.1-0.3-0.2,0-0.1s0.1,0,0.1-0.1
		c0-0.8-0.3-1.5-0.8-2.1c-2.9-4.9-4.9-10.3-6-15.9C24.7,413.2,24.7,412.4,23.7,412.1z"/>
	<path id="Path_167" class="st64" d="M82.3,194.1h0.3l-0.3-11.3H82C81.2,184.5,81.4,192.5,82.3,194.1z"/>
	<path id="Path_168" class="st62" d="M-24.2,455.2c0,0.1,0,0.2,0.1,0.3l2.1-0.1C-22.7,454.7-23.4,455.2-24.2,455.2z"/>
	<path id="Path_169" class="st65" d="M-23.3,390c0.5-4.2,0.8-8.4,1.4-12.7c1.2-9.3,2.4-18.7,3.3-28.1c0.9-9.7,2.2-19.3,3.5-28.9
		c1.3-9.9,2.3-19.8,2.7-29.7c0.3-6.2,0.6-12.5,0.5-18.7c-0.1-7.8-0.1-15.6-0.8-23.3c-0.5-5.2-0.4-10.4-0.7-15.6
		c-0.5-8.5-0.3-17-1.1-25.4c1.4-0.4,1.8-0.2,1.9,1.2c0,1.6,0.1,3.2,0.3,4.7c0.8,3.9,1,7.9,1.9,11.8c0.2,1,0.4,1.9,0.8,2.9
		c0.3,0.7,0.6,1.5,1.6,1.4s1.2-0.9,1.3-1.6c0.2-1,0.3-2,0.4-3c0-0.7-0.3-1.9,0.5-2c0.9-0.2,1,1,1.4,1.7c0.1,0.3,0.2,0.5,0.3,0.8
		c0.6,1.9,1.3,3.8,2.3,5.5c0.4,0.7,0.9,1.5,1.9,1.2s1.1-1.1,1.1-2c0.1-1.4,0-2.8-0.3-4.2c-0.1-0.5-0.1-1,0.4-1.2s0.7,0.3,0.9,0.7
		c0.7,1,1.2,2.1,2,3.1c0.4,0.6,0.9,1.4,1.9,0.9s0.6-1.2,0.5-1.9c-0.3-1.7-0.7-3.4-1.1-5.1c-0.1-0.5-0.2-1,0.3-1.3s0.9,0.1,1.2,0.4
		c0.6,0.7,1.4,1.2,2.3,1.6c0.7,0.3,1.4,0.1,1.9-0.4c0.5-0.6,0.2-1.2-0.1-1.8c-0.3-0.6-0.7-1.1-1.1-1.6c-2.5-3.1-4.4-6.5-5.7-10.3
		c-0.6-1.1-0.8-2.3-0.6-3.6c0.3-0.7,1-0.7,1.6-0.9c2.6-0.8,3.5-1.9,3.6-4.7c0-2.6-0.3-5.2-0.7-7.7c-0.7-6-1.8-11.9-2.6-17.9
		c-0.3-2.2,0-2.5,2.2-2.8c2-0.3,4.1-0.4,6.1-0.7c5.7-0.9,11.5-1.6,17.3-1.9c10.9-0.6,21.8-0.3,32.6-1.2c2.2-0.2,2.6,0.2,3.4,2.3
		c3.2,9.2,6.6,18.4,7.6,28.3c0.3,4.4,0.3,8.9-0.2,13.3c-1.2,5.5-2.1,11.1-2.7,16.8c0,0.2,0,0.3,0,0.5c-0.1,0.5-0.2,1-0.2,1.5
		c-0.1,0.4,0,0.8,0.1,1.1c-0.2,0.4-0.3,0.7-0.3,1.1c-0.2,3-0.5,5.9-0.9,8.9c-0.7,6.1-1.6,12.1-2.3,18.2c-1,8.8-2.2,17.5-3.7,26.3
		c-3.2,19.1-7.8,37.9-11.4,56.9c-1.4,7.5-3.8,14.8-5.4,22.3c-1.9,9.2-4,18.3-5.2,27.6c-0.1,1.1,0.3,2.6-1.3,3.2
		c-0.3,0.6-0.9,0.9-1.6,0.8c-3.3,0.1-6.6,0.3-9.9,0.2c-1.4-0.1-2.8-0.3-3.5-1.8c-0.8-1.3-1.2-2.8-1.2-4.3c0.1-3.4,0.5-6.7,0.8-10.1
		c0.2-4,0.7-8,1.4-12c1.7-9.2,2.9-18.4,3.6-27.7c0.6-6.8,1.3-13.7,2-20.5c0.7-6.8,1.6-13.5,2.2-20.3c0.8-7.8,1.1-15.6,1.1-23.4
		c0-5.9,0.2-11.8,0-17.7c-0.3-8.4-0.5-16.8-0.7-25.2c0-1.1,0.1-2.1,0.2-3.1c0.1-2,0.1-4-0.1-6c-1.4,2.8-2.6,5.7-3.5,8.7
		c-2.2,7.4-4,14.9-5.3,22.4c-1.8,9.9-3.4,19.9-5.1,29.8c-1.9,11.5-3.6,23-6.4,34.4c-4.1,16.4-9.2,32.6-13.3,49
		c-1.7,6.7-3.7,13.3-5.8,19.8c-0.9,2.9-1.1,6.2-4,8.1c-4.9,0.3-9.8,0.3-14.2-2.5C-22.6,393-23.5,391.7-23.3,390z"/>
	<path id="Path_170" class="st66" d="M3.7,206c0.1-0.8,0.7-0.7,1.3-0.8c2.9-0.5,4.3-2.1,4.2-5.1c-0.2-4.8-0.8-9.5-1.7-14.2
		c-0.7-4.1-1.2-8.3-1.8-12.4c-0.1-0.7-0.1-1.3,0.9-1.4c7.2-0.4,14.3-1.8,21.5-2.4c10.1-0.8,20.1-0.6,30.2-1.1c2-0.1,4.1-0.3,6.1-0.5
		c1.1-0.1,1.6,0.3,1.9,1.3c2.7,7.6,5.5,15.2,7,23.1c0.8,4.5,1.6,9.1,0.9,13.7c-0.3,1.7,0.5,3.5-0.3,5.2c0.7,0.9,1.6,0.8,2.5,0.7
		c1-0.3,2.1-0.4,3.2-0.4c0.1-0.2,0.1-0.5,0.3-0.6c2.9-1.6,2.1-4.5,2.2-6.9c0-3.4,0.2-6.8,0.2-10.1L82,182.8
		c-0.5-7.6-1.5-15.1-2.6-22.6c-1.5-9.7-3.4-19.3-5-28.9c-0.9-5-1.3-10-1.1-15c0.2-4.2,0.8-8.3,1.2-12.5c0.5-4.9,1.2-9.7,1.9-14.5
		c0.2-2.1-0.8-4-2.6-5c-5.6-3.5-11.4-6.7-17.3-9.6c-2,0.6-4.2,0.8-6.2,1.4c-0.4,0.1-0.7,0.4-0.9,0.7c-1.7,2.4-3.9,4.4-6.3,6.1
		c-1.5,1.1-2.7,2.5-3.5,4.1c-2,3.8-4.8,7-8.3,9.4c-2.9,2.1-5.2,4.9-7.9,7.2c-1.8,1.5-2.6,1.3-4-0.6c-0.1-0.3-0.3-0.5-0.5-0.7
		c-5.4-5.3-9.1-11.9-14.5-17.2c-1.6-1.5-3.4-2.9-5.2-4.1c-2-1.4-3.6-3.1-5.6-4.5c-1.1-0.8-1.2-2.1-1.9-3.1c-5.7,4.8-11,10-15.9,15.6
		c-4,4.5-6.2,10.3-6.1,16.4c0.2,6.8,0.9,13.6,2.1,20.3c0.9,5.5,2.1,11,2.8,16.5c0.3,2.4,0.9,4.8,1.6,7.2c1.2,4,1.3,8.2,1.7,12.3
		c0.5,5.9,0.8,11.8,1.7,17.6c0.5,3.6,0.7,7.2,1.1,10.8c0.5,4.7,0.7,9.4,1.8,14c0.2,1.7,1.5,3,3.2,3.3c1-0.2,1.4,0.2,1.5,1.3
		c0.1,1.7-0.3,3.4,0.4,5c0.9-1.1,0.4-2.4,0.4-3.5c0.1-2,0.2-2.1,2.2-2.4c3.9-0.5,7.7-1.5,11.6-1.7C2.3,206.1,3,206.1,3.7,206
		L3.7,206z"/>
	<path id="Path_171" class="st65" d="M-8.4,73.5C-8.6,74.9-8,76.2-6.8,77c2.6,2,5.1,4.1,7.8,6c3.7,2.7,6.4,6.2,9.3,9.7
		c2.5,3.1,4.5,6.5,7.6,9.1c0.6,0.6,1,1.3,1.4,2c0.6,1.2,2,1.7,3.2,1.2c0.3-0.1,0.5-0.3,0.8-0.6c2.8-2.4,5.2-5.3,8.2-7.6
		c2.4-1.8,4.7-3.6,6.2-6.1c2.2-3.7,4.5-7.1,8.2-9.6c1.4-0.9,2.5-2.2,3.3-3.6c0.8-1.5,2.4-1.4,3.7-1.5c1.3-0.1,2.5-0.5,3.5-1.2
		c-0.4-1.8-1.5-3.3-3-4.4c-2.8-2.2-5.1-5-7.7-7.3c-0.8-0.7-0.8-1.2,0.1-1.7c2.1-1.3,4.3-2.7,6.3-4.1c4.7-3.2,8-7.3,9-13
		c0.4-2.4-0.3-4.8-0.9-7.1c-2.2-8.7-5.5-17-9.7-24.9C47.8,7.3,44,3.2,38.2,2c-4.5-0.9-9.1-2-13.8-1.8c-1.5,0.1-2.9,0-4.4-0.2
		c-2.6-0.2-5.3,0.4-7.6,1.7C7.2,4.6,3.7,8.8,0.8,13.9c-2.1,3.7-4.5,7.4-6.4,11.3c-1.5,3-1.8,6.3-2.2,9.5C-8.4,38.8-9,43-7.7,47.1
		c1.1,3.3,2.8,6.3,5.1,8.9c0.6,0.8,0.8,1.8,0.4,2.7c-0.9,4.7-2.7,9.2-5.4,13.2C-7.9,72.4-8.2,73-8.4,73.5z"/>
	<path id="Path_172" class="st67" d="M-8,397c-1.7-0.7-3.5-0.3-5.3-0.5c-2.9-0.3-5.7-0.5-8.2-2.1c-0.1-0.1-0.4,0.1-0.7,0.1
		c-2.4,6.5-4.4,13.1-5.8,19.9c1.1,0.1,0.6,1,0.7,1.5c0,3.6,0.2,7.3,0.7,10.9c0.1,0.7,0.3,1.4,0.5,2.3c0.8-2.2,1.5-4.2,2.3-6.1
		c0.9-2.2,2.2-2.8,4.7-2.4c1.9,0.3,2.7,1.1,3,3.5c0.1,2.4,0.4,4.9,0.7,7.3c1.9-4,3.3-8.2,4.1-12.5c0.6-3.8,0.9-7.6,2.2-11.3
		C-9,404-8.6,400.5-8,397z"/>
	<path id="Path_173" class="st67" d="M41.2,395.8c-4.4,0.7-8.8,0.8-13.3,0.2c-0.7-0.2-1.3-0.5-1.9-1c-1.1,5.6-1.8,11.3-2.4,17
		c0.6,2.5,1.3,4.9,1.9,7.5c1.1,4.8,3.8,8.8,6.2,13.1c0-0.9,0-1.8,0.1-2.7c0-0.6,0.1-1.2,0.2-1.7c0.9-3,3.7-2,5.7-2.6
		c1.4-0.4,2.2,0.7,2.6,2c0.2,0.7,0.4,1.3,0.7,2.4c0.7-3.7,0.2-7.1,0.3-10.4c0-0.7-0.3-1.4,0.3-2c0.1-4.8-0.6-9.5-0.7-14.3
		C41.1,400.8,41.2,398.3,41.2,395.8z"/>
	<path id="Path_174" class="st67" d="M79.6,211.8c-0.2-1-0.9-0.6-1.5-0.5c-1.4,0.3-2.8,0.9-4.2,0.2c-1.2,5.5-2,11.2-2.6,16.8
		c-0.1,0.8-0.8,2.3,1,2.4c1.7-1.2,1.8-3.3,2.6-5C77,221.3,78.6,216.6,79.6,211.8z"/>
	<path id="Path_175" class="st67" d="M3.7,206c-1.4-1.2-3-0.3-4.4-0.2c-3.5,0.3-6.9,1.4-10.5,1.6c-1.2,0.1-1.6,0.6-1.5,1.8
		c0.1,1.5,0.1,3,0.1,4.5c0.4,4.5,1.2,8.9,2.2,13.3c0.3,1.3,0.5,3.1,2.3,3s1.8-1.9,1.9-3.2s0.2-2.5,0.4-4.3c0.8,2.2,1.4,3.9,2.1,5.6
		c0.4,1.1,0.9,2.2,1.4,3.2c0.5,0.9,1.2,1.7,2.4,1.4c1.1-0.3,1.7-1.4,1.5-2.5c0.1-1.8,0-3.6-0.3-5.5c0.9,1.4,1.7,2.8,2.6,4.1
		c0.5,0.9,1.3,1.6,2.3,1.1s1-1.4,0.8-2.4c-0.5-2.1-0.9-4.2-1.4-6.4c0.8,0.2,1.1,0.8,1.6,1.2c1.6,1.4,3.4,1.9,4.2,0.9
		c1.3-1.5,0.1-2.8-0.8-3.9c-3.1-3.7-5.3-8-6.7-12.6C3.7,206.6,3.7,206.3,3.7,206z"/>
	<path id="Path_176" class="st67" d="M45.8,34.7c-0.6-4.3-1.6-8.6-3-12.7c-1.1-3.6-2.2-7.3-3.3-10.9c-0.5-1.6-1.2-3.1-2.1-4.4
		c-1.1-1.6-2.9-1-4.3-0.8C27.1,7,21.6,10.4,18,15.4c-2.9,3.7-5.5,7.6-7.9,11.6c-5,8.9-3.7,21.5,6,28.1c2.6,1.8,5.2,3.6,7.8,5.5
		c4.3,3,8.6,2.7,11.7-1.5c4.3-6,8-12.5,9.8-19.9C45.6,37.7,45.8,36.2,45.8,34.7L45.8,34.7z"/>
	<path id="Path_177" class="st68" d="M29.3,52.5c0.7-0.1,1.3-0.3,1.9-0.5c0.8-0.3,2-0.4,2.1-1.5c0.1-0.8-2.3-2.1-3.1-2.2
		c-1.7-0.2-3.4,0.1-5,0.8c-0.7,0.3-0.8,0.5-0.4,1.1C25.9,51.7,27.6,52.5,29.3,52.5L29.3,52.5z"/>
	<path id="Path_178" class="st69" d="M29.4,44.7c2-1.1,3.1-3.3,2.3-5c-1.1-2.2-2-4.5-2.4-6.9c-0.1-0.4-0.1-0.9-0.6-0.8
		c-0.6,0.1-0.4,0.6-0.4,1c0,1.8,0.4,3.5,1.2,5.1c1,1.9,1,4.1,0,6C29.3,44.2,29.2,44.4,29.4,44.7z"/>
	<path id="Path_179" class="st70" d="M14.8,22.5c3.3-0.2,6.6-0.8,10.1,0.1C23.6,20.2,18.6,20.2,14.8,22.5z"/>
	<path id="Path_180" class="st71" d="M41.5,25.7c-1.2-1.6-2.9-2.7-4.9-2.9c-0.6-0.1-1.4-0.1-1.5,0.7c-0.1,0.9,0.8,0.6,1.3,0.7
		L41.5,25.7z"/>
	<path id="Path_181" class="st72" d="M34.5,33.9c0,0.5,0.5,1,1,1c0.1,0,0.1,0,0.2,0c0.6,0,1-0.5,1-1.1c0-0.6-0.5-1-1.1-1
		c0,0-0.1,0-0.1,0c-0.6,0-1,0.4-1,1C34.5,33.7,34.5,33.8,34.5,33.9L34.5,33.9z"/>
	<path id="Path_182" class="st73" d="M18.7,33.9c0.6,0,1-0.4,1-1c0-0.1,0-0.1,0-0.2c0-0.6-0.5-1.1-1.1-1.1s-1.1,0.5-1.1,1.1
		C17.5,33.4,18,33.9,18.7,33.9C18.6,33.9,18.7,33.9,18.7,33.9z"/>
</g>
<g>
	<path id="Path_183" class="st74" d="M443.4,293v1.1c-0.3,1.5-0.4,3-0.3,4.5c0.2,10.1-1.2,20.2-2.5,30.2c-2,15-4.2,30-5.7,45
		c-0.6,5.5-1.1,11-1.6,16.5c0,1.3-0.4,2.5-1.2,3.5c-0.7,0.4-1.5,0.4-2.2,0.1c-13.1-3.8-26.5-6.1-39.8-9c-3.3-0.7-6.6-1.4-9.9-2.2
		c-0.7-0.8-0.5-1.7-0.2-2.5c4.3-14.9,6.6-30.2,10.2-45.2c2.8-11.7,6.3-23.1,9.5-34.7c0.4-1.5,0.3-3.1-0.3-4.5
		c-2.5-5.6-4.6-11.4-7.3-16.9c-6.1-12.1-12.8-24.1-19.2-36.1c-1.3-2.3-2.8-4.5-4.1-6.8l-0.1-0.2c-0.2-0.3-0.4-0.7-0.6-1
		s-0.4-0.6-0.6-0.4l0,0c0.1-0.6-0.1-1.2-0.5-1.7c-0.3-0.4-0.7-0.8-1.1-1.1c-0.6-1.6-1.3-3.2-2.1-4.7c-1.6-3.5-3.3-6.9-3.5-10.8
		c-0.3-4.8,0.8-9.5,3.1-13.7c1.1-0.6,1.7,0.3,2.1,1c2.7,4.6,6.1,8.7,8.6,13.4c1.5,2.7,3.3,5.3,5.2,7.8c1.3,1.8,2.2,1.9,3.5,0.1
		c2.4-3.2,4.5-6.6,6.7-10c0.6-1,0.7-2.3,0.3-3.5c-0.2-0.7-0.7-1.6,0.4-2.1c1.3-0.1,2.6,0,3.9,0.4c8.6,1.8,17.2,3.1,25.9,3.8
		c0.7,0,1.3,0.3,1.9,0.7c0.4,0.4,0.7,0.9,0.8,1.5c3.4,11.4,7.5,22.7,10.4,34.3c0.3,1.3,0.6,2.6,0.9,3.8c1.3,7.5,3.9,14.7,5.9,22
		c1.5,5.4,3.3,10.8,3.5,16.5C443.1,292.3,443.2,292.7,443.4,293z"/>
	<path id="Path_184" class="st75" d="M404.6,12h1.9c0.9,0.3,1.8,0.3,2.6,0h1.9c11.9,1.2,19.1,8.5,24.2,18.5c1.3,2.7,2,5.7,2.1,8.7
		c0.6,6.5-0.2,12.9-1.4,19.3c-1.6,9.3-3.6,18.7-4.8,28c-1,7.6-2.1,15.2-1.8,22.9c0.2,1.1,0,2.2-0.4,3.1c-0.9,0.7-1.5,0.1-2.1-0.4
		c-4.9-4.2-9.1-9-12.6-14.4c-2.2-3.7-3.1-8-2.6-12.3c0.2-1.9,0.4-3.9,0.7-5.8s1-3.5,3-4.1c2.9-1.3,4-4,5.1-6.5
		c4.4-9.6,6.1-20.2,5-30.7c-0.7-6.1-3.3-11.5-6.7-16.4c-2.1-3-4.2-3.3-7.1-1c-4,3.1-8.1,6.1-11.1,10.4c-2.4,3.5-2.9,7.5-3.3,11.4
		c0,0.6-0.1,1.2-0.1,1.9c-0.4,2.1-1.4,2.9-3.4,2.5c-2.9-0.7-4.3,1.3-3.3,4.2c0.5,1.7,1.9,2.9,3.6,3.3c2.4,0.6,3.2,2.3,3.5,4.5
		c0.6,4.7,0.8,9.5,1.1,14.3c0,8.5-2.8,15.7-9.8,21c-2.6,2-5.7,3.2-9,3.5c-3.4,0.3-6.8,1-10.1,2.1c-1.2,0.5-2.1,1.4-2.6,2.6
		c-0.9,1.5-1.8,3-2.6,4.6c-0.5,0.9-0.8,2.1-2.2,2s-0.9-1.4-1.4-2.2c-1.2-7.4-0.5-14.9,1.9-21.9c1.8-5.4,2.9-11.1,4.2-16.6
		c2.6-10.6,6.1-21,10.6-31c3-6.4,6.9-12.3,11.5-17.6c3-3.4,7-5.4,11.2-7.2C401.8,12.1,403.2,12.4,404.6,12z"/>
	<path id="Path_185" class="st76" d="M348,169.7c0.1,0,0.2,0,0.3,0c1.1,1.5,1.1,3.5,0,4.9H348L348,169.7z"/>
	<path id="Path_186" class="st75" d="M409.1,12c-0.8,0.6-1.9,0.6-2.6,0H409.1z"/>
	<path id="Path_187" class="st77" d="M360.4,118.8c-1.2-0.5-1.4-1.3-1.1-2.5c0.4-1.9,1.1-3.6,2.1-5.3c0.5-0.9,1.2-1.8,1.9-2.5
		c0.7-1.1,1.4-2.3,1.9-3.6l2.1-3.8c0.3-0.9,1.2-1.5,2.2-1.5c3.1-0.3,6.2,0.6,8.7,2.4c8.2,5.3,17.3,9.1,25,15.3
		c1,0.7,2.3,1.1,3.5,1.1c6.6,0.8,13.1,2.2,19.8,2.6c1.9,0.1,3.7,0.3,5.6,0.5c1.1,0,2.1,0.4,2.9,1c1.9,1.4,1.8,3.6,1.8,5.5
		c0,6.5-0.5,13-3.6,19c-2.3,4.9-3.7,10.3-4.1,15.7c-1,9.5-2.1,19.1-1.9,28.7c0.1,6.1,0.8,12.3,0.8,18.4c0.1,1.4-0.4,2.9-1.3,4
		c-1.3,1.6-2.9,1.8-5.3,0.4c-3.8-0.5-7.7-1-11.5-1.4c-5.9-0.5-11.6-1.9-17.3-2.9c-1-0.2-2.1-0.4-3.1-0.6c-1.2,0.6-1.8-0.3-2.3-1.1
		c-0.8-1.2-1.4-2.4-1.9-3.7c-3.8-10.4-8.3-20.5-11.8-31c-0.5-1.1-0.8-2.4-0.8-3.6c1.4-6.3,3.3-12.5,4.5-18.8
		c0.2-0.8,0.3-1.6,0.4-2.4c0.3-0.7,0.4-1.5,0.3-2.3c0.1-3.2,1.6-5.9,2.9-8.7c0.6-1.2,1.1-2.5,1.6-3.8c0.7-2,0.4-2.8-1.4-3.9
		c-6-3.9-12.2-7.2-18.8-9.9C361.5,119.8,360.9,119.4,360.4,118.8z"/>
	<path id="Path_188" class="st78" d="M360.4,386.9c0.9-0.7,2.4,0.3,2.9-0.7c0.4-0.8,0.1-2,0.2-3c1.8-16.6,2.1-33.3,2.3-50
		c0.2-14.4,0.6-28.8,1.2-43.1c0.6-15.3,0.6-30.5,0.2-45.8c-0.1-3.2-0.3-6.4-0.3-9.6l0.2-2.5c2.2,3.7,4.4,6.9,6.2,10.3
		c4,7.3,8.3,14.5,12,22c4.6,9.1,9.9,17.8,13.1,27.5c0.3,0.9,0.6,1.8,1.1,2.6c1.7,2.4,1.2,4.7,0.5,7.3c-2.7,9.3-5.3,18.6-7.8,27.9
		c-1.9,7.1-3.3,14.4-4.8,21.6c-2,9.5-3.8,19-6.5,28.3c-0.3,0.9-0.4,1.9-0.6,2.7c-2.8,0.5-4.3,2.6-5.7,4.8c-0.8,0.7-1.9,1-3,0.8
		c-3-0.3-6-0.4-9-0.4C361.7,387.7,360.9,387.5,360.4,386.9L360.4,386.9z"/>
	<path id="Path_189" class="st79" d="M373.3,170c1.1,4.5,3,8.7,4.5,13c2.2,6.3,4.9,12.4,7.4,18.5c0.8,1.9,1.4,4,2.3,5.9
		c0.5,0.9,0.9,1.8,2.1,1.9c1.5,2.9,0.7,5.3-1.2,7.8s-3.5,5.3-5.4,8c-1.5,2.2-2.8,2.2-4.4,0c-4.9-6.9-9-14.3-13.8-21.3
		c-0.4-0.6-0.5-1.3-1.3-1.6c-1-3-3-5.3-4.7-7.9c-3.2-4.7-6.1-9.6-8.8-14.7c-0.7-1.6-1.3-3.3-1.6-5c0-1.6,0-3.3,0-4.9
		c1.9-12.4,5-24.4,8.1-36.5c1.2-4.8,2.4-9.6,3.9-14.3c3.6,0.8,6.8,2.6,10,4.3c3.9,2,7.6,4.4,11.4,6.5c1.4,0.6,2.1,2.2,1.5,3.7
		c0,0,0,0.1,0,0.1c-0.4,1.3-0.9,2.5-1.4,3.7c-1.4,3-3,5.9-3.4,9.3c-0.2,0.5-0.3,1-0.4,1.5c-1.9,5.5-3.7,10.9-5.7,16.3
		c-0.4,1.1-0.4,2.3,0.2,3.3C373.1,168.2,373.3,169.1,373.3,170z"/>
	<path id="Path_190" class="st80" d="M374.4,386.5c0.4-0.3,0.3-0.8,0.5-1.2c0.6-2.2,2.9-3.5,5.2-3c3.8-0.2,7.4,1.2,11,1.9
		c10.4,2.1,20.8,4.4,31.1,6.7c3.2,0.7,6.4,1.7,9.6,2.6l1.5,0.4c1.7,0.4,2.2,1.2,1.6,2.8c-1.8,4.7-4.6,8.9-8.4,12.3
		c-1.4,1.3-3.2,2-5.1,1.9c-3.3-0.2-6.6-0.3-9.9-0.5c-6.7,0.6-13.1-1.8-19.6-2.5c-2.8-0.7-5.6-1.2-8.4-1.9c-2.3-0.5-4.6-1.4-6.7-2.5
		c-3.2-1.7-4.5-4.4-4.3-7.9c0.1-2.4,0.7-4.8,0.9-7.3C373.6,387.8,373.9,387.1,374.4,386.5z"/>
	<path id="Path_191" class="st79" d="M421.5,214.2c1.7-0.3,3.6,1,5.3-0.4c1.9,9.2,3.8,18.4,5.1,27.7c0.6,4,1.4,8,1.3,12.1
		c-3.2-12.9-7.6-25.5-11.5-38.2C421.7,214.9,421.6,214.5,421.5,214.2L421.5,214.2z"/>
	<path id="Path_192" class="st81" d="M379.3,469.6h-1.9c-1.2-0.1-2.4-0.2-3.5-0.3c-1.6-0.1-2.9-1.5-2.9-3.1
		c-0.2-2.1-0.2-4.2-0.4-6.3c-0.1-1.2,0.1-1.9,1.3-2.2c0.4-0.5,1.1-0.7,1.7-0.5c4.4,0.4,8.7-0.1,13.1,0.4c2.6,0.3,5.2-0.6,7.8-0.8
		c0.6,0,1.2-0.1,1.7-0.4c-0.9-0.9-1.9-1.7-2.9-2.5c-4.7-4.1-8.9-8.7-12.4-13.8c-1.6-1.9-1.7-4.6-0.2-6.6c0.9-1.3,1.4-2.8,2.2-4.1
		c0.6-1.3,1.9-2,3.2-1.9c1.2,0.3,2.2,1,2.9,1.9c2.9,2.9,5.4,6.2,8.4,9.1c3.3,3.3,7,6.3,10.6,9.3c0.5,0.4,1.1,0.8,1.7,1.2
		c2.6,1.6,2.6,1.6,4-1.1c0.3-0.7,0.8-1.3,1.6-1.5c2.6-1.7,4.1-1.3,5.7,1.3c1.2,2,2.7,3.8,4.4,5.4c2.3,2.3,4.3,4.8,5.9,7.6
		c0.4,0.7,0.7,1.4,0.9,2.1c0.7,2.7-0.5,4.3-3.3,4.4c-1.9,0-3.9,0-5.8-0.1c-8.6-0.4-17.2,0.8-25.7,1.6c-5.1,0.5-10.1,0.7-15.2,1.1
		L379.3,469.6z"/>
	<path id="Path_193" class="st82" d="M374.4,386.5c-0.4,3.8-1.6,7.5-1.2,11.5c0.3,2.4,1.6,3.8,3.5,5c4.1,2.5,8.7,2.9,13.3,3.9
		c0.7,0,1.3,0.3,1.8,0.9c0.7,2.4,0.1,5-1.7,6.8c-1.6,0.6-3.1-0.1-4.7-0.1H377c-0.9,0.1-1.9-0.1-2.6-0.7c-4.7-0.1-9.4,0.4-14.1-0.7
		c-2.3-0.6-3.6-1.7-4.1-4c-1.1-5.9-1.8-11.8-2.2-17.7c-0.3-1.7,0.8-3.3,2.5-3.6c0,0,0,0,0,0c1.2-0.5,2.5-0.7,3.8-0.8
		c3.8,0.1,7.6-0.2,11.4,0.4C372.7,387.4,373.7,387.2,374.4,386.5L374.4,386.5z"/>
	<path id="Path_194" class="st83" d="M374.4,413.7c5.3,0,10.6-0.2,15.9,0.3c0.4,0.5,0.5,1.3,0.3,1.9c-0.9,3.7-2.4,7.2-3.7,10.8
		c-0.1,0.4-0.4,0.6-0.7,0.8c-1.3-0.1-2.5,0.6-3,1.9c-0.9,1.7-1.9,3.4-2.7,5.1c-0.7,1.4-0.5,3,0.4,4.3c3.5,5.1,7.6,9.7,12.1,13.8
		c0.2,0.2,0.4,0.5,0.6,0.7c0.5,1.3,2.1,2.1,1.6,3.7c-3.5,0.9-7.2,1.2-10.8,0.9c-2.4-0.2-4.8-0.2-7.1,0c-1.8,0-3.6-0.2-5.4-0.4
		c0.9-5.4,3-10.5,3.8-15.9c0.8-6.1,0.9-12.3,0.1-18.4C375.4,420,374.8,416.9,374.4,413.7z"/>
	<path id="Path_195" class="st79" d="M398.2,73.5c-0.4-5.1-0.6-10.3-1.4-15.4c0-1.3-1-2.3-2.2-2.6c-3.5-1-5.4-3.4-5.2-6.3
		c0-1.7,1.3-3,2.9-3.1c0.4,0,0.8,0.1,1.1,0.2c2.3,0.6,3,0.2,3.3-2.2c0.2-1.8,0.3-3.6,0.5-5.4c0.5-3.8,2.2-7.4,4.9-10.2
		c3.5-3.7,7.2-7.1,11.8-9.5c1-0.6,2.3-0.4,3.1,0.3c1.4,1,2.6,2.3,3.4,3.7c5,8,7,17.5,5.7,26.8c-1,8.2-2.9,16-7.2,23.1
		c-0.8,1.4-1.7,2.7-3.4,3.1c-0.9,0.2-1.7,0.5-2.4,0.9c-1.7,0.9-3.6,0.5-5.3,0.2C404.4,76.5,400.9,75.9,398.2,73.5z"/>
	<path id="Path_196" class="st83" d="M398.2,73.5c2.3,0.5,4.3,1.8,6.6,2.4c3.2,0.8,6.4,1.6,9.7,0.3c0.4-0.1,0.7-0.1,1.1,0
		c-1.8,0.5-2.4,1.8-2.6,3.5c-0.9,6.5-1.7,13.1,2.4,18.8c2.5,3.6,5.4,7,8.5,10.1c1.5,1.5,2.8,3.2,4.8,4.1c2.6,2.9,5.3,5.9,6.4,9.8
		c-4.8-0.5-9.6-0.9-14.4-1.5c-5.4-0.7-10.8-1.5-16.2-2.3c-0.4-0.1-0.8-0.3-1.2-0.5c-5.8-4.8-12.4-8.1-18.8-11.7
		c-1.8-1-3.6-2.1-5.3-3.3c-3-2.1-6.4-2.8-9.8-3.7c3-1.4,6.2-2.1,9.4-2.1c9.7-0.4,18.2-10,18.9-19.8
		C397.9,76.2,398.1,74.8,398.2,73.5z"/>
	<path id="Path_197" class="st79" d="M386.1,427.6c0.6-3.4,2.2-6.5,3.2-9.7c0.4-1.3,0.6-2.5,0.9-3.8c0.8-2,1.3-4.2,1.6-6.3
		c0.2-0.3,0.6-0.4,1-0.4c6.1,1.4,12.3,2.4,18.5,3.2c-0.8-0.1-1.5,0.4-1.7,1.1c-2,5.1-3.5,10.4-4.3,15.8c-0.2,2.4,0.3,4.8,1.4,6.9
		c2.1,4.4,4.9,8.4,8.3,11.8c-1,1.4-1.7,3.1-2,4.8c-4.5-1.4-7.5-4.8-11-7.5c-4.9-3.9-8.9-8.8-13.1-13.5
		C388.2,429,387.2,428.2,386.1,427.6z"/>
	<path id="Path_198" class="st84" d="M378.3,148.6c-0.1-0.4,0-0.8-0.4-1.1c0.1-0.5,0.3-0.9,0.6-1.2
		C378.7,147.1,378.6,147.9,378.3,148.6L378.3,148.6z"/>
	<path id="Path_199" class="st85" d="M395.2,457c-0.5-1.3-1.7-2.2-1.6-3.7l3.9,3.1C396.8,457,396,457.2,395.2,457z"/>
	<path id="Path_200" class="st86" d="M414,67c-1.9-0.2-3.7-1-5.1-2.3c-0.3-0.3-0.8-0.5-0.7-1c0.1-0.4,0.6-0.3,0.9-0.5
		c2.6-1.3,5.1,0,7.6,0.1c1,0.1,1.8,0.9,1.9,1.9c0.1,0.9-1,1-1.7,1.3C416.1,66.9,415,67.1,414,67L414,67z"/>
	<path id="Path_201" class="st87" d="M415.1,44.8c0.8,3.3,2,6.5,3,9.8c0.6,1.9-0.8,3.6-3.1,4.7c-0.3-0.7,0.3-1,0.6-1.4
		c1.3-1.7,1.4-4,0.3-5.8C414.5,49.8,414.7,47.3,415.1,44.8z"/>
	<path id="Path_202" class="st88" d="M405.8,33.5h1.4c0.7,0,1.4,0.3,1.4,0.9s-0.9,0.4-1.3,0.4c-1.9,0.1-3.7,0.4-5.5,0.9
		c-0.4,0.1-1,0.7-1.3-0.1s0.3-1,0.9-1.3C402.8,33.9,404.3,33.6,405.8,33.5z"/>
	<path id="Path_203" class="st89" d="M424.9,39c-2.3-1.2-4.3-2.4-6.7-2.8C420,34.5,424,36.1,424.9,39z"/>
	<path id="Path_204" class="st90" d="M407,44c-0.1,0.7-0.4,1.2-1.2,1.1c-0.6,0-1.1-0.5-1.1-1.1c0-0.1,0-0.1,0-0.2c0-0.6,0.5-1,1.1-1
		c0,0,0,0,0,0c0.6-0.1,1.1,0.3,1.2,0.9C407,43.8,407,43.9,407,44L407,44z"/>
	<path id="Path_205" class="st91" d="M420.9,46.8c-0.7-0.1-1.2-0.4-1.2-1.2c0-0.6,0.4-1.1,1-1.1c0.1,0,0.1,0,0.2,0
		c0.6,0,1,0.4,1.1,1c0,0,0,0.1,0,0.1c0.1,0.6-0.3,1.1-0.9,1.2C421,46.8,420.9,46.8,420.9,46.8L420.9,46.8z"/>
</g>
<g>
	<g id="cPWrMh" transform="translate(377.571 13.012)">
		<path id="Path_206" class="st92" d="M-262.9,60.5c0.4,0.3,0.7,0.6,1.1,0.9c0.8,1.1,2.1,1.8,3.5,1.7c3.9,0.2,7.6-1.4,10.9-3.2
			c1.7-0.9,3.4-2.1,5.1-3.2c-0.5,4.7,0.9,9.3,0.9,13.9c0.1,1.2,0.5,2.3,1.2,3.2c-1.9,0-3.3,1.1-5,1.7c-4.6,1.7-9.5,2.4-14.4,2.1
			c0-3.1-1.2-5.8-2.5-8.5c-0.8-1.7-2.1-3.1-2.9-4.8c-0.9-1.8-1.5-3.7-1.9-5.6c-0.1-0.2,0-0.4,0-0.5c0.2-0.3,0.7-0.1,1,0.2
			C-265,59.2-263.9,59.7-262.9,60.5z"/>
		<path id="Path_207" class="st93" d="M-298.9,249.5c-2.4-0.5-4.9-0.3-7.3-0.6c-0.8-0.1-1.6-0.1-1.9-1s0-1.8-0.5-2.6v-0.7
			c0.2-1.1,0.2-2.2-0.2-3.3l-0.1-1.8c0.5-3.5,0.2-7.1,0.2-10.7c0.1-8.4,0.9-16.7,2.3-25c0.1-0.3,0.3-0.7,0.5-0.7c2.4,0,4-1.9,6-2.7
			c1.1,0.3,1.1,1.2,1.1,2.1c0,0.2,0,0.4-0.1,0.5c-0.7,2.3-0.7,2.3,1.3,3.4c0.9,1.3,0.9,2.9,1.3,4.3c2.1,7.3,3.8,14.7,4.9,22.2
			c0.9,5.3,3.7,9.7,7.2,13.7c0.9,1.1,1.9,2.1,2.7,3.2s0.6,1.6-0.7,1.7c-4.7-1.1-9.5-0.7-14.2-1.2
			C-297.1,250.2-298.1,250-298.9,249.5z"/>
		<path id="Path_208" class="st94" d="M-308.8,241.3c0.7,1,0.7,2.2,0.2,3.3L-308.8,241.3z"/>
		<path id="Path_209" class="st94" d="M-308.5,245.3c0.8,0.7,0.3,1.7,0.5,2.6c-0.1,0-0.2,0-0.3,0L-308.5,245.3z"/>
		<path id="Path_210" class="st95" d="M-245.3,459.3V459c0.6-0.6,1.6-0.7,2.2-0.1c0,0,0,0,0,0c0,0.1,0,0.2,0,0.4L-245.3,459.3z"/>
		<path id="Path_211" class="st96" d="M-300.1,73.3c-1.2-6.2,0.5-12.7,4.7-17.5c4.3-5.2,7.1-11.4,8.1-18c1-6.1,3.8-11.6,6.9-16.9
			c0.7-1.1,1.6-2.1,2.7-3c7.2-6.7,15.2-12.3,23.9-16.8c2.7-1.4,5.4-1.7,8,0.4c0.7,0.4,1.4,0.7,2.2,0.7c4.6,0.7,8,3.1,10.9,6.6
			c5.9,7.2,9.3,15.4,12.3,24.1c2.4,7,3,14,3.1,21.1c0.1,6,0.3,12,0.9,18c0.5,5,2.3,9.6,6.8,12.5c1.2,0.7,2.1,1.9,2.4,3.3
			c0.5,1.5-0.4,2.1-1.7,2.4c-1.8,0.2-3.5,0-5.2-0.6c-6.1-1.9-11.8-4.7-17.6-7.4c-4-1.9-6.7-5.1-9.2-8.6c-0.7-0.8-1-1.8-1.1-2.8
			c-0.2-3.4-0.5-6.8-1-10.3c-0.1-1.2-0.1-2.4,0.2-3.6c0.6-3.5,1.6-7,3-10.3c1.9-5,3.9-9.8,5-15c1.6-6.7,0.1-13.7-4.2-19
			c-1.9-2.4-4.1-4.7-6.4-6.7c-0.7-0.7-1.8-0.8-2.6-0.3c-2.6,1.4-4.9,3.2-6.9,5.3c-4.5,4.3-8.5,9-12,14.1c-3,4.8-3.7,10-4,15.5
			c0,2.7,0.3,5.5,1.1,8.1c1.1,4.9,5.3,8.4,6.1,13.4c0.2,1,0.2,2.1,0.4,3.1c0.4,2.1,1.9,3.7,2.6,5.7c0.8,2,1.3,4.2,1.6,6.3
			c0.6,5.8-1.2,11-3.8,16c-1.5,2.9-2.9,5.8-4.2,8.7c-1.1,2.6-1.6,5.4-1.4,8.2c0.2,3,0.3,5.9,0.6,8.9c0.5,6-1.1,11.9-4.7,16.8
			c-1.7,2.3-3.2,4.7-4.6,7.2c-0.3,0.5-0.6,1.1-0.9,1.5c-0.4,0.7-1.2,1.1-2,1.1c-0.9-0.1-1.3-0.8-1.6-1.6c-0.5-1.6-0.8-3.2-0.9-4.8
			c-0.6-3.7-2.3-7.2-4.9-10c-2.3-2.6-4.8-5-7.4-7.3c-3.2-2.3-5.6-5.4-7-9c-1.8-4.3-0.9-8.6,0.3-12.8c1.1-3.6,2.5-7.1,3.2-10.8
			c0.8-4.7,0.9-9.2-1.2-13.5C-300,75.1-300.2,74.2-300.1,73.3L-300.1,73.3z"/>
		<path id="Path_212" class="st97" d="M-240.3,73.9c3.1,4.4,7.4,7.8,12.4,9.7c4.5,1.8,8.9,3.9,13.5,5.5c1.5,0.6,3.2,0.9,4.8,0.9
			c1.4,0,2.3-0.6,2.5-2.1c2.2,2.9,3.6,6.2,4.2,9.7c0.6,2.8,1,5.7,1.2,8.6c0.1,2.4,0,4.8-0.3,7.2c-0.3,2.5-0.3,4.9-0.2,7.4
			c0.1,1.9,0.1,3.9-1.1,5.6c-0.9,0.8-2.1,0.6-3.1,0.3c-5.2-1.3-10.7-1.1-15.7-3.2c-0.8-0.3-1.3,0-1.5,0.8c-0.1,0.2-0.1,0.5-0.2,0.7
			c-0.7,6-2.2,11.9-2.6,18c-0.2,2.7-0.6,5.4-1.2,8c-0.4,2-0.5,5.6-1.6,7.3c-1,1.5-4.2,2.5-5.8,3.2c-2.2,0.9-4.4,1.7-6.7,2.5
			c-3.7,1.3-8.1,3.9-12,3.1c-9.7-1.9-19.2-4.6-28.9-6.2c-2.4-0.5-4.7-1.1-7-1.9c-1-0.2-1.9-0.8-2.5-1.7c-0.7-2.2-1.2-4.5-1.3-6.8
			c-0.3-5-0.9-9.9-1.6-14.8c-0.6-4.2,0-8.5-0.4-12.7c0-0.5-0.1-1.3,0.7-1.4c3,2.7,5.9,5.6,8.5,8.7c2.4,3.1,3.9,6.9,4.3,10.8
			c0.1,0.9,0.4,1.9,0.5,2.9c0.1,0.7,0.4,1.3,1.1,1.5s1.3-0.3,1.6-0.9c0.9-1.6,1.8-3.2,2.8-4.7c1.4-2.3,3-4.5,4.4-6.9
			c2.3-3.9,3.3-8.4,3-12.9c-0.2-3.5-0.4-7-0.6-10.5c-0.2-3.2,0.6-6.5,2.1-9.3c1.9-3.8,3.8-7.6,5.5-11.5c1.6-3.5,2.2-7.4,1.9-11.2
			c0.4-0.4,0.9-0.6,1.5-0.5c5.3,0.5,10.2-1,15-2.9C-242.3,73.8-241.3,73.1-240.3,73.9z"/>
		<path id="Path_213" class="st93" d="M-253.6,253c-1.3-0.4-2.7-0.7-4.1-0.8c-0.3,0.2-0.7,0.2-1.1,0.1c-2.7-0.6-5.4-0.8-8.1-0.7
			c-1.3-0.5-2.9,0.4-4.1-0.5c0.1-2.6-1.4-4.5-2.6-6.6c-0.3-0.6-0.9-1.2-0.4-1.9s1.4-0.1,2,0.1c1.1,0.4,2,1.2,3,1.7
			c0.6,0.3,1.2,0.5,1.7,0s0.4-1.1,0.2-1.7c-0.6-1.9-0.6-1.9,1.3-2.3s2.5-1.6,1.4-3.3c-0.6-0.9-1.3-1.8-2.1-2.5
			c-3.1-3.4-5.7-7.2-8.5-10.9c-2.1-2.8-3.6-5.9-4.7-9.2c-1.7-5.2-3.6-10.3-4.6-15.7c-0.3-0.8-0.3-1.7,0-2.5c2.5-2.1,5.5-3.5,8.4-5.1
			c4.7-2.8,9.9-4.1,15.1-5.5c6.9-1.8,13.9-3,20.6-5.5c4.2-1.5,8.6-1.9,13-2.6c3.4-0.5,6.6-1.7,9.5-3.5c0.6-0.4,1.2-0.9,2-0.7
			c1.8,3.7,2.4,7.9,3.3,11.9c1.9,9,4,18,5.8,27c1.4,6.7,2.3,13.5,2.8,20.3c0.2,4.1,0.7,8.1,1.3,12.1c0.3,1.8-0.5,3.6-2,4.5
			c-2,1.4-4.3,2.5-6.6,3.3c-0.6,0.6-1.3,1.1-2.1,1.4c-2.2,0.9-4.5,1.9-6.8,2.7c-1.9,0.7-2.9,0.2-3.6-1.7c-0.9-2.8-1.4-5.8-1.5-8.7
			c-0.5-5-1.7-9.8-2.6-14.7c-0.3-1.2-0.5-2.4-0.6-3.6c0-0.3,0-0.7,0-0.6s0,0.5,0,0.9c-0.4,2.1-0.9,4.3-1.6,6.3
			c-1.5,4.5-2.5,9.1-3,13.8c-0.1,1.6-0.4,3.1-0.6,4.7c-0.4,2.4-1.2,2.9-3.5,2.5c-1.9-0.2-3.9-0.4-5.8-0.3c-3.1-0.3-6.1-0.8-9.1-1.4
			C-252.7,253.6-253.2,253.3-253.6,253L-253.6,253z"/>
		<path id="Path_214" class="st98" d="M-228.1,227.4c1.6,7.8,3.4,15.6,4,23.6c0.2,1.3,0.5,2.6,0.9,3.9c0.4,1.5,1.3,1.9,2.7,1.3
			l9.2-3.7c-4.4,15.6-8.6,31.3-10.6,47.4c-1.1,7.4-0.9,14.9,0.7,22.3c0.9,3.7,0.2,7.5,0.4,11.3c0.3,7.9-0.2,15.9-1.4,23.8
			c-2,12.7-4.1,25.4-5.5,38.2c-0.8,7.1-1.1,14.1-1.5,21.2c-0.2,3.5-0.6,7-1.3,10.5c-0.7,2.5-1.6,5-2.7,7.5c-0.6,1.4-0.9,2.9-1.4,4.3
			c-0.1,0.4-0.3,0.9-0.8,0.9s-0.6-0.6-0.7-0.9c-0.2-1.3-0.5-2.5-0.7-3.7c0-1.2-1-2.2-2.2-2.1c0,0,0,0,0,0c-0.7-0.1-1.4-0.2-2.2-0.2
			c-1.4-0.2-2.7,0.5-3.2,1.9c-0.5,1.3-1.1,2.6-1.7,3.8c-0.3,0.6-0.4,1.5-1.3,1.3s-0.9-1.1-0.9-1.9c0.1-2.2,0-4.4,0.3-6.5
			c0.3-2.5,0.3-5.1,0.4-7.6c3.5-9,4.8-18.6,3.9-28.2c-0.4-4.1-0.5-8.2-0.7-12.4c-0.2-6.3-1-12.6-1.6-18.9c-0.1-1.6-0.4-3.1-0.4-4.7
			c-0.4-11.3-1.9-22.5-2.8-33.8c-0.5-6.9-0.5-13.8-0.2-20.7c0.5-13.1,0-26.2-1.6-39.3c-0.6-4.3-1.6-8.6-2.8-12.8
			c1.8,0.3,3.6,0.6,5.4,0.9c2.8,0.6,5.6,0.8,8.5,0.8c0.8,0,1.6,0,2.4,0.2c2.6,0.6,3,0.4,3.2-2.3c0.6-8.5,3.1-16.6,5.4-24.8
			C-228.6,227.5-228.6,227.2-228.1,227.4z"/>
		<path id="Path_215" class="st38" d="M-215.7,173.3c-4.1,3.1-9,4.9-14.1,5.2c-5.8,0.4-11.2,2.6-16.7,4c-5.8,1.4-11.6,2.9-17.4,4.3
			c-4.5,1.2-8.7,3-12.7,5.3c-2.5,1.4-4.9,2.8-7.4,4.3c-0.6,1.3-2.1,1.6-3.1,2.3c-3,2.1-6.1,3.8-8.6,6.5c-0.5,0.5-1,1.3-1.9,1.1
			c-2.4-0.1-2.6-0.8-1.2-3.6c0.2-0.8,0.1-1.8,0.7-2.6c-0.6,0.2-1.1,0.3-1.6,0.5c-1.7,1.6-3.4,3.1-6,2.8c-0.1-1.2,0.2-2.5,0.8-3.5
			c0.8-1.6,1.9-3.1,3.2-4.4c0.2-0.3,0.4-0.6,0.7-0.8c-0.3,0.1-0.4,0.4-0.5,0.6c-1.3,1.3-2,3.1-3.7,3.9c-0.8,0.9-1.7,1.7-2.7,2.4
			c-1.5,1.1-2.5,0.6-2.8-1.3l4.9-6.1c-0.2-0.5-0.3,0-0.5,0c-1.1,0.4-2.5,1.5-3.4,0.1s0.3-2.4,1.3-3.3c1.2-1.2,2.3-2.4,3.6-3.5
			c0.8-0.6,1.2-1.5,1-2.5c0.7,0.1,1.4-0.1,2-0.6c4.4-3.5,9.5-5,14.9-5.7c4.4-0.4,9,0,13.3-1.5c2.4-0.9,4.8-1.9,7.2-3.1
			c1.5-0.7,3-1.3,4.6-1.7c2.5-0.9,4.8-2,7-3.3c3.2-1.8,6.5-2.6,9.9-3.9l12.2-4.7c2.8-1,3.3-2.5,3.8-5.2c0.5-2.4,0.9-4.8,1.2-7.2
			c0.7-4.6,1.3-9.2,1.9-13.8c0.4-3.3,1.2-6.7,1.7-10c0.2-1.2,0.5-1.9,2-1.2c4.5,2.1,9.5,1.9,14.1,3c1.5,0.5,3.1,0.6,4.7,0.5
			c0,3.6-0.4,7.3-1.2,10.8c-1.5,7.8-2.4,15.7-3.4,23.5C-208.9,166.1-211.1,170.3-215.7,173.3z"/>
		<path id="Path_216" class="st97" d="M-299.8,96.3c2.7-7.7,3.6-15.4-0.4-23c-1.3,1.4-2.7,2.6-4.4,3.5c-2.7,1.9-5.2,4-6.1,7.4
			c-0.5,1.7-0.7,3.6-1.2,5.3c-2.1,6.9-3.8,14-5,21.2c0,0.1,0,0.2,0,0.3c0.1,0.1,0.2,0.1,0.3,0.1c2,0.3,3.9,0.7,5.8,1.3
			c1.8,0.7,3.7,1,5.7,1c1.2,0.1,2.4,0.5,3.5-0.2c-0.6-2-0.9-4.1-0.9-6.2C-302,103.4-301.1,99.8-299.8,96.3L-299.8,96.3z"/>
		<path id="Path_217" class="st99" d="M-247.4,423.7c0.7,1.2,0.5,2.6,0.4,3.9c-0.2,3.4-0.4,6.9-0.6,10.3c0,0.6,0.2,1.3,0.6,1.8
			c0.8-2,1.7-3.7,2.4-5.6c0.4-1.3,1.7-2.2,3.1-2c1.1,0.1,2.2,0.1,3.3,0.3c1.2,0.1,2.2,1.1,2.2,2.3c0.2,1.6,0.4,3.2,0.8,4.7
			c1.3-4.3,2.9-8.4,4.9-12.4c0.3,3.4-0.5,6.6-1.1,9.9c-1.1,5.2-2.6,10.2-4.4,15.2c-1.2,3.5-3.3,6-7.1,6.8l-2.2,0.1
			c-4.1-0.7-7.1-4.8-6.5-9.5c0.3-2.9,0.1-5.8,0.1-8.7c0.1-5.5,2.1-10.6,3.4-15.8C-248.2,424.5-248.3,423.7-247.4,423.7z"/>
		<path id="Path_218" class="st98" d="M-266.9,251.2c3.1-0.3,6.3,0,9.2,1c-2.4,9.1-4.1,18.5-5,27.9c-0.5,6.2-1,12.3,0,18.5
			c0.5,2.7,0.1,5.6,0.3,8.4c0.6,7.9,1.4,15.9,2,23.8c0.5,7-0.1,14.1-0.7,21.1c-0.8,7.5-1.2,15-1.1,22.5c0.1,5.8-0.2,11.5,0.5,17.3
			c0.6,4.5,1.5,9,1.4,13.6c-0.1,5.8,1.5,11.5,1.1,17.4c-1.5,4-3.5,7.7-5.9,11.2c-0.2,0.4-0.5,0.7-0.7,1c-0.3,0.3-0.7,0.8-1.2,0.6
			s-0.5-0.7-0.6-1.1c-0.7-2.9-1.9-3.9-4.8-4.3c-0.9-0.1-1.9-0.2-2.9-0.3c-0.6-0.1-1.3-0.1-1-1.1c2.6-9.5,2.6-19,1.4-28.7
			c-1.1-9.3-4.9-17.7-7.3-26.6c-2.5-9.3-4.5-18.7-6.1-28.2c-1.6-8.6-2.6-17.4-2.9-26.1c-0.1-5.4-0.1-10.8-0.3-16.2
			c-0.2-6.3-1.3-12.4-3.1-18.4c-1.1-3.7-1.3-7.6-1.9-11.5c-1.1-7.7-1.9-15.5-2.3-23.4c5.7,0.7,11.4,0.1,17,1.6
			c1.5-0.1,3.1,0.6,4.7,0c1-0.2,2.1-0.2,3.1-0.1C-271.7,251.2-269.3,251.2-266.9,251.2L-266.9,251.2z"/>
		<path id="Path_219" class="st99" d="M-276.4,428.7c0.1,0.8,0.7,0.7,1.2,0.7c1.3,0,2.6,0.1,3.9,0.4c2.7,0.7,4.3,2.3,4.2,5.4
			c2.1-2.5,3.9-5.2,5.3-8.1c0.5-1,0.9-2.1,1.3-3.2c0.2-0.6,0.4-1.3,1.2-1.4c1.1,1.7,0.2,3.4,0.1,5.1c-0.2,3.7-2,6.8-3.9,9.9
			c-2.4,3.9-4.6,8-6.5,12.2c-2,4.4-5.8,7.8-10.5,9.1c-4.5,1.4-8.4-2.6-7.2-7.3c1.3-5,3.6-9.7,6.5-13.9c0.8-1.1,1.4-2.4,1.7-3.7
			C-278.6,431.9-277.7,430.1-276.4,428.7L-276.4,428.7z"/>
		<path id="Path_220" class="st100" d="M-277.4,251.4c-1.6,1.2-3-0.2-4.5-0.4c0.9,0,1-0.2,0.3-0.9c-2.6-2.7-5-5.7-7-8.8
			c-2-3.4-3.3-7.2-3.7-11.1c-1.1-7.1-2.7-14.1-4.8-21c-0.3-0.9-0.5-1.9-0.7-2.8c4.1-3.9,8.7-7.3,13.7-10c2,9.7,4.1,19.4,10,27.7
			c2.8,3.9,5.7,7.7,8.9,11.3l0.1,0.1c0.9,1.2,2.4,2.4,1.7,4.1s-2.4,1.3-3.9,1.5c-0.1,0.8,0.5,1.2,0.8,1.8c0.3,0.7,0.2,1.5-0.3,2
			c-0.5,0.6-1.4,0.7-2,0.3c-1.7-0.8-3.1-2.1-5.5-2.8l2.8,5c0.6,1.1,1.2,2.2,0.5,3.4c-0.6,0.9-1.4,0.6-2.2,0.5
			c-2.1-0.9-3.1-3-4.7-4.4C-277.7,248.3-276.3,249.8-277.4,251.4z"/>
		<path id="Path_221" class="st101" d="M-299.9,200.6l2.4-1.7c-0.2,1.7-1.2,2.7-1.5,3.9C-299.1,201.9-298.8,201-299.9,200.6z"/>
		<path id="Path_222" class="st100" d="M-312.3,115.4c-0.1-3.6,0-3.7,3.5-3c2.4,0.5,4.9,0.6,7.3,0.9c1.4,3.4,3.7,6.3,6.7,8.5
			c-0.2,0.2-0.4,0.5-0.3,0.8c0.6,6.6,0,13.3,1.5,19.8c0.2,1,0.2,1.9,0.2,2.9c0.2,4.2,0.7,8.3,1.5,12.4c1.2,1.2,0.9,2.8,1.3,4.3
			c0.4,2,0.6,4,1.1,6.1c0.1,2.2,0.9,4.2,1.4,6.3c0.4,1.6,1.2,3.1,0.8,4.7c-5.5,0.5-10.7,2.5-15.1,5.9c-0.7,0.6-1.2,0.9-1.7-0.2
			c-1.9-14.5-4.5-28.9-5-43.5c-0.1-4.4-1.1-8.8-1.9-13.1c-0.2-1.1-0.4-2.3-0.4-3.4C-311.5,121.6-311.8,118.5-312.3,115.4z"/>
		<path id="Path_223" class="st102" d="M-301.6,195.5c-1.3,1.4-2,3.1-3.5,4.3c-0.4-0.1-0.4-0.4-0.4-0.7l3.4-4.2
			C-301.4,194.7-301.5,195.2-301.6,195.5z"/>
		<path id="Path_224" class="st67" d="M-263.9,61.1c-1.2-1.1-2.2-2.4-3.1-3.7c-2.3-3.2-3.8-6.9-4.5-10.8c-0.4-2.5,0-5.2,0.1-7.7
			c0.1-10.6,6.2-18.2,13.2-25.2c1.2-1.1,2.4-2.3,3.4-3.5c1.9-2.5,4.7-3.7,7.2-5.2c0.5-0.4,1.2-0.4,1.6,0.1c0,0,0,0,0,0.1
			c2.4,2.1,4.6,4.3,6.7,6.7c4.7,5.4,6.5,12.7,4.9,19.7c-1.3,6.3-3.9,12.1-6,18.1c-0.8,2.3-1.5,4.7-2,7.2c-1.1,1.7-3,2.5-4.6,3.4
			c-3.6,2.3-7.7,3.5-11.9,3.5C-260.8,63.5-262.6,62.5-263.9,61.1z"/>
		<path id="Path_225" class="st103" d="M-289.8,168.1c-1.1-2.3-1-4.9-1.5-7.3c-0.1-1.1-0.3-2.1-0.6-3.2c3.5,1.7,7.2,2.8,11.1,3.3
			c7.9,1.3,15.5,3.6,23.4,5.1c2,0.4,4,0.8,6,1.3c-3.3,2.1-6.7,3.9-10.4,5.4c-8.7,0.3-17-1.9-25.5-3.3
			C-288.2,169.2-289.2,169.2-289.8,168.1z"/>
		<path id="Path_226" class="st104" d="M-273.1,250.9c0.7,0.4,1.6,0.3,2.2-0.1c1.3,0.9,2.8-0.3,4.1,0.4c-2.5,0.2-4.9,0.6-7.4,0.2
			C-274,250.9-273.5,251.1-273.1,250.9z"/>
		<path id="Path_227" class="st105" d="M-228.1,227.4l-0.6,0.4c-0.1-0.5,0.1-0.9,0.5-1.2L-228.1,227.4z"/>
		<path id="Path_228" class="st93" d="M-289.8,168.1c4.3,1.1,8.6,2,13,2.6c5,0.9,10,1.3,15,1.9c-2.8,0.6-5.3,2-7.8,3.2
			c-3.8,1.9-8,2.8-12.2,2.8c-1.8,0-3.6,0.2-5.4,0.3c-0.9-3.2-1.8-6.4-2.7-9.7C-290.1,168.9-290.1,168.4-289.8,168.1L-289.8,168.1z"
			/>
		<path id="Path_229" class="st106" d="M-301.6,195.5c-0.1-0.3-0.1-0.6-0.5-0.7l1.5-1.4C-300.6,194.3-301,195-301.6,195.5z"/>
		<path id="Path_230" class="st3" d="M-273.1,250.9c-0.2,0.5-0.7,0.3-1.1,0.5l-3.1,0.1c0.2-2-0.9-3.8-1.2-6.1
			C-276.5,247.2-275.3,249.5-273.1,250.9z"/>
		<path id="Path_231" class="st107" d="M-259.9,50.1l0.3,0.2c0.5,0.3,0.9-0.3,1.5-0.4c1.9-0.4,3.3,1.4,5.1,1.3
			c0.1,0.2,0,0.3-0.1,0.4c-1.5,1.6-3.9,3.2-6.2,2.8c-1.1-0.3-2-0.9-2.7-1.9c-0.2-0.3-0.5-0.6-0.7-1s-0.7-0.9-0.6-1.4
			c0.5,0,1-0.1,1.5-0.2c0.2-0.1,0.4-0.2,0.6-0.2C-260.7,49.6-260.2,49.8-259.9,50.1L-259.9,50.1z"/>
		<path id="Path_232" class="st108" d="M-256.4,45.4c-0.2-0.1-0.3-0.3-0.5-0.4c-0.3-0.2-0.7-0.5-0.9-0.8c-0.6-0.6-1-1.3-1.1-2.2
			c-0.1-1.4,0.5-2.8,1.5-3.7c1-1.1,1.8-2.4,2.5-3.7c0.3-0.7,0.8-1.3,1.1-1.9c0.2-0.3,0.3-0.7,0.4-1.1c0.1-0.2,0.4-0.8,0.3-1
			c0.2,0.6,0.2,1.3,0.1,1.9c-0.5,1.9-1.4,3.6-2.7,5.1c-0.5,0.5-0.9,1-1.3,1.6c-0.2,0.4-0.4,0.7-0.7,1c-0.4,0.4-0.6,0.8-0.7,1.4
			c0,0.6,0.1,1.2,0.5,1.7c0.5,0.7,2,1.2,1.9,2.3c0,0.1,0,0.1-0.1,0.2C-256.2,45.5-256.3,45.4-256.4,45.4z"/>
		<path id="Path_233" class="st109" d="M-237,24.5c-1.4-1-2.6-1.9-3.8-2.6c-0.8-0.5-1.7-0.6-2.5-1c-0.5-0.2-1.3,0.2-1.3-0.6
			s0.9-0.7,1.4-0.7C-240.3,19.5-237.6,21.6-237,24.5z"/>
		<path id="Path_234" class="st110" d="M-263.8,22c1.1-2.1,5.5-4.2,7.3-3.8c0.4,0,0.8,0.3,0.9,0.8c0.1,0.3-0.1,0.5-0.3,0.6
			c0,0-0.1,0-0.1,0C-258.8,20.1-261.3,20.9-263.8,22L-263.8,22z"/>
		<path id="Path_235" class="st111" d="M-261.9,29.6c0-0.9,0.4-1.6,1.4-1.6c0.7-0.1,1.3,0.4,1.4,1.1c0,0.1,0,0.1,0,0.2
			c0.1,0.9-0.5,1.7-1.4,1.8c0,0,0,0-0.1,0C-261.6,31.2-262,30.5-261.9,29.6z"/>
		<path id="Path_236" class="st112" d="M-241.2,32.2c0,0.8-0.2,1.5-1.1,1.5c-0.7,0.1-1.4-0.5-1.4-1.2c0-0.1,0-0.2,0-0.3
			c0-0.8,0.2-1.7,1.3-1.7S-241.2,31.4-241.2,32.2z"/>
	</g>
	<path id="Path_237" class="st1" d="M161.9,186.3c-4.1,3.1-9,4.9-14.1,5.2c-5.8,0.4-11.2,2.6-16.7,4c-5.8,1.4-11.6,2.9-17.4,4.3
		c-4.5,1.2-8.7,3-12.7,5.3c-2.5,1.4-4.9,2.8-7.4,4.3c-0.6,1.3-2.1,1.6-3.1,2.3c-3,2.1-6.1,3.8-8.6,6.5c-0.5,0.5-1,1.3-1.9,1.1
		c-2.4-0.1-2.6-0.8-1.2-3.6c0.2-0.8,0.1-1.8,0.7-2.6c-0.6,0.2-1.1,0.3-1.6,0.5c-1.7,1.6-3.4,3.1-6,2.8c-0.1-1.2,0.2-2.5,0.8-3.5
		c0.8-1.6,1.9-3.1,3.2-4.4c0.2-0.3,0.4-0.6,0.7-0.8c-0.3,0.1-0.4,0.4-0.5,0.6c-1.3,1.3-2,3.1-3.7,3.9c-0.8,0.9-1.7,1.7-2.7,2.4
		c-1.5,1.1-2.5,0.6-2.8-1.3l4.9-6.1c-0.2-0.5-0.3,0-0.5,0c-1.1,0.4-2.5,1.5-3.4,0.1s0.3-2.4,1.3-3.3c1.2-1.2,2.3-2.4,3.6-3.5
		c0.8-0.6,1.2-1.5,1-2.5c0.7,0.1,1.4-0.1,2-0.6c4.4-3.5,9.5-5,14.9-5.7c4.4-0.4,9,0,13.3-1.5c2.4-0.9,4.8-1.9,7.2-3.1
		c1.5-0.7,3-1.3,4.6-1.7c2.5-0.9,4.8-2,7-3.3c3.2-1.8,6.5-2.6,9.9-3.9l12.2-4.7c2.8-1,3.3-2.5,3.8-5.2c0.5-2.4,0.9-4.8,1.2-7.2
		c0.7-4.6,1.3-9.2,1.9-13.8c0.4-3.3,1.2-6.7,1.7-10c0.2-1.2,0.5-1.9,2-1.2c4.5,2.1,9.5,1.9,14.1,3c1.5,0.5,3.1,0.6,4.7,0.5
		c0,3.6-0.4,7.3-1.2,10.8c-1.5,7.8-2.4,15.7-3.4,23.5C168.7,179.1,166.4,183.3,161.9,186.3z"/>
	<path id="Path_238" class="st21" d="M103,197.7c-0.8-1.6-1.8-3.1-2.9-4.5c-0.5-0.6-1.3-0.9-1.6-1.6c-0.4-0.9,0.6-1.3,1.4-1.3
		c1.3-0.1,2.3,1.1,3,2.1c1,1.5,1.8,3.1,2.5,4.8c0.6,1.6,1.5,3.2,1.3,5c-0.1,0.8-0.7,1.4-1.5,1.5c-0.4,0-0.7-0.3-0.7-0.6c0,0,0,0,0,0
		c0-0.6-0.1-1.6-0.1-1.7C104.2,200,103.7,198.8,103,197.7z"/>
</g>
<g id="OpDz6l" transform="translate(469.287 13.597)">
	<path id="Path_115" class="st113" d="M-199.6,78.1c-1.5-2.1-0.4-4.3-0.3-6.4c0.3-2.3,1.1-4.5,2.4-6.5c1.9-3.4,2.5-7.3,1.9-11.1
		c-0.8-4.1,0.1-8.4,2.4-11.9c3.8-5.7,5-12.1,6.2-18.7c1.1-6,3.7-11.6,7.6-16.3c3.2-3.9,7.8-5.7,12.8-6.4c0.8-0.1,1.5-0.3,2.3-0.4
		c1.4-0.4,3,0.2,4.4-0.3h0.7c0.1,0.1,0.1,0.2,0.2,0.3c8.3,0.9,13.8,6,17.9,12.8c2,3.3,4.3,6.4,5.6,10c1.5,4.2,1.3,8.6,1.6,13
		c0.2,5.8,3,11.1,7.6,14.5c3.8,2.9,6.3,6.2,6.8,10.9c0.7,3.9-0.4,7.7-1.2,11.4c-0.3,1-1.2,1.7-2.2,1.7c-0.8,0.1-1.6,0.1-2.3,0.1
		c-2.1-0.2-3.9,0.2-5.2,2.1c-0.7,0.8-1.7,1.3-2.7,1.2c-1.7,0.1-3.5,0-5.2-0.3c-1.1-0.2-2.3-0.3-3.4-0.1c-3.5,0.3-4.6-0.6-5.2-4
		c-0.2-1-0.2-1.9-0.2-2.9c-0.3-3.6-0.4-7.1-1.6-10.6c-0.5-1.5-1.2-3.2-0.6-4.9c0-0.8,0.2-1.7,0.6-2.4c2.9-5.6,2.9-11.9,4.2-17.8
		c1-4.6-0.7-8.1-3.8-11.2c-3.8-3.9-8.1-7.2-12.7-10c-1.8-1.1-3.3-2.5-4.4-4.2c-0.5-0.7-0.9-1.1-1.6-0.2c-4.2,5.4-8.5,10.7-11.4,16.9
		c-0.6,1.3-1.1,2.7-1.4,4.1c-0.4,2.4-0.4,4.8,0,7.2c0.2,1.5,0.7,3,0.9,4.6c0.6,4.1,2.7,7.9,5.8,10.6c1.5,1.3,2.8,2.8,3.8,4.6
		c1.1,1.9,1.8,4.1,2,6.3c0.3,3.2,1.5,6.2,1.4,9.4c0,1.7-0.2,3.5-0.7,5.1c-0.1,0.6-0.3,1.2-0.6,1.7c-1.2,2.9-2.1,3-5.2,2.2
		c-2.7-0.7-5.7-0.6-8.3,0.3c-2.9,1.1-4.8,0.3-6.6-2s-2.6-2.2-4.7-0.4c-0.8,0.8-2,1-3,0.6C-196.7,79.9-198.2,79.1-199.6,78.1
		L-199.6,78.1z"/>
	<path id="Path_117" class="st7" d="M-119.4,157.3c-3.8,0.3-7.6,0.9-11.5,1c-8.2,0.3-16.4-0.8-24.6-0.7c-10.2,0.1-20.3,0.6-30.5,0.4
		c-0.6-0.7-0.3-1.5-0.2-2.2c0.8-5,1.2-10,1.2-15c0.1-2.8-0.1-5.6-0.6-8.3c-0.5-4.3-1.2-8.6-1.9-12.9c-0.4-2.2-0.5-2.3-2.7-2.2
		c-3.9,0.1-7.8-0.2-11.7-0.9c-1.4-0.9-3-0.7-4.5-1c-1.8-0.4-2.4-1.1-2.1-2.9c1.2-7.9,2.4-15.9,3.1-23.8c0.3-2.4,1-4.7,2.1-6.9
		c0.8-1.6,2.1-2.9,3.7-3.7c1.5,0,2.7,1,3.9,1.7c1.2,0.9,3,0.6,3.8-0.6c0,0,0.1-0.1,0.1-0.1c0.9-1.2,2.7-1.5,3.6-0.3
		c2.3,3.4,5.1,4.5,9,2.7c1.7-0.8,3.7,0.2,5.6-0.4c0.6-0.2,1.1,0.2,1.7,0.5c1.9,1.1,3,0.7,3.9-1.2c0.4-0.8,0.6-1.6,0.9-2.4
		c0.4-0.5,0.9-0.8,1.5-0.8c5.9-1.4,11.6-3.5,17-6.2c0.6-0.3,1.2-0.8,2-0.5c0,1,0.1,2,0.3,3.1c0.7,3.1,1.2,3.8,4.2,3.4
		c2.7-0.4,5.2,0.6,7.8,0.5c2-0.1,3.5-0.3,4.6-2.2c0.5-0.9,1.5-1.4,2.5-1.2c1.3,0.1,2.7,0,4,0.1c1.5,0,2.2-0.7,2.5-2.2
		c0.7-3.5,0.9-7,1.4-10.5c3.4,0.7,6.7,1.8,9.9,3.3c2.1,1,3.7,2.7,4.8,4.7c3.5,6.7,6.4,13.7,8.7,20.9c0.6,1.8,1.3,3.5,2,5.2
		c0.9,2.3,0.8,2.8-1.5,3.8c-0.3,0.1-0.7,0.3-1,0.4c-2,1.5-4.5,1.9-6.8,2.6c-3.6,1.1-7.4,1.5-11.1,2.4c-3.2,0.7-3.3,0.8-3.2,4
		c0,2.5-0.7,5-0.4,7.5c-1,10.5-0.6,21-0.7,31.6c0,2,0.5,4,0.3,5.9C-118.6,155.1-118.6,156.3-119.4,157.3z"/>
	<path id="Path_118" class="st114" d="M-143.7,430.7c0-4.6-0.3-9.2-1.1-13.7c-0.3-0.7-0.5-1.3-0.7-2c-0.7-6.2-1.5-12.5-2.1-18.7
		c-0.2-1.5-0.9-3-0.4-4.6c-0.3-3.8-1.3-7.6-1.6-11.4c-0.5-5.3-0.6-10.5-1.3-15.8c-0.3-2.3-0.5-4.5-0.7-6.8c-0.7-6.3-1.6-12.7-1.9-19
		s-0.4-12.7-0.8-19.1c-0.4-7.5-0.9-14.9-1.1-22.4c-0.3-11.8,0.1-23.6,1.2-35.4c0-1.3,0.2-2.5,0.6-3.7l-0.1-1.5
		c-1.5,0.1-3,0.3-4.5,0.2c-4.9,0-9.8-0.2-14.7-0.3c-2.4-0.1-4.8,0-7.2-0.3c-4.7-0.5-9.2-1.5-13.9-1.6c0.6,0.4,1,1,1.2,1.7
		c0.7,3.8,1.5,7.6,2.3,11.4c2.4,10.4,5.5,20.7,7.3,31.2c2.4,13.9,5.4,27.8,8.2,41.6c1.3,6.7,2.8,13.4,3.7,20.1
		c1.1,7.7,2.5,15.4,3.9,23c0.5,2.6,1.6,5.2,1.6,7.9c0,1,0.2,1.9,0.5,2.8c0.8,2.9,1.9,5.7,2.2,8.7c0.8,8.2,1.5,16.4,1.5,24.6
		c0.5,2.2,0.1,4.4,0.5,6.6c-0.1,1.8-0.3,3.6-0.7,5.4c-0.2,2.2-0.3,4.4-0.1,6.7c0.1,2.6,1.1,3.6,3.7,3.9c1.3,0.1,2.5,0,3.8,0.2
		c2.7,0.5,5.3-0.2,7.8-0.8c1.5-0.3,2.6-1.5,2.7-3c0.2-1.7,0.3-3.3,0.4-5C-143.3,438-144,434.4-143.7,430.7z"/>
	<path id="Path_119" class="st115" d="M-99.7,303.7c-1.3-7.5-2-15.1-3.1-22.6c-0.7-5-1.5-10.1-2-15.1c-0.5-4.8-2.3-9.5-2.4-14.4
		c-1.2,0.3-2.3,0.6-3.5,0.9c-11.4,2.5-22.9,3.2-34.6,3.2c-0.5,0-1.1-0.1-1.7-0.1l0.5,1.1c1.2,0.7,1.6,2.1,1.9,3.7
		c0.1,0.3,0.2,0.7,0.4,1c2.7,6.6,5,13.3,6.9,20.1c0.9,3.5,2.1,6.9,3.2,10.3c2.3,6.9,5.2,13.6,7.5,20.5c1.7,5.2,1.6,5.1-1.8,9.5
		c-5.7,7.3-10.2,15.3-14.9,23.3c-3.3,5.5-5.1,11.7-7.8,17.4c-0.4,0.5-0.5,1.2-0.3,1.9c0,1.6,0.2,3.2,0.3,4.8
		c0.2,5.5,0.7,11,1.5,16.4c0.4,2,0.2,4.1,1.4,5.9c1.8-2.9,3.8-5.7,6-8.3c4.5-5.3,9.3-10.4,13.3-16.1c3.9-5.5,7.9-11,11.7-16.7
		c5.1-7.8,10.5-15.3,14.2-24C-99.7,319.1-98.3,311.6-99.7,303.7z"/>
	<path id="Path_120" class="st114" d="M-118.7,116c-0.3-3.3,0.7-6.5,0.4-9.9c-0.1-1.1,0.8-1.1,1.4-1.3c3.7-1.2,7.5-1.5,11.3-2.4
		c3-0.7,5.9-1.9,9-2.7c-0.5,1.9,0.3,3.7,0.4,5.6c0.3,3,0.6,6,0.7,9c0.1,6.1,1.1,12,1.4,18.1c0.3,8.2,0.8,16.4,0.1,24.7
		c-0.9,10.3-3.7,20.1-5.7,30.2c-1.1,6-2,12-3.4,18c-0.1,0.4-0.3,0.8-0.4,1.2c-1.6-5.8-3.3-11.7-4.8-17.5c-1.6-6.6-4-12.9-6-19.4
		c0.7-5.2,1.1-10.5,1.6-15.8c0.9-9-0.9-17.7-2.9-26.4c-1-4.4-2.2-8.9-2.5-13.4C-118.2,114.7-117.5,115.7-118.7,116z"/>
	<path id="Path_121" class="st17" d="M-161.8,439.8c0.7,1.4,0.3,2.9,0.3,4.4c0.1,5.4,0.3,5.6,5.7,5.7c2,0.1,4,0.1,6,0
		c4.6-0.6,5.6-1.4,5.6-6c0.2-3.2,0.1-6.5-0.3-9.7c-0.3-1.2-0.2-2.4,0.3-3.5c2-2.1,4.2-4.1,6.5-5.8c0.9-0.2,1.8,0.3,2.3,1.1
		c3.8,4.6,5.1,10,4.9,15.8c-0.1,1.6-1.7,2.6-3.9,2.3c-2.4-0.3-4.9-0.7-7.3-1.2c-1.3-0.3-1.6,0-1.5,1.2c0.1,1.7,0.4,3.5,0.4,5.2
		c0.1,1.4-0.3,2.9-1,4.1c-2.1,3.8-4.7,7.3-7.8,10.3c-1.7,1.6-2.6,1.6-4.7,0.4c-4.8-2.8-6.8-7.2-7.3-12.5c-0.4-3.5-0.1-7,0.8-10.3
		C-162.5,440.7-162.2,440.2-161.8,439.8L-161.8,439.8z"/>
	<path id="Path_122" class="st115" d="M-165.7,391.7c1.3,2.9,2.3,6,2.9,9.2c0.9,4,0.8,8.2,1.2,12.3c0.5,4.9,0.7,9.8,0.6,14.7
		c-0.9,0-1.1-0.8-1.4-1.4c-2.9-4.5-5-9.5-8-14c-0.6-0.9-1-2-1.1-3.1c-0.5-4,0.2-8,1.8-11.6L-165.7,391.7z"/>
	<path id="Path_123" class="st116" d="M-169.7,397.8c-0.5,2.3-1.1,4.7-1.4,7c-0.5,3.2,0.3,6.5,2.1,9.2c2.9,4.5,5,9.4,7.9,13.9
		c0.6,2.1,0.6,4.4,0,6.5c-3-5-5.9-10-8.9-15c-1.6-2.4-3-4.9-4.2-7.5C-176.6,405.7-175.3,402.5-169.7,397.8z"/>
	<path id="Path_124" class="st115" d="M-137.5,425c-1.9,2.2-4.1,4.2-6.5,5.8c-0.3-4.6-0.9-9.1-0.8-13.7
		C-142.9,420.2-140.2,422.5-137.5,425z"/>
	<path id="Path_125" class="st117" d="M-200.8,117.9c0.6,0.7,0.6,1.8,0,2.5V117.9z"/>
	<path id="Path_126" class="st117" d="M-202.6,159.8c-0.1,0.6,0.3,1.3-0.3,1.8C-202.9,161-203.2,160.3-202.6,159.8z"/>
	<path id="Path_127" class="st117" d="M-203,162.3c-0.1,0.6,0.2,1.3-0.4,1.9C-203.3,163.6-203.6,162.9-203,162.3z"/>
	<path id="Path_128" class="st114" d="M-178.8,26c1.9-4.1,4.3-8,7.1-11.6c1.5-1.9,3-3.7,4.4-5.7c0.7-1,1.2-1.3,1.9,0
		c1.4,2.4,3.5,3.8,5.7,5.3c5.1,3.4,10,7.1,13.8,11.9c2.3,3,2.3,6.3,1.7,9.8s-1.2,7.2-1.8,10.8c-0.4,2.3-1.5,4.3-2.4,6.4
		c-0.3,0.7-0.5,1.4-0.5,2.1c-0.4,0.9-1.1,1.6-2,2c-1.6,0.8-3.2,1.7-4.7,2.7c-2.7,1.9-5.6,1.5-8.4,0.8c-2.2-0.5-4.3-1.7-5.8-3.4
		c-2-2.2-4-4.4-6.1-6.6c-1.3-1.3-2.2-3-2.6-4.8c-1.1-4.5-2.5-8.9-2.1-13.6c0-0.7,0.1-1.4,0.4-2.1C-179.5,28.8-179,27.4-178.8,26
		L-178.8,26z"/>
	<path id="Path_129" class="st118" d="M-169.7,57.1c1.2,0.5,2.4,1.1,3.4,1.9c2.2,1.4,4.7,1.3,7.1,1.6c1.4,0.2,2.6-0.8,3.7-1.5
		c2.2-1.4,4.7-2.4,6.7-4.2c-0.6,2,0.2,3.7,0.8,5.5c0.9,3.3,1.4,6.6,1.4,10c-6.5,3.4-13.4,5.9-20.5,7.5c0.9-3.2,0.9-6.7,0.1-9.9
		C-167.9,64.4-168,60.6-169.7,57.1z"/>
	<path id="Path_130" class="st119" d="M-178.8,26c0.3,1.5-0.3,3-1.4,4C-180,28.6-179.5,27.2-178.8,26z"/>
	<path id="Path_131" class="st117" d="M-187.9,160.9c-0.6,0.4-1.3,0.6-1.6-0.3c-0.4-1.1,0.1-2.3,1.1-2.8c0.7-0.4,1.5-0.5,1.8,0.7
		L-187.9,160.9z"/>
	<path id="Path_132" class="st120" d="M-201.9,219.2c0.1-1.1-0.3-2.3,0.3-3.3C-201.6,217-201.4,218.1-201.9,219.2z"/>
	<path id="Path_133" class="st120" d="M-201.5,214.2c0.1-1-0.4-2.1,0.3-3C-201.3,212.2-201,213.3-201.5,214.2z"/>
	<path id="Path_134" class="st120" d="M-201.1,209.8c0.1-1-0.3-2,0.3-3C-200.9,207.9-200.6,208.9-201.1,209.8z"/>
	<path id="Path_135" class="st117" d="M-193.5,174.3c-0.3-0.2-0.7-0.3-0.5-0.7s0.5-0.4,0.8,0C-193.2,173.9-193.3,174.2-193.5,174.3z
		"/>
	<path id="Path_136" class="st120" d="M-200.8,205.8c0.1-0.7-0.3-1.5,0.3-2.2C-200.4,204.4-200.5,205.1-200.8,205.8z"/>
	<path id="Path_137" class="st121" d="M-136.7,256.1h2.1C-135.5,257.1-136.2,256.4-136.7,256.1z"/>
	<path id="Path_138" class="st120" d="M-204.4,211c0-0.2,0.2-0.7,0.3-1.2c0.1-0.4,0.1-1,0.7-0.8c0.4,0.1,0.7,0.6,0.6,1
		c0,0.1-0.1,0.2-0.1,0.3c-0.5,0.5-0.6,1.2-0.4,1.9c0.1,0.4,0.1,0.9-0.4,1c-0.7,0.1-0.6-0.6-0.6-1
		C-204.5,211.8-204.4,211.6-204.4,211z"/>
	<path id="Path_139" class="st117" d="M-201.1,168.2c-1.1,0-2-0.5-2-1.4s0.9-1.1,1.7-1.1c0.9-0.1,1.7,0.5,1.8,1.3c0,0.1,0,0.1,0,0.2
		C-199.5,167.9-200.4,168.2-201.1,168.2z"/>
	<path id="Path_140" class="st114" d="M-184.6,140.7c0.2-2.8,0-5.6-0.6-8.3c-0.4-4.7-1.3-9.3-2-14c-0.2-1.2-0.7-1.5-1.9-1.5
		c-2.8,0.1-5.6,0-8.4-0.2c-4-0.5-4.1-0.8-3.2,3.1c0.8,3,0.5,6.2,0.2,9.3c-1,11.1-2,22.2-3,33.3c-0.9,10.9-0.7,21.7-3.6,32.3
		c-0.8,2.9-1.7,5.8-2.5,8.8c-2.1,7.9-3.1,16.2-3,24.4c0.1,7.4,4.5,12.4,8.4,18.3c0.3,0.6,0.9,1,1.6,1c0-3.4,0-6.8-0.1-10.1l0.1-5.3
		c0.1-0.9,0.2-1.8,0.1-2.6c0.2-3,0.3-6.1,0.5-9.1v-0.6c0.4-1.1-0.1-2.2,0.3-3.3c0-0.6,0.1-1.1,0.1-1.7c0.3-1-0.1-2,0.3-3l0.1-1.4
		c0.4-0.9-0.1-2,0.3-3l0.1-1c0.4-0.7,0-1.5,0.3-2.2c0-0.3,0.1-0.7,0.1-1c0.1-0.1,0.2-0.3,0.2-0.5c1.5-9.4,3-18.9,6.7-27.8
		c-0.1-0.3-0.1-0.6,0.3-0.7c0.8-1.5,1.4-3.1,1.8-4.7c0.6-1,1.1-2.1,1.4-3.3c0.8-1.5,1.9-2.9,2.1-4.7c-0.8-0.3-1.5-0.6-1.1-1.6
		s1.3-1.3,2.3-0.8l0.6-0.6C-185.2,152.2-184.2,146.5-184.6,140.7z"/>
	<path id="Path_141" class="st122" d="M-163.3,50.6c0.5,0.1,1,0,1.4-0.2c1.6-1.3,2.6,0.3,3.9,0.7c0.3,0.1,0.3,0.4,0.2,0.7
		c-1.2,2.6-5.2,3.6-7.3,1.8c-0.5-0.4-1.4-0.7-1-1.4c0.5-0.9,1.3-1.5,2.4-1.6C-163.6,50.5-163.5,50.6-163.3,50.6L-163.3,50.6z"/>
	<path id="Path_142" class="st123" d="M-161.9,46.4c-2.2,0-4.7-2.3-4.1-3.7c1.2-2.8,2-5.8,2.3-8.9c0.7,1.3,0.9,2.8,0.5,4.3
		C-163.7,40.9-164.8,43.8-161.9,46.4z"/>
	<path id="Path_143" class="st124" d="M-149.8,23.7c-2,0.4-3.7-0.4-5.4,0.1c-0.8,0.2-1.6,0.3-2.4,0.6c-0.3,0.1-0.6,0.3-0.8-0.1
		c-0.1-0.3,0-0.6,0.2-0.8c0.8-0.8,1.9-1.3,3.1-1.3C-153.4,22-151.4,21.8-149.8,23.7z"/>
	<path id="Path_144" class="st124" d="M-176.4,26.9c-0.2-0.3-0.3-0.7-0.1-1.1c0.8-1.5,4.9-3.1,6.5-2.7c0.4,0.1,0.8,0.3,0.8,0.8
		s-0.3,0.6-0.7,0.6C-172.1,24.8-174.4,25.6-176.4,26.9L-176.4,26.9z"/>
	<path id="Path_145" class="st125" d="M-171.2,35.4c-0.1,0.8-0.4,1.4-1.1,1.4c-0.9,0-1.3-0.7-1.4-1.5s0.2-1.3,1.1-1.3
		C-171.9,34-171.2,34.6-171.2,35.4z"/>
	<path id="Path_146" class="st126" d="M-152.4,33.5c0.1,0.7-0.3,1.3-1,1.4c-0.1,0-0.1,0-0.2,0c-0.6,0.1-1.2-0.3-1.4-0.9
		c0-0.1,0-0.2,0-0.4c-0.1-0.6,0.4-1.1,1-1.2c0.1,0,0.2,0,0.3,0C-153.1,32.3-152.5,32.8-152.4,33.5
		C-152.4,33.4-152.4,33.5-152.4,33.5L-152.4,33.5z"/>
	<path id="Path_116" class="st127" d="M-99.9,228.2c1,9.8,2.5,19.5,4.4,29.1c1.7,8.6,2.3,17.5,3,26.3c0.3,3.2-0.5,4.7-3.2,5.9
		s-5.5,1.7-8,3.4c-1,1.5-2.3,1.6-3.5,2.1c-5.7,1.8-11.4,3-17.2,3.6c-7,0.9-14,1.2-21.1,1c-0.6-0.1-1.2,0-1.8,0.3c-1,0.2-2,0.6-3,0.7
		c-4.1,0.8-8.2,1-12.3,0.6c-8.3-0.7-16.7,0-24.9-2.3c-2-0.5-4.1-0.4-6-1.5c-2-0.6-4.1-1-6-1.8c-2.4-1-3-2.8-2.7-6.2
		c0.2-1,0-2.1-0.3-3c-0.5-0.8-0.7-1.8-0.6-2.9c0-3.8-0.1-7.7,0-11.5c-0.1-2.6-0.1-5.2,0.1-7.8c0.2-0.9,0.3-1.8,0.3-2.8
		c-0.1-4.5,0.1-9.1,0.4-13.6c0-0.5,0.1-0.9,0.1-1.3c0.3-1.5,0.4-3.1,0.2-4.7c0-0.9,0-1.7,0.2-2.6c0.2-1.4,0.3-2.8,0.2-4.2
		c0-0.7,0-1.4,0.2-2.1c0.2-1.3,0.3-2.7,0.2-4c0-0.6,0.1-1.1,0.2-1.6c0.2-1,0.3-2.1,0.2-3.2c0-0.6,0.1-1.1,0.2-1.6
		c1.3-10.9,2.5-21.8,4.9-32.4c0.6-2.6,1.3-5.2,2.1-7.7c0.2-0.5,0.3-0.9,0.5-1.4c0.6-2.2,1.2-4.5,1.9-6.7c0.5-1.6,1-3.2,1.5-4.8
		c0.7-2.3,1.6-4.4,2.2-6.8c0.4-1.4,0.9-2.7,1.5-3.9c0.3-0.4,0.7-0.7,1.2-0.8c0.4-0.1,0.7-0.1,1.1-0.1c12.6,0.1,25.2-1,37.8-0.5
		c3.8,0.2,7.6,0.3,11.4,0.8c5,0.7,7.3-0.3,12.3-1.1c0.9-0.2,1.9-0.3,2.8-0.1c1.1,0.5,1.9,1.8,2.1,3.3c1.4,5,5.4,9.9,6.8,14.9
		c3,11.3,5.4,22.9,7.7,34.6c0.8,4.3,1.6,8.7,2.5,13C-100.1,224.5-99.9,226.4-99.9,228.2L-99.9,228.2z"/>
</g>
</svg>
