<svg xmlns="http://www.w3.org/2000/svg" xmlns:xlink="http://www.w3.org/1999/xlink" width="861.5" height="595.106" viewBox="0 0 861.5 595.106">
  <defs>
    <radialGradient id="radial-gradient" cx="0.5" cy="0.5" r="2.925" gradientTransform="translate(0.417 0.423) scale(0.167 0.153)" gradientUnits="objectBoundingBox">
      <stop offset="0"/>
      <stop offset="1" stop-color="#fff" stop-opacity="0"/>
    </radialGradient>
    <radialGradient id="radial-gradient-2" cx="0.5" cy="0.5" r="4.085" gradientTransform="translate(0.306 0.445) scale(0.119 0.11)" xlink:href="#radial-gradient"/>
    <radialGradient id="radial-gradient-3" cx="0.5" cy="0.5" r="5.183" gradientTransform="translate(0.325 0.457) scale(0.094 0.087)" xlink:href="#radial-gradient"/>
    <radialGradient id="radial-gradient-4" cx="0.5" cy="0.5" r="2.925" xlink:href="#radial-gradient"/>
  </defs>
  <g id="Women_Illustration_2" data-name="Women Illustration 2" transform="translate(-54.103 -40.645)">
    <g id="Group_10" data-name="Group 10" transform="translate(513.422 40.645)">
      <g id="Group_9" data-name="Group 9">
        <g id="Group_4" data-name="Group 4" transform="translate(39.985)">
          <path id="Path_267" data-name="Path 267" d="M430.943,56.371c-2.881,4.956-3.552,10.879-4.912,27.795-.159,1.978-.328,3.871-.5,5.72a75.318,75.318,0,0,0-16.5,2.947c4.936-12.136,9.546-23.714,10.518-27.13,2.733-9.612,1.152-6.527,8.182-9.507C431.211,54.723,433.825,51.413,430.943,56.371Z" transform="translate(-409.033 -35.317)" fill="#dba195"/>
          <path id="Path_268" data-name="Path 268" d="M434.448,50.186s3.017-2.954,3.143-1.457c.07.861-3.088,2.889-8.152,10.421-4.8,7.132-4.58,11.948-5.344,15.127-1.5,6.243-7.339-5.835-6.741-7.688,2.591-8.02,1.591-11.95,4.182-15.525.394-.544,2.918-2.28,1.958.649-.95,2.9-.148,4.789,1.017,4.578,1.736-.314,2-6.232,4.315-10.106,2.376-3.974,5.246-6.639,6.183-5.094a.388.388,0,0,1-.007.387,24.316,24.316,0,0,0-2.266,6.114s3.046-5.327,4.541-4.67S435.768,46.117,434.448,50.186Z" transform="translate(-405.666 -40.645)" fill="#dba195"/>
        </g>
        <path id="Path_269" data-name="Path 269" d="M389.191,204.9l2.259-6.672s-3.331-2.424,5.4-27.445c4.708-13.5,3.8-50.741,8.273-58.676l18.839-50.171,14.643,4.886-11.347,52.464s-5.357,42.228-6.307,49.58-4.035,40.861-3.859,51.623-4.261,13.361-4.261,13.361L390.909,205.3Z" transform="translate(-377.119 -31.986)" fill="#5b7695"/>
        <path id="Path_270" data-name="Path 270" d="M419.243,201.347l16.425,6.66a57.427,57.427,0,0,1,16.871,23.53c5.327,14.65,39.512,73.253,39.512,73.253s6.215-12.432,16.425-19.979S532.9,267.5,532.9,263.056s3.02-18.309,14.564-12.982,13.405,8.465,22.283,8.909,17.979,5.561,19.461,12.973c.674,3.368-10.655,1.332-20.865,2.664a106.218,106.218,0,0,0-19.018,4.419s-9.767,12.875-16.87,21.753-19.978,38.624-35.96,38.624-22.2-9.767-26.639-13.762-31.52-35.517-31.52-35.517l-13.319-14.207-15.982-14.206-17.758-18.2,4.44-28.414Z" transform="translate(-376.272 24.724)" fill="#dba195"/>
        <path id="Path_271" data-name="Path 271" d="M412.073,125.765s-8.54,31.333-20.376,38.7c-8.768,5.461,10.03,8.69,10.03,8.69l16.646-19.57,2.024-20.021Z" transform="translate(-377.048 -6.021)" fill="#5b7695" opacity="0.34" style="mix-blend-mode: multiply;isolation: isolate"/>
        <g id="Group_5" data-name="Group 5" transform="translate(5.566 263.363)">
          <path id="Path_272" data-name="Path 272" d="M407.811,227.856H394.048L390.5,232.74s4.44-8.51.888,10.58-9.767,39.586-4.44,65.336,3.552,40.844,14.652,44.4,26.637,2.663,45.727,8.435,34.629,9.767,34.629,9.767,4.372,3.026,6.274,6.83,7.775,12.8,10.33,18.426c3.106,6.831,9.971-8.037,6.367-20.328-4.011-13.675,1.268-18.175-.423-23.67s-6.762-4.649-9.933-4.649-8.242,2.114-15.85-.422S454.693,331.9,438.35,329.477c-14.27-2.119-19.232-.211-19.232-.211s3.8-19.443,5.706-32.335,4.86-29.165,3.8-39.733S407.811,227.856,407.811,227.856Z" transform="translate(-384.442 -227.856)" fill="#dba195"/>
          <path id="Path_273" data-name="Path 273" d="M409.177,279.332l-3.945-4.227s2.254,28.742-.423,38.04l6.2-3.1,5.071-28.6Z" transform="translate(-376.332 -208.637)" fill="#dba195" opacity="0.31" style="mix-blend-mode: multiply;isolation: isolate"/>
          <path id="Path_274" data-name="Path 274" d="M390.621,232.74l3.552-4.884h13.762S427.7,246.632,428.753,257.2s-1.9,26.841-3.8,39.733c-.4,2.733-.892,5.764-1.412,8.84-8.912-1.639-26.71-4.227-37.286-1.161-1.815-24.739-2.209-29.062-.957-49.228C386.5,236,390.621,232.74,390.621,232.74Z" transform="translate(-384.566 -227.856)" fill="#f34e6a"/>
        </g>
        <g id="Group_6" data-name="Group 6" transform="translate(26.173 79.121)">
          <path id="Path_275" data-name="Path 275" d="M426.7,122.918l16.321-3.452s-15.283,17.956-12.32,34.985c3.279,18.851-28.534-.914-28.534-.914s12.558-13.415,9.659-31.109C411.172,118.44,426.7,122.918,426.7,122.918Z" transform="translate(-398.014 -87.703)" fill="#dba195"/>
          <path id="Path_276" data-name="Path 276" d="M415.022,127.783l11.936,4.454s-4.1,12.544-21.412,11.268l5.18-10.386Z" transform="translate(-396.64 -84.32)" fill="#dba195" opacity="0.44" style="mix-blend-mode: multiply;isolation: isolate"/>
          <path id="Path_277" data-name="Path 277" d="M433.588,104.863c-7.649-4.136-15.3-3.143-23.383,5.18-4.829,4.973-4.565,11.808-8.007,14.125-2.268,1.528-3.212.753-2.936,2.211a4.485,4.485,0,0,0,2.324,2.882s-1.962,12.868,4.5,17.805c5.81,4.443,17.168,2.048,24.464-3.763C435.915,139.028,451.122,114.343,433.588,104.863Z" transform="translate(-399.215 -94.609)" fill="#dba195"/>
          <path id="Path_278" data-name="Path 278" d="M428.4,132.048s2.161-6-.058-4.413c-4.133,2.964-11.431,2.254-8.663-7.753,1.452-5.246-5.972-5.959-10.786-7.952-5.423-2.245-5.4-11.849,5.294-14.511,9.19-2.286,7.82,3.652,13.89,1.988,8.161-2.237,12.439,2.311,12.755,6.188s-.713,6.336,4.516,7.678,7.288,8.2,3.883,12.6c-2.673,3.451,2.138,4.474,7.208,6.71s8,8.051,7.21,15.058-4.42,12.411,2.932,14.387c9.982,2.684,8.081,16.7,1.743,17.891-6.067,1.142-9.518,2.927-8.4,8.647,2.218,11.331-15.176,15.957-24.876,12.375-12.517-4.623-13.468-19.532-10.458-26.688s3.462-10.216-.772-12.668c-3.756-2.175-4.587-11.2-.1-14.861C430.916,140.861,421.118,136.937,428.4,132.048Z" transform="translate(-396.73 -96.888)" fill="#391e21"/>
          <path id="Path_279" data-name="Path 279" d="M419.862,120.707s1.892-3.063,4.486-2.133,2.677,12.218-4.98,9.269" transform="translate(-391.017 -88.137)" fill="#dba195"/>
          <path id="Path_280" data-name="Path 280" d="M461.082,161.469c-7.352-1.977-3.724-7.38-2.932-14.387s-2.138-12.823-7.21-15.059-9.881-3.258-7.208-6.709c3.406-4.4,1.346-11.256-3.883-12.6s-4.2-3.8-4.516-7.678-4.595-8.425-12.755-6.188a5.475,5.475,0,0,1-3.749-.056c.066,2.828.091,4.717,4.434,5.831,5.229,1.342,7.288,8.2,3.881,12.6-2.671,3.451,2.14,4.472,7.21,6.709s8,8.051,7.21,15.059-4.421,12.411,2.932,14.387c9.982,2.684,8.08,16.7,1.743,17.891-6.067,1.142-9.518,2.927-8.4,8.647,1.687,8.611-7.954,13.345-16.936,13.551a17.026,17.026,0,0,0,8.646,6.914c9.7,3.582,27.094-1.044,24.876-12.375-1.12-5.72,2.331-7.505,8.4-8.647C469.163,178.167,471.065,164.153,461.082,161.469Z" transform="translate(-391.236 -96.33)" fill="#391e21" opacity="0.19" style="mix-blend-mode: multiply;isolation: isolate"/>
        </g>
        <path id="Path_281" data-name="Path 281" d="M476.6,92.529c-2.722-.526-3.027-4.772-.488-6.793,4.746-3.776,10.154-8.488,10.175-10.379.035-3,3.964-9.338,6.012-11.984a10.752,10.752,0,0,0,2.4-4.694c.266-1.791,1.419-2.832,1.885-.985s.117,3.084-1.152,5.854c-.616,1.345-.938,2.383-.647,2.593.513.37,3.088-2.927,5.161-6.247,2.141-3.425,4.559-7.281,5.931-7.746,1.063-.359.833,1.307-.429,3.641s-5.014,6.309-4.413,7.345,3.933-4.073,5.16-6.162,1.927-5.039,3.262-4.616c.914.29,1.035,1.479-.326,4.378s-6.506,8.372-5.809,9.015,5.041-5.455,5.728-6.789c.712-1.38,1.995-1.417,1.321,1.165s-3.065,5.133-4.886,7.318-3.119,2.871-2.738,3.535,1.813-.2,3.219-2.382,2.815-4.54,3.264-3.307-.954,4.721-4.043,8.107-8.283,6.841-12.412,7.445c0,0-9.268,9.518-10.254,12.837Z" transform="translate(-342.472 -35.986)" fill="#dba195"/>
        <path id="Path_282" data-name="Path 282" d="M409.986,182.066l10.566-11s6.229-6.229,18-18.1c10.064-10.148,27.58-42.463,35.021-47.716l34.906-36.779,11.135,10.69L486.877,121.7s-22.939,35.856-26.948,42.092-21.156,35.187-25.612,44.987-9.576,10.244-9.576,10.244l-7.573-35.187Z" transform="translate(-368.661 -29.327)" fill="#5b7695"/>
        <path id="Path_283" data-name="Path 283" d="M421.579,252.228l1.127,17.753-5.146,34.412s-6.689-2.289-9.788-2.007c0,0-1.41-44.521-7.608-64.811S421.579,252.228,421.579,252.228Z" transform="translate(-373.025 36.884)" fill="#f34e6a" opacity="0.31" style="mix-blend-mode: multiply;isolation: isolate"/>
        <g id="Group_7" data-name="Group 7" transform="translate(15.002 226.071)">
          <path id="Path_284" data-name="Path 284" d="M395.714,215.109l23.53-13.762,16.425,6.66s13.151,5.457,17.881,23.53c2.438,9.317,16.583,34.87,27.037,53.29-7.665,7.114-19.042,18.5-24.763,27.326-27.633-18.967-58.33-66.643-58.33-66.643l-6.219-1.986Z" transform="translate(-391.274 -201.347)" fill="#f34e6a"/>
          <path id="Path_285" data-name="Path 285" stroke="#f34e6a" d="M415.569,211.371s9.3,1.957,18.6,23.984,29.368,50.416,29.368,50.416" fill="none" transform="translate(-381.392 -197.27)" stroke-miterlimit="10" stroke-width="1.077" stroke-dasharray="4.308 2.872" opacity="0.49" style="mix-blend-mode: multiply;isolation: isolate"/>
        </g>
        <path id="Path_286" data-name="Path 286" d="M412.3,143.924s-12.176,10.276-17.044,14.183c-7.716,6.193-19.7,16.247-12.356,27.075,7.227,10.651-.83,47.628,2.584,65.551,3.382,17.752,1.691,30.433,1.691,30.433l61.148-43.724s-6.1-6.748-13.95-15.708c-6.693-7.643,2.052-19.65,6.263-30.877s11.7-42.106,11.7-42.106L432.5,141.4S420.256,145.8,412.3,143.924Z" transform="translate(-380.61 0.339)" fill="#5b7695"/>
        <g id="Group_8" data-name="Group 8" transform="translate(31.99 285.14)">
          <path id="Path_287" data-name="Path 287" d="M453.672,258.763l-.543-.959Z" transform="translate(-383.102 -237.451)" fill="#dba195"/>
          <path id="Path_288" data-name="Path 288" d="M404.12,244.646l-.769-1.31q.713.945,1.464,1.926Z" transform="translate(-403.35 -243.336)" fill="#dba195"/>
          <path id="Path_289" data-name="Path 289" d="M465.768,288.268l-2.856-5.4s6.215-12.432,16.425-19.979c3.064-2.265,6.485-4.728,9.776-7.189l1.29-.449S471.184,270.21,465.768,288.268Z" transform="translate(-379.122 -238.491)" fill="#dba195" opacity="0.51" style="mix-blend-mode: multiply;isolation: isolate"/>
          <path id="Path_290" data-name="Path 290" d="M455.269,261.584h0q-.861-1.517-1.754-3.1C454.109,259.537,454.7,260.574,455.269,261.584Z" transform="translate(-382.945 -237.173)" fill="#f34e6a"/>
          <path id="Path_291" data-name="Path 291" d="M453.448,258.369l-1.1-1.954Z" transform="translate(-383.42 -238.016)" fill="#f34e6a"/>
          <path id="Path_292" data-name="Path 292" d="M445.673,244.4q-.215-.392-.429-.785Q445.457,244.009,445.673,244.4Z" transform="translate(-386.309 -243.222)" fill="#f34e6a"/>
        </g>
        <path id="Path_293" data-name="Path 293" d="M457.9,141.709c-4.008,6.235-21.156,35.188-25.612,44.987a27.211,27.211,0,0,1-3.752,6.187c-.667,2.128-1.3,4.03-1.875,5.56-3.756,10.016-11.091,20.643-7.884,28.248-7.155-4.806-2.359-13.461-.474-17.441,2.024-4.274,6.073-19.795,6.073-24.294s-4.274-15.3,2.925-19.121,11.056-9.5,17.322-15.521,6.523-8.1,10.8-13.048c2.2-2.552,8.775-8.933,14.623-14.515C464.719,131.068,459.6,139.06,457.9,141.709Z" transform="translate(-366.631 -7.246)" fill="#5b7695" opacity="0.34" style="mix-blend-mode: multiply;isolation: isolate"/>
      </g>
      <ellipse id="Ellipse_1" data-name="Ellipse 1" cx="76.514" cy="12.752" rx="76.514" ry="12.752" transform="translate(29.675 569.601)" opacity="0.28" fill="url(#radial-gradient)" style="mix-blend-mode: multiply;isolation: isolate"/>
    </g>
    <g id="Group_16" data-name="Group 16" transform="translate(648.15 63.986)">
      <g id="Group_15" data-name="Group 15">
        <path id="Path_294" data-name="Path 294" d="M674.724,76.71c-1.74,3.247-4.064,4.125-4.852,2.932-1.175-1.781,3.782-6.951,5.236-12.211,1.491-5.395,1.426-10.129-.708-9.657a.475.475,0,0,0-.333.328,29.322,29.322,0,0,1-3.454,7.086s2.117-7.111.293-7.869-1.536,3.988-3.991,8.538c0,0,.065-5.105-1.349-3.964-.812.656.051,5.111-2.308,15.828-2.234,10.146-6.624,13.979-8.766,17.3-.993,1.54-.883,2.432-.134,2.881-2.216,2.988-5.09,6.5-8.957,10.836-1.6,1.791-3.112,3.518-4.586,5.211,3.341,3.99,4.4,9.788,8.175,17.123,6.491-14.448,12.766-28.142,14.943-31.844,1.1-1.877,1.957-3.275,2.605-4.376a1.512,1.512,0,0,0,.3-.354c4.851-8.961,9.121-11.367,10.086-16.617C677.073,77.08,676.484,73.425,674.724,76.71Z" transform="translate(-409.495 -57.237)" fill="#af786b"/>
        <path id="Path_295" data-name="Path 295" d="M510.764,109.792c-4.193-4.022-7.333-7.3-9.773-10.108.712-.505.751-1.4-.357-2.861-2.394-3.146-7.07-6.624-10.087-16.567-3.184-10.5-2.67-15.009-3.531-15.6-1.5-1.027-1.037,4.059-1.037,4.059-2.8-4.346-2.884-9.1-4.644-8.2s.9,7.822.9,7.822a29.338,29.338,0,0,1-4-6.795.472.472,0,0,0-.357-.3c-2.164-.3-1.861,4.421.046,9.683,1.858,5.13,7.2,9.9,6.169,11.766-.692,1.251-3.077.557-5.064-2.545-2.01-3.139-2.314.551-2.106,1.336,1.37,5.159,5.817,7.225,11.348,15.783a1.447,1.447,0,0,0,.329.329c.733,1.048,1.691,2.376,2.939,4.161,2.456,3.52,9.778,16.686,17.374,30.586,3.192-7.608,3.8-13.471,6.817-17.708C514.139,113.057,512.494,111.452,510.764,109.792Z" transform="translate(-476.381 -55.949)" fill="#af786b"/>
        <g id="Group_14" data-name="Group 14" transform="translate(12.76 32.466)">
          <path id="Path_296" data-name="Path 296" d="M628.84,219.023l-1.871,34.625S654,334.6,645.685,360.33c-4.468,13.823-65.489,62.09-69.529,66.131s-9.089,15.149-10.1,18.852-1.684,16.16-1.684,16.16,7.07,6.4-.336,8.08-13.129-2.694-13.466-6.06-.338-23.9-1.01-28.279,1.682-10.773,7.407-12.119,11.445-5.723,15.486-12.793,17.17-42.418,40.062-46.122l4.04-32.655-20.2-70.361,6.733-47.132Z" transform="translate(-459.42 -25.924)" fill="#af786b"/>
          <path id="Path_297" data-name="Path 297" d="M628.84,219.023l-1.871,34.625S654,334.6,645.685,360.33c-4.468,13.823-65.489,62.09-69.529,66.131s-9.089,15.149-10.1,18.852-1.684,16.16-1.684,16.16,7.07,6.4-.336,8.08-13.129-2.694-13.466-6.06-.338-23.9-1.01-28.279,1.682-10.773,7.407-12.119,11.445-5.723,15.486-12.793,17.17-42.418,40.062-46.122l4.04-32.655-20.2-70.361,6.733-47.132Z" transform="translate(-459.42 -25.924)" fill="#af786b" opacity="0.1" style="mix-blend-mode: multiply;isolation: isolate"/>
          <path id="Path_298" data-name="Path 298" d="M623.415,143.067c-2.161,7.767-21.366,16.87-22.009,32.01s13.315,11.82,2.02,16.5-16.871,10.238-15.486,20.2-22.892,24.911-48.479,9.762c-10.247-6.066-16.469-21-14.476-35.012s21.075-17.839,22.166-28.024-7.017-18.434,10.239-26.866c11.793-5.762,15.469-11.588,18.934-21.027s32.947,8.438,32.947,8.438S630.349,118.141,623.415,143.067Z" transform="translate(-469.522 -69.114)" fill="#391e21"/>
          <path id="Path_299" data-name="Path 299" d="M593.293,123.708s-7.345,8.439-14.785,12.768-10.69,3.756-14.336,14.329,1.048,18.112-11.713,25.768-21.146,48.126,5.1,44.115,28.074-9.114,30.625-16.406,18.595-43.022,18.595-43.022l3.281-24.427Z" transform="translate(-463.119 -62.664)" fill="#391e21" opacity="0.28" style="mix-blend-mode: multiply;isolation: isolate"/>
          <path id="Path_300" data-name="Path 300" d="M594.546,327.325s15.4,2.655,21.189-9.98-12.371-10-12.371-10l-9.74,11.845Z" transform="translate(-441.452 11.94)" fill="#af786b" opacity="0.37" style="mix-blend-mode: multiply;isolation: isolate"/>
          <g id="Group_11" data-name="Group 11" transform="translate(158.92)">
            <path id="Path_301" data-name="Path 301" d="M599.073,184.088s-2.707-21.064,2.9-22.034c12.551-2.172,30.208-21.426,30.208-21.426s25.482-38.24,30.6-47.6c6.4-11.7,8.168-12.714,8.168-12.714l10.689,9.258s-17.742,43.269-26.065,56.38c-8.518,13.421-33.3,45.171-38.069,50.929C613.965,201.161,599.073,184.088,599.073,184.088Z" transform="translate(-598.42 -80.315)" fill="#d56b7e"/>
            <path id="Path_302" data-name="Path 302" d="M640.624,139.632a4.429,4.429,0,0,0-.982.988c-4.617,5.935-21.763,17.8-21.763,17.8s5.935-9.562-1.978-5.6-9.892-.989-9.892-.989l-1.649,2.638,8.287,18.859a2.266,2.266,0,0,0,2.444-.573C618.276,168.908,630.389,153.465,640.624,139.632Z" transform="translate(-596.004 -56.187)" fill="#d56b7e" opacity="0.44" style="mix-blend-mode: multiply;isolation: isolate"/>
          </g>
          <g id="Group_12" data-name="Group 12" transform="translate(116.455 33.703)">
            <path id="Path_303" data-name="Path 303" d="M598.1,127.073s-4.2,13.039,3.721,21.764c4.23,4.659-3.857,11.329-11.981,11.188-7.089-.122-14.12-6.8-14.12-6.8s5.747-8.744-1.037-23.07Z" transform="translate(-565.612 -94.999)" fill="#af786b"/>
            <path id="Path_304" data-name="Path 304" d="M578.629,132.725l-1.642,7.459s.029.454.02,2.857c0,0,14,10.513,19.626-4.026,0,0-1-6.118-.535-7.457S578.629,132.725,578.629,132.725Z" transform="translate(-564.674 -93.335)" fill="#af786b" opacity="0.51" style="mix-blend-mode: multiply;isolation: isolate"/>
            <path id="Path_305" data-name="Path 305" d="M602.528,124.55a22.778,22.778,0,0,1-1.728-3.776c-.561-1.843-.563-3.9-1.515-5.614-.992-1.778-1.023-6.02-2.4-7.505-2.8-3.026-7.926-3.2-12.132-3.373a8.959,8.959,0,0,0-1.4.048l-.111.014a20.115,20.115,0,0,0-2.743.508l-.748.194c-4.431,1.144-7.414,5.057-9.21,9.13a31.031,31.031,0,0,0-2.023,6.529,10.225,10.225,0,0,0-.193,3.674c.245,1.5.878,2.927.844,4.469-.032,1.576-.459,3.123-.381,4.706a16,16,0,0,0,1.225,4.8,27.44,27.44,0,0,0,8.3,11.234,35.358,35.358,0,0,0,3.047,2.244,12.167,12.167,0,0,0,8.87,1.629l.732-.138a12.166,12.166,0,0,0,7.678-4.731c4.136-5.82,7.494-14.538,4.924-21.758A18.71,18.71,0,0,0,602.528,124.55Z" transform="translate(-568.234 -104.273)" fill="#af786b"/>
          </g>
          <path id="Path_306" data-name="Path 306" d="M612.078,274.534l4.738,40.536L596.021,289.8l-.527-17.109Z" transform="translate(-440.69 -2.062)" fill="#af786b" opacity="0.2" style="mix-blend-mode: multiply;isolation: isolate"/>
          <path id="Path_307" data-name="Path 307" d="M619.559,224.872l-6.733,36.358s22.22,56.221,27.606,67.668,7.069,27.606-3.366,33.665-34-.672-48.816-9.425-22.219-14.477-30.3-13.131S543.476,352.8,543.476,352.8s1.346,16.16-3.366,16.833-12.119-16.5-12.119-19.526,10.435-20.2,11.109-23.566.674-13.466,6.4-12.457,8.332,3.956,14.055,7.66,15.908,6.817,22.641,6.817,18.18-3.7,25.249,2.693c0,0-24.239-14.476-33.329-36.022s-13.466-39.052-4.376-61.608,12.793-23.9,12.793-23.9l39.389,4.376Z" transform="translate(-468.149 -27.676)" fill="#af786b"/>
          <path id="Path_308" data-name="Path 308" d="M600.229,309.773a70.95,70.95,0,0,0-11.108-4.443s-14.283-11.268-17.933-16.347-9.2-22.058-9.2-22.058l9.522,1.11S586.423,299.618,600.229,309.773Z" transform="translate(-454.322 -4.408)" fill="#af786b" opacity="0.2" style="mix-blend-mode: multiply;isolation: isolate"/>
          <path id="Path_309" data-name="Path 309" d="M608.847,145.782a20.284,20.284,0,0,1,11.251-6.848,12.6,12.6,0,0,1,6.361.219c7.658,2.546,5.692,18.108,11.9,30.008s5.69,19.142,2.587,30.525-11.9,44.493-11.9,44.493l-56.058-5.54s-3.957-29.642-4.475-42.576-17.073-29.49-17.073-29.49l9.829-25.869s16.188-.511,22.248,4.139C597.219,155.357,605.325,149.821,608.847,145.782Z" transform="translate(-458.61 -56.593)" fill="#d56b7e"/>
          <path id="Path_310" data-name="Path 310" d="M595.539,176.19s2.141-11.472-4.815-12.479c-15.82-2.287-54.08-28.405-54.08-28.405l-42.1-52.537-9.091,9.847s20.807,45.063,34.31,59.751c13.809,15.021,66.688,47.054,66.688,47.054Z" transform="translate(-485.452 -79.317)" fill="#d56b7e"/>
          <path id="Path_311" data-name="Path 311" d="M571.664,206.9l56.563,5.408-2.491,44.234s14.553,41.443,16.634,64.319c0,0-33.037-13.726-60.9-1.248,0,0-27.689-21.628-28.936-56.148s20.034-52.6,20.034-52.6Z" transform="translate(-458.187 -28.823)" fill="#5b7695"/>
          <path id="Path_312" data-name="Path 312" d="M571.664,206.9l58.416,6.917-4.344,42.725s14.553,41.443,16.634,64.319c0,0-33.037-13.726-60.9-1.248,0,0-27.689-21.628-28.936-56.148s20.034-52.6,20.034-52.6Z" transform="translate(-458.187 -28.823)" fill="#5b7695"/>
          <path id="Path_313" data-name="Path 313" d="M581.468,319.617a64.179,64.179,0,0,1,25.681-5.226,8.12,8.12,0,0,0-3.274-.841c-11.109-.505-19.19-11.614-19.19-11.614s21.715,1.009,11.616-3.03-23.735-19.695-30.8-30.3,7.574-1.01,13.634-1.01-11.614-23.735-2.02-36.864,16.665-21.208,16.665-21.208l.087-.5-22.2-2.123.9,3.966s-21.282,18.078-20.034,52.6S581.468,319.617,581.468,319.617Z" transform="translate(-458.187 -28.823)" fill="#5b7695" opacity="0.28" style="mix-blend-mode: multiply;isolation: isolate"/>
          <path id="Path_314" data-name="Path 314" d="M594.758,249.152l9.09-8.08-3.4,8.271L614.691,304l-6.947-1.293Z" transform="translate(-440.99 -14.924)" fill="#5b7695" opacity="0.28" style="mix-blend-mode: multiply;isolation: isolate"/>
          <path id="Path_315" data-name="Path 315" d="M593.249,228.17s7.68-1.018-.329-2.968c-16.838-4.1,6.774-24.385.882-25.174-12.371-1.657-13.708-10.016-11.033-24.059,1.431-7.512-11.209-14.64-21.106-14.882-7.319-.179-29.688-11.344-29.688-11.344l7.965,4.586,27.587,17.848.118-.3c4.222,5.768,8.528,13.176,8.788,19.672.416,10.4,3.056,31.593,4.074,39.5l21.7,1.232Z" transform="translate(-466.528 -52.074)" fill="#f6b545" opacity="0.44" style="mix-blend-mode: multiply;isolation: isolate"/>
          <g id="Group_13" data-name="Group 13" transform="translate(98.052 26.132)">
            <path id="Path_316" data-name="Path 316" d="M592.735,101.546a6.866,6.866,0,0,1,.795,11,14.592,14.592,0,0,1-4.208,2.383c-8.417,3.2-11.616,9.089-10.942,14.308s5.218,14.308-5.892,17.337c-3.318.906-8.542,4.313-10.6,7.407-3.272,4.91-8.14-3.048-6.347-8.67a12.191,12.191,0,0,1,1.633-3.281c6.566-9.427,5.387-10.773,5.387-16.16s.893-16.084,5.891-20.2S582.913,95.27,592.735,101.546Z" transform="translate(-555.152 -98.891)" fill="#391e21"/>
            <path id="Path_317" data-name="Path 317" d="M583.344,106.434s-1,4.1,3.2,3.871c7.241-.392,9.137,3.437,9.823,10.229.8,7.958,5.741,7.75,5.318,17.69,0,0,2.7-12.432.85-20.007s-8.753-21.882-22.387-18.685S583.344,106.434,583.344,106.434Z" transform="translate(-547.154 -98.817)" fill="#391e21"/>
          </g>
          <path id="Path_318" data-name="Path 318" d="M585.938,103.046l3.562-.937s20.053,16.306,9,43.295c0,0,1.5-32.8-8.809-37.485C585.078,105.824,585.938,103.046,585.938,103.046Z" transform="translate(-444.603 -71.45)" fill="#391e21"/>
        </g>
      </g>
      <ellipse id="Ellipse_2" data-name="Ellipse 2" cx="106.856" cy="12.752" rx="106.856" ry="12.752" transform="translate(32.369 546.259)" opacity="0.28" fill="url(#radial-gradient-2)" style="mix-blend-mode: multiply;isolation: isolate"/>
    </g>
    <g id="Group_24" data-name="Group 24" transform="translate(277.504 71.733)">
      <g id="Group_23" data-name="Group 23" transform="translate(16.575)">
        <g id="Group_22" data-name="Group 22">
          <g id="Group_21" data-name="Group 21">
            <g id="Group_17" data-name="Group 17" transform="translate(0 236.48)">
              <path id="Path_319" data-name="Path 319" d="M306.92,237.745s8.28,23.473,6.307,30.706-7.17,18.869-9.673,38.856-7.042,43.458-8.358,49.7-1.12,8.941-6.25,24.326-14.934,46.744-20.065,62.128-10.524,28.6-19.139,37.67S223.5,502.96,224.753,505.788s15.12,7.235,25.444,1.583,15.649-9.794,25.447-11.239,15.78-6.572,15.189-10.386-6.046-11.441-5.125-18.8,4.54-14.924,15.324-28.532,21.114-44.9,21.18-53.976,9.472-20.183,10.592-29.126,24.272-70.148,24.272-70.148l-2.56-22.224L346.5,245.9l-9.334-15.058Z" transform="translate(-224.69 -230.846)" fill="#af786b"/>
              <path id="Path_320" data-name="Path 320" d="M289.105,307.307c-2.5,19.986-7.042,43.458-8.358,49.7s-1.12,8.941-6.25,24.326c-3.556,10.662-9.355,28.992-14.288,44.365a47.5,47.5,0,0,1,29.657,8.014c9.507-15.089,17.838-41.138,17.9-49.283.068-9.074,9.472-20.183,10.592-29.126s24.272-70.148,24.272-70.148l-2.56-22.224-8.017-17.03-9.334-15.058-30.245,6.9s8.28,23.473,6.307,30.706S291.608,287.319,289.105,307.307Z" transform="translate(-210.242 -230.846)" fill="#282425"/>
            </g>
            <path id="Path_321" data-name="Path 321" d="M312.594,259.145l-7.251-10.523-26.88,75.557,28.174-.674Z" transform="translate(-202.817 12.865)" fill="#f6b545" opacity="0.46" style="mix-blend-mode: multiply;isolation: isolate"/>
            <g id="Group_18" data-name="Group 18" transform="translate(102.488 70.643)">
              <path id="Path_322" data-name="Path 322" d="M324.6,135.2,341,131.412s-15.072,18.4-11.761,35.515c3.665,18.948-28.792-.381-28.792-.381s12.411-13.767,9.151-31.555C308.86,130.983,324.6,135.2,324.6,135.2Z" transform="translate(-296.364 -105.455)" fill="#af786b"/>
              <path id="Path_323" data-name="Path 323" d="M313.02,140.159l12.121,4.265s-3.9,12.727-21.38,11.769l5.026-10.572Z" transform="translate(-295.015 -101.897)" fill="#af786b" opacity="0.44" style="mix-blend-mode: multiply;isolation: isolate"/>
              <path id="Path_324" data-name="Path 324" d="M331.37,118.376c-7.407-4.14-14.886-3.276-22.885,4.732-4.78,4.787-4.616,11.458-8.006,13.672-2.234,1.459-3.144.689-2.9,2.117a4.378,4.378,0,0,0,2.228,2.844s-2.09,12.526,4.143,17.433c5.609,4.413,16.722,2.234,23.919-3.337C333.171,151.74,348.345,127.866,331.37,118.376Z" transform="translate(-297.544 -111.748)" fill="#af786b"/>
              <path id="Path_325" data-name="Path 325" d="M334.046,116.644a42.438,42.438,0,0,0-4.437-1.906c-.208-.066-.418-.128-.63-.188s-.394-.131-.612-.181-.415-.087-.629-.134c-.259-.06-.522-.115-.788-.167-11.351-2.366-16.209-.491-19.449,1.463-3.776,2.278-3.683,9,5.61,9.119a6.862,6.862,0,0,1,.858.076,14.563,14.563,0,0,1,4.309,1.723,9.692,9.692,0,0,1,3.258,3.935,16.174,16.174,0,0,1,.951,4.042c.691,5.582,3.154,4.811,6.508,6l.542,3.921c-5.937,2.369-2.41,19.381-2.41,19.381a58.64,58.64,0,0,1,10.714-7.582C351.505,148.7,349.681,123,334.046,116.644Z" transform="translate(-294.443 -112.96)" fill="#391e21"/>
              <path id="Path_326" data-name="Path 326" d="M319.95,132.26s2.527-2.815,5.175-1.4.943,13.042-6.844,8.647" transform="translate(-289.108 -105.84)" fill="#af786b"/>
              <path id="Path_327" data-name="Path 327" d="M328.761,123.277a9,9,0,0,1,9.047-6.754c7.571,0,13.511,8,9.587,16.658s-16.036,4.618-16.036,4.618Z" transform="translate(-284.845 -111.511)" fill="#391e21"/>
            </g>
            <path id="Path_328" data-name="Path 328" d="M287.01,309.154,275.8,319.039s1.031,12.73,9.884,17.514,20.484,2.038,20.484,2.038l5.851-15.138Z" transform="translate(-203.902 37.488)" fill="#f6b545" opacity="0.46" style="mix-blend-mode: multiply;isolation: isolate"/>
            <g id="Group_19" data-name="Group 19" transform="translate(71.192 225.135)">
              <path id="Path_329" data-name="Path 329" d="M347.84,222.781s18.956,21.872,20.11,37.682-8.94,33.264-19.893,45.678-32.24,37.317-32.24,37.317l-9.949,9.406s-14.886,18.814-20.129,15.652S270.086,353.4,278.417,336.9s35.465-67.239,35.465-67.239L294,229.9Z" transform="translate(-275.297 -222.781)" fill="#282425"/>
              <path id="Path_330" data-name="Path 330" d="M322.965,311.911s.672-11.566,17.374-9.476,27.559,7.521,31.61,4.974,5.695-13.3,9.792-15.051c0,0,3.949-2.567,13.76,5.785S408.82,308.293,414,310.3s16.442,15.365,9.535,20.734l-6.3-2.684a10.482,10.482,0,0,0-3.659-.833c-3.264-.145-9.871-.436-12.858-.56-4.05-.167-8.059,2.045-16.411,1s-33.447,4.295-33.447,4.295-60.509,17.194-69.985,6.167S322.965,311.911,322.965,311.911Z" transform="translate(-273.502 -194.63)" fill="#af786b"/>
              <path id="Path_331" data-name="Path 331" d="M346.4,300.591c-1.906-.373-3.908-.7-6-.966-16.7-2.09-26.083,1-26.083,1s-42.861,23.963-33.385,34.988c6.933,8.066,41.151,1.034,59.038-3.324A80.7,80.7,0,0,1,346.4,300.591Z" transform="translate(-273.562 -191.819)" fill="#282425"/>
              <path id="Path_332" data-name="Path 332" stroke="#f6b545" d="M337.672,227.954l1.374,6.878s12.377,12.726,10.931,28.75-16.237,27.025-29.787,37.064-33.775,33.214-28.548,36.1,35.9-5.565,46.217,1.314" fill="none" transform="translate(-268.991 -220.677)" stroke-miterlimit="10" stroke-width="1.436" stroke-dasharray="4.308 2.872" opacity="0.46" style="mix-blend-mode: multiply;isolation: isolate"/>
            </g>
            <path id="Path_333" data-name="Path 333" d="M339.008,281.778l-.581-1.647s-26.724,22.645-37.064,27.651c0,0,10.727-1.808,15.154-1.516Z" transform="translate(-193.502 25.682)" fill="#f6b545" opacity="0.46" style="mix-blend-mode: multiply;isolation: isolate"/>
            <g id="Group_20" data-name="Group 20" transform="translate(34.827)">
              <path id="Path_334" data-name="Path 334" d="M316.2,194.222,301.6,182.779l-14.218-15.645-15.363-16.907s6.979-55.753,8.69-60.881,10.917-14.66,10.26-17.949-11.569-10-16.041-8.418a7.776,7.776,0,0,0-4.365,4.452c-1.253,2.728-1.915,6.405-2.427,10.5-.923,7.364,1.923,6.876-2.812,19.105s-17.039,50.755-15.791,57.856,30.3,39.586,38.126,49.646,7.359,26.564,7.359,26.564Z" transform="translate(-249.447 -62.744)" fill="#af786b"/>
              <path id="Path_335" data-name="Path 335" d="M252.049,133.484c-1.488-4.22.921-18.727.921-18.727l-.186.588c-2.256,8.539-3.721,15.708-3.25,18.391,1.061,6.032,22.182,30.376,33.312,43.736l3.728-4.346S253.538,137.7,252.049,133.484Z" transform="translate(-249.447 -41.587)" fill="#af786b" opacity="0.44" style="mix-blend-mode: multiply;isolation: isolate"/>
              <path id="Path_336" data-name="Path 336" d="M346.836,243.745c-2.76-7.824,3.095-24.721,3.095-24.721l1.844-19s16.251-18.163,13.62-24.846c-1.958-4.972-14.536-6.253-20.453-10.2a15.313,15.313,0,0,1-5.426-6.371c-.2.111-.36.21-.561.322-18.175,10.233-24.334-4.586-24.334-4.586-2.788,1-7.915.145-12.938-2.259-7.561-3.617-10.717-4.012-10.717-4.012l-8.552,25.64s-3.092,11.9-6.118,23.275,4.928,16.109,2.754,33.467,1.767,49.9,1.372,53.059,16.963,1.055,31.166-1.442S354.525,263.4,354.525,263.4,349.6,251.57,346.836,243.745Z" transform="translate(-238.809 -28.036)" fill="#da97a6"/>
              <path id="Path_337" data-name="Path 337" d="M332.765,204.527l1.844-19s.384-.43,1.021-1.177l-3.452-.639-5.14,5.717s-2.214,15.484-6.913,22.086c-5.409,7.6-.239,8.542,3.909,24,1.522,5.664-3.345,20.52-3.645,22.5,5.316-2.745,16.97-9.1,16.97-9.1s-4.929-11.835-7.689-19.66S332.765,204.527,332.765,204.527Z" transform="translate(-221.644 -13.539)" fill="#36aaea" opacity="0.46" style="mix-blend-mode: multiply;isolation: isolate"/>
              <path id="Path_338" data-name="Path 338" d="M329.723,182.792l4.725-18.43s13.018-1.576,14.134,10.852,1.177,37.542.979,39.121.485,17,.485,17A103.082,103.082,0,0,1,362.457,220.1c4.347-3.38,13.508-10.5,13.491-12.735-.023-2.66-.3-6.256-.3-6.256s.252-6.076,2.507-5.793,4.886-2.442,6.952-.657c0,0,2.255-1.753,4.1-.249,0,0,2.224-1.5,3.289.156s6.136,9.929,3.6,11.9-7.83,3.6-11.15,5.73-4.887,4.478-6.547,7.578-13.036,22.254-19.661,29.441c-5.588,6.06-13.419,15.275-19.869,11.922s-9.83-19.043-10.424-30.568-3.94-31.538-3.94-31.538Z" transform="translate(-218.914 -21.435)" fill="#af786b"/>
              <path id="Path_339" data-name="Path 339" d="M350.509,205.148c-.062-8.849-.345-21.865-1.054-29.763-1.116-12.427-14.435-11.493-14.435-11.493l-12.655,18.786,3.019,16.522s.788,4.72,1.667,10.88C330.941,208.056,340.38,203.91,350.509,205.148Z" transform="translate(-219.787 -21.607)" fill="#da97a6"/>
              <path id="Path_340" data-name="Path 340" d="M264.447,156.742s13.419-13.281,16.838-19.792c0,0,11.641,13.518,16.292,16.008s4.587.957,9.41,4.1-4.777,10.725-4.777,10.725l-10.87,12.634-5.887,5.371a19.3,19.3,0,0,0-4.164-10.445C277.4,170.79,264.447,156.742,264.447,156.742Z" transform="translate(-243.346 -32.559)" fill="#da97a6"/>
            </g>
            <path id="Path_341" data-name="Path 341" d="M264.447,152.385l4.7-4.723s15.953,17.759,23.984,17.658l-7.675,16.116a15.273,15.273,0,0,0-4.164-10.445C276.355,165.666,264.447,152.385,264.447,152.385Z" transform="translate(-208.518 -28.202)" fill="#36aaea" opacity="0.46" style="mix-blend-mode: multiply;isolation: isolate"/>
          </g>
          <path id="Path_342" data-name="Path 342" d="M336.793,219.066a27.5,27.5,0,0,1,8.348-6.094l-.6-3.9Z" transform="translate(-179.09 -3.22)" fill="#af786b" opacity="0.44" style="mix-blend-mode: multiply;isolation: isolate"/>
        </g>
        <path id="Path_343" data-name="Path 343" d="M333.022,137.852c-2.636,8.894-9.294,8.7-12.976,15.113a57.575,57.575,0,0,0,1.028,9.691,58.719,58.719,0,0,1,10.714-7.582c5.657-3.081,8.65-9.29,9.117-15.963,3.642.039,7.969-.989,10.034-5.547,3.923-8.657-2.016-16.656-9.587-16.658a8.886,8.886,0,0,0-7.013,2.967,18.7,18.7,0,0,0-6.347-4.295S336.018,127.749,333.022,137.852Z" transform="translate(-185.902 -41.252)" fill="#391e21" opacity="0.27" style="mix-blend-mode: multiply;isolation: isolate"/>
      </g>
      <ellipse id="Ellipse_3" data-name="Ellipse 3" cx="135.564" cy="12.752" rx="135.564" ry="12.752" transform="translate(0 538.512)" opacity="0.28" fill="url(#radial-gradient-3)" style="mix-blend-mode: multiply;isolation: isolate"/>
    </g>
    <g id="Group_30" data-name="Group 30" transform="translate(54.103 51.909)">
      <path id="Path_344" data-name="Path 344" d="M199.253,122.509c-4.4-9.358-6.868-6.2-12.174-11.36s-12.052-11.073-19.125-8.882c-5.216,1.615-8.467,7.266-13.744,8.674-5,1.334-10.117-1.564-14.111-4.852s-7.791-7.221-12.8-8.525a13.782,13.782,0,0,0-16.867,16.587c.786,3.237,2.716,6.091,3.642,9.29,1.85,6.388-.505,13.215-3.49,19.157s-6.684,11.718-7.753,18.281,1.435,14.349,7.618,16.8c3.378,1.338,7.287.89,10.594,2.393,2.541,1.154,4.454,3.337,6.125,5.572,4.616,6.174,8.073,13.279,13.6,18.657s14.141,8.719,21.011,5.222c5.387-2.743,8.313-8.908,13.572-11.884,8.982-5.084,20.95.871,30.378-3.333,5.991-2.671,9.688-9.157,10.33-15.687s-1.37-13.067-4.267-18.955c-2.915-5.924-6.843-11.77-6.824-18.371.007-2.908.8-5.778.729-8.684-.221-9.091-8.4-15.684-15.825-20.936" transform="translate(-34.379 -28.928)" fill="#391e21"/>
      <ellipse id="Ellipse_4" data-name="Ellipse 4" cx="76.514" cy="12.752" rx="76.514" ry="12.752" transform="translate(59.517 558.337)" opacity="0.28" fill="url(#radial-gradient-4)" style="mix-blend-mode: multiply;isolation: isolate"/>
      <g id="Group_29" data-name="Group 29">
        <path id="Path_345" data-name="Path 345" d="M180.413,159.036a12.833,12.833,0,0,1-7.492-.685,2.293,2.293,0,0,1-1.459-1.757,37.746,37.746,0,0,1,1.346-18.16l-29.34-13.17s9.406,19.077,7.177,31.254c-.176.129-2.877,3.738-7.384,3.212-1.206-.141-3.387,3.477-3.387,3.477l12.083,27.184s20.319.276,22.515,0,8.512-10.434,8.512-10.434S184.125,158.04,180.413,159.036Z" transform="translate(-19.215 -17.488)" fill="#fcb29a"/>
        <g id="Group_27" data-name="Group 27" transform="translate(21.433 232.683)">
          <path id="Path_346" data-name="Path 346" d="M114.192,320.874l-10.807-8.457s-8.929-8.457-14.1-3.759-6.578,19.266-12.216,27.723-9.868,27.253-6.579,36.181S79.891,364.1,88.818,358s20.675-15.977,20.675-15.977Z" transform="translate(-69.339 -176.15)" fill="#fcb29a"/>
          <g id="Group_26" data-name="Group 26" transform="translate(81.395 11.747)">
            <g id="Group_25" data-name="Group 25">
              <path id="Path_347" data-name="Path 347" d="M156.912,241.67l1.879-15.037L200.14,222.4l4.229,23.494,5.64,17.386s15.975,31.952,22.555,59.205,5.638,37.592-.94,41.82-66.255,25.844-66.255,25.844-7.988,4.229-12.216,9.4-13.717,28.9-20.205,26.314c-4.03-1.608-9.358-12.226-2.31-23.974s2.31-20.508,2.211-22.856c-.245-5.9,1.978-13.315,7.146-13.315s5.638,4.7,12.216,0,21.145-20.205,42.29-19.736c0,0,4.7-1.41,1.41-8.457S175.706,309.8,175.706,309.8l-8.457-24.9-12.216-39.941Z" transform="translate(-127.198 -222.404)" fill="#fcb29a"/>
              <path id="Path_348" data-name="Path 348" d="M158.267,390.154s59.675-21.615,66.255-25.844,7.518-14.567.94-41.82-22.555-59.205-22.555-59.205l-5.64-17.386L193.039,222.4l-41.349,4.229L149.81,241.67l-1.879,3.289L160.147,284.9l8.457,24.9s16.916,20.674,20.205,27.723-1.41,8.457-1.41,8.457c-21.145-.47-35.711,15.037-42.289,19.736,0,0-2.836,18.016,5.664,29.348A56.735,56.735,0,0,1,158.267,390.154Z" transform="translate(-120.097 -222.404)" fill="#5b7695"/>
            </g>
          </g>
          <path id="Path_349" data-name="Path 349" d="M190.556,310.758s2.565,22.889-8.562,28.88-50.383-1.055-50.383-1.055,7.4-23.192,17.39-27.093S190.556,310.758,190.556,310.758Z" transform="translate(-44.009 -175.212)" fill="#5b7695"/>
          <path id="Path_350" data-name="Path 350" d="M168.55,312.24l10.7,12.766,1.712-82.586-18.4,11.981Z" transform="translate(-31.42 -202.516)" fill="#5b7695" opacity="0.34" style="mix-blend-mode: multiply;isolation: isolate"/>
          <path id="Path_351" data-name="Path 351" d="M167,214.054l-2.566,2.656-11.06,11.44s-14.1,24.9-7.988,46.519,23.494,69.074,23.494,69.074-10.338-2.819-28.194,1.879-46.048,4.7-46.048,4.7-11.748,21.145,6.108,29.6a171.378,171.378,0,0,1,45.109-2.819c23.964,1.879,46.518,3.759,53.1-3.759s7.048-20.675,6.108-33.831-5.621-60.274-8.441-75.076c-1.512-7.941-16.463-22.66-16.463-22.66Z" transform="translate(-60.591 -214.054)" fill="#5b7695"/>
          <path id="Path_352" data-name="Path 352" stroke="#f34e6a" d="M156.613,234.717s-5.378,15.261-.974,28.7c4.413,13.461,13.67,66.371,23.108,75.158,5.645,5.256,3.388,6.328-17.026,3.648-24.08-3.162-49.133,11.188-68.835,9.242" fill="none" transform="translate(-59.761 -205.649)" stroke-miterlimit="10" stroke-width="1.077" stroke-dasharray="4.308 2.872" opacity="0.49" style="mix-blend-mode: multiply;isolation: isolate"/>
        </g>
        <path id="Path_353" data-name="Path 353" d="M212.716,108.867a4.475,4.475,0,0,1-5.827-5.824c2.764-6.843,5.595-15.013,4.163-16.748-2.276-2.754-2.465-11.339-2.058-15.214.12-1.145.49-3.877-.75-5.994-1.065-1.819-.487-3.594,1.5-2.251s2.518,2.721,3.137,6.15c.3,1.666.716,2.84,1.228,2.822.9-.034,1.432-4.881,1.352-9.387-.082-4.652-.165-9.9,1.118-11.3.995-1.09,2,.589,2.3,3.618s-1.128,9.338.388,9.847,1.561-6.529,1.418-9.309-1.584-5.966.339-6.541c1.32-.394,2.382.6,2.991,4.215s-1.324,12.287.006,12.368,1.82-8.581,1.614-10.288c-.214-1.765,1.294-2.722,2.48.11s.294,6.869-.2,10.164-1.514,4.851-.546,5.181C228.31,70.8,229.38,69,229.377,66s-.136-6.15,1.351-5.354,2.5,4.979,1.421,10.276-4.628,12.171-9.1,15.687c0,0-3.742,15.313-2.359,19.038Z" transform="translate(7.908 -48.652)" fill="#fcb29a"/>
        <path id="Path_354" data-name="Path 354" d="M170.528,195.671l-4.043-16.68s3.02-1.19,18.609-13.864c13.859-11.267,21.615-28.193,21.615-28.193S220.8,92.3,225.029,76.789L241.48,78.2s-6.086,57.537-12.937,73.149c-7.65,17.433-45.033,62.973-45.033,62.973Z" transform="translate(-8.39 -37.206)" fill="#f34e6a"/>
        <path id="Path_355" data-name="Path 355" d="M159.541,135.76l-10.261.072.544,2.586s2.5,14.176,17.893,13.931l-1.736-9.849Z" transform="translate(-15.389 -13.219)" fill="#f9af9a" style="mix-blend-mode: multiply;isolation: isolate"/>
        <path id="Path_356" data-name="Path 356" d="M183.954,136.678a16.954,16.954,0,0,1,.09,4.395c-.606,5.374-3.987,9.909-7.076,14.26-9.515,13.4-30.343-5.923-30.9-18.582-.622-14.2,6.349-25.216,17.89-26.881,7.158-1.033,16.5.453,18.794,12.222.66,3.386-.709,6.429.3,10.379A40.14,40.14,0,0,1,183.954,136.678Z" transform="translate(-16.709 -23.86)" fill="#f9af9a"/>
        <g id="Group_28" data-name="Group 28" transform="translate(115.513 78.802)">
          <path id="Path_357" data-name="Path 357" d="M158.2,115.119s2.944,4.507,11.6,3.368,9.572,3.658,9.572,3.658,2.393-2.7,1.407-8.192c-2.12-11.8-18.5-9.854-24.813-7.528S158.2,115.119,158.2,115.119Z" transform="translate(-129.128 -104.668)" fill="#391e21"/>
          <path id="Path_358" data-name="Path 358" d="M173.464,111.82s-5.346,10.607-10.808,14.615-9.4,1.479-7.127,9.257-4.391,24.2-4.391,24.2a58.186,58.186,0,0,0-10.271-14.308c-6.879-7.037-7.454-30.69,7.447-37.274C166.7,100.189,173.464,111.82,173.464,111.82Z" transform="translate(-136.216 -104.359)" fill="#391e21"/>
        </g>
        <path id="Path_359" data-name="Path 359" d="M155.636,122.126s-.961-5.963-6.17-2.376-1.065,14.033,5.142,12.406" transform="translate(-16.276 -20.198)" fill="#fcb29a"/>
        <path id="Path_360" data-name="Path 360" d="M206.841,206.744c6.11-9.867,4.23-15.505,1.879-22.085s-3.289-15.505-9.4-24.9c-4.378-6.736-7.435-9.527-14.85-9.161-.439,6.575-.83,25.26-10.579,25.26-12.454,0-19.131-16.292-21.721-24.572-3.044-.744-5.008-1.394-5.008-1.394l-9.4-3.289-15.507,29.6s5.792,24.434,11.9,37.592.328,22.756-.142,35.913-5.507,21.259-5.507,21.259,25.7-2.667,44.028,2.5a88.5,88.5,0,0,0,34.936,2.349s-1.256-26.783-3.606-40.411S200.733,216.612,206.841,206.744Z" transform="translate(-26.379 -8.81)" fill="#f34e6a"/>
        <path id="Path_361" data-name="Path 361" d="M88.431,110.236a4.475,4.475,0,0,0,3.413-7.5c-4.988-5.439-10.507-12.1-9.773-14.222,1.165-3.378-1.67-11.482-3.411-14.969-.513-1.03-1.819-3.458-1.4-5.875.359-2.078-.8-3.537-2.19-1.583s-1.4,3.431-.781,6.859c.3,1.666.326,2.912-.16,3.072-.852.284-3.053-4.067-4.559-8.315-1.554-4.386-3.317-9.327-5.012-10.193-1.314-.672-1.67,1.255-.882,4.192s4.334,8.349,3.092,9.359-3.753-5.567-4.593-8.22-.611-6.143-2.614-6.005c-1.373.093-2.019,1.4-1.321,5s5.55,11.04,4.333,11.583-4.715-7.4-5.121-9.068c-.418-1.728-2.165-2.095-2.283.972s2.134,6.537,3.752,9.449,3.119,4.011,2.328,4.659c-.772.634-2.408-.682-3.455-3.486s-2.03-5.807-3.144-4.54-.6,5.54,2.276,10.122,8.6,9.773,14.027,11.5c0,0,8.877,13.027,8.888,17Z" transform="translate(-54.103 -45.323)" fill="#fcb29a"/>
        <path id="Path_362" data-name="Path 362" d="M168.234,197.873l-7.048-23.964s-7.846-2.757-16.3-13.1-25.776-25.562-25.776-25.562L81.775,79.461,64.694,88.39l31.714,64.434,57.728,65.254Z" transform="translate(-49.795 -36.119)" fill="#f34e6a"/>
        <path id="Path_363" data-name="Path 363" d="M158.121,210.9c-15.49-3.669-16.463-22.116-16.463-22.116.428-12.411,1.694-12.015-9.29-17.141S98.429,144.1,98.429,144.1l.248.5,35.059,39.63c.217.817.454,1.7.7,2.612h0l.058.211q.367,1.342.774,2.788c.052.186.1.37.156.557q.424,1.5.883,3.068c.038.129.077.26.117.392q.492,1.669,1.019,3.389l.008.024c.349,1.135.712,2.279,1.082,3.42.046.145.091.288.139.433q.534,1.64,1.093,3.255c.062.18.122.357.184.536q.555,1.6,1.128,3.131c.063.17.127.338.191.506.388,1.031.781,2.037,1.177,3,.049.118.1.232.148.35.418,1.006.838,1.981,1.26,2.892a29.073,29.073,0,0,1,2.515,8.481h-.015c.816,6.074-.43,11.655-1.481,17.663l-.076.421.007-.015a68.43,68.43,0,0,0-1.092,9.363c-.47,13.156-5.507,21.259-5.507,21.259s3.926-.405,9.794-.594l.952-.058s1.647-15.01.366-24.713c-.07-.529-.12-1.072-.153-1.623-.568-9.636,4.734-18.675,13.039-23.593q.612-.363,1.215-.716C170.35,216.607,173.611,214.569,158.121,210.9Z" transform="translate(-36.073 -9.825)" fill="#f34e6a" opacity="0.31" style="mix-blend-mode: multiply;isolation: isolate"/>
        <path id="Path_364" data-name="Path 364" d="M179.238,196.321l4.3,11.135c10.548-13.184,33.942-43.129,39.817-56.515,6.851-15.612,12.937-73.149,12.937-73.149s-9.726,59.069-14.024,67.55C206.622,176.215,179.238,196.321,179.238,196.321Z" transform="translate(-3.203 -36.799)" fill="#f34e6a"/>
        <path id="Path_365" data-name="Path 365" d="M158.313,136.281" transform="translate(-11.714 -13.007)" fill="#f9af9a"/>
      </g>
    </g>
  </g>
</svg>
