<?xml version="1.0" encoding="utf-8"?>
<!-- Generator: Adobe Illustrator 23.0.3, SVG Export Plug-In . SVG Version: 6.00 Build 0)  -->
<svg version="1.1" id="Layer_1" xmlns="http://www.w3.org/2000/svg" xmlns:xlink="http://www.w3.org/1999/xlink" x="0px" y="0px"
	 viewBox="0 0 861.5 595.1" style="enable-background:new 0 0 861.5 595.1;" xml:space="preserve">
<style type="text/css">
	.st0{fill:#391E21;}
	.st1{opacity:0.28;fill:url(#Ellipse_4_1_);enable-background:new    ;}
	.st2{fill:#FCB29A;}
	.st3{fill:#5B7695;}
	.st4{opacity:0.34;fill:#5B7695;enable-background:new    ;}
	
		.st5{opacity:0.49;fill:none;stroke:#F34E6A;stroke-width:1.077;stroke-miterlimit:10;stroke-dasharray:4.308,2.872;enable-background:new    ;}
	.st6{fill:#F34E6A;}
	.st7{fill:#F9AF9A;}
	.st8{opacity:0.31;fill:#F34E6A;enable-background:new    ;}
	.st9{fill:#DBA195;}
	.st10{opacity:0.44;fill:#DBA195;enable-background:new    ;}
	.st11{fill:#EFB422;}
	.st12{opacity:0.19;fill:#391E21;enable-background:new    ;}
	.st13{fill:#F4829B;}
	.st14{opacity:0.28;fill:url(#Ellipse_1_1_);enable-background:new    ;}
	.st15{fill:#AF786B;}
	.st16{opacity:0.1;fill:#AF786B;enable-background:new    ;}
	.st17{opacity:0.28;fill:#391E21;enable-background:new    ;}
	.st18{opacity:0.37;fill:#AF786B;enable-background:new    ;}
	.st19{fill:#D56B7E;}
	.st20{opacity:0.44;fill:#D56B7E;enable-background:new    ;}
	.st21{opacity:0.51;fill:#AF786B;enable-background:new    ;}
	.st22{opacity:0.2;fill:#AF786B;enable-background:new    ;}
	.st23{opacity:0.28;fill:#5B7695;enable-background:new    ;}
	.st24{opacity:0.44;fill:#F6B545;enable-background:new    ;}
	.st25{opacity:0.28;fill:url(#Ellipse_2_1_);enable-background:new    ;}
	.st26{fill:#282425;}
	.st27{opacity:0.46;fill:#F6B545;enable-background:new    ;}
	.st28{opacity:0.44;fill:#AF786B;enable-background:new    ;}
	
		.st29{opacity:0.46;fill:none;stroke:#F6B545;stroke-width:1.436;stroke-miterlimit:10;stroke-dasharray:4.308,2.872;enable-background:new    ;}
	.st30{fill:#DA97A6;}
	.st31{opacity:0.46;fill:#36AAEA;enable-background:new    ;}
	.st32{opacity:0.28;fill:url(#Ellipse_3_1_);enable-background:new    ;}
</style>
<g id="Women_Illustration_2" transform="translate(-54.103 -40.645)">
	<g id="Group_30" transform="translate(54.103 51.909)">
		<path class="st0" d="M534.5,86.9c0,0,12.5,6.2,10.3,43.9s33.3,71.9,33.3,71.9s12.1,6,3.3,16.9c-8.8,11-2.7,14.9-28,19.6
			s-61.5,19.6-63.4-4.9c-1.9-24.5,0.2-46.6,3.8-69.5s17.6-15.6,18.2-24.5c0.6-8.9-24.1-50-17.6-52.9
			C500.8,84.7,534.5,86.9,534.5,86.9z"/>
		
			<radialGradient id="Ellipse_4_1_" cx="135.2904" cy="702.303" r="2.925" gradientTransform="matrix(-153.028 0 0 -25.504 21223.4414 18482.625)" gradientUnits="userSpaceOnUse">
			<stop  offset="0" style="stop-color:#000000"/>
			<stop  offset="1" style="stop-color:#FFFFFF;stop-opacity:0"/>
		</radialGradient>
		<ellipse id="Ellipse_4" class="st1" cx="520.2" cy="571.1" rx="76.5" ry="12.8"/>
		<g id="Group_29">
			<path id="Path_345" class="st2" d="M492.5,162.5c0,0,6.3,10.2,8.5,10.4c2.2,0.3,22.5,0,22.5,0l12.1-27.2c0,0-2.2-3.6-3.4-3.5
				c-4.5,0.5-7.2-3.1-7.4-3.2c-2.2-12.2,7.2-31.3,7.2-31.3l-29.3,13.2c1.9,5.9,2.4,12.1,1.3,18.2c-0.1,0.8-0.7,1.5-1.5,1.8
				c-2.4,1-5,1.2-7.5,0.7C491.3,140.6,492.5,162.5,492.5,162.5z"/>
			<g id="Group_27" transform="translate(21.433 232.683)">
				<path id="Path_346" class="st2" d="M573.2,165.9c0,0,11.7,9.9,20.7,16s15,23.5,18.3,14.6s-0.9-27.7-6.6-36.2s-7-23-12.2-27.7
					c-5.2-4.7-14.1,3.8-14.1,3.8l-10.8,8.5L573.2,165.9z"/>
				<g id="Group_26" transform="translate(81.395 11.747)">
					<g id="Group_25">
						<path id="Path_347" class="st2" d="M422.8,22.6l-12.2,39.9l-8.5,24.9c0,0-16.9,20.7-20.2,27.7c-3.3,7,1.4,8.5,1.4,8.5
							c21.1-0.5,35.7,15,42.3,19.7s7,0,12.2,0s7.4,7.4,7.1,13.3c-0.1,2.3-4.8,11.1,2.2,22.9s1.7,22.4-2.3,24
							c-6.5,2.6-16-21.1-20.2-26.3s-12.2-9.4-12.2-9.4s-59.7-21.6-66.3-25.8s-7.5-14.6-0.9-41.8s22.6-59.2,22.6-59.2l5.6-17.4
							L377.7,0L419,4.2l1.9,15L422.8,22.6z"/>
						<path id="Path_348" class="st3" d="M419.9,172.7c8.5-11.3,5.7-29.3,5.7-29.3c-6.6-4.7-21.1-20.2-42.3-19.7
							c0,0-4.7-1.4-1.4-8.5s20.2-27.7,20.2-27.7l8.5-24.9l12.2-39.9l-1.9-3.3l-1.9-15L377.7,0l-4.2,23.5l-5.6,17.4
							c0,0-16,32-22.6,59.2s-5.6,37.6,0.9,41.8c6.6,4.2,66.3,25.8,66.3,25.8C415,169.2,417.6,170.8,419.9,172.7z"/>
					</g>
				</g>
				<path id="Path_349" class="st3" d="M508.4,136.3c10,3.9,17.4,27.1,17.4,27.1s-39.3,7-50.4,1.1c-11.1-6-8.6-28.9-8.6-28.9
					S498.4,132.4,508.4,136.3z"/>
				<path id="Path_350" class="st4" d="M482.2,51.9l-18.4-12l1.7,82.6l10.7-12.8L482.2,51.9z"/>
				<path id="Path_351" class="st3" d="M493.8,27.7c0,0-15,14.7-16.5,22.7c-2.8,14.8-7.5,61.9-8.4,75.1s-0.5,26.3,6.1,33.8
					s29.1,5.6,53.1,3.8c15.1-1.1,30.3-0.1,45.1,2.8c17.9-8.5,6.1-29.6,6.1-29.6s-28.2,0-46-4.7c-17.9-4.7-28.2-1.9-28.2-1.9
					s17.4-47.5,23.5-69.1s-8-46.5-8-46.5L509.5,2.7L507,0L493.8,27.7z"/>
				<path id="Path_352" class="st5" d="M580.3,145.8c-19.7,1.9-44.8-12.4-68.8-9.2c-20.4,2.7-22.7,1.6-17-3.6
					c9.4-8.8,18.7-61.7,23.1-75.2c4.4-13.4-1-28.7-1-28.7"/>
			</g>
			<path id="Path_353" class="st2" d="M427.7,57c1.4-3.7-2.4-19-2.4-19c-4.5-3.5-8-10.4-9.1-15.7c-1.1-5.3-0.1-9.5,1.4-10.3
				s1.4,2.4,1.4,5.4c0,3,1.1,4.8,2,4.5c1-0.3-0.1-1.9-0.5-5.2c-0.5-3.3-1.4-7.3-0.2-10.2c1.2-2.8,2.7-1.9,2.5-0.1
				c-0.2,1.7,0.3,10.4,1.6,10.3c1.3-0.1-0.6-8.8,0-12.4c0.6-3.6,1.7-4.6,3-4.2c1.9,0.6,0.5,3.8,0.3,6.5s-0.1,9.8,1.4,9.3
				c1.5-0.5,0.1-6.8,0.4-9.8c0.3-3,1.3-4.7,2.3-3.6c1.3,1.4,1.2,6.6,1.1,11.3c-0.1,4.5,0.5,9.4,1.4,9.4c0.5,0,0.9-1.2,1.2-2.8
				c0.6-3.4,1.1-4.8,3.1-6.2s2.6,0.4,1.5,2.3c-1.2,2.1-0.9,4.8-0.8,6c0.4,3.9,0.2,12.5-2.1,15.2c-1.4,1.7,1.4,9.9,4.2,16.7
				c0.4,1.1,0.4,2.3,0,3.4c-0.9,2.3-3.5,3.4-5.8,2.5L427.7,57z"/>
			<path id="Path_354" class="st6" d="M481.1,177.1c0,0-37.4-45.5-45-63C429.2,98.5,423.2,41,423.2,41l16.5-1.4
				c4.2,15.5,18.3,60.1,18.3,60.1s7.8,16.9,21.6,28.2c15.6,12.7,18.6,13.9,18.6,13.9l-4,16.7L481.1,177.1z"/>
			<path id="Path_355" class="st7" d="M505.7,129.3l-1.7,9.8c15.4,0.2,17.9-13.9,17.9-13.9l0.5-2.6l-10.3-0.1L505.7,129.3z"/>
			<path id="Path_356" class="st7" d="M489.9,108.6c1-3.9-0.4-7,0.3-10.4C492.5,86.5,501.8,85,509,86c11.5,1.7,18.5,12.7,17.9,26.9
				c-0.6,12.7-21.4,32-30.9,18.6c-3.1-4.4-6.5-8.9-7.1-14.3c-0.2-1.5-0.1-2.9,0.1-4.4C489.2,111.4,489.5,110,489.9,108.6z"/>
			<g id="Group_28" transform="translate(115.513 78.802)">
				<path id="Path_357" class="st0" d="M398.4,1.8c-6.3-2.3-22.7-4.3-24.8,7.5c-1,5.5,1.4,8.2,1.4,8.2s0.9-4.8,9.6-3.7
					s11.6-3.4,11.6-3.4S404.7,4.1,398.4,1.8z"/>
				<path id="Path_358" class="st0" d="M413.1,4c14.9,6.6,14.3,30.2,7.4,37.3c-4.1,4.2-7.6,9-10.3,14.3c0,0-6.7-16.4-4.4-24.2
					c2.3-7.8-1.7-5.2-7.1-9.3S388,7.5,388,7.5S394.7-4.2,413.1,4z"/>
			</g>
			<path id="Path_359" class="st2" d="M517.9,112c6.2,1.6,10.4-8.8,5.1-12.4c-5.2-3.6-6.2,2.4-6.2,2.4"/>
			<path id="Path_360" class="st6" d="M478.8,226.6c-2.4,13.6-3.6,40.4-3.6,40.4c11.7,1.6,23.6,0.8,34.9-2.3c18.3-5.2,44-2.5,44-2.5
				s-5-8.1-5.5-21.3c-0.5-13.2-6.3-22.8-0.1-35.9c6.1-13.2,11.9-37.6,11.9-37.6l-15.5-29.6l-9.4,3.3c0,0-2,0.6-5,1.4
				c-2.6,8.3-9.3,24.6-21.7,24.6c-9.7,0-10.1-18.7-10.6-25.3c-7.4-0.4-10.5,2.4-14.9,9.2c-6.1,9.4-7,18.3-9.4,24.9
				c-2.4,6.6-4.2,12.2,1.9,22.1C481.9,207.8,481.1,213,478.8,226.6z"/>
			<path id="Path_361" class="st2" d="M630.5,64.7c0-4,8.9-17,8.9-17c5.4-1.7,11.2-6.9,14-11.5c2.9-4.6,3.4-8.9,2.3-10.1
				s-2.1,1.7-3.1,4.5c-1,2.8-2.7,4.1-3.5,3.5c-0.8-0.6,0.7-1.7,2.3-4.7c1.6-2.9,3.9-6.4,3.8-9.4c-0.1-3.1-1.9-2.7-2.3-1
				c-0.4,1.7-3.9,9.6-5.1,9.1c-1.2-0.5,3.6-8,4.3-11.6s0.1-4.9-1.3-5c-2-0.1-1.8,3.4-2.6,6c-0.8,2.7-3.4,9.2-4.6,8.2
				s2.3-6.4,3.1-9.4c0.8-2.9,0.4-4.9-0.9-4.2c-1.7,0.9-3.5,5.8-5,10.2c-1.5,4.2-3.7,8.6-4.6,8.3c-0.5-0.2-0.5-1.4-0.2-3.1
				c0.6-3.4,0.6-4.9-0.8-6.9c-1.4-2-2.5-0.5-2.2,1.6c0.4,2.4-0.9,4.8-1.4,5.9c-1.7,3.5-4.6,11.6-3.4,15c0.7,2.1-4.8,8.8-9.8,14.2
				c-0.8,0.9-1.2,2-1.2,3.1c0.1,2.5,2.1,4.4,4.6,4.4L630.5,64.7z"/>
			<path id="Path_362" class="st6" d="M551.9,182l57.7-65.3l31.7-64.4l-17.1-8.9l-37.3,55.8c0,0-17.3,15.2-25.8,25.6
				c-8.5,10.3-16.3,13.1-16.3,13.1l-7,24L551.9,182z"/>
			<path id="Path_363" class="st8" d="M528.9,210.8c0.4,0.2,0.8,0.5,1.2,0.7c8.3,4.9,13.6,14,13,23.6c0,0.6-0.1,1.1-0.2,1.6
				c-1.3,9.7,0.4,24.7,0.4,24.7l1,0.1c5.9,0.2,9.8,0.6,9.8,0.6s-5-8.1-5.5-21.3c-0.1-3.1-0.5-6.3-1.1-9.4l0,0l-0.1-0.4
				c-1.1-6-2.3-11.6-1.5-17.7h0c0.4-2.9,1.2-5.8,2.5-8.5c0.4-0.9,0.8-1.9,1.3-2.9c0-0.1,0.1-0.2,0.1-0.4c0.4-1,0.8-2,1.2-3
				c0.1-0.2,0.1-0.3,0.2-0.5c0.4-1,0.8-2.1,1.1-3.1c0.1-0.2,0.1-0.4,0.2-0.5c0.4-1.1,0.7-2.2,1.1-3.3c0-0.1,0.1-0.3,0.1-0.4
				c0.4-1.1,0.7-2.3,1.1-3.4l0,0c0.4-1.1,0.7-2.3,1-3.4c0-0.1,0.1-0.3,0.1-0.4c0.3-1,0.6-2.1,0.9-3.1c0.1-0.2,0.1-0.4,0.2-0.6
				c0.3-1,0.5-1.9,0.8-2.8l0.1-0.2l0,0c0.2-0.9,0.5-1.8,0.7-2.6l35.1-39.6l0.2-0.5c0,0-23,22.4-33.9,27.5s-9.7,4.7-9.3,17.1
				c0,0-1,18.4-16.5,22.1S522,206.8,528.9,210.8z"/>
			<path id="Path_364" class="st6" d="M437.2,108.5c-4.3-8.5-14-67.6-14-67.6s6.1,57.5,12.9,73.1c5.9,13.4,29.3,43.3,39.8,56.5
				l4.3-11.1C480.2,159.5,452.8,139.4,437.2,108.5z"/>
			<path id="Path_365" class="st7" d="M509.7,123.3"/>
		</g>
	</g>
	<g id="Group_10" transform="translate(513.422 40.645)">
		<g id="Group_9">
			<g id="Group_4" transform="translate(39.985)">
				<path id="Path_267" class="st9" d="M-338.4,20.9c7,3,5.4-0.1,8.2,9.5c1,3.4,5.6,15,10.5,27.1c-5.4-1.6-10.9-2.6-16.5-2.9
					c-0.2-1.8-0.3-3.7-0.5-5.7c-1.4-16.9-2-22.8-4.9-27.8C-344.5,16.1-341.9,19.4-338.4,20.9z"/>
				<path id="Path_268" class="st9" d="M-351.3,2.3c1.5-0.7,4.5,4.7,4.5,4.7c-0.5-2.1-1.2-4.2-2.3-6.1c-0.1-0.1-0.1-0.3,0-0.4
					c0.9-1.5,3.8,1.1,6.2,5.1c2.3,3.9,2.6,9.8,4.3,10.1c1.2,0.2,2-1.7,1-4.6c-1-2.9,1.6-1.2,2-0.6c2.6,3.6,1.6,7.5,4.2,15.5
					c0.6,1.9-5.2,13.9-6.7,7.7c-0.8-3.2-0.5-8-5.3-15.1c-5.1-7.5-8.2-9.6-8.2-10.4c0.1-1.5,3.1,1.5,3.1,1.5
					C-349.8,5.5-352.8,2.9-351.3,2.3z"/>
			</g>
			<path id="Path_269" class="st3" d="M-253.5,173.3l-21.9,28.6c0,0-4.4-2.6-4.3-13.4s-2.9-44.3-3.9-51.6s-6.3-49.6-6.3-49.6
				l-11.3-52.5l14.6-4.9l18.8,50.2c4.5,7.9,3.6,45.2,8.3,58.7c8.7,25,5.4,27.4,5.4,27.4l2.3,6.7L-253.5,173.3z"/>
			<path id="Path_271" class="st4" d="M-283.1,127.5l2,20l16.6,19.6c0,0,18.8-3.2,10-8.7c-11.8-7.4-20.4-38.7-20.4-38.7
				L-283.1,127.5z"/>
			<g>
				<path id="Path_270" class="st6" d="M-259.2,239.8l4.4,28.4l-17.8,18.2l-16,14.2l-13.3,14.2c0,0-27.1,31.5-31.5,35.5
					s-10.7,13.8-26.6,13.8s-28.9-29.7-36-38.6s-16.9-21.8-16.9-21.8c-6.2-2.1-12.6-3.5-19-4.4c-10.2-1.3-21.5,0.7-20.9-2.7
					c1.5-7.4,10.6-12.5,19.5-13s10.7-3.6,22.3-8.9c11.5-5.3,14.6,8.5,14.6,13s14.2,14.2,24.4,21.8s16.4,20,16.4,20
					s34.2-58.6,39.5-73.3c3.5-9.2,9.3-17.3,16.9-23.5l16.4-6.7L-259.2,239.8z"/>
				<g id="Group_5" transform="translate(5.566 263.363)">
					<path id="Path_272" class="st6" d="M-295.1,29.3c-1.1,10.6,1.9,26.8,3.8,39.7s5.7,32.3,5.7,32.3s-5-1.9-19.2,0.2
						c-16.3,2.4-32.8,15.4-40.4,18s-12.7,0.4-15.9,0.4s-8.2-0.8-9.9,4.6c-1.7,5.5,3.6,10-0.4,23.7c-3.6,12.3,3.3,27.2,6.4,20.3
						c2.6-5.6,8.4-14.6,10.3-18.4s6.3-6.8,6.3-6.8s15.5-4,34.6-9.8c19.1-5.8,34.6-4.9,45.7-8.4c11.1-3.6,9.3-18.6,14.7-44.4
						c5.3-25.8-0.9-46.2-4.4-65.3c-3.6-19.1,0.9-10.6,0.9-10.6l-3.5-4.9l-13.8,0C-274.2,0-294,18.8-295.1,29.3z"/>
					<path id="Path_273" class="st8" d="M-290.6,72.8l5.1,28.6l6.2,3.1c-2.7-9.3-0.4-38-0.4-38l-3.9,4.2L-290.6,72.8z"/>
					<path id="Path_274" class="st6" d="M-251.6,27.5c1.3,20.2,0.9,24.5-1,49.2c-10.6-3.1-28.4-0.5-37.3,1.2c-0.5-3.1-1-6.1-1.4-8.8
						c-1.9-12.9-4.9-29.2-3.8-39.7C-294,18.8-274.2,0-274.2,0l13.8,0l3.6,4.9C-256.9,4.9-252.8,8.1-251.6,27.5z"/>
				</g>
			</g>
			<g id="Group_6" transform="translate(26.173 79.121)">
				<path id="Path_275" class="st9" d="M-305.9,34.7c-2.9,17.7,9.7,31.1,9.7,31.1s-31.8,19.8-28.5,0.9c3-17-12.3-35-12.3-35
					l16.3,3.5C-320.8,35.2-305.3,30.7-305.9,34.7z"/>
				<path id="Path_276" class="st10" d="M-306.2,48.8l5.2,10.4c-17.3,1.3-21.4-11.3-21.4-11.3l11.9-4.5L-306.2,48.8z"/>
				<path id="Path_277" class="st9" d="M-323.4,48.7c7.3,5.8,18.7,8.2,24.5,3.8c6.5-4.9,4.5-17.8,4.5-17.8c1.2-0.6,2-1.6,2.3-2.9
					c0.3-1.5-0.7-0.7-2.9-2.2c-3.4-2.3-3.2-9.2-8-14.1c-8.1-8.3-15.7-9.3-23.4-5.2C-344,19.7-328.8,44.4-323.4,48.7z"/>
				<path id="Path_278" class="st11" d="M-319.1,49.8c4.5,3.7,3.7,12.7-0.1,14.9c-4.2,2.5-3.8,5.5-0.8,12.7s2.1,22.1-10.5,26.7
					c-9.7,3.6-27.1-1-24.9-12.4c1.1-5.7-2.3-7.5-8.4-8.6c-6.3-1.2-8.2-15.2,1.7-17.9c7.4-2,3.7-7.4,2.9-14.4s2.1-12.8,7.2-15.1
					s9.9-3.3,7.2-6.7c-3.4-4.4-1.3-11.3,3.9-12.6s4.2-3.8,4.5-7.7s4.6-8.4,12.8-6.2c6.1,1.7,4.7-4.3,13.9-2
					c10.7,2.7,10.7,12.3,5.3,14.5c-4.8,2-12.2,2.7-10.8,8c2.8,10-4.5,10.7-8.7,7.8c-2.2-1.6-0.1,4.4-0.1,4.4
					C-316.5,40-326.3,44-319.1,49.8z"/>
				<path id="Path_279" class="st9" d="M-320.4,39.7c-7.7,2.9-7.6-8.3-5-9.3s4.5,2.1,4.5,2.1"/>
				<path id="Path_280" class="st12" d="M-363.7,83c6.1,1.1,9.5,2.9,8.4,8.6c-2.2,11.3,15.2,16,24.9,12.4c3.6-1.3,6.6-3.7,8.6-6.9
					c-9-0.2-18.6-4.9-16.9-13.6c1.1-5.7-2.3-7.5-8.4-8.6c-6.3-1.2-8.2-15.2,1.7-17.9c7.4-2,3.7-7.4,2.9-14.4s2.1-12.8,7.2-15.1
					s9.9-3.3,7.2-6.7c-3.4-4.4-1.3-11.3,3.9-12.6c4.3-1.1,4.4-3,4.4-5.8c-1.2,0.5-2.5,0.5-3.7,0.1c-8.2-2.2-12.4,2.3-12.8,6.2
					s0.7,6.3-4.5,7.7s-7.3,8.2-3.9,12.6c2.7,3.5-2.1,4.5-7.2,6.7s-8,8.1-7.2,15.1s4.4,12.4-2.9,14.4C-371.9,67.8-370,81.8-363.7,83z
					"/>
			</g>
			<path id="Path_281" class="st9" d="M-379.8,57.7c-1-3.3-10.3-12.8-10.3-12.8c-4.1-0.6-9.3-4.1-12.4-7.4s-4.5-6.9-4-8.1
				s1.9,1.1,3.3,3.3s2.8,3,3.2,2.4s-0.9-1.4-2.7-3.5s-4.2-4.7-4.9-7.3s0.6-2.5,1.3-1.2c0.7,1.3,5,7.4,5.7,6.8s-4.4-6.1-5.8-9
				s-1.2-4.1-0.3-4.4c1.3-0.4,2,2.5,3.3,4.6s4.6,7.2,5.2,6.2s-3.2-5-4.4-7.3s-1.5-4-0.4-3.6c1.4,0.5,3.8,4.3,5.9,7.7
				c2.1,3.3,4.6,6.6,5.2,6.2c0.3-0.2,0-1.2-0.6-2.6c-1.3-2.8-1.6-4-1.2-5.9s1.6-0.8,1.9,1c0.4,1.7,1.2,3.4,2.4,4.7c2,2.6,6,9,6,12
				c0,1.9,5.4,6.6,10.2,10.4c2.5,2,2.2,6.3-0.5,6.8L-379.8,57.7z"/>
			<path id="Path_282" class="st3" d="M-288.3,154.5l-7.6,35.2c0,0-5.1-0.4-9.6-10.2s-21.6-38.8-25.6-45S-358,92.4-358,92.4
				l-32.7-42.5l11.1-10.7l34.9,36.8c7.4,5.3,25,37.6,35,47.7c11.8,11.9,18,18.1,18,18.1l10.6,11L-288.3,154.5z"/>
			<path id="Path_283" class="st8" d="M-266.9,274.5c-6.2,20.3-7.6,64.8-7.6,64.8c-3.1-0.3-9.8,2-9.8,2l-5.1-34.4l1.1-17.8
				C-288.3,289.1-260.7,254.2-266.9,274.5z"/>
			<g id="Group_7" transform="translate(15.002 226.071)">
				<path id="Path_284" class="st6" d="M-269.8,42.2l-6.2,2c0,0-30.7,47.7-58.3,66.6c-5.7-8.8-17.1-20.2-24.8-27.3
					c10.5-18.4,24.6-44,27-53.3c4.7-18.1,17.9-23.5,17.9-23.5l16.4-6.7l23.5,13.8L-269.8,42.2z"/>
				<path id="Path_285" class="st5" d="M-351.9,88.5c0,0,20.1-28.4,29.4-50.4s18.6-24,18.6-24"/>
			</g>
			<path id="Path_286" class="st3" d="M-291.6,141.7l-19.8,7.4c0,0,7.5,30.9,11.7,42.1s13,23.2,6.3,30.9
				c-4.1,4.7-17.1,8.5-27.7,19.5c-9.8,10.2-12.3,30.8-12.3,30.8l93.8,57.4c0,0,4.6-29-4.9-78.8c3.4-17.9-4.6-54.9,2.6-65.6
				c7.3-10.8-4.6-20.9-12.4-27.1c-4.9-3.9-17-14.2-17-14.2C-279.4,146.1-291.6,141.7-291.6,141.7z"/>
			<g id="Group_8" transform="translate(31.99 285.14)">
				<path id="Path_287" class="st9" d="M-373.8,20.4l-0.5,1L-373.8,20.4z"/>
				<path id="Path_289" class="st13" d="M-415,16.8l1.3,0.4c3.3,2.5,6.7,4.9,9.8,7.2c10.2,7.5,16.4,20,16.4,20l-2.9,5.4
					C-395.8,31.7-415,16.8-415,16.8z"/>
				<path id="Path_290" class="st6" d="M-374.3,21.3c-0.6,1.1-1.2,2.1-1.8,3.1l0,0C-375.5,23.4-374.9,22.4-374.3,21.3z"/>
				<path id="Path_291" class="st6" d="M-372.7,18.4l-1.1,2L-372.7,18.4z"/>
				<path id="Path_292" class="st6" d="M-362.7,0.4c-0.1,0.3-0.3,0.5-0.4,0.8C-362.9,0.9-362.8,0.7-362.7,0.4z"/>
			</g>
			<path id="Path_293" class="st4" d="M-343.2,115.5c5.8,5.6,12.4,12,14.6,14.5c4.3,4.9,4.5,7,10.8,13s10.1,11.7,17.3,15.5
				s2.9,14.6,2.9,19.1s4,20,6.1,24.3c1.9,4,6.7,12.6-0.5,17.4c3.2-7.6-4.1-18.2-7.9-28.2c-0.6-1.5-1.2-3.4-1.9-5.6
				c-1.5-1.9-2.8-4-3.8-6.2c-4.5-9.8-21.6-38.8-25.6-45C-332.7,131.8-337.8,123.8-343.2,115.5z"/>
		</g>
		
			<radialGradient id="Ellipse_1_1_" cx="-313.3116" cy="686.8651" r="2.9279" gradientTransform="matrix(-25.5557 0 0 -3.9021 -8352.8271 3262.5774)" gradientUnits="userSpaceOnUse">
			<stop  offset="0" style="stop-color:#000000"/>
			<stop  offset="1" style="stop-color:#FFFFFF;stop-opacity:0"/>
		</radialGradient>
		<ellipse id="Ellipse_1" class="st14" cx="-345.9" cy="582.4" rx="76.5" ry="12.8"/>
	</g>
	<g id="Group_16" transform="translate(648.15 63.986)">
		<g id="Group_15">
			<path id="Path_294" class="st15" d="M265.2,19.5c-1.7,3.2-4.1,4.1-4.9,2.9c-1.2-1.8,3.8-7,5.2-12.2c1.5-5.4,1.4-10.1-0.7-9.7
				c-0.2,0-0.3,0.2-0.3,0.3c-0.8,2.5-2,4.9-3.5,7.1c0,0,2.1-7.1,0.3-7.9s-1.5,4-4,8.5c0,0,0.1-5.1-1.3-4c-0.8,0.7,0.1,5.1-2.3,15.8
				c-2.2,10.1-6.6,14-8.8,17.3c-1,1.5-0.9,2.4-0.1,2.9c-2.2,3-5.1,6.5-9,10.8c-1.6,1.8-3.1,3.5-4.6,5.2c3.3,4,4.4,9.8,8.2,17.1
				c6.5-14.4,12.8-28.1,14.9-31.8c1.1-1.9,2-3.3,2.6-4.4c0.1-0.1,0.2-0.2,0.3-0.4c4.9-9,9.1-11.4,10.1-16.6
				C267.6,19.8,267,16.2,265.2,19.5z"/>
			<path id="Path_295" class="st15" d="M34.4,53.8c-4.2-4-7.3-7.3-9.8-10.1c0.7-0.5,0.8-1.4-0.4-2.9c-2.4-3.1-7.1-6.6-10.1-16.6
				c-3.2-10.5-2.7-15-3.5-15.6c-1.5-1-1,4.1-1,4.1C6.8,8.4,6.7,3.7,5,4.6s0.9,7.8,0.9,7.8c-1.6-2.1-3-4.4-4-6.8
				C1.8,5.4,1.7,5.3,1.5,5.3C-0.7,5-0.4,9.7,1.5,15c1.9,5.1,7.2,9.9,6.2,11.8C7,28,4.6,27.3,2.6,24.2c-2-3.1-2.3,0.6-2.1,1.3
				c1.4,5.2,5.8,7.2,11.3,15.8c0.1,0.1,0.2,0.2,0.3,0.3c0.7,1,1.7,2.4,2.9,4.2c2.5,3.5,9.8,16.7,17.4,30.6
				c3.2-7.6,3.8-13.5,6.8-17.7C37.8,57.1,36.1,55.5,34.4,53.8z"/>
			<g id="Group_14" transform="translate(12.76 32.466)">
				<path id="Path_296" class="st15" d="M169.4,193.1l-1.9,34.6c0,0,27,81,18.7,106.7c-4.5,13.8-65.5,62.1-69.5,66.1
					s-9.1,15.1-10.1,18.9s-1.7,16.2-1.7,16.2s7.1,6.4-0.3,8.1s-13.1-2.7-13.5-6.1s-0.3-23.9-1-28.3s1.7-10.8,7.4-12.1
					s11.4-5.7,15.5-12.8s17.2-42.4,40.1-46.1l4-32.7l-20.2-70.4l6.7-47.1L169.4,193.1z"/>
				<path id="Path_297" class="st16" d="M169.4,193.1l-1.9,34.6c0,0,27,81,18.7,106.7c-4.5,13.8-65.5,62.1-69.5,66.1
					s-9.1,15.1-10.1,18.9s-1.7,16.2-1.7,16.2s7.1,6.4-0.3,8.1s-13.1-2.7-13.5-6.1s-0.3-23.9-1-28.3s1.7-10.8,7.4-12.1
					s11.4-5.7,15.5-12.8s17.2-42.4,40.1-46.1l4-32.7l-20.2-70.4l6.7-47.1L169.4,193.1z"/>
				<path id="Path_298" class="st0" d="M153.9,74c-2.2,7.8-21.4,16.9-22,32s13.3,11.8,2,16.5s-16.9,10.2-15.5,20.2
					s-22.9,24.9-48.5,9.8c-10.2-6.1-16.5-21-14.5-35s21.1-17.8,22.2-28s-7-18.4,10.2-26.9c11.8-5.8,15.5-11.6,18.9-21
					s32.9,8.4,32.9,8.4S160.8,49,153.9,74z"/>
				<path id="Path_299" class="st17" d="M130.2,61c0,0-7.3,8.4-14.8,12.8s-10.7,3.8-14.3,14.3s1,18.1-11.7,25.8S68.2,162,94.4,158
					s28.1-9.1,30.6-16.4s18.6-43,18.6-43l3.3-24.4L130.2,61z"/>
				<path id="Path_300" class="st18" d="M153.1,339.3c0,0,15.4,2.7,21.2-10s-12.4-10-12.4-10l-9.7,11.8L153.1,339.3z"/>
				<g id="Group_11" transform="translate(158.92)">
					<path id="Path_301" class="st19" d="M0.7,103.8c0,0-2.7-21.1,2.9-22c12.6-2.2,30.2-21.4,30.2-21.4s25.5-38.2,30.6-47.6
						C70.8,1,72.5,0,72.5,0l10.7,9.3c0,0-17.7,43.3-26.1,56.4c-8.5,13.4-33.3,45.2-38.1,50.9C15.5,120.8,0.7,103.8,0.7,103.8z"/>
					<path id="Path_302" class="st20" d="M44.6,83.4c-0.4,0.3-0.7,0.6-1,1c-4.6,5.9-21.8,17.8-21.8,17.8s5.9-9.6-2-5.6s-9.9-1-9.9-1
						l-1.6,2.6l8.3,18.9c0.9,0.3,1.8,0.1,2.4-0.6C22.3,112.7,34.4,97.3,44.6,83.4z"/>
				</g>
				<g id="Group_12" transform="translate(116.455 33.703)">
					<path id="Path_303" class="st15" d="M32.5,32.1c0,0-4.2,13,3.7,21.8c4.2,4.7-3.9,11.3-12,11.2c-7.1-0.1-14.1-6.8-14.1-6.8
						s5.7-8.7-1-23.1L32.5,32.1z"/>
					<path id="Path_304" class="st21" d="M14,39.4l-1.6,7.5c0,0,0,0.5,0,2.9c0,0,14,10.5,19.6-4c0,0-1-6.1-0.5-7.5S14,39.4,14,39.4z
						"/>
					<path id="Path_305" class="st15" d="M34.3,20.3c-0.7-1.2-1.3-2.5-1.7-3.8c-0.6-1.8-0.6-3.9-1.5-5.6c-1-1.8-1-6-2.4-7.5
						c-2.8-3-7.9-3.2-12.1-3.4c-0.5,0-0.9,0-1.4,0l-0.1,0c-0.9,0.1-1.8,0.3-2.7,0.5l-0.7,0.2C7.1,1.9,4.1,5.8,2.3,9.9
						c-0.9,2.1-1.6,4.3-2,6.5c-0.3,1.2-0.4,2.4-0.2,3.7C0.3,21.6,1,23,0.9,24.6c0,1.6-0.5,3.1-0.4,4.7c0.2,1.7,0.6,3.3,1.2,4.8
						c1.8,4.4,4.6,8.3,8.3,11.2c1,0.8,2,1.6,3,2.2c2.6,1.7,5.8,2.2,8.9,1.6l0.7-0.1c3.1-0.5,5.8-2.2,7.7-4.7
						c4.1-5.8,7.5-14.5,4.9-21.8C35,21.8,34.7,21,34.3,20.3z"/>
				</g>
				<path id="Path_306" class="st22" d="M171.4,272.5l4.7,40.5l-20.8-25.3l-0.5-17.1L171.4,272.5z"/>
				<path id="Path_307" class="st15" d="M151.4,197.2l-6.7,36.4c0,0,22.2,56.2,27.6,67.7s7.1,27.6-3.4,33.7s-34-0.7-48.8-9.4
					S97.9,311,89.8,312.3s-14.5,12.8-14.5,12.8s1.3,16.2-3.4,16.8s-12.1-16.5-12.1-19.5s10.4-20.2,11.1-23.6s0.7-13.5,6.4-12.5
					s8.3,4,14.1,7.7s15.9,6.8,22.6,6.8s18.2-3.7,25.2,2.7c0,0-24.2-14.5-33.3-36s-13.5-39.1-4.4-61.6s12.8-23.9,12.8-23.9l39.4,4.4
					L151.4,197.2z"/>
				<path id="Path_308" class="st22" d="M145.9,305.4c-3.6-1.8-7.3-3.3-11.1-4.4c0,0-14.3-11.3-17.9-16.3s-9.2-22.1-9.2-22.1
					l9.5,1.1C117.2,263.6,132.1,295.2,145.9,305.4z"/>
				<path id="Path_309" class="st19" d="M150.2,89.2c2.9-3.5,6.8-5.9,11.3-6.8c2.1-0.5,4.3-0.4,6.4,0.2c7.7,2.5,5.7,18.1,11.9,30
					s5.7,19.1,2.6,30.5s-11.9,44.5-11.9,44.5l-56.1-5.5c0,0-4-29.6-4.5-42.6S92.8,110,92.8,110l9.8-25.9c0,0,16.2-0.5,22.2,4.1
					C138.6,98.8,146.7,93.2,150.2,89.2z"/>
				<path id="Path_310" class="st19" d="M110.1,96.9c0,0,2.1-11.5-4.8-12.5C89.5,82.1,51.2,56,51.2,56L9.1,3.5L0,13.3
					c0,0,20.8,45.1,34.3,59.8c13.8,15,66.7,47.1,66.7,47.1L110.1,96.9z"/>
				<path id="Path_311" class="st3" d="M113.5,178.1l56.6,5.4l-2.5,44.2c0,0,14.6,41.4,16.6,64.3c0,0-33-13.7-60.9-1.2
					c0,0-27.7-21.6-28.9-56.1s20-52.6,20-52.6L113.5,178.1z"/>
				<path id="Path_312" class="st3" d="M113.5,178.1l58.4,6.9l-4.3,42.7c0,0,14.6,41.4,16.6,64.3c0,0-33-13.7-60.9-1.2
					c0,0-27.7-21.6-28.9-56.1s20-52.6,20-52.6L113.5,178.1z"/>
				<path id="Path_313" class="st23" d="M123.3,290.8c8.1-3.5,16.9-5.3,25.7-5.2c-1-0.5-2.1-0.8-3.3-0.8
					c-11.1-0.5-19.2-11.6-19.2-11.6s21.7,1,11.6-3s-23.7-19.7-30.8-30.3s7.6-1,13.6-1s-11.6-23.7-2-36.9s16.7-21.2,16.7-21.2
					l0.1-0.5l-22.2-2.1l0.9,4c0,0-21.3,18.1-20,52.6S123.3,290.8,123.3,290.8z"/>
				<path id="Path_314" class="st23" d="M153.8,234.2l9.1-8.1l-3.4,8.3l14.2,54.7l-6.9-1.3L153.8,234.2z"/>
				<path id="Path_315" class="st24" d="M126.7,176.1c0,0,7.7-1-0.3-3c-16.8-4.1,6.8-24.4,0.9-25.2c-12.4-1.7-13.7-10-11-24.1
					c1.4-7.5-11.2-14.6-21.1-14.9c-7.3-0.2-29.7-11.3-29.7-11.3l8,4.6l27.6,17.8l0.1-0.3c4.2,5.8,8.5,13.2,8.8,19.7
					c0.4,10.4,3.1,31.6,4.1,39.5l21.7,1.2L126.7,176.1z"/>
				<g id="Group_13" transform="translate(98.052 26.132)">
					<path id="Path_316" class="st0" d="M37.6,2.7c3.2,2,4.1,6.3,2.1,9.5c-0.4,0.6-0.8,1.1-1.3,1.5c-1.3,1-2.7,1.8-4.2,2.4
						c-8.4,3.2-11.6,9.1-10.9,14.3c0.7,5.2,5.2,14.3-5.9,17.3C14,48.6,8.8,52,6.7,55.1c-3.3,4.9-8.1-3-6.3-8.7
						c0.4-1.2,0.9-2.3,1.6-3.3C8.6,33.7,7.4,32.4,7.4,27s0.9-16.1,5.9-20.2S27.8-3.6,37.6,2.7z"/>
					<path id="Path_317" class="st0" d="M36.2,7.6c0,0-1,4.1,3.2,3.9c7.2-0.4,9.1,3.4,9.8,10.2c0.8,8,5.7,7.8,5.3,17.7
						c0,0,2.7-12.4,0.8-20S46.6-2.5,33,0.7S36.2,7.6,36.2,7.6z"/>
				</g>
				<path id="Path_318" class="st0" d="M141.3,31.6l3.6-0.9c0,0,20.1,16.3,9,43.3c0,0,1.5-32.8-8.8-37.5
					C140.5,34.4,141.3,31.6,141.3,31.6z"/>
			</g>
		</g>
		
			<radialGradient id="Ellipse_2_1_" cx="-465.7767" cy="651.2054" r="4.085" gradientTransform="matrix(25.4317 0 0 -2.8054 11955.9873 2385.9285)" gradientUnits="userSpaceOnUse">
			<stop  offset="0" style="stop-color:#000000"/>
			<stop  offset="1" style="stop-color:#FFFFFF;stop-opacity:0"/>
		</radialGradient>
		<ellipse id="Ellipse_2" class="st25" cx="139.2" cy="559" rx="106.9" ry="12.8"/>
	</g>
	<g id="Group_24" transform="translate(277.504 71.733)">
		<g id="Group_23" transform="translate(16.575)">
			<g id="Group_22">
				<g id="Group_21">
					<g id="Group_17" transform="translate(0 236.48)">
						<path id="Path_319" class="st15" d="M52.2,6.9c0,0,8.3,23.5,6.3,30.7s-7.2,18.9-9.7,38.9s-7,43.5-8.4,49.7
							c-1.3,6.2-1.1,8.9-6.3,24.3s-14.9,46.7-20.1,62.1S3.7,241.2-4.9,250.3s-26.2,21.8-25,24.7s15.1,7.2,25.4,1.6
							c10.3-5.7,15.6-9.8,25.4-11.2s15.8-6.6,15.2-10.4s-6-11.4-5.1-18.8s4.5-14.9,15.3-28.5s21.1-44.9,21.2-54s9.5-20.2,10.6-29.1
							s24.3-70.1,24.3-70.1l-2.6-22.2l-8-17L82.5,0L52.2,6.9z"/>
						<path id="Path_320" class="st26" d="M48.9,76.5c-2.5,20-7,43.5-8.4,49.7c-1.3,6.2-1.1,8.9-6.3,24.3
							c-3.6,10.7-9.4,29-14.3,44.4c10.5-0.7,20.9,2.1,29.7,8c9.5-15.1,17.8-41.1,17.9-49.3c0.1-9.1,9.5-20.2,10.6-29.1
							s24.3-70.1,24.3-70.1l-2.6-22.2l-8-17L82.5,0L52.2,6.9c0,0,8.3,23.5,6.3,30.7S51.4,56.5,48.9,76.5z"/>
					</g>
					<path id="Path_321" class="st27" d="M79.8,272l-7.3-10.5L45.6,337l28.2-0.7L79.8,272z"/>
					<g id="Group_18" transform="translate(102.488 70.643)">
						
							<ellipse transform="matrix(0.7801 -0.6257 0.6257 0.7801 -11.0293 7.3338)" class="st0" cx="4.9" cy="19.4" rx="30.9" ry="34.8"/>
						<path id="Path_322" class="st15" d="M-1.8,29.7L14.6,26c0,0-15.1,18.4-11.8,35.5c3.7,18.9-28.8-0.4-28.8-0.4
							s12.4-13.8,9.2-31.6C-17.5,25.5-1.8,29.7-1.8,29.7z"/>
						<path id="Path_323" class="st28" d="M-12,38.3l12.1,4.3c0,0-3.9,12.7-21.4,11.8l5-10.6L-12,38.3z"/>
						<path id="Path_324" class="st15" d="M3.8,6.6c-7.4-4.1-14.9-3.3-22.9,4.7c-4.8,4.8-4.6,11.5-8,13.7c-2.2,1.5-3.1,0.7-2.9,2.1
							c0.3,1.2,1.1,2.3,2.2,2.8c0,0-2.1,12.5,4.1,17.4c5.6,4.4,16.7,2.2,23.9-3.3C5.6,40,20.8,16.1,3.8,6.6z"/>
						<path id="Path_325" class="st0" d="M9.6,3.7C8.2,3,6.7,2.3,5.2,1.8C5,1.7,4.7,1.6,4.5,1.6S4.1,1.5,3.9,1.4S3.5,1.3,3.3,1.3
							C3,1.2,2.8,1.2,2.5,1.1C-8.8-1.3-13.7,0.6-16.9,2.6c-3.8,2.3-3.7,9,5.6,9.1c0.3,0,0.6,0,0.9,0.1c1.5,0.3,3,0.9,4.3,1.7
							c1.4,1,2.5,2.4,3.3,3.9c0.5,1.3,0.8,2.7,1,4c0.7,5.6,3.2,4.8,6.5,6l0.5,3.9c-5.9,2.4-2.4,19.4-2.4,19.4
							c3.3-2.9,6.9-5.5,10.7-7.6C27.1,35.7,25.2,10,9.6,3.7z"/>
						<path id="Path_326" class="st15" d="M0.8,26.4c0,0,2.5-2.8,5.2-1.4s0.9,13-6.8,8.6"/>
					</g>
					<path id="Path_328" class="st27" d="M53.1,346.6l-11.2,9.9c0,0,1,12.7,9.9,17.5s20.5,2,20.5,2l5.9-15.1L53.1,346.6z"/>
					<g id="Group_19" transform="translate(71.192 225.135)">
						<path id="Path_329" class="st26" d="M42.5,0c0,0,19,21.9,20.1,37.7s-8.9,33.3-19.9,45.7s-32.2,37.3-32.2,37.3l-9.9,9.4
							c0,0-14.9,18.8-20.1,15.7s-15.7-15.1-7.3-31.6S8.6,46.9,8.6,46.9L-11.3,7.1L42.5,0z"/>
						<path id="Path_330" class="st15" d="M19.5,117.3c0,0,0.7-11.6,17.4-9.5s27.6,7.5,31.6,5s5.7-13.3,9.8-15.1
							c0,0,3.9-2.6,13.8,5.8s13.3,10.1,18.5,12.2s16.4,15.4,9.5,20.7l-6.3-2.7c-1.2-0.5-2.4-0.8-3.7-0.8c-3.3-0.1-9.9-0.4-12.9-0.6
							c-4-0.2-8.1,2-16.4,1s-33.4,4.3-33.4,4.3s-60.5,17.2-70,6.2S19.5,117.3,19.5,117.3z"/>
						<path id="Path_331" class="st26" d="M42.8,108.8c-1.9-0.4-3.9-0.7-6-1c-16.7-2.1-26.1,1-26.1,1s-42.9,24-33.4,35
							c6.9,8.1,41.2,1,59-3.3C36.4,129.6,38.6,118.8,42.8,108.8z"/>
						<path id="Path_332" class="st29" d="M38.7,7.3l1.4,6.9c0,0,12.4,12.7,10.9,28.8S34.7,69.9,21.2,80s-33.8,33.2-28.5,36.1
							s35.9-5.6,46.2,1.3"/>
					</g>
					<path id="Path_333" class="st27" d="M115.5,307.5l-0.6-1.6c0,0-26.7,22.6-37.1,27.7c0,0,10.7-1.8,15.2-1.5L115.5,307.5z"/>
					<g id="Group_20" transform="translate(34.827)">
						<path id="Path_334" class="st15" d="M36.8,131.5L22.2,120L7.9,104.4L-5.8,87.1c0,0,3.7-45,4.1-50.4C-0.8,25,0.5,19.2-0.2,16
							s-0.3-3.3-4.8-1.8c-2,0.8,1.4,4.4,0.6,6.5c-1.3,2.7-3.1-9.1-3.6-5c-0.9,7.4-1.4,6.4-6.2,18.7s-17,50.8-15.8,57.9
							s30.3,39.6,38.1,49.6s7.4,26.6,7.4,26.6L36.8,131.5z"/>
						<path id="Path_340" class="st15" d="M-7.8,122.9c0,0,12.4-12,15.8-18.5c0,0,11.6,13.5,16.3,16s4.6,1,9.4,4.1
							s-4.8,10.7-4.8,10.7L18,147.9l-5.9,5.4c-0.3-3.8-1.8-7.5-4.2-10.4C4.1,138.2-7.8,122.9-7.8,122.9z"/>
						<path id="Path_335" class="st28" d="M-27.4,91.9c-1.5-4.2,0.9-18.7,0.9-18.7l-0.2,0.6c-2.3,8.5-3.7,15.7-3.3,18.4
							c1.1,6,22.2,30.4,33.3,43.7l3.7-4.3C7.1,131.5-25.9,96.1-27.4,91.9z"/>
						<path id="Path_336" class="st30" d="M78,215.7c-2.8-7.8,3.1-24.7,3.1-24.7l1.8-19c0,0,16.3-18.2,13.6-24.8
							c-2-5-14.5-6.3-20.5-10.2c-2.4-1.6-4.2-3.8-5.4-6.4c-0.2,0.1-0.4,0.2-0.6,0.3c-18.2,10.2-24.3-4.6-24.3-4.6
							c-2.8,1-7.9,0.1-12.9-2.3c-7.6-3.6-8.6-3.6-8.6-3.6l-10.6,25.3c0,0-3.1,11.9-6.1,23.3s4.9,16.1,2.8,33.5s1.8,49.9,1.4,53.1
							s17,1.1,31.2-1.4s42.9-18.7,42.9-18.7S80.8,223.5,78,215.7z"/>
						<path id="Path_337" class="st31" d="M81.1,191l1.8-19c0,0,0.4-0.4,1-1.2l-3.5-0.6l-5.1,5.7c0,0-2.2,15.5-6.9,22.1
							c-5.4,7.6-0.2,8.5,3.9,24c1.5,5.7-3.3,20.5-3.6,22.5c5.3-2.7,17-9.1,17-9.1s-4.9-11.8-7.7-19.7S81.1,191,81.1,191z"/>
						<path id="Path_338" class="st15" d="M80.8,161.4l4.7-18.4c0,0,13-1.6,14.1,10.9s1.2,37.5,1,39.1s0.5,17,0.5,17
							c3.8-4.1,8-7.8,12.4-11.2c4.3-3.4,13.5-10.5,13.5-12.7c0-2.7-0.3-6.3-0.3-6.3s0.3-6.1,2.5-5.8s4.9-2.4,7-0.7
							c0,0,2.3-1.8,4.1-0.2c0,0,2.2-1.5,3.3,0.2s6.1,9.9,3.6,11.9s-7.8,3.6-11.1,5.7s-4.9,4.5-6.5,7.6s-13,22.3-19.7,29.4
							c-5.6,6.1-13.4,15.3-19.9,11.9s-9.8-19-10.4-30.6s-3.9-31.5-3.9-31.5L80.8,161.4z"/>
						<path id="Path_339" class="st15" d="M100.7,183.5c-0.1-8.8-0.3-21.9-1.1-29.8c-1.1-12.4-14.1-12.9-14.1-12.9
							s-4.7,15.9-6.3,21.4c-1,3.7-3.7,15.3-3.7,15.3s0.8,4.7,1.7,10.9C81.2,186.4,90.6,182.3,100.7,183.5z"/>
					</g>
				</g>
				<path id="Path_342" class="st28" d="M127.7,215.8c2.4-2.5,5.2-4.6,8.3-6.1l-0.6-3.9L127.7,215.8z"/>
			</g>
		</g>
		
			<radialGradient id="Ellipse_3_1_" cx="-96.2967" cy="631.8734" r="5.1808" gradientTransform="matrix(25.486 0 0 -2.2188 2525.0791 1953.2949)" gradientUnits="userSpaceOnUse">
			<stop  offset="0" style="stop-color:#000000"/>
			<stop  offset="1" style="stop-color:#FFFFFF;stop-opacity:0"/>
		</radialGradient>
		<ellipse id="Ellipse_3" class="st32" cx="105.6" cy="551.3" rx="135.6" ry="12.8"/>
		<g id="Group_4_1_" transform="translate(39.985)">
			<path id="Path_267_1_" class="st15" d="M14.5,14.4c-3.5,6.5-4.3,14.4-5.9,36.7c-0.2,2.6-0.4,5.1-0.6,7.5
				C1.2,59.1-5.5,60.4-12,62.5c6-16,11.5-31.3,12.7-35.8C4,14,2.1,18.1,10.6,14.2C14.8,12.2,18,7.9,14.5,14.4z"/>
			<path id="Path_268_1_" class="st15" d="M22.8-0.8c0,0,3.6-3.9,3.8-1.9c0.1,1.1-3.7,3.8-9.8,13.7c-5.8,9.4-5.5,15.8-6.5,20
				c-1.8,8.2-8.9-7.7-8.1-10.1c3.1-10.6,1.9-15.8,5-20.5c0.5-0.7,3.5-3,2.4,0.9c-1.1,3.8-0.2,6.3,1.2,6C12.9,6.8,13.2-1,16-6.1
				c2.9-5.2,6.3-8.8,7.5-6.7c0.1,0.2,0.1,0.4,0,0.5c-1.2,2.5-2.2,5.3-2.7,8.1c0,0,3.7-7,5.5-6.2C28-9.5,24.4-6.2,22.8-0.8z"/>
		</g>
	</g>
</g>
<path class="st15" d="M759.5,143.3c0,0,11.7,13.7,6.3,19.2c-5.4,5.5-21.9,0.8-25.9-6.4c-4-7.2-5.5-10.3-5.5-10.3L759.5,143.3z"/>
</svg>
