<?xml version="1.0" encoding="utf-8"?>
<!-- Generator: Adobe Illustrator 23.0.3, SVG Export Plug-In . SVG Version: 6.00 Build 0)  -->
<svg version="1.1" id="Layer_1" xmlns="http://www.w3.org/2000/svg" xmlns:xlink="http://www.w3.org/1999/xlink" x="0px" y="0px"
	 viewBox="0 0 904.7 495" style="enable-background:new 0 0 904.7 495;" xml:space="preserve">
<style type="text/css">
	.st0{opacity:0.15;fill:#DA97A6;enable-background:new    ;}
	.st1{fill:#C9C9C9;}
	.st2{fill:#EAE2E1;}
	.st3{fill:#11485B;}
	.st4{fill:#CB919E;}
	.st5{fill:#B47565;}
	.st6{fill:#23789E;}
	.st7{fill:#AFCAD3;}
	.st8{fill:#B47667;}
	.st9{fill:#9E563F;}
	.st10{fill:#DC9791;}
	.st11{fill:#453E17;}
	.st12{fill:#F1E5E1;}
	.st13{fill:#EF9341;}
	.st14{fill:#C58778;}
	.st15{fill:#B87A6A;}
	.st16{clip-path:url(#SVGID_2_);fill:#EF9341;}
	.st17{fill:#7A519E;}
	.st18{fill:#B66174;}
	.st19{fill:#C98F80;}
	.st20{fill:#C28B7D;}
	.st21{fill:#92675C;}
	.st22{fill:#CD988A;}
	.st23{fill:#CD536A;}
	.st24{fill:#AE6F5F;}
	.st25{fill:#25211F;}
	.st26{fill:#26211F;}
	.st27{fill:#2D2624;}
	.st28{fill:#312826;}
	.st29{fill:#ECB6B2;}
	.st30{fill:#282425;}
	.st31{fill:#444444;}
	.st32{fill:#AFDBDD;}
	.st33{fill:#AAB2BC;}
	.st34{fill:#BCA5A4;}
	.st35{fill:#F3D4CA;}
	.st36{fill:#CE546B;}
	.st37{fill:#7C6362;}
	.st38{fill:#4F4F4F;}
	.st39{fill:#B57761;}
	.st40{fill:#282424;}
	.st41{fill:#BB7F70;}
	.st42{fill:#272424;}
	.st43{fill:#FAF1F3;}
	.st44{fill:#CECACA;}
	.st45{fill:#9C4051;}
	.st46{fill:#A76859;}
	.st47{fill:#292321;}
	.st48{fill:#272220;}
	.st49{fill:#2B2523;}
	.st50{fill:#2E2624;}
	.st51{fill:#62BFBF;}
	.st52{fill:#4F5B5B;}
	.st53{fill:#726F6E;}
	.st54{fill:#495A5B;}
	.st55{fill:#F6ECE5;}
	.st56{fill:#EAA7B1;}
	.st57{fill:#374745;}
	.st58{fill:#5C4943;}
	.st59{fill:#384549;}
	.st60{fill:#292828;}
	.st61{fill:#2E3A3D;}
	.st62{fill:#493834;}
	.st63{fill:#E1BBA1;}
	.st64{fill:#DBB69D;}
	.st65{fill:#CD546A;}
	.st66{fill:#4F413D;}
	.st67{fill:#2B2624;}
	.st68{fill:#2A2624;}
	.st69{fill:#322D2A;}
	.st70{fill:#2F2927;}
	.st71{fill:#ECE3E2;}
	.st72{fill:#F4BD76;}
	.st73{fill:#BB7E70;}
	.st74{fill:#DECDCC;}
	.st75{fill:#755A61;}
	.st76{fill:#DB96BE;}
	.st77{fill:#AA6B5C;}
	.st78{fill:#633D39;}
	.st79{fill:#633E39;}
	.st80{fill:#58423F;}
	.st81{fill:#57423F;}
	.st82{fill:#211E1D;}
	.st83{fill:#E56813;}
	.st84{fill:#A5A0A2;}
	.st85{fill:#F4DAD9;}
	.st86{fill:#EFD0D0;}
	.st87{fill:#35262C;}
	.st88{fill:#F0CCCA;}
	.st89{fill:#F4D5D4;}
	.st90{fill:#F0CCC9;}
	.st91{fill:#ECC8C6;}
	.st92{fill:#E8BEBB;}
	.st93{fill:#DDC0A2;}
	.st94{fill:#3FA1BA;}
	.st95{fill:#42A2BA;}
	.st96{fill:#913C4E;}
</style>
<g id="Shadow" transform="translate(2.242 436.881)">
	<path id="Path_16" class="st0" d="M110,28.1c-2.2,14.3,41.8,9.5,48.9,11.7c7,2.2,13.4,7,20.3,9.6c12.9,4.8,26.7,1.9,40.1-0.2
		c25.7-4,51.6-4.8,77.4-5.7c27.4-0.9,55.2-1.7,81.9,5.5c11.1,3,22.1,7.3,33.4,6.4c9.7-0.8,18.8-5.6,28.2-8.3
		c18-5.2,37.2-4.4,54.8,1.3c17.6,5.7,36.6,3.4,52.5-7.1c2.8-1.9,5.6-4,8.9-4c2,0.1,4,0.6,6,1.5c21.4,8.5,44.8,12.7,66.7,6.4
		c6.7-1.9,13.4-4.8,20.3-5.9c7.3-1.1,14.8-0.2,22.1,0.7l50.1,6.5c14.3,1.9,29.3,3.5,43.5-0.1c7.2-1.9,12.6-6.7,19.3-9.3
		s14.8-2,22-2.5c5.4-0.4,12.1-2.1,13.3-8.3c1.4-8.2-8-12.4-15.1-13.1c-8.7,0-15.9-4.1-24.5-5.5s-17.3-0.8-25.9,0.2
		c-17.1,2-34.2,6.7-51.6,5.7c-15.7-0.9-31-6.6-46.7-6.7C635.1,6.8,615,16.4,594.2,17C562,17.9,534.1-3.1,501.5-2.5
		c-10.1,0.2-20.2,2.8-30.1,5.3c-18.3,4.7-35.8,11.3-54.7,8.6c-16-2.3-31.6-8.3-47.8-10c-24.6-2.6-49.1,4.8-73.8,7.5
		c-33.7,3.6-67.5-1.8-101.1-1c-18.2,0.4-36.5,1.3-54.3,5.7C133.3,15.1,111.4,18.5,110,28.1z"/>
</g>
<g id="_5KbQQQ" transform="translate(114.462)">
	<path id="Path_56" class="st1" d="M466,356.3c-5.9,1.7-12,2.6-18.1,2.6c-2,0-4.1,0.3-6.1,0.3c-0.8,0.1-1.6,0-2.3-0.3
		c-1.3-7.2-2.7-14.4-2.6-21.7c0.1-8.2,1-16.3,1.8-24.4c0.2-3.8,0.1-7.7-0.3-11.5c-0.4-4.7-1.1-10.1-1.7-14.7
		c2.3-0.7,4.7,0.6,7.1,0.2c2.4-0.5,4.5-0.8,6.7-1.3c1.6-0.3,2.9-1.6,3.2-3.3c0.7-3.3,1.2-6.6,1.5-10c1.1-8.9,1.1-17.9,2.2-26.8
		c0.5-0.5-0.4-1.5,0.6-1.8l3.7,35.8c0.6,5.9,1.1,6.2,7.6,6.1c-0.6,5.7-1.4,11.3-1.7,17c-0.4,8.5-0.8,17.1-0.5,25.6
		C467.4,337.4,467,346.9,466,356.3L466,356.3z"/>
	<path id="Path_57" class="st1" d="M421.2,360.3c-3.7,0.4-7.5,1-11.2,1.3c-3.6,0.3-7.1,1-10.7,0.9c-1.2-0.2-2.3-0.4-3.5-0.8
		c-0.8-0.2-0.5-1.1-0.9-1.4c-0.4-6.4-1-12.8-0.9-19.3c-0.1-5,0.3-10,1.1-14.9c1.5-7.6,1.3-15.4-0.6-22.9c-1.8-7.2-3.3-14.5-5-21.8
		c-0.6-5.4,1.1-10.6,1.9-15.9c0.6-6,1.7-11.9,3.2-17.7c0.1-0.3,0.2-0.5,0.3-0.9c0.7,0.2,0.4,0.7,0.4,1c0,7.6,0.1,15.3,0,22.9
		c0,3.7-0.4,7.5-0.6,11.1c0,0.6-0.1,1.2,0,1.8c0.1,1.9,0.8,2.6,2.7,2.6c5,0,10-0.1,14.9-0.3c3.2-0.1,6.4,0.2,9.6,0.3
		c1,0,1.4,0.4,1.3,1.4c0,0.6,0,1.2,0,1.8c-0.9,11.3-0.7,22.6,0.7,33.8c1.1,9.4,0.3,18.9-1.2,28.2
		C422.2,354.6,421.7,357.4,421.2,360.3z"/>
	<path class="st2" d="M390.2,204.6c0,0-4.9,65.5,2,89l75.7,4.6c0,0,6.9-22.5,2.3-78.8c-4.6-56.2-8.5-61.7-8.5-61.7l-65.9,24.1
		L390.2,204.6z"/>
	<path id="Path_54" class="st3" d="M421.3,360.3c0.6,1,0.8,2.3,0.5,3.4c-1.1,9.3-3.7,18.4-4.8,27.7c-0.6,6-0.6,12,0.1,18
		c0.5,6.1,0.7,12.3,0.6,18.4c-0.1,8.3,0.6,16.6,2.1,24.7c1,4.7,2.6,9.1,4.9,13.4c0.4,0.8,0.8,1.5,1.2,2.2c1.6,3.4,0.1,5.8-3.6,6.1
		c-7.1,0.6-11.4-3.5-14.7-8.9c-2.2-3.6-4.3-7.3-7.4-10.6c-0.9,2.6-1.7,5.2-2.4,7.8c-0.1,0.5-0.3,1-0.5,1.5c-0.2,0.6-0.8,1-1.4,0.9
		c-0.7-0.1-1.1-0.8-1.1-1.4c0.1-2,0.3-4.1,0.6-6.1c0.7-7.9,2.7-15.7,1.9-23.7c-0.5-5.6-1.2-11.2-1.9-16.8c-0.4-2.9-0.6-5.7-0.6-8.6
		c0.4-10.4-1.3-20.6-3.3-30.7c-0.9-4.6-1.3-9.3-1.3-14c-0.1-2.6,0.7-3.2,3.3-2.7c0.8,0.2,1.4,0.3,1.5-0.8c3.1,2.3,6.7,1.8,10.2,1.4
		c4.3-0.5,8.6-0.8,12.8-1.5C419.1,359.9,420.2,359.9,421.3,360.3z"/>
	<path id="Path_55" class="st3" d="M438.7,422.5l0.9-13.6c0.2-2.5,0.3-4.9,0.5-7.4c0.5-6.6,0.9-13.1,1.4-19.7
		c0.1-3.1-0.2-6.1-0.8-9.1c-0.6-4.3-1.1-8.6-1.6-12.8c-0.1-0.4,0.2-0.9,0.6-1c3.1-0.3,6.3-0.4,9.5-0.5c5-0.2,9.9-0.8,14.7-2
		c0.7-0.2,1.5-0.6,2.2-0.1c1.2,0.9,0.8,2.2,0.6,3.3c-1.2,5.9-1.5,11.9-2.4,17.8c-1.2,8.7-1.9,17.4-3.6,26c-0.6,3.7-1,7.4-1.1,11.1
		c-0.5,6.9-0.5,13.8-0.5,20.8c0,2.8,0.5,5.6,1.6,8.3c2.5,6,5,12,7.6,17.9c0.9,1.9,1,4.1,0.3,6.2c-0.4,1.3-1.6,2.1-3,1.9
		c-6.5,0-10.3-4.2-14-8.7c-2.7-3.3-3.9-7.5-6.3-10.9c-1.2-1.8-2.4-3.6-3.6-5.5l-0.5,0.1c-0.3,2.1-0.6,4.2-0.8,6.3
		c-0.1,1.1-0.5,2.1-1.1,3c-0.5,0.7-1.1,1.1-2,0.8c-0.7-0.3-1.1-1-0.9-1.8c0.3-2.5,0.4-4.9,0.8-7.3c0.8-6.1,1.2-12.3,1.1-18.5
		c0-0.7-0.2-1.4,0.3-2.1C438.9,424.2,438.9,423.3,438.7,422.5z"/>
	<path id="Path_62" class="st4" d="M438.7,422.5c0.5,0.8,0.4,1.8-0.1,2.5C438.7,424.1,438.7,423.3,438.7,422.5z"/>
	<path class="st5" d="M426.4,113.3c-0.2,0.7-1.2,17-3,20.7s-4.3,12.2,1.5,13.5c5.8,1.2,14.3,4.3,17.2-1.2c2.9-5.5,5.3-5,5.3-11
		s1.5-6-0.7-11.7c-2.2-5.7-2.4-6.3-4.2-7.7s-4-3.1-6.5-2.8c-2.5,0.3-5.3,0.3-5.9,0.6C429.5,113.9,426.4,113.3,426.4,113.3z"/>
	<path class="st2" d="M447.4,195.4c-1.8,1.3-6.5,0.6-8.5,0.7c-3.3,0.2-10.9,0.6-14.2,0.1c-0.7,0-1.4-0.3-1.9-0.8
		c-1.2-1.3-0.4-2.9-0.2-4.2c0.4-2.6,0.3-5.1,0.5-7.7c0.5-7.3,3.3-37.1,4.4-53.2c0.7,4.3,2.2,7.9,5.4,8.4c6.2,1,8.5-10.8,9.4-18
		c0,0.6,0,1.2,0.1,1.8c1.3,6.7,1.6,13.6,2.2,20.4c0,0.1,0,0.1,0,0.2C444.2,148.9,447.7,189.6,447.4,195.4z"/>
	<path id="Path_151_1_" class="st5" d="M413.4,87.2c1.5,2.8,3.1,5.5,4.4,8.3c5.2,11.1,10.2,22.3,13.1,34.5c0.2,0.7,0.1,2,1.1,2
		c1.1,0,1-1.3,1.2-2.1c1.7-6.9,3.8-13.6,6.5-20.1c0.8-2,1.3-4,2-6c1.7-4.8,4.5-9.1,7-13.6c0.5-1,1.4-1.8,1.3-3.1
		c-1.7-0.5-3.4-1.1-5-1.9c0.1-1.1,0.7-0.5,1.1-0.4c1.2,0.1,2.5,0,3.7-0.1c2.9-0.5,3.5-1.3,3.5-4.2v-1.4c-1-0.8-2.3-1.2-3.2-2
		c-1.2-1-1.2-1,0.2-1.7c1-0.5,2-0.9,3.1-1.2c0.2-0.1,0.4-0.2,0.5-0.3c0.2-0.3,0.1-0.7,0.1-1.1c0.1-0.3,0.2-0.6,0.3-0.8
		c0.4-0.4,1.1-0.7,1.7-0.6c1.8,0,3.1-0.9,4.7-1.8s1.4-2.8-0.2-4c-0.7-0.4-1.3-0.8-1.9-1.3c-0.2,0-0.4-0.2-0.5-0.3
		c-0.3-0.2-0.6-0.4-0.7-0.7c-0.3-0.1-0.5-0.3-0.6-0.5c-0.2-0.2-0.4-0.5-0.5-0.7c-2.1-2.7-2.8-6-3.4-9.2c-0.8-3.6-1.3-7.3-1.9-11
		c-0.3-1.5-1-2.9-1.9-4.2c-0.6-0.8-0.9-1.1-1.5,0c-3,5.7-7.9,9.8-12.7,14.1c-3.2,2.9-6.5,5.6-9.9,8.1c-2.1,1.5-2.8,1.3-4-1
		c-0.1-0.3-0.3-0.7-0.5-1.1c-0.6-1.1-1.4-2.1-2.8-1.8s-2.4,1.4-2.5,2.8c-0.5,3.4,0.4,5.4,3.5,7c2.4,1,3.8,3.5,3.4,6.1
		c0,2.3-0.2,4.7-0.4,7c-0.2,1,0,2-1,2.6s-1.5-0.5-2.3-0.9c-0.5,1.7-2.2,2.1-3.4,2.9c-0.6,0.4-1.1,0.7-1.7,1
		C412.1,85.4,412.8,86.4,413.4,87.2z"/>
	<path id="Path_63" class="st5" d="M441.4,90.2c-0.1,2.1-0.3,4.2-0.5,6.3c-0.3,2.9-0.6,5.9-1.1,8.8c-0.3,1.8,0.9,3.3,1,5
		c0,2.1,0.2,4.2,0.6,6.2c0.1,0.8,0.6,1.6-0.2,2.3c-1.4,1-3,0.8-4.5,0.8c-2.1,0-4.3-0.2-6.4-0.2c-0.6,0.1-1.2-0.1-1.6-0.6
		c-0.7-0.2-1.2-0.8-1.2-1.5c-0.1-2.4-0.6-4.8-1.4-7.1c-0.4-4.6-2.6-8.4-5-12.2c-2-3.2-3.5-6.6-4.5-10.2c-0.3-0.7-0.3-1.5,0.1-2.1
		c0.7-1.2,1.1-2.7,1.1-4.1c1.8-1.1,3.9-1.9,4.3-4.3c1.1,0.4,1.5-0.3,1.9-1.1c-0.2,0.4,6.6,5,7.3,5.5c1.3,0.9,2.6,1.8,4,2.6
		c2.5,1.5,5.9,2.7,8.6,2.4c0,0-0.9,0.1-1.3,0.2c-0.3,0.1-0.7,0.1-0.9,0.4c-0.1,0.2-0.1,0.4-0.1,0.5
		C441.5,88.7,441.5,89.5,441.4,90.2z"/>
	<path id="Path_52" class="st6" d="M403.6,208.3c-3.4,0.9-6.9,0.2-10.3-0.1c-2.4-0.3-4.9-0.1-7.3-0.2c-0.6,0-0.8,0.4-1.2,0.7
		c0-0.4-0.4-0.7-0.8-0.7c0,0,0,0-0.1,0c-1.4,0.1-2.9-0.4-4.3-0.3c-5,0.2-8.4-3.7-9.7-7.9c-0.8-3.2-1.3-6.6-1.5-9.9v-26.1
		c0.8-7.1,0.8-14.2,1.4-21.3c0.6-7.7,1.9-15.3,3-23c0.6-3.7,1.6-7.4,3-10.9c1.8-4.2,4.9-7.8,8.7-10.4c3.4-2.5,7.1-4.5,11-6.1
		c2.6,4.3,6.3,7.7,9.1,11.8c0.7,0.9,1.4,1.6,2.2,2.3c1.3,1.2,3.2,1.6,4.9,1.1c3.2-0.8,6.4-1.3,9.6-0.3c1.1,0.2,2.2,0.8,2.8,1.8
		c0.4,0.8,1.3,0.9,1.9,1.3c0.6,0.7,1,1.6,1,2.6c0.3,2.2,0.8,4.3,1.3,6.4c-0.2,0.6-0.3,1.2-0.2,1.8c0.1,5.7,0.2,11.4,0,17.1
		c-0.2,6.1-0.3,12.2-0.9,18.3c-0.1,1.4-0.2,2.8-0.1,4.1c-0.5,2-0.7,4-0.7,6.1c0,5.1-0.8,10.1-1.3,15.1c0,2.4-1.4,3.2-3.6,3.6
		c-3.1,0.5-6.1,1.8-9.3,2.2c-1.2,0-2.2-0.8-2.5-1.9c-0.5-1.4-1.9-2.3-3.4-2c-3,0.2-6,0.8-8.8,1.7c-2,0.6-2.6,1.9-1.9,4
		c2.1,5.7,4.4,11.3,7.2,16.7C403.4,206.6,404.2,207.3,403.6,208.3z"/>
	<path id="Path_53" class="st6" d="M454.9,194.6c-2.5,0.9-5.3,1.3-7.6,2.6c-0.9,0.1-1.5-0.6-2.2-1c-1.1-0.7-2.3-1.3-3.5-1.9
		c-0.5-0.2-1.2-0.4-1-1c0.1-0.6,0.9-0.5,1.4-0.6c0.8-0.1,1.6,0,2.4,0c0.5,0,1.1-0.1,1.3-0.7c0.1-0.5-0.1-1.1-0.5-1.5
		c-0.9-0.9-1.9-1.5-3.1-1.9c-0.9-0.3-1.6-0.8-1.6-1.9c0.9-6.1,2.4-12.1,3.2-18.3c0.4-2.7,0.6-5.5,0.6-8.3c-0.1-7.3-0.3-14.7-0.8-22
		c-0.3-6.4-1.2-12.7-2.5-19c0-2.9-0.9-5.6-0.7-8.5c0.2-2.6,0.7-2.9,3.2-1.9s3.2,0.8,4.8-1.1c2.5-2.8,4.9-5.8,8.2-7.7
		c1.3-0.7,2.4-1.8,3.2-3.1c0.2-0.3,0.4-0.8,0.9-0.7c0,0.2,0,0.4,0.1,0.5c4.9,3.6,7.1,9.3,11,13.7c2.3,2.6,2.6,6,3.4,9.2
		c1.4,6.4,2.3,12.8,3.3,19.3c1.1,7.3,1.6,14.8,2.2,22.2c0.5,5.4,0.4,10.8,1.1,16.1c0.9,7.2-1.9,13.4-4.2,19.8
		c-0.7,2-1.6,3.9-2.4,5.8c-0.9,0.3-1.4-0.5-1.9-1c-2.4-2.8-4.6-5.8-6.4-9c-1.7-2.8-3.8-5.3-6.3-7.4c-1.6-1.5-2.9-1.3-3.8,0.7
		c-1,2.3-2,4.7-1.5,7.3C455.3,194,455.2,194.3,454.9,194.6z"/>
	<path id="Path_60" class="st7" d="M454.9,194.6c-0.9-3.1,0.2-5.9,1.5-8.7c1-2.2,2.6-2.5,4.4-0.8c2.9,2.5,5.3,5.6,7.2,8.9
		c1.7,2.9,3.7,5.6,5.9,8.1c0.4,0.3,0.8,0.6,1.2,0.8c3,2.8,3.1,3.2,1.1,6.8c-1.2,2.1-2.1,4.7-5.1,5.2c-0.4,0.1-0.3,0.6-0.4,0.9
		c-0.4-1.3-1.6-1.7-2.4-2.6c-0.8-0.1-1.2-0.7-1.6-1.3c-1.8-2.5-3.7-4.8-5.8-7.1c-2-2.1-3.2-4.7-4.6-7.1c-0.2-0.2-0.2-0.6,0-0.8
		L454.9,194.6z"/>
	<path id="Path_61" class="st7" d="M440.6,90.3c0-1,0-2.1-0.1-3.2c0,0.4,5.3-0.7,5.9-0.9c0.8-0.2,1.5-0.8,2.3-0.3
		c1.3,1.1,3,1.5,4.4,2.5c1.6,1,3.3,1.9,5.1,2.7c2,1.1,3.1,2.6,2.7,5c-1,2-2.6,3.6-4.6,4.6c-3,1.7-5.1,4.4-7.2,6.9s-2.8,2.8-5.7,1.5
		c-2-0.9-2.3-0.8-2.4,1.2c-1.2-1.3-1.8-3.2-1.5-4.9c0.4-3,0.8-5.9,1-8.9C440.6,94.4,440.6,92.4,440.6,90.3z"/>
	<path id="Path_64" class="st7" d="M417.7,81.7c0.7,1.1,0.6,2.5-0.3,3.5c-0.6,0.8-0.8,1.9-0.4,2.9c1,3.5,2.5,6.8,4.4,9.8
		c2,2.9,3.6,6.1,4.7,9.5c0.4,0.9,0.4,2,0,3c-0.7,0-1.5,0.1-1.8-0.6c-1.3-2.6-3.8-2.3-6-2.6c-2-0.2-4.1,0.1-6,0.7
		c-2.5,0.8-4.3,0-6-1.7c-2.3-2.2-3.9-5-6.1-7.3c-1-1.1-1.9-2.3-2.9-3.4c-0.9-0.9-1.4-2-1.5-3.2c0.1-2.5,1.7-4,3.7-5.1
		c3.1-1.6,6.6-1.8,9.7-3.4C411.7,82.3,414.7,81.6,417.7,81.7L417.7,81.7z"/>
	<path id="Path_66" class="st7" d="M412.4,187c-0.9,0.3-0.7,0.9-0.5,1.7c1.4,4.2,2.7,8.5,4,12.7c0.4,3.1-2,4.9-3.6,7
		c-0.6,0.7-1.2,1.3-1.9,1.9c-2.7,2.1-4.5,1.7-6.3-1.3c-0.1-0.3-0.4-0.5-0.5-0.7c-1.4-3.8-3.7-7.3-5.1-11.1c-0.9-2.8-2.5-5.5-3.3-8.4
		c-0.5-1.9-0.2-3.2,1.6-3.8c3.5-1.4,7.3-2,11.1-2c1.3,0,1.9,0.9,2.3,2S410.9,187.1,412.4,187z"/>
	<path id="Path_67" class="st8" d="M456.5,197c2.9,6.2,8.1,10.8,12,16.3c-0.2,1.1-0.6,2.1-1.1,3c-0.6,1.4-1.9,1.4-2.8,0.1
		c-0.7-1.1-1.4-2.2-2.1-3.4c-2-3.6-4.5-6.9-6.8-10.4C454.3,200.7,454.6,198.9,456.5,197z"/>
	<path class="st8" d="M447.4,197.2c-2-1.6-4.2-2.9-6.5-3.9c1.3-0.1,2.5-0.1,3.8-0.1c0.7,0,1.3-0.2,1.6-0.9s0-1.6-0.6-2.1
		c-1.1-0.9-2.3-1.6-3.7-2.1c-0.3-0.1-0.6-0.2-0.9-0.3c1.3,0,4-0.2,1.6-2c-2.2-1.6-5.3-2.2-7.9-2.5h-0.1c-0.8-0.1-1.7-0.3-2.5-0.3
		h-0.1H432c-0.4,0-0.8,0-1.2,0c0,0,0,0-0.1,0c-2.1,0.1-4.9,0.8-6.5,1.3l0,0c-0.8,0.2-1.2,0.3-1.2,0.3l0,0c-3.5,0.8-7,1.7-10.5,2.5
		c-1.4,0.2-1.2,1.1-0.9,2c1.2,3.3,2.2,6.7,3.2,10.1c0.1,0.9,0.5,1.7,1.2,2.3c5.2,1.2,10.5,2.1,15.9,2.6c2,0.2,3.9,0.7,5.9,0.1
		c1.8-0.5,2.2-1.8,0.9-3.2c-0.5-0.5-1.3-0.7-1.5-1.6c2.6,0.3,5.2,0.4,7.9,0.4C447.2,199.7,447.5,199.3,447.4,197.2z"/>
	<g>
		<path id="Path_150_1_" class="st9" d="M456,62.7c-0.9-1.1-1.6-2.3-2.1-3.7c-1.4-4.1-2.3-8.4-2.8-12.7c-0.3-2.6-0.5-5.2-1.9-7.5
			c-0.7-1-1.1-1.1-1.8,0c-1.1,2.1-2.5,4-4.1,5.7c-5.2,5.3-10.8,10.2-16.7,14.7c-4,3-4.1,3-6.7-1.3c-0.5-0.8-1-1.5-2.1-1.4
			c-1,0.2-1.8,0.9-2,1.9c-0.5,2.4-0.3,4.8,2.1,6.4c0.7,0.5,1.5,0.9,2.2,1.3c1.5,0.8,2.4,2.3,2.4,4c0.2,3.2,0,6.4-0.4,9.6
			c-0.2,1-0.5,1.9-1.6,2.2c-1.1,0.3-2.6,4.4-3.1,3.6c-1.2-0.8-2.4,2-3.8,1.5c-2.6-1.2-8.2,11.3-10.1,9c-3.6-4.6-14.7,9.2-18.5,4.8
			c-4-4.6-5.3-9.8-3.1-15.6c2.1-5.6,15.6-50.9,19-55.9c1.5-2.2,3.2-4.4,5.1-6.3c1.2-1.2,2.7-2,4.4-2.3c3.1-0.5,6.2,0,9.2,0.1
			c5.2,0,10.3,0.5,15.4,1.5c4.1,0.8,8.2,2,12.1,3.5c6.8,3.1,10.2,9.1,12.9,15.6c1.9,4.6,1.2,9-0.7,13.3c-1.1,2.5-1.7,5.1-1.9,7.7
			C457.2,63.5,456.7,63.5,456,62.7z"/>
		<path id="Path_160_1_" class="st10" d="M454.6,75.3c-0.1,0.4-0.3,0.4-0.6,0.6c-0.4,0.2-0.9,0.4-1.4,0.4c0.1,0.1,0.3,0.1,0.4,0.1
			c0.2,0.1,0.4,0.2,0.5,0.3c0.4,0.3,0.7,0.8,0.6,1.3s-0.6,0.8-1,1.1c-0.3,0.2-1.4-0.3-1.7-0.4c-0.5-0.2-1-0.5-1.4-0.9
			c-0.8-0.6-1.7-1.4-2.5-2c1.7-0.2,3.1-1.2,4.7-1.7c0.5-0.2,1.1-0.3,1.6-0.3C454.4,73.9,454.7,74.9,454.6,75.3z"/>
		<path id="Path_163_1_" class="st11" d="M449.6,49.2c-2.3-0.2-4.6-0.8-7.2,0C444.4,46.5,448.3,46.7,449.6,49.2z"/>
		<path id="Path_164_1_" class="st11" d="M446.9,56.1L446.9,56.1c0.7,0,1.3,0.5,1.3,1.2c0,0.1,0,0.2,0,0.3c-0.1,0.5-0.6,1-1.2,0.9
			c-0.9,0-1.2-0.5-1.4-1.3C445.7,56.7,446,56,446.9,56.1z"/>
	</g>
</g>
<g id="oP682W" transform="translate(567.098 8.1)">
	<path id="Path_94" class="st12" d="M168,140.9h0.3v-3.3c-0.1,0-0.2,0-0.3,0C167.2,138.6,167.2,140,168,140.9z"/>
	<path id="Path_95" class="st13" d="M16.8,213.8c0.4-4,0.4-8.1,2-12c0.9-1.9,1.3-3.9,1.3-5.9c0.2-0.1,0.4-0.3,0.5-0.5
		c2.8-5.1,5.8-10.1,8.6-15.2c3.3-6.1,7.5-11.6,11.7-17.1c5.5-7.2,4.9-14.8-2.5-20.8c-4.4-3.5-7.3-8.6-8-14.2
		c-0.3-1.9-0.5-3.8-0.9-5.7c-0.8-3.7-0.9-7.6-0.3-11.3c1.2-6.9,4.1-13.2,7.8-19.1c4.2-6.3,6-14,5.1-21.5c0.2-0.6,0.6-1,1.2-1.3
		c3.5-1.9,6.9-4.1,10.6-5.6c0.5-0.1,0.9-0.4,1.3-0.7l0.4-0.1c1.3-0.2,2.5-0.8,3.8-0.9c0.1,0,0.2,0,0.3-0.1c1.7,1.2,3.4,2.3,5.2,3.5
		c7.2,4.8,15.1,7.5,23.8,6.9c5.4-0.2,10.7-1.5,15.6-3.8c0.9,0.4,1.9,0.8,2.8,1.1c6.7,2.1,13.3,4.5,19.2,8.5c-0.2,0.8-0.6,1.5-1.1,2
		c-1.6,2.2-2.9,4.6-3.7,7.2c-0.8,2.5-1.4,5-1.7,7.6c-0.8,4.3-1.2,8.7-1.2,13.1c0,2.4,0.1,4.8,0.4,7.2c0.4,4.1,0.2,8.5,3.7,11.7
		c0.2,0.2,0.2,0.4,0.3,0.7c-0.3,3.3-1.9,6-3.3,8.9c-1.8,3.7-2.7,7.8-2.4,11.9c0.4,3.5,1.3,7,2.6,10.3c2.1,6.1,5.4,11.7,8.2,17.4
		c0.1,0.5-0.1,1.1-0.4,1.5c-2.8,5.3-5,10.8-7.6,16.2c-0.8,1.8-2.5,3-4.5,3c-1.6,0.2-3.1,0.1-4.7-0.1c-0.6-0.2-1.3-0.2-2,0
		c-0.9,0.3-1.9,0.5-2,1.5s0.5,1.9,1.4,2.3c1,0.6,2.2,0.9,3.3,1.5c0.4,0.2,0.8,0.4,0.9,0.8c0.1,0.4-0.5,0.8-0.9,1
		c-1.4,0.6-2.8,1.1-4.3,1.4c-2.6,0.5-5.1,1.4-7.5,2.5c-0.7,0.3-1.3,0.8-1.1,1.7c0.1,0.7,0.7,1.3,1.4,1.5c0.4,0.2,0.8,0.1,1.2,0.3
		c0.9,0.4,2.4-0.2,2.7,0.9c0.2,0.9-1.3,1.3-1.9,2s-1.7,1.4-1.1,2.6c0.6,1.2,1.5,1.3,2.6,1.3c2.2,0.1,4.3-0.1,6.4-0.7
		c0.7-0.2,1.5-0.6,2,0.1s-0.3,1.2-0.6,1.8c-0.6,0.9-1.1,1.9-1.5,2.9c-0.6,1.8,0.3,2.9,2.2,2.5c1.8-0.4,3.4-1.2,4.8-2.3
		c4.2-3.1,7.9-6.7,11.1-10.8c0.8-1.1,1.7-2.1,2.7-2.9c1.6-1.1,2.9-2.6,3.9-4.2c0.3-0.5,0.6-0.9,1.3-0.8c1.5,22-5.1,42-14.8,61.1
		c-0.5-0.3-0.9-0.8-1.6-0.8c-2.2-0.2-4.3-0.5-6.4-0.8c-5-0.6-10,0.1-14.9,0.1c-6.9,0-13.8-0.4-20.8,0.3c-1.7,0.2-3.4,0.2-5,0
		c-6.5-0.6-13-0.8-19.5-0.7c-5.7-0.2-11.4-0.7-17.1-1.5c-4.2-0.7-8.5-0.9-12.8-0.8c-0.8-0.9-1.3-2.1-1.4-3.3
		c-0.5-2.9-1.1-5.9-1.6-8.8C18,236.8,15.8,225.5,16.8,213.8z"/>
	<path id="Path_96" class="st14" d="M120.9,264.6c-0.1-0.6,0.2-1.4-0.9-1.4c-4.2-0.3-8.5-1.3-12.7-1c-8.8,0.6-17.6-0.2-26.3,0.4
		c-9.3,0.6-18.5-0.9-27.7-0.5h-0.7c0.5,1.2,1.6,0.8,2.5,0.8c2.6,0.1,2.6,0.1,2.8,2.8c0.2,2.9,0.2,5.8,0.6,8.6c0.3,1.9-0.3,3.9,0,5.8
		c0.4,2.3,0.9,4.5,1.2,6.8c1.6,9.6,4.2,19.1,6,28.6c1.9,10.4,3.2,20.8,4.9,31.2c0.1,0.6,0,1.2-0.1,1.8c-0.4,0.8-0.3,1.8,0.3,2.5
		l0.3-0.4c0.4-0.2,0.5,0.1,0.6,0.4c0.2,3.4,0.5,6.8,0.7,10.3c0.5,6.8,0.7,13.7,1,20.5c0.2,4.4,0.6,8.8,0.5,13.2
		c-0.1,3.3,0.3,6.6,0.3,9.9c0,7.8-0.6,15.5-0.7,23.2c0,0.1-0.1,0.2-0.2,0.3v0.4c0.3,2.1,1.4,3.8,2.2,5.7c1.1,2.6,2.4,5,4,7.3
		c1,1.5,2.8,2.2,4.6,1.7c1.6-0.4,3.3-0.6,5-1c2.2-0.4,3.9-2,4.6-4.1c1.5-4.2,3.7-8.1,4.8-12.5c-0.5-0.4-0.9-1-0.9-1.6
		c-0.7-14.1-1.6-28.3,2.2-42.2c2-7.1,4.5-14.1,7.5-20.9c2.5-6,3.8-12.5,3.7-19c0.1-8.1,0-16.1-0.5-24.2c-0.4-6.3-0.4-12.5-0.2-18.7
		c0.1-5.5,1.4-11,3.9-16C117.2,277.5,119,271,120.9,264.6z"/>
	<path id="Path_97" class="st15" d="M70.7,351.1c0.8-6.3-1-12.3-1.8-18.4c-1.1-9.3-2.7-18.4-4.8-27.5c-1.7-6.4-2.7-13-4-19.5
		c-0.7-2.9-1.1-6-1-9c0.2-4.2-0.4-8.5-0.6-12.7c-0.1-1.1-0.5-1.6-1.7-1.6c-1.4,0-2.8,0.4-4.1-0.3c-7.1-0.4-14.1-1.1-21-2.1
		c-2.4-0.4-4.9-0.3-7.3-0.5c-0.6,0-1.3-0.2-1.3,0.7c2.1,8.9,4.7,17.7,6,26.8c1.4,9.6,3.2,19.1,5,28.6c0.4,2.9,0.6,5.9,0.6,8.8
		c0.3,10.4,1.9,20.6,4.8,30.6c2.3,8.1,3.6,16.5,4,24.9c0.6,10.2,0.8,20.5,0.7,30.7c-0.1,4-0.5,7.9-1.1,11.8
		c-0.4,2.5-1.5,4.9-3.2,6.8c-3.1,3.5-6.5,6.8-10,10c-0.8,0.8-1.7,1.3-2.8,1.5c0.3,0.3,0.7,0.5,1.1,0.5c1.6,0.2,3.2,0.6,4.7,1.4
		c1.9,1.1,4.2,1.3,6.3,0.7c5.9-1.7,12-2.7,17.7-5c4-1.7,7.7-4,11.1-6.7c0.5-0.4,1.1-0.8,1.2-1.5c-0.4-0.7-0.5-1.5-0.2-2.3
		c0.6-5.5,0.2-11,0.4-16.4c0.2-9.3,1.3-18.7,1-28c-0.2-6-0.4-11.9-0.2-17.9C69.9,360.7,70.7,355.9,70.7,351.1z"/>
	<g>
		<g>
			<path id="Path_98" class="st14" d="M127.8,176c-3.1,5.7-5.4,11.7-8.3,17.4c-0.7,1.8-2.5,2.9-4.4,2.8c-1.6,0.1-3.1,0.1-4.7-0.2
				c-0.3-0.1-0.6-0.1-0.9-0.1c-1.4,0.2-3.1,0.3-3.4,2.1s0.9,2.5,2.3,3.1s2.5,1.1,4,1.7c-1.6,0.9-3.3,1.5-5.1,1.9
				c-2.7,0.6-5.3,1.4-7.9,2.6c-0.9,0.4-1.7,1.1-1.5,2.2c0.2,1.1,1,1.9,2.1,2c1.2,0.3,2.4,0.3,3.9,0.5c-1.1,0.7-2.1,1.5-3,2.5
				c-0.5,0.7-1.1,1.3-0.6,2.3c0.4,1,1.3,1.6,2.3,1.7c3.1,0.1,6.2-0.3,9.2-1.2c-0.9,1.6-1.7,2.9-2.4,4.3c-0.6,0.9-0.6,2,0.1,2.9
				c0.7,0.8,1.8,1,2.8,0.6c2.6-0.8,5-2.2,6.9-4c3.6-2.9,6.8-6.2,9.6-9.9c1.5-2.1,3.9-3.1,5.4-5.3c0.5-0.8,0.8-1.8,1.7-2.3
				c3-3.9,4.6-8.6,7.5-12.6c7-9.7,11.5-20.8,17.8-30.9c3.6-5.8,5.4-12.4,7-19v-3.3c-0.8-4-3.2-7.3-5.2-10.7
				c-4.8-8.2-11-15.3-16.9-22.7c-1.6-1.8-3-3.7-4.3-5.8c-3.3-5.7-7.6-10.8-10.9-16.5c-0.9-1.8-2.5-3.3-4.4-4.1
				c-3,3.1-5.1,6.9-6,11.1c-1.5,5.7-2.3,11.6-2.3,17.6c-0.1,5.5,0.4,10.9,1.4,16.3c0.4,2.1,2.2,3.1,3.2,4.7c0.5,2.1,2.3,3.3,3.5,4.9
				c2.3,2.7,4.7,5.2,7.2,7.6c3,2.9,4.3,7.2,3.2,11.3c-1.3,6.5-3.4,12.8-6.2,18.8c-0.7,1.4-1.5,2.6-2.1,4
				C128,174.7,127.5,175.3,127.8,176z"/>
		</g>
		<g>
			<g>
				<g>
					<defs>
						<path id="SVGID_1_" d="M127.8,176c-3.1,5.7-5.4,11.7-8.3,17.4c-0.7,1.8-2.5,2.9-4.4,2.8c-1.6,0.1-3.1,0.1-4.7-0.2
							c-0.3-0.1-0.6-0.1-0.9-0.1c-1.4,0.2-3.1,0.3-3.4,2.1s0.9,2.5,2.3,3.1s2.5,1.1,4,1.7c-1.6,0.9-3.3,1.5-5.1,1.9
							c-2.7,0.6-5.3,1.4-7.9,2.6c-0.9,0.4-1.7,1.1-1.5,2.2c0.2,1.1,1,1.9,2.1,2c1.2,0.3,2.4,0.3,3.9,0.5c-1.1,0.7-2.1,1.5-3,2.5
							c-0.5,0.7-1.1,1.3-0.6,2.3c0.4,1,1.3,1.6,2.3,1.7c3.1,0.1,6.2-0.3,9.2-1.2c-0.9,1.6-1.7,2.9-2.4,4.3c-0.6,0.9-0.6,2,0.1,2.9
							c0.7,0.8,1.8,1,2.8,0.6c2.6-0.8,5-2.2,6.9-4c3.6-2.9,6.8-6.2,9.6-9.9c1.5-2.1,3.9-3.1,5.4-5.3c0.5-0.8,0.8-1.8,1.7-2.3
							c3-3.9,4.6-8.6,7.5-12.6c7-9.7,11.5-20.8,17.8-30.9c3.6-5.8,5.4-12.4,7-19v-3.3c-0.8-4-3.2-7.3-5.2-10.7
							c-4.8-8.2-11-15.3-16.9-22.7c-1.6-1.8-3-3.7-4.3-5.8c-3.3-5.7-7.6-10.8-10.9-16.5c-0.9-1.8-2.5-3.3-4.4-4.1
							c-3,3.1-5.1,6.9-6,11.1c-1.5,5.7-2.3,11.6-2.3,17.6c-0.1,5.5,0.4,10.9,1.4,16.3c0.4,2.1,2.2,3.1,3.2,4.7
							c0.5,2.1,2.3,3.3,3.5,4.9c2.3,2.7,4.7,5.2,7.2,7.6c3,2.9,4.3,7.2,3.2,11.3c-1.3,6.5-3.4,12.8-6.2,18.8c-0.7,1.4-1.5,2.6-2.1,4
							C128,174.7,127.5,175.3,127.8,176z"/>
					</defs>
					<clipPath id="SVGID_2_">
						<use xlink:href="#SVGID_1_"  style="overflow:visible;"/>
					</clipPath>
					<path class="st16" d="M118.6,181.9c1.3,0.5,25.5,17.9,25.5,17.9s29.5-59.1,29.5-60.6s-3.2-21.8-6.3-23s-39.6-43.7-39.6-43.7
						L114.2,84c0,0,3.9,32.4,3.9,34s0.4,21.2,0.4,21.2l13.2,12.4L118.6,181.9z"/>
				</g>
			</g>
		</g>
	</g>
	<path id="Path_103" class="st15" d="M65.6,61.3c-1.9,0.9-4,0.8-6.1,0.8c6.2,4.6,12.6,8.6,20.4,9.9c7.7,1.3,15.7,0.5,23-2.6
		c0.6-0.3,1.3-0.5,1.5-1.2c-1-0.7-1.8-1.5-2.5-2.5c-2.3-0.2-4.4-0.2-6.4,1.4c-1.3,1.1-2.5,0.4-2.7-1.4c-0.2-1.8-0.4-3.1-0.5-4.7
		c-0.8-0.1-1.3,0.5-1.9,0.9c-4.7,2.6-9.3,5.1-14.8,5.2c-3.4,0.1-6.7-1.5-8.7-4.4C66.6,62.2,66.3,61.5,65.6,61.3z"/>
	<path id="Path_99" class="st17" d="M56.4,66.6c3.8,1.3,6.8-1.7,10.8-0.7c-4-11-5-22-4.2-33.2c0.3-2.7,0.8-5.4,1.6-8.1
		c0.8-2.6,1.9-5.2,3.4-7.7c1.8-2.7,4.1-5,7.1-7c2.5-1,4.5-0.3,6.1,1.3s2.9,3.8,3.9,5.8c1,18-7,41,11,54c11,7,24,3,33-4
		c5-5-9-10-10-18c-3-19,0-29-13-40c-2.3-2.1-4.6-3.8-7.1-5c-7.4-3.6-15.6-3.3-23.2-0.3c-2.5,1-4.9,2.3-7.2,3.8
		C50.2,20.9,44.2,44.9,45.2,65.9C49.2,64.9,52.2,67.9,56.4,66.6L56.4,66.6z"/>
	<path id="Path_100" class="st14" d="M20.1,195.9c0.2,0.1,0.3,0.9,0.8,0c3.7-6.6,7.4-13.1,11.2-19.6c2.7-4.8,6.3-9,9.5-13.3
		c2.3-3.2,4.1-6.8,3.4-10.9c-0.5-3.9-2.6-7.4-5.7-9.7c-4.8-3.5-7.8-8.9-8.4-14.8c-0.4-3.9-1.4-7.7-1.5-11.6
		c-0.2-6.4,2.1-12.1,4.7-17.8c1.9-4.1,4.8-7.5,6.4-11.7c1.9-4.8,2.7-10,2.4-15.2c0-0.5-0.1-0.8-0.7-0.9c-1.2,1.1-2.2,2.2-3.1,3.5
		c-5,7.2-9.6,14.7-12.3,23.2c-1.9,5.8-2.6,11.9-3.7,17.8c-2.1,10.2-3.7,20.5-5,30.8c-0.9,7.1-0.5,14.3-0.3,21.4
		c0.3,8.1,1.4,16.2,2,24.2C19.8,193,19.9,194.4,20.1,195.9z"/>
	<path id="Path_101" class="st18" d="M68.8,430.1c-3,2.5-6.3,4.6-9.7,6.5c-4.3,2.4-9,3.3-13.6,4.5c-2.4,0.6-4.9,1.1-7.3,1.9
		c-1.9,0.5-3.9,0.2-5.5-0.8c-1.8-1-3.8-1.5-5.9-1.5c-0.6-0.1-1.2,0.1-1.7,0.5c-2.6,2.4-5.4,4.5-7.2,7.7c-1.2,2.2-2.9,4.1-3.9,6.5
		c-1.2,3-0.4,4.2,2.7,4.2s6.2-1.2,9.3-1.2c7-0.1,13-3.3,18.8-6.7c3.6-2.1,7.5-2.9,11.5-3.5c0.8-0.1,0.9,0.1,1.1,0.7
		c0.4,1.6,1.6,2.1,3.1,2c2.5-0.1,4.9-0.6,7.2-1.4c1.5-0.4,2.6-1.7,2.7-3.2c0.5-4.1,0.4-8.2-0.2-12.2c-0.2-0.9-0.1-1.8-0.2-2.7
		C69.8,430.8,69.9,429.9,68.8,430.1z"/>
	<path id="Path_102" class="st18" d="M98.5,425.9c-0.8,0.1-0.9,0.7-1,1.3c-1,4.4-3.4,8.2-4.9,12.4c-0.6,1.6-2.2,2.1-3.7,2.5
		c-1.3,0.4-2.7,0.5-4,0.8c-3.9,1-4.7-0.8-6-3c-1.8-3.1-3.4-6.3-4.7-9.7c-0.2-0.5-0.5-0.9-0.8-1.4c-0.7,1.9-0.3,3.8-0.4,5.7
		c-0.2,6.8,0.3,13.5,3,19.8c1.7,3.7,4.2,7.1,7.2,9.9c1,1,2.5,1.4,3.8,0.9c2.4-0.8,4.5-2.4,5.9-4.5c2.2-2.9,4.2-5.9,6.4-8.8
		c2-2.7,1.6-5.7,1.4-8.7c-0.2-4-0.6-8-0.9-12.1C99.5,429.4,99.5,427.5,98.5,425.9z"/>
	<path id="Path_104" class="st19" d="M96.2,367.4c0.4-0.9,0.8-1.4,0.5-2.1c-0.1-0.1-0.3-0.1-0.5,0C95.8,365.9,95.9,366.4,96.2,367.4
		z"/>
	<path id="Path_105" class="st20" d="M38.3,339.8c-0.2,0.4-0.2,0.9,0,1.2C38.6,340.6,38.6,340.1,38.3,339.8z"/>
	<path id="Path_106" class="st14" d="M65.6,61.3c2.8,5.2,6.7,6.9,12.7,5.9c5.1-1,9.9-3.1,14-6.2c0.1-2,0.4-4.1,0.9-6s0-3.9-1.3-5.4
		c-4.3-4.5-4.5-9.9-2.6-15.3c1.8-4.5,1.5-9.6-0.6-14c-1.8-3.8-3.6-7.6-4.5-11.8c-0.2-0.9-0.7-1.2-1.6-1.2c-5.1,0.2-9.3,1.6-12.3,6.1
		c-2,3-4.9,5.5-6.5,8.9c-0.1,0.3,0.1,0.5,0.3,0.6c1.8-0.3,3.5-1.3,5.5-0.6c-2.3,0.1-4,1.8-6.3,1.6l-0.2-0.1
		c-2.6,3.7-3.2,7.8-2.9,12.1c0.4,5.9,1.3,11.7,2.5,17.4C63.3,56.1,64.3,58.8,65.6,61.3L65.6,61.3z"/>
	<path id="Path_107" class="st21" d="M64.2,22.7l-0.4-0.4c-0.5,0.4-0.7,0.9-0.7,1.5l0,0C63.9,23.9,64.2,23.5,64.2,22.7z"/>
	<path id="Path_108" class="st22" d="M24.8,112.6c0.8-0.5,0.7-1.1,0.5-2C25.1,111.4,25,111.9,24.8,112.6z"/>
	<path id="Path_109" class="st23" d="M77.6,55.1c-2.2-0.9-3.8-2.3-6.4-1.5c-1.3,0.4-2.7,0.1-4,1.2c-0.8,0.7-0.5,0.9,0,1.5
		c2.3,2.2,4.3,2.4,7.2,1C75.5,56.6,76.6,55.9,77.6,55.1z"/>
	<path id="Path_110" class="st24" d="M73.3,48.2c-1.9-1.3-3.2-2.5-3-4.7c0.1-0.8,0.4-1.6,0.8-2.3c1.2-1.9,2.1-4.1,2.4-6.3
		c0.3-0.8,0-1.8-0.7-2.4c-0.1,4-2.7,6.9-3.7,10.3C68.1,45.9,69.9,48.5,73.3,48.2z"/>
	<path id="Path_111" class="st25" d="M80.2,22.6c2.8-0.4,5.2,0.6,7.6,1.8c0.4,0.2,0.8,0.4,1.1-0.1c0.3-0.5,0-0.8-0.3-1.1
		C86.9,20.9,82.4,20.5,80.2,22.6z"/>
	<path id="Path_112" class="st26" d="M64.2,22.7c-0.3,0.4-0.5,0.9-1.1,1.1c0.1,1.2,0.7,0.9,1.5,0.6c2-0.8,4-1.9,6.2-2
		C68.5,21,66.3,21.4,64.2,22.7z"/>
	<path id="Path_113" class="st27" d="M81.9,33.2c0,0.6,0.5,1,1.1,1h0.1c0.6,0,1-0.5,1-1.1c0-0.1,0-0.1,0-0.2c0-0.5-0.4-0.9-0.9-0.9
		c-0.1,0-0.1,0-0.2,0c-0.6,0-1,0.4-1.1,1C81.9,33.1,81.9,33.2,81.9,33.2L81.9,33.2z"/>
	<path id="Path_114" class="st28" d="M65.6,32c-0.6-0.1-1,0.3-1.1,0.9c0,0.1,0,0.1,0,0.2c0,0.5,0.4,1,0.9,1.1l0,0
		c0.6,0.1,1.1-0.3,1.2-0.9v-0.1C66.7,32.5,66.2,32.1,65.6,32z"/>
</g>
<g id="_2i4F6x" transform="translate(207.212 16.693)">
	<path class="st29" d="M45.3,68.4L38.6,76l9.1,8.4c0,0,26,1.8,26.9,1.6c0.9-0.1,6.8-5.5,6.9-6.1s0-8.8,0-8.8l-7.8-3.3H63.4
		l-12.9-1.3L45.3,68.4z"/>
	<path id="Path_147" class="st30" d="M94.1,457.9c-1.3-1.2-2.8-2.2-4-3.5c-2.3-2.5-3.2-5.7-4.3-8.8c-0.6-1.7-1-3.4-1.6-5.2
		c-0.1-0.5-0.6-1.1,0.5-1c2.1,0.9,4.1,2.1,6,3.6c3.1,2.2,5.8,1.9,8.6-0.4c1.4-1.4,3.1-2.4,5-3c0.5,0.2,0.4,0.7,0.3,1.1
		c-0.5,6.2-3.3,12-8,16.2c-0.6,0.4-1.1,0.7-1.8,1L94.1,457.9z"/>
	<path class="st29" d="M107.8,366.2c-0.2,7.1-5.5,42.6-5.2,47.8c0.2,3.1,0.9,8.1,1.3,11.5c-0.1,0.1-0.2,0.2-0.3,0.4l-0.1,0.1
		c-0.5,0.5-1.2,0.8-2,0.7c-4.3,0.1-8.5,0-12.8-0.4c-0.9-0.1-1.7-0.4-2.6-0.7l-0.2-0.2v-0.3c-0.1-6-0.5-35.9-1-49.6v-0.1
		c0-0.4,0-0.9,0-1.3c0-0.2,0-0.4,0-0.6c0-0.1,0-0.1,0-0.2c0-0.4,0-0.8-0.1-1.2V372c0-0.4-0.1-0.8-0.1-1.1c0-0.5-0.1-1-0.1-1.3
		c-0.6-5.3-3.3-42.5-4.8-63.6c0-0.2,0-0.5,0-0.7c0-0.4,0-0.9-0.1-1.3c0-0.3,0-0.7-0.1-1c0-0.3,0-0.5-0.1-0.8c0-0.2,0-0.5,0-0.7
		c-0.1-1.3-0.2-2.5-0.3-3.8c0-0.2,0-0.4,0-0.6c0-0.3,0-0.6-0.1-0.9c0-0.1,0-0.3,0-0.4c0-0.2,0-0.4,0-0.6s0-0.3,0-0.5
		c-0.1-0.8-0.1-1.7-0.2-2.5l0,0c5.7,0,27.8-0.3,37.5-1C115.5,297.9,108.1,359.6,107.8,366.2z"/>
	<path class="st29" d="M63.1,294.5c0,0-5.4,54.1-8,68.5s-4.4,62.8-4.4,62.8s-18.5,6.7-18.3-1.9s-2.7-49.8,0-67s-1.6-70.8-1.6-70.8
		L63.1,294.5z"/>
	<path class="st31" d="M125.8,242.7c-0.8,6-1.5,12.1-2.8,18.1l0,0c-0.9,11.9-2.2,28.4-2.1,29.5c0,0.3-1.3,0.5-3.4,0.7
		c-9,0.9-32.9,1.1-38.7,1.1c-0.8,0-1.3,0-1.3,0c-1.4-1.2-3.1-36.9-3.1-36.9v-0.9c-0.6-7.2-0.1-14.3-1.4-21.4
		c-0.8-3.6-1.9-7.2-3.3-10.7c-0.7-0.2-0.5,0.3-0.5,0.6c0.5,1,0.5,2.2,0.3,3.3c-0.6,6.2,0.1,12.4,0,18.6c0,5.2-0.3,10.5-0.6,15.7l0,0
		c0,0-0.8,31-0.8,33.1c0,0.3-0.7,0.5-2,0.7c-7.5,1-33.2,0.5-40.1-0.3c-0.9-0.1-1.5-0.2-1.7-0.3c-1.6-1.1,1.5-22.2,1.6-23.3l0,0
		c0.1-4.9,0.2-9.9,0.1-14.8c-0.2-16.4,0.1-32.9-0.4-49.3c0.9-0.2,1.7-0.7,2.2-1.4c3.6-3.9,6.1-8.6,9.3-12.8c0.1-0.2,0.3-0.4,0.4-0.6
		c0.7-1,1.8-1.9,2-3.2s-1.4-1.8-2-2.8c-0.1-0.2-0.1-0.3-0.2-0.5c0.1-2-0.1-3.9-0.6-5.8c-0.3-1.7-0.9-3-2.7-3.6
		c-1.7-4.7-1.3-5.3,3.6-5c3.5,0.1,7.1,0.6,10.5,1.4c4.9,1.2,9.6,0.9,14.5,0.4c7.4-0.8,14.8-1.6,22.2-2.5c6-0.7,12-1.3,17.9-2.5
		c1.3-0.2,2.6-0.7,3.7-1.4c1.1-0.8,1.9-0.4,2.4,0.8c0.6,1.3,1,2.7,1.4,4.1c2.6,9.6,4.8,19.4,6.4,29.3c0.1,0.4,0.1,0.8,0.1,1.3
		c-1.5,2.4-0.7,4.9-0.5,7.3c0.2,1.2,0.3,2.5,0.3,3.7c-0.1,2,0.6,3.4,2.6,4c0.8,0.8,0.3,1.6,0.1,2.3c-0.9,2.4-2,4.8-3.5,6.9
		c-0.7,0.9-1.3,1.9-1.8,2.9c-0.4,0.8-0.9,1.6-0.2,2.3c0.7,0.7,1.6,0.1,2.3-0.3c1.5-1,2.9-2.1,4.2-3.4c0.4-0.4,0.8-1.1,1.4-0.8
		s0.5,1.1,0.3,1.8c-0.9,4.5-1.7,9-4,13.1c-0.6,1-1.4,2.5-0.1,3.5s2.2-0.4,3-1.2c0.3-0.3,0.6-0.7,1.1-0.6c1.4,0.3,2.4-0.6,3.6-1
		C126,241.9,126,242.2,125.8,242.7z"/>
	<path class="st29" d="M116.4,290.5c0,0,0,0.2-0.1,0.6c-0.8,6.8-8.3,68.5-8.5,75.2c-0.2,7.1-5.5,42.6-5.2,47.8
		c0.2,3.1,0.9,8.1,1.3,11.5c0.3,2.3,0.3,3.9,0.3,3.9l0,0l-6.2,1.8l-7.5-1.3l-4.6-3.8l0,0c0-0.1,0-0.3,0-0.8v-0.3
		c-0.1-6-0.5-35.9-1-49.6v-0.1c0-0.4,0-0.9,0-1.3c0-0.2,0-0.4,0-0.6c0-0.1,0-0.1,0-0.2c0-0.4,0-0.8-0.1-1.2V372
		c0-0.4-0.1-0.8-0.1-1.1c0-0.5-0.1-1-0.1-1.3c-0.6-5.3-3.3-42.5-4.8-63.6c0-0.2,0-0.5,0-0.7c0-0.4,0-0.9-0.1-1.3c0-0.3,0-0.7-0.1-1
		c0-0.3,0-0.5-0.1-0.8c0-0.2,0-0.5,0-0.7c-0.1-1.4-0.2-2.7-0.3-3.8c0-0.2,0-0.4,0-0.6c0-0.3,0-0.6-0.1-0.9c0-0.1,0-0.3,0-0.4
		c0-0.2,0-0.4,0-0.6s0-0.3,0-0.5c-0.1-1.1-0.1-2-0.2-2.5c0-0.4,0-0.6,0-0.6s29.2-3.5,30-3.5S116.4,290.5,116.4,290.5z"/>
	<path id="Path_149" class="st32" d="M116.5,201.5c-1.7-10.5-4-20.9-6.8-31.1c-0.1-0.3-0.2-0.6-0.3-0.8c-0.4-1.1-0.5-2.6-1.4-3.3
		c-1-0.9-1.8,0.9-2.9,1.1c-3.7,0.9-7.5,1.5-11.4,1.9c-7.4,0.9-14.8,1.9-22.2,2.7c-5.3,0.6-10.5,1.2-15.8,1.5
		c-3.5,0.2-6.9-1.1-10.3-1.5c-3.7-0.4-7.4-0.8-11.1-1.3c-0.8-0.1-0.7,0.4-0.6,0.9c0.2,1.4,0.5,2.7,0.8,4.1c-0.8,1.3-2.2,1.7-3.4,2.1
		c-5.7,2.3-10.7,5.7-15.9,8.8c-0.5,0.3-1,0.9-1.8,0.7c-3.5-6.8-5.7-14.2-6.5-21.7c-0.4-4.3-0.8-8.6-1.1-12.9
		c-0.2-2.6-0.3-5.3-0.3-7.9c0.2-5.9,0.8-11.8,1.4-17.7c0.3-2.5,0.3-5,0.4-7.5c0.3-8,0.9-15.9,1.3-23.9c0.2-4.3,2-8.4,5-11.4
		c4.2-4.4,9.4-7.7,15.1-9.8c0.2-0.2,0.4-0.3,0.7-0.2c3.4,1.3,7,1.3,10.4,2c2.2,0.4,2.5,0.9,1.5,2.9c-0.9,1.9-1.8,3.7-2.8,5.4
		c-1.6,2.8-1.3,3.9,1.6,5.5c0.9,0.5,1.9,1,2.8,1.6c6.3,3.8,10.2,9.8,13.6,16c1.7,3.2,3.7,6.3,5.7,9.4c0.8,1.3,2.3,1.1,2.9-0.7
		c0.8-2.1,1.5-4.3,2.5-6.4c3.7-7.9,9-14.5,16.5-19.1c0.7-0.4,1.5-0.8,2.2-1.3c2.5-1.6,2.7-2.4,1.7-5.1c-0.7-1.9-1.8-3.5-2.6-5.3
		c-1.1-2.4-1-2.7,1.4-3.8c3.2-1.5,6.6-2.6,10.1-3.2c1.5,0,2.8-0.9,3.4-2.2c7,1.8,13.5,5.1,19.1,9.7c5.1,4.1,8.8,9.7,10.5,16
		c1,3.7,2.3,7.3,3.3,11c0.7,3,1.1,6,1.3,9c0.4,5,0.4,10.1,0.8,15.1c0.5,7.2,0.4,14.4,0.8,21.6c0.3,6.2-0.1,12.5,0.7,18.7
		s1.7,12.3,1.4,18.4c0,3.8-0.4,7.7-1,11.4c-0.7,0.5-1.6,0.7-2.4,0.5c-5.7-0.5-11.5-0.5-17.2,0.1
		C117.2,201.8,116.8,201.7,116.5,201.5z"/>
	<path class="st32" d="M51.3,66.8c0,0-14.1,3.8-5.3,10.1c8.7,6.4,46.5,5.9,27.1-9.1c0,0,24.6-0.4,33.3,4.1S99.9,122,90,126.6
		c-9.9,4.6-6.6,9.9-24.8,12.4s-27.4,6.6-31.3-3.2s-8.8-17.8-9.3-23.2c-0.5-5.4,0-36.4,0-36.4S44.4,67.8,51.3,66.8z"/>
	<path id="Path_153" class="st29" d="M125.6,242c-0.9,0.9-1.7,1.9-3.2,1.2c-0.6-0.3-0.7,0.2-1,0.5c-0.4,0.5-0.9,1-1.4,1.3
		c-0.7,0.5-1.6,0.5-2.4,0.1c-0.7-0.5-1-1.5-0.6-2.3c0.4-1.3,0.9-2.5,1.5-3.7c2.3-4,2.3-8.5,3.4-12.8c-1.6,1.5-3.2,2.9-5,4.2
		c-0.5,0.4-1,0.7-1.5,0.9c-0.6,0.4-1.5,0.3-2-0.3c-0.6-0.5-0.7-1.4-0.3-2c0.7-1.3,1.5-2.6,2.4-3.8c1.9-2.6,3.2-5.6,4-8.8
		c0.7-0.5,1.5-0.7,2.4-0.6c4,0,8,0.1,12-0.9c1-0.2,1.9-0.2,2.3,1.1c-0.2,3.9-0.3,7.8-0.8,11.6s-2.4,6.9-4.4,10
		c-0.2,0.2-0.4,0.5-0.5,0.7c-0.8,1.7-1.9,3-4.1,2.6C126.1,241.6,125.9,241.8,125.6,242z"/>
	<path id="Path_154" class="st33" d="M136,216.3c-0.4-0.5-0.8-0.9-1.5-0.7c-5,1.5-10.1,0.9-15.1,1.1c-1.4,0.3-2.8-0.7-3.1-2.1
		c0-0.2,0-0.4,0-0.6c-0.2-3.2-0.4-6.4-0.9-9.6c-0.2-1.1,0.2-2.2,1.1-2.9c1.8-0.6,3.6-0.8,5.5-0.7c5,0.1,10.1-0.1,15.1,0.4
		c1.3,0.7,2.9,0.5,3.7,2c0.6,1.1,0.8,2.3,0.5,3.5c-0.4,1.9-0.8,3.8-1.4,5.7c-0.4,1.4-1.4,2.4-2.8,2.7
		C136.5,215.2,135.9,215.5,136,216.3z"/>
	<path id="Path_155" class="st33" d="M13.4,187.4c6.6-4.6,13.7-8.5,21.1-11.6c1.1-0.4,1.7-0.1,2.1,1.1c0.8,2.7,1.8,5.4,1.1,8.3
		c0.4,0.9-0.3,1.4-0.9,1.9c-4.3,3.9-9.2,7.2-13.3,11.3c-0.5,0.5-1.1,0.8-1.7,0.9c-2.9,1.4-4.7,1-6.6-1.6c-0.9-1.2-1.8-2.5-2.7-3.8
		C10.4,190.8,10.6,189.7,13.4,187.4z"/>
	<path class="st29" d="M104.2,439.5c-2.4,1.8-5,3.6-7.6,5.1c-1,0.7-2.3,0.7-3.4,0.1c-3.1-1.4-5.9-3.2-8.5-5.4
		c0-4.3,0.5-8.5,1.3-12.7c0-0.1,0.1-0.3,0.1-0.4l0,0c0-0.1,0-0.3,0-0.8v-0.3c5.9,1.2,11.8,1,17.6,0.8h0.1c0.2,1.2,0.4,2.4,0.5,3.6
		C104.7,432.8,104.6,436.2,104.2,439.5z"/>
	<path id="Path_157" class="st29" d="M32.4,423.8c0.9,0.6,2,0.9,3,0.9c5.1,0.4,10.2,0.7,15.2-0.2v1.1c-0.5,5.6-3.6,9.5-8,12.6
		c-1.4,0.9-2.7,2-3.9,3.2c-0.9,1-2.4,1.4-3.7,1c-1.9-0.5-3.7-1-5.6-1.5c-1.6-0.5-3.3-0.9-4.9-1.1c-0.8-0.1-1.9-0.1-2.3-1.1
		c2.4-2.9,4.9-5.9,7.3-8.9C30.9,428.1,31.9,426,32.4,423.8L32.4,423.8z"/>
	<path id="Path_158" class="st30" d="M22.1,438.7l14.1,3.6c0.6,0.2,1-0.2,1.4-0.5c1.9-1.5,3.8-3.2,5.8-4.7c3.5-2.5,6-6.3,6.8-10.5
		c0.1-0.3,0.1-0.7,0.5-0.9c0,0.3,0,0.6,0.1,0.9c0.7,4.4-0.8,7.6-4.5,10.2c-2.9,2-5.6,4.3-8.1,6.9c-1.3,1.1-2.7,2-4.3,2.6
		c-4.8,2.3-9.5,4.6-14.9,5.3c-2.7,0.3-4-1.1-3.1-3.6c1.2-2.9,2.7-5.7,4.5-8.4C20.8,439,21.4,438.7,22.1,438.7L22.1,438.7z"/>
	<path id="Path_159" class="st29" d="M21.8,199.3c3-2.9,6.1-5.5,9.4-8c2-1.6,3.7-3.5,5.9-5c0.4-0.3,0.6-0.7,0.7-1.2
		c0.1,0.1,0.2,0.3,0.3,0.4c2.6,2.6,2.7,2.6,0.3,5.7c-3.7,4.9-6.6,10.3-10.8,14.8c-0.7,0.7-1.1,0.8-1.8,0.2c-0.2-0.8-0.6-1.6-1.2-2.2
		C23.3,202.6,22.7,200.9,21.8,199.3z"/>
	<path id="Path_162" class="st34" d="M125.6,242c0.1-0.3,0.4-0.6,0.7-0.7c0.1,0.5,0,1-0.3,1.4C125.8,242.5,126,242.1,125.6,242z"/>
	<path id="Path_128_1_" class="st29" d="M74.4,17.2c0.6,1.4,1.4,2.7,2.5,3.8c0.5,0.7,0.8,1.4,0.9,2.1c1.6,4.8,1.2,9.7,1.2,14.7
		c0,2,0.6,4.3-0.5,6c-1.6,2.8-3.1,5.9-4.6,8.7c-1.1,2.1-4.1,3.2-6.3,4.3C65,58.2,62,59.3,58.8,58c-1.8-0.7-3.7-1.2-5.6-1.6
		c-1-0.2-1.9-0.7-2.6-1.6c-0.2-0.7-0.6-1.4-1-2.1c-1.5-2-3.1-3.8-4.1-6c-1.5-3.6-3.1-7.3-4.6-10.8s-4-11.8-2.3-15.5
		c2.7-5.9,8.5-6.1,13-10.9c1.9-2.1,3.7-4.1,4.6-6.9c0.4-1.5,1-1.3,2-0.5c2,1.7,4,3.2,6,4.8C67.9,10,71.4,13.4,74.4,17.2L74.4,17.2z"
		/>
	<path id="Path_129_1_" class="st29" d="M72.7,63.8c0,3.5,0.9,7.2,2.6,10.3c-7.8,0.1-15.6-0.7-23.2-2.6c-0.9-3.5-1.2-7.1-1.1-10.7
		c0.2-2-0.7-4.8-1.8-6.8c2.5,1.4,6.7,2.6,9.3,3.5c1.3,0.5,2.8,1.2,4.2,0.6c2.4-0.9,5-1.4,7-3.4c0.8-1.1,1.9-2,3.1-2.8
		C71.9,55.9,72.7,59.8,72.7,63.8z"/>
	<path id="Path_130_1_" class="st35" d="M76.9,21c-1.4-0.8-2.4-2.2-2.5-3.8C75.4,18.3,76.3,19.6,76.9,21z"/>
	<path id="Path_141_1_" class="st36" d="M65.6,46.9c0.3,0,0.5-0.1,0.6,0c1.8,0.1,3,0.7,3.8,1.6c0.6,0.7-0.8,0.9-1.6,1.3
		c-3.4,1.6-9.8,0.6-11.6-1.9c-0.2-0.3-0.1-0.6,0.3-0.6c2.1-0.3,3.7-1.8,6.2-0.5C64,46.9,64.8,47,65.6,46.9L65.6,46.9z"/>
	<path id="Path_144_1_" class="st37" d="M73,23.2c-2.4-0.8-5-1.1-7.4-0.9c-0.4,0.1-0.8,0.1-0.9-0.4s0.2-0.8,0.6-1
		c1.6-0.8,6.2-0.2,7.4,1.2C73.1,22.4,73.1,22.8,73,23.2L73,23.2z"/>
	<path id="Path_144_2_" class="st37" d="M46,23.2c-0.1-0.4-0.1-0.8,0.2-1.2c1.2-1.4,5.9-2,7.4-1.2c0.4,0.2,0.8,0.5,0.6,1
		c-0.1,0.5-0.5,0.5-0.9,0.4C51,22.1,48.4,22.3,46,23.2L46,23.2z"/>
	<path id="Path_145_1_" class="st38" d="M69.9,26.7c0.9-0.2,1.4,0.5,1.7,1.9c0.2,1.3,0.1,2.6-0.9,2.8c-0.7,0.2-1.3-0.7-1.7-2
		C68.7,28.1,69.2,26.9,69.9,26.7z"/>
	<path id="Path_146_1_" class="st38" d="M48.7,31C48.7,31,48.7,30.8,48.7,31c-0.2-1.2,0.2-2.2,0.9-2.1c0.1,0,0.2-0.1,0.3-0.1
		c0.7,0,1.4,0.7,1.5,1.7c0.1,0.3,0.1,0.5,0.2,0.7c0,1-0.4,1.9-1.1,1.8c-0.1,0-0.1,0-0.2,0.1C49.5,33,48.9,32.1,48.7,31L48.7,31z"/>
	<path id="Path_201_1_" class="st37" d="M61.7,34.8c-0.7,2.1,0,4.5,1.8,6c0.4,0.3,1.1,0.5,1,1.3c-2.7-0.6-4.5-2-4.4-4.1
		c0.2-3.7,0.7-7.3,0.7-10.9C61.8,29.5,62.6,32,61.7,34.8z"/>
	<path class="st39" d="M44.3,19.5c0,0,8.7-2.8,15.3-2.3l1.2-8.1l0.8,8.1c0,0,1.5-0.2,3.5-0.4c0.3,0,0.6-5.6,0.6-5.6s0.9,5.6,1.1,5.5
		c1.4,0,2.9,0,4.2,0.2c0.4,0.1,0.7,0.1,1,0.2c1.1,0.3,1.7,0.9,2.3,1.6c1.4,1.7,3.1,8.4,4.1,14.7c0.8,5.3-0.3,10.8-3.6,15.1
		c-1.7,2.2-3.2,5.4-3,10.1c0.3,10.2,1.2,9.3,1.2,9.3s14.6,0.7,18.3,1.7S105.4-1.5,57.6,1.4C34,3.9,28.7,14.9,28.4,24.8
		s3.4,25.6,2,29.6C29,58.3,35.3,72,35.3,72l16-5.1c0,0,0.5-15.3-2.6-17.7C45.5,46.8,41,36.7,41,33.1s3.6-14.9,3.6-14.9"/>
	<path class="st29" d="M81.3,325c0,0,0.9,42.6,3.9,52.4S85,326.9,81.3,325z"/>
</g>
<g id="WdP2Kc" transform="translate(667.418 19.187)">
	<path id="Path_165" class="st40" d="M41.7,455.4c3.4-0.6,4.7-3.3,6-6c2.9-6.4,4.9-13.2,6-20.1c0.9-5.2,1.8-10.5,1.3-15.9
		c-0.1-2-0.4-4-0.8-5.9c-0.8,0.2-0.8,0.9-0.9,1.5c-0.6,2-1,4.1-1.2,6.2c-0.5,5-1.7,9.8-3.7,14.4c-0.4-1.6-0.5-3.3-0.5-5
		c-0.2-2.8-1.1-4.1-3.3-4.5c-2.6-0.5-4.3,0.4-5.5,3c-0.4,0.9-0.7,1.9-1.1,2.8c-0.2,0.6-0.4,1.2-0.5,1.8c-0.7-3.8-0.5-7.9-0.8-11.9
		c0-0.6,0.2-1.7-1.1-1.4c-2.1,5.7-2,11.7-2.4,17.7c-0.1,2.1,0,4.2-0.3,6.3c-0.4,1.4,0.2,2.8-0.2,4.2l0.1,2.5c0.5,2,0.4,4.1,1.1,6.1
		c1.1,3.2,2,3.9,5.5,4.1C40.1,455.4,40.9,455.1,41.7,455.4L41.7,455.4z"/>
	<path class="st41" d="M35.5,414.7c0,0-4,32.7,5.8,29.2s12-34.9,12-34.9L35.5,414.7z"/>
	<path id="Path_166" class="st42" d="M87,412.1c-0.9-0.1-0.6,0.6-0.6,1.1c-0.3,5.6,0.6,11.2,2.6,16.5c2.1,5.6,4.4,11.1,6.5,16.6
		c1.5,4,4.1,6.8,8.5,7.6h0.7c1.2-0.8,2.3-1.9,3.3-3c0.9-1.2,1.5-2.7,1.5-4.2c0-8.2-0.2-16.3-2.5-24.3c-0.5-1.6-1.2-3.2-1.8-4.8
		c-0.7,0-0.7,0.5-0.7,1c0,3.4,0.1,6.8,0.1,10.2c0,0.1,0.1,0.2,0.1,0.2c-0.3-0.4-0.2-0.8-0.3-1.2c-0.2-1.7-1.7-2.9-3.4-2.7
		c-0.1,0-0.2,0-0.3,0.1c-0.4,0-0.8,0.1-1.2,0.2c-4,0.7-4.9,1.9-4.6,6c0.1,0.3,0.1,0.7-0.1,1c0,0.1-0.3-0.2,0-0.1s0.1,0,0.1-0.1
		c0-0.8-0.3-1.5-0.8-2.1c-2.9-4.9-4.9-10.3-6-15.9C88,413.2,88,412.4,87,412.1z"/>
	<path id="Path_167" class="st43" d="M145.6,194.1h0.3l-0.3-11.3h-0.3C144.5,184.5,144.7,192.5,145.6,194.1z"/>
	<path id="Path_168" class="st40" d="M39.1,455.2c0,0.1,0,0.2,0.1,0.3l2.1-0.1C40.6,454.7,39.9,455.2,39.1,455.2z"/>
	<path id="Path_169" class="st44" d="M40,390c0.5-4.2,0.8-8.4,1.4-12.7c1.2-9.3,2.4-18.7,3.3-28.1c0.9-9.7,2.2-19.3,3.5-28.9
		c1.3-9.9,2.3-19.8,2.7-29.7c0.3-6.2,0.6-12.5,0.5-18.7c-0.1-7.8-0.1-15.6-0.8-23.3c-0.5-5.2-0.4-10.4-0.7-15.6
		c-0.5-8.5-0.3-17-1.1-25.4c1.4-0.4,1.8-0.2,1.9,1.2c0,1.6,0.1,3.2,0.3,4.7c0.8,3.9,1,7.9,1.9,11.8c0.2,1,0.4,1.9,0.8,2.9
		c0.3,0.7,0.6,1.5,1.6,1.4s1.2-0.9,1.3-1.6c0.2-1,0.3-2,0.4-3c0-0.7-0.3-1.9,0.5-2c0.9-0.2,1,1,1.4,1.7c0.1,0.3,0.2,0.5,0.3,0.8
		c0.6,1.9,1.3,3.8,2.3,5.5c0.4,0.7,0.9,1.5,1.9,1.2c1-0.3,1.1-1.1,1.1-2c0.1-1.4,0-2.8-0.3-4.2c-0.1-0.5-0.1-1,0.4-1.2
		s0.7,0.3,0.9,0.7c0.7,1,1.2,2.1,2,3.1c0.4,0.6,0.9,1.4,1.9,0.9s0.6-1.2,0.5-1.9c-0.3-1.7-0.7-3.4-1.1-5.1c-0.1-0.5-0.2-1,0.3-1.3
		s0.9,0.1,1.2,0.4c0.6,0.7,1.4,1.2,2.3,1.6c0.7,0.3,1.4,0.1,1.9-0.4c0.5-0.6,0.2-1.2-0.1-1.8c-0.3-0.6-0.7-1.1-1.1-1.6
		c-2.5-3.1-4.4-6.5-5.7-10.3c-0.6-1.1-0.8-2.3-0.6-3.6c0.3-0.7,1-0.7,1.6-0.9c2.6-0.8,3.5-1.9,3.6-4.7c0-2.6-0.3-5.2-0.7-7.7
		c-0.7-6-1.8-11.9-2.6-17.9c-0.3-2.2,0-2.5,2.2-2.8c2-0.3,4.1-0.4,6.1-0.7c5.7-0.9,11.5-1.6,17.3-1.9c10.9-0.6,21.8-0.3,32.6-1.2
		c2.2-0.2,2.6,0.2,3.4,2.3c3.2,9.2,6.6,18.4,7.6,28.3c0.3,4.4,0.3,8.9-0.2,13.3c-1.2,5.5-2.1,11.1-2.7,16.8c0,0.2,0,0.3,0,0.5
		c-0.1,0.5-0.2,1-0.2,1.5c-0.1,0.4,0,0.8,0.1,1.1c-0.2,0.4-0.3,0.7-0.3,1.1c-0.2,3-0.5,5.9-0.9,8.9c-0.7,6.1-1.6,12.1-2.3,18.2
		c-1,8.8-2.2,17.5-3.7,26.3c-3.2,19.1-7.8,37.9-11.4,56.9c-1.4,7.5-3.8,14.8-5.4,22.3c-1.9,9.2-4,18.3-5.2,27.6
		c-0.1,1.1,0.3,2.6-1.3,3.2c-0.3,0.6-0.9,0.9-1.6,0.8c-3.3,0.1-6.6,0.3-9.9,0.2c-1.4-0.1-2.8-0.3-3.5-1.8c-0.8-1.3-1.2-2.8-1.2-4.3
		c0.1-3.4,0.5-6.7,0.8-10.1c0.2-4,0.7-8,1.4-12c1.7-9.2,2.9-18.4,3.6-27.7c0.6-6.8,1.3-13.7,2-20.5s1.6-13.5,2.2-20.3
		c0.8-7.8,1.1-15.6,1.1-23.4c0-5.9,0.2-11.8,0-17.7c-0.3-8.4-0.5-16.8-0.7-25.2c0-1.1,0.1-2.1,0.2-3.1c0.1-2,0.1-4-0.1-6
		c-1.4,2.8-2.6,5.7-3.5,8.7c-2.2,7.4-4,14.9-5.3,22.4c-1.8,9.9-3.4,19.9-5.1,29.8c-1.9,11.5-3.6,23-6.4,34.4
		c-4.1,16.4-9.2,32.6-13.3,49c-1.7,6.7-3.7,13.3-5.8,19.8c-0.9,2.9-1.1,6.2-4,8.1c-4.9,0.3-9.8,0.3-14.2-2.5
		C40.7,393,39.8,391.7,40,390z"/>
	<path class="st44" d="M48.8,207.6c0,0,1.8,94.8-4.9,124.2c-6.7,29.3-8.1,63.2-8.1,63.2s54.8,12.1,68.4,8.3s14-46.5,20.3-84
		c6.3-37.6,15.3-91.6,8.2-113.9c-7-22.3-84.5-4.5-84.5-4.5L48.8,207.6z"/>
	<path id="Path_171" class="st44" d="M54.9,73.5c-0.2,1.4,0.4,2.7,1.6,3.5c2.6,2,5.1,4.1,7.8,6c3.7,2.7,6.4,6.2,9.3,9.7
		c2.5,3.1,4.5,6.5,7.6,9.1c0.6,0.6,1,1.3,1.4,2c0.6,1.2,2,1.7,3.2,1.2c0.3-0.1,0.5-0.3,0.8-0.6c2.8-2.4,5.2-5.3,8.2-7.6
		c2.4-1.8,4.7-3.6,6.2-6.1c2.2-3.7,4.5-7.1,8.2-9.6c1.4-0.9,2.5-2.2,3.3-3.6c0.8-1.5,2.4-1.4,3.7-1.5c1.3-0.1,2.5-0.5,3.5-1.2
		c-0.4-1.8-1.5-3.3-3-4.4c-2.8-2.2-5.1-5-7.7-7.3c-0.8-0.7-0.8-1.2,0.1-1.7c2.1-1.3,4.3-2.7,6.3-4.1c4.7-3.2,8-7.3,9-13
		c0.4-2.4-0.3-4.8-0.9-7.1c-2.2-8.7-5.5-17-9.7-24.9c-2.7-5-6.5-9.1-12.3-10.3C97,1.1,92.4,0,87.7,0.2c-1.5,0.1-2.9,0-4.4-0.2
		c-2.6-0.2-5.3,0.4-7.6,1.7C70.5,4.6,67,8.8,64.1,13.9c-2.1,3.7-4.5,7.4-6.4,11.3c-1.5,3-1.8,6.3-2.2,9.5c-0.6,4.1-1.2,8.3,0.1,12.4
		c1.1,3.3,2.8,6.3,5.1,8.9c0.6,0.8,0.8,1.8,0.4,2.7c-0.9,4.7-2.7,9.2-5.4,13.2C55.4,72.4,55.1,73,54.9,73.5z"/>
	<path id="Path_172" class="st41" d="M55.3,397c-1.7-0.7-3.5-0.3-5.3-0.5c-2.9-0.3-5.7-0.5-8.2-2.1c-0.1-0.1-0.4,0.1-0.7,0.1
		c-2.4,6.5-4.2,13.4-5.6,20.2c1.1,0.1,0.4,0.7,0.5,1.2c0,3.6,0.2,7.3,0.7,10.9c0.1,0.7,0.3,1.4,0.5,2.3c0.8-2.2,1.5-4.2,2.3-6.1
		c0.9-2.2,2.2-2.8,4.7-2.4c1.9,0.3,2.7,1.1,3,3.5c0.1,2.4,0.4,4.9,0.7,7.3c1.9-4,3.3-8.2,4.1-12.5c0.6-3.8,0.9-7.6,2.2-11.3
		C54.3,404,54.7,400.5,55.3,397z"/>
	<path id="Path_173" class="st41" d="M104.5,395.8c-4.4,0.7-8.8,0.8-13.3,0.2c-0.7-0.2-1.3-0.5-1.9-1c-1.1,5.6-1.8,11.3-2.4,17
		c0.6,2.5,1.3,4.9,1.9,7.5c1.1,4.8,3.8,8.8,6.2,13.1c0-0.9,0-1.8,0.1-2.7c0-0.6,0.1-1.2,0.2-1.7c0.9-3,3.7-2,5.7-2.6
		c1.4-0.4,2.2,0.7,2.6,2c0.2,0.7,0.4,1.3,0.7,2.4c0.7-3.7,0.2-7.1,0.3-10.4c0-0.7-0.3-1.4,0.3-2c0.1-4.8-0.6-9.5-0.7-14.3
		C104.4,400.8,104.5,398.3,104.5,395.8z"/>
	<path id="Path_174" class="st41" d="M142.9,211.8c-0.2-1-0.9-0.6-1.5-0.5c-1.4,0.3-2.8,0.9-4.2,0.2c-1.2,5.5-2,11.2-2.6,16.8
		c-0.1,0.8-0.8,2.3,1,2.4c1.7-1.2,1.8-3.3,2.6-5C140.3,221.3,141.9,216.6,142.9,211.8z"/>
	<path id="Path_175" class="st41" d="M67,206c-1.4-1.2-3-0.3-4.4-0.2c-3.5,0.3-6.9,1.4-10.5,1.6c-1.2,0.1-1.6,0.6-1.5,1.8
		c0.1,1.5,0.1,3,0.1,4.5c0.4,4.5,1.2,8.9,2.2,13.3c0.3,1.3,0.5,3.1,2.3,3s1.8-1.9,1.9-3.2s0.2-2.5,0.4-4.3c0.8,2.2,1.4,3.9,2.1,5.6
		c0.4,1.1,0.9,2.2,1.4,3.2c0.5,0.9,1.2,1.7,2.4,1.4c1.1-0.3,1.7-1.4,1.5-2.5c0.1-1.8,0-3.6-0.3-5.5c0.9,1.4,1.7,2.8,2.6,4.1
		c0.5,0.9,1.3,1.6,2.3,1.1s1-1.4,0.8-2.4c-0.5-2.1-0.9-4.2-1.4-6.4c0.8,0.2,1.1,0.8,1.6,1.2c1.6,1.4,3.4,1.9,4.2,0.9
		c1.3-1.5,0.1-2.8-0.8-3.9c-3.1-3.7-5.3-8-6.7-12.6C67,206.6,67,206.3,67,206z"/>
	<path id="Path_176" class="st41" d="M109.1,34.7c-0.6-4.3-1.6-8.6-3-12.7c-1.1-3.6-2.2-7.3-3.3-10.9c-0.5-1.6-1.2-3.1-2.1-4.4
		c-1.1-1.6-2.9-1-4.3-0.8c-6,1.1-11.5,4.5-15.1,9.5c-2.9,3.7-5.5,7.6-7.9,11.6c-5,8.9-3.7,21.5,6,28.1c2.6,1.8,5.2,3.6,7.8,5.5
		c4.3,3,8.6,2.7,11.7-1.5c4.3-6,8-12.5,9.8-19.9C108.9,37.7,109.1,36.2,109.1,34.7L109.1,34.7z"/>
	<path id="Path_177" class="st45" d="M92.6,52.5c0.7-0.1,1.3-0.3,1.9-0.5c0.8-0.3,2-0.4,2.1-1.5c0.1-0.8-2.3-2.1-3.1-2.2
		c-1.7-0.2-3.4,0.1-5,0.8c-0.7,0.3-0.8,0.5-0.4,1.1C89.2,51.7,90.9,52.5,92.6,52.5L92.6,52.5z"/>
	<path id="Path_178" class="st46" d="M92.7,44.7c2-1.1,3.1-3.3,2.3-5c-1.1-2.2-2-4.5-2.4-6.9c-0.1-0.4-0.1-0.9-0.6-0.8
		c-0.6,0.1-0.4,0.6-0.4,1c0,1.8,0.4,3.5,1.2,5.1c1,1.9,1,4.1,0,6C92.6,44.2,92.5,44.4,92.7,44.7z"/>
	<path id="Path_179" class="st47" d="M78.1,22.5c3.3-0.2,6.6-0.8,10.1,0.1C86.9,20.2,81.9,20.2,78.1,22.5z"/>
	<path id="Path_180" class="st48" d="M104.8,25.7c-1.2-1.6-2.9-2.7-4.9-2.9c-0.6-0.1-1.4-0.1-1.5,0.7c-0.1,0.9,0.8,0.6,1.3,0.7
		L104.8,25.7z"/>
	<path id="Path_181" class="st49" d="M97.8,33.9c0,0.5,0.5,1,1,1c0.1,0,0.1,0,0.2,0c0.6,0,1-0.5,1-1.1s-0.5-1-1.1-1h-0.1
		C98.2,32.8,97.8,33.2,97.8,33.9C97.8,33.7,97.8,33.8,97.8,33.9L97.8,33.9z"/>
	<path id="Path_182" class="st50" d="M82,33.9c0.6,0,1-0.4,1-1c0-0.1,0-0.1,0-0.2c0-0.6-0.5-1.1-1.1-1.1s-1.1,0.5-1.1,1.1
		C80.8,33.4,81.3,33.9,82,33.9C81.9,33.9,82,33.9,82,33.9z"/>
	<g>
		<path class="st51" d="M143.2,211.1c-0.2,0.1-0.2,0.4-0.3,0.6c-1.1,0-2.2,0.1-3.2,0.4c-0.9,0.1-1.8,0.2-2.5-0.7
			c0.8-1.7,0-3.5,0.3-5.2c0.7-4.6-0.1-9.2-0.9-13.7c-1.2-6.2-3.2-12.3-5.3-18.3c-0.4-1.3-0.9-2.6-1.4-3.9c-0.1-0.3-0.2-0.6-0.3-0.9
			c-0.3-1-0.8-1.4-1.9-1.3c-2,0.2-4.1,0.4-6.1,0.5c-10.1,0.5-20.1,0.3-30.2,1.1c-7.2,0.6-14.3,2-21.5,2.4c-1,0.1-1,0.7-0.9,1.4
			c0,0.3,0.1,0.5,0.1,0.8c0.2,1.3,0.4,2.6,0.5,4c0.3,2.6,0.7,5.1,1.1,7.7c0.9,4.7,1.5,9.4,1.7,14.2c0.1,3-1.3,4.6-4.2,5.1
			c-0.6,0.1-1.2,0-1.3,0.8c-0.7,0.1-1.4,0.1-1.9,0.1c-3.9,0.2-7.7,1.2-11.6,1.7c-2,0.3-2.1,0.4-2.2,2.4c0,1.1,0.5,2.4-0.4,3.5
			c-0.7-1.6-0.3-3.3-0.4-5c-0.1-1.1-0.5-1.5-1.5-1.3c-1.7-0.3-3-1.6-3.2-3.3c-1.1-4.6-1.3-9.3-1.8-14c-0.4-3.6-0.6-7.2-1.1-10.8
			c-0.9-5.8-1.2-11.7-1.7-17.6c-0.4-4.1-0.5-8.3-1.7-12.3c-0.7-2.4-1.3-4.8-1.6-7.2c-0.7-5.5-1.9-11-2.8-16.5
			c-1.2-6.7-1.9-13.5-2.1-20.3C32.8,99.4,35,93.6,39,89.1c5-5.7,10.3-10.9,16-15.7c0.7,1,0.8,2.3,1.9,3.1c2,1.4,3.6,3.1,5.6,4.5
			c1.8,1.2,3.6,2.6,5.2,4.1c5.4,5.3,9.1,11.9,14.5,17.2c0.2,0.2,0.4,0.4,0.5,0.7c1.4,1.9,2.2,2.1,4,0.6c2.7-2.3,5-5.1,7.9-7.2
			c3.5-2.4,6.3-5.6,8.3-9.4c0.8-1.6,2-3,3.5-4.1c2.4-1.7,4.6-3.7,6.3-6.1c0.2-0.3,0.5-0.6,0.9-0.7c2-0.6,4.2-0.8,6.2-1.4
			c5.9,2.9,11.7,6.1,17.3,9.6c1.8,1,2.8,2.9,2.6,5c-0.7,4.8-1.4,9.6-1.9,14.5c-0.4,4.2-1,8.3-1.2,12.5c-0.2,5,0.2,10,1.1,15
			c1.6,9.6,3.5,19.2,5,28.9c1.1,7.5,2.1,15,2.6,22.6l0.3,11.3c0,3.3-0.2,6.7-0.2,10.1C145.3,206.6,146.1,209.5,143.2,211.1z"/>
		<path class="st52" d="M131.3,174.3c-27,1.7-57.3,3.7-61.6,4c-0.2-1.3-0.4-2.6-0.5-4c3-0.2,33.4-2.2,60.8-3.9
			C130.4,171.6,130.9,172.9,131.3,174.3z"/>
	</g>
	<path class="st41" d="M86.9,412c0,0,2.5,20.4,10.1,24s9.4-10.9,7.9-20.2s-7-10.1-7-10.1L86.9,412z"/>
</g>
<g>
	<path class="st53" d="M450.4,48.1c-1.2-2-15.8-2.3-13.8,17.1s-5.5,20.3-5.5,20.3S471.5,81.2,450.4,48.1z"/>
	<path class="st53" d="M486.5,63.5c0,0,11.8-5.5,11.9-16.5s3.1-20.9-1.9-25.6S473.3,8,461.3,18.6c-12.1,10.7-13.2,8.8-12.5,16.4
		c0.8,7.6-0.4,12.9-0.2,18.6c0.2,5.8,1.6,4.5,4,11.4s8.8,8.4,8.8,8.4L486.5,63.5z"/>
	<path id="Path_183" class="st54" d="M506.7,293v1.1c-0.3,1.5-0.4,3-0.3,4.5c0.2,10.1-1.2,20.2-2.5,30.2c-2,15-4.2,30-5.7,45
		c-0.6,5.5-1.1,11-1.6,16.5c0,1.3-0.4,2.5-1.2,3.5c-0.7,0.4-1.5,0.4-2.2,0.1c-13.1-3.8-26.5-6.1-39.8-9c-3.3-0.7-6.6-1.4-9.9-2.2
		c-0.7-0.8-0.5-1.7-0.2-2.5c4.3-14.9,6.6-30.2,10.2-45.2c2.8-11.7,6.3-23.1,9.5-34.7c0.4-1.5,0.3-3.1-0.3-4.5
		c-2.5-5.6-4.6-11.4-7.3-16.9c-6.1-12.1-12.8-24.1-19.2-36.1c-1.3-2.3-2.8-4.5-4.1-6.8l-0.1-0.2c-0.2-0.3-0.4-0.7-0.6-1
		s-0.4-0.6-0.6-0.4l0,0c0.1-0.6-0.1-1.2-0.5-1.7c-0.3-0.4-0.7-0.8-1.1-1.1c-0.6-1.6-1.3-3.2-2.1-4.7c-1.6-3.5-3.3-6.9-3.5-10.8
		c-0.3-4.8,0.8-9.5,3.1-13.7c1.1-0.6,1.7,0.3,2.1,1c2.7,4.6,6.1,8.7,8.6,13.4c1.5,2.7,3.3,5.3,5.2,7.8c1.3,1.8,2.2,1.9,3.5,0.1
		c2.4-3.2,4.5-6.6,6.7-10c0.6-1,0.7-2.3,0.3-3.5c-0.2-0.7-0.7-1.6,0.4-2.1c1.3-0.1,2.6,0,3.9,0.4c8.6,1.8,17.2,3.1,25.9,3.8
		c0.7,0,1.3,0.3,1.9,0.7c0.4,0.4,0.7,0.9,0.8,1.5c3.4,11.4,7.5,22.7,10.4,34.3c0.3,1.3,0.6,2.6,0.9,3.8c1.3,7.5,3.9,14.7,5.9,22
		c1.5,5.4,3.3,10.8,3.5,16.5C506.4,292.3,506.5,292.7,506.7,293z"/>
	<path id="Path_185" class="st55" d="M411.3,169.7c0.1,0,0.2,0,0.3,0c1.1,1.5,1.1,3.5,0,4.9h-0.3V169.7z"/>
	<path id="Path_187" class="st56" d="M423.7,118.8c-1.2-0.5-1.4-1.3-1.1-2.5c0.4-1.9,1.1-3.6,2.1-5.3c0.5-0.9,1.2-1.8,1.9-2.5
		c0.7-1.1,1.4-2.3,1.9-3.6l2.1-3.8c0.3-0.9,1.2-1.5,2.2-1.5c3.1-0.3,6.2,0.6,8.7,2.4c8.2,5.3,17.3,9.1,25,15.3
		c1,0.7,2.3,1.1,3.5,1.1c6.6,0.8,13.1,2.2,19.8,2.6c1.9,0.1,3.7,0.3,5.6,0.5c1.1,0,2.1,0.4,2.9,1c1.9,1.4,1.8,3.6,1.8,5.5
		c0,6.5-0.5,13-3.6,19c-2.3,4.9-3.7,10.3-4.1,15.7c-1,9.5-2.1,19.1-1.9,28.7c0.1,6.1,0.8,12.3,0.8,18.4c0.1,1.4-0.4,2.9-1.3,4
		c-1.3,1.6-2.9,1.8-5.3,0.4c-3.8-0.5-7.7-1-11.5-1.4c-5.9-0.5-11.6-1.9-17.3-2.9c-1-0.2-2.1-0.4-3.1-0.6c-1.2,0.6-1.8-0.3-2.3-1.1
		c-0.8-1.2-1.4-2.4-1.9-3.7c-3.8-10.4-8.3-20.5-11.8-31c-0.5-1.1-0.8-2.4-0.8-3.6c1.4-6.3,3.3-12.5,4.5-18.8
		c0.2-0.8,0.3-1.6,0.4-2.4c0.3-0.7,0.4-1.5,0.3-2.3c0.1-3.2,1.6-5.9,2.9-8.7c0.6-1.2,1.1-2.5,1.6-3.8c0.7-2,0.4-2.8-1.4-3.9
		c-6-3.9-12.2-7.2-18.8-9.9C424.8,119.8,424.2,119.4,423.7,118.8z"/>
	<path id="Path_188" class="st57" d="M423.7,386.9c0.9-0.7,2.4,0.3,2.9-0.7c0.4-0.8,0.1-2,0.2-3c1.8-16.6,2.1-33.3,2.3-50
		c0.2-14.4,0.6-28.8,1.2-43.1c0.6-15.3,0.6-30.5,0.2-45.8c-0.1-3.2-0.3-6.4-0.3-9.6l0.2-2.5c2.2,3.7,4.4,6.9,6.2,10.3
		c4,7.3,8.3,14.5,12,22c4.6,9.1,9.9,17.8,13.1,27.5c0.3,0.9,0.6,1.8,1.1,2.6c1.7,2.4,1.2,4.7,0.5,7.3c-2.7,9.3-5.3,18.6-7.8,27.9
		c-1.9,7.1-3.3,14.4-4.8,21.6c-2,9.5-3.8,19-6.5,28.3c-0.3,0.9-0.4,1.9-0.6,2.7c-2.8,0.5-4.3,2.6-5.7,4.8c-0.8,0.7-1.9,1-3,0.8
		c-3-0.3-6-0.4-9-0.4C425,387.7,424.2,387.5,423.7,386.9L423.7,386.9z"/>
	<path id="Path_189" class="st58" d="M436.6,170c1.1,4.5,3,8.7,4.5,13c2.2,6.3,4.9,12.4,7.4,18.5c0.8,1.9,1.4,4,2.3,5.9
		c0.5,0.9,0.9,1.8,2.1,1.9c1.5,2.9,0.7,5.3-1.2,7.8s-3.5,5.3-5.4,8c-1.5,2.2-2.8,2.2-4.4,0c-4.9-6.9-9-14.3-13.8-21.3
		c-0.4-0.6-0.5-1.3-1.3-1.6c-1-3-3-5.3-4.7-7.9c-3.2-4.7-6.1-9.6-8.8-14.7c-0.7-1.6-1.3-3.3-1.6-5c0-1.6,0-3.3,0-4.9
		c1.9-12.4,5-24.4,8.1-36.5c1.2-4.8,2.4-9.6,3.9-14.3c3.6,0.8,6.8,2.6,10,4.3c3.9,2,7.6,4.4,11.4,6.5c1.4,0.6,2.1,2.2,1.5,3.7v0.1
		c-0.4,1.3-0.9,2.5-1.4,3.7c-1.4,3-3,5.9-3.4,9.3c-0.2,0.5-0.3,1-0.4,1.5c-1.9,5.5-3.7,10.9-5.7,16.3c-0.4,1.1-0.4,2.3,0.2,3.3
		C436.4,168.2,436.6,169.1,436.6,170z"/>
	<path id="Path_190" class="st59" d="M437.7,386.5c0.4-0.3,0.3-0.8,0.5-1.2c0.6-2.2,2.9-3.5,5.2-3c3.8-0.2,7.4,1.2,11,1.9
		c10.4,2.1,20.8,4.4,31.1,6.7c3.2,0.7,6.4,1.7,9.6,2.6l1.5,0.4c1.7,0.4,2.2,1.2,1.6,2.8c-1.8,4.7-4.6,8.9-8.4,12.3
		c-1.4,1.3-3.2,2-5.1,1.9c-3.3-0.2-6.6-0.3-9.9-0.5c-6.7,0.6-13.1-1.8-19.6-2.5c-2.8-0.7-5.6-1.2-8.4-1.9c-2.3-0.5-4.6-1.4-6.7-2.5
		c-3.2-1.7-4.5-4.4-4.3-7.9c0.1-2.4,0.7-4.8,0.9-7.3C436.9,387.8,437.2,387.1,437.7,386.5z"/>
	<path id="Path_191" class="st58" d="M484.8,214.2c1.7-0.3,3.6,1,5.3-0.4c1.9,9.2,3.8,18.4,5.1,27.7c0.6,4,1.4,8,1.3,12.1
		c-3.2-12.9-7.6-25.5-11.5-38.2C485,214.9,484.9,214.5,484.8,214.2L484.8,214.2z"/>
	<path id="Path_192" class="st60" d="M442.6,469.6h-1.9c-1.2-0.1-2.4-0.2-3.5-0.3c-1.6-0.1-2.9-1.5-2.9-3.1
		c-0.2-2.1-0.2-4.2-0.4-6.3c-0.1-1.2,0.1-1.9,1.3-2.2c0.4-0.5,1.1-0.7,1.7-0.5c4.4,0.4,8.7-0.1,13.1,0.4c2.6,0.3,5.2-0.6,7.8-0.8
		c0.6,0,1.2-0.1,1.7-0.4c-0.9-0.9-1.9-1.7-2.9-2.5c-4.7-4.1-8.9-8.7-12.4-13.8c-1.6-1.9-1.7-4.6-0.2-6.6c0.9-1.3,1.4-2.8,2.2-4.1
		c0.6-1.3,1.9-2,3.2-1.9c1.2,0.3,2.2,1,2.9,1.9c2.9,2.9,5.4,6.2,8.4,9.1c3.3,3.3,7,6.3,10.6,9.3c0.5,0.4,1.1,0.8,1.7,1.2
		c2.6,1.6,2.6,1.6,4-1.1c0.3-0.7,0.8-1.3,1.6-1.5c2.6-1.7,4.1-1.3,5.7,1.3c1.2,2,2.7,3.8,4.4,5.4c2.3,2.3,4.3,4.8,5.9,7.6
		c0.4,0.7,0.7,1.4,0.9,2.1c0.7,2.7-0.5,4.3-3.3,4.4c-1.9,0-3.9,0-5.8-0.1c-8.6-0.4-17.2,0.8-25.7,1.6c-5.1,0.5-10.1,0.7-15.2,1.1
		L442.6,469.6z"/>
	<path id="Path_193" class="st61" d="M437.7,386.5c-0.4,3.8-1.6,7.5-1.2,11.5c0.3,2.4,1.6,3.8,3.5,5c4.1,2.5,8.7,2.9,13.3,3.9
		c0.7,0,1.3,0.3,1.8,0.9c0.7,2.4,0.1,5-1.7,6.8c-1.6,0.6-3.1-0.1-4.7-0.1h-8.4c-0.9,0.1-1.9-0.1-2.6-0.7c-4.7-0.1-9.4,0.4-14.1-0.7
		c-2.3-0.6-3.6-1.7-4.1-4c-1.1-5.9-1.8-11.8-2.2-17.7c-0.3-1.7,0.8-3.3,2.5-3.6l0,0c1.2-0.5,2.5-0.7,3.8-0.8
		c3.8,0.1,7.6-0.2,11.4,0.4C436,387.4,437,387.2,437.7,386.5L437.7,386.5z"/>
	<path id="Path_194" class="st62" d="M437.7,413.7c5.3,0,10.6-0.2,15.9,0.3c0.4,0.5,0.5,1.3,0.3,1.9c-0.9,3.7-2.4,7.2-3.7,10.8
		c-0.1,0.4-0.4,0.6-0.7,0.8c-1.3-0.1-2.5,0.6-3,1.9c-0.9,1.7-1.9,3.4-2.7,5.1c-0.7,1.4-0.5,3,0.4,4.3c3.5,5.1,7.6,9.7,12.1,13.8
		c0.2,0.2,0.4,0.5,0.6,0.7c0.5,1.3,2.1,2.1,1.6,3.7c-3.5,0.9-7.2,1.2-10.8,0.9c-2.4-0.2-4.8-0.2-7.1,0c-1.8,0-3.6-0.2-5.4-0.4
		c0.9-5.4,3-10.5,3.8-15.9c0.8-6.1,0.9-12.3,0.1-18.4C438.7,420,438.1,416.9,437.7,413.7z"/>
	<path id="Path_195" class="st58" d="M461.5,73.5c-0.4-5.1-0.6-10.3-1.4-15.4c0-1.3-1-2.3-2.2-2.6c-3.5-1-5.4-3.4-5.2-6.3
		c0-1.7,1.3-3,2.9-3.1c0.4,0,0.8,0.1,1.1,0.2c2.3,0.6,3,0.2,3.3-2.2c0.2-1.8,0.3-3.6,0.5-5.4c0.5-3.8,2.2-7.4,4.9-10.2
		c3.5-3.7,7.2-7.1,11.8-9.5c1-0.6,2.3-0.4,3.1,0.3c1.4,1,2.6,2.3,3.4,3.7c5,8,7,17.5,5.7,26.8c-1,8.2-2.9,16-7.2,23.1
		c-0.8,1.4-1.7,2.7-3.4,3.1c-0.9,0.2-1.7,0.5-2.4,0.9c-1.7,0.9-3.6,0.5-5.3,0.2C467.7,76.5,464.2,75.9,461.5,73.5z"/>
	<path id="Path_196" class="st58" d="M461.5,73.5c2.3,0.5,4.3,1.8,6.6,2.4c3.2,0.8,6.4,1.6,9.7,0.3c0.4-0.1,0.7-0.1,1.1,0
		c-1.8,0.5-2.4,1.8-2.6,3.5c-0.9,6.5-1.7,13.1,2.4,18.8c2.5,3.6,5.4,7,8.5,10.1c1.5,1.5,2.8,3.2,4.8,4.1c2.6,2.9,5.3,5.9,6.4,9.8
		c-4.8-0.5-9.6-0.9-14.4-1.5c-5.4-0.7-10.8-1.5-16.2-2.3c-0.4-0.1-0.8-0.3-1.2-0.5c-5.8-4.8-12.4-8.1-18.8-11.7
		c-1.8-1-3.6-2.1-5.3-3.3c-3-2.1-6.4-2.8-9.8-3.7c3-1.4,6.2-2.1,9.4-2.1c9.7-0.4,18.2-10,18.9-19.8
		C461.2,76.2,461.4,74.8,461.5,73.5z"/>
	<path id="Path_197" class="st58" d="M449.4,427.6c0.6-3.4,2.2-6.5,3.2-9.7c0.4-1.3,0.6-2.5,0.9-3.8c0.8-2,1.3-4.2,1.6-6.3
		c0.2-0.3,0.6-0.4,1-0.4c6.1,1.4,12.3,2.4,18.5,3.2c-0.8-0.1-1.5,0.4-1.7,1.1c-2,5.1-3.5,10.4-4.3,15.8c-0.2,2.4,0.3,4.8,1.4,6.9
		c2.1,4.4,4.9,8.4,8.3,11.8c-1,1.4-1.7,3.1-2,4.8c-4.5-1.4-7.5-4.8-11-7.5c-4.9-3.9-8.9-8.8-13.1-13.5
		C451.5,429,450.5,428.2,449.4,427.6z"/>
	<path id="Path_198" class="st63" d="M441.6,148.6c-0.1-0.4,0-0.8-0.4-1.1c0.1-0.5,0.3-0.9,0.6-1.2
		C442,147.1,441.9,147.9,441.6,148.6L441.6,148.6z"/>
	<path id="Path_199" class="st64" d="M458.5,457c-0.5-1.3-1.7-2.2-1.6-3.7l3.9,3.1C460.1,457,459.3,457.2,458.5,457z"/>
	<path id="Path_200" class="st65" d="M477.3,67c-1.9-0.2-3.7-1-5.1-2.3c-0.3-0.3-0.8-0.5-0.7-1c0.1-0.4,0.6-0.3,0.9-0.5
		c2.6-1.3,5.1,0,7.6,0.1c1,0.1,1.8,0.9,1.9,1.9c0.1,0.9-1,1-1.7,1.3C479.4,66.9,478.3,67.1,477.3,67L477.3,67z"/>
	<path id="Path_201" class="st66" d="M478.4,44.8c0.8,3.3,2,6.5,3,9.8c0.6,1.9-0.8,3.6-3.1,4.7c-0.3-0.7,0.3-1,0.6-1.4
		c1.3-1.7,1.4-4,0.3-5.8C477.8,49.8,478,47.3,478.4,44.8z"/>
	<path id="Path_202" class="st67" d="M469.1,33.5h1.4c0.7,0,1.4,0.3,1.4,0.9s-0.9,0.4-1.3,0.4c-1.9,0.1-3.7,0.4-5.5,0.9
		c-0.4,0.1-1,0.7-1.3-0.1s0.3-1,0.9-1.3C466.1,33.9,467.6,33.6,469.1,33.5z"/>
	<path id="Path_203" class="st68" d="M488.2,39c-2.3-1.2-4.3-2.4-6.7-2.8C483.3,34.5,487.3,36.1,488.2,39z"/>
	<path id="Path_204" class="st69" d="M470.3,44c-0.1,0.7-0.4,1.2-1.2,1.1c-0.6,0-1.1-0.5-1.1-1.1c0-0.1,0-0.1,0-0.2
		c0-0.6,0.5-1,1.1-1l0,0c0.6-0.1,1.1,0.3,1.2,0.9C470.3,43.8,470.3,43.9,470.3,44L470.3,44z"/>
	<path id="Path_205" class="st70" d="M484.2,46.8c-0.7-0.1-1.2-0.4-1.2-1.2c0-0.6,0.4-1.1,1-1.1c0.1,0,0.1,0,0.2,0
		c0.6,0,1,0.4,1.1,1v0.1c0.1,0.6-0.3,1.1-0.9,1.2C484.3,46.8,484.2,46.8,484.2,46.8L484.2,46.8z"/>
	<path class="st56" d="M452.4,93.4c0,0,15.6,24.8,40.9,20.7c0,0,6.6,7.6,6.7,11.2c0.1,3.5-16.7,7.9-18,7.4s-31.8-19.4-32.1-19.6
		c-0.4-0.2-18.1-13.2-18.1-13.2S437.4,94.6,452.4,93.4z"/>
</g>
<g>
	<g id="cPWrMh" transform="translate(377.571 13.012)">
		<path class="st5" d="M-199.4,60.6l-4.2-2.4c0.2-0.3,0.7-0.1,1,0.2c0.9,0.8,2,1.3,3,2.1C-199.5,60.5-199.5,60.6-199.4,60.6z"/>
		<path id="Path_210" class="st71" d="M-182,459.3V459c0.6-0.6,1.6-0.7,2.2-0.1l0,0c0,0.1,0,0.2,0,0.4H-182z"/>
		<g>
			<path class="st72" d="M-232.1,122.3v0.7C-232.1,122.8-232.1,122.5-232.1,122.3z"/>
			<path class="st8" d="M-200.1,239.6c-0.7,1.7-2.4,1.3-3.9,1.5c-0.1,0.8,0.5,1.2,0.8,1.8c0.3,0.7,0.2,1.5-0.3,2
				c-0.5,0.6-1.4,0.7-2,0.3c-1.7-0.8-3.1-2.1-5.5-2.8l2.8,5c0.6,1.1,1.2,2.2,0.5,3.4c-0.6,0.9-1.4,0.6-2.2,0.5
				c-2.1-0.9-3.1-3-4.7-4.4c0.2,1.4,1.6,2.9,0.5,4.5c-1.6,1.2-3-0.2-4.5-0.4c0.9,0,1-0.2,0.3-0.9c-2.6-2.7-5-5.7-7-8.8
				c-2-3.4-3.3-7.2-3.7-11.1c-1.1-7.1-2.7-14.1-4.8-21c-0.2-0.5-0.3-1-0.4-1.5c0,0-3.8-10.8-6.2-22.4c-0.4-2-0.8-4.1-1.1-6.2
				c-0.1-0.4-0.1-0.9-0.2-1.3c-1.7-12.2-3.6-24.3-4-36.6c-0.1-4.4-1.1-8.8-1.9-13.1c-0.2-1.1-0.4-2.3-0.4-3.4
				c-0.1-3.2-0.4-6.3-0.9-9.4c-0.6-6.2,0-3.7,3.5-3c1.8,0.4,3.6,0.5,5.4,0.7l0.6-1l1.4-1.7l6.4,1.7c0,0,0,6.3,0,9.6v0.4
				c-0.1,0.2-0.1,0.3-0.1,0.5c0,0.3,0.1,0.7,0.1,1c0.1,1.8,0.2,3.6,0.2,5.5c0.1,4.5,0.2,8.9,1.2,13.3c0.2,1,0.2,1.9,0.2,2.9
				c0.2,4.2,0.7,8.3,1.5,12.4l0,0c0.3,1,0.5,2,0.6,3.1c0.5,2.1,0.4,4.4,1.2,6.5c1.4,8.4,3.1,17.1,5.2,24.7v0.1
				c0.5,2.5,1.1,5,1.6,7.4c0.5,2.5,1,4.8,1.5,6.8c1.6,6.2,3.9,12.3,7.7,17.7c2.8,3.9,5.7,7.7,8.9,11.3l0.1,0.1
				C-200.9,236.7-199.4,237.9-200.1,239.6z"/>
			<path class="st8" d="M-195,239.6c0.8,1.7,2.7,1.3,4.4,1.5c0.1,0.8-0.6,1.2-0.9,1.8c-0.3,0.7-0.2,1.5,0.3,2
				c0.6,0.6,1.6,0.7,2.2,0.3c1.9-0.8,3.5-2.1,6.2-2.8l-3.1,5c-0.7,1.1-1.3,2.2-0.6,3.4c0.7,0.9,1.6,0.6,2.5,0.5
				c2.4-0.9,3.5-3,5.3-4.4c-0.2,1.4-1.8,2.9-0.6,4.5c1.8,1.2,3.4-0.2,5-0.4c-1,0-1.1-0.2-0.3-0.9c2.9-2.7,5.6-5.7,7.9-8.8
				c2.2-3.4,3.7-7.2,4.1-11.1c1.2-7.1,3-14.1,5.4-21c0.2-0.5,0.3-1,0.4-1.5c0,0,4.2-10.8,7-22.4c0.5-2,0.9-4.1,1.3-6.2
				c0.1-0.4,0.1-0.9,0.2-1.3c1.9-12.2,4.1-24.3,4.5-36.6c0.1-4.4,1.2-8.8,2.1-13.1c0.2-1.1,0.4-2.3,0.4-3.4c0.1-3.2,0.4-6.3,1-9.4
				c0.7-6.2,0-3.7-3.9-3c-2,0.4-4,0.5-6,0.7l-0.6-1l-1.6-1.7l-7.2,1.7c0,0,0,6.3,0,9.6v0.4c0.1,0.2,0.2,0.3,0.1,0.5
				c0,0.3-0.1,0.7-0.1,1c-0.2,1.8-0.2,3.6-0.3,5.5c-0.1,4.5-0.2,8.9-1.3,13.3c-0.2,1-0.2,1.9-0.2,2.9c-0.2,4.2-0.8,8.3-1.7,12.4l0,0
				c-0.3,1-0.5,2-0.6,3.1c-0.5,2.1-0.5,4.4-1.3,6.5c-1.6,8.4-3.5,17.1-5.9,24.7v0.1c-0.6,2.5-1.2,5-1.7,7.4
				c-0.6,2.5-1.2,4.8-1.7,6.8c-1.8,6.2-4.3,12.3-8.7,17.7c-3.1,3.9-6.4,7.7-10,11.3l-0.1,0.1C-194.1,236.7-195.8,237.9-195,239.6z"
				/>
			<path class="st8" d="M-231.7,122.1v1.6l0,0c0-0.3,0-0.7-0.1-1C-231.9,122.4-231.8,122.2-231.7,122.1z"/>
			<path class="st72" d="M-138.7,113.4c-0.3,2.5-0.3,4.9-0.2,7.4c0.1,1.9,0.1,3.9-1.1,5.6c-0.9,0.8-2.1,0.6-3.1,0.3
				c-5.2-1.3-10.7-1.1-15.7-3.2c-0.8-0.3-1.3,0-1.5,0.8c-0.1,0.2-0.1,0.5-0.2,0.7c-0.7,6-2.2,11.9-2.6,18c-0.2,2.7-0.6,5.4-1.2,8
				c-0.4,2-0.5,5.6-1.6,7.3c-1,1.5-4.2,2.5-5.8,3.2c-2.2,0.9-4.4,1.7-6.7,2.5c-3.7,1.3-8.1,3.9-12,3.1c-9.7-1.9-19.2-4.6-28.9-6.2
				c-2.4-0.5-4.7-1.1-7-1.9c-1-0.2-1.9-0.8-2.5-1.7c-0.7-2.2-1.2-4.5-1.3-6.8c-0.3-5-0.9-9.9-1.6-14.8c-0.6-4.2,0-8.5-0.4-12.7v-0.7
				l0,0l0.6-17l12.6-2.2c0,0,7,4.9,7.5,5s5.2-0.4,5.2-0.4s0.2,0.1,0.4,0.2c0.1-2.6,0.9-5.3,2.1-7.5c1.9-3.8,3.8-7.6,5.5-11.5
				c1.6-3.5,2.2-7.4,1.9-11.2c0.4-0.4,0.9-0.6,1.5-0.5c5.3,0.5,10.2-1,15-2.9c0.8-0.4,1.8-1.1,2.8-0.3c3.1,4.4,7.4,7.8,12.4,9.7
				c4.5,1.8,8.9,3.9,13.5,5.5c1.5,0.6,3.2,0.9,4.8,0.9c1.4,0,2.3-0.6,2.5-2.1c2.2,2.9,3.6,6.2,4.2,9.7c0.6,2.8,1,5.7,1.2,8.6
				C-138.3,108.6-138.4,111-138.7,113.4z"/>
			<path id="Path_216" class="st72" d="M-236.5,96.3c2.7-7.7,3.6-15.4-0.4-23c-1.3,1.4-2.7,2.6-4.4,3.5c-2.7,1.9-5.2,4-6.1,7.4
				c-0.5,1.7-0.7,3.6-1.2,5.3c-2.1,6.9-3.8,14-5,21.2c0,0.1,0,0.2,0,0.3c0.1,0.1,0.2,0.1,0.3,0.1c2,0.3,3.9,0.7,5.8,1.3
				c1.8,0.7,3.7,1,5.7,1c1.2,0.1,2.4,0.5,3.5-0.2c-0.6-2-0.9-4.1-0.9-6.2C-238.7,103.4-237.8,99.8-236.5,96.3L-236.5,96.3z"/>
			<path class="st72" d="M-236.9,73.3c0,0,12.3-3.7,19.3-3s11.9,4.8,21.3,7.3s1.5,33,1.5,33s-37.3,3.3-43.5,2.6s-5.6-11-5.6-11
				L-236.9,73.3z"/>
		</g>
		<path class="st5" d="M-195.2,63.1c-1.3,0-2.5-0.7-3.3-1.7c-0.3-0.3-0.6-0.5-0.9-0.8L-195.2,63.1z"/>
		<path id="Path_214" class="st73" d="M-164.8,227.4c1.6,7.8,3.4,15.6,4,23.6c0.2,1.3,0.5,2.6,0.9,3.9c0.4,1.5,1.3,1.9,2.7,1.3
			l9.2-3.7c-4.4,15.6-8.6,31.3-10.6,47.4c-1.1,7.4-0.9,14.9,0.7,22.3c0.9,3.7,0.2,7.5,0.4,11.3c0.3,7.9-0.2,15.9-1.4,23.8
			c-2,12.7-4.1,25.4-5.5,38.2c-0.8,7.1-1.1,14.1-1.5,21.2c-0.2,3.5-0.6,7-1.3,10.5c-0.7,2.5-1.6,5-2.7,7.5c-0.6,1.4-0.9,2.9-1.4,4.3
			c-0.1,0.4-0.3,0.9-0.8,0.9s-0.6-0.6-0.7-0.9c-0.2-1.3-0.5-2.5-0.7-3.7c0-1.2-1-2.2-2.2-2.1l0,0c-0.7-0.1-1.4-0.2-2.2-0.2
			c-1.4-0.2-2.7,0.5-3.2,1.9c-0.5,1.3-1.1,2.6-1.7,3.8c-0.3,0.6-0.4,1.5-1.3,1.3s-0.9-1.1-0.9-1.9c0.1-2.2,0-4.4,0.3-6.5
			c0.3-2.5,0.3-5.1,0.4-7.6c3.5-9,4.8-18.6,3.9-28.2c-0.4-4.1-0.5-8.2-0.7-12.4c-0.2-6.3-1-12.6-1.6-18.9c-0.1-1.6-0.4-3.1-0.4-4.7
			c-0.4-11.3-1.9-22.5-2.8-33.8c-0.5-6.9-0.5-13.8-0.2-20.7c0.5-13.1,0-26.2-1.6-39.3c-0.6-4.3-1.6-8.6-2.8-12.8
			c1.8,0.3,3.6,0.6,5.4,0.9c2.8,0.6,5.6,0.8,8.5,0.8c0.8,0,1.6,0,2.4,0.2c2.6,0.6,3,0.4,3.2-2.3c0.6-8.5,3.1-16.6,5.4-24.8
			C-165.3,227.5-165.3,227.2-164.8,227.4z"/>
		<path id="Path_217" class="st74" d="M-184.1,423.7c0.7,1.2,0.5,2.6,0.4,3.9c-0.2,3.4-0.4,6.9-0.6,10.3c0,0.6,0.2,1.3,0.6,1.8
			c0.8-2,1.7-3.7,2.4-5.6c0.4-1.3,1.7-2.2,3.1-2c1.1,0.1,2.2,0.1,3.3,0.3c1.2,0.1,2.2,1.1,2.2,2.3c0.2,1.6,0.4,3.2,0.8,4.7
			c1.3-4.3,2.9-8.4,4.9-12.4c0.3,3.4-0.5,6.6-1.1,9.9c-1.1,5.2-2.6,10.2-4.4,15.2c-1.2,3.5-3.3,6-7.1,6.8l-2.2,0.1
			c-4.1-0.7-7.1-4.8-6.5-9.5c0.3-2.9,0.1-5.8,0.1-8.7c0.1-5.5,2.1-10.6,3.4-15.8C-184.9,424.5-185,423.7-184.1,423.7z"/>
		<path id="Path_218" class="st73" d="M-203.6,251.2c3.1-0.3,6.3,0,9.2,1c-2.4,9.1-4.1,18.5-5,27.9c-0.5,6.2-1,12.3,0,18.5
			c0.5,2.7,0.1,5.6,0.3,8.4c0.6,7.9,1.4,15.9,2,23.8c0.5,7-0.1,14.1-0.7,21.1c-0.8,7.5-1.2,15-1.1,22.5c0.1,5.8-0.2,11.5,0.5,17.3
			c0.6,4.5,1.5,9,1.4,13.6c-0.1,5.8,1.5,11.5,1.1,17.4c-1.5,4-3.5,7.7-5.9,11.2c-0.2,0.4-0.5,0.7-0.7,1c-0.3,0.3-0.7,0.8-1.2,0.6
			s-0.5-0.7-0.6-1.1c-0.7-2.9-1.9-3.9-4.8-4.3c-0.9-0.1-1.9-0.2-2.9-0.3c-0.6-0.1-1.3-0.1-1-1.1c2.6-9.5,2.6-19,1.4-28.7
			c-1.1-9.3-4.9-17.7-7.3-26.6c-2.5-9.3-4.5-18.7-6.1-28.2c-1.6-8.6-2.6-17.4-2.9-26.1c-0.1-5.4-0.1-10.8-0.3-16.2
			c-0.2-6.3-1.3-12.4-3.1-18.4c-1.1-3.7-1.3-7.6-1.9-11.5c-1.1-7.7-1.9-15.5-2.3-23.4c5.7,0.7,11.4,0.1,17,1.6
			c1.5-0.1,3.1,0.6,4.7,0c1-0.2,2.1-0.2,3.1-0.1C-208.4,251.2-206,251.2-203.6,251.2L-203.6,251.2z"/>
		<path id="Path_219" class="st74" d="M-213.1,428.7c0.1,0.8,0.7,0.7,1.2,0.7c1.3,0,2.6,0.1,3.9,0.4c2.7,0.7,4.3,2.3,4.2,5.4
			c2.1-2.5,3.9-5.2,5.3-8.1c0.5-1,0.9-2.1,1.3-3.2c0.2-0.6,0.4-1.3,1.2-1.4c1.1,1.7,0.2,3.4,0.1,5.1c-0.2,3.7-2,6.8-3.9,9.9
			c-2.4,3.9-4.6,8-6.5,12.2c-2,4.4-5.8,7.8-10.5,9.1c-4.5,1.4-8.4-2.6-7.2-7.3c1.3-5,3.6-9.7,6.5-13.9c0.8-1.1,1.4-2.4,1.7-3.7
			C-215.3,431.9-214.4,430.1-213.1,428.7L-213.1,428.7z"/>
		<path id="Path_227" class="st75" d="M-164.8,227.4l-0.6,0.4c-0.1-0.5,0.1-0.9,0.5-1.2L-164.8,227.4z"/>
		<g>
			<path id="Path_224" class="st41" d="M-197.8,62.7c-1.4-0.8-2.8-1.9-4-2.9c-3.1-2.6-2.5-0.1-6.7-10.5c-2-5.4-1-5.2-1.4-7.7
				c-1.9-10.5,2.9-19.3,8.7-27.7c1-1.3,2-2.8,2.9-4.1c1.5-2.9,4.1-4.6,6.4-6.6c0.4-0.5,1.1-0.6,1.7-0.2c0,0,0,0,0,0.1
				c2.9,1.7,5.5,3.4,8.2,5.3c5.9,4.4,9.2,11.4,8.8,18.6c-0.2,6.5,0.3,13.2-0.7,19.5c-0.4,2.5-1.7,4.3-1.7,6.9
				c-0.7,1.9-3.7,3.1-5.2,4.3c-3.1,3.1-7,5.3-11.3,6.3C-194.1,64.3-196.2,63.8-197.8,62.7z"/>
			<path id="Path_231" class="st76" d="M-197.5,50.8l0.4,0.1c0.7,0.2,1-0.5,1.7-0.7c2.2-0.8,4.2,0.7,6.4,0.3c0.2,0.2,0,0.3-0.1,0.4
				c-1.6,1.9-4.2,3.9-7,4c-1.4-0.1-2.6-0.5-3.6-1.3c-0.3-0.3-0.7-0.5-1-0.8c-0.3-0.4-1-0.7-1-1.3c0.6-0.1,1.2-0.3,1.8-0.5
				c0.2-0.1,0.5-0.3,0.7-0.3C-198.6,50.5-197.9,50.6-197.5,50.8L-197.5,50.8z"/>
			<path id="Path_232" class="st77" d="M-194.4,45.5c-0.2-0.1-0.3-0.2-0.6-0.3s-0.8-0.4-1-0.6c-0.7-0.5-1.2-1.1-1.4-2
				c-0.3-1.4,0-2.8,0.9-3.9c0.8-1.2,1.4-2.7,1.9-4.1c0.2-0.7,0.6-1.4,0.8-2.1c0.1-0.3,0.2-0.7,0.2-1.2c0.1-0.2,0.3-0.9,0.1-1
				c0.3,0.6,0.4,1.3,0.4,1.9c-0.2,2-0.8,3.8-1.8,5.5c-0.4,0.6-0.7,1.1-1,1.8c-0.1,0.4-0.3,0.8-0.5,1.1c-0.3,0.5-0.5,0.9-0.5,1.5
				c0.1,0.6,0.3,1.2,0.8,1.6c0.6,0.6,2.2,0.9,2.2,2c0,0.1,0,0.1-0.1,0.2C-194.2,45.6-194.3,45.5-194.4,45.5z"/>
			<path id="Path_233" class="st78" d="M-178.7,21.8c-1.5-0.8-2.9-1.5-4.2-2c-0.9-0.4-1.8-0.3-2.6-0.6c-0.5-0.1-1.3,0.4-1.4-0.4
				c-0.1-0.8,0.8-0.8,1.3-0.9C-182.7,17.4-179.7,19-178.7,21.8z"/>
			<path id="Path_234" class="st79" d="M-205.1,21.3c1.1-2.1,5.5-4.2,7.3-3.8c0.4,0,0.8,0.3,0.9,0.8c0.1,0.3-0.1,0.5-0.3,0.6h-0.1
				C-200.1,19.4-202.6,20.2-205.1,21.3L-205.1,21.3z"/>
			<path id="Path_235" class="st80" d="M-202.4,30.7c-0.2-1,0.1-1.9,1.1-2c0.7-0.2,1.4,0.2,1.6,1c0,0.1,0,0.1,0,0.2
				c0.3,1-0.2,2-1,2.3c0,0,0,0-0.1,0C-201.8,32.4-202.4,31.7-202.4,30.7z"/>
			<path id="Path_236" class="st81" d="M-181.5,30.2c0.1,0.9,0.1,1.7-0.8,1.9c-0.7,0.2-1.5-0.3-1.6-1.1c0-0.1,0-0.2-0.1-0.3
				c-0.1-0.9-0.1-2,1-2.1S-181.7,29.3-181.5,30.2z"/>
		</g>
		<path class="st72" d="M-223.9,70.5c0,0-17.2-1-23.5,13.7c-5.9,13.7-6.2,26.8-6.2,26.8l26.1-14.4L-223.9,70.5z"/>
		<path class="st5" d="M-176.9,73.8c0,0-4.4,17.4-11.2,25.9s-7.4,18.6-9.2,16.3s-2.5-14.7-8.6-21.3c-6.1-6.6-5.7-8.9-6.7-15.2
			c-1.1-6.3,9-21.3,9-21.3l4.2,2.4c0.3,0.3,0.6,0.5,0.9,0.8c0.8,1.1,2,1.7,3.3,1.7c0.1,0,0.1,0,0.2,0c3.9,0.2,7.6-1.4,10.9-3.2
			c1.7-0.9,3.4-2.1,5.1-3.2c-0.5,4.7,2.1,9.5,2.1,14.1C-176.8,72-177.6,72.9-176.9,73.8z"/>
		<path class="st72" d="M-141.5,91.8c0,0-4.3-14-35.4-18v23.8l15.7,10.5L-141.5,91.8z"/>
	</g>
	<path class="st72" d="M147.5,163.5c0,0,1.5,9.4,2.5,34.6c1.1,25.8-9.3,33.6-13.6,52.1c-1.5,4.5-1.9,13.6-2,18.6
		c0,2.1,1.5,3.8,3.5,4c14.8,1.4,71.4,5.8,94.9-7.9c0.8-0.3,1.5-0.7,2.3-1.1c1.9-1,3-3,2.9-5.1c-0.8-13.2-4.3-61.6-12.6-77.6
		c-9.7-18.7-11.5-22.6-9.6-34.6s2.6-24.9,2.6-24.9L147.5,163.5z"/>
	<path class="st82" d="M167.4,48.3c0,0,12.4-5.2,15.9-21.6s19.1,8.1,17.9,14s7.5,20.3-5.3,30.8l4.6,15.5l15.2,3.1
		c0,0-1.8-51.8-7.5-60.2c-5.7-8.5-10.5-18.3-26.5-16.9s-21.4,20.5-21.9,44.4c-0.6,5.8-4.2,7.2-5.6,13.3c-1.4,6.1,4,21.4,7.4,28
		c3.4,6.7,3.8,18.4,2.5,21.5s5-1.8,5.3-19.7c0.3-17.8,10.8-18.7,8.1-24.2c-2.8-5.5-6.9-9.3-8.1-16C168.1,53.6,167.4,48.3,167.4,48.3
		z"/>
</g>
<g id="OpDz6l" transform="translate(469.287 13.597)">
	<path id="Path_115" class="st83" d="M-136.3,78.1c-1.5-2.1-0.4-4.3-0.3-6.4c0.3-2.3,1.1-4.5,2.4-6.5c1.9-3.4,2.5-7.3,1.9-11.1
		c-0.8-4.1,0.1-8.4,2.4-11.9c3.8-5.7,5-12.1,6.2-18.7c1.1-6,3.7-11.6,7.6-16.3c3.2-3.9,7.8-5.7,12.8-6.4c0.8-0.1,1.5-0.3,2.3-0.4
		c1.4-0.4,3,0.2,4.4-0.3h0.7c0.1,0.1,0.1,0.2,0.2,0.3c8.3,0.9,13.8,6,17.9,12.8c2,3.3,4.3,6.4,5.6,10c1.5,4.2,1.3,8.6,1.6,13
		c0.2,5.8,3,11.1,7.6,14.5c3.8,2.9,6.3,6.2,6.8,10.9c0.7,3.9-0.4,7.7-1.2,11.4c-0.3,1-1.2,1.7-2.2,1.7c-0.8,0.1-1.6,0.1-2.3,0.1
		c-2.1-0.2-3.9,0.2-5.2,2.1c-0.7,0.8-1.7,1.3-2.7,1.2c-1.7,0.1-3.5,0-5.2-0.3c-1.1-0.2-2.3-0.3-3.4-0.1c-3.5,0.3-4.6-0.6-5.2-4
		c-0.2-1-0.2-1.9-0.2-2.9c-0.3-3.6-0.4-7.1-1.6-10.6c-0.5-1.5-1.2-3.2-0.6-4.9c0-0.8,0.2-1.7,0.6-2.4c2.9-5.6,2.9-11.9,4.2-17.8
		c1-4.6-0.7-8.1-3.8-11.2c-3.8-3.9-8.1-7.2-12.7-10c-1.8-1.1-3.3-2.5-4.4-4.2c-0.5-0.7-0.9-1.1-1.6-0.2c-4.2,5.4-8.5,10.7-11.4,16.9
		c-0.6,1.3-1.1,2.7-1.4,4.1c-0.4,2.4-0.4,4.8,0,7.2c0.2,1.5,0.7,3,0.9,4.6c0.6,4.1,2.7,7.9,5.8,10.6c1.5,1.3,2.8,2.8,3.8,4.6
		c1.1,1.9,1.8,4.1,2,6.3c0.3,3.2,1.5,6.2,1.4,9.4c0,1.7-0.2,3.5-0.7,5.1c-0.1,0.6-0.3,1.2-0.6,1.7c-1.2,2.9-2.1,3-5.2,2.2
		c-2.7-0.7-5.7-0.6-8.3,0.3c-2.9,1.1-4.8,0.3-6.6-2s-2.6-2.2-4.7-0.4c-0.8,0.8-2,1-3,0.6C-133.4,79.9-134.9,79.1-136.3,78.1
		L-136.3,78.1z"/>
	<path id="Path_117" class="st84" d="M-56.1,157.3c-3.8,0.3-7.6,0.9-11.5,1c-8.2,0.3-16.4-0.8-24.6-0.7c-10.2,0.1-20.3,0.6-30.5,0.4
		c-0.6-0.7-0.3-1.5-0.2-2.2c0.8-5,1.2-10,1.2-15c0.1-2.8-0.1-5.6-0.6-8.3c-0.5-4.3-1.2-8.6-1.9-12.9c-0.4-2.2-0.5-2.3-2.7-2.2
		c-3.9,0.1-7.8-0.2-11.7-0.9c-1.4-0.9-3-0.7-4.5-1c-1.8-0.4-2.4-1.1-2.1-2.9c1.2-7.9,2.4-15.9,3.1-23.8c0.3-2.4,1-4.7,2.1-6.9
		c0.8-1.6,2.1-2.9,3.7-3.7c1.5,0,2.7,1,3.9,1.7c1.2,0.9,3,0.6,3.8-0.6l0.1-0.1c0.9-1.2,2.7-1.5,3.6-0.3c2.3,3.4,5.1,4.5,9,2.7
		c1.7-0.8,3.7,0.2,5.6-0.4c0.6-0.2,1.1,0.2,1.7,0.5c1.9,1.1,3,0.7,3.9-1.2c0.4-0.8,0.6-1.6,0.9-2.4c0.4-0.5,0.9-0.8,1.5-0.8
		c5.9-1.4,11.6-3.5,17-6.2c0.6-0.3,1.2-0.8,2-0.5c0,1,0.1,2,0.3,3.1c0.7,3.1,1.2,3.8,4.2,3.4c2.7-0.4,5.2,0.6,7.8,0.5
		c2-0.1,3.5-0.3,4.6-2.2c0.5-0.9,1.5-1.4,2.5-1.2c1.3,0.1,2.7,0,4,0.1c1.5,0,2.2-0.7,2.5-2.2c0.7-3.5,0.9-7,1.4-10.5
		c3.4,0.7,6.7,1.8,9.9,3.3c2.1,1,3.7,2.7,4.8,4.7c3.5,6.7,6.4,13.7,8.7,20.9c0.6,1.8,1.3,3.5,2,5.2c0.9,2.3,0.8,2.8-1.5,3.8
		c-0.3,0.1-0.7,0.3-1,0.4c-2,1.5-4.5,1.9-6.8,2.6c-3.6,1.1-7.4,1.5-11.1,2.4c-3.2,0.7-3.3,0.8-3.2,4c0,2.5-0.7,5-0.4,7.5
		c-1,10.5-0.6,21-0.7,31.6c0,2,0.5,4,0.3,5.9C-55.3,155.1-55.3,156.3-56.1,157.3z"/>
	<path id="Path_118" class="st85" d="M-80.4,430.7c0-4.6-0.3-9.2-1.1-13.7c-0.3-0.7-0.5-1.3-0.7-2c-0.7-6.2-1.5-12.5-2.1-18.7
		c-0.2-1.5-0.9-3-0.4-4.6c-0.3-3.8-1.3-7.6-1.6-11.4c-0.5-5.3-0.6-10.5-1.3-15.8c-0.3-2.3-0.5-4.5-0.7-6.8c-0.7-6.3-1.6-12.7-1.9-19
		s-0.4-12.7-0.8-19.1c-0.4-7.5-0.9-14.9-1.1-22.4c-0.3-11.8,0.1-23.6,1.2-35.4c0-1.3,0.2-2.5,0.6-3.7l-0.1-1.5
		c-1.5,0.1-3,0.3-4.5,0.2c-4.9,0-9.8-0.2-14.7-0.3c-2.4-0.1-4.8,0-7.2-0.3c-4.7-0.5-9.2-1.5-13.9-1.6c0.6,0.4,1,1,1.2,1.7
		c0.7,3.8,1.5,7.6,2.3,11.4c2.4,10.4,5.5,20.7,7.3,31.2c2.4,13.9,5.4,27.8,8.2,41.6c1.3,6.7,2.8,13.4,3.7,20.1
		c1.1,7.7,2.5,15.4,3.9,23c0.5,2.6,1.6,5.2,1.6,7.9c0,1,0.2,1.9,0.5,2.8c0.8,2.9,1.9,5.7,2.2,8.7c0.8,8.2,1.5,16.4,1.5,24.6
		c0.5,2.2,0.1,4.4,0.5,6.6c-0.1,1.8-0.3,3.6-0.7,5.4c-0.2,2.2-0.3,4.4-0.1,6.7c0.1,2.6,1.1,3.6,3.7,3.9c1.3,0.1,2.5,0,3.8,0.2
		c2.7,0.5,5.3-0.2,7.8-0.8c1.5-0.3,2.6-1.5,2.7-3c0.2-1.7,0.3-3.3,0.4-5C-80,438-80.7,434.4-80.4,430.7z"/>
	<path id="Path_119" class="st86" d="M-36.4,303.7c-1.3-7.5-2-15.1-3.1-22.6c-0.7-5-1.5-10.1-2-15.1c-0.5-4.8-2.3-9.5-2.4-14.4
		c-1.2,0.3-2.3,0.6-3.5,0.9c-11.4,2.5-22.9,3.2-34.6,3.2c-0.5,0-1.1-0.1-1.7-0.1l0.5,1.1c1.2,0.7,1.6,2.1,1.9,3.7
		c0.1,0.3,0.2,0.7,0.4,1c2.7,6.6,5,13.3,6.9,20.1c0.9,3.5,2.1,6.9,3.2,10.3c2.3,6.9,5.2,13.6,7.5,20.5c1.7,5.2,1.6,5.1-1.8,9.5
		c-5.7,7.3-10.2,15.3-14.9,23.3c-3.3,5.5-5.1,11.7-7.8,17.4c-0.4,0.5-0.5,1.2-0.3,1.9c0,1.6,0.2,3.2,0.3,4.8
		c0.2,5.5,0.7,11,1.5,16.4c0.4,2,0.2,4.1,1.4,5.9c1.8-2.9,3.8-5.7,6-8.3c4.5-5.3,9.3-10.4,13.3-16.1c3.9-5.5,7.9-11,11.7-16.7
		c5.1-7.8,10.5-15.3,14.2-24C-36.4,319.1-35,311.6-36.4,303.7z"/>
	<path id="Path_120" class="st85" d="M-55.4,116c-0.3-3.3,0.7-6.5,0.4-9.9c-0.1-1.1,0.8-1.1,1.4-1.3c3.7-1.2,7.5-1.5,11.3-2.4
		c3-0.7,5.9-1.9,9-2.7c-0.5,1.9,0.3,3.7,0.4,5.6c0.3,3,0.6,6,0.7,9c0.1,6.1,1.1,12,1.4,18.1c0.3,8.2,0.8,16.4,0.1,24.7
		c-0.9,10.3-3.7,20.1-5.7,30.2c-1.1,6-2,12-3.4,18c-0.1,0.4-0.3,0.8-0.4,1.2c-1.6-5.8-3.3-11.7-4.8-17.5c-1.6-6.6-4-12.9-6-19.4
		c0.7-5.2,1.1-10.5,1.6-15.8c0.9-9-0.9-17.7-2.9-26.4c-1-4.4-2.2-8.9-2.5-13.4C-54.9,114.7-54.2,115.7-55.4,116z"/>
	<path id="Path_121" class="st87" d="M-98.5,439.8c0.7,1.4,0.3,2.9,0.3,4.4c0.1,5.4,0.3,5.6,5.7,5.7c2,0.1,4,0.1,6,0
		c4.6-0.6,5.6-1.4,5.6-6c0.2-3.2,0.1-6.5-0.3-9.7c-0.3-1.2-0.2-2.4,0.3-3.5c2-2.1,4.2-4.1,6.5-5.8c0.9-0.2,1.8,0.3,2.3,1.1
		c3.8,4.6,5.1,10,4.9,15.8c-0.1,1.6-1.7,2.6-3.9,2.3c-2.4-0.3-4.9-0.7-7.3-1.2c-1.3-0.3-1.6,0-1.5,1.2c0.1,1.7,0.4,3.5,0.4,5.2
		c0.1,1.4-0.3,2.9-1,4.1c-2.1,3.8-4.7,7.3-7.8,10.3c-1.7,1.6-2.6,1.6-4.7,0.4c-4.8-2.8-6.8-7.2-7.3-12.5c-0.4-3.5-0.1-7,0.8-10.3
		C-99.2,440.7-98.9,440.2-98.5,439.8L-98.5,439.8z"/>
	<path id="Path_122" class="st86" d="M-102.4,391.7c1.3,2.9,2.3,6,2.9,9.2c0.9,4,0.8,8.2,1.2,12.3c0.5,4.9,0.7,9.8,0.6,14.7
		c-0.9,0-1.1-0.8-1.4-1.4c-2.9-4.5-5-9.5-8-14c-0.6-0.9-1-2-1.1-3.1c-0.5-4,0.2-8,1.8-11.6L-102.4,391.7z"/>
	<path id="Path_123" class="st87" d="M-106.4,397.8c-0.5,2.3-1.1,4.7-1.4,7c-0.5,3.2,0.3,6.5,2.1,9.2c2.9,4.5,5,9.4,7.9,13.9
		c0.6,2.1,0.6,4.4,0,6.5c-3-5-5.9-10-8.9-15c-1.6-2.4-3-4.9-4.2-7.5C-113.3,405.7-112,402.5-106.4,397.8z"/>
	<path id="Path_124" class="st86" d="M-74.2,425c-1.9,2.2-4.1,4.2-6.5,5.8c-0.3-4.6-0.9-9.1-0.8-13.7
		C-79.6,420.2-76.9,422.5-74.2,425z"/>
	<path id="Path_125" class="st88" d="M-137.5,117.9c0.6,0.7,0.6,1.8,0,2.5V117.9z"/>
	<path id="Path_126" class="st88" d="M-139.3,159.8c-0.1,0.6,0.3,1.3-0.3,1.8C-139.6,161-139.9,160.3-139.3,159.8z"/>
	<path id="Path_127" class="st88" d="M-139.7,162.3c-0.1,0.6,0.2,1.3-0.4,1.9C-140,163.6-140.3,162.9-139.7,162.3z"/>
	<path id="Path_128" class="st85" d="M-115.5,26c1.9-4.1,4.3-8,7.1-11.6c1.5-1.9,3-3.7,4.4-5.7c0.7-1,1.2-1.3,1.9,0
		c1.4,2.4,3.5,3.8,5.7,5.3c5.1,3.4,10,7.1,13.8,11.9c2.3,3,2.3,6.3,1.7,9.8s-1.2,7.2-1.8,10.8c-0.4,2.3-1.5,4.3-2.4,6.4
		c-0.3,0.7-0.5,1.4-0.5,2.1c-0.4,0.9-1.1,1.6-2,2c-1.6,0.8-3.2,1.7-4.7,2.7c-2.7,1.9-5.6,1.5-8.4,0.8c-2.2-0.5-4.3-1.7-5.8-3.4
		c-2-2.2-4-4.4-6.1-6.6c-1.3-1.3-2.2-3-2.6-4.8c-1.1-4.5-2.5-8.9-2.1-13.6c0-0.7,0.1-1.4,0.4-2.1C-116.2,28.8-115.7,27.4-115.5,26
		L-115.5,26z"/>
	<path id="Path_129" class="st89" d="M-106.4,57.1c1.2,0.5,2.4,1.1,3.4,1.9c2.2,1.4,4.7,1.3,7.1,1.6c1.4,0.2,2.6-0.8,3.7-1.5
		c2.2-1.4,4.7-2.4,6.7-4.2c-0.6,2,0.2,3.7,0.8,5.5c0.9,3.3,1.4,6.6,1.4,10c-6.5,3.4-13.4,5.9-20.5,7.5c0.9-3.2,0.9-6.7,0.1-9.9
		C-104.6,64.4-104.7,60.6-106.4,57.1z"/>
	<path id="Path_130" class="st35" d="M-115.5,26c0.3,1.5-0.3,3-1.4,4C-116.7,28.6-116.2,27.2-115.5,26z"/>
	<path id="Path_131" class="st88" d="M-124.6,160.9c-0.6,0.4-1.3,0.6-1.6-0.3c-0.4-1.1,0.1-2.3,1.1-2.8c0.7-0.4,1.5-0.5,1.8,0.7
		L-124.6,160.9z"/>
	<path id="Path_132" class="st90" d="M-138.6,219.2c0.1-1.1-0.3-2.3,0.3-3.3C-138.3,217-138.1,218.1-138.6,219.2z"/>
	<path id="Path_133" class="st90" d="M-138.2,214.2c0.1-1-0.4-2.1,0.3-3C-138,212.2-137.7,213.3-138.2,214.2z"/>
	<path id="Path_134" class="st90" d="M-137.8,209.8c0.1-1-0.3-2,0.3-3C-137.6,207.9-137.3,208.9-137.8,209.8z"/>
	<path id="Path_135" class="st88" d="M-130.2,174.3c-0.3-0.2-0.7-0.3-0.5-0.7s0.5-0.4,0.8,0C-129.9,173.9-130,174.2-130.2,174.3z"/>
	<path id="Path_136" class="st90" d="M-137.5,205.8c0.1-0.7-0.3-1.5,0.3-2.2C-137.1,204.4-137.2,205.1-137.5,205.8z"/>
	<path id="Path_137" class="st91" d="M-73.4,256.1h2.1C-72.2,257.1-72.9,256.4-73.4,256.1z"/>
	<path id="Path_138" class="st90" d="M-141.1,211c0-0.2,0.2-0.7,0.3-1.2c0.1-0.4,0.1-1,0.7-0.8c0.4,0.1,0.7,0.6,0.6,1
		c0,0.1-0.1,0.2-0.1,0.3c-0.5,0.5-0.6,1.2-0.4,1.9c0.1,0.4,0.1,0.9-0.4,1c-0.7,0.1-0.6-0.6-0.6-1
		C-141.2,211.8-141.1,211.6-141.1,211z"/>
	<path id="Path_139" class="st88" d="M-137.8,168.2c-1.1,0-2-0.5-2-1.4s0.9-1.1,1.7-1.1c0.9-0.1,1.7,0.5,1.8,1.3c0,0.1,0,0.1,0,0.2
		C-136.2,167.9-137.1,168.2-137.8,168.2z"/>
	<path id="Path_140" class="st85" d="M-121.3,140.7c0.2-2.8,0-5.6-0.6-8.3c-0.4-4.7-1.3-9.3-2-14c-0.2-1.2-0.7-1.5-1.9-1.5
		c-2.8,0.1-5.6,0-8.4-0.2c-4-0.5-4.1-0.8-3.2,3.1c0.8,3,0.5,6.2,0.2,9.3c-1,11.1-2,22.2-3,33.3c-0.9,10.9-0.7,21.7-3.6,32.3
		c-0.8,2.9-1.7,5.8-2.5,8.8c-2.1,7.9-3.1,16.2-3,24.4c0.1,7.4,4.5,12.4,8.4,18.3c0.3,0.6,0.9,1,1.6,1c0-3.4,0-6.8-0.1-10.1l0.1-5.3
		c0.1-0.9,0.2-1.8,0.1-2.6c0.2-3,0.3-6.1,0.5-9.1v-0.6c0.4-1.1-0.1-2.2,0.3-3.3c0-0.6,0.1-1.1,0.1-1.7c0.3-1-0.1-2,0.3-3l0.1-1.4
		c0.4-0.9-0.1-2,0.3-3l0.1-1c0.4-0.7,0-1.5,0.3-2.2c0-0.3,0.1-0.7,0.1-1c0.1-0.1,0.2-0.3,0.2-0.5c1.5-9.4,3-18.9,6.7-27.8
		c-0.1-0.3-0.1-0.6,0.3-0.7c0.8-1.5,1.4-3.1,1.8-4.7c0.6-1,1.1-2.1,1.4-3.3c0.8-1.5,1.9-2.9,2.1-4.7c-0.8-0.3-1.5-0.6-1.1-1.6
		s1.3-1.3,2.3-0.8l0.6-0.6C-121.9,152.2-120.9,146.5-121.3,140.7z"/>
	<path id="Path_141" class="st36" d="M-100,50.6c0.5,0.1,1,0,1.4-0.2c1.6-1.3,2.6,0.3,3.9,0.7c0.3,0.1,0.3,0.4,0.2,0.7
		c-1.2,2.6-5.2,3.6-7.3,1.8c-0.5-0.4-1.4-0.7-1-1.4c0.5-0.9,1.3-1.5,2.4-1.6C-100.3,50.5-100.2,50.6-100,50.6L-100,50.6z"/>
	<path id="Path_142" class="st92" d="M-98.6,46.4c-2.2,0-4.7-2.3-4.1-3.7c1.2-2.8,2-5.8,2.3-8.9c0.7,1.3,0.9,2.8,0.5,4.3
		C-100.4,40.9-101.5,43.8-98.6,46.4z"/>
	<path id="Path_143" class="st93" d="M-86.5,23.7c-2,0.4-3.7-0.4-5.4,0.1c-0.8,0.2-1.6,0.3-2.4,0.6c-0.3,0.1-0.6,0.3-0.8-0.1
		c-0.1-0.3,0-0.6,0.2-0.8c0.8-0.8,1.9-1.3,3.1-1.3C-90.1,22-88.1,21.8-86.5,23.7z"/>
	<path id="Path_144" class="st93" d="M-113.1,26.9c-0.2-0.3-0.3-0.7-0.1-1.1c0.8-1.5,4.9-3.1,6.5-2.7c0.4,0.1,0.8,0.3,0.8,0.8
		s-0.3,0.6-0.7,0.6C-108.8,24.8-111.1,25.6-113.1,26.9L-113.1,26.9z"/>
	<path id="Path_145" class="st94" d="M-107.9,35.4c-0.1,0.8-0.4,1.4-1.1,1.4c-0.9,0-1.3-0.7-1.4-1.5s0.2-1.3,1.1-1.3
		C-108.6,34-107.9,34.6-107.9,35.4z"/>
	<path id="Path_146" class="st95" d="M-89.1,33.5c0.1,0.7-0.3,1.3-1,1.4c-0.1,0-0.1,0-0.2,0c-0.6,0.1-1.2-0.3-1.4-0.9
		c0-0.1,0-0.2,0-0.4c-0.1-0.6,0.4-1.1,1-1.2c0.1,0,0.2,0,0.3,0C-89.8,32.3-89.2,32.8-89.1,33.5C-89.1,33.4-89.1,33.5-89.1,33.5
		L-89.1,33.5z"/>
	<path id="Path_116" class="st84" d="M-36.6,228.2c1,9.8,2.5,19.5,4.4,29.1c1.7,8.6,2.3,17.5,3,26.3c0.3,3.2-0.5,4.7-3.2,5.9
		s-5.5,1.7-8,3.4c-1,1.5-2.3,1.6-3.5,2.1c-5.7,1.8-11.4,3-17.2,3.6c-7,0.9-14,1.2-21.1,1c-0.6-0.1-1.2,0-1.8,0.3c-1,0.2-2,0.6-3,0.7
		c-4.1,0.8-8.2,1-12.3,0.6c-8.3-0.7-16.7,0-24.9-2.3c-2-0.5-4.1-0.4-6-1.5c-2-0.6-4.1-1-6-1.8c-2.4-1-3-2.8-2.7-6.2
		c0.2-1,0-2.1-0.3-3c-0.5-0.8-0.7-1.8-0.6-2.9c0-3.8-0.1-7.7,0-11.5c-0.1-2.6-0.1-5.2,0.1-7.8c0.2-0.9,0.3-1.8,0.3-2.8
		c-0.1-4.5,0.1-9.1,0.4-13.6c0-0.5,0.1-0.9,0.1-1.3c0.3-1.5,0.4-3.1,0.2-4.7c0-0.9,0-1.7,0.2-2.6c0.2-1.4,0.3-2.8,0.2-4.2
		c0-0.7,0-1.4,0.2-2.1c0.2-1.3,0.3-2.7,0.2-4c0-0.6,0.1-1.1,0.2-1.6c0.2-1,0.3-2.1,0.2-3.2c0-0.6,0.1-1.1,0.2-1.6
		c1.3-10.9,2.5-21.8,4.9-32.4c0.6-2.6,1.3-5.2,2.1-7.7c0.2-0.5,0.3-0.9,0.5-1.4c0.6-2.2,1.2-4.5,1.9-6.7c0.5-1.6,1-3.2,1.5-4.8
		c0.7-2.3,1.6-4.4,2.2-6.8c0.4-1.4,0.9-2.7,1.5-3.9c0.3-0.4,0.7-0.7,1.2-0.8c0.4-0.1,0.7-0.1,1.1-0.1c12.6,0.1,25.2-1,37.8-0.5
		c3.8,0.2,7.6,0.3,11.4,0.8c5,0.7,7.3-0.3,12.3-1.1c0.9-0.2,1.9-0.3,2.8-0.1c1.1,0.5,1.9,1.8,2.1,3.3c1.4,5,5.4,9.9,6.8,14.9
		c3,11.3,5.4,22.9,7.7,34.6c0.8,4.3,1.6,8.7,2.5,13C-36.8,224.5-36.6,226.4-36.6,228.2L-36.6,228.2z"/>
	<path class="st83" d="M-106.4,1.4c0,0-26.5,7.8-29.8,30.1c-3.2,22.3-3.1,43.2-0.1,46.7c2.9,3.5,17-36.7,17-36.7s20-15.6,24.9-32.1
		l2.7-6.2L-106.4,1.4z"/>
	<path class="st96" d="M-122,153.1c0,0,50.5,2.1,66.6-2.4c0,0,0.7-0.4,2.1,11.6c0,0-59.7,2.8-71.5,2.5
		C-124.8,164.8-123.4,154.9-122,153.1z"/>
</g>
</svg>
