<svg xmlns="http://www.w3.org/2000/svg" width="1546.129" height="836.879" viewBox="0 0 1546.129 836.879">
  <g id="Yellow_Section_BG" data-name="Yellow Section BG" transform="translate(0 -1001.788)">
    <g id="Layer_2" data-name="Layer 2" transform="translate(741 1002)">
      <g id="Layer_1" data-name="Layer 1">
        <path id="Path_516" data-name="Path 516" d="M168.367,394.489a41.633,41.633,0,0,1-4.377-.71,36.969,36.969,0,0,0,4.377.71Z" transform="translate(-0.118 -0.284)" fill="#fcb2b2"/>
        <path id="Path_517" data-name="Path 517" d="M155.328,391.069c-.919-.39-1.829-.779-2.728-1.209C153.5,390.29,154.409,390.7,155.328,391.069Z" transform="translate(-0.11 -0.281)" fill="#fcb2b2"/>
        <path id="Path_518" data-name="Path 518" d="M151.254,389.2a70.431,70.431,0,0,1-7.724-4.587,67.407,67.407,0,0,0,7.724,4.587Z" transform="translate(-0.103 -0.277)" fill="#fcb2b2"/>
        <path id="Path_519" data-name="Path 519" d="M143.525,384.606q-3.737-2.528-7.245-5.436A87.206,87.206,0,0,0,143.525,384.606Z" transform="translate(-0.098 -0.273)" fill="#fcb2b2"/>
        <path id="Path_520" data-name="Path 520" d="M78,56.27c.23.16.51.39.749.57h0c3,3.887,6.305,7.415,8.994,11.572a142.627,142.627,0,0,1,13.111,26.981c27.56,73.357,16.418,153.689,12.671,229.944-.45,9.213-1,18.637,1.769,27.57,2.3,7.355,6.995,13.25,12.551,18.487l1.579,1.5h0c2.738,1.249,5.566,2.308,8.444,3.378l-1.169-.56a37.024,37.024,0,0,1-4.087-7.385c-3.607-9.423-2.7-19.926-2.208-29.779,1-19.276,2.318-38.542,3.4-57.8,2.158-38.232,3.378-76.825-2.059-114.847-5-34.975-14.829-74.486-40.351-100.388q-2.578-2.618-5.3-5.146c-1.569-.759-3.158-1.5-4.727-2.248a27.1,27.1,0,0,0-2.588-1.409,3.047,3.047,0,0,0-.32-.22A2.434,2.434,0,0,1,78,56.27Z" transform="translate(-0.056 -0.041)" fill="#fcb2b2"/>
        <path id="Path_521" data-name="Path 521" d="M676.68,726.84a60.944,60.944,0,0,0,4.267,6.635q2.438,1.769,4.886,3.408c16.868,11.342,36.883,18.986,56.409,24.332a230.834,230.834,0,0,0,63.374,8.114,29.119,29.119,0,0,0-2-2.6,75.011,75.011,0,0,0-5.766-5.216c-2-1.679-6.276-6.336-9.053-6.305a228.337,228.337,0,0,1-73.6-11.372,220.361,220.361,0,0,1-33.976-14.36C679.688,728.659,678.189,727.729,676.68,726.84Z" transform="translate(-0.488 -0.524)" fill="#fcb2b2"/>
        <path id="Path_522" data-name="Path 522" d="M519,572.08a40.587,40.587,0,0,0,4.517,7.834h0a78.663,78.663,0,0,0,8.934,5.076c15.339,7.385,32.976,7.2,49.584,6.116,17.547-1.169,35.594-3.947,53.072-.669a63.268,63.268,0,0,1,12.511,3.667c1.359.57,2.638,1.259,3.927,1.929.24.13.48.26.729.38a34.645,34.645,0,0,0-4.127-6,1.489,1.489,0,0,0-.41-.36.445.445,0,0,0-.09-.2c-.04-.07-.26-.37-.39-.56.74.55,1.469,1.109,2.208,1.679-6.4-5-13.24-9.453-20.985-12.131A79.942,79.942,0,0,0,604.788,575c-17.657-.59-35.185,2.468-52.822,2.6-9.073.08-18.207-.63-26.981-3.268A59.343,59.343,0,0,1,519,572.08Z" transform="translate(-0.374 -0.412)" fill="#fcb2b2"/>
        <path id="Path_523" data-name="Path 523" d="M443,420.729c.919,1.729,3.258,3.248,4.737,4.567,2.878,2.548,6.995,7.185,10.8,8.164a90.073,90.073,0,0,1,15.159,5.256,81.646,81.646,0,0,1,7.8,4.1c.8.47,3.3,2.748,4.417,3.068-1-.37-2.458-2.5,0,0h0l.17.17a3.208,3.208,0,0,1,.25.27,23.812,23.812,0,0,0-3.647-4.207l-.42-.52-.14-.15a28.824,28.824,0,0,0-2.638-3.467c-11.082-8.364-23.243-15.119-36.873-18.577C441.44,419.14,442.81,420.419,443,420.729Z" transform="translate(-0.319 -0.302)" fill="#fcb2b2"/>
        <path id="Path_524" data-name="Path 524" d="M205.47,358.332c11.542-11.142,20.565-24.822,29.229-38.242.31-.47,18.127,12.151,16.848,14.13-7.345,11.372-15.8,23.823-25.771,34.455Z" transform="translate(-0.148 -0.231)" fill="#d87777"/>
        <path id="Path_525" data-name="Path 525" d="M218.056,376.212c-12.991,11.512-28.24,19.356-46.636,18.517-.52,0-1-.06-1.549-.1s-1-.09-1.529-.15l-1.109-.14q-1.109-.15-2.188-.36l-1.079-.22h-.18l-1-.24-.48-.12-1.109-.3-.31-.09c-.45-.12-.9-.26-1.339-.4s-.859-.28-1.279-.42l-.27-.1-1.059-.38-.33-.13-1.259-.5c-.919-.38-1.829-.779-2.728-1.209-.45-.21-.889-.43-1.339-.66a70.347,70.347,0,0,1-7.724-4.577c-.62-.42-1.239-.849-1.849-1.289q-1.849-1.319-3.627-2.728l-1.769-1.429-.15-.12c-.68-.56-1.349-1.129-2-1.7-1.579-1.359-3.128-2.758-4.647-4.167,2.738,1.239,5.566,2.3,8.444,3.368.5.22,1,.44,1.5.64l.24.1.19.06.789.31c.26.11.52.21.789.3l1.169.4c18.127,5.936,37.593-.54,52.512-11.322,1-.7,1.919-1.409,2.848-2.148Z" transform="translate(-0.093 -0.263)" fill="#d87777"/>
        <path id="Path_526" data-name="Path 526" d="M137.91,376.55q1.719.779,3.507,1.409c-1.059-.38-2.1-.819-3.128-1.279Z" transform="translate(-0.099 -0.271)" fill="#d87777"/>
        <path id="Path_527" data-name="Path 527" d="M57.42,39.29q-.26,3.278-.47,6.565A105.193,105.193,0,0,1,72.289,52.78c1.789,1,3.567,2,5.276,3.168l.4.31c.16.09.32.16.48.27a3.046,3.046,0,0,1,.32.22,27.1,27.1,0,0,1,2.588,1.409c1.569.749,3.158,1.489,4.727,2.248q-5.1-4.767-10.6-9.093c-.56-.46-1.129-.9-1.709-1.329l-.09-.07c-.789-.59-1.589-1.189-2.388-1.759-1-.749-2-1.479-3.058-2.178l-1.119-.759c-.69-.48-1.379-.929-2.079-1.369s-1.309-.859-2-1.249c-.819-.52-1.649-1-2.488-1.509s-1.679-1-2.518-1.449A5.763,5.763,0,0,0,57.42,39.29Z" transform="translate(-0.041 -0.028)" fill="#d87777"/>
        <path id="Path_528" data-name="Path 528" d="M0,23.1s1.749,2.318,2,2.608a72.856,72.856,0,0,0,5.766,5.206c2.248,1.9,6,6,9.063,6.305,1.789.19,3.567.39,5.356.63.13-3.747.3-7.455.51-11.182A204.849,204.849,0,0,0,0,23.1Z" transform="translate(0 -0.017)" fill="#d87777"/>
        <path id="Path_529" data-name="Path 529" d="M479.51,438a28.819,28.819,0,0,1,2.638,3.467l.14.15.42.52a23.813,23.813,0,0,1,3.647,4.207h0c.29.3.57.61.839.909l.829.929a73.871,73.871,0,0,1,5,6.305,83.94,83.94,0,0,1,7.994,13.9,87.446,87.446,0,0,1,7.615,33.656,79.32,79.32,0,0,1-1,14.54c-.33,2.078-.729,4.147-1.179,6.206,2,1.309,4.057,2.658,6.066,4q5.736,3.867,11.392,7.844c.38-1.679.689-3.378.909-5.1a1.075,1.075,0,0,1,.05-.4,88.807,88.807,0,0,0-1.369-29.609c-4.167-19.226-14.6-35.444-28.849-48.775l-2.268-2.088c-1.069-1-2.138-1.939-3.228-2.878l-2.338-2-2.108-1.749-.53-.44c-.709-.57-1.429-1.149-2.148-1.709S480.329,438.63,479.51,438Z" transform="translate(-0.346 -0.316)" fill="#d87777"/>
        <path id="Path_530" data-name="Path 530" d="M505.1,563.571c.64.789,1.3,1.559,2,2.318.26.31.53.61.8.909.49.53,1,1,1.489,1.559s1,1,1.549,1.529l.8.759q1.679,1.589,3.458,3.088c.39.33.789.65,1.179,1s.889.7,1.329,1.059c1.869,1.469,3.807,2.858,5.776,4.127a40.582,40.582,0,0,1-4.517-7.834h0a21.806,21.806,0,0,1-1.5-12.161c1.189-8.594,4.577-16.658,6.445-25.132q-5.636-4-11.392-7.844c-2-1.359-4-2.708-6.066-4-1,4.457-2.208,8.874-3.557,13.37C500,545.654,498.441,555.4,505.1,563.571Z" transform="translate(-0.361 -0.377)" fill="#d87777"/>
        <path id="Path_531" data-name="Path 531" d="M647.34,589.35c.13.19.27.37.39.56s0,.13.09.2a1.49,1.49,0,0,1,.41.36,34.642,34.642,0,0,1,4.127,6h0a.269.269,0,0,1,.11,0l.14.16.849,1.109a63.8,63.8,0,0,1,11.192,25.292,88.936,88.936,0,0,1,.859,29.239L681.9,669.732a96.749,96.749,0,0,0,.65-26.151c-2.518-20.735-13.49-36.464-29.239-49.564-.53-.44-1.059-.889-1.6-1.309-.719-.59-1.449-1.159-2.168-1.729S648.079,589.9,647.34,589.35Z" transform="translate(-0.466 -0.425)" fill="#d87777"/>
        <path id="Path_532" data-name="Path 532" d="M617.69,612.17l-.15-.14c.1.11.21.2.31.3l-.09-.1Z" transform="translate(-0.445 -0.441)" fill="#bbdfff"/>
        <path id="Path_533" data-name="Path 533" d="M617.22,611.72Z" transform="translate(-0.445 -0.441)" fill="#bbdfff"/>
        <path id="Path_534" data-name="Path 534" d="M616.93,611.43Z" transform="translate(-0.445 -0.441)" fill="#bbdfff"/>
        <path id="Path_535" data-name="Path 535" d="M600.149,595.759c-.62-.55-1.249-1.109-1.869-1.679.749.68,1.5,1.339,2.248,2,.14.12.3.28.49.44a.5.5,0,0,0,.14.12.332.332,0,0,0,.06.06.6.6,0,0,0-.14-.13c-.33-.31-1-.879-1.249-1.139Z" transform="translate(-0.431 -0.428)" fill="#bbdfff"/>
        <path id="Path_536" data-name="Path 536" d="M129.79,312.65l.06.05h0Z" transform="translate(-0.094 -0.225)" fill="#bbdfff"/>
        <path id="Path_537" data-name="Path 537" d="M129.52,312.43a2.116,2.116,0,0,0,.24.2h0l-.44-.38c.12.11.23.19.33.29Z" transform="translate(-0.093 -0.225)" fill="#bbdfff"/>
        <path id="Path_538" data-name="Path 538" d="M129,312a.21.21,0,0,1-.08-.06.861.861,0,0,0,.14.13h0Z" transform="translate(-0.093 -0.225)" fill="#bbdfff"/>
        <path id="Path_539" data-name="Path 539" d="M129.41,312.35s0-.05-.07-.05a1.288,1.288,0,0,0,.18.16l-.09-.1Z" transform="translate(-0.093 -0.225)" fill="#bbdfff"/>
        <path id="Path_540" data-name="Path 540" d="M523.87,534.726l2,1.409c1.779,1.259,3.527,2.528,5.3,3.787a.879.879,0,0,0,.17.12.679.679,0,0,0,.18.13h0l.18.13.29.22.07.05a.659.659,0,0,0,.13.08h.05l.07.06a.24.24,0,0,1,.08.06h.06a.278.278,0,0,1,.09.07c.32.22.64.46,1,.7,6.735,4.926,13.38,9.993,19.986,15.039l.25.19a2.091,2.091,0,0,1,.17.14l.48.37.31.24,2.708,2.128,4.846,3.827c1.819,1.439,3.637,2.908,5.456,4.367l1.549,1.249.36.29.18.14c3.528,2.818,6.995,5.766,10.412,8.684l4.077,3.448c.15.13.3.28.46.4l.31.25-.15-.11.17.14.18.15.36.3.08.08a1.234,1.234,0,0,0,.19.16l.17.16h0s.09.08.12.1h0a.1.1,0,0,0,.05,0c.33.3.659.6,1,.879l2.628,2.308q9.123,6.246,18.1,12.721c3.218,2.328,6.555,4.5,9.873,6.7q7.315,6.655,14.52,13.46c-22.494-21.295-45.967-41.57-70.029-61.066Q543.845,543.29,524.769,529a1.127,1.127,0,0,1-.05.4A37.345,37.345,0,0,1,523.87,534.726Z" transform="translate(-0.378 -0.381)" fill="#ffecb7"/>
        <path id="Path_541" data-name="Path 541" d="M218.105,376.207c2.658-2.358,5.206-4.876,7.664-7.5L205.465,358.36a98.818,98.818,0,0,1-7.475,6.515Z" transform="translate(-0.143 -0.258)" fill="#d87777"/>
        <path id="Path_542" data-name="Path 542" d="M218.12,376.215c15.439,8.434,31.118,16.408,46.766,24.173,74.107,36.783,151.441,67.421,222.32,110.43q9.583,5.816,18.986,11.931c.45-2.058.849-4.127,1.179-6.206q-21.235-15.139-43.389-28.859C393.114,444,315.7,412.8,241.143,376.284q-7.654-3.767-15.329-7.575C223.326,371.338,220.778,373.856,218.12,376.215Z" transform="translate(-0.157 -0.266)" fill="#ffecb7"/>
        <path id="Path_543" data-name="Path 543" d="M114.67,304.93a448.535,448.535,0,0,0,40.861,32.656c13.65,9.743,27.86,18.757,42.4,27.25a98.822,98.822,0,0,0,7.475-6.515c-24.272-12.671-48.105-26.271-70.479-41.86l-1-.67-.09-.07-.939-.7-2.718-2a.09.09,0,0,1-.05,0h-.06a.41.41,0,0,1-.11-.1h-.11l-.14-.1h0C124.6,310.266,119.616,307.658,114.67,304.93Z" transform="translate(-0.083 -0.22)" fill="#ffecb7"/>
        <path id="Path_544" data-name="Path 544" d="M661.116,715.065c.47.62,1,1.239,1.469,1.839.36.45.74.889,1.119,1.319s.829.939,1.259,1.4c1.429,1.559,2.948,3.068,4.527,4.537.4.38.8.739,1.209,1.109,2.178,1.949,4.447,3.807,6.765,5.586l1.659,1.249c.6.45,1.209.889,1.809,1.319a60.953,60.953,0,0,1-4.267-6.635l-.08-.05c-.29-.38-.57-.779-.829-1.189a25.172,25.172,0,0,1-3.518-16.118c1-9.993,5.186-19.546,7.635-29.309.25-.939.47-1.879.669-2.818q.8-3.717,1.369-7.475L665.523,652.36c-.13,1.119-.29,2.248-.46,3.378-.28,1.829-.61,3.617-1,5.406-2,9.183-5.076,17.987-7.365,27.09C654.291,697.877,655,707.011,661.116,715.065Z" transform="translate(-0.472 -0.47)" fill="#d87777"/>
        <path id="Path_545" data-name="Path 545" d="M758.054,837.149c-13.34-52.282-44.468-114.917-78.164-157.017.25-.939.47-1.879.669-2.818q.8-3.717,1.369-7.475c40.761,44.678,80.012,109.491,101,167.309Z" transform="translate(-0.49 -0.483)" fill="#f9db7d"/>
        <path id="Path_546" data-name="Path 546" d="M590,586.74c1.369,1.189,2.738,2.408,4.107,3.617l4.177,3.717c.51.47,1,.939,1.549,1.379l.11.09h0l.13.13h0l.11.09.63.58.18.17h0a.13.13,0,0,0,.07.06.333.333,0,0,0,.06.06c1.529,1.439,3.078,2.838,4.607,4.247q5.416,5,10.742,10.123l.34.32h0a1.667,1.667,0,0,1,.14.13l.12.12h0a.83.83,0,0,0,.14.13l.17.17c.1.11.21.2.31.3l1.439,1.4c1.769,1.729,3.528,3.448,5.286,5.186,6.355,6.305,13.141,13.24,18.906,19.4q10.422,11.1,20.555,22.8c.39-1.789.719-3.577,1-5.406.17-1.129.33-2.258.46-3.378-2.578-2.688-5.156-5.326-7.744-7.994-1.869-1.909-3.757-3.8-5.646-5.686s-3.637-3.627-5.466-5.416c-.29-.3-.59-.58-.879-.859-1.249-1.249-2.508-2.468-3.777-3.687s-2.458-2.388-3.687-3.557a2.171,2.171,0,0,0-.27-.26q-2.758-2.638-5.526-5.266-7.2-6.785-14.52-13.46c-3.318-2.2-6.655-4.367-9.873-6.7Q599.093,593,590,586.74Z" transform="translate(-0.425 -0.423)" fill="#f9db7d"/>
        <path id="Path_547" data-name="Path 547" d="M617.69,612.17l-.15-.14c.1.11.21.2.31.3l-.09-.1Z" transform="translate(-0.445 -0.441)" fill="#99cef6"/>
        <path id="Path_548" data-name="Path 548" d="M617.22,611.72h0a.838.838,0,0,0,.14.13Z" transform="translate(-0.445 -0.441)" fill="#99cef6"/>
        <path id="Path_549" data-name="Path 549" d="M616.93,611.43h0l.26.25A1.506,1.506,0,0,1,616.93,611.43Z" transform="translate(-0.445 -0.441)" fill="#99cef6"/>
        <path id="Path_550" data-name="Path 550" d="M601.079,596.6c-.33-.31-1-.879-1.249-1.139l.32.3.38.35c.14.12.3.28.49.44a.5.5,0,0,0,.14.12.33.33,0,0,0,.06.06A.6.6,0,0,0,601.079,596.6Z" transform="translate(-0.432 -0.429)" fill="#99cef6"/>
        <path id="Path_551" data-name="Path 551" d="M589.89,586.67c1.4,1.239,2.808,2.468,4.207,3.687-1.369-1.209-2.738-2.428-4.107-3.617A.3.3,0,0,1,589.89,586.67Z" transform="translate(-0.425 -0.423)" fill="#99cef6"/>
        <path id="Path_552" data-name="Path 552" d="M128.75,311.74Z" transform="translate(-0.093 -0.225)" fill="#99cef6"/>
        <path id="Path_553" data-name="Path 553" d="M128.75,311.82Z" transform="translate(-0.093 -0.225)" fill="#99cef6"/>
        <path id="Path_554" data-name="Path 554" d="M128.82,311.86Z" transform="translate(-0.093 -0.225)" fill="#99cef6"/>
        <path id="Path_555" data-name="Path 555" d="M128.94,312Z" transform="translate(-0.093 -0.225)" fill="#99cef6"/>
        <path id="Path_556" data-name="Path 556" d="M129.18,312.16s-.05-.05-.07-.05h0Z" transform="translate(-0.093 -0.225)" fill="#99cef6"/>
        <path id="Path_557" data-name="Path 557" d="M59.873,0a4,4,0,0,1,1.339,2.588c-.889,7.864-3.2,28.769-3.817,36.674-2.418-1.289-4.906-2.608-7.415-3.747-.769-.37-1.549-.7-2.328-1A136.452,136.452,0,0,0,22.74,26.7c.24-4.577,2-21.2,2.4-26.651Z" transform="translate(-0.016)" fill="#f9db7d"/>
        <path id="Path_558" data-name="Path 558" d="M56.975,45.854a593.671,593.671,0,0,0-.09,80.882,392.08,392.08,0,0,0,7.5,55.63c4,18.377,10.183,36.114,17.3,53.5,7.585,18.567,16.568,36.674,28.07,53.152q2.628,3.757,5.446,7.385a151.3,151.3,0,0,0,12.311,13.99l.33.33.2.19.09.08.52.49v.06h0a.279.279,0,0,0,.06.08h0a.13.13,0,0,0,.07.06.863.863,0,0,0,.14.13.6.6,0,0,1,.1.11c.03.05-.05-.05-.07-.05h0a.13.13,0,0,1,.06.05h0l.07.07a1.291,1.291,0,0,0,.18.16l.07.07a.34.34,0,0,0,.14.08c-5.106-2.338-10.083-4.936-14.989-7.654h0q-3.388-3.058-6.685-6.216c-.919-.869-1.819-1.739-2.718-2.628q-3.208-3.148-6.315-6.355c-.53-.55-1-1.079-1.559-1.629q-2.248-2.338-4.417-4.737c-13.63-14.989-24.722-32.1-33.786-50.154A336.337,336.337,0,0,1,25.757,126.006,527.954,527.954,0,0,1,22.1,37.76a160.945,160.945,0,0,1,34.875,8.094Z" transform="translate(-0.016 -0.027)" fill="#f9db7d"/>
        <path id="Path_559" data-name="Path 559" d="M129,312Z" transform="translate(-0.093 -0.225)" fill="#99cef6"/>
        <path id="Path_560" data-name="Path 560" d="M128.91,312Z" transform="translate(-0.093 -0.225)" fill="#99cef6"/>
        <path id="Path_561" data-name="Path 561" d="M128.73,311.8Z" transform="translate(-0.093 -0.225)" fill="#99cef6"/>
        <path id="Path_562" data-name="Path 562" d="M22.22,37.852a160.945,160.945,0,0,1,34.7,7.994q.21-3.278.47-6.565c-2.418-1.289-4.906-2.608-7.415-3.747-.769-.37-1.549-.7-2.328-1A136.452,136.452,0,0,0,22.74,26.72Q22.41,32.236,22.22,37.852Z" transform="translate(-0.016 -0.019)" fill="#d87777"/>
      </g>
    </g>
    <path id="Path_482" data-name="Path 482" d="M2039.727,630.3S1930,938,2326,1098s442,368,442,368H1298V630.3Z" transform="translate(-1298 372)" fill="#f9db7d"/>
    <g id="Group_133" data-name="Group 133">
      <path id="Path_398" data-name="Path 398" d="M0,0H419.735L0,419.735Z" transform="translate(0 1417.265)" fill="#fff" opacity="0.09"/>
      <path id="Path_397" data-name="Path 397" d="M0,0H419.735L0,419.735Z" transform="translate(419.735 1417.265)" fill="#fff" opacity="0.09"/>
      <path id="Path_650" data-name="Path 650" d="M0,0H419.735L0,419.735Z" transform="translate(0 1001.788)" fill="#fff" opacity="0.09"/>
    </g>
  </g>
</svg>
