<svg xmlns="http://www.w3.org/2000/svg" width="425.3" height="1194.342" viewBox="0 0 425.3 1194.342">
  <g id="Blue_Section_BG" transform="translate(-536 -669.658)">
    <g id="Group_158" data-name="Group 158" transform="translate(0 1838.658)">
      <g id="Group_157" data-name="Group 157">
        <path id="Path_563" d="M564.9-723.1c-1.6,2-3.2,4-4.8,6.1C561.7-719.1,563.3-721.1,564.9-723.1Z" fill="#2788c4"/>
        <path id="Path_564" d="M751.6-765.8a53.557,53.557,0,0,1-11.8,20.2,38.667,38.667,0,0,0,3.7-3.2,29.969,29.969,0,0,1-4.8,4c-11.9,8-24.9,1.9-36.6-4-12.9-6.5-25.9-10.7-39.4-11.1-26.7-.9-53.2,10-77.7,26.2a144.48,144.48,0,0,0-18,14,91.282,91.282,0,0,0-6.9,7h0l-.1.1-.1.1-.1.1c0,.1-.1.1-.1.2,2.3-4.3,4.5-8.9,6.9-13a164.2,164.2,0,0,1,25.3-24.7c23.9-18.4,50.5-30.6,77-32.8a86.164,86.164,0,0,1,38.6,5.4c12.6,4.9,25.2,14.9,38.5,13A18.617,18.617,0,0,0,751.6-765.8Z" fill="#ffecb7"/>
        <path id="Path_950" data-name="Path 950" d="M566.5-725c-.1.1-.1.2-.2.3-.4.7-.8,1.3-1.2,2-.5.8-.9,1.6-1.3,2.4-.4.7-.7,1.3-1.1,2s-.7,1.4-1.1,2c-.7,1.4-1.4,2.7-2.1,4.1v.1l-1.2,2c-1.1,1.7-.9,1.5-1.9,3.2q-2.55,4.5-4.8,9.3A220.474,220.474,0,0,0,536-652v-26.4a213.141,213.141,0,0,1,17.9-30.1c1.1-1.6,2.3-3.2,3.4-4.7l1.3-1.7,1.6-2.1c.1-.1.2-.3.3-.4.7-.9,1.3-1.8,2-2.6.7-.9,1.4-1.8,2.1-2.6l.3-.3.1-.1,1.5-2Z" fill="#f9db7d"/>
        <path id="Path_567" d="M761.1-806.1c5.1-4.2,10.3-8.5,15.4-12.8-.7,3.8-1.4,7.6-2.3,11.3-2.5,10.8-5.5,21.6-10.2,30.5a126.078,126.078,0,0,1-13.4,19.9c-1.3,1.6-2.5,3.2-3.9,4.7-.4.5-.9,1-1.3,1.5l-.7.7-.6.6-.6.6-.9.9c-.9.9-1.9,1.6-2.8,2.4A50.865,50.865,0,0,0,751.6-766l.1-.1a167.59,167.59,0,0,0,6.6-24.3c1.1-5,2.1-10.3,2.8-15.7Z" fill="#f9db7d"/>
        <path id="Path_568" d="M778.2-829.6c-3.5,2.9-7,5.8-10.5,8.6l-5.3,4.3a267.487,267.487,0,0,0,.8-36.9c-.1-1.4,1.5-3.3,2-4.2,1.8-3,3.8-5.7,5.8-8.4s4-5.3,6.1-7.7h0c.3-.3,2.9-3.1,3-2.5A271.979,271.979,0,0,1,778.2-829.6Z" fill="#f9db7d"/>
        <path id="Path_951" data-name="Path 951" d="M961.3-1169v5.7c-1.8,1.8-3.6,3.6-5.3,5.5.6-1.4,1.2-2.8,1.9-4.2a.349.349,0,0,1,.1-.2c.4-.9.8-1.8,1.2-2.6v-.1c.7-1.4,1.3-2.8,2.1-4.1Z" fill="#ffecb7"/>
        <path id="Path_585" d="M937.1-942.9c-.6,9.5-2.5,18.3-6.4,25.6a116.193,116.193,0,0,1-12.2,18c-3.3,4.2-6.7,8.4-10.6,10.9-1.1.7.2-1.8.4-2.1a58.443,58.443,0,0,1,4.8-7.4c1.3-1.9,2.7-3.8,4.1-5.6l.6-2.1a71.655,71.655,0,0,0,2.3-15.2c.6-11.5-.3-23.2-.9-34.6l-.3-5.9,17-22.9c.2,3,.3,6.1.5,9.1C937-964.4,937.8-953.6,937.1-942.9Z" fill="#f9db7d"/>
        <path id="Path_586" d="M961.2-1169c-1.9,3.6-3.6,7.4-5.3,11.2h0a60.653,60.653,0,0,0-3.6,6.7,133.763,133.763,0,0,0-8.7,23.1c-10.9,37.2-10.7,79.4-8.8,119.5.3,6.5.6,12.9,1,19.4l-17,23.5c-1.1-20.4-2.1-40.9-2-61.4.3-35.7,4.8-73.1,18.5-102.1.3-.6.6-1.2.9-1.9s.5-1,.8-1.6a5.357,5.357,0,0,0,.5-1.1,10.909,10.909,0,0,1,.6-1.1c.2-.4.5-.9.7-1.4l1.5-2.7a7.455,7.455,0,0,1,.7-1.2c1.3-2.3,2.6-4.5,4-6.7l.8-1.3a14.808,14.808,0,0,0,.8-1.3l.9-1.4c.5-.7.9-1.4,1.4-2.1l.3-.4c.4-.6.9-1.3,1.3-1.9,1.8-2.5,3.6-5,5.4-7.3.6-.7,1.1-1.5,1.7-2.2l1.5-1.9,1.2-1.5.6-.7Z" fill="#f9db7d"/>
        <path id="Path_587" d="M961.2-1169h0l-.2.3Z" fill="#99cef6"/>
        <path id="Path_589" d="M778.2-829.6c-.5,3.6-1,7.2-1.7,10.8-5.1,4.3-10.3,8.6-15.4,12.8.5-3.5.9-7.1,1.2-10.7l5.3-4.3C771.2-823.9,774.7-826.8,778.2-829.6Z" fill="#f9db7d"/>
        <path id="Path_952" data-name="Path 952" d="M762.3-816.7,762-814c-.1.9-.2,1.9-.3,2.8-.1.8-.2,1.5-.3,2.3,0,.2-.1.5-.1.7l-.3,2.1-6.7,5.5c-11.9,9.7-23.7,19.1-35.7,28.5l-.1.1c-8.2,6.5-16.4,12.9-24.7,19.3h0c-26.6,20.8-53.3,41.5-79.7,63.1s-52.5,44-78,68.3v-7.4c2.5-2.5,5.1-5,7.6-7.4,45.7-44.2,93.5-82.3,141.5-119.8h0c8.5-6.7,17-13.3,25.5-19.9.1,0,.1-.1.2-.1C728-789.5,745.3-802.9,762.3-816.7Z" fill="#bbdfff"/>
        <path id="Path_593" d="M919-961.3a740.421,740.421,0,0,1-54.5,61.6c-28.5,29.2-58,55.7-88,80.8.6-3.6,1.2-7.2,1.7-10.8,34.2-28.1,68-57.8,100.4-91.1,13.7-14.1,27.4-28.7,40.3-44.9Z" fill="#bbdfff"/>
        <path id="Path_594" d="M936-984.2l-17,22.9-.2-4.3,17-23.5Z" fill="#f9db7d"/>
        <path id="Path_595" d="M946.8-1000.2c-3.5,5.5-7.1,10.8-10.8,16.1l-.3-4.9c.3-.4.5-.8.8-1.2h0C940-993.5,943.4-996.8,946.8-1000.2Z" fill="#bbdfff"/>
        <path id="Path_596" d="M952.2-1008.8c-1.8,2.9-3.6,5.7-5.4,8.6C948.6-1003.1,950.4-1005.9,952.2-1008.8Z" fill="#705613"/>
        <path id="Path_953" data-name="Path 953" d="M961.3-1035.7v11.5c-.4.6-.7,1.3-1.1,1.9l-.3.5-1.8,3c-1.9,3.3-3.9,6.6-5.9,9.9-1.8,2.9-3.6,5.7-5.4,8.6q-5.1,5.1-10.2,9.9c.7-1.1,1.4-2.1,2-3.2l1.5-2.4a11.778,11.778,0,0,0,1.1-1.9c.1-.2.3-.4.4-.6a14.806,14.806,0,0,0,.8-1.3c.8-1.2,1.5-2.5,2.2-3.8.7-1.1,1.3-2.3,2-3.4.6-1.1,1.3-2.3,1.9-3.4.6-1.2,1.3-2.3,1.9-3.5,1.3-2.3,2.5-4.7,3.7-7.1.6-1.1,1.1-2.2,1.7-3.3.1-.2.2-.3.2-.5.6-1.1,1.1-2.3,1.7-3.4.6-1.2,1.1-2.4,1.8-3.7l1.5-3.3c.1-.1.1-.3.3-.5Z" fill="#99cef6"/>
        <path id="Path_598" d="M938.6-993.5c2.1-3.2,4.1-6.6,6.1-10C942.7-1000.1,940.7-996.8,938.6-993.5Z" fill="#f9db7d"/>
        <path id="Path_599" d="M950.5-1013.9c1.3-2.3,2.5-4.7,3.7-7.1C953-1018.6,951.7-1016.2,950.5-1013.9Z" fill="#f9db7d"/>
      </g>
    </g>
    <path id="Path_954" data-name="Path 954" d="M961.3,925.6V1864H536V1283.9C678.3,1136.2,867.8,1037.6,961.3,925.6Z" fill="#99cef6"/>
  </g>
</svg>
