<svg xmlns="http://www.w3.org/2000/svg" width="425.045" height="1089.7" viewBox="0 0 425.045 1089.7">
  <g id="Grey_Section_BG" transform="translate(-299.955 -767.8)">
    <g id="Group_160" data-name="Group 160" transform="translate(140.055 3617)">
      <g id="Group_159" data-name="Group 159">
        <path id="Path_955" data-name="Path 955" d="M584.9-2387.2v21.2c-8.3-2.8-16.5-5.5-24.7-8.2-5.8-1.9-11.6-3.8-17.3-5.8-14.3-4.8-28.5-9.8-42.6-15.3-5.2-2-10.4-4.1-15.5-6.3-26.8-11.3-53.1-24.8-78.4-42.5-24.4-17.1-47.3-38-69-61.4-3.2-3.4-6.3-6.8-9.5-10.3h0c1,.8,2,1.6,3,2.3,1,.8,2,1.5,3,2.3.9.7,1.8,1.3,2.7,2a1.381,1.381,0,0,0,.4.3c1,.8,2,1.5,3,2.2l4.3,3.1,7.9,5.4h.1a368.653,368.653,0,0,0,35.8,27.8c30.5,20.8,62.4,35.8,94.8,48.2,5.3,2,10.5,4,15.8,5.9,8.7,3.1,17.5,6.1,26.2,9q25.8,8.55,51.6,17.2C579.3-2389.1,582.1-2388.2,584.9-2387.2Z" fill="#e2e2e2"/>
        <path id="Path_956" data-name="Path 956" d="M352.2-2498.2c-2.6-1.8-5.3-3.6-7.9-5.4l-4.3-3.1c-1-.7-2-1.5-3-2.2a1.381,1.381,0,0,0-.4-.3c-.9-.7-1.8-1.3-2.7-2-1-.8-2-1.5-3-2.3s-2-1.5-3-2.3h0c-2.3-2.6-4.6-5.2-6.8-7.8-9.1-10.5-18.1-21.4-27-32.5-2.5-3.1-4.9-6.2-7.4-9.4l-3.7-4.7-3.7-4.8c-2.1-2.7-4.2-5.5-6.3-8.3-5.4-7.2-10.8-14.6-16.1-22.2a759.958,759.958,0,0,1-48.2-77.6c-5.2-9.7-10.2-19.6-15-29.8a554.777,554.777,0,0,1-33.8-91.4v-44.9h8.8a498.787,498.787,0,0,0,23.1,103.9c1.9,5.8,4,11.4,6.1,17.1,4.2,11.3,8.8,22.3,13.6,33a602.731,602.731,0,0,0,48.8,87.5c4.8,7.2,9.7,14.2,14.6,21.1a14.308,14.308,0,0,0,1.1,1.5,659.892,659.892,0,0,0,43.4,53.9h0c1.4,1.6,2.8,3.1,4.2,4.6,1.2,1.3,2.3,2.5,3.5,3.8l.3.3c1.1,1.1,2.1,2.3,3.2,3.4l.6.6c1,1,1.9,2,2.9,3,.5.5,1,1.1,1.6,1.6l2,2,.7.7.2.2,6.3,6c2.3,2.2,4.6,4.3,7,6.3A.69.69,0,0,0,352.2-2498.2Z" fill="#ebebeb"/>
        <path id="Path_607" d="M352.4-2498c-4.9-4.3-9.8-8.9-14.6-13.6,4.8,4.7,9.6,9.2,14.5,13.5Z" fill="#ebebeb"/>
        <path id="Path_609" d="M475.2-2466.7c.6,1.3,1.1,2.6,1.6,4a87.009,87.009,0,0,1,3.9,16.6c1.6,10.8,1.9,21.9,2.8,32.8a139.6,139.6,0,0,0,4.3,27,73.635,73.635,0,0,0,10.9,21.9h0c2.7,1.7,5.4,3.4,8.1,4.9-2.8-7-4.4-15.1-5.4-23.1-2.3-18.8-1.5-38.9-6.8-56.7a74.878,74.878,0,0,0-10.8-21.5h0a48.316,48.316,0,0,0-5.8-4.3C477.1-2465.6,476.1-2466.1,475.2-2466.7Z" fill="#bbdfff"/>
        <path id="Path_957" data-name="Path 957" d="M584.9-2396.1v35.3c-4.5,4.5-8.9,9.2-13.4,13.4-10.6,9.9-21.9,16.1-34.6,14.4-14.6-2-25.9-14.4-36.5-28.9-.6-.8-1.2-1.6-1.7-2.4h0v-.1c2.7,1.7,5.3,3.3,8,4.9h0a44.151,44.151,0,0,0,6.5,3.3c11.4,4.3,23.3,1.6,33.7-6.3a111.811,111.811,0,0,0,13.1-11.9c5.4-5.4,10.6-11.1,16.3-15.8a64.185,64.185,0,0,1,5.4-4.1A24.24,24.24,0,0,0,584.9-2396.1Z" fill="#99cef6"/>
        <path id="Path_617" d="M426.2-2499.3a47.22,47.22,0,0,0,4.8,6.9c2.1,2.8,4.3,5.6,6.6,8.1.8.9,3.1,4,4.3,4.2a121.074,121.074,0,0,1,20.3,6,56.414,56.414,0,0,1,9.5,4.8,36.42,36.42,0,0,1,3.5,2.4l.1.1c.9.5,1.8,1.1,2.8,1.7a48.316,48.316,0,0,1,5.8,4.3,20.277,20.277,0,0,0-1.3-1.8c-6.6-9.2-13.8-18.1-21.8-24.4-10.8-8.5-23-11.7-34.9-14.4C424.7-2501.5,425.9-2499.8,426.2-2499.3Z" fill="#99cef6"/>
        <path id="Path_618" d="M319.4-2600.5a.759.759,0,0,1,.2.4h0A.759.759,0,0,0,319.4-2600.5Z" fill="#ffefca"/>
        <path id="Path_619" d="M308.2-2605.2a4.1,4.1,0,0,1,1.1-.1c.2.6.3,1.3.5,1.9,4.3,16.6,4.6,35.4,6.7,52.8,2,17.4,5.2,35,12.2,49.5,2.6,5.5,6.5,9.8,10,14a41.964,41.964,0,0,0,5.3,5.8s2.2,1.9,1.4.2c-8.7-18.1-11.2-40.2-13.4-61.9-1.8-18.8-2.8-40-11.2-55.2-.4-.7-.8-1.4-1.2-2h0a6.064,6.064,0,0,0-1-.7h0c-.4-.2-.7-.5-1.1-.7h0c-.4-.2-.7-.4-1.1-.6h0l-1.1-.6c-1.5-.8-3-1.5-4.6-2.2A2.726,2.726,0,0,0,308.2-2605.2Z" fill="#bbdfff"/>
        <path id="Path_620" d="M319.7-2600.1c-.1-.1-.2-.3-.3-.4.1.1.2.3.3.4Z" fill="#ba9a49"/>
        <path id="Path_621" d="M317.2-2604c-.9-1.3-1.8-2.5-2.7-3.7C315.4-2606.6,316.3-2605.3,317.2-2604Z" fill="#ba9a49"/>
        <path id="Path_622" d="M190-2635.4a102.356,102.356,0,0,0,15.2,37.5,89.783,89.783,0,0,0,8.3,5.3c-.3-.6-.5-1.2-.8-1.8-7-17-9.1-37.5-8.1-57.2,1.1-21.3,6-41.7,12.1-60.9,3.1-9.5,6.5-18.6,9.9-27.7,3.4-9.2,6.7-18.4,8-28.6,2.6-19.9-4.4-37.3-13.5-50.9-.4-.7-.9-1.3-1.3-2-3.1-2.4-6-5.3-9.1-7.6,1.1,2.1,2.1,4.3,3,6.5a67.21,67.21,0,0,1,4,14.6c3.2,22.2-6.5,42.1-13.2,60.6C192.1-2713.6,182.6-2674.2,190-2635.4Z" fill="#bbdfff"/>
        <path id="Path_623" d="M218.7-2823.4c-.8-1.1-1.5-2.1-2.3-3.2C217.1-2825.5,217.9-2824.5,218.7-2823.4Z" fill="#ba9a49"/>
        <path id="Path_624" d="M215.2-2828.1c-.8-1-1.6-2.1-2.4-3C213.6-2830.2,214.4-2829.1,215.2-2828.1Z" fill="#ba9a49"/>
        <path id="Path_625" d="M212.8-2831.1c-1.2-1.5-2.4-3-3.6-4.4C210.4-2834.1,211.7-2832.6,212.8-2831.1Z" fill="#ba9a49"/>
        <path id="Path_626" d="M205.1-2598c.3.5.7,1,1,1.5l1.3,1.9,1,1.4c.5.7.9,1.3,1.4,1.9l1.2,1.6a18.258,18.258,0,0,0,1.3,1.6c.9,1.1,1.7,2.1,2.6,3.2,5.3,6.4,11.2,13.2,18.1,15.2,6.9,1.9,13.9-.6,20.5-3.6a227.964,227.964,0,0,0,39.6-23.2l.9-.7,1.7-1.3,2.1-1.6,1-.7c.4-.3.7-.5,1.1-.8l.9-.6c.5-.3.9-.6,1.4-.9s1-.5,1.4-.8l.5-.2h0c.3-.1.5-.3.8-.4l.1-.1a7.849,7.849,0,0,1,1.4-.5h0a3.549,3.549,0,0,1,1-.2l.5-.1h0a3.114,3.114,0,0,1,2.5.1c1.5.7,3,1.4,4.6,2.2a10.862,10.862,0,0,1,1.1.6h0c.4.2.7.4,1.1.6h0c.4.2.7.5,1.1.7h0c.3.2.7.5,1,.7h0c-.1-.1-.1-.3-.2-.4-.4-.6-.8-1.3-1.2-1.9s-.7-1.1-1.1-1.6c-.9-1.3-1.8-2.5-2.7-3.7h0l-1.2-1.6-.2-.3-1.2-1.6c-.9-1.2-1.9-2.3-2.8-3.4-2.8-3.4-5.8-7-9.1-9.4-5.7-4.3-11.6-2.2-17.1,1.6-13.6,9.5-27,18.8-41.4,25.7-7.1,3.4-14.6,7.4-22.1,6.4a15.005,15.005,0,0,1-5.8-2.1l-.1-.2h0a73.6,73.6,0,0,1-8-5Z" fill="#99cef6"/>
        <path id="Path_627" d="M319.4-2600.5a.759.759,0,0,1,.2.4h0A.759.759,0,0,0,319.4-2600.5Z" fill="#f9db7d"/>
        <path id="Path_628" d="M188-2849a37.217,37.217,0,0,0,7,7.3c3.6,2.6,7.1,5.1,10.6,7.9,1.7,1.4,3.4,2.8,5,4.3h0c3.1,2.3,6,5.2,9.1,7.6h0l-1.1-1.6c-.8-1.1-1.5-2.1-2.3-3.2l-1.2-1.5-2.4-3c-1.2-1.5-2.4-2.9-3.6-4.4-2-2.3-4-4.5-6.1-6.7-.8-.9-1.7-1.7-2.5-2.6-.9-.8-1.7-1.7-2.6-2.5l-1.7-1.6Z" fill="#99cef6"/>
      </g>
    </g>
    <path id="Path_958" data-name="Path 958" d="M300,1857.5V959.9c64.8,135.9,190.1,308,425,389v508.6" fill="#e2e2e2"/>
  </g>
</svg>
