<svg xmlns="http://www.w3.org/2000/svg" width="425" height="656.9" viewBox="0 0 425 656.9">
  <g id="Red_Section" data-name="Red Section" transform="translate(0 -6.6)">
    <g id="Layer_2-2">
      <path id="Path_940" data-name="Path 940" d="M425,7.4v3.5a27.466,27.466,0,0,0-2.2,2.6A76.464,76.464,0,0,0,412,33.1c-5.7,15-5.8,30.3-1.6,45.8,4.1,15.1,9.4,29.8,14.6,44.4v58.9c-5-21.2-12.6-41.6-19.7-62-4.4-12.6-9.5-25.6-11.4-39a72.448,72.448,0,0,1,4.9-37.4A97.221,97.221,0,0,1,414.9,18c.6-.7,1.3-1.5,1.9-2.2,1.3-1.4,2.6-2.9,4-4.3s2.8-2.8,4.2-4.1h0" fill="#ffecb7"/>
      <path id="Path_493" d="M34.9,644.3a86.766,86.766,0,0,0,11.2-8.8c8.8-8,17.1-17,21.8-28.9,9.4-23.8,4.9-50.9-2.4-74.6-1-3.3-2.1-6.7-3.3-10-1.6-4.8-3.3-9.7-5-14.5-6.5-18.6-12.5-37.4-13-57.6-.3-13.7,2-27.4,8.5-39.1a66.384,66.384,0,0,1,5.1-7.9c.1-.2,2.5-2.6,2.1-2.4.5-.4,1.1-.8,1.6-1.2a86.366,86.366,0,0,1,17.6-9.7c13.8-5.9,28.4-8.9,42.9-12l46.2-10c3.1-.7,6.8-5.5,9.1-7.8,1.2-1.2,3.2-2.7,4-4.4.2-.3,1.3-1.4.3-1.2-26.5,5.7-54,9.8-79.9,18.6a119.025,119.025,0,0,0-58.8,44.3c-23.9,34.4-9.9,73,2.8,110.5,2.1,6.2,4.2,12.4,6.1,18.5A191.673,191.673,0,0,1,58.4,574c1.9,14.1,1.5,29.2-3.1,42.6a56.993,56.993,0,0,1-3.8,8.8c-.8,1.5-1.7,3-2.6,4.4-.5.7-.9,1.3-1.4,2l-.5.7h0a60.335,60.335,0,0,1-8.1,3.9L35,637.9Z" fill="#ffecb7"/>
      <path id="Path_941" data-name="Path 941" d="M425,7.4v2.9c-2.5,1.8-5,3.7-7.4,5.6L414.9,18A101.217,101.217,0,0,1,425,7.4Z" fill="#f9db7d"/>
      <path id="Path_495" d="M375.8,252.8,354,266.7a454.3,454.3,0,0,1-63.9-1.6,21.954,21.954,0,0,1,1.7-2.5c1.5-1.7,3.1-3.4,4.8-5,1.5-1.5,5.4-6.2,7.6-6a450.8,450.8,0,0,0,71.6,1.2Z" fill="#f9db7d"/>
      <path id="Path_942" data-name="Path 942" d="M425,243.7v4.4c-1.2,1-2.5,2-3.7,3-.7.5-1.3.9-2,1.4-.5.3-1,.7-1.5,1a8.8,8.8,0,0,1-1,.6c-.5.3-1.1.7-1.7,1l-.4.3-.8.5-1,.6-.7.4a10.1,10.1,0,0,1-1.5.7c-.5.2-1.1.5-1.7.8-11.4,4.9-23.9,5.9-36,7-1.4.1-2.7.3-4.1.3h-.1l18.8-13.8h0l.1-.1h.1c3.1-.3,6.3-.6,9.5-1a95.093,95.093,0,0,0,19.8-3.9A48.427,48.427,0,0,0,425,243.7Z" fill="#f9db7d"/>
      <path id="Path_497" d="M44.9,636.4c.8-1.5,1.5-3.1,2.3-4.6.1-.1.1-.3.2-.4l-.4.5-.5.7h0a60.335,60.335,0,0,1-8.1,3.9,63.594,63.594,0,0,1-9.6,3.2c-3.1.8-6.7,5.4-9.1,7.8-1.1,1.1-3.5,2.8-4,4.4-.1.3-1.3,1.5-.3,1.2,10.8-2.8,20.2-8.3,28.9-16A4.343,4.343,0,0,1,44.9,636.4Z" fill="#f9db7d"/>
      <path id="Path_498" d="M181.4,354.3c-26.5,5.7-54,9.8-79.9,18.6A120.235,120.235,0,0,0,56,401.3a66.57,66.57,0,0,1,7.3-3.1A90.95,90.95,0,0,1,79,389.8c13.8-5.9,28.4-8.9,42.9-12l46.2-10c3.1-.7,6.8-5.5,9.1-7.8,1.2-1.2,3.2-2.7,4-4.4C181.3,355.2,182.4,354,181.4,354.3Z" fill="#f9db7d"/>
      <path id="Path_499" d="M137.2,415.4Z" fill="#fcb2b2"/>
      <path id="Path_500" d="M137.3,415.3Z" fill="#fcb2b2"/>
      <path id="Path_501" d="M141.7,411.2l-.1.1h0Z" fill="#fcb2b2"/>
      <path id="Path_503" d="M368.8,265.7c-15.7,11.1-31.9,21.4-48.3,31.2-54.4,32.2-111.5,58.7-161.7,99.3-4.5,3.6-8.5,7-12.6,10.7-7.3,5.3-14.5,10.7-21.7,16.1,13.4-13.6,27.4-26.3,41.7-38.4,50.8-42.8,107.9-71.9,164-103.9,8-4.5,15.9-9.2,23.8-14C358.9,266.5,363.9,266.1,368.8,265.7Z" fill="#fcb2b2"/>
      <path id="Path_504" d="M387.7,251.8l-18.9,13.9c-4.9.4-9.9.7-14.8,1l21.8-13.9C379.8,252.5,383.7,252.2,387.7,251.8Z" fill="#f9db7d"/>
      <path id="Path_943" data-name="Path 943" d="M425,219.6v1.1c-6.8,6.3-13.9,12.3-20.9,18-5.4,4.5-10.9,8.8-16.4,13h0l-.1.1h-.1c-1,.1-1.9.2-2.9.3h-.1c-2.9.3-5.9.5-8.8.7,12-8,23.8-16.4,35.2-25.4a.349.349,0,0,0,.2-.1h0C416,224.9,420.5,222.3,425,219.6Z" fill="#fcb2b2"/>
      <path id="Path_506" d="M124.6,423l-4.1,4.2c-1.3,1.4-2.6,2.7-3.9,4.1-1.4,1.5-2.9,3-4.3,4.6l-.1.1-4.2,4.5c-1.4,1.5-2.8,3.1-4.2,4.7s-2.8,3.1-4.1,4.8-2.7,3.2-4.1,4.8l-4.5,5.4-2.4,3c-.8,1-1.9,2.4-2.8,3.6-1.4,1.7-2.8,3.5-4.1,5.3-.6.8-1.3,1.7-1.9,2.5-3.2,4.2-6.3,8.5-9.3,12.8-.5.7-1,1.4-1.5,2.2l-3.9,5.7L64,497.1l-1.8,2.7c-.7,1.2-1.5,2.3-2.2,3.4l-.6,1-1.6,2.5a9.224,9.224,0,0,0-.5.8c-.9,1.5-1.9,3-2.8,4.5l-1.9,3.1c-2.4,4.1-4.8,8.3-7.1,12.5-1.2,2.2-2.4,4.4-3.5,6.6l-1.2,2.4c-.4.8-1,1.9-1.5,2.9a363.931,363.931,0,0,0-21.6,51.1c-7.2,21.1-14.4,42.6-17,65.1-.3,2.6-.5,5.1-.7,7.8H23.9c2.3-1.7,11.8-7.4,11.7-8.8-.3-3.6-.5-7-.8-10.3a62.807,62.807,0,0,1-19.4,8.7c-1,.3.2-.9.3-1.2.5-1.5,2.9-3.2,4-4.4,2.4-2.4,5.9-7,9.1-7.8,1.9-.5,3.8-1,5.7-1.7-1.2-22.2-.4-41.6,6.8-63.7,3.1-9.5,6.5-18.9,10.2-28.1,2.4-6,5-12,7.7-17.9l3-6.3a400.556,400.556,0,0,1,66.1-97.4c2.6-2.8,4.7-5,7.1-7.4l1.7-1.7h.1l.1-.1h.1l.1-.2.1-.1.4-.4,2.3-2.3.9-.9.1-.1.1-.1.2-.1.2-.1h0l2.2-2c.7-.7,1.5-1.3,2.2-2C139,412.2,131.8,417.6,124.6,423Z" fill="#f87e7d"/>
      <path id="Path_507" d="M137.2,415.4Z" fill="#d87777"/>
      <path id="Path_508" d="M138,414.6l-.4.4Z" fill="#d87777"/>
      <path id="Path_509" d="M141.7,411.2l-.1.1-.1.1.1-.1Z" fill="#d87777"/>
      <path id="Path_510" d="M141.9,410.9Z" fill="#d87777"/>
      <path id="Path_511" d="M144.1,408.9l-2.2,2h0Z" fill="#d87777"/>
      <path id="Path_512" d="M137.2,415.5Z" fill="#d87777"/>
      <path id="Path_513" d="M137.2,415.4Z" fill="#d87777"/>
      <path id="Path_944" data-name="Path 944" d="M425,215.9v3.7a144.541,144.541,0,0,1-13.9,7.7c.1,0,.1-.1.2-.1h0a14.311,14.311,0,0,1,1.5-1.1c3.2-2.5,6.3-5.1,9.4-7.7Z" fill="#f87e7d"/>
    </g>
    <path id="Path_945" data-name="Path 945" d="M425,265.1V663.4H96.7C152.9,400.2,317.5,335.2,425,265.1Z" fill="#f87e7d"/>
    <path id="Path_946" data-name="Path 946" d="M425,7.4V6.6" fill="#fff"/>
    <path id="Path_947" data-name="Path 947" d="M425,7.4V6.6" fill="#fff"/>
  </g>
</svg>
