<svg xmlns="http://www.w3.org/2000/svg" width="426.212" height="654.156" viewBox="0 0 426.212 654.156">
  <g id="Yellow_Section_BG" transform="translate(-493.3 -1001.944)">
    <g id="Group_156" data-name="Group 156" transform="translate(569.112 1001.944)">
      <g id="Group_155" data-name="Group 155">
        <path id="Path_516" d="M127.1,308.5a19.092,19.092,0,0,1-3.3-.6C124.9,308.2,126,308.3,127.1,308.5Z" fill="#fcb2b2"/>
        <path id="Path_517" d="M117.2,305.8l-2.1-.9A22.028,22.028,0,0,1,117.2,305.8Z" fill="#fcb2b2"/>
        <path id="Path_518" d="M114.2,304.3a56.45,56.45,0,0,1-5.8-3.6A31.279,31.279,0,0,0,114.2,304.3Z" fill="#fcb2b2"/>
        <path id="Path_519" d="M108.3,300.7a54.582,54.582,0,0,1-5.5-4.3A54.585,54.585,0,0,0,108.3,300.7Z" fill="#fcb2b2"/>
        <path id="Path_520" d="M58.9,44c.2.1.4.3.6.4h0a102.524,102.524,0,0,1,6.8,9.1,119.234,119.234,0,0,1,9.9,21.1C97,132,88.5,194.9,85.7,254.5c-.3,7.2-.8,14.6,1.3,21.6,1.7,5.8,5.3,10.4,9.5,14.5l1.2,1.2h0c2.1,1,4.2,1.8,6.4,2.6l-.9-.4a29.263,29.263,0,0,1-3.1-5.8c-2.7-7.4-2-15.6-1.7-23.3.8-15.1,1.8-30.2,2.6-45.2,1.6-29.9,2.6-60.1-1.6-89.9C95.7,102.4,88.3,71.5,69,51.2c-1.3-1.4-2.6-2.7-4-4l-3.6-1.8a12.81,12.81,0,0,0-2-1.1c-.1-.1-.2-.1-.2-.2A.367.367,0,0,1,58.9,44Z" fill="#fcb2b2"/>
        <path id="Path_524" d="M155.1,280.2c8.7-8.7,15.5-19.4,22.1-29.9.2-.4,13.7,9.5,12.7,11.1-5.5,8.9-11.9,18.6-19.5,27Z" fill="#d87777"/>
        <path id="Path_525" d="M164.6,294.2c-9.8,9-21.3,15.1-35.2,14.5a4.868,4.868,0,0,1-1.2-.1,4.868,4.868,0,0,0-1.2-.1l-.8-.1c-.6-.1-1.1-.2-1.7-.3l-.8-.2h-.1l-.8-.2-.4-.1-.8-.2-.2-.1c-.3-.1-.7-.2-1-.3s-.6-.2-1-.3l-.2-.1-.8-.3-.2-.1-1-.4-2.1-.9c-.3-.2-.7-.3-1-.5a56.45,56.45,0,0,1-5.8-3.6c-.5-.3-.9-.7-1.4-1l-2.7-2.1-1.3-1.1-.1-.1c-.5-.4-1-.9-1.5-1.3-1.2-1.1-2.4-2.2-3.5-3.3,2.1,1,4.2,1.8,6.4,2.6a11.73,11.73,0,0,1,1.1.5l.2.1h.1l.6.2a1.421,1.421,0,0,0,.6.2l.9.3c13.7,4.6,28.4-.4,39.7-8.9.8-.5,1.4-1.1,2.2-1.7Z" fill="#d87777"/>
        <path id="Path_526" d="M104.1,294.4c.9.4,1.7.8,2.6,1.1a24.424,24.424,0,0,1-2.4-1Z" fill="#d87777"/>
        <path id="Path_527" d="M43.3,30.7c-.1,1.7-.3,3.4-.4,5.1a81.51,81.51,0,0,1,11.6,5.4c1.4.8,2.7,1.6,4,2.5l.3.2c.1.1.2.1.4.2.1.1.2.1.2.2a19.832,19.832,0,0,1,2,1.1L65,47.2a106.85,106.85,0,0,0-8-7.1,11.319,11.319,0,0,0-1.3-1l-.1-.1c-.6-.5-1.2-.9-1.8-1.4-.8-.6-1.5-1.2-2.3-1.7l-.8-.6c-.5-.4-1-.7-1.6-1.1s-1-.7-1.5-1c-.6-.4-1.2-.8-1.9-1.2a18.576,18.576,0,0,0-1.9-1.1A1.69,1.69,0,0,1,43.3,30.7Z" fill="#d87777"/>
        <path id="Path_528" d="M0,18.1s1.3,1.8,1.5,2a57.582,57.582,0,0,0,4.4,4.1c1.7,1.5,4.5,4.7,6.8,4.9,1.4.1,2.7.3,4,.5.1-2.9.2-5.8.4-8.8A160.249,160.249,0,0,0,0,18.1Z" fill="#d87777"/>
        <path id="Path_536" d="M98,244.5Z" fill="#bbdfff"/>
        <path id="Path_537" d="M97.8,244.3l.2.2h0l-.3-.3.1.1Z" fill="#bbdfff"/>
        <path id="Path_538" d="M97.4,244c-.1,0-.1-.1,0,0Z" fill="#bbdfff"/>
        <path id="Path_539" d="M97.7,244.2Z" fill="#bbdfff"/>
        <path id="Path_541" d="M164.6,294.2a81.055,81.055,0,0,0,5.8-5.9l-15.3-8.1c-1.8,1.8-3.7,3.5-5.6,5.1Z" fill="#d87777"/>
        <path id="Path_948" data-name="Path 948" d="M350.4,381.4v7.5c-48.6-28.3-100.5-50.2-150.5-75.8-11.8-6.1-23.7-12.3-35.3-18.9a39.669,39.669,0,0,0,2.9-2.9c1-1,1.9-2,2.9-3,3.9,2,7.7,4,11.6,5.9,56.3,28.6,114.8,53,168.4,87.2Z" fill="#ffecb7"/>
        <path id="Path_543" d="M86.6,238.4A361.7,361.7,0,0,0,117.5,264c10.3,7.6,21,14.7,32,21.3a54.72,54.72,0,0,0,5.6-5.1,484.072,484.072,0,0,1-53.2-32.8l-.8-.5-.1-.1-.7-.5-2.1-1.6h0a.1.1,0,0,1-.1-.1H98l-.1-.1h0C94.1,242.6,90.3,240.6,86.6,238.4Z" fill="#ffecb7"/>
        <path id="Path_552" d="M97.2,243.8Z" fill="#99cef6"/>
        <path id="Path_553" d="M97.2,243.8Z" fill="#99cef6"/>
        <path id="Path_554" d="M97.2,243.9Z" fill="#99cef6"/>
        <path id="Path_555" d="M97.3,244Z" fill="#99cef6"/>
        <path id="Path_556" d="M97.5,244.1Z" fill="#99cef6"/>
        <path id="Path_557" d="M45.2,0a2.975,2.975,0,0,1,1,2c-.7,6.2-2.4,22.5-2.9,28.7-1.8-1-3.7-2-5.6-2.9-.6-.3-1.2-.5-1.8-.8a98.219,98.219,0,0,0-18.8-6.1C17.3,17.3,18.7,4.3,19,0Z" fill="#f9db7d"/>
        <path id="Path_558" d="M43,35.9a495.185,495.185,0,0,0-.1,63.3,317.675,317.675,0,0,0,5.7,43.5,257.479,257.479,0,0,0,13.1,41.9c5.7,14.5,12.5,28.7,21.2,41.6,1.3,2,2.7,3.9,4.1,5.8a121.457,121.457,0,0,0,9.3,10.9l.2.3.2.1.1.1.4.4h0v.1h.1l.1.1.1.1h-.1l.1.1.1.1.1.1.1.1c-3.9-1.8-7.6-3.9-11.3-6h0c-1.7-1.6-3.4-3.2-5.1-4.9l-2.1-2.1c-1.6-1.6-3.2-3.3-4.8-5a15.378,15.378,0,0,1-1.2-1.3c-1.1-1.2-2.2-2.5-3.3-3.7a177.13,177.13,0,0,1-25.5-39.2A269.119,269.119,0,0,1,19.4,98.6a430.975,430.975,0,0,1-2.8-69.1A113.121,113.121,0,0,1,43,35.9Z" fill="#f9db7d"/>
        <path id="Path_559" d="M97.4,244Z" fill="#99cef6"/>
        <path id="Path_560" d="M97.3,244Z" fill="#99cef6"/>
        <path id="Path_561" d="M97.2,243.8Z" fill="#99cef6"/>
        <path id="Path_562" d="M16.8,29.6A119.141,119.141,0,0,1,43,35.9c.1-1.7.2-3.4.4-5.1-1.8-1-3.7-2-5.6-2.9-.6-.3-1.2-.5-1.8-.8A98.219,98.219,0,0,0,17.2,21C17,23.8,16.9,26.7,16.8,29.6Z" fill="#d87777"/>
      </g>
    </g>
    <path id="Path_949" data-name="Path 949" d="M919.5,1445.8v210.3H493.3V1002.2h30.5s-49.2,240.8,249.9,366C833.2,1393.1,881,1419.5,919.5,1445.8Z" fill="#f9db7d"/>
  </g>
</svg>
