<svg xmlns="http://www.w3.org/2000/svg" width="2500" height="1002.303" viewBox="0 0 2500 1002.303">
  <g id="Group_161" data-name="Group 161" transform="translate(290 0)">
    <rect id="Rectangle_73" data-name="Rectangle 73" width="2210" height="1002" transform="translate(-290)" fill="#f9f8f2"/>
    <g id="Red_Section_BG" data-name="Red Section BG">
      <g id="Layer_2" data-name="Layer 2" transform="translate(682.765)">
        <g id="Layer_2-2" data-name="Layer 2" transform="translate(0 0)">
          <path id="Path_491" data-name="Path 491" d="M467.946,302.742c-.511-5.182-1.211-10.329-2.082-15.475h0A319.427,319.427,0,0,0,453.9,240.175c-13.553-41.154-34.241-79.9-47.453-121.1-7.571-23.393-7.382-46.552,2.82-69.171A112.051,112.051,0,0,1,428.86,20.334a62.427,62.427,0,0,1,6.852-6.406.731.731,0,0,1,.189-.144c.776-.63,1.571-1.242,2.366-1.8s1.533-1.134,2.328-1.674c1.609-1.1,3.237-2.159,4.9-3.185.8-.5,1.609-.99,2.4-1.458l2.48-1.494c.833-.486,1.666-.954,2.517-1.4L455.586,1.3c.757-.414,1.5-.846,2.234-1.3h-9.843c-1.23.828-2.442,1.656-3.653,2.519s-2.858,2.015-4.278,3.059-2.385,1.8-3.577,2.663l-3.123,2.411h0l-.681.54q-3.786,2.969-7.571,6.154t-7.212,6.46c-1.174,1.1-2.328,2.213-3.464,3.329A143.624,143.624,0,0,0,385.4,66.076a92.17,92.17,0,0,0-8.84,56.521c3.577,20.334,12.72,39.894,20.651,58.969,16.6,39.93,34.7,79.914,42.437,122.49.776,4.247,1.628,8.8,2.347,13.532.4,2.573.776,5.182,1.079,7.828,1.59,14.4,1.23,29.259-6.152,40.776l-.095.144a84.18,84.18,0,0,0,13.931-6.28c1.476-1.4,2.9-2.825,4.278-4.265,14.215-14.7,14.745-32.8,12.947-51.735Z" transform="translate(335.138 0)" fill="#ffecb7"/>
          <path id="Path_492" data-name="Path 492" d="M408.066,203.59h0l-.416.234a3.834,3.834,0,0,1,.416-.234Z" transform="translate(363.957 162.763)" fill="#ffecb7"/>
          <path id="Path_493" data-name="Path 493" d="M37.774,735.487a160.287,160.287,0,0,0,20.291-13.316c15.9-12.11,30.872-25.66,39.333-43.6,16.941-35.989,8.915-76.891-4.372-112.629-1.893-5.057-3.786-10.095-5.925-15.115-2.953-7.324-6.038-14.612-9.086-21.918C66.355,500.8,55.4,472.441,54.468,441.868c-.625-20.658,3.672-41.388,15.313-59A91.731,91.731,0,0,1,79.056,371c.265-.306,4.543-3.923,3.786-3.6a32.162,32.162,0,0,1,2.915-1.8,167.473,167.473,0,0,1,31.818-14.72c24.966-8.853,51.333-13.406,77.435-18.139l83.4-15.08c5.678-1.008,12.247-8.3,16.373-11.769,2.252-1.8,5.792-4.085,7.193-6.586.284-.5,2.29-2.177.53-1.8-47.964,8.673-97.594,14.792-144.46,28.036-40.79,11.535-79.725,34.928-106.3,66.9C8.586,444.423,33.78,502.8,56.777,559.337c3.786,9.411,7.571,18.75,10.978,28.018A230.715,230.715,0,0,1,79.6,629.534c3.388,21.36,2.707,44.087-5.678,64.385a85.385,85.385,0,0,1-6.852,13.262,69.532,69.532,0,0,1-4.77,6.712c-.833.99-1.685,1.961-2.536,2.951l-.984.99h0a135.275,135.275,0,0,1-14.65,5.83c-2.328.828-4.656,1.565-7.022,2.249Z" transform="translate(25.219 237.809)" fill="#ffecb7"/>
          <path id="Path_494" data-name="Path 494" d="M429.647,0a241.445,241.445,0,0,0-33.6,27.136c1.666-1.008,3.331-2.051,4.921-3.113,5.376-3.6,10.846-7.2,16.562-10.311A128.791,128.791,0,0,1,437.2,1.3c.757-.414,1.5-.846,2.234-1.3Z" transform="translate(353.6 0)" fill="#f9db7d"/>
          <path id="Path_495" data-name="Path 495" d="M431.87,213.012l-39.409,20.964A969.6,969.6,0,0,1,277,231.547a32.636,32.636,0,0,1,3.047-3.761,103.379,103.379,0,0,1,8.745-7.522c2.783-2.213,9.786-9.393,13.723-9a961.338,961.338,0,0,0,129.355,1.745Z" transform="translate(247.31 168.888)" fill="#f9db7d"/>
          <path id="Path_496" data-name="Path 496" d="M471.621,200.09l-.151.144-2.366,2.231-2.574,2.321c-.871.774-1.741,1.53-2.65,2.285s-1.476,1.26-2.233,1.8-1.59,1.3-2.385,1.907l-1.325,1.026c-3.54,2.717-7.231,5.29-11.016,7.666-1.174.738-2.366,1.44-3.559,2.141-.89.522-1.76,1.026-2.669,1.512-.568.306-1.136.63-1.722.918-.984.522-1.987,1.044-2.991,1.53l-.814.4-1.457.684-1.893.882-1.325.558c-.89.4-1.8.756-2.726,1.116s-2.006.774-3.01,1.134c-20.67,7.36-43.27,8.871-65.094,10.527-2.5.2-5.016.378-7.571.522l34.071-20.946c5.678-.432,11.508-.954,17.262-1.512a220.405,220.405,0,0,0,35.831-5.848,109.127,109.127,0,0,0,15.748-5.4c.681-.306,1.42-.666,2.139-1.062h0l.416-.234h0a84.2,84.2,0,0,0,14.064-6.3Z" transform="translate(314.352 159.965)" fill="#f9db7d"/>
          <path id="Path_497" data-name="Path 497" d="M68.249,537.684c1.382-2.3,2.688-4.661,4.107-6.928.132-.216.265-.45.416-.666l-.644.738-.984.99h0a135.272,135.272,0,0,1-14.65,5.83,135.933,135.933,0,0,1-17.3,4.877c-5.678,1.224-12.114,8.188-16.373,11.768-2.006,1.692-6.284,4.247-7.174,6.586-.189.468-2.366,2.249-.549,1.8,19.591-4.193,36.531-12.6,52.261-24.149C67.663,538.26,67.947,537.954,68.249,537.684Z" transform="translate(12.839 423.789)" fill="#f9db7d"/>
          <path id="Path_498" data-name="Path 498" d="M280.069,297.438c-47.964,8.673-97.594,14.792-144.46,28.036A225.41,225.41,0,0,0,53.48,368.337,137.462,137.462,0,0,1,66.73,363.6a175.463,175.463,0,0,1,28.392-12.74c24.966-8.853,51.333-13.406,77.435-18.139l83.4-15.08c5.678-1.008,12.247-8.3,16.373-11.769,2.252-1.8,5.792-4.085,7.193-6.586C279.823,298.788,281.829,297.114,280.069,297.438Z" transform="translate(47.748 237.759)" fill="#f9db7d"/>
          <path id="Path_499" data-name="Path 499" d="M131,348.75Z" transform="translate(116.959 278.814)" fill="#fcb2b2"/>
          <path id="Path_500" data-name="Path 500" d="M131.144,348.7l-.114.09h0Z" transform="translate(116.986 278.774)" fill="#fcb2b2"/>
          <path id="Path_501" data-name="Path 501" d="M135.329,345.19l-.189.162h0Z" transform="translate(120.655 275.968)" fill="#fcb2b2"/>
          <path id="Path_502" data-name="Path 502" d="M408.311,180.442l-.587.486-.322.252h0c.681-.648-1.192.666-1.552,1.062l.435-.252a.735.735,0,0,1-.189.144l.4-.27.511-.342h.208l.965-.756h0Zm.719-.54h0l.095-.09Zm0,0h0s.076-.072.057-.036Zm.189-.162Z" transform="translate(362.35 143.696)" fill="#fcb2b2"/>
          <path id="Path_503" data-name="Path 503" d="M560.333,223.08c-28.392,16.789-57.6,32.39-87.335,47.128-98.237,48.586-201.452,88.732-292.175,150.076-8.063,5.4-15.37,10.635-22.714,16.2-13.25,7.954-26.2,16.2-39.219,24.311C143.1,440.312,168.368,421,194.224,402.775c91.764-64.655,194.96-108.6,296.4-157.039q21.616-10.311,42.929-21.162Q546.875,224.016,560.333,223.08Z" transform="translate(106.147 178.345)" fill="#fcb2b2"/>
          <path id="Path_504" data-name="Path 504" d="M398.786,211.44l-34.071,20.946q-13.382.918-26.745,1.44l39.446-20.964Q388.111,212.3,398.786,211.44Z" transform="translate(301.745 169.039)" fill="#f9db7d"/>
          <path id="Path_505" data-name="Path 505" d="M454.615,182.27c-14.575,11.5-29.66,22.313-44.671,32.678q-14.707,10.167-29.774,19.794-10.676.864-21.351,1.422c21.692-12.038,42.967-24.761,63.618-38.4h0a352.587,352.587,0,0,0,32.178-15.493Z" transform="translate(320.36 145.719)" fill="#fcb2b2"/>
          <path id="Path_506" data-name="Path 506" d="M225.075,365.751l-7.4,6.28q-3.54,3.077-7.079,6.172-3.9,3.419-7.742,6.91l-.132.108-7.571,6.874q-3.786,3.509-7.571,7.072c-2.5,2.357-5,4.751-7.458,7.2s-4.94,4.823-7.382,7.2q-3.994,4.1-8.063,8.188c-1.457,1.494-2.915,3.005-4.353,4.517s-3.407,3.6-5.073,5.4q-3.786,3.959-7.439,7.99c-1.174,1.278-2.328,2.537-3.464,3.815q-8.631,9.555-16.884,19.362c-.927,1.08-1.893,2.177-2.726,3.257q-3.54,4.283-7.041,8.637l-2.234,2.735c-1.1,1.368-2.177,2.753-3.256,4.139-1.344,1.8-2.669,3.419-3.994,5.146l-1.155,1.53-2.9,3.833c-.322.432-.644.846-.946,1.278q-2.536,3.4-5,6.8l-3.35,4.679c-4.391,6.19-8.688,12.47-12.814,18.822q-3.275,4.93-6.379,9.951c-.776,1.188-1.514,2.393-2.252,3.6s-1.893,2.9-2.669,4.355a558.662,558.662,0,0,0-38.86,77.251c-12.966,31.887-25.932,64.313-30.664,98.4C.7,721.128.3,725.014,0,728.973H43.213c4.164-2.627,21.37-11.229,21.162-13.334-.511-5.4-.984-10.545-1.382-15.619a127.162,127.162,0,0,1-35.055,13.154c-1.893.4.36-1.386.549-1.8.89-2.339,5.167-4.894,7.174-6.586,4.259-3.6,10.657-10.545,16.373-11.768,3.464-.738,6.871-1.566,10.259-2.537-2.158-33.6-.7-62.783,12.36-96.235q8.4-21.594,18.417-42.431,6.549-13.64,13.893-26.992c1.76-3.185,3.54-6.334,5.376-9.483A614.426,614.426,0,0,1,231.832,368.2c4.637-4.157,8.518-7.522,12.833-11.157l3.161-2.627h.114l.17-.144h.095l.265-.234.114-.09.662-.54,4.24-3.4,1.666-1.314.227-.18.133-.126.284-.216.284-.216h0l3.975-3.059c1.325-1.026,2.631-2.015,3.956-3.005C251.12,349.394,238.1,357.563,225.075,365.751Z" transform="translate(0 273.33)" fill="#f87e7d"/>
          <path id="Path_507" data-name="Path 507" d="M131,348.75Z" transform="translate(116.959 278.814)" fill="#d87777"/>
          <path id="Path_508" data-name="Path 508" d="M132.092,348.1l-.662.54Z" transform="translate(117.343 278.294)" fill="#d87777"/>
          <path id="Path_509" data-name="Path 509" d="M135.436,345.19l-.189.162-.227.18.133-.126Z" transform="translate(120.548 275.968)" fill="#d87777"/>
          <path id="Path_510" data-name="Path 510" d="M135.43,345Z" transform="translate(120.914 275.816)" fill="#d87777"/>
          <path id="Path_511" data-name="Path 511" d="M139.425,343.31l-3.975,3.077h0Z" transform="translate(120.932 274.465)" fill="#d87777"/>
          <path id="Path_512" data-name="Path 512" d="M131,348.8Z" transform="translate(116.959 278.854)" fill="#d87777"/>
          <path id="Path_513" data-name="Path 513" d="M131,348.75Z" transform="translate(116.959 278.814)" fill="#d87777"/>
          <path id="Path_514" data-name="Path 514" d="M406.64,180.94h0a.887.887,0,0,1,.227-.162,1.041,1.041,0,0,0-.227.162Zm.965-.81Zm-.965.756Z" transform="translate(363.055 144.008)" fill="#d87777"/>
          <path id="Path_515" data-name="Path 515" d="M483.933,0H422.89c-4.486,4.139-7.193,7.414-6.3,8.6A307.279,307.279,0,0,1,470.816,128.41c10.145,48.586,11.7,97.6-11.357,143.31a190.794,190.794,0,0,1-38.121,51.375c-.416.414-.7.684-.871.882h0l.568-.432h0l.133-.108h.114l-.189.144h0l-.095.09h0l-.587.45h0a.459.459,0,0,0-.095.18l-.36.234-.246.18a.888.888,0,0,0-.227.162h-.114l-.511.342-.4.27-.208.162-5.887,4.265q-8.347,5.938-16.922,11.625c-.965.666-1.893,1.3-2.934,1.943a352.573,352.573,0,0,0,32.178-15.493l.265-.144c6.246-4.931,12.4-9.987,18.379-15.169l4.032-3.6c2.726-2.447,5.432-4.931,8.082-7.432,1.722-1.638,3.445-3.293,5.148-4.967l.17-.162c1.628-1.62,3.256-3.257,4.865-4.913,1.136-1.17,2.271-2.339,3.369-3.6s2.574-2.735,3.786-4.121c2.688-2.951,5.319-5.974,7.855-9,1.041-1.242,2.063-2.483,3.066-3.761,1.476-1.8,2.934-3.707,4.353-5.6,1.117-1.476,2.234-2.987,3.312-4.5,30.1-42.036,39.6-92.421,32.538-142.356C517.947,77.107,505.246,36.763,483.933,0Z" transform="translate(350.439 0)" fill="#f87e7d"/>
        </g>
      </g>
      <path id="Path_472" data-name="Path 472" d="M2745.454-423.515s145.454,116.8,0,295.633-633.333,190.368-772.727,706.67H3385v-1002.3Z" transform="translate(-1175 423.515)" fill="#f87e7d"/>
      <g id="Group_86" data-name="Group 86" transform="translate(-5318.201 -308.581)" opacity="0.09">
        <g id="Group_70" data-name="Group 70" transform="translate(6889.201 612.232)">
          <path id="Path_398" data-name="Path 398" d="M0,0H349.214L0,349.214Z" transform="translate(0)" fill="#fff"/>
          <path id="Path_399" data-name="Path 399" d="M0,0H349.214L0,349.214Z" transform="translate(0 349.214)" fill="#fff"/>
        </g>
      </g>
    </g>
  </g>
</svg>
