<svg xmlns="http://www.w3.org/2000/svg" width="2500" height="1778.805" viewBox="0 0 2500 1778.805">
  <g id="Group_163" data-name="Group 163" transform="translate(290 -1838.649)">
    <rect id="Rectangle_75" data-name="Rectangle 75" width="2500" height="1778" transform="translate(-290 1839)" fill="#f9f8f2"/>
    <g id="Blue_Section_BG" data-name="Blue Section BG" transform="translate(0)">
      <g id="Layer_2" data-name="Layer 2" transform="translate(-0.006 1839)">
        <g id="Layer_1" data-name="Layer 1" transform="translate(0.006)">
          <path id="Path_563" data-name="Path 563" d="M588.354,854.1q-4.676,3.669-9.244,7.509Q583.688,857.749,588.354,854.1Z" transform="translate(-15.03 -0.161)" fill="#2788c4"/>
          <path id="Path_564" data-name="Path 564" d="M948.895,801.276c-4.938,9.878-13.247,18.656-22.812,24.915a69.855,69.855,0,0,0,7.189-4,64.549,64.549,0,0,1-9.3,5c-22.939,9.908-48.138,2.35-70.619-4.909-24.907-8-49.959-13.168-76.132-13.757-51.469-1.16-102.7,12.308-150,32.414a290.026,290.026,0,0,0-34.822,17.3c-4.578,2.73-9.059,5.6-13.384,8.708h-.058l-.2.15-.136.1-.195.15a2.629,2.629,0,0,1-.263.2c4.354-5.359,8.611-11,13.393-16a292.642,292.642,0,0,1,48.8-30.554c46.122-22.7,97.552-37.763,148.738-40.462a252.435,252.435,0,0,1,74.583,6.729c24.361,6.109,48.635,18.417,74.408,16A58.123,58.123,0,0,0,948.895,801.276Z" transform="translate(-15.005 -0.147)" fill="#ffecb7"/>
          <path id="Path_565" data-name="Path 565" d="M519.075,986.64a209.727,209.727,0,0,0-.409,53.45c.2,1.66-2.922,4.129-3.9,5.209-3.546,3.7-7.393,7.1-11.25,10.448s-7.792,6.579-11.874,9.478l-.1.07c-.75.5-5.591,3.769-5.679,3.069a211.935,211.935,0,0,1,1.675-61.8q14.991-9.708,30.2-19.076Z" transform="translate(-12.572 -0.186)" fill="#f9db7d"/>
          <path id="Path_566" data-name="Path 566" d="M589.165,851.67c-4.783,5-9.039,10.628-13.393,16h0l-2.386,2.45c-2.036,2.13-1.763,1.84-3.662,4-3.244,3.689-6.38,7.489-9.331,11.438a219,219,0,0,0-39.566,91.113q-15.78,10.108-31.335,20.576a223.489,223.489,0,0,1,27.77-69.257c12.945-21.106,29.436-39.392,47.563-55.909q3.244-3,6.536-5.819l2.435-2.11,3.039-2.58q4.559-3.829,9.244-7.509l.185-.15Z" transform="translate(-12.705 -0.161)" fill="#f9db7d"/>
          <path id="Path_567" data-name="Path 567" d="M976.455,751.557q14.9-7.829,29.738-15.777-1.948,7.079-4.442,14c-4.783,13.4-10.715,26.665-19.725,37.663-7.529,9.208-16.734,17.157-25.881,24.6-2.425,2-4.87,4-7.442,5.839-.847.63-1.7,1.24-2.562,1.85l-1.3.9-1.149.77-1.159.75-1.753,1.09c-1.773,1.06-3.585,2-5.435,2.939,9.565-6.259,17.874-15,22.812-24.915l.244-.07a162.829,162.829,0,0,0,12.76-29.994,189.683,189.683,0,0,0,5.289-19.636Z" transform="translate(-24.273 -0.139)" fill="#f9db7d"/>
          <path id="Path_568" data-name="Path 568" d="M1010.585,722.429q-10.169,5.349-20.367,10.638L980,738.366a206.229,206.229,0,0,0,1.461-45.581c-.136-1.73,2.854-4.089,3.9-5.219,3.546-3.689,7.383-7.089,11.241-10.438s7.792-6.579,11.874-9.488h0c.6-.39,5.669-3.789,5.727-3.1a206.29,206.29,0,0,1-3.614,57.889Z" transform="translate(-25.431 -0.125)" fill="#f9db7d"/>
          <path id="Path_569" data-name="Path 569" d="M143.663,1520a7.8,7.8,0,0,1-1.023,1.7,92.588,92.588,0,0,0-7.188,10.738h0l-4.588,3.9c-18.731,16-37.53,31.824-56.184,47.871l-3.37,2.909-.175.16-.185.16-.127.11-.078.08-2.435,2.18-.117.11a2.281,2.281,0,0,0-.292.26c-.877.82-1.734,1.66-2.6,2.49l-.292.28-.1.1-.1.1-.195.19-.117.12h0a.227.227,0,0,0-.068.07l-.156.15c-1.247,1.28-2.922,3-3.341,3.459a125.311,125.311,0,0,0-8.4,10.138,5.484,5.484,0,0,1,.312-.57,154.736,154.736,0,0,1,10.91-15.5c1.8-2.319,3.448-4.729,5.085-7.159,2.114-1.83,4.237-3.639,6.351-5.449q29.514-25.205,59.115-50.341c2.143-1.82,4.412-3.589,6.516-5.479l.117-.11.76-.75c.565-.54.974-.87,1.13-1h.049l.468-.51Z" transform="translate(-1.369 -0.287)" fill="#ffecb7"/>
          <path id="Path_570" data-name="Path 570" d="M49.506,1601.2q-3.117,2.919-6.146,5.929Q46.389,1604.109,49.506,1601.2Z" transform="translate(-1.13 -0.302)" fill="#99cef6"/>
          <path id="Path_571" data-name="Path 571" d="M147,1519.1Z" transform="translate(-3.819 -0.287)" fill="#99cef6"/>
          <path id="Path_572" data-name="Path 572" d="M147,1519.09h.01l-.01.01Z" transform="translate(-3.819 -0.287)" fill="#99cef6"/>
          <path id="Path_573" data-name="Path 573" d="M147,1519.08Z" transform="translate(-3.819 -0.287)" fill="#99cef6"/>
          <path id="Path_574" data-name="Path 574" d="M162.294,1190.67l2.221-1.79c-.75.62-1.51,1.23-2.26,1.83h0l-5.085,4c2.406-1.89,4.695-3.9,6.935-6h0l-.127.13-.058.06h-.049l-.234.25h0l-.058.06-.078.08-.1.1-.068.07C162.849,1190,162.576,1190.35,162.294,1190.67Z" transform="translate(-4.083 -0.224)" fill="#99cef6"/>
          <path id="Path_575" data-name="Path 575" d="M164.3,1188.73Z" transform="translate(-4.268 -0.224)" fill="#99cef6"/>
          <path id="Path_576" data-name="Path 576" d="M172.75,1182.069c.974-1,2.007-1.93,2.971-2.93C174.757,1180.15,173.763,1181.12,172.75,1182.069Z" transform="translate(-4.487 -0.223)" fill="#99cef6"/>
          <path id="Path_577" data-name="Path 577" d="M65.028,1723.6c1.071.78-13.987,14.627-15.176,15.647-2.221,1.93-4.49,3.849-6.818,5.689-.682.55-1.373,1.08-2.065,1.61-.974.77-2.046,1.53-3.078,2.26.078,0-4.753,3.749-5.679,3.069-17.591-13-28.988-33.494-31.657-55.52-2.815-23.256,5.425-45.4,19.1-63.678,1.646-2.2,3.331-4.349,5.075-6.469.516-.64,1.032-1.27,1.558-1.89q2.055-2.46,4.188-4.839c.633-.71,1.266-1.42,1.948-2.12q3.341-3.669,6.818-7.219,1.49-1.51,3.01-3,3.039-3,6.146-5.929c1.88-1.77,3.77-3.509,5.679-5.249l3.77-3.389q4.783-4.259,9.614-8.408c-1.636,2.43-3.283,4.839-5.085,7.159a154.727,154.727,0,0,0-10.909,15.5,5.505,5.505,0,0,0-.312.57h0l-1.179,1.6q-1.081,1.5-2.1,3-1.227,1.85-2.386,3.739c-.545.89-1.081,1.78-1.578,2.689-.38.66-.75,1.32-1.11,2C24.03,1655.217,33.362,1700.208,65.028,1723.6Z" transform="translate(-0.006 -0.299)" fill="#f9db7d"/>
          <path id="Path_578" data-name="Path 578" d="M46.658,1615.75c-.536.89-1.071,1.78-1.578,2.689C45.577,1617.53,46.112,1616.64,46.658,1615.75Z" transform="translate(-1.175 -0.305)" fill="#99cef6"/>
          <path id="Path_579" data-name="Path 579" d="M195.665,1420.073c-4.87-20.756-18.371-37.353-31.1-53.59a208.128,208.128,0,0,1-19.851-29.514A492.139,492.139,0,0,0,122.8,1382.96c8.913,12.3,19.052,23.716,27.273,36.553,11.893,18.6,17.465,39.992,13.51,62.108a78.112,78.112,0,0,1-12.049,29.964,67.974,67.974,0,0,1-4.87,6.289l-.507.59-.244.28h0l-.185.22h0l-.653.7-.224.24a7.8,7.8,0,0,1-1.023,1.7,92.585,92.585,0,0,0-7.188,10.738l1.4-1.19q5.25-4.469,10.442-9c.838-.73,1.675-1.46,2.5-2.2s1.49-1.32,2.221-2q.37-.31.731-.66c.818-.73,1.636-1.47,2.445-2.229q1.588-1.44,3.175-2.93c1.276-1.19,2.533-2.4,3.789-3.609,8.913-8.658,17.718-17.9,23.884-28.885a84.688,84.688,0,0,0,8.435-59.569ZM133.9,1310.154c-6.409-23.586-6.429-49.2.769-72.616a132.254,132.254,0,0,1,13.939-30.544,116.52,116.52,0,0,1,9.555-13.357c.614-.73,1.091-1.29,1.52-1.78.156-.18.3-.36.458-.52h0l.536-.59-5.085,4c1.2-.94,2.377-1.92,3.526-2.919s2.26-2,3.36-3l-.127.13-.058.06h-.049l-.234.25h0l-.058.06-.078.08-.1.1-.068.07c-.341.38-.653.7-.974,1l2.221-1.79c.682-.55,1.364-1.11,2.036-1.68l.818-.69,1.607-1.38c.731-.64,1.461-1.29,2.172-1.94l1.2-1.12c.974-1,2.007-1.93,2.971-2.93.331-.35.672-.7.974-1.05s.653-.7.974-1.06l.916-1q.5-.57.974-1.14c.7-.86,2.7-2.7.692-2.6-2.445.12-6.653,4.319-8.279,5.589-21.955,17.227-43.579,36.683-57.294,61.708a132.987,132.987,0,0,0-.974,125.976q11.874-22.466,25.968-43.742a118.123,118.123,0,0,1-3.809-11.578Zm28.6-121.4Z" transform="translate(-2.505 -0.221)" fill="#f9db7d"/>
          <path id="Path_580" data-name="Path 580" d="M139.063,1531.29l-1.4,1.2h0Z" transform="translate(-3.577 -0.289)" fill="#99cef6"/>
          <path id="Path_581" data-name="Path 581" d="M147,1519.1Z" transform="translate(-3.819 -0.287)" fill="#99cef6"/>
          <path id="Path_582" data-name="Path 582" d="M162.225,1190.74l-5.085,4c2.406-1.89,4.695-3.9,6.935-6h0l-.127.13-.058.06h-.049l-.234.25h0l-.058.06-.078.08-.1.1-.068.07c-.341.38-.653.7-.974,1h0Z" transform="translate(-4.082 -0.224)" fill="#99cef6"/>
          <path id="Path_583" data-name="Path 583" d="M164.3,1188.73Z" transform="translate(-4.268 -0.224)" fill="#99cef6"/>
          <path id="Path_584" data-name="Path 584" d="M1506.686,230.41a59.28,59.28,0,0,1-9.117,12.928c-1.724,1.87-3.575,3.619-5.474,5.309a185.9,185.9,0,0,1-17.309,11.118c-19.043,10.728-39.1,19.416-58.862,28.625-9.74,4.549-19.481,9.208-28.958,14.347a226.4,226.4,0,0,0-23.1,14.247c3.263-4.679,6.594-9.428,10.227-13.827h0c3.945-3,7.939-6,11.932-8.808,17.377-12.358,36.157-22.356,55.307-31.354,18.585-8.808,37.5-16.927,55.735-26.515,2.99-1.57,5.951-3.2,8.854-4.929Z" transform="translate(-35.39 -0.043)" fill="#ffecb7"/>
          <path id="Path_585" data-name="Path 585" d="M1325.006,582.51c-1.11,11.7-4.87,22.6-12.273,31.654-6.818,8.348-15.3,15.537-23.592,22.3-6.3,5.139-12.857,10.388-20.455,13.467-2.211.9.38-2.2.7-2.6a91.828,91.828,0,0,1,9.244-9.138c2.591-2.37,5.25-4.689,7.977-6.929.429-.85.828-1.71,1.208-2.57a58.6,58.6,0,0,0,4.393-18.827c1.179-14.187-.536-28.664-1.656-42.8l-.584-7.249L1322.8,531.5q.448,5.609.9,11.218C1324.763,555.875,1326.253,569.313,1325.006,582.51Z" transform="translate(-32.898 -0.1)" fill="#f9db7d"/>
          <path id="Path_586" data-name="Path 586" d="M1372.074,303.15c-3.633,4.4-6.964,9.148-10.227,13.827h0a100.44,100.44,0,0,0-6.955,8.218,146.974,146.974,0,0,0-16.822,28.495c-21.02,45.991-20.64,98.1-17.085,147.682.575,8,1.227,16,1.88,24L1290.1,554.363c-2.075-25.245-4.14-50.51-3.8-75.856.594-44.062,9.224-90.293,35.68-126.116.565-.77,1.14-1.54,1.724-2.3s.974-1.29,1.5-1.93c.341-.44.682-.87,1.033-1.3s.75-.94,1.13-1.4.925-1.14,1.393-1.7q1.4-1.69,2.854-3.349c.438-.5.867-1,1.315-1.5q3.721-4.2,7.666-8.218l1.558-1.57c.516-.53,1.042-1.05,1.568-1.56l1.821-1.78c.9-.87,1.8-1.74,2.718-2.59l.555-.52c.857-.8,1.724-1.6,2.6-2.39q5.133-4.669,10.471-9.068c1.1-.92,2.211-1.82,3.331-2.72l2.922-2.32q1.169-.93,2.338-1.83l1.179-.92Z" transform="translate(-33.377 -0.057)" fill="#f9db7d"/>
          <path id="Path_587" data-name="Path 587" d="M1374.357,303.13h0l-.477.35Z" transform="translate(-35.65 -0.057)" fill="#99cef6"/>
          <path id="Path_588" data-name="Path 588" d="M1578.08,27.57a848.581,848.581,0,0,0-17.406,90.413c-1.948,14.2-3.234,28.455-4.87,42.692-1.52,13.437-3.9,27.315-10.52,39.213-7.393,13.277-19.315,23.875-30.585,33.574q-3.565,3.079-7.218,6c-.711.59-1.432,1.17-2.153,1.74l-2.494,1.95c-1.208.94-2.435,1.87-3.662,2.779s-2.455,1.82-3.7,2.71a68.018,68.018,0,0,0,5.474-5.309,59.281,59.281,0,0,0,9.117-12.928c.721-1,1.432-2,2.114-3.1l.672-1.07c.214-.34.419-.68.623-1a37.828,37.828,0,0,0,1.822-3.5,78.73,78.73,0,0,0,4.987-15.487c2.591-11.878,3.322-24.1,4.617-36.163q2.065-19.1,4.978-38.053,5.9-38.413,15.341-76.116c.516-2.07,2.513-3.739,3.9-5.219,3.546-3.7,7.393-7.089,11.25-10.438s7.792-6.569,11.864-9.478h0C1572.79,30.469,1578.206,27.06,1578.08,27.57Z" transform="translate(-38.805 -0.005)" fill="#f9db7d"/>
          <path id="Path_589" data-name="Path 589" d="M1010.522,722.44q-1.383,6.719-3.234,13.338-14.835,8-29.738,15.777,1.412-6.559,2.386-13.178l10.247-5.3Q1000.392,727.779,1010.522,722.44Z" transform="translate(-25.368 -0.136)" fill="#f9db7d"/>
          <path id="Path_590" data-name="Path 590" d="M520.717,976.74q-.906,4.929-1.568,9.9h0l-1.373.85q-15.186,9.378-30.2,19.076.789-4.649,1.8-9.248Q504.928,986.848,520.717,976.74Z" transform="translate(-12.656 -0.184)" fill="#f9db7d"/>
          <path id="Path_591" data-name="Path 591" d="M333.965,1113.048A1477.312,1477.312,0,0,1,484.777,997.32q-.974,4.6-1.8,9.248c-57.7,37.293-113.166,78.285-163.846,125.2q-4.52,4.179-9.02,8.428l1.841-2.22c6.877-8.388,14.241-16.287,21.429-24.4Z" transform="translate(-8.051 -0.188)" fill="#bbdfff"/>
          <path id="Path_592" data-name="Path 592" d="M968.065,738.38q-.974,6.629-2.357,13.177l-13.052,6.819q-34.4,17.907-69.1,35.323-23.767,12-47.6,23.845C729.061,870.895,621.915,923.725,520,986.593q.662-5,1.568-9.9,12.01-7.709,24.147-15.2c88.308-54.58,180.541-101.681,273.154-147.972h0q24.6-12.328,49.239-24.605h0C901.508,772.214,934.87,755.487,968.065,738.38Z" transform="translate(-13.497 -0.139)" fill="#bbdfff"/>
          <path id="Path_593" data-name="Path 593" d="M1283.28,559.819c-33.673,27.515-69.392,52.52-105.266,76.066-55.024,36.093-112.016,68.827-169.934,99.861q1.841-6.619,3.234-13.338c66.07-34.733,131.225-71.427,193.837-112.479,26.524-17.407,52.959-35.4,77.73-55.45Z" transform="translate(-26.16 -0.105)" fill="#bbdfff"/>
          <path id="Path_594" data-name="Path 594" d="M1323.424,531.5,1290.6,559.814l-.438-5.339,32.767-28.995Z" transform="translate(-33.478 -0.099)" fill="#f9db7d"/>
          <path id="Path_595" data-name="Path 595" d="M1345.19,511.64q-10.228,10.148-20.894,19.856l-.5-6c.526-.5,1.052-1,1.578-1.54h0Q1335.42,518,1345.19,511.64Z" transform="translate(-34.351 -0.097)" fill="#bbdfff"/>
          <path id="Path_596" data-name="Path 596" d="M1356.2,501.05q-5.162,5.349-10.442,10.588Q1351.049,506.409,1356.2,501.05Z" transform="translate(-34.921 -0.095)" fill="#705613"/>
          <path id="Path_597" data-name="Path 597" d="M1385.656,467.242l-2.922,3.509-2.357,2.8c-.886,1.05-1.773,2.09-2.669,3.129s-1.821,2.11-2.727,3.159c-1.325,1.51-2.649,3-3.974,4.509l-.565.63q-1.695,1.89-3.4,3.769-5.611,6.179-11.4,12.208-5.162,5.339-10.442,10.588-9.74,6.329-19.783,12.258c1.325-1.31,2.649-2.63,3.964-4l2.922-3c.74-.76,1.471-1.53,2.2-2.3.244-.25.487-.51.721-.77.5-.51.974-1,1.461-1.54q2.182-2.31,4.315-4.669c1.266-1.4,2.523-2.8,3.779-4.219s2.494-2.829,3.721-4.259,2.464-2.869,3.672-4.319q3.653-4.329,7.169-8.768c1.1-1.36,2.172-2.729,3.234-4.109.166-.2.312-.4.467-.6q1.636-2.11,3.244-4.249t3.39-4.549q1.49-2,2.922-4.059c.146-.19.283-.38.419-.58q1.461-2.04,2.922-4.1l.808-1.17c.916-1.32,1.831-2.639,2.727-4,1.062-1.57,2.124-3.159,3.166-4.749C1469.3,322.039,1482.662,155.371,1471.713,1a1.953,1.953,0,0,1,.214-1h34.257q.77,15,1.188,29.934C1511.542,183.875,1484.892,346.165,1385.656,467.242Z" transform="translate(-34.393)" fill="#99cef6"/>
          <path id="Path_598" data-name="Path 598" d="M1329.52,519.918q5.952-6,11.689-12.308Q1335.481,513.9,1329.52,519.918Z" transform="translate(-34.499 -0.096)" fill="#f9db7d"/>
          <path id="Path_599" data-name="Path 599" d="M1353,494.808q3.653-4.329,7.169-8.768Q1356.623,490.479,1353,494.808Z" transform="translate(-35.109 -0.092)" fill="#f9db7d"/>
          <path id="Path_600" data-name="Path 600" d="M145.121,1337a492.163,492.163,0,0,0-21.916,45.991,148.545,148.545,0,0,1-10.237-15.9c-.282-.51-.565-1-.828-1.55q11.874-22.466,25.968-43.742a130.811,130.811,0,0,0,7.013,15.2Z" transform="translate(-2.915 -0.249)" fill="#f9db7d"/>
          <path id="Path_601" data-name="Path 601" d="M141.925,1778.712H92.8q-1.86-3.679-3.594-7.429c-19.861-42.772-36.6-115.358-37.823-162.469q-.117-4.539-.136-9.1a459.377,459.377,0,0,1,6.127-75.816A515.109,515.109,0,0,1,110.6,1365.61c.263.52.545,1,.828,1.55a148.554,148.554,0,0,0,10.237,15.9c-24.351,58.729-38.524,124.107-37.988,188.284,0,1.69,0,3.369.078,5.059C85.1,1639.128,107.1,1722.932,141.925,1778.712Z" transform="translate(-1.335 -0.258)" fill="#99cef6"/>
          <path id="Path_602" data-name="Path 602" d="M328.937,1113.62c-7.169,8.109-14.533,16-21.429,24.4l-1.822,2.2h0q-2.435,2.28-4.87,4.589l-1.062,1c-1.646,1.57-3.292,3.139-4.929,4.729s-3.429,3.3-5.133,5l-.516.5q-2.571,2.49-5.124,5t-5,5l-4.637,4.649-3.107,3.149c-15.2,15.447-30.011,31.394-44.212,47.881-1.656,1.91-3.292,3.829-4.929,5.769q-13.7,16.177-26.475,32.994-2.046,2.68-4.042,5.389-10.9,14.7-20.962,29.9l-1.8,2.76c-.36.54-.711,1.08-1.062,1.63-.692,1-1.373,2.11-2.046,3.169q-7.12,11.128-13.7,22.536c-2.114,3.669-4.2,7.379-6.214,11.138a130.828,130.828,0,0,1-7.013-15.167q5.036-7.619,10.364-15.067,26.621-37.153,56.768-71.427c1.821-2.079,3.653-4.159,5.494-6.219q13.793-15.507,28.189-30.484c1.948-2,3.838-4,5.766-6q5.6-5.779,11.27-11.448,1.831-1.85,3.672-3.659c.857-.87,1.724-1.72,2.581-2.569q2.922-2.91,5.913-5.809,6.672-6.539,13.422-12.937,2.25-2.14,4.51-4.279Q307.566,1132.346,328.937,1113.62Z" transform="translate(-3.608 -0.21)" fill="#99cef6"/>
        </g>
      </g>
      <path id="Path_476" data-name="Path 476" d="M2765,1466.667S2869,1796,2551.3,2069.7,1175.757,2542.424,1421.212,3245.454H3428V1466.667Z" transform="translate(-1218 372)" fill="#99cef6"/>
      <g id="Group_89" data-name="Group 89" transform="translate(1270 2470.957)" opacity="0.12">
        <g id="Group_70" data-name="Group 70" transform="translate(0)">
          <path id="Path_398" data-name="Path 398" d="M0,0H316.05L0,316.049Z" fill="#fff"/>
          <path id="Path_399" data-name="Path 399" d="M0,0H316.05L0,316.049Z" transform="translate(0 316.049)" fill="#fff"/>
          <path id="Path_397" data-name="Path 397" d="M0,0H316.05L0,316.049Z" transform="translate(316.05)" fill="#fff"/>
        </g>
      </g>
      <g id="Group_90" data-name="Group 90" transform="translate(1603.81 1838.649)" opacity="0.12">
        <g id="Group_70-2" data-name="Group 70" transform="translate(0)">
          <path id="Path_398-2" data-name="Path 398" d="M0,0H316.05L0,316.049Z" transform="translate(0)" fill="#fff"/>
          <path id="Path_399-2" data-name="Path 399" d="M0,0H316.05L0,316.049Z" transform="translate(0 316.049)" fill="#fff"/>
        </g>
      </g>
    </g>
  </g>
</svg>
