<svg xmlns="http://www.w3.org/2000/svg" width="35.633" height="35.633" viewBox="0 0 35.633 35.633">
  <path id="facebook" d="M33.666,0H1.965A1.967,1.967,0,0,0,0,1.967v31.7a1.967,1.967,0,0,0,1.967,1.965H19.034V21.853H14.406V16.459h4.628V12.49c0-4.6,2.81-7.109,6.916-7.109a38.076,38.076,0,0,1,4.149.212V10.4H27.269c-2.234,0-2.667,1.062-2.667,2.62v3.435h5.341l-.7,5.394H24.6v13.78h9.064a1.966,1.966,0,0,0,1.967-1.966h0V1.965A1.966,1.966,0,0,0,33.666,0Zm0,0" transform="translate(0 0)" fill="#4c69a1"/>
</svg>
