<svg id="instagram" xmlns="http://www.w3.org/2000/svg" xmlns:xlink="http://www.w3.org/1999/xlink" width="35.626" height="35.633" viewBox="0 0 35.626 35.633">
  <defs>
    <linearGradient id="linear-gradient" x1="0.205" y1="1" x2="0.781" y2="0.264" gradientUnits="objectBoundingBox">
      <stop offset="0" stop-color="#feda75"/>
      <stop offset="0.263" stop-color="#fa7e1e"/>
      <stop offset="0.51" stop-color="#d62976"/>
      <stop offset="0.757" stop-color="#962fbf"/>
      <stop offset="1" stop-color="#4f5bd5"/>
    </linearGradient>
  </defs>
  <path id="Path_390" data-name="Path 390" d="M35.984,10.476a13.021,13.021,0,0,0-.828-4.323A9.128,9.128,0,0,0,29.942.94,13.054,13.054,0,0,0,25.619.112C23.712.021,23.106,0,18.269,0s-5.443.021-7.344.1A13.024,13.024,0,0,0,6.6.933a8.694,8.694,0,0,0-3.16,2.061A8.773,8.773,0,0,0,1.388,6.147,13.055,13.055,0,0,0,.56,10.469C.469,12.377.449,12.982.449,17.82s.021,5.443.1,7.344a13.02,13.02,0,0,0,.829,4.323A9.126,9.126,0,0,0,6.6,34.7a13.056,13.056,0,0,0,4.323.828c1.9.084,2.506.1,7.344.1s5.443-.021,7.344-.1a13.017,13.017,0,0,0,4.323-.828,9.114,9.114,0,0,0,5.214-5.214,13.064,13.064,0,0,0,.828-4.323c.083-1.9.1-2.506.1-7.344s-.007-5.443-.091-7.344ZM32.775,25.025a9.767,9.767,0,0,1-.613,3.306,5.911,5.911,0,0,1-3.383,3.383,9.8,9.8,0,0,1-3.306.612c-1.879.084-2.443.1-7.2.1s-5.325-.021-7.2-.1a9.762,9.762,0,0,1-3.306-.612,5.483,5.483,0,0,1-2.046-1.33A5.54,5.54,0,0,1,4.4,28.338a9.8,9.8,0,0,1-.612-3.306c-.084-1.879-.1-2.443-.1-7.2s.021-5.325.1-7.2A9.762,9.762,0,0,1,4.4,7.33,5.416,5.416,0,0,1,5.732,5.283,5.531,5.531,0,0,1,7.779,3.954a9.808,9.808,0,0,1,3.306-.613c1.879-.083,2.443-.1,7.2-.1s5.325.021,7.2.1a9.767,9.767,0,0,1,3.306.613,5.479,5.479,0,0,1,2.046,1.329,5.539,5.539,0,0,1,1.33,2.047,9.806,9.806,0,0,1,.613,3.306c.083,1.879.1,2.443.1,7.2s-.021,5.311-.1,7.191Zm0,0" transform="translate(-0.449 0)" fill="url(#linear-gradient)"/>
  <path id="Path_391" data-name="Path 391" d="M134.1,124.5a9.154,9.154,0,1,0,9.154,9.154A9.156,9.156,0,0,0,134.1,124.5Zm0,15.091a5.938,5.938,0,1,1,5.938-5.938A5.939,5.939,0,0,1,134.1,139.591Zm0,0" transform="translate(-116.283 -115.834)" fill="url(#linear-gradient)"/>
  <path id="Path_392" data-name="Path 392" d="M366.724,90.739a2.137,2.137,0,1,1-2.137-2.137A2.137,2.137,0,0,1,366.724,90.739Zm0,0" transform="translate(-337.251 -82.434)" fill="url(#linear-gradient)"/>
</svg>
