<svg xmlns="http://www.w3.org/2000/svg" width="35.633" height="35.633" viewBox="0 0 35.633 35.633">
  <path id="iTunes" d="M19.816,2A17.816,17.816,0,1,0,37.633,19.816,17.828,17.828,0,0,0,19.816,2Zm0,1.549A16.267,16.267,0,1,1,3.549,19.816,16.256,16.256,0,0,1,19.816,3.549Zm7.012,6.2a.782.782,0,0,0-.175.012L16.045,11.768a1.058,1.058,0,0,0-.876,1.042V23.088a.775.775,0,0,1-.584.75l-2.669.681-.225.054a2.722,2.722,0,0,0-1.921,2.254,2.641,2.641,0,0,0,.008.753,2.867,2.867,0,0,0,2.887,2.306h.077a3.978,3.978,0,0,0,3.978-3.978V17.747a1.078,1.078,0,0,1,.891-1.062l7.5-1.458a.774.774,0,0,1,.909.763v4.775a.775.775,0,0,1-.584.75l-2.669.681-.225.054A2.722,2.722,0,0,0,20.614,24.5a2.64,2.64,0,0,0,.008.753,2.867,2.867,0,0,0,2.887,2.306h.077a3.978,3.978,0,0,0,3.978-3.978V10.521A.775.775,0,0,0,26.829,9.746Z" transform="translate(-2 -2)"/>
</svg>
