<svg xmlns="http://www.w3.org/2000/svg" width="229.527" height="75.326" viewBox="0 0 229.527 75.326">
  <g id="PGB_Logotype" data-name="PGB Logotype" transform="translate(0.03 0.002)">
    <g id="Layer_1" data-name="Layer 1">
      <path id="Path_239" data-name="Path 239" d="M229.22,40.38A3.47,3.47,0,0,0,227.73,36l-3.83-.6a24.261,24.261,0,0,0-6.72-2.53,32.11,32.11,0,0,0-6.92-.76,24.88,24.88,0,0,0-9.69,1.78l-.82.37a3.39,3.39,0,0,1-2.77.05,25.69,25.69,0,0,0-4.47-1.44,32.11,32.11,0,0,0-6.92-.76,24.88,24.88,0,0,0-9.69,1.78,18.939,18.939,0,0,0-3,1.61,3.53,3.53,0,0,1-3.74-.05c-.39-.24-.8-.47-1.22-.69A23.21,23.21,0,0,0,160,32.35c.28-.5.54-1,.76-1.49l.05-.13a9.42,9.42,0,0,0,.32-6.7,9,9,0,0,0-5.62-5.74A9.26,9.26,0,0,0,154,17.9a3,3,0,0,1-1.4-.61,8.429,8.429,0,0,0-1-.7,9.82,9.82,0,0,0-5.37-1.65,9.63,9.63,0,0,0-3.26.56,3.08,3.08,0,0,1-1.65.11,10.37,10.37,0,0,0-2.14-.22,9.28,9.28,0,0,0-3.52.69l-.71-.32a12.67,12.67,0,0,0-4.67-.85A14,14,0,0,0,125,16l-.54.24a12.17,12.17,0,0,0-1.27-.59,9,9,0,0,0-3.24-.61h-.15a8.54,8.54,0,0,0-1.43.13l-.09-.2A9.74,9.74,0,0,0,117,13a3.38,3.38,0,0,1-.67-1.16,12.709,12.709,0,0,0-.52-1.28,13.06,13.06,0,0,0-4.25-5A16.41,16.41,0,0,0,106,3.09a23.87,23.87,0,0,0-6.12-.71,30.32,30.32,0,0,0-8.22,1.15A39.16,39.16,0,0,0,78.34,10.3a37,37,0,0,0-5,4.72,26.6,26.6,0,0,0-3.77,5.48,15.84,15.84,0,0,0-1.85,7.18V28.9a3.49,3.49,0,0,1-3.52,3.82H29.7v.36a26.37,26.37,0,0,0-7-.94,24.22,24.22,0,0,0-11.2,2.61A20.75,20.75,0,0,0,3,42.55,22.12,22.12,0,0,0,3,64.9a20.82,20.82,0,0,0,8.33,7.78,23.81,23.81,0,0,0,11.12,2.63,30,30,0,0,0,7.22-.93v.36h99.15c5.19,0,9.3-1.06,12.57-3.23a8.256,8.256,0,0,0,1-.78,23.269,23.269,0,0,0,3.06,1.93,25,25,0,0,0,22.4,0h0a3.56,3.56,0,0,1,3.18-.09,26.33,26.33,0,0,0,5.3,1.82,34.711,34.711,0,0,0,8,.93,24.65,24.65,0,0,0,9.73-1.81c.62-.27,1.2-.56,1.76-.87a26.8,26.8,0,0,0,5.15,1.75,34.77,34.77,0,0,0,8,.93,24.65,24.65,0,0,0,9.73-1.81,17.29,17.29,0,0,0,7.59-6,15.93,15.93,0,0,0,2.83-9.1,15,15,0,0,0-2.11-7.93,3.38,3.38,0,0,1-.2-3.05Z" fill="#63a9d3"/>
      <path id="Path_240" data-name="Path 240" d="M229.22,39.57a3.47,3.47,0,0,0-1.49-4.35l-3.83-2.17a24.26,24.26,0,0,0-6.72-2.53,32.11,32.11,0,0,0-6.92-.76,24.88,24.88,0,0,0-9.69,1.78l-.82.37A3.39,3.39,0,0,1,197,32a24.87,24.87,0,0,0-4.47-1.44,32.11,32.11,0,0,0-6.92-.76,24.88,24.88,0,0,0-9.69,1.78,19.75,19.75,0,0,0-3,1.6,3.51,3.51,0,0,1-3.74,0c-.39-.24-.8-.47-1.22-.69A23,23,0,0,0,160,30c.28-.5.54-1,.76-1.5l.05-.12a9.44,9.44,0,0,0,.32-6.71,9,9,0,0,0-5.62-5.73,8.38,8.38,0,0,0-1.55-.39,3.15,3.15,0,0,1-1.4-.61,8.478,8.478,0,0,0-1-.71,9.82,9.82,0,0,0-5.37-1.65,9.64,9.64,0,0,0-3.26.57,3.08,3.08,0,0,1-1.65.11,10.37,10.37,0,0,0-2.14-.22,9.28,9.28,0,0,0-3.52.69l-.71-.32a12.67,12.67,0,0,0-4.67-.85A14,14,0,0,0,125,13.59l-.54.24a10.409,10.409,0,0,0-1.27-.59,9,9,0,0,0-3.24-.61h-.15a8.54,8.54,0,0,0-1.43.13l-.09-.2a9.451,9.451,0,0,0-1.28-1.9,3.48,3.48,0,0,1-.67-1.16,11.83,11.83,0,0,0-.52-1.28,13.06,13.06,0,0,0-4.25-5A16.41,16.41,0,0,0,106,.71,23.87,23.87,0,0,0,99.9,0a30.32,30.32,0,0,0-8.22,1.15A38.64,38.64,0,0,0,84.57,4a39.479,39.479,0,0,0-6.23,4,37,37,0,0,0-5,4.72,26.81,26.81,0,0,0-3.77,5.47,15.88,15.88,0,0,0-1.85,7.19c0,.41,0,.82,0,1.22a3.49,3.49,0,0,1-3.52,3.82H29.7v.36a26.37,26.37,0,0,0-7-.94,24.22,24.22,0,0,0-11.2,2.61A20.75,20.75,0,0,0,3,40.17,22.12,22.12,0,0,0,3,62.52a20.82,20.82,0,0,0,8.33,7.78,23.81,23.81,0,0,0,11.12,2.63A30,30,0,0,0,29.7,72v.35h99.15c5.19,0,9.3-1,12.57-3.22a8.3,8.3,0,0,0,1-.79,22.331,22.331,0,0,0,3.06,1.94,25,25,0,0,0,22.4,0h0a3.56,3.56,0,0,1,3.18-.09,26.33,26.33,0,0,0,5.3,1.82,34.71,34.71,0,0,0,8,.93,24.65,24.65,0,0,0,9.73-1.81c.62-.27,1.2-.56,1.76-.87A26.8,26.8,0,0,0,201.08,72a34.77,34.77,0,0,0,8,.93,24.65,24.65,0,0,0,9.73-1.81,17.24,17.24,0,0,0,7.59-6A15.88,15.88,0,0,0,229.26,56a15,15,0,0,0-2.11-7.93,3.38,3.38,0,0,1-.2-3Z" fill="#99cef6"/>
      <path id="Path_241" data-name="Path 241" d="M99.9,8.44a16,16,0,0,1,4,.43,8.35,8.35,0,0,1,2.72,1.19,4.77,4.77,0,0,1,1.55,1.79,5.2,5.2,0,0,1,.49,2.27,8,8,0,0,1-.68,3.06,15.67,15.67,0,0,1-1.92,3.26,21.369,21.369,0,0,1-2.92,3.16,26.64,26.64,0,0,1-3.71,2.79,24.819,24.819,0,0,1-4.32,2.14,21.54,21.54,0,0,1-4.7,1.22,16,16,0,0,0-.9,2.66,10.05,10.05,0,0,0-.33,2.46,4.79,4.79,0,0,0,.17,1.29,10.281,10.281,0,0,0,.36,1.07h0l.24.6a1.54,1.54,0,0,1,.09.48.8.8,0,0,1-.29.69,1.68,1.68,0,0,1-1,.23,2.65,2.65,0,0,1-1.45-.43,4.08,4.08,0,0,1-1.12-1.11,5.76,5.76,0,0,1-.71-1.5,5.48,5.48,0,0,1-.25-1.6,11.43,11.43,0,0,1,.26-2.31,21.1,21.1,0,0,1,.72-2.5,4.31,4.31,0,0,1-1.22-.65,5,5,0,0,1-.89-.88,3.66,3.66,0,0,1-.54-.95,2.5,2.5,0,0,1-.18-.87,1.37,1.37,0,0,1,.25-.86.85.85,0,0,1,.73-.34.82.82,0,0,1,.78.35,3,3,0,0,1,.33.83,2.849,2.849,0,0,0,.14.41,2.4,2.4,0,0,0,.26.42,1.4,1.4,0,0,0,.42.37,1.56,1.56,0,0,0,.67.24c.35-.86.75-1.72,1.18-2.58s.87-1.68,1.31-2.48.87-1.53,1.27-2.21l1.07-1.79.65-1.09a4.161,4.161,0,0,0,.24-.4v-.15a3.52,3.52,0,0,1,.1-.89c.06-.22.33-.34.79-.34a2.28,2.28,0,0,1,.88.2,3.31,3.31,0,0,1,.87.54,3.26,3.26,0,0,1,.65.79,2,2,0,0,1,.25.95,3.45,3.45,0,0,1-.51,1.36c-.33.63-.76,1.4-1.27,2.3l-.72,1.21c-.23.38-.46.76-.69,1.16s-.46.81-.68,1.25-.47.94-.72,1.5a18.75,18.75,0,0,0,3.18-1.57,26.791,26.791,0,0,0,3-2.18,27.941,27.941,0,0,0,2.66-2.55,21.889,21.889,0,0,0,2.11-2.71,14.379,14.379,0,0,0,1.4-2.63,6.59,6.59,0,0,0,.5-2.36,2.58,2.58,0,0,0-1-2.08,4.79,4.79,0,0,0-3.09-.8,15.8,15.8,0,0,0-4.19.56,20.61,20.61,0,0,0-3.86,1.5,23.481,23.481,0,0,0-3.46,2.19,32,32,0,0,0-3,2.62,27.909,27.909,0,0,0-2.44,2.78,30.648,30.648,0,0,0-1.83,2.68,15.139,15.139,0,0,0-1.15,2.34,5,5,0,0,0-.4,1.7,1.11,1.11,0,0,0,.11.55.59.59,0,0,0,.29.25,1,1,0,0,0,.39.07h.92a.93.93,0,0,1,.42.06.65.65,0,0,1,.29.23.84.84,0,0,1,.1.47.62.62,0,0,1-.19.42,1.66,1.66,0,0,1-.51.36,3.57,3.57,0,0,1-.76.25,4,4,0,0,1-.94.1,5.82,5.82,0,0,1-1.42-.18,3.43,3.43,0,0,1-1.31-.65,3.58,3.58,0,0,1-1-1.24,4.34,4.34,0,0,1-.39-2,7.54,7.54,0,0,1,.94-3.37,18.71,18.71,0,0,1,2.58-3.73,28.61,28.61,0,0,1,3.9-3.63,30.2,30.2,0,0,1,4.9-3.11A29.5,29.5,0,0,1,94,9.27a21.68,21.68,0,0,1,5.9-.83Z" fill="#f9db7d"/>
      <path id="Path_242" data-name="Path 242" d="M111.51,24.43a.4.4,0,0,1,.36-.17,1.49,1.49,0,0,1,.54.11,1.15,1.15,0,0,1,.46.3.36.36,0,0,1,.11.39c-.16.35-.41.85-.76,1.5s-.75,1.36-1.21,2.12-1,1.54-1.54,2.34a20.779,20.779,0,0,1-1.74,2.18,10.37,10.37,0,0,1-1.86,1.6,3.41,3.41,0,0,1-1.86.62,2.46,2.46,0,0,1-2-.88,3.45,3.45,0,0,1-.76-2.36,4.93,4.93,0,0,1,.24-1.35q.24-.81.63-1.77c.25-.63.54-1.29.85-2s.62-1.33.9-2c.39-.82.72-1.53,1-2.14a4.19,4.19,0,0,0,.41-1.18c0-.26.16-.37.48-.35a2.8,2.8,0,0,1,1.06.35,4.32,4.32,0,0,1,1.06.82,1.51,1.51,0,0,1,.48,1,1.619,1.619,0,0,1-.12.48c-.08.23-.19.49-.32.78s-.27.62-.43,1l-.48,1c-.26.54-.53,1.13-.83,1.76s-.57,1.22-.82,1.8-.45,1.11-.61,1.6a4,4,0,0,0-.24,1.14c0,.15,0,.22.07.22a1.93,1.93,0,0,0,1.19-.57,10.55,10.55,0,0,0,1.37-1.43c.48-.58.94-1.22,1.41-1.92s.89-1.39,1.29-2.06.73-1.27,1-1.8.49-.94.62-1.19Zm-4-4.57a.72.72,0,0,1-.64-.32,1.5,1.5,0,0,1-.2-.83,4,4,0,0,1,.16-1.05,6.39,6.39,0,0,1,.45-1.12,3.79,3.79,0,0,1,.62-.89,1,1,0,0,1,.71-.36,2.84,2.84,0,0,1,.88.14,2.21,2.21,0,0,1,.75.38,1.84,1.84,0,0,1,.51.63,1.78,1.78,0,0,1,.2.85,1.81,1.81,0,0,1-.26.89A2.74,2.74,0,0,1,110,19a3.68,3.68,0,0,1-1.09.61,3.89,3.89,0,0,1-1.41.25Z" fill="#f9db7d"/>
      <path id="Path_243" data-name="Path 243" d="M124.21,24.53a1.18,1.18,0,0,1,.58-.57.79.79,0,0,1,.6,0,.67.67,0,0,1,.38.42,1,1,0,0,1-.09.77l-.7,1.43c-.3.63-.66,1.34-1.07,2.11s-.86,1.55-1.36,2.34A20.559,20.559,0,0,1,121,33.19a10.26,10.26,0,0,1-1.63,1.61,2.74,2.74,0,0,1-1.6.62,2.46,2.46,0,0,1-2-.88,3.41,3.41,0,0,1-.77-2.36,5,5,0,0,1,.2-1.24c.14-.49.32-1,.54-1.6s.48-1.18.76-1.81l.83-1.82c-.53.62-1.08,1.29-1.67,2s-1.14,1.4-1.66,2.08-1,1.33-1.38,1.93a12.738,12.738,0,0,0-.89,1.5,2.071,2.071,0,0,0,0,.22.821.821,0,0,0,0,.14v.19a.88.88,0,0,1,0,.17.43.43,0,0,0,0,.17h0a2.274,2.274,0,0,0,.12.53,1,1,0,0,1,0,.42.5.5,0,0,1-.24.28,1.13,1.13,0,0,1-.58.11,2.19,2.19,0,0,1-.94-.22,3,3,0,0,1-.88-.66,3.89,3.89,0,0,1-.66-1,3.21,3.21,0,0,1-.26-1.3,5.321,5.321,0,0,1,.19-1.38,14.942,14.942,0,0,1,.5-1.52c.21-.52.45-1.05.71-1.57l.81-1.59c.45-.88.85-1.71,1.2-2.47a4.75,4.75,0,0,0,.53-1.86c0-.26.18-.39.53-.41a2.61,2.61,0,0,1,1.18.26,4.08,4.08,0,0,1,1.18.83,1.78,1.78,0,0,1,.53,1.27,2.64,2.64,0,0,1-.18.84c-.12.34-.28.71-.47,1.13.49-.59,1-1.17,1.48-1.73s.94-1.06,1.37-1.51a14.851,14.851,0,0,1,1.12-1.07,1.4,1.4,0,0,1,.69-.4h.15a.43.43,0,0,1,.19,0,2.81,2.81,0,0,1,.65.35,4.181,4.181,0,0,1,.67.6,3.59,3.59,0,0,1,.52.77,1.9,1.9,0,0,1,.2.86,3.72,3.72,0,0,1-.39,1.21c-.27.59-.58,1.26-1,2l-.86,1.77c-.29.62-.56,1.21-.8,1.78s-.44,1.1-.6,1.59a4,4,0,0,0-.24,1.16c0,.13,0,.2,0,.2a1.39,1.39,0,0,0,.87-.51,10.21,10.21,0,0,0,1.09-1.32c.4-.55.79-1.15,1.19-1.82s.78-1.32,1.13-2,.67-1.27.95-1.84.5-1,.64-1.38Z" fill="#f9db7d"/>
      <path id="Path_244" data-name="Path 244" d="M121.54,30.69a7.37,7.37,0,0,1,.35-2.16,11.13,11.13,0,0,1,1-2.2,12.55,12.55,0,0,1,1.46-2,11.63,11.63,0,0,1,1.81-1.71,9.1,9.1,0,0,1,2-1.17,5.49,5.49,0,0,1,2.11-.43,4.16,4.16,0,0,1,1.55.25,3.18,3.18,0,0,1,1.05.65,2.88,2.88,0,0,1,.62.88,4.16,4.16,0,0,1,.31.92,4,4,0,0,1,.06.81,1.549,1.549,0,0,1-.1.51h0a.28.28,0,0,1-.3.18,1.46,1.46,0,0,1-.45-.1,1.6,1.6,0,0,1-.41-.22c-.12-.08-.18-.15-.16-.2a.64.64,0,0,0,0-.27,1,1,0,0,0-.14-.44,1.22,1.22,0,0,0-.43-.41,1.69,1.69,0,0,0-.86-.18,2.09,2.09,0,0,0-1.24.51,7.7,7.7,0,0,0-1.31,1.31A14.82,14.82,0,0,0,127.24,27a17.42,17.42,0,0,0-1,2.07,17.79,17.79,0,0,0-.73,2,6.44,6.44,0,0,0-.27,1.67c0,.58.17.87.5.87a2,2,0,0,0,1.23-.53,7,7,0,0,0,1.21-1.35,13.05,13.05,0,0,0,1.1-1.8c.34-.66.63-1.28.89-1.88s.45-1.11.6-1.56a4.089,4.089,0,0,0,.22-.89.25.25,0,0,1,.23-.26,1.28,1.28,0,0,1,.6,0,7.679,7.679,0,0,1,.79.28,5.87,5.87,0,0,1,.79.41,2.93,2.93,0,0,1,.59.48.71.71,0,0,1,.24.45,2.58,2.58,0,0,1-.25.86c-.17.4-.36.86-.59,1.37l-.49,1.11c-.17.38-.32.76-.46,1.13s-.24.71-.33,1a3,3,0,0,0-.13.8q0,.12,0,.12c.23,0,.51-.19.85-.57a12.339,12.339,0,0,0,1.12-1.44c.4-.59.81-1.23,1.21-1.94s.8-1.39,1.16-2.05.68-1.27.95-1.81l.6-1.19a.37.37,0,0,1,.37-.19,1.41,1.41,0,0,1,.54.11,1.19,1.19,0,0,1,.45.3.35.35,0,0,1,.11.38c-.15.32-.38.81-.71,1.45s-.71,1.34-1.15,2.11-.9,1.56-1.4,2.37a24,24,0,0,1-1.54,2.2,11.651,11.651,0,0,1-1.53,1.63,2.19,2.19,0,0,1-1.36.63,2.08,2.08,0,0,1-1.22-.35,4.61,4.61,0,0,1-.87-.75,4.2,4.2,0,0,1-.72-1.13c-.19.22-.42.46-.67.72a8.241,8.241,0,0,1-.83.72,6,6,0,0,1-.93.57,2.31,2.31,0,0,1-1,.22,3.16,3.16,0,0,1-1.65-.42,3.9,3.9,0,0,1-1.19-1.1,5.42,5.42,0,0,1-.74-1.53,6.11,6.11,0,0,1-.29-1.6Z" fill="#f9db7d"/>
      <path id="Path_245" data-name="Path 245" d="M151.56,24.48a1.16,1.16,0,0,1,.56-.56.84.84,0,0,1,.6,0,.59.59,0,0,1,.39.42,1.11,1.11,0,0,1-.09.78,9.479,9.479,0,0,1-1.26,2.05,24.158,24.158,0,0,1-1.91,2.14q-1.08,1.08-2.37,2.16c-.86.72-1.74,1.44-2.66,2.17a46.643,46.643,0,0,1-2.27,4.29,41.585,41.585,0,0,1-2.44,3.82,16.1,16.1,0,0,1-2.42,2.74,3.47,3.47,0,0,1-2.2,1,4.93,4.93,0,0,1-1.8-.28,3.29,3.29,0,0,1-1.14-.68,2.39,2.39,0,0,1-.59-.88,2.32,2.32,0,0,1-.17-.83,2.54,2.54,0,0,1,.61-1.51,12,12,0,0,1,1.67-1.75c.71-.62,1.52-1.27,2.44-2s1.91-1.4,3-2.14c.19-.37.35-.65.47-.85l.29-.48.18-.32c0-.08.1-.19.17-.31a5.088,5.088,0,0,0,.22-.49l.38-.87c-.37.45-.74.87-1.1,1.26a13.409,13.409,0,0,1-1,1,6.29,6.29,0,0,1-.9.71,1.38,1.38,0,0,1-.71.26,1.74,1.74,0,0,1-1.05-.35,3.69,3.69,0,0,1-.87-.85,4.46,4.46,0,0,1-.61-1.08,3.1,3.1,0,0,1-.21-1,5.38,5.38,0,0,1,.19-1.38,11.288,11.288,0,0,1,.52-1.51c.21-.52.45-1.05.72-1.58s.53-1.05.8-1.56l.63-1.24c.21-.41.39-.8.55-1.17a10.508,10.508,0,0,0,.39-1,3.12,3.12,0,0,0,.14-.82c0-.24.18-.36.53-.36a3.28,3.28,0,0,1,1.18.26,3.76,3.76,0,0,1,1.18.79,1.66,1.66,0,0,1,.53,1.24,2.65,2.65,0,0,1-.18.82,12.173,12.173,0,0,1-.48,1.17c-.21.43-.43.9-.69,1.41s-.52,1-.79,1.55L139,30.53c-.32.6-.59,1.14-.83,1.62s-.43.87-.57,1.17-.18.44-.13.44a1.688,1.688,0,0,0,.62-.47,14.758,14.758,0,0,0,1.07-1.21c.41-.5.86-1.06,1.33-1.68s.94-1.26,1.39-1.89l1.29-1.79c.4-.56.73-1,1-1.42l.78-2.05a5.709,5.709,0,0,0,.3-.86,1.73,1.73,0,0,1,.26-1.07.92.92,0,0,1,.75-.33,1.52,1.52,0,0,1,.76.28,4.14,4.14,0,0,1,.79.68,4,4,0,0,1,.62.91,2,2,0,0,1,.26.92,3.669,3.669,0,0,1-.18.89c-.12.42-.29.92-.5,1.51s-.45,1.23-.73,1.94-.58,1.44-.9,2.18a33.268,33.268,0,0,0,3.12-2.87,12.73,12.73,0,0,0,2.1-2.93Zm-18.28,19a2.41,2.41,0,0,0,1.36-.49,8.27,8.27,0,0,0,1.45-1.33,16.119,16.119,0,0,0,1.49-1.94q.75-1.12,1.47-2.37c-.85.64-1.65,1.25-2.39,1.83s-1.4,1.11-1.95,1.59a11.46,11.46,0,0,0-1.31,1.33,1.71,1.71,0,0,0-.48,1Q132.92,43.48,133.28,43.48Z" fill="#f9db7d"/>
      <path id="Path_246" data-name="Path 246" d="M26.07,50.66h7.36V61.29a17,17,0,0,1-5.17,2.37,21.36,21.36,0,0,1-5.78.83,15.4,15.4,0,0,1-7.22-1.67,12.47,12.47,0,0,1-5-4.67,13.7,13.7,0,0,1,0-13.61,12.45,12.45,0,0,1,5.07-4.67,15.84,15.84,0,0,1,7.34-1.67,17,17,0,0,1,6.63,1.24,12.46,12.46,0,0,1,4.86,3.61l-5.42,4.78a7.19,7.19,0,0,0-5.64-2.77,5.92,5.92,0,0,0-4.45,1.69A6.28,6.28,0,0,0,17,51.34a6.36,6.36,0,0,0,1.63,4.57A5.72,5.72,0,0,0,23,57.63,7.92,7.92,0,0,0,26.07,57Z" fill="#fff"/>
      <path id="Path_247" data-name="Path 247" d="M38.14,38.78h8.47V63.91H38.14Z" fill="#fff"/>
      <path id="Path_248" data-name="Path 248" d="M62.56,57.59h-2.3v6.32H51.78V38.78H63.89A14.73,14.73,0,0,1,70,39.93a8.83,8.83,0,0,1,4,3.3A9.7,9.7,0,0,1,74.12,53a8.63,8.63,0,0,1-3.52,3.2l5.28,7.75h-9Zm3.37-11.51a3.77,3.77,0,0,0-2.58-.77H60.26V51.2h3.09a3.77,3.77,0,0,0,2.58-.77A3.18,3.18,0,0,0,65.93,46.08Z" fill="#fff"/>
      <path id="Path_249" data-name="Path 249" d="M149.43,62.8a12.88,12.88,0,0,1,0-22.91,16.57,16.57,0,0,1,14.58,0,12.89,12.89,0,0,1,0,22.91,16.57,16.57,0,0,1-14.58,0Zm10.14-5.94a5.58,5.58,0,0,0,2-2.19,7.75,7.75,0,0,0,0-6.65,5.58,5.58,0,0,0-2-2.19,5.68,5.68,0,0,0-5.71,0,5.58,5.58,0,0,0-2,2.19,7.75,7.75,0,0,0,0,6.65,5.58,5.58,0,0,0,2,2.19A5.68,5.68,0,0,0,159.57,56.86Z" fill="#fff"/>
      <path id="Path_250" data-name="Path 250" d="M178.35,63.79a16.32,16.32,0,0,1-4.86-1.89l2.72-6.17a17.65,17.65,0,0,0,4,1.67,15.64,15.64,0,0,0,4.27.62,6.56,6.56,0,0,0,2.51-.34,1.08,1.08,0,0,0,.76-1c0-.53-.33-.92-1-1.19a21.539,21.539,0,0,0-3.25-.86,35.64,35.64,0,0,1-4.85-1.31,8.11,8.11,0,0,1-3.37-2.3,6.19,6.19,0,0,1-1.44-4.32,7.42,7.42,0,0,1,1.33-4.31,8.68,8.68,0,0,1,4-3,16.31,16.31,0,0,1,6.41-1.12,23.4,23.4,0,0,1,5.08.56,15.89,15.89,0,0,1,4.4,1.63l-2.55,6.14a15.67,15.67,0,0,0-7-1.87q-3.27,0-3.27,1.59c0,.5.32.88,1,1.13a20.77,20.77,0,0,0,3.19.81,32.66,32.66,0,0,1,4.85,1.23,8.48,8.48,0,0,1,3.43,2.28A6.13,6.13,0,0,1,196.15,56a7.44,7.44,0,0,1-1.33,4.3,9,9,0,0,1-4,3,16.34,16.34,0,0,1-6.41,1.13,26.83,26.83,0,0,1-6.06-.64Z" fill="#fff"/>
      <path id="Path_251" data-name="Path 251" d="M203,63.79a16.43,16.43,0,0,1-4.86-1.89l2.73-6.17a17.39,17.39,0,0,0,4,1.67,15.64,15.64,0,0,0,4.27.62,6.62,6.62,0,0,0,2.52-.34,1.08,1.08,0,0,0,.75-1c0-.53-.33-.92-1-1.19a21.538,21.538,0,0,0-3.25-.86,35.061,35.061,0,0,1-4.84-1.31A8.14,8.14,0,0,1,200,51a6.19,6.19,0,0,1-1.44-4.32,7.49,7.49,0,0,1,1.33-4.31,8.74,8.74,0,0,1,4-3,16.35,16.35,0,0,1,6.41-1.12,23.328,23.328,0,0,1,5.079.56,15.77,15.77,0,0,1,4.4,1.63l-2.55,6.14a15.67,15.67,0,0,0-7-1.87q-3.27,0-3.27,1.59c0,.5.32.88,1,1.13a21,21,0,0,0,3.2.81A32.5,32.5,0,0,1,216,49.47a8.48,8.48,0,0,1,3.43,2.28A6.13,6.13,0,0,1,220.82,56a7.44,7.44,0,0,1-1.33,4.3,9,9,0,0,1-4,3,16.34,16.34,0,0,1-6.41,1.13,26.83,26.83,0,0,1-6.08-.64Z" fill="#fff"/>
      <path id="Path_252" data-name="Path 252" d="M134.81,50.77a6.24,6.24,0,0,0,2.6-2.26,5.62,5.62,0,0,0,.83-2.35,4.71,4.71,0,0,1-2.75,1,6.69,6.69,0,0,1-2.41-.39,5.06,5.06,0,0,1-1.71-1,3.94,3.94,0,0,1-1-1.52,4.12,4.12,0,0,1-.27-1.4,4.22,4.22,0,0,1,1-2.53,11.841,11.841,0,0,1,1-1.17,20.53,20.53,0,0,0-4-.35H114.7V63.91h14.15q5.18,0,7.9-1.81a5.79,5.79,0,0,0,2.73-5.1,6,6,0,0,0-1.22-3.8A7.55,7.55,0,0,0,134.81,50.77ZM123,44.7h4c1.84,0,2.77.62,2.77,1.87s-.93,1.87-2.77,1.87h-4ZM128.13,58H123V54h5.1c1.87,0,2.8.66,2.8,2S130,58,128.13,58Z" fill="#fff"/>
      <path id="Path_253" data-name="Path 253" d="M88.09,40.84a4.39,4.39,0,0,1-1.76-.66,5.84,5.84,0,0,1-1.45-1.4H79.61V63.91H99.44V57.34H88.09Z" fill="#fff"/>
      <g id="Group_2" data-name="Group 2" opacity="0.5">
        <path id="Path_254" data-name="Path 254" d="M26.57,54v3.31l-.31.13a8.53,8.53,0,0,1-3.28.65,6.21,6.21,0,0,1-4.72-1.88A6,6,0,0,1,16.92,54H9.23a11.7,11.7,0,0,0,1.45,3.85,12,12,0,0,0,4.81,4.49c3.51,1.83,8,2.09,12.64.8A16.7,16.7,0,0,0,32.93,61V54Z" fill="#e8e8e8"/>
        <rect id="Rectangle_47" data-name="Rectangle 47" width="7.48" height="9.38" transform="translate(38.64 54.04)" fill="#e8e8e8"/>
        <path id="Path_255" data-name="Path 255" d="M70.37,55.71A8.56,8.56,0,0,0,72.63,54H52.28v9.37h7.48V57.09h3.06l4.28,6.32h7.83L69.87,56Z" fill="#e8e8e8"/>
        <path id="Path_256" data-name="Path 256" d="M87.59,54.04H80.11v9.37H98.94V57.84H87.59Z" fill="#e8e8e8"/>
        <path id="Path_257" data-name="Path 257" d="M130.39,54a2.16,2.16,0,0,1,1,2c0,1.13-.57,2.48-3.3,2.48h-5.6V54H115.2v9.37h13.65c3.33,0,5.89-.58,7.62-1.73A5.27,5.27,0,0,0,139,57a5.79,5.79,0,0,0-.76-2.94Z" fill="#e8e8e8"/>
        <path id="Path_258" data-name="Path 258" d="M162.42,54a6.061,6.061,0,0,1-.38.86,6,6,0,0,1-2.21,2.38,6.13,6.13,0,0,1-6.23,0,6,6,0,0,1-2.21-2.38A5.07,5.07,0,0,1,151,54h-7.7a11.84,11.84,0,0,0,1.47,3.81,12.26,12.26,0,0,0,4.87,4.51,16.08,16.08,0,0,0,14.11,0,12.19,12.19,0,0,0,4.87-4.51A11.61,11.61,0,0,0,170.11,54Z" fill="#e8e8e8"/>
        <path id="Path_259" data-name="Path 259" d="M183.26,54l.38.08A21.419,21.419,0,0,1,187,55a1.76,1.76,0,0,1,1.3,1.65,1.56,1.56,0,0,1-1.05,1.48,6.93,6.93,0,0,1-2.72.39,16.24,16.24,0,0,1-4.41-.65,18.64,18.64,0,0,1-3.65-1.45l-2.33,5.27a16.59,16.59,0,0,0,4.35,1.6,25.79,25.79,0,0,0,6,.69,15.84,15.84,0,0,0,6.21-1.09A8.51,8.51,0,0,0,194.41,60a6.94,6.94,0,0,0,1.24-4,7.05,7.05,0,0,0-.27-2Z" fill="#e8e8e8"/>
        <path id="Path_260" data-name="Path 260" d="M207.93,54l.39.08a20.909,20.909,0,0,1,3.33.89,1.74,1.74,0,0,1,1.3,1.65,1.56,1.56,0,0,1-1,1.48,6.93,6.93,0,0,1-2.72.39,16.3,16.3,0,0,1-4.41-.65,18.9,18.9,0,0,1-3.65-1.45l-2.33,5.27a16.73,16.73,0,0,0,4.35,1.6,25.79,25.79,0,0,0,6,.69,15.84,15.84,0,0,0,6.21-1.09A8.45,8.45,0,0,0,219.08,60a6.94,6.94,0,0,0,1.24-4,7.05,7.05,0,0,0-.27-2Z" fill="#e8e8e8"/>
      </g>
      <g id="Group_3" data-name="Group 3" opacity="0.4">
        <path id="Path_261" data-name="Path 261" d="M78.36,28.47a2.06,2.06,0,0,0,.54.2,4.72,4.72,0,0,0,2.13.08,2.61,2.61,0,0,0,.65-.21.71.71,0,0,0,.09-.07Z" fill="#f2ca5c"/>
        <path id="Path_262" data-name="Path 262" d="M85,28.47l.26.23a4,4,0,0,0,1.09.58.51.51,0,0,1,.29.25.58.58,0,0,1,0,.39,19.3,19.3,0,0,0-.71,2.43,10.4,10.4,0,0,0-.25,2.21A5.09,5.09,0,0,0,85.91,36a5.22,5.22,0,0,0,.64,1.37,3.62,3.62,0,0,0,1,1,2.15,2.15,0,0,0,1.18.35c.52,0,.68-.1.7-.12s.1-.08.1-.3a1,1,0,0,0-.06-.3c-.06-.17-.14-.36-.23-.58a.33.33,0,0,1,0-.13c-.11-.3-.22-.62-.32-1a4.93,4.93,0,0,1-.19-1.42A11.11,11.11,0,0,1,89,32.28a17.27,17.27,0,0,1,.93-2.73.51.51,0,0,1,.39-.3,20.38,20.38,0,0,0,3.42-.78Z" fill="#f2ca5c"/>
        <path id="Path_263" data-name="Path 263" d="M149.14,28.47q-1.11,1.09-2.49,2.22a.5.5,0,0,1-.77-.59c.24-.55.46-1.09.67-1.63h-4.06l-.23.33c-.46.64-.93,1.27-1.4,1.9s-.93,1.2-1.34,1.7-.78.92-1.1,1.24a1.791,1.791,0,0,1-1,.62A.55.55,0,0,1,137,34c-.17-.28,0-.59.12-.92s.33-.7.57-1.18.52-1,.83-1.63l.95-1.83h-3.23l-.71,1.26c-.42.72-.84,1.39-1.24,2a13.41,13.41,0,0,1-1.16,1.5,1.74,1.74,0,0,1-1.22.73.51.51,0,0,1-.5-.5.41.41,0,0,1,0-.16,3.18,3.18,0,0,1,.15-.89c.09-.33.2-.69.34-1.07s.3-.77.47-1.16.34-.76.5-1.11c.08-.2.16-.38.24-.57h-2.65c-.24.54-.51,1.11-.81,1.7a14.271,14.271,0,0,1-1.1,1.83,7.92,7.92,0,0,1-1.3,1.43,2.42,2.42,0,0,1-1.55.65c-.3,0-1-.13-1-1.37a7.079,7.079,0,0,1,.29-1.81,16.868,16.868,0,0,1,.75-2.07c.05-.13.12-.27.18-.4h-3.47a1.8,1.8,0,0,0-.08.21,5.859,5.859,0,0,0-.21.9,1.11,1.11,0,0,1-.07.16l-.17.3c-.4.67-.81,1.29-1.21,1.85a11.18,11.18,0,0,1-1.15,1.39,1.85,1.85,0,0,1-1.22.65c-.09,0-.54,0-.54-.7a4.38,4.38,0,0,1,.26-1.32c.16-.49.37-1,.62-1.62s.51-1.18.81-1.81H116.7c-.15.36-.31.72-.44,1.05-.21.55-.39,1.07-.53,1.55a4.49,4.49,0,0,0-.18,1.11,3,3,0,0,0,.64,2,2,2,0,0,0,1.58.7,2.22,2.22,0,0,0,1.3-.52,9.63,9.63,0,0,0,1.54-1.53,10.384,10.384,0,0,0,.74-1,.47.47,0,0,1,.49-.2.49.49,0,0,1,.4.36v.11a4.85,4.85,0,0,0,.68,1.43,3.25,3.25,0,0,0,1,1,2.62,2.62,0,0,0,1.4.35,1.83,1.83,0,0,0,.76-.18,4.6,4.6,0,0,0,.84-.51,7.261,7.261,0,0,0,.77-.67c.25-.25.46-.48.65-.7a.51.51,0,0,1,.45-.17.52.52,0,0,1,.38.29,3.89,3.89,0,0,0,.64,1,4,4,0,0,0,.78.68,1.62,1.62,0,0,0,.94.26,1.84,1.84,0,0,0,1-.51,11.83,11.83,0,0,0,1.46-1.56l.19-.26.12-.16a.49.49,0,0,1,.5-.19.5.5,0,0,1,.39.36,1.214,1.214,0,0,0,.1.36,4.1,4.1,0,0,0,.53,1,3.84,3.84,0,0,0,.77.74,1.25,1.25,0,0,0,.76.26.92.92,0,0,0,.44-.18,5.551,5.551,0,0,0,.83-.66c.31-.29.64-.62,1-1s.71-.8,1.07-1.24a.51.51,0,0,1,.39-.19.5.5,0,0,1,.26.08.51.51,0,0,1,.2.62l-.38.86a4.819,4.819,0,0,1-.24.53l-.17.32-.19.33-.29.48c-.12.2-.27.48-.46.83a.52.52,0,0,1-.15.18Q138.19,37,136.81,38c-.9.68-1.71,1.33-2.41,1.94a11.55,11.55,0,0,0-1.6,1.67,2.11,2.11,0,0,0-.51,1.21,1.86,1.86,0,0,0,.14.66,1.74,1.74,0,0,0,.47.69,2.77,2.77,0,0,0,1,.58,4.61,4.61,0,0,0,1.62.24,3,3,0,0,0,1.87-.92,16,16,0,0,0,2.34-2.66,43.739,43.739,0,0,0,2.42-3.78c.79-1.39,1.55-2.82,2.25-4.26a.86.86,0,0,1,.14-.18c.91-.72,1.79-1.43,2.65-2.15s1.63-1.43,2.34-2.14c.14-.14.27-.29.41-.44Zm-9.66,9.13c-.49.85-1,1.65-1.48,2.39a17.279,17.279,0,0,1-1.53,2,9.749,9.749,0,0,1-1.55,1.4,2.85,2.85,0,0,1-1.64.58.82.82,0,0,1-.86-.89,2.15,2.15,0,0,1,.59-1.31,13.471,13.471,0,0,1,1.37-1.38c.56-.49,1.22-1,2-1.62l2.4-1.83a.484.484,0,0,1,.7.66Z" fill="#f2ca5c"/>
        <path id="Path_264" data-name="Path 264" d="M109.82,28.47c-.27.44-.53.86-.82,1.31-.48.72-1,1.38-1.44,2a12.151,12.151,0,0,1-1.43,1.49,2.4,2.4,0,0,1-1.52.69c-.06,0-.57,0-.57-.72a4.67,4.67,0,0,1,.26-1.3c.17-.5.38-1.05.63-1.64s.52-1.17.82-1.8H103c-.11.26-.24.53-.34.78-.25.61-.45,1.19-.61,1.72a4.8,4.8,0,0,0-.22,1.21,3.06,3.06,0,0,0,.64,2,2.29,2.29,0,0,0,3.17.16,9.71,9.71,0,0,0,1.76-1.52c.22-.24.44-.5.65-.76a.5.5,0,0,1,.55-.16.49.49,0,0,1,.34.45,2.66,2.66,0,0,0,.21,1,3.07,3.07,0,0,0,.57.86,2.2,2.2,0,0,0,.73.54,1.66,1.66,0,0,0,.72.18.85.85,0,0,0,.33,0,.31.31,0,0,0,0-.18,1.867,1.867,0,0,0-.1-.41h0a1.14,1.14,0,0,1,0-.33l-.06-.24a.491.491,0,0,1,0-.12.87.87,0,0,1,0-.2v-.23a.88.88,0,0,1,0-.15,13,13,0,0,1,.92-1.56c.4-.6.87-1.25,1.4-1.95l.81-1Z" fill="#f2ca5c"/>
      </g>
    </g>
  </g>
</svg>
