<svg xmlns="http://www.w3.org/2000/svg" width="35.634" height="35.633" viewBox="0 0 35.634 35.633">
  <path id="Spotify" d="M18.07.277A17.816,17.816,0,1,0,35.887,18.094,17.817,17.817,0,0,0,18.07.277h0Zm8.171,25.7a1.11,1.11,0,0,1-1.528.368c-4.183-2.555-9.449-3.134-15.651-1.717a1.111,1.111,0,0,1-.494-2.166c6.787-1.551,12.609-.883,17.3,1.987A1.11,1.11,0,0,1,26.24,25.974Zm2.181-4.852a1.389,1.389,0,0,1-1.911.458c-4.789-2.944-12.089-3.8-17.754-2.077a1.389,1.389,0,1,1-.807-2.658,25.993,25.993,0,0,1,20.014,2.367,1.389,1.389,0,0,1,.457,1.91Zm.187-5.052c-5.742-3.411-15.216-3.724-20.7-2.06a1.666,1.666,0,1,1-.967-3.189C13.236,8.91,23.7,9.279,30.309,13.2a1.666,1.666,0,1,1-1.7,2.866Z" transform="translate(-0.253 -0.277)" fill="#1ed760"/>
</svg>
