<svg id="Twitter" xmlns="http://www.w3.org/2000/svg" width="43.522" height="35.633" viewBox="0 0 43.522 35.633">
  <path id="XMLID_827_" d="M42.534,32.209a16.5,16.5,0,0,1-2.1.767,9.3,9.3,0,0,0,1.894-3.332.7.7,0,0,0-1.027-.818,16.566,16.566,0,0,1-4.9,1.935A9.347,9.347,0,0,0,20.517,37.44a9.531,9.531,0,0,0,.077,1.207,23.92,23.92,0,0,1-16.417-8.71.7.7,0,0,0-1.151.09,9.357,9.357,0,0,0,.958,10.754,7.914,7.914,0,0,1-1.25-.558.7.7,0,0,0-1.043.6c0,.041,0,.083,0,.125A9.376,9.376,0,0,0,6.263,48.98c-.238-.024-.475-.058-.711-.1a.7.7,0,0,0-.8.9A9.34,9.34,0,0,0,11.6,56.043a16.529,16.529,0,0,1-8.835,2.522,16.9,16.9,0,0,1-1.979-.116.7.7,0,0,0-.461,1.288A25.2,25.2,0,0,0,13.946,63.73a24.239,24.239,0,0,0,18.78-8.249,26.145,26.145,0,0,0,6.508-17.039c0-.256,0-.515-.012-.773a18.163,18.163,0,0,0,4.18-4.427.7.7,0,0,0-.868-1.032Z" transform="translate(0.002 -28.097)" fill="#27bcfe"/>
</svg>
