<svg xmlns="http://www.w3.org/2000/svg" width="167.019" height="175.363" viewBox="0 0 167.019 175.363">
  <g id="PGN_Logo_Main" data-name="PGN Logo_Main" transform="translate(-0.011 0.005)">
    <g id="Layer_1" data-name="Layer 1" transform="translate(0.011 -0.005)">
      <path id="Path_414" data-name="Path 414" d="M138.824,37.983a74.991,74.991,0,0,0-110.569,0A70.855,70.855,0,0,0,10.307,94.521l6.921,54.464c1.846,14.782,15.473,25.943,31.544,25.943h69.545c16.123,0,29.7-11.151,31.564-25.932l6.9-54.454a70.855,70.855,0,0,0-17.959-56.558Z" transform="translate(0.297 0.436)" fill="#99cef6"/>
      <path id="Path_415" data-name="Path 415" d="M112.214,168.209H54.449c-16.123,0-29.687-11.14-31.564-25.922L16.7,93.527C11.755,54.442,42.989,20,83.332,20h0c40.353,0,71.587,34.484,66.636,73.568l-6.189,48.76C141.912,157.068,128.347,168.209,112.214,168.209Z" transform="translate(0.499 0.636)" fill="#f87e7d"/>
      <path id="Path_416" data-name="Path 416" d="M63,123.3l-2.95,14.256H38.392a91.052,91.052,0,0,0,1.032-9.923L38,125.167Z" transform="translate(1.187 3.892)" fill="#c48662"/>
      <path id="Path_417" data-name="Path 417" d="M74.719,95.16c-.309,7.025-3.342,31.977-3.652,34.442s-.309,4.229-2.878,5.385c-2.063.908-6.622-.093-10.46-.846-1.032-.2-1.981-.382-2.826-.5-2.331-.34-7.52-.32-11.862-.34a51.729,51.729,0,0,1-6.715-.237c-1.857-.485-1.785-2.125-.928-7.994.464-3.167.268-12.791.856-22.59a2.249,2.249,0,0,1,0-.248.887.887,0,0,1,0-.165c0-.062,0-.113,0-.186,0-.444.1-1.135.2-2.063h-.062c.567-7.489,1.661-14.751,3.94-18.959a15.2,15.2,0,0,1,2.63-3.528h0a17.453,17.453,0,0,1,6.189-3.909A25.871,25.871,0,0,1,55.791,72a16.05,16.05,0,0,1,9.129,1.733C73.884,78.522,74.987,89.136,74.719,95.16Z" transform="translate(1.087 2.272)" fill="#e5e5e4"/>
      <path id="Path_418" data-name="Path 418" d="M68.459,72.166S46.643,79.9,47.22,94.467c.65,16.5.382,44.985.382,44.985l73.506-.072s9.861-38.465,5.085-58.312c-9.572-12.223-14.709-14.534-32.524-17.453S68.459,72.166,68.459,72.166Z" transform="translate(1.477 1.995)" fill="#e1e1e1"/>
      <path id="Path_419" data-name="Path 419" d="M121.132,124.738a37.136,37.136,0,0,1-2.28,6.9c-.547,1.32-1.578,3.456-2.754,5.828H93.91c2.063-5.921,4.539-13.647,4.539-13.647a65.52,65.52,0,0,0,7.107.206c4.6,0,10.109,0,12.585.289C119.038,124.408,120.059,124.563,121.132,124.738Z" transform="translate(2.949 3.908)" fill="#c48662"/>
      <path id="Path_420" data-name="Path 420" d="M69.46,82.433c-.268,1.279-.712.681-1.857,1.867-3.868,7.324-3.373,41.168-3.373,41.168C74.546,80.577,96.662,65.4,96.662,65.4A7.623,7.623,0,0,1,93.1,59.822c-.279-1.846-.382-6.334-.413-9.531V43.07a2.661,2.661,0,0,0,2.826,0c1.124-.547,2.2-2.857,3.095-5.446a32.686,32.686,0,0,0,1.372-3.476,8.954,8.954,0,0,0,.34-1.888A25.788,25.788,0,0,1,94.609,30.2a10.233,10.233,0,0,0-.588,2.063,13.09,13.09,0,0,1-2.063,4.312c0-.165.8-3.291,0-4.828a7.221,7.221,0,0,1-.815-3.095h0a24.272,24.272,0,0,1-6.189-4.25c1.124,1.166,5.364,6.282,5.023,16.793-.206,6.53-1.032,9.366-2.311,11.77h0a66.782,66.782,0,0,0-3.744,7.221,26.366,26.366,0,0,0-1.95,13.338,10.253,10.253,0,0,1-.815-4.683,2.524,2.524,0,0,1,0-.279v-.392l.062-.64v-.547a1.3,1.3,0,0,1,.072-.454l.062-.413.155-.753c.072-.34.155-.67.248-1.032s.113-.444.175-.671l.248-.8h0l.217-.66c.1-.289.2-.567.3-.846s.206-.547.32-.815l.217-.547a1.723,1.723,0,0,0,.083-.206l.155-.361c.279-.64.557-1.248.846-1.826l.279-.567h0a20.866,20.866,0,0,1,1.155-2.063c.175-.3.351-.609.505-.918-3.352,2.558-7.7,4.858-9.872,5.3a14.555,14.555,0,0,1-6.7,0S72.689,67.311,69.46,82.433Z" transform="translate(2.013 0.774)" fill="#c48662"/>
      <path id="Path_421" data-name="Path 421" d="M94.4,28.346c1.929.237,3.848.33,5.8,2.919a8.4,8.4,0,0,1,.67,1.032m-13.606.846c-2.063-7.076-3.786-8.9-3.786-8.9L80.5,22c.093.237,3.095,7.819,4.312,10.253s3.744,7.324,3.744,10.666c0,0,.794-2.744-1.3-9.82Zm-3.59-.732C82.339,29.976,78,21.332,76.449,18.66a16.5,16.5,0,0,0-6.189-5.89s7.066,12.1,10.181,17.99,5.591,9.438,6.447,10.222a72.2,72.2,0,0,0-3.218-8.613Z" transform="translate(2.204 0.408)" fill="none"/>
      <path id="Path_422" data-name="Path 422" d="M88.34,47.921a16.432,16.432,0,0,1-1.63,6.6,32.225,32.225,0,0,1-9.872,5.312,12.378,12.378,0,0,1-6.7,0h0l-.464-.134-.268-.062-.3-.1-.609-.237-.34-.144-.4-.2c-.113-.062-.237-.113-.351-.186l-.186-.093h0l-.3-.175c-.155-.083-.32-.186-.474-.289l-.485-.32c-4.033-2.806-6.406-8.634-8.087-14-.815-2.589-1.3-7.334-1.589-11.532,0-1.434.093-2.868.227-4.3a22.126,22.126,0,0,1,2.507-8.046c1.155-2.218,2.579-4.673,5.158-5.333a5.24,5.24,0,0,1,5.075,1.444,28.553,28.553,0,0,1,5.446,7.448c1.176,2.063,2.063,4.322,3.167,6.457a39.269,39.269,0,0,0,8.809,11.347C88.474,43.041,88.443,45.7,88.34,47.921Z" transform="translate(1.763 0.463)" fill="#c48662"/>
      <path id="Path_423" data-name="Path 423" d="M68.5,17.568l6.189-2.238s6.932,6.695,7.221,6.9,2.393.392,2.744,1.981,3.095,7.1,3.548,9.036,1.155,9.872.887,10.46-5.261-1.454-5.261-1.454Z" transform="translate(2.148 0.488)" fill="#c48662"/>
      <path id="Path_424" data-name="Path 424" d="M61.09,64.58l.382.165" transform="translate(1.915 2.041)" fill="none"/>
      <path id="Path_425" data-name="Path 425" d="M86.928,40.942c-.856-.784-3.342-4.322-6.447-10.222S70.3,12.73,70.3,12.73a16.5,16.5,0,0,1,6.189,5.89c1.558,2.672,5.9,11.347,7.221,13.75A72.208,72.208,0,0,1,86.928,40.942Z" transform="translate(2.205 0.406)" fill="none"/>
      <path id="Path_426" data-name="Path 426" d="M88.246,42.641c0-3.363-2.507-8.252-3.724-10.728S80.3,21.9,80.21,21.66L83.181,23.9s1.681,1.826,3.786,8.9S88.246,42.641,88.246,42.641Z" transform="translate(2.517 0.688)" fill="none"/>
      <path id="Path_427" data-name="Path 427" d="M83.67,32.37C82.339,29.936,78,21.292,76.449,18.62a16.5,16.5,0,0,0-6.189-5.89s7.066,12.1,10.181,17.99,5.591,9.438,6.447,10.222A72.207,72.207,0,0,0,83.67,32.37Zm3.59.732c-2.063-7.076-3.786-8.9-3.786-8.9L80.5,21.962c.093.237,3.095,7.819,4.312,10.253s3.744,7.365,3.744,10.707C88.559,42.923,89.353,40.179,87.259,33.1Z" transform="translate(2.204 0.406)" fill="none"/>
      <path id="Path_428" data-name="Path 428" d="M99.238,16.008h0c-.959-2.383-.609-4.126-2.641-7.912C94.039,3.31,87.314-1.569,77.411.556a12.069,12.069,0,0,0-6.189.289A16.835,16.835,0,0,0,67.1,3.423a23.509,23.509,0,0,0-3.817,3.456,14.493,14.493,0,0,0-2.713,4.6s-5,4.714-5.911,11a80.461,80.461,0,0,0-.4,13.41,66.307,66.307,0,0,0,1.217,13.482,23.364,23.364,0,0,0,1.506,3.858c.547,1.3,1.032,2.62,1.547,3.93a55.619,55.619,0,0,1,2.589,8.366c.072.382.144.753.206,1.124l.382.165c-.062-1.145-.144-2.29-.217-3.414a48.151,48.151,0,0,0-2.063-11.285l-.1-.34a80.458,80.458,0,0,1-2.5-8.324,33.628,33.628,0,0,1-.609-5.931V32.77a11.347,11.347,0,0,1,.062-1.867,21.971,21.971,0,0,1,2.207-8.128c1.155-2.218,3.095-6.107,5.642-6.767A5.24,5.24,0,0,1,69.2,17.452a24.292,24.292,0,0,1,5.426,6.5c1.176,2.063,2.063,4.322,3.167,6.468A39.2,39.2,0,0,0,86.6,41.765c1.785,1.609,1.754,4.281,1.65,6.488a16.5,16.5,0,0,1-1.63,6.612c-.155.309-.33.619-.505.918-2.486,4.126-6.447,13.111-3.889,18.567a26.366,26.366,0,0,1,1.95-13.286,66.784,66.784,0,0,1,3.744-7.221h0c1.228-2.4,2.063-5.24,2.311-11.77.34-10.511-3.9-15.628-5.024-16.793a24.272,24.272,0,0,0,6.189,4.25h0l.65.289L94.586,30.9l.32.134A25.788,25.788,0,0,0,100.62,33.1h.206q.279,0,.5-.433M80.99,31.12c-3.095-5.89-8.252-13.338-8.252-13.338A14.668,14.668,0,0,1,79.1,23.043c1.547,2.672,3.724,7.293,5.054,9.727a72.205,72.205,0,0,1,3.26,8.572C86.581,40.558,84.1,37.02,80.99,31.12ZM87.768,33.5c2.094,7.076,1.3,9.82,1.3,9.82,0-3.363-2.507-8.252-3.724-10.728s-4.219-10.016-4.312-10.253L84,24.58S85.663,26.426,87.768,33.5Z" transform="translate(1.695 0.007)" fill="#37271c"/>
      <path id="Path_429" data-name="Path 429" d="M93.66,27.87c1.929.237,3.848.33,5.8,2.919a8.4,8.4,0,0,1,.67,1.032" transform="translate(2.941 0.884)" fill="none"/>
      <path id="Path_430" data-name="Path 430" d="M80.64,18.76c2.476,3.713,6.787,5.921,9.9,8.252a7,7,0,0,0,3.528,1.2" transform="translate(2.531 0.597)" fill="none"/>
      <path id="Path_431" data-name="Path 431" d="M80.52,5.91A47.925,47.925,0,0,1,88.69,10.8c4.188,3.095,7.221,4.425,8.737,4.776l1.032.248" transform="translate(2.527 0.192)" fill="none"/>
      <path id="Path_432" data-name="Path 432" d="M77.5,28.9s-4.714-7.128-8.727-9.438-6.818.124-7.4,1.423-1.733,5.312-2.723,7.479a21.507,21.507,0,0,0-2.641,10.955c.144,5.931-.33-6.014-.392-6.261s0-10.759,0-10.759,6.437-8.5,7.148-8.861,2.063-1.3,2.238-1.3,13.575,5.5,14.73,7.561a20.951,20.951,0,0,1,1.568,3.548s-5.436-4.374-8.985-4.033c0,0,3.311,2.734,3.9,4.5S77.5,28.9,77.5,28.9Z" transform="translate(1.741 0.388)" fill="#37271c"/>
      <path id="Path_433" data-name="Path 433" d="M97.772,37.26c-.908,2.589-1.981,4.9-3.095,5.446a2.661,2.661,0,0,1-2.826,0s-.062,3.4,0,7.221c0,0,7.458,4.126,9.727-.9S97.772,37.26,97.772,37.26ZM100.1,49.092a4.683,4.683,0,0,1-5.158,1.093s7.86.949,4.549-8.624C99.629,41.778,102.321,46.76,100.1,49.092Z" transform="translate(2.883 1.18)" fill="#2d2016"/>
      <path id="Path_434" data-name="Path 434" d="M93.728,30.064a10.234,10.234,0,0,0-.588,2.063l.268-2.2Z" transform="translate(2.925 0.949)" fill="none"/>
      <path id="Path_435" data-name="Path 435" d="M93.816,30.107l-.588,2.063a13.09,13.09,0,0,1-2.063,4.312c0-.165.8-3.291,0-4.828a7.221,7.221,0,0,1-.815-3.095l.65.289Z" transform="translate(2.837 0.905)" fill="#2d2016"/>
      <path id="Path_436" data-name="Path 436" d="M91.1,36.24h0" transform="translate(2.86 1.147)" fill="none"/>
      <path id="Path_437" data-name="Path 437" d="M68.06,15.337s5.158,0,8,3.012a17.506,17.506,0,0,0,4.508,3.775l6.189-2.342s0-5.24.217-6.189-1.6-2.476-1.939-2.744S84.812,9.818,80.552,9s-8.83-1.826-9.872-1.228S68.06,15.337,68.06,15.337Z" transform="translate(2.134 0.245)" fill="#37271c"/>
      <path id="Path_438" data-name="Path 438" d="M79.033,22.363s9.284,9.17,13.327,10.955,7.107,4.343,6.7,10.573c0,0,1.393-4.384,1.135-5.849a1.671,1.671,0,0,0,.64-1.7s.382.712.9-.567.681-1.65-.516-3.156c0,0,1.032-1.228.908-1.846l-.175-.609a2.393,2.393,0,0,0,1.362-2.177c0-1.558-3.28-3.92-3.28-3.92s3.662.8,3.528,3.734a3.59,3.59,0,0,0-1.485-4.673,12.636,12.636,0,0,0-2.434-5.281S99.354.341,81.745,0,61.93,16,61.93,16,74.009,10.945,79.033,22.363Z" transform="translate(1.941 0.005)" fill="#37271c"/>
      <path id="Path_439" data-name="Path 439" d="M86.2,53.33c-.155.279-.516,1.1-.691,1.372-.361.547-.753,1.186-1.145,1.888-2.507,2.269-5.374,3.992-6.87,4.27a15.7,15.7,0,0,1-6.581,0h0l-.454-.113h-.33c-.309-1.207-.474-2.063-.474-2.063h.072a16.339,16.339,0,0,0,6.7.062C78.562,58.323,82.915,55.62,86.2,53.33Z" transform="translate(2.184 1.686)" opacity="0.09"/>
      <path id="Path_440" data-name="Path 440" d="M137.758,87.772c-.382,7.025-4.126,31.977-4.518,34.442s-.382,4.229-3.559,5.385c-2.507.908-8.2-.093-12.946-.846-1.269-.2-2.455-.382-3.507-.5-2.878-.34-9.284-.32-14.689-.34a76.126,76.126,0,0,1-8.252-.237c-2.311-.485-2.218-2.063-1.155-7.994.578-3.167.33-12.791,1.032-22.59a2.256,2.256,0,0,1,0-.248V94.5c0-.444.124-1.135.237-2.063h-.041c.7-7.489,2.063-14.74,4.879-18.959a15.865,15.865,0,0,1,3.249-3.528h0a23,23,0,0,1,7.685-3.9,37.434,37.434,0,0,1,8.149-1.5,23.849,23.849,0,0,1,11.285,1.764C136.726,71.134,138.088,81.748,137.758,87.772Z" transform="translate(2.776 2.037)" fill="#e5e5e4"/>
      <circle id="Ellipse_11" data-name="Ellipse 11" cx="0.98" cy="0.98" r="0.98" transform="translate(95.776 42.483)" fill="#fff"/>
      <rect id="Rectangle_63" data-name="Rectangle 63" width="0.33" height="1.537" transform="translate(96.591 43.958)" fill="#fff"/>
      <circle id="Ellipse_12" data-name="Ellipse 12" cx="1.64" cy="1.64" r="1.64" transform="translate(95.116 44.732)" fill="#fff"/>
      <path id="Path_441" data-name="Path 441" d="M166.838,135.682a2.527,2.527,0,0,0-1.093-3.167l-2.785-.433a17.536,17.536,0,0,0-4.889-1.846,23.518,23.518,0,0,0-5.034-.547,18.2,18.2,0,0,0-7.056,1.289l-.6.268a2.445,2.445,0,0,1-2.011,0,17.73,17.73,0,0,0-3.26-1.032,23.446,23.446,0,0,0-4.982-.557,18.2,18.2,0,0,0-7.056,1.289,14.443,14.443,0,0,0-2.207,1.166,2.527,2.527,0,0,1-2.713,0c-.289-.175-.588-.34-.887-.5a16.937,16.937,0,0,0-5.766-1.785q.309-.547.557-1.032v-.093a6.777,6.777,0,0,0,.227-4.879,6.54,6.54,0,0,0-4.126-4.126,7.158,7.158,0,0,0-1.124-.279,2.331,2.331,0,0,1-1.032-.444,6.811,6.811,0,0,0-.7-.516,7.221,7.221,0,0,0-3.909-1.207,6.705,6.705,0,0,0-2.362.423,2.29,2.29,0,0,1-1.207.072,7.974,7.974,0,0,0-1.558-.155,6.777,6.777,0,0,0-2.568.5l-.516-.227a9.108,9.108,0,0,0-3.394-.619,10.078,10.078,0,0,0-3.868.774l-.392.175a7.593,7.593,0,0,0-.928-.433,6.561,6.561,0,0,0-2.352-.444h-.083a5.933,5.933,0,0,0-1.032.093l-.062-.144a7.365,7.365,0,0,0-.928-1.382,2.806,2.806,0,0,1-.5-.846,7.219,7.219,0,0,0-.371-.928,9.511,9.511,0,0,0-3.095-3.662,12.275,12.275,0,0,0-4-1.815,17.824,17.824,0,0,0-4.456-.505,21.861,21.861,0,0,0-5.979.834,28.2,28.2,0,0,0-9.721,4.932,26.674,26.674,0,0,0-3.672,3.425,19.382,19.382,0,0,0-2.734,3.992,11.5,11.5,0,0,0-1.351,5.23v.887a2.527,2.527,0,0,1-2.558,2.775H21.662v.268a19.228,19.228,0,0,0-5.158-.681,17.536,17.536,0,0,0-8.159,1.9,15.132,15.132,0,0,0-6.127,5.673,16.092,16.092,0,0,0,0,16.267,15.184,15.184,0,0,0,6.034,5.56,17.329,17.329,0,0,0,8.1,1.919,21.6,21.6,0,0,0,5.261-.681v.258H93.816a16.05,16.05,0,0,0,9.15-2.352c.268-.175.505-.371.753-.567a15.39,15.39,0,0,0,2.228,1.413,18.175,18.175,0,0,0,16.3,0h0a2.569,2.569,0,0,1,2.311-.062,19.764,19.764,0,0,0,3.868,1.32,25.034,25.034,0,0,0,5.838.681,18.093,18.093,0,0,0,7.087-1.32c.444-.2.866-.413,1.279-.64a18.845,18.845,0,0,0,3.755,1.279,25.036,25.036,0,0,0,5.838.681,18.092,18.092,0,0,0,7.087-1.32,12.574,12.574,0,0,0,5.519-4.384,11.584,11.584,0,0,0,2.063-6.612,10.913,10.913,0,0,0-1.537-5.777,2.445,2.445,0,0,1-.144-2.218Z" transform="translate(-0.011 3.413)" fill="#7cb7c8"/>
      <path id="Path_442" data-name="Path 442" d="M166.838,135.138a2.517,2.517,0,0,0-1.093-3.156l-2.785-1.578a17.536,17.536,0,0,0-4.889-1.846,23.517,23.517,0,0,0-5.034-.547,18.2,18.2,0,0,0-7.056,1.289l-.6.268a2.486,2.486,0,0,1-2.011,0,17.733,17.733,0,0,0-3.26-1.032,23.445,23.445,0,0,0-5.034-.547,18.2,18.2,0,0,0-7.056,1.289,14.445,14.445,0,0,0-2.207,1.166,2.527,2.527,0,0,1-2.713,0c-.289-.175-.588-.34-.887-.505a16.917,16.917,0,0,0-5.766-1.774q.309-.536.557-1.032v-.093a6.777,6.777,0,0,0,.227-4.879,6.54,6.54,0,0,0-4.126-4.178,7.16,7.16,0,0,0-1.124-.278,2.228,2.228,0,0,1-1.032-.454c-.227-.175-.454-.351-.7-.505a7.221,7.221,0,0,0-3.909-1.207,6.7,6.7,0,0,0-2.362.423,2.29,2.29,0,0,1-1.207.072,7.973,7.973,0,0,0-1.558-.155,6.777,6.777,0,0,0-2.568.5c-.165-.072-.33-.165-.516-.227a9.108,9.108,0,0,0-3.394-.619,10.077,10.077,0,0,0-3.868.774l-.392.175a7.594,7.594,0,0,0-.928-.433,6.344,6.344,0,0,0-2.352-.444h-.031a5.934,5.934,0,0,0-1.032.093l-.062-.144a7.365,7.365,0,0,0-.928-1.382,2.806,2.806,0,0,1-.5-.846,7.219,7.219,0,0,0-.371-.928,9.511,9.511,0,0,0-3.095-3.662,12.275,12.275,0,0,0-4-1.815,17.824,17.824,0,0,0-4.456-.505,21.861,21.861,0,0,0-5.979.834,28.2,28.2,0,0,0-9.721,4.932A26.676,26.676,0,0,0,53.35,115.6a19.383,19.383,0,0,0-2.734,3.992,11.5,11.5,0,0,0-1.351,5.23v.887a2.527,2.527,0,0,1-2.558,2.775H21.662v.2A19.228,19.228,0,0,0,16.5,128a17.691,17.691,0,0,0-8.159,1.888,15.225,15.225,0,0,0-6.127,5.684,16.092,16.092,0,0,0,0,16.267,15.184,15.184,0,0,0,6.034,5.725,17.33,17.33,0,0,0,8.1,1.908,21.578,21.578,0,0,0,5.261-.671v.258H93.816a16.05,16.05,0,0,0,9.15-2.352c.268-.175.505-.371.753-.567a15.39,15.39,0,0,0,2.228,1.413,18.268,18.268,0,0,0,16.3,0h0a2.569,2.569,0,0,1,2.311-.062,19.764,19.764,0,0,0,3.868,1.32,25.591,25.591,0,0,0,5.838.67,18.092,18.092,0,0,0,7.087-1.31c.444-.2.866-.413,1.279-.64a18.847,18.847,0,0,0,3.755,1.279,25.591,25.591,0,0,0,5.838.67,18.093,18.093,0,0,0,7.087-1.31,12.574,12.574,0,0,0,5.519-4.384,11.584,11.584,0,0,0,2.063-6.612,10.913,10.913,0,0,0-1.537-5.777,2.445,2.445,0,0,1-.144-2.218Z" transform="translate(-0.011 3.359)" fill="#82c7e0"/>
      <path id="Path_443" data-name="Path 443" d="M71.02,112.3a11.348,11.348,0,0,1,2.9.32,5.859,5.859,0,0,1,1.981.866,3.394,3.394,0,0,1,1.135,1.3,3.816,3.816,0,0,1,.351,1.65,5.786,5.786,0,0,1-.5,2.228,11.181,11.181,0,0,1-1.393,2.372,16.236,16.236,0,0,1-2.125,2.3,19.072,19.072,0,0,1-2.7,2.063,18.227,18.227,0,0,1-3.146,1.558,15.782,15.782,0,0,1-3.425.887,12.491,12.491,0,0,0-.65,1.929,7.676,7.676,0,0,0-.237,1.795,3.384,3.384,0,0,0,.124.939,7.541,7.541,0,0,0,.258.774h0l.175.433a1.2,1.2,0,0,1,.062.351.557.557,0,0,1-.206.5,1.186,1.186,0,0,1-.732.175,1.919,1.919,0,0,1-1.032-.32,2.878,2.878,0,0,1-.815-.8,4.271,4.271,0,0,1-.516-1.093,3.971,3.971,0,0,1-.186-1.166,7.664,7.664,0,0,1,.2-1.681,12.771,12.771,0,0,1,.526-1.816,3.373,3.373,0,0,1-.9-.475,3.476,3.476,0,0,1-.65-.64,2.754,2.754,0,0,1-.392-.691,1.97,1.97,0,0,1-.134-.629,1.032,1.032,0,0,1,.186-.629.629.629,0,0,1,.536-.248.588.588,0,0,1,.567.258,1.856,1.856,0,0,1,.237.6,2.063,2.063,0,0,0,.1.3,2.455,2.455,0,0,0,.186.309,1.155,1.155,0,0,0,.309.268,1.4,1.4,0,0,0,.485.175q.392-.949.866-1.888c.309-.619.629-1.217.949-1.795s.629-1.114.928-1.619l.784-1.3.464-.784a1.744,1.744,0,0,0,.175-.3v-.1a2.259,2.259,0,0,1,.072-.65c0-.165.237-.248.578-.248a1.723,1.723,0,0,1,.64.144,2.373,2.373,0,0,1,.629.392,2.126,2.126,0,0,1,.475.578,1.362,1.362,0,0,1,.186.691,2.579,2.579,0,0,1-.371,1.032q-.371.691-.928,1.671l-.526.887q-.248.4-.5.836c-.175.289-.34.588-.505.908L65.006,126a13,13,0,0,0,2.311-1.145,19.4,19.4,0,0,0,2.166-1.661,21.944,21.944,0,0,0,1.929-1.857,15.059,15.059,0,0,0,1.537-1.97,10.9,10.9,0,0,0,1.032-1.919,4.6,4.6,0,0,0,.361-1.712,1.888,1.888,0,0,0-.691-1.516,3.435,3.435,0,0,0-2.249-.588,11.233,11.233,0,0,0-3.095.413,15.367,15.367,0,0,0-2.806,1.093,17.235,17.235,0,0,0-2.517,1.589,24.6,24.6,0,0,0-2.177,1.908,20.919,20.919,0,0,0-1.774,2.063q-.714.946-1.331,1.96a10.739,10.739,0,0,0-.846,1.692,3.951,3.951,0,0,0-.289,1.248.794.794,0,0,0,.083.392.505.505,0,0,0,.206.186.9.9,0,0,0,.289.052h.67a.609.609,0,0,1,.309,0,.464.464,0,0,1,.206.165.588.588,0,0,1,.083.34.475.475,0,0,1-.144.309,1.31,1.31,0,0,1-.371.258,2.714,2.714,0,0,1-.557.186,2.816,2.816,0,0,1-.681.072,3.992,3.992,0,0,1-1.032-.134,2.465,2.465,0,0,1-.959-.475,2.692,2.692,0,0,1-.7-.9,3.218,3.218,0,0,1-.289-1.434,5.4,5.4,0,0,1,.691-2.455,13.265,13.265,0,0,1,1.877-2.713,20.7,20.7,0,0,1,2.837-2.641,22.446,22.446,0,0,1,3.559-2.269A22.206,22.206,0,0,1,66.7,112.95,15.7,15.7,0,0,1,71.02,112.3Z" transform="translate(1.681 3.545)" fill="#f9db7d"/>
      <path id="Path_444" data-name="Path 444" d="M78.908,123.793a.289.289,0,0,1,.268-.124,1.094,1.094,0,0,1,.392.072.856.856,0,0,1,.33.227.258.258,0,0,1,.083.279c-.113.258-.3.619-.557,1.093s-.536,1.032-.877,1.537-.712,1.124-1.124,1.712a14.129,14.129,0,0,1-1.279,1.578,6.951,6.951,0,0,1-1.351,1.166,2.465,2.465,0,0,1-1.351.454,1.754,1.754,0,0,1-1.424-.64,2.527,2.527,0,0,1-.557-1.723,3.724,3.724,0,0,1,.175-1.031c.124-.392.268-.825.454-1.289s.392-.939.619-1.434.454-.97.66-1.423l.722-1.558a3.147,3.147,0,0,0,.3-.856c0-.186.113-.278.351-.258a1.96,1.96,0,0,1,.763.258,3.2,3.2,0,0,1,.774.588,1.032,1.032,0,0,1,.351.753,1.166,1.166,0,0,1-.093.351,1.85,1.85,0,0,1-.227.567l-.309.7-.351.743c-.186.4-.392.825-.609,1.279s-.413.9-.588,1.32-.33.8-.454,1.155a3.094,3.094,0,0,0-.175.836v.155a1.382,1.382,0,0,0,.866-.413,7.519,7.519,0,0,0,1.032-1.031,15.724,15.724,0,0,0,1.032-1.393c.34-.516.65-1.032.939-1.5s.536-.928.743-1.32.361-.681.454-.866Zm-2.919-3.332a.505.505,0,0,1-.464-.237,1.032,1.032,0,0,1-.144-.6,3.177,3.177,0,0,1,.113-.763,4.343,4.343,0,0,1,.33-.815,2.889,2.889,0,0,1,.454-.65.712.712,0,0,1,.516-.258,2.176,2.176,0,0,1,.64.093,1.711,1.711,0,0,1,.547.279,1.434,1.434,0,0,1,.371.454,1.382,1.382,0,0,1,.144.629,1.29,1.29,0,0,1-.186.64,2.2,2.2,0,0,1-.516.609,2.94,2.94,0,0,1-.794.444,2.7,2.7,0,0,1-1.011.175Z" transform="translate(2.241 3.697)" fill="#f9db7d"/>
      <path id="Path_445" data-name="Path 445" d="M87.995,123.727a.949.949,0,0,1,.423-.413.6.6,0,0,1,.444,0,.536.536,0,0,1,.279.3.774.774,0,0,1-.072.567c-.113.227-.289.578-.505,1.032s-.485.97-.784,1.527a17.144,17.144,0,0,1-1.032,1.712,14.719,14.719,0,0,1-1.124,1.578,6.4,6.4,0,0,1-1.2,1.176,1.96,1.96,0,0,1-1.155.454,1.784,1.784,0,0,1-1.423-.64,2.527,2.527,0,0,1-.557-1.723,3.642,3.642,0,0,1,.144-.9c.1-.361.237-.753.392-1.166s.351-.856.557-1.32l.6-1.32-1.207,1.444c-.433.516-.836,1.032-1.217,1.516s-.712.959-1.032,1.4a10.572,10.572,0,0,0-.65,1.093v.4a.381.381,0,0,1,0,.124.506.506,0,0,0,0,.124h0a1.881,1.881,0,0,0,.093.382.774.774,0,0,1,0,.309.31.31,0,0,1-.175.206.784.784,0,0,1-.423.082,1.568,1.568,0,0,1-.681-.165,2.144,2.144,0,0,1-.64-.475,2.764,2.764,0,0,1-.485-.722,2.321,2.321,0,0,1-.186-.949,3.941,3.941,0,0,1,.134-1.032,8.169,8.169,0,0,1,.371-1.1c.155-.382.32-.763.516-1.155l.588-1.155c.33-.64.619-1.238.877-1.785a3.424,3.424,0,0,0,.382-1.362c0-.186.134-.289.382-.3a1.929,1.929,0,0,1,.866.2,2.8,2.8,0,0,1,.856.6,1.3,1.3,0,0,1,.382.928,1.816,1.816,0,0,1-.134.609,7.875,7.875,0,0,1-.34.825q.547-.65,1.083-1.269a13.305,13.305,0,0,1,1.032-1.093c.351-.32.588-.578.815-.774a1.031,1.031,0,0,1,.505-.3h.113a.32.32,0,0,1,.134,0,1.991,1.991,0,0,1,.474.258,3.238,3.238,0,0,1,.5.433,2.993,2.993,0,0,1,.371.567,1.361,1.361,0,0,1,.144.619,2.651,2.651,0,0,1-.289.887c-.186.423-.423.918-.691,1.475l-.619,1.289c-.217.444-.413.877-.588,1.289s-.32.8-.433,1.155a3.093,3.093,0,0,0-.175.856v.134a1.031,1.031,0,0,0,.629-.361,7.846,7.846,0,0,0,.8-.97c.279-.392.567-.835.867-1.32s.567-.959.815-1.444.5-.918.691-1.341.361-.743.464-1.032Z" transform="translate(2.397 3.825)" fill="#f9db7d"/>
      <path id="Path_446" data-name="Path 446" d="M85.76,128.216a5.086,5.086,0,0,1,.258-1.568,8.325,8.325,0,0,1,.691-1.6,9.335,9.335,0,0,1,2.393-2.744,6.705,6.705,0,0,1,1.485-.846,3.878,3.878,0,0,1,1.537-.32,2.981,2.981,0,0,1,1.124.186,2.239,2.239,0,0,1,.763.474,1.919,1.919,0,0,1,.454.64,2.578,2.578,0,0,1,.227.67,2.383,2.383,0,0,1,0,.588,1.156,1.156,0,0,1-.072.371h0a.2.2,0,0,1-.217.124,1,1,0,0,1-.629-.227c-.093-.062-.134-.113-.124-.144a1.149,1.149,0,0,0,0-.2.681.681,0,0,0-.1-.32.784.784,0,0,0-.309-.3,1.217,1.217,0,0,0-.629-.134,1.506,1.506,0,0,0-.9.371,5.912,5.912,0,0,0-.959.949,11.5,11.5,0,0,0-.908,1.331,13.77,13.77,0,0,0-.763,1.506,10.52,10.52,0,0,0-.516,1.475,4.22,4.22,0,0,0-.206,1.217c0,.413.124.629.371.629a1.382,1.382,0,0,0,.887-.392,4.9,4.9,0,0,0,.887-.98,9.388,9.388,0,0,0,.794-1.31q.371-.712.65-1.362c.186-.433.33-.815.433-1.135a3.147,3.147,0,0,0,.165-.65.186.186,0,0,1,.165-.2,1.031,1.031,0,0,1,.444,0,4.7,4.7,0,0,1,.567.2,3.4,3.4,0,0,1,.578.3,2.206,2.206,0,0,1,.433.351.526.526,0,0,1,.175.32,1.846,1.846,0,0,1-.186.629c-.124.3-.268.629-.433,1.032s-.237.526-.351.8-.237.557-.34.825a6.908,6.908,0,0,0-.237.753,2.362,2.362,0,0,0-.1.578v.083c.165,0,.371-.134.619-.413a10.6,10.6,0,0,0,.815-1.031c.289-.433.578-.9.877-1.413s.578-1.031.846-1.5.5-.918.691-1.31l.433-.866a.279.279,0,0,1,.279-.144,1.115,1.115,0,0,1,.392.083.877.877,0,0,1,.32.217.258.258,0,0,1,.083.278c-.1.237-.279.588-.516,1.032s-.516,1.032-.836,1.537-.66,1.135-1.032,1.723A19.013,19.013,0,0,1,95.106,130a8.842,8.842,0,0,1-1.1,1.176,1.62,1.62,0,0,1-1.032.464,1.516,1.516,0,0,1-.887-.258,3.279,3.279,0,0,1-.629-.547,2.826,2.826,0,0,1-.526-.825c-.144.165-.3.34-.5.526a4.962,4.962,0,0,1-.6.526,3.869,3.869,0,0,1-.681.413,1.62,1.62,0,0,1-.7.165,2.269,2.269,0,0,1-1.2-.309,2.486,2.486,0,0,1-.866-.8,3.785,3.785,0,0,1-.536-1.1,4.271,4.271,0,0,1-.093-1.207Z" transform="translate(2.692 3.823)" fill="#f9db7d"/>
      <path id="Path_447" data-name="Path 447" d="M107.38,123.7a.835.835,0,0,1,.413-.413.578.578,0,0,1,.433,0,.433.433,0,0,1,.279.3.8.8,0,0,1-.062.567,6.818,6.818,0,0,1-.918,1.5,18.567,18.567,0,0,1-1.393,1.558c-.526.526-1.093,1.031-1.723,1.568s-1.269,1.032-1.929,1.578c-.516,1.032-1.032,2.063-1.661,3.095a30.387,30.387,0,0,1-1.774,2.785,11.956,11.956,0,0,1-1.754,1.991,2.5,2.5,0,0,1-1.609.763,3.693,3.693,0,0,1-1.31-.2,2.342,2.342,0,0,1-.836-.505,1.826,1.826,0,0,1-.547-1.238,1.857,1.857,0,0,1,.444-1.1,8.045,8.045,0,0,1,1.217-1.269c.516-.454,1.1-.928,1.774-1.423s1.393-1.032,2.146-1.558l.34-.629.217-.351a1.69,1.69,0,0,0,.124-.227l.124-.227a2.505,2.505,0,0,0,.165-.361c.072-.144.155-.361.279-.629-.268.33-.536.64-.794.918s-.516.536-.753.753a3.827,3.827,0,0,1-.65.516,1.031,1.031,0,0,1-.516.2,1.258,1.258,0,0,1-.763-.258,2.8,2.8,0,0,1-.639-.619,2.92,2.92,0,0,1-.433-.784,2.063,2.063,0,0,1-.206-.743,4.044,4.044,0,0,1,.144-1.032,9.282,9.282,0,0,1,.371-1.1q.248-.557.526-1.145l.588-1.135c.155-.3.3-.609.454-.9s.289-.588.4-.856a4.54,4.54,0,0,0,.278-.753,2.064,2.064,0,0,0,.113-.588c0-.175.124-.268.382-.268a2.166,2.166,0,0,1,.856.2,2.589,2.589,0,0,1,.856.567,1.207,1.207,0,0,1,.392.9,2.064,2.064,0,0,1-.134.609c-.093.248-.206.536-.351.846s-.309.66-.5,1.032-.382.743-.578,1.124l-.7,1.341c-.227.433-.423.825-.6,1.176s-.309.64-.413.856-.134.32-.093.32a1.33,1.33,0,0,0,.454-.34,11.049,11.049,0,0,0,.774-.887c.289-.361.619-.763.97-1.228s.681-.908,1.032-1.372l.939-1.3.712-1.032.578-1.5a3.846,3.846,0,0,0,.217-.629,1.248,1.248,0,0,1,.186-.774.681.681,0,0,1,.547-.237,1.032,1.032,0,0,1,.557.2,4.311,4.311,0,0,1,.578.505,3.187,3.187,0,0,1,.454.65,1.506,1.506,0,0,1,.186.681,3.229,3.229,0,0,1-.134.65c-.093.3-.206.66-.361,1.093s-.33.9-.536,1.413-.423,1.032-.65,1.589a24.209,24.209,0,0,0,2.269-2.063,9.284,9.284,0,0,0,1.527-2.125ZM94.032,137.5a1.743,1.743,0,0,0,1.032-.361,6.282,6.282,0,0,0,1.032-.959,13.117,13.117,0,0,0,1.031-1.424,20,20,0,0,0,1.032-1.723q-.928.7-1.733,1.331c-.547.423-1.032.8-1.424,1.166a7.428,7.428,0,0,0-.949.959,1.238,1.238,0,0,0-.351.722C93.815,137.428,93.9,137.5,94.032,137.5Z" transform="translate(2.92 3.823)" fill="#f9db7d"/>
      <path id="Path_448" data-name="Path 448" d="M18.792,142.367h5.354V150.1a12.378,12.378,0,0,1-3.765,1.733,15.472,15.472,0,0,1-4.209.6,11.1,11.1,0,0,1-5.25-1.217,9.057,9.057,0,0,1-3.652-3.394,9.964,9.964,0,0,1,0-9.913,9.108,9.108,0,0,1,3.693-3.394,11.449,11.449,0,0,1,5.354-1.217,12.079,12.079,0,0,1,4.817.908,9.046,9.046,0,0,1,3.548,2.62L20.732,140.3a5.24,5.24,0,0,0-4.126-2.063,4.353,4.353,0,0,0-3.239,1.228,5.25,5.25,0,0,0,0,6.664,4.126,4.126,0,0,0,3.177,1.3,5.787,5.787,0,0,0,2.249-.444Z" transform="translate(0.177 4.207)" fill="#fff"/>
      <path id="Path_449" data-name="Path 449" d="M26.91,133.71H33.1V152H26.91Z" transform="translate(0.837 4.22)" fill="#fff"/>
      <path id="Path_450" data-name="Path 450" d="M44.38,147.419H42.709v4.6H36.52V133.71h8.809a10.81,10.81,0,0,1,4.415.836,6.767,6.767,0,0,1,3.033,9.49,6.364,6.364,0,0,1-2.538,2.352l3.837,5.642H47.5Zm2.455-8.376a2.744,2.744,0,0,0-1.877-.557H42.709v4.281h2.249a2.744,2.744,0,0,0,1.877-.557,1.98,1.98,0,0,0,.629-1.578,2.063,2.063,0,0,0-.629-1.609Z" transform="translate(1.14 4.22)" fill="#fff"/>
      <path id="Path_451" data-name="Path 451" d="M105.585,151.207a9.387,9.387,0,0,1,0-16.68,12.089,12.089,0,0,1,10.614,0,9.366,9.366,0,0,1,3.693,3.414,9.779,9.779,0,0,1,0,9.851,9.366,9.366,0,0,1-3.693,3.414,12.089,12.089,0,0,1-10.614,0Zm7.386-4.322a4.126,4.126,0,0,0,1.485-1.6,5.622,5.622,0,0,0,0-4.838,4.023,4.023,0,0,0-1.485-1.589,4.126,4.126,0,0,0-4.126,0,4,4,0,0,0-1.475,1.589,5.622,5.622,0,0,0,0,4.838,3.963,3.963,0,0,0,5.6,1.6Z" transform="translate(3.157 4.207)" fill="#fff"/>
      <path id="Path_452" data-name="Path 452" d="M125.958,151.928a12.132,12.132,0,0,1-3.548-1.372l1.991-4.5a12.74,12.74,0,0,0,2.93,1.217,11.594,11.594,0,0,0,3.095.454,4.786,4.786,0,0,0,1.826-.248.794.794,0,0,0,.557-.743c0-.392-.248-.67-.722-.866a14.886,14.886,0,0,0-2.362-.629,27.074,27.074,0,0,1-3.528-.949,6.035,6.035,0,0,1-2.465-1.671,4.59,4.59,0,0,1-1.032-3.156,5.4,5.4,0,0,1,.97-3.095,6.354,6.354,0,0,1,2.888-2.218,11.862,11.862,0,0,1,4.662-.815,17.112,17.112,0,0,1,3.7.4,11.707,11.707,0,0,1,3.2,1.2l-1.857,4.466a11.347,11.347,0,0,0-5.1-1.362c-1.589,0-2.383.382-2.383,1.155,0,.361.237.64.712.825a17.28,17.28,0,0,0,2.321.588,22.887,22.887,0,0,1,3.528.9,6.189,6.189,0,0,1,2.5,1.661,4.425,4.425,0,0,1,1.032,3.095,5.364,5.364,0,0,1-.97,3.095,6.5,6.5,0,0,1-2.888,2.218,11.852,11.852,0,0,1-4.662.825,19.661,19.661,0,0,1-4.394-.474Z" transform="translate(3.847 4.208)" fill="#fff"/>
      <path id="Path_453" data-name="Path 453" d="M143.358,151.928a12.173,12.173,0,0,1-3.538-1.372l1.991-4.5a12.851,12.851,0,0,0,2.919,1.217,11.728,11.728,0,0,0,3.095.454,4.786,4.786,0,0,0,1.826-.248.794.794,0,0,0,.557-.743c0-.392-.248-.67-.722-.866a15.215,15.215,0,0,0-2.362-.629,27.743,27.743,0,0,1-3.538-.949,6.075,6.075,0,0,1-2.455-1.671,4.59,4.59,0,0,1-1.032-3.156,5.4,5.4,0,0,1,.97-3.095,6.354,6.354,0,0,1,2.888-2.218,11.863,11.863,0,0,1,4.663-.815,16.948,16.948,0,0,1,3.693.4,11.779,11.779,0,0,1,3.208,1.2l-1.857,4.466a11.347,11.347,0,0,0-5.1-1.362c-1.589,0-2.383.382-2.383,1.155,0,.361.237.64.712.825a16.507,16.507,0,0,0,2.321.588,23.517,23.517,0,0,1,3.528.9,6.189,6.189,0,0,1,2.5,1.661,4.425,4.425,0,0,1,1.032,3.095,5.364,5.364,0,0,1-.97,3.095,6.5,6.5,0,0,1-2.888,2.218,11.852,11.852,0,0,1-4.662.825A19.826,19.826,0,0,1,143.358,151.928Z" transform="translate(4.396 4.208)" fill="#fff"/>
      <path id="Path_454" data-name="Path 454" d="M95.567,142.437a4.673,4.673,0,0,0,1.9-1.65,3.961,3.961,0,0,0,.6-1.712,3.383,3.383,0,0,1-2,.753,4.961,4.961,0,0,1-1.754-.279,3.93,3.93,0,0,1-1.248-.763,3.094,3.094,0,0,1-.722-1.1,2.97,2.97,0,0,1-.2-1.032,3.1,3.1,0,0,1,.691-1.846,7.8,7.8,0,0,1,.753-.846,14.275,14.275,0,0,0-2.878-.258H80.93v18.289H91.245a10.408,10.408,0,0,0,5.746-1.31,4.25,4.25,0,0,0,1.991-3.734,4.363,4.363,0,0,0-.9-2.764A5.405,5.405,0,0,0,95.567,142.437ZM87,138.022h2.878q2.063,0,2.063,1.362c0,.9-.67,1.351-2.063,1.351H87Zm3.713,9.665H87V144.82h3.713c1.362,0,2.063.475,2.063,1.434S92.07,147.687,90.709,147.687Z" transform="translate(2.54 4.219)" fill="#fff"/>
      <path id="Path_455" data-name="Path 455" d="M62.348,135.216a3.167,3.167,0,0,1-1.279-.485,4.127,4.127,0,0,1-1.032-1.032H56.18v18.289H70.621v-4.776H62.369Z" transform="translate(1.76 4.219)" fill="#fff"/>
      <path id="Path_456" data-name="Path 456" d="M166.838,135.682a2.527,2.527,0,0,0-1.093-3.167l-2.785-.433a17.536,17.536,0,0,0-4.889-1.846,23.518,23.518,0,0,0-5.034-.547,18.2,18.2,0,0,0-7.056,1.289l-.6.268a2.445,2.445,0,0,1-2.011,0,17.73,17.73,0,0,0-3.26-1.032,23.446,23.446,0,0,0-4.982-.557,18.2,18.2,0,0,0-7.056,1.289,14.443,14.443,0,0,0-2.207,1.166,2.527,2.527,0,0,1-2.713,0c-.289-.175-.588-.34-.887-.5a16.937,16.937,0,0,0-5.766-1.785q.309-.547.557-1.032v-.093a6.777,6.777,0,0,0,.227-4.879,6.54,6.54,0,0,0-4.126-4.126,7.158,7.158,0,0,0-1.124-.279,2.331,2.331,0,0,1-1.032-.444,6.811,6.811,0,0,0-.7-.516,7.221,7.221,0,0,0-3.909-1.207,6.705,6.705,0,0,0-2.362.423,2.29,2.29,0,0,1-1.207.072,7.974,7.974,0,0,0-1.558-.155,6.777,6.777,0,0,0-2.568.5l-.516-.227a9.108,9.108,0,0,0-3.394-.619,10.078,10.078,0,0,0-3.868.774l-.392.175a7.593,7.593,0,0,0-.928-.433,6.561,6.561,0,0,0-2.352-.444h-.083a5.933,5.933,0,0,0-1.032.093l-.062-.144a7.365,7.365,0,0,0-.928-1.382,2.806,2.806,0,0,1-.5-.846,7.219,7.219,0,0,0-.371-.928,9.511,9.511,0,0,0-3.095-3.662,12.275,12.275,0,0,0-4-1.815,17.824,17.824,0,0,0-4.456-.505,21.861,21.861,0,0,0-5.979.834,28.2,28.2,0,0,0-9.721,4.932,26.674,26.674,0,0,0-3.672,3.425,19.382,19.382,0,0,0-2.734,3.992,11.5,11.5,0,0,0-1.351,5.23v.887a2.527,2.527,0,0,1-2.558,2.775H21.662v.268a19.228,19.228,0,0,0-5.158-.681,17.536,17.536,0,0,0-8.159,1.9,15.132,15.132,0,0,0-6.127,5.673,16.092,16.092,0,0,0,0,16.267,15.184,15.184,0,0,0,6.034,5.56,17.329,17.329,0,0,0,8.1,1.919,21.6,21.6,0,0,0,5.261-.681v.258H93.816a16.05,16.05,0,0,0,9.15-2.352c.268-.175.505-.371.753-.567a15.39,15.39,0,0,0,2.228,1.413,18.175,18.175,0,0,0,16.3,0h0a2.569,2.569,0,0,1,2.311-.062,19.764,19.764,0,0,0,3.868,1.32,25.034,25.034,0,0,0,5.838.681,18.093,18.093,0,0,0,7.087-1.32c.444-.2.866-.413,1.279-.64a18.845,18.845,0,0,0,3.755,1.279,25.036,25.036,0,0,0,5.838.681,18.092,18.092,0,0,0,7.087-1.32,12.574,12.574,0,0,0,5.519-4.384,11.584,11.584,0,0,0,2.063-6.612,10.913,10.913,0,0,0-1.537-5.777,2.445,2.445,0,0,1-.144-2.218Z" transform="translate(-0.011 3.413)" fill="#63a9d3"/>
      <path id="Path_457" data-name="Path 457" d="M166.838,135.138a2.517,2.517,0,0,0-1.093-3.156l-2.785-1.578a17.536,17.536,0,0,0-4.889-1.846,23.517,23.517,0,0,0-5.034-.547,18.2,18.2,0,0,0-7.056,1.289l-.6.268a2.486,2.486,0,0,1-2.011,0,17.733,17.733,0,0,0-3.26-1.032,23.445,23.445,0,0,0-5.034-.547,18.2,18.2,0,0,0-7.056,1.289,14.445,14.445,0,0,0-2.207,1.166,2.527,2.527,0,0,1-2.713,0c-.289-.175-.588-.34-.887-.505a16.917,16.917,0,0,0-5.766-1.774q.309-.536.557-1.032v-.093a6.777,6.777,0,0,0,.227-4.879,6.54,6.54,0,0,0-4.126-4.178,7.16,7.16,0,0,0-1.124-.278,2.228,2.228,0,0,1-1.032-.454c-.227-.175-.454-.351-.7-.505a7.221,7.221,0,0,0-3.909-1.207,6.7,6.7,0,0,0-2.362.423,2.29,2.29,0,0,1-1.207.072,7.973,7.973,0,0,0-1.558-.155,6.777,6.777,0,0,0-2.568.5c-.165-.072-.33-.165-.516-.227a9.108,9.108,0,0,0-3.394-.619,10.077,10.077,0,0,0-3.868.774l-.392.175a7.594,7.594,0,0,0-.928-.433,6.344,6.344,0,0,0-2.352-.444h-.031a5.934,5.934,0,0,0-1.032.093l-.062-.144a7.365,7.365,0,0,0-.928-1.382,2.806,2.806,0,0,1-.5-.846,7.219,7.219,0,0,0-.371-.928,9.511,9.511,0,0,0-3.095-3.662,12.275,12.275,0,0,0-4-1.815,17.824,17.824,0,0,0-4.456-.505,21.861,21.861,0,0,0-5.979.834,28.2,28.2,0,0,0-9.721,4.932A26.676,26.676,0,0,0,53.35,115.6a19.383,19.383,0,0,0-2.734,3.992,11.5,11.5,0,0,0-1.351,5.23v.887a2.527,2.527,0,0,1-2.558,2.775H21.662v.2A19.228,19.228,0,0,0,16.5,128a17.691,17.691,0,0,0-8.159,1.888,15.225,15.225,0,0,0-6.127,5.684,16.092,16.092,0,0,0,0,16.267,15.184,15.184,0,0,0,6.034,5.725,17.33,17.33,0,0,0,8.1,1.908,21.578,21.578,0,0,0,5.261-.671v.258H93.816a16.05,16.05,0,0,0,9.15-2.352c.268-.175.505-.371.753-.567a15.39,15.39,0,0,0,2.228,1.413,18.268,18.268,0,0,0,16.3,0h0a2.569,2.569,0,0,1,2.311-.062,19.764,19.764,0,0,0,3.868,1.32,25.591,25.591,0,0,0,5.838.67,18.092,18.092,0,0,0,7.087-1.31c.444-.2.866-.413,1.279-.64a18.847,18.847,0,0,0,3.755,1.279,25.591,25.591,0,0,0,5.838.67,18.093,18.093,0,0,0,7.087-1.31,12.574,12.574,0,0,0,5.519-4.384,11.584,11.584,0,0,0,2.063-6.612,10.913,10.913,0,0,0-1.537-5.777,2.445,2.445,0,0,1-.144-2.218Z" transform="translate(-0.011 3.359)" fill="#99cef6"/>
      <path id="Path_458" data-name="Path 458" d="M71.02,112.3a11.348,11.348,0,0,1,2.9.32,5.859,5.859,0,0,1,1.981.866,3.394,3.394,0,0,1,1.135,1.3,3.816,3.816,0,0,1,.351,1.65,5.786,5.786,0,0,1-.5,2.228,11.181,11.181,0,0,1-1.393,2.372,16.236,16.236,0,0,1-2.125,2.3,19.072,19.072,0,0,1-2.7,2.063,18.227,18.227,0,0,1-3.146,1.558,15.782,15.782,0,0,1-3.425.887,12.491,12.491,0,0,0-.65,1.929,7.676,7.676,0,0,0-.237,1.795,3.384,3.384,0,0,0,.124.939,7.541,7.541,0,0,0,.258.774h0l.175.433a1.2,1.2,0,0,1,.062.351.557.557,0,0,1-.206.5,1.186,1.186,0,0,1-.732.175,1.919,1.919,0,0,1-1.032-.32,2.878,2.878,0,0,1-.815-.8,4.271,4.271,0,0,1-.516-1.093,3.971,3.971,0,0,1-.186-1.166,7.664,7.664,0,0,1,.2-1.681,12.771,12.771,0,0,1,.526-1.816,3.373,3.373,0,0,1-.9-.475,3.476,3.476,0,0,1-.65-.64,2.754,2.754,0,0,1-.392-.691,1.97,1.97,0,0,1-.134-.629,1.032,1.032,0,0,1,.186-.629.629.629,0,0,1,.536-.248.588.588,0,0,1,.567.258,1.856,1.856,0,0,1,.237.6,2.063,2.063,0,0,0,.1.3,2.455,2.455,0,0,0,.186.309,1.155,1.155,0,0,0,.309.268,1.4,1.4,0,0,0,.485.175q.392-.949.866-1.888c.309-.619.629-1.217.949-1.795s.629-1.114.928-1.619l.784-1.3.464-.784a1.744,1.744,0,0,0,.175-.3v-.1a2.259,2.259,0,0,1,.072-.65c0-.165.237-.248.578-.248a1.723,1.723,0,0,1,.64.144,2.373,2.373,0,0,1,.629.392,2.126,2.126,0,0,1,.475.578,1.362,1.362,0,0,1,.186.691,2.579,2.579,0,0,1-.371,1.032q-.371.691-.928,1.671l-.526.887q-.248.4-.5.836c-.175.289-.34.588-.505.908L65.006,126a13,13,0,0,0,2.311-1.145,19.4,19.4,0,0,0,2.166-1.661,21.944,21.944,0,0,0,1.929-1.857,15.059,15.059,0,0,0,1.537-1.97,10.9,10.9,0,0,0,1.032-1.919,4.6,4.6,0,0,0,.361-1.712,1.888,1.888,0,0,0-.691-1.516,3.435,3.435,0,0,0-2.249-.588,11.233,11.233,0,0,0-3.095.413,15.367,15.367,0,0,0-2.806,1.093,17.235,17.235,0,0,0-2.517,1.589,24.6,24.6,0,0,0-2.177,1.908,20.919,20.919,0,0,0-1.774,2.063q-.714.946-1.331,1.96a10.739,10.739,0,0,0-.846,1.692,3.951,3.951,0,0,0-.289,1.248.794.794,0,0,0,.083.392.505.505,0,0,0,.206.186.9.9,0,0,0,.289.052h.67a.609.609,0,0,1,.309,0,.464.464,0,0,1,.206.165.588.588,0,0,1,.083.34.475.475,0,0,1-.144.309,1.31,1.31,0,0,1-.371.258,2.714,2.714,0,0,1-.557.186,2.816,2.816,0,0,1-.681.072,3.992,3.992,0,0,1-1.032-.134,2.465,2.465,0,0,1-.959-.475,2.692,2.692,0,0,1-.7-.9,3.218,3.218,0,0,1-.289-1.434,5.4,5.4,0,0,1,.691-2.455,13.265,13.265,0,0,1,1.877-2.713,20.7,20.7,0,0,1,2.837-2.641,22.446,22.446,0,0,1,3.559-2.269A22.206,22.206,0,0,1,66.7,112.95,15.7,15.7,0,0,1,71.02,112.3Z" transform="translate(1.681 3.545)" fill="#f9db7d"/>
      <path id="Path_459" data-name="Path 459" d="M78.908,123.793a.289.289,0,0,1,.268-.124,1.094,1.094,0,0,1,.392.072.856.856,0,0,1,.33.227.258.258,0,0,1,.083.279c-.113.258-.3.619-.557,1.093s-.536,1.032-.877,1.537-.712,1.124-1.124,1.712a14.129,14.129,0,0,1-1.279,1.578,6.951,6.951,0,0,1-1.351,1.166,2.465,2.465,0,0,1-1.351.454,1.754,1.754,0,0,1-1.424-.64,2.527,2.527,0,0,1-.557-1.723,3.724,3.724,0,0,1,.175-1.031c.124-.392.268-.825.454-1.289s.392-.939.619-1.434.454-.97.66-1.423l.722-1.558a3.147,3.147,0,0,0,.3-.856c0-.186.113-.278.351-.258a1.96,1.96,0,0,1,.763.258,3.2,3.2,0,0,1,.774.588,1.032,1.032,0,0,1,.351.753,1.166,1.166,0,0,1-.093.351,1.85,1.85,0,0,1-.227.567l-.309.7-.351.743c-.186.4-.392.825-.609,1.279s-.413.9-.588,1.32-.33.8-.454,1.155a3.094,3.094,0,0,0-.175.836v.155a1.382,1.382,0,0,0,.866-.413,7.519,7.519,0,0,0,1.032-1.031,15.724,15.724,0,0,0,1.032-1.393c.34-.516.65-1.032.939-1.5s.536-.928.743-1.32.361-.681.454-.866Zm-2.919-3.332a.505.505,0,0,1-.464-.237,1.032,1.032,0,0,1-.144-.6,3.177,3.177,0,0,1,.113-.763,4.343,4.343,0,0,1,.33-.815,2.889,2.889,0,0,1,.454-.65.712.712,0,0,1,.516-.258,2.176,2.176,0,0,1,.64.093,1.711,1.711,0,0,1,.547.279,1.434,1.434,0,0,1,.371.454,1.382,1.382,0,0,1,.144.629,1.29,1.29,0,0,1-.186.64,2.2,2.2,0,0,1-.516.609,2.94,2.94,0,0,1-.794.444,2.7,2.7,0,0,1-1.011.175Z" transform="translate(2.241 3.697)" fill="#f9db7d"/>
      <path id="Path_460" data-name="Path 460" d="M87.995,123.727a.949.949,0,0,1,.423-.413.6.6,0,0,1,.444,0,.536.536,0,0,1,.279.3.774.774,0,0,1-.072.567c-.113.227-.289.578-.505,1.032s-.485.97-.784,1.527a17.144,17.144,0,0,1-1.032,1.712,14.719,14.719,0,0,1-1.124,1.578,6.4,6.4,0,0,1-1.2,1.176,1.96,1.96,0,0,1-1.155.454,1.784,1.784,0,0,1-1.423-.64,2.527,2.527,0,0,1-.557-1.723,3.642,3.642,0,0,1,.144-.9c.1-.361.237-.753.392-1.166s.351-.856.557-1.32l.6-1.32-1.207,1.444c-.433.516-.836,1.032-1.217,1.516s-.712.959-1.032,1.4a10.572,10.572,0,0,0-.65,1.093v.4a.381.381,0,0,1,0,.124.506.506,0,0,0,0,.124h0a1.881,1.881,0,0,0,.093.382.774.774,0,0,1,0,.309.31.31,0,0,1-.175.206.784.784,0,0,1-.423.082,1.568,1.568,0,0,1-.681-.165,2.144,2.144,0,0,1-.64-.475,2.764,2.764,0,0,1-.485-.722,2.321,2.321,0,0,1-.186-.949,3.941,3.941,0,0,1,.134-1.032,8.169,8.169,0,0,1,.371-1.1c.155-.382.32-.763.516-1.155l.588-1.155c.33-.64.619-1.238.877-1.785a3.424,3.424,0,0,0,.382-1.362c0-.186.134-.289.382-.3a1.929,1.929,0,0,1,.866.2,2.8,2.8,0,0,1,.856.6,1.3,1.3,0,0,1,.382.928,1.816,1.816,0,0,1-.134.609,7.875,7.875,0,0,1-.34.825q.547-.65,1.083-1.269a13.305,13.305,0,0,1,1.032-1.093c.351-.32.588-.578.815-.774a1.031,1.031,0,0,1,.505-.3h.113a.32.32,0,0,1,.134,0,1.991,1.991,0,0,1,.474.258,3.238,3.238,0,0,1,.5.433,2.993,2.993,0,0,1,.371.567,1.361,1.361,0,0,1,.144.619,2.651,2.651,0,0,1-.289.887c-.186.423-.423.918-.691,1.475l-.619,1.289c-.217.444-.413.877-.588,1.289s-.32.8-.433,1.155a3.093,3.093,0,0,0-.175.856v.134a1.031,1.031,0,0,0,.629-.361,7.846,7.846,0,0,0,.8-.97c.279-.392.567-.835.867-1.32s.567-.959.815-1.444.5-.918.691-1.341.361-.743.464-1.032Z" transform="translate(2.397 3.825)" fill="#f9db7d"/>
      <path id="Path_461" data-name="Path 461" d="M85.76,128.216a5.086,5.086,0,0,1,.258-1.568,8.325,8.325,0,0,1,.691-1.6,9.335,9.335,0,0,1,2.393-2.744,6.705,6.705,0,0,1,1.485-.846,3.878,3.878,0,0,1,1.537-.32,2.981,2.981,0,0,1,1.124.186,2.239,2.239,0,0,1,.763.474,1.919,1.919,0,0,1,.454.64,2.578,2.578,0,0,1,.227.67,2.383,2.383,0,0,1,0,.588,1.156,1.156,0,0,1-.072.371h0a.2.2,0,0,1-.217.124,1,1,0,0,1-.629-.227c-.093-.062-.134-.113-.124-.144a1.149,1.149,0,0,0,0-.2.681.681,0,0,0-.1-.32.784.784,0,0,0-.309-.3,1.217,1.217,0,0,0-.629-.134,1.506,1.506,0,0,0-.9.371,5.912,5.912,0,0,0-.959.949,11.5,11.5,0,0,0-.908,1.331,13.77,13.77,0,0,0-.763,1.506,10.52,10.52,0,0,0-.516,1.475,4.22,4.22,0,0,0-.206,1.217c0,.413.124.629.371.629a1.382,1.382,0,0,0,.887-.392,4.9,4.9,0,0,0,.887-.98,9.388,9.388,0,0,0,.794-1.31q.371-.712.65-1.362c.186-.433.33-.815.433-1.135a3.147,3.147,0,0,0,.165-.65.186.186,0,0,1,.165-.2,1.031,1.031,0,0,1,.444,0,4.7,4.7,0,0,1,.567.2,3.4,3.4,0,0,1,.578.3,2.206,2.206,0,0,1,.433.351.526.526,0,0,1,.175.32,1.846,1.846,0,0,1-.186.629c-.124.3-.268.629-.433,1.032s-.237.526-.351.8-.237.557-.34.825a6.908,6.908,0,0,0-.237.753,2.362,2.362,0,0,0-.1.578v.083c.165,0,.371-.134.619-.413a10.6,10.6,0,0,0,.815-1.031c.289-.433.578-.9.877-1.413s.578-1.031.846-1.5.5-.918.691-1.31l.433-.866a.279.279,0,0,1,.279-.144,1.115,1.115,0,0,1,.392.083.877.877,0,0,1,.32.217.258.258,0,0,1,.083.278c-.1.237-.279.588-.516,1.032s-.516,1.032-.836,1.537-.66,1.135-1.032,1.723A19.013,19.013,0,0,1,95.106,130a8.842,8.842,0,0,1-1.1,1.176,1.62,1.62,0,0,1-1.032.464,1.516,1.516,0,0,1-.887-.258,3.279,3.279,0,0,1-.629-.547,2.826,2.826,0,0,1-.526-.825c-.144.165-.3.34-.5.526a4.962,4.962,0,0,1-.6.526,3.869,3.869,0,0,1-.681.413,1.62,1.62,0,0,1-.7.165,2.269,2.269,0,0,1-1.2-.309,2.486,2.486,0,0,1-.866-.8,3.785,3.785,0,0,1-.536-1.1,4.271,4.271,0,0,1-.093-1.207Z" transform="translate(2.692 3.823)" fill="#f9db7d"/>
      <path id="Path_462" data-name="Path 462" d="M107.38,123.7a.835.835,0,0,1,.413-.413.578.578,0,0,1,.433,0,.433.433,0,0,1,.279.3.8.8,0,0,1-.062.567,6.818,6.818,0,0,1-.918,1.5,18.567,18.567,0,0,1-1.393,1.558c-.526.526-1.093,1.031-1.723,1.568s-1.269,1.032-1.929,1.578c-.516,1.032-1.032,2.063-1.661,3.095a30.387,30.387,0,0,1-1.774,2.785,11.956,11.956,0,0,1-1.754,1.991,2.5,2.5,0,0,1-1.609.763,3.693,3.693,0,0,1-1.31-.2,2.342,2.342,0,0,1-.836-.505,1.826,1.826,0,0,1-.547-1.238,1.857,1.857,0,0,1,.444-1.1,8.045,8.045,0,0,1,1.217-1.269c.516-.454,1.1-.928,1.774-1.423s1.393-1.032,2.146-1.558l.34-.629.217-.351a1.69,1.69,0,0,0,.124-.227l.124-.227a2.505,2.505,0,0,0,.165-.361c.072-.144.155-.361.279-.629-.268.33-.536.64-.794.918s-.516.536-.753.753a3.827,3.827,0,0,1-.65.516,1.031,1.031,0,0,1-.516.2,1.258,1.258,0,0,1-.763-.258,2.8,2.8,0,0,1-.639-.619,2.92,2.92,0,0,1-.433-.784,2.063,2.063,0,0,1-.206-.743,4.044,4.044,0,0,1,.144-1.032,9.282,9.282,0,0,1,.371-1.1q.248-.557.526-1.145l.588-1.135c.155-.3.3-.609.454-.9s.289-.588.4-.856a4.54,4.54,0,0,0,.278-.753,2.064,2.064,0,0,0,.113-.588c0-.175.124-.268.382-.268a2.166,2.166,0,0,1,.856.2,2.589,2.589,0,0,1,.856.567,1.207,1.207,0,0,1,.392.9,2.064,2.064,0,0,1-.134.609c-.093.248-.206.536-.351.846s-.309.66-.5,1.032-.382.743-.578,1.124l-.7,1.341c-.227.433-.423.825-.6,1.176s-.309.64-.413.856-.134.32-.093.32a1.33,1.33,0,0,0,.454-.34,11.049,11.049,0,0,0,.774-.887c.289-.361.619-.763.97-1.228s.681-.908,1.032-1.372l.939-1.3.712-1.032.578-1.5a3.846,3.846,0,0,0,.217-.629,1.248,1.248,0,0,1,.186-.774.681.681,0,0,1,.547-.237,1.032,1.032,0,0,1,.557.2,4.311,4.311,0,0,1,.578.505,3.187,3.187,0,0,1,.454.65,1.506,1.506,0,0,1,.186.681,3.229,3.229,0,0,1-.134.65c-.093.3-.206.66-.361,1.093s-.33.9-.536,1.413-.423,1.032-.65,1.589a24.209,24.209,0,0,0,2.269-2.063,9.284,9.284,0,0,0,1.527-2.125ZM94.032,137.5a1.743,1.743,0,0,0,1.032-.361,6.282,6.282,0,0,0,1.032-.959,13.117,13.117,0,0,0,1.031-1.424,20,20,0,0,0,1.032-1.723q-.928.7-1.733,1.331c-.547.423-1.032.8-1.424,1.166a7.428,7.428,0,0,0-.949.959,1.238,1.238,0,0,0-.351.722C93.815,137.428,93.9,137.5,94.032,137.5Z" transform="translate(2.92 3.823)" fill="#f9db7d"/>
      <path id="Path_463" data-name="Path 463" d="M18.792,142.367h5.354V150.1a12.378,12.378,0,0,1-3.765,1.733,15.472,15.472,0,0,1-4.209.6,11.1,11.1,0,0,1-5.25-1.217,9.057,9.057,0,0,1-3.652-3.394,9.964,9.964,0,0,1,0-9.913,9.108,9.108,0,0,1,3.693-3.394,11.449,11.449,0,0,1,5.354-1.217,12.079,12.079,0,0,1,4.817.908,9.046,9.046,0,0,1,3.548,2.62L20.732,140.3a5.24,5.24,0,0,0-4.126-2.063,4.353,4.353,0,0,0-3.239,1.228,5.25,5.25,0,0,0,0,6.664,4.126,4.126,0,0,0,3.177,1.3,5.787,5.787,0,0,0,2.249-.444Z" transform="translate(0.177 4.207)" fill="#fff"/>
      <path id="Path_464" data-name="Path 464" d="M26.91,133.71H33.1V152H26.91Z" transform="translate(0.837 4.22)" fill="#fff"/>
      <path id="Path_465" data-name="Path 465" d="M44.38,147.419H42.709v4.6H36.52V133.71h8.809a10.81,10.81,0,0,1,4.415.836,6.767,6.767,0,0,1,3.033,9.49,6.364,6.364,0,0,1-2.538,2.352l3.837,5.642H47.5Zm2.455-8.376a2.744,2.744,0,0,0-1.877-.557H42.709v4.281h2.249a2.744,2.744,0,0,0,1.877-.557,1.98,1.98,0,0,0,.629-1.578,2.063,2.063,0,0,0-.629-1.609Z" transform="translate(1.14 4.22)" fill="#fff"/>
      <path id="Path_466" data-name="Path 466" d="M105.585,151.207a9.387,9.387,0,0,1,0-16.68,12.089,12.089,0,0,1,10.614,0,9.366,9.366,0,0,1,3.693,3.414,9.779,9.779,0,0,1,0,9.851,9.366,9.366,0,0,1-3.693,3.414,12.089,12.089,0,0,1-10.614,0Zm7.386-4.322a4.126,4.126,0,0,0,1.485-1.6,5.622,5.622,0,0,0,0-4.838,4.023,4.023,0,0,0-1.485-1.589,4.126,4.126,0,0,0-4.126,0,4,4,0,0,0-1.475,1.589,5.622,5.622,0,0,0,0,4.838,3.963,3.963,0,0,0,5.6,1.6Z" transform="translate(3.157 4.207)" fill="#fff"/>
      <path id="Path_467" data-name="Path 467" d="M125.958,151.928a12.132,12.132,0,0,1-3.548-1.372l1.991-4.5a12.74,12.74,0,0,0,2.93,1.217,11.594,11.594,0,0,0,3.095.454,4.786,4.786,0,0,0,1.826-.248.794.794,0,0,0,.557-.743c0-.392-.248-.67-.722-.866a14.886,14.886,0,0,0-2.362-.629,27.074,27.074,0,0,1-3.528-.949,6.035,6.035,0,0,1-2.465-1.671,4.59,4.59,0,0,1-1.032-3.156,5.4,5.4,0,0,1,.97-3.095,6.354,6.354,0,0,1,2.888-2.218,11.862,11.862,0,0,1,4.662-.815,17.112,17.112,0,0,1,3.7.4,11.707,11.707,0,0,1,3.2,1.2l-1.857,4.466a11.347,11.347,0,0,0-5.1-1.362c-1.589,0-2.383.382-2.383,1.155,0,.361.237.64.712.825a17.28,17.28,0,0,0,2.321.588,22.887,22.887,0,0,1,3.528.9,6.189,6.189,0,0,1,2.5,1.661,4.425,4.425,0,0,1,1.032,3.095,5.364,5.364,0,0,1-.97,3.095,6.5,6.5,0,0,1-2.888,2.218,11.852,11.852,0,0,1-4.662.825,19.661,19.661,0,0,1-4.394-.474Z" transform="translate(3.847 4.208)" fill="#fff"/>
      <path id="Path_468" data-name="Path 468" d="M143.358,151.928a12.173,12.173,0,0,1-3.538-1.372l1.991-4.5a12.851,12.851,0,0,0,2.919,1.217,11.728,11.728,0,0,0,3.095.454,4.786,4.786,0,0,0,1.826-.248.794.794,0,0,0,.557-.743c0-.392-.248-.67-.722-.866a15.215,15.215,0,0,0-2.362-.629,27.743,27.743,0,0,1-3.538-.949,6.075,6.075,0,0,1-2.455-1.671,4.59,4.59,0,0,1-1.032-3.156,5.4,5.4,0,0,1,.97-3.095,6.354,6.354,0,0,1,2.888-2.218,11.863,11.863,0,0,1,4.663-.815,16.948,16.948,0,0,1,3.693.4,11.779,11.779,0,0,1,3.208,1.2l-1.857,4.466a11.347,11.347,0,0,0-5.1-1.362c-1.589,0-2.383.382-2.383,1.155,0,.361.237.64.712.825a16.507,16.507,0,0,0,2.321.588,23.517,23.517,0,0,1,3.528.9,6.189,6.189,0,0,1,2.5,1.661,4.425,4.425,0,0,1,1.032,3.095,5.364,5.364,0,0,1-.97,3.095,6.5,6.5,0,0,1-2.888,2.218,11.852,11.852,0,0,1-4.662.825A19.826,19.826,0,0,1,143.358,151.928Z" transform="translate(4.396 4.208)" fill="#fff"/>
      <path id="Path_469" data-name="Path 469" d="M95.567,142.437a4.673,4.673,0,0,0,1.9-1.65,3.961,3.961,0,0,0,.6-1.712,3.383,3.383,0,0,1-2,.753,4.961,4.961,0,0,1-1.754-.279,3.93,3.93,0,0,1-1.248-.763,3.094,3.094,0,0,1-.722-1.1,2.97,2.97,0,0,1-.2-1.032,3.1,3.1,0,0,1,.691-1.846,7.8,7.8,0,0,1,.753-.846,14.275,14.275,0,0,0-2.878-.258H80.93v18.289H91.245a10.408,10.408,0,0,0,5.746-1.31,4.25,4.25,0,0,0,1.991-3.734,4.363,4.363,0,0,0-.9-2.764A5.405,5.405,0,0,0,95.567,142.437ZM87,138.022h2.878q2.063,0,2.063,1.362c0,.9-.67,1.351-2.063,1.351H87Zm3.713,9.665H87V144.82h3.713c1.362,0,2.063.475,2.063,1.434S92.07,147.687,90.709,147.687Z" transform="translate(2.54 4.219)" fill="#fff"/>
      <path id="Path_470" data-name="Path 470" d="M62.348,135.216a3.167,3.167,0,0,1-1.279-.485,4.127,4.127,0,0,1-1.032-1.032H56.18v18.289H70.621v-4.776H62.369Z" transform="translate(1.76 4.219)" fill="#fff"/>
    </g>
  </g>
</svg>
