<svg xmlns="http://www.w3.org/2000/svg" width="768.572" height="898.658" viewBox="0 0 768.572 898.658">
  <g id="Blue_Section_BG" data-name="Blue Section BG" transform="translate(0 -1838.658)">
    <g id="Layer_2" data-name="Layer 2" transform="translate(0 1838.658)">
      <g id="Layer_1" data-name="Layer 1">
        <path id="Path_563" data-name="Path 563" d="M583.288,854.1q-2.113,1.854-4.178,3.794Q581.179,855.944,583.288,854.1Z" transform="translate(-324.142 -422.602)" fill="#2788c4"/>
        <path id="Path_564" data-name="Path 564" d="M745.729,790.82a32.31,32.31,0,0,1-10.311,12.59,30.779,30.779,0,0,0,3.249-2.021,28.337,28.337,0,0,1-4.2,2.526c-10.369,5.007-21.759,1.187-31.92-2.481-11.258-4.042-22.582-6.654-34.412-6.952-23.264-.586-46.423,6.219-67.8,16.379a126.075,126.075,0,0,0-15.74,8.74c-2.069,1.379-4.095,2.829-6.049,4.4h-.027l-.093.076-.061.051-.088.076a1.213,1.213,0,0,1-.119.1c1.968-2.708,3.892-5.557,6.054-8.083a131.047,131.047,0,0,1,22.058-15.439c20.847-11.468,44.094-19.082,67.231-20.446a102.512,102.512,0,0,1,33.712,3.4c11.011,3.087,21.983,9.306,33.633,8.083A23.8,23.8,0,0,0,745.729,790.82Z" transform="translate(-323.605 -386.008)" fill="#ffecb7"/>
        <path id="Path_565" data-name="Path 565" d="M500.054,986.64a118.371,118.371,0,0,0-.185,27.008c.092.839-1.321,2.086-1.761,2.632-1.6,1.869-3.342,3.587-5.085,5.279s-3.522,3.324-5.367,4.79l-.044.035c-.339.252-2.527,1.9-2.567,1.551a119.566,119.566,0,0,1,.757-31.227q6.776-4.906,13.649-9.639Z" transform="translate(-271.111 -488.182)" fill="#f9db7d"/>
        <path id="Path_566" data-name="Path 566" d="M534.544,851.67c-2.162,2.526-4.086,5.37-6.054,8.083h0l-1.079,1.238c-.92,1.076-.8.93-1.655,2.021-1.466,1.864-2.884,3.784-4.218,5.78a117.637,117.637,0,0,0-17.884,46.039q-7.133,5.108-14.164,10.4a120.908,120.908,0,0,1,12.552-35,129.149,129.149,0,0,1,21.5-28.251q1.466-1.516,2.954-2.94l1.1-1.066,1.374-1.3q2.06-1.935,4.178-3.794l.084-.076Z" transform="translate(-273.98 -421.4)" fill="#f9db7d"/>
        <path id="Path_567" data-name="Path 567" d="M953.93,743.752q6.736-3.956,13.442-7.972-.881,3.577-2.008,7.073c-2.162,6.77-4.843,13.474-8.916,19.031a85.011,85.011,0,0,1-11.7,12.428c-1.1,1.01-2.2,2.021-3.364,2.95-.383.318-.77.626-1.158.935l-.586.455-.52.389-.524.379-.792.551c-.8.535-1.62,1.01-2.457,1.485a32.168,32.168,0,0,0,10.311-12.59l.11-.035a87.743,87.743,0,0,0,5.768-15.156q1.432-4.882,2.391-9.922Z" transform="translate(-523.537 -364.059)" fill="#f9db7d"/>
        <path id="Path_568" data-name="Path 568" d="M993.825,693.746q-4.6,2.7-9.206,5.375L980,701.8a116.386,116.386,0,0,0,.66-23.032c-.062-.874,1.29-2.066,1.761-2.637,1.6-1.864,3.337-3.582,5.081-5.274s3.522-3.324,5.367-4.794h0c.273-.2,2.562-1.915,2.589-1.566A116.281,116.281,0,0,1,993.825,693.746Z" transform="translate(-548.528 -328.764)" fill="#f9db7d"/>
        <path id="Path_569" data-name="Path 569" d="M93.728,1520a4.058,4.058,0,0,1-.462.859,47.5,47.5,0,0,0-3.249,5.426h0l-2.074,1.97c-8.467,8.083-16.964,16.081-25.4,24.189l-1.523,1.47-.079.081-.084.081-.057.055-.035.04-1.1,1.1-.053.055a1.079,1.079,0,0,0-.132.132c-.4.414-.784.839-1.176,1.258l-.132.142-.044.05-.044.051-.088.1-.053.061h0a.112.112,0,0,0-.031.035l-.07.076c-.564.647-1.321,1.516-1.51,1.748a62.342,62.342,0,0,0-3.8,5.123,2.882,2.882,0,0,1,.141-.288,78.862,78.862,0,0,1,4.931-7.831c.814-1.172,1.559-2.39,2.3-3.617.955-.925,1.915-1.839,2.871-2.753q13.34-12.736,26.721-25.437c.969-.919,1.994-1.814,2.945-2.769l.053-.056.343-.379c.255-.273.44-.439.511-.505h.022l.211-.258Z" transform="translate(-29.41 -752.085)" fill="#ffecb7"/>
        <path id="Path_570" data-name="Path 570" d="M46.138,1601.2q-1.409,1.475-2.778,3Q44.729,1602.67,46.138,1601.2Z" transform="translate(-24.272 -792.262)" fill="#99cef6"/>
        <path id="Path_571" data-name="Path 571" d="M147,1519.1Z" transform="translate(-82.281 -751.64)" fill="#99cef6"/>
        <path id="Path_572" data-name="Path 572" d="M147,1519.09h0l0,.005Z" transform="translate(-82.281 -751.635)" fill="#99cef6"/>
        <path id="Path_573" data-name="Path 573" d="M147,1519.08Z" transform="translate(-82.281 -751.63)" fill="#99cef6"/>
        <path id="Path_574" data-name="Path 574" d="M159.486,1189.7l1-.9c-.339.313-.682.621-1.021.925h0l-2.3,2.021c1.087-.955,2.122-1.97,3.135-3.031h0l-.057.066-.026.03H160.2l-.106.126h0l-.026.03-.035.04-.044.05-.031.035C159.737,1189.362,159.614,1189.539,159.486,1189.7Z" transform="translate(-87.974 -588.165)" fill="#99cef6"/>
        <path id="Path_575" data-name="Path 575" d="M164.3,1188.73Z" transform="translate(-91.965 -588.175)" fill="#99cef6"/>
        <path id="Path_576" data-name="Path 576" d="M172.75,1180.62c.44-.505.907-.975,1.343-1.48C173.657,1179.65,173.208,1180.14,172.75,1180.62Z" transform="translate(-96.694 -583.43)" fill="#99cef6"/>
        <path id="Path_577" data-name="Path 577" d="M29.4,1654.626c.484.394-6.322,7.391-6.86,7.906-1,.975-2.03,1.945-3.082,2.875-.308.278-.621.546-.933.813-.44.389-.925.773-1.391,1.142.035,0-2.149,1.894-2.567,1.551-7.951-6.568-13.1-16.924-14.309-28.054-1.272-11.751,2.452-22.942,8.634-32.177.744-1.111,1.506-2.2,2.294-3.269.233-.323.467-.642.7-.955q.929-1.243,1.893-2.445c.286-.359.572-.718.881-1.071q1.51-1.854,3.082-3.648.674-.763,1.36-1.516,1.374-1.516,2.778-3c.85-.894,1.7-1.773,2.567-2.652l1.7-1.713q2.162-2.152,4.346-4.249c-.74,1.228-1.484,2.445-2.3,3.617a78.851,78.851,0,0,0-4.931,7.83,2.906,2.906,0,0,0-.141.288h0l-.533.808q-.489.758-.951,1.516-.555.934-1.079,1.889c-.247.45-.489.9-.713,1.359-.172.333-.339.667-.5,1.01C10.865,1620.07,15.083,1642.8,29.4,1654.626Z" transform="translate(-0.006 -783.836)" fill="#f9db7d"/>
        <path id="Path_578" data-name="Path 578" d="M45.793,1615.75c-.242.45-.484.9-.713,1.359C45.3,1616.649,45.547,1616.2,45.793,1615.75Z" transform="translate(-25.235 -799.461)" fill="#99cef6"/>
        <path id="Path_579" data-name="Path 579" d="M141.246,1297.449c-2.2-10.488-8.3-18.875-14.058-27.079a106.746,106.746,0,0,1-8.973-14.914q-5.483,11.312-9.906,23.24c4.029,6.214,8.612,11.984,12.328,18.471a47.6,47.6,0,0,1,6.107,31.383,42.222,42.222,0,0,1-5.446,15.141,34.19,34.19,0,0,1-2.2,3.178l-.229.3-.11.141h0l-.084.111h0l-.295.354-.1.121a4.054,4.054,0,0,1-.462.859,47.536,47.536,0,0,0-3.249,5.426l.634-.6q2.373-2.258,4.72-4.547c.379-.369.757-.738,1.132-1.111s.674-.667,1-1.01q.167-.157.33-.333c.37-.369.74-.743,1.105-1.127q.718-.728,1.435-1.48c.577-.6,1.145-1.212,1.713-1.824,4.029-4.375,8.009-9.043,10.8-14.6A47.255,47.255,0,0,0,141.246,1297.449Zm-27.918-55.542a74.121,74.121,0,0,1,.348-36.693,70.84,70.84,0,0,1,6.3-15.434,59.264,59.264,0,0,1,4.319-6.75c.277-.369.493-.652.687-.9.07-.091.136-.182.207-.263h0l.242-.3-2.3,2.021c.542-.475,1.074-.97,1.594-1.475s1.021-1.01,1.519-1.516l-.057.066-.026.03h-.022l-.106.126h0l-.026.03-.035.04-.044.05-.031.036c-.154.192-.295.354-.44.505l1-.9c.308-.278.616-.561.92-.849l.37-.349.727-.7c.33-.323.66-.652.982-.98l.542-.566c.44-.505.907-.975,1.343-1.48.15-.177.3-.354.44-.531s.295-.354.44-.536l.414-.505q.224-.288.44-.576c.317-.434,1.22-1.364.313-1.314-1.105.061-3.007,2.182-3.742,2.824-9.924,8.7-19.7,18.536-25.9,31.181a74.225,74.225,0,0,0-.44,63.656q5.367-11.352,11.738-22.1-.995-2.871-1.721-5.85Zm12.927-61.342Z" transform="translate(-53.937 -579.994)" fill="#f9db7d"/>
        <path id="Path_580" data-name="Path 580" d="M138.294,1531.29l-.634.606h0Z" transform="translate(-77.054 -757.671)" fill="#99cef6"/>
        <path id="Path_581" data-name="Path 581" d="M147,1519.1Z" transform="translate(-82.281 -751.64)" fill="#99cef6"/>
        <path id="Path_582" data-name="Path 582" d="M159.438,1189.75l-2.3,2.021c1.087-.955,2.122-1.97,3.135-3.031h0l-.057.066-.026.03h-.022l-.106.126h0l-.026.031-.035.04-.044.051-.031.036c-.154.192-.295.354-.44.505h0Z" transform="translate(-87.957 -588.18)" fill="#99cef6"/>
        <path id="Path_583" data-name="Path 583" d="M164.3,1188.73Z" transform="translate(-91.965 -588.175)" fill="#99cef6"/>
        <path id="Path_584" data-name="Path 584" d="M1428.418,230.41a30.2,30.2,0,0,1-4.121,6.532c-.779.945-1.616,1.829-2.474,2.683a83.487,83.487,0,0,1-7.824,5.618c-8.607,5.421-17.673,9.811-26.606,14.464-4.4,2.3-8.806,4.653-13.089,7.25a101.163,101.163,0,0,0-10.443,7.2c1.475-2.364,2.981-4.764,4.623-6.987h0c1.783-1.516,3.589-3.031,5.393-4.451a157.087,157.087,0,0,1,25-15.843c8.4-4.451,16.951-8.553,25.193-13.4,1.352-.793,2.69-1.617,4-2.491Z" transform="translate(-763.382 -114.005)" fill="#ffecb7"/>
        <path id="Path_585" data-name="Path 585" d="M1293.658,557.276a31.156,31.156,0,0,1-5.547,15.995,77.67,77.67,0,0,1-10.663,11.266c-2.849,2.6-5.812,5.249-9.246,6.805-1,.455.172-1.112.317-1.313a44.22,44.22,0,0,1,4.178-4.618c1.171-1.2,2.373-2.369,3.606-3.5.194-.429.374-.864.546-1.3a32.547,32.547,0,0,0,1.986-9.513c.533-7.169-.242-14.484-.749-21.628l-.264-3.663,14.837-14.307q.2,2.834.405,5.668C1293.548,543.817,1294.222,550.607,1293.658,557.276Z" transform="translate(-709.617 -262.982)" fill="#f9db7d"/>
        <path id="Path_586" data-name="Path 586" d="M1325.049,303.15c-1.642,2.223-3.148,4.623-4.623,6.987h0a49.718,49.718,0,0,0-3.144,4.153,76.633,76.633,0,0,0-7.6,14.4c-9.5,23.24-9.33,49.571-7.723,74.624.26,4.042.555,8.083.85,12.125L1288,430.088c-.938-12.757-1.871-25.523-1.717-38.33.269-22.265,4.169-45.625,16.127-63.727.255-.389.515-.778.779-1.162s.44-.652.678-.975c.154-.222.308-.44.467-.657s.339-.475.511-.707.418-.576.63-.859q.634-.854,1.29-1.692c.2-.253.392-.505.595-.758q1.681-2.122,3.465-4.153l.7-.793c.233-.268.471-.53.709-.788l.823-.9c.405-.44.814-.879,1.228-1.308l.251-.263c.387-.4.779-.808,1.175-1.207q2.32-2.359,4.733-4.582c.5-.465,1-.919,1.505-1.374l1.321-1.172q.528-.47,1.057-.925l.533-.465Z" transform="translate(-719.949 -149.996)" fill="#f9db7d"/>
        <path id="Path_587" data-name="Path 587" d="M1374.1,303.13h0l-.216.177Z" transform="translate(-768.991 -149.987)" fill="#99cef6"/>
        <path id="Path_588" data-name="Path 588" d="M1532.81,27.544q-5.038,22.574-7.867,45.686c-.881,7.174-1.462,14.378-2.2,21.572-.687,6.79-1.761,13.8-4.755,19.814-3.342,6.709-8.73,12.064-13.825,16.965q-1.611,1.556-3.262,3.031c-.321.3-.647.591-.973.879l-1.127.985c-.546.475-1.1.945-1.655,1.4s-1.109.919-1.673,1.369a32.646,32.646,0,0,0,2.475-2.683,30.2,30.2,0,0,0,4.121-6.532c.326-.505.647-1.01.955-1.566l.3-.541c.1-.172.189-.344.282-.505q.452-.858.823-1.768a43.2,43.2,0,0,0,2.254-7.826c1.171-6,1.5-12.175,2.087-18.273q.933-9.649,2.25-19.228,2.668-19.41,6.934-38.461a6.911,6.911,0,0,1,1.761-2.637c1.6-1.869,3.342-3.582,5.085-5.274s3.522-3.319,5.363-4.789h0C1530.419,29.009,1532.867,27.287,1532.81,27.544Z" transform="translate(-837.047 -13.616)" fill="#f9db7d"/>
        <path id="Path_589" data-name="Path 589" d="M992.453,722.44q-.625,3.395-1.462,6.74-6.706,4.042-13.442,7.972.638-3.314,1.079-6.659l4.632-2.678Q987.875,725.138,992.453,722.44Z" transform="translate(-547.157 -357.458)" fill="#f9db7d"/>
        <path id="Path_590" data-name="Path 590" d="M502.558,976.74q-.409,2.491-.709,5h0l-.621.429q-6.864,4.739-13.649,9.639.357-2.349.815-4.673Q495.421,981.848,502.558,976.74Z" transform="translate(-272.911 -483.284)" fill="#f9db7d"/>
        <path id="Path_591" data-name="Path 591" d="M320.892,1055.8a682.144,682.144,0,0,1,68.168-58.478q-.44,2.324-.814,4.673c-26.082,18.844-51.152,39.558-74.059,63.262q-2.043,2.112-4.077,4.259l.832-1.121c3.108-4.239,6.437-8.23,9.686-12.327Z" transform="translate(-173.577 -493.467)" fill="#bbdfff"/>
        <path id="Path_592" data-name="Path 592" d="M722.529,738.38q-.44,3.35-1.065,6.659l-5.9,3.446q-15.551,9.048-31.233,17.849-10.743,6.063-21.516,12.049C614.5,805.34,566.066,832.035,520,863.8q.3-2.526.709-5,5.429-3.9,10.915-7.679c39.916-27.579,81.606-51.38,123.468-74.771h0q11.122-6.229,22.256-12.433h0C692.444,755.476,707.524,747.024,722.529,738.38Z" transform="translate(-291.057 -365.345)" fill="#bbdfff"/>
        <path id="Path_593" data-name="Path 593" d="M1132.472,557.178a571.046,571.046,0,0,1-47.581,38.436c-24.871,18.238-50.632,34.778-76.811,50.46q.832-3.345,1.462-6.74c29.864-17.551,59.315-36.092,87.616-56.836a438.285,438.285,0,0,0,35.134-28.019Z" transform="translate(-564.245 -274.353)" fill="#bbdfff"/>
        <path id="Path_594" data-name="Path 594" d="M1305.2,528.521l-14.837,14.308-.2-2.7,14.811-14.651Z" transform="translate(-722.131 -260.004)" fill="#f9db7d"/>
        <path id="Path_595" data-name="Path 595" d="M1333.469,511.64q-4.623,5.128-9.444,10.033l-.225-3.031c.238-.253.475-.505.713-.778h0Q1329.052,514.853,1333.469,511.64Z" transform="translate(-740.96 -253.156)" fill="#bbdfff"/>
        <path id="Path_596" data-name="Path 596" d="M1350.48,501.05q-2.333,2.7-4.72,5.35Q1348.151,503.758,1350.48,501.05Z" transform="translate(-753.251 -247.916)" fill="#705613"/>
        <path id="Path_597" data-name="Path 597" d="M1352.647,236.1l-1.321,1.773-1.066,1.415c-.4.53-.8,1.056-1.206,1.581l-1.233,1.6c-.6.763-1.2,1.516-1.8,2.279l-.255.318q-.766.955-1.536,1.9-2.536,3.122-5.151,6.169-2.334,2.7-4.72,5.35-4.4,3.2-8.942,6.194c.6-.662,1.2-1.329,1.792-2.021l1.321-1.516c.335-.384.665-.773,1-1.162.11-.126.22-.258.326-.389.224-.258.44-.505.66-.778q.986-1.167,1.951-2.359c.572-.707,1.14-1.415,1.708-2.132s1.127-1.43,1.682-2.152,1.114-1.45,1.66-2.182q1.651-2.188,3.241-4.431c.5-.687.982-1.379,1.462-2.076.075-.1.141-.2.211-.3q.74-1.066,1.466-2.147t1.532-2.3q.674-1.01,1.321-2.051c.066-.1.128-.192.189-.293q.66-1.031,1.321-2.071l.365-.591c.414-.667.828-1.334,1.233-2.021.48-.793.96-1.6,1.431-2.4,39.167-66.576,45.208-150.794,40.259-228.8a1.082,1.082,0,0,1,.1-.505h15.484q.348,7.578.537,15.126C1409.549,92.913,1397.5,174.918,1352.647,236.1Z" transform="translate(-741.867)" fill="#99cef6"/>
        <path id="Path_598" data-name="Path 598" d="M1329.52,513.829q2.69-3.031,5.283-6.219Q1332.215,510.788,1329.52,513.829Z" transform="translate(-744.162 -251.162)" fill="#f9db7d"/>
        <path id="Path_599" data-name="Path 599" d="M1353,490.471q1.651-2.188,3.24-4.431Q1354.638,488.283,1353,490.471Z" transform="translate(-757.304 -240.489)" fill="#f9db7d"/>
        <path id="Path_600" data-name="Path 600" d="M127.048,1329.479q-5.483,11.313-9.906,23.24a76.65,76.65,0,0,1-4.627-8.033c-.128-.258-.255-.505-.374-.783q5.367-11.352,11.738-22.1a70.027,70.027,0,0,0,3.17,7.679Z" transform="translate(-62.769 -654.017)" fill="#f9db7d"/>
        <path id="Path_601" data-name="Path 601" d="M92.235,1574.351h-22.2q-.841-1.859-1.625-3.754c-8.977-21.613-16.541-58.291-17.1-82.1q-.053-2.294-.062-4.6a258.9,258.9,0,0,1,2.769-38.31,281.839,281.839,0,0,1,24.057-79.984c.119.263.247.505.374.783a76.651,76.651,0,0,0,4.627,8.033c-11.007,29.676-17.413,62.711-17.171,95.141,0,.854,0,1.7.035,2.556C66.549,1503.82,76.495,1546.166,92.235,1574.351Z" transform="translate(-28.687 -675.694)" fill="#99cef6"/>
        <path id="Path_602" data-name="Path 602" d="M224.771,1113.62c-3.24,4.1-6.569,8.083-9.686,12.327l-.823,1.111h0q-1.1,1.152-2.2,2.319l-.48.505c-.744.793-1.488,1.586-2.228,2.389s-1.55,1.667-2.32,2.526l-.233.253q-1.162,1.258-2.316,2.526t-2.259,2.526l-2.1,2.349-1.4,1.591c-6.868,7.805-13.565,15.864-19.984,24.194-.748.965-1.488,1.935-2.228,2.915q-6.19,8.174-11.967,16.672-.925,1.354-1.827,2.723-4.927,7.426-9.475,15.111l-.815,1.394c-.163.273-.321.545-.48.823-.313.505-.621,1.066-.925,1.6q-3.218,5.623-6.195,11.387c-.955,1.854-1.9,3.729-2.809,5.628a70.034,70.034,0,0,1-3.17-7.664q2.276-3.85,4.685-7.614,12.033-18.773,25.66-36.092c.823-1.051,1.651-2.1,2.483-3.142q6.234-7.836,12.742-15.4c.881-1.01,1.735-2.021,2.606-3.031q2.532-2.92,5.094-5.785.828-.935,1.66-1.849c.387-.44.779-.869,1.167-1.3q1.321-1.47,2.673-2.935,3.016-3.3,6.067-6.537,1.017-1.081,2.039-2.162Q215.111,1123.082,224.771,1113.62Z" transform="translate(-77.72 -551.011)" fill="#99cef6"/>
      </g>
    </g>
    <path id="Path_476" data-name="Path 476" d="M2043.049,1466.667s25.486,166.382-120.891,304.656-633.774,238.825-520.682,594h674.484V1466.667Z" transform="translate(-1307.847 371.991)" fill="#99cef6"/>
    <g id="Group_89" data-name="Group 89" transform="translate(622.954 2149.096)" opacity="0.12">
      <g id="Group_70" data-name="Group 70" transform="translate(0)">
        <path id="Path_398" data-name="Path 398" d="M0,0H145.618L0,159.671Z" fill="#fff"/>
        <path id="Path_399" data-name="Path 399" d="M0,0H145.618L0,159.671Z" transform="translate(0 159.671)" fill="#fff"/>
      </g>
    </g>
  </g>
</svg>
