<svg xmlns="http://www.w3.org/2000/svg" width="768.082" height="657.666" viewBox="0 0 768.082 657.666">
  <g id="Grey_Section_BG" data-name="Grey Section BG" transform="translate(0 -3617)">
    <g id="Layer_2" data-name="Layer 2" transform="translate(87.316 3617)">
      <g id="Layer_1" data-name="Layer 1">
        <path id="Path_603" data-name="Path 603" d="M264.84,329.89c15.341,16.575,31.486,31.446,48.929,43.235,27.085,18.268,56.072,29.229,85.129,38.595,64.153,20.674,128.828,40.562,191.281,70.692,32.1,15.492,63.587,34.424,92.687,59.676a450.42,450.42,0,0,1,35.757,34.606c5.234,5.657,10.8,12.02,15.136,17.294,2.814,3.416,5.606,6.917,8.437,10.614l-.155-.286a135.787,135.787,0,0,0-9.693-14.682q-1.558-2.089-3.1-4.2a536.67,536.67,0,0,0-58.031-59.146c-28.961-25.113-60.15-44.258-92.071-59.841-32.24-15.747-65.216-28.011-98.2-39.934-30.983-11.217-62.076-21.228-93.256-31.2-29.07-9.335-58.111-20.04-85.3-38a229.91,229.91,0,0,1-22.358-16.795C274.893,337.2,269.818,333.69,264.84,329.89Z" transform="translate(-153.953 -129.006)" fill="#e2e2e2"/>
        <path id="Path_604" data-name="Path 604" d="M1374,749.49q1.545,2.107,3.1,4.2a135.815,135.815,0,0,1,9.693,14.682l.155.286h0l.419.524.419.53c.26.335.523.682.787,1.035,1.578,2.083,3.169,4.226,4.79,6.455,34.291,47.156,62.8,106.291,75.612,172.653h10.505c-16.7-70.637-50.583-130.5-88.734-179.729q-6.281-8.081-12.712-15.832l-1.876-2.253Z" transform="translate(-798.712 -293.095)" fill="#ebebeb"/>
        <path id="Path_605" data-name="Path 605" d="M1405,781h0l.381.493Z" transform="translate(-816.733 -305.417)" fill="#ebebeb"/>
        <path id="Path_606" data-name="Path 606" d="M0,0C11.878,66.143,45.462,120.924,80.637,165.255l2.282,2.862,2.286,2.85q2.294,2.844,4.606,5.651c6.879,8.367,13.888,16.5,21.073,24.266h0c4.978,3.8,10.049,7.307,15.194,10.626q-4.606-3.909-9.031-8.135c-.749-.706-1.495-1.419-2.236-2.15q-.925-.9-1.834-1.827l-.377-.378c-.674-.676-1.34-1.352-2.006-2.04l-.188-.195q-1.093-1.127-2.173-2.271A394.667,394.667,0,0,1,77.9,158.325C57.319,130.746,38.8,99.093,26.068,62.654A293.373,293.373,0,0,1,11.69,0Z" fill="#ebebeb"/>
        <path id="Path_607" data-name="Path 607" d="M288.671,342.164q-4.606-3.928-9.111-8.184,4.447,4.226,9.031,8.135Z" transform="translate(-162.509 -130.606)" fill="#ebebeb"/>
        <path id="Path_608" data-name="Path 608" d="M720.47,467.32a38.555,38.555,0,0,1,7.758,3.849,56.12,56.12,0,0,1,10.568,8.805l1,1.1h0a.19.19,0,0,1,.038.049h0l.033.036.226.262h0l.029.036h0c.2.262.737.962.925,1.218l.033.043.025.03h0c.892,1.218,2.353,3.246,3.425,4.786,13.4,19.243,26.57,40.848,43.963,52.552.716.481-.146-1.035-.222-1.187a29.436,29.436,0,0,0-2.981-4.177c-2.052-2.637-4.279-5.773-6.787-7.46a51.865,51.865,0,0,1-6.44-5.115q-1.218-1.139-2.386-2.387h0l-.306-.329h0a.1.1,0,0,1-.029-.036h0l-.029-.036-.038-.043c-.172-.207-.419-.524-.636-.749l.138.183-.2-.231h-.025l-.05-.061-.05-.061-.034-.043h0c-.348-.438-.695-.877-1.038-1.321l-.046-.061h0l-.046-.067c-.251-.347-.858-1.157-.863-1.163l-.988-1.346c-1.541-2.125-3.232-4.591-4.819-6.918-7.934-11.625-15.814-23.219-24.757-33.248-.729-.816-1.465-1.626-2.219-2.436-1.256-.457-2.479-.865-3.705-1.315q-4.149-1.535-8.345-2.752Z" transform="translate(-418.812 -182.75)" fill="#bbdfff"/>
        <path id="Path_609" data-name="Path 609" d="M484.2,378.49c.356.786.682,1.6.984,2.436a51.69,51.69,0,0,1,2.449,10.023c.984,6.5,1.21,13.177,1.767,19.772A82.163,82.163,0,0,0,492.08,427a43.054,43.054,0,0,0,6.8,13.214h0c1.675,1.029,3.35,2.028,5.024,2.929a53.394,53.394,0,0,1-3.35-13.9c-1.419-11.351-.959-23.426-4.254-34.162a44.453,44.453,0,0,0-6.737-12.983h0a31.347,31.347,0,0,0-3.6-2.588C485.372,379.135,484.769,378.8,484.2,378.49Z" transform="translate(-281.468 -148.012)" fill="#bbdfff"/>
        <path id="Path_610" data-name="Path 610" d="M837.27,552.83l.029.037h0Z" transform="translate(-486.709 -216.189)" fill="#9b7518"/>
        <path id="Path_611" data-name="Path 611" d="M835,551h0l.034.043.05.061.05.061h.025l.2.231-.138-.183-.121-.14h-.029A.794.794,0,0,0,835,551Z" transform="translate(-485.389 -215.473)" fill="#9b7518"/>
        <path id="Path_612" data-name="Path 612" d="M767.389,490.5h0l-.029-.036Z" transform="translate(-446.07 -191.799)" fill="#9b7518"/>
        <path id="Path_613" data-name="Path 613" d="M519.28,465.651c.364.505.724.993,1.1,1.486,6.594,8.7,13.649,16.216,22.735,17.41,7.871,1.029,14.947-2.679,21.555-8.659,6.963-6.3,13.432-14.316,21.441-17.7l1.068-.42c.348-.128.7-.237,1.043-.347s.7-.207,1.043-.292l.523-.128c.348-.079.7-.152,1.047-.213l.523-.085.218-.03.791-.1.59-.055a21.861,21.861,0,0,1,3.4,0l.783.067q1.181.128,2.353.353l.682.146c.544.122,1.089.262,1.625.414s1.151.341,1.721.542l1.093.292q4.187,1.218,8.345,2.752c1.227.451,2.47.859,3.705,1.315-.3-.317-.595-.609-.9-.944-.151-.158-.3-.317-.452-.469-.6-.609-1.219-1.248-1.838-1.857-.3-.3-.6-.609-.9-.883l-.636-.609-.791-.743q-1.185-1.1-2.4-2.131l-.49-.414c-.984-.828-1.985-1.632-2.994-2.393l-.967-.713q-.5-.365-1-.712c-.339-.237-.678-.463-1.017-.688a45.925,45.925,0,0,0-6.435-3.581l-.569-.25-.36-.152-.419-.177-.532-.207q-.8-.31-1.6-.566c-.3-.1-.6-.189-.9-.274q-.624-.183-1.256-.329l-.331-.079-.364-.079-.574-.122q-1.181-.225-2.361-.341l-.561-.049c-.2,0-.389-.03-.586-.036a23.448,23.448,0,0,0-14.278,4.043c-7.767,5.073-14.127,13.64-21.718,19.163-6.5,4.731-13.926,6.363-21.035,3.788a21.767,21.767,0,0,1-4.082-1.979v-.03C522.609,467.679,520.942,466.68,519.28,465.651Z" transform="translate(-301.86 -173.463)" fill="#99cef6"/>
        <path id="Path_614" data-name="Path 614" d="M718.081,466.972c-.569-.2-1.143-.384-1.721-.542.544.158,1.08.329,1.616.518Z" transform="translate(-416.423 -182.401)" fill="#ceb47a"/>
        <path id="Path_615" data-name="Path 615" d="M707.583,465.283c-.783-.152-1.566-.274-2.353-.353Q706.411,465.058,707.583,465.283Z" transform="translate(-409.953 -181.815)" fill="#ceb47a"/>
        <path id="Path_616" data-name="Path 616" d="M693.83,464.848a22.993,22.993,0,0,1,3.99-.067A21.839,21.839,0,0,0,693.83,464.848Z" transform="translate(-403.326 -181.733)" fill="#ceb47a"/>
        <path id="Path_617" data-name="Path 617" d="M410.482,345.424a28.134,28.134,0,0,0,2.977,4.177c1.327,1.705,2.7,3.361,4.12,4.908.5.548,1.918,2.393,2.671,2.558a79.451,79.451,0,0,1,12.666,3.617,41.094,41.094,0,0,1,5.916,2.886c.733.438,1.461.9,2.177,1.419l.038.085c.569.3,1.151.645,1.758,1a31.325,31.325,0,0,1,3.6,2.588c-.268-.371-.528-.731-.8-1.1-4.12-5.554-8.608-10.894-13.612-14.682-6.724-5.1-14.315-7.051-21.739-8.659C409.561,344.085,410.306,345.089,410.482,345.424Z" transform="translate(-238.314 -134.609)" fill="#99cef6"/>
        <path id="Path_618" data-name="Path 618" d="M252.28,246c.05.073.1.158.142.231h0Q252.356,246.11,252.28,246Z" transform="translate(-146.651 -96.2)" fill="#ffefca"/>
        <path id="Path_619" data-name="Path 619" d="M235.59,241.278a5.29,5.29,0,0,1,.7-.061c.109.378.218.761.318,1.145,2.663,10,2.9,21.362,4.153,31.854s3.22,21.069,7.608,29.838c1.641,3.288,4.082,5.913,6.23,8.428a26.617,26.617,0,0,0,3.324,3.526s1.373,1.151.867.134c-5.443-10.924-7.013-24.242-8.34-37.3-1.147-11.32-1.717-24.126-6.971-33.291-.243-.42-.5-.828-.754-1.218h0c-.209-.158-.419-.3-.641-.445h0c-.222-.146-.448-.286-.674-.42h0c-.226-.134-.452-.262-.682-.384h0l-.7-.359c-.942-.469-1.9-.883-2.839-1.327A1.821,1.821,0,0,0,235.59,241.278Z" transform="translate(-136.949 -94.303)" fill="#bbdfff"/>
        <path id="Path_620" data-name="Path 620" d="M252.439,246.234a2.72,2.72,0,0,0-.159-.244c.05.073.1.158.142.231Z" transform="translate(-146.651 -96.197)" fill="#ba9a49"/>
        <path id="Path_621" data-name="Path 621" d="M246.595,241.065c-.54-.767-1.1-1.516-1.675-2.235C245.5,239.542,246.055,240.3,246.595,241.065Z" transform="translate(-142.373 -93.397)" fill="#ba9a49"/>
        <path id="Path_622" data-name="Path 622" d="M57.28,136.323a60,60,0,0,0,9.458,22.586,55.254,55.254,0,0,0,5.171,3.179c-.159-.359-.318-.712-.469-1.078-4.333-10.267-5.694-22.61-5.07-34.509.674-12.849,3.718-25.137,7.562-36.707,1.905-5.706,4.053-11.2,6.184-16.728s4.158-11.064,5-17.245c1.612-12.008-2.726-22.5-8.4-30.66-.281-.4-.565-.792-.837-1.181-1.926-1.449-3.768-3.2-5.7-4.579a36.872,36.872,0,0,1,1.846,3.9A38.348,38.348,0,0,1,74.5,32.1c2.018,13.4-4.053,25.381-8.2,36.536C58.633,89.185,52.658,112.933,57.28,136.323Z" transform="translate(-32.355 -7.587)" fill="#bbdfff"/>
        <path id="Path_623" data-name="Path 623" d="M100.256,24.1c-.473-.658-.955-1.291-1.436-1.906Q99.544,23.134,100.256,24.1Z" transform="translate(-57.444 -8.678)" fill="#ba9a49"/>
        <path id="Path_624" data-name="Path 624" d="M95.05,19.487q-.729-.944-1.47-1.827Q94.317,18.567,95.05,19.487Z" transform="translate(-54.398 -6.906)" fill="#ba9a49"/>
        <path id="Path_625" data-name="Path 625" d="M90.458,15.995c-.741-.907-1.491-1.778-2.248-2.625C88.959,14.229,89.717,15.1,90.458,15.995Z" transform="translate(-51.277 -5.228)" fill="#ba9a49"/>
        <path id="Path_626" data-name="Path 626" d="M82.1,237.427c.209.311.419.609.636.926l.837,1.151.62.84c.293.4.59.785.892,1.175l.779.993c.264.329.528.658.8.98q.8.974,1.62,1.936c3.308,3.861,6.988,7.977,11.263,9.134s8.654-.347,12.8-2.162a144.172,144.172,0,0,0,24.7-13.969l.578-.414,1.068-.786,1.327-.986.6-.438c.23-.158.461-.323.7-.475l.532-.353c.3-.189.59-.371.892-.542s.595-.329.9-.475l.3-.146h0c.167-.079.339-.152.511-.219l.092-.037c.293-.116.59-.213.888-.3h.029c.2-.055.419-.1.611-.14l.31-.049h0a1.814,1.814,0,0,1,1.537.085c.938.445,1.9.859,2.839,1.327.234.116.469.231.7.359h0c.23.122.456.25.682.384h0c.226.134.452.274.674.42h0c.218.14.419.286.641.445h0c-.046-.073-.092-.158-.142-.231-.234-.384-.482-.761-.733-1.133s-.444-.67-.674-.993q-.81-1.142-1.675-2.235h0l-.779-.993-.155-.195-.775-.944q-.875-1.053-1.746-2.064a35.746,35.746,0,0,0-5.657-5.681c-3.546-2.582-7.2-1.346-10.652.993-8.479,5.748-16.861,11.32-25.783,15.51-4.4,2.058-9.082,4.433-13.763,3.867a9.478,9.478,0,0,1-3.609-1.279l-.05-.116h0a54.2,54.2,0,0,1-5.171-3.179.017.017,0,0,1,.013.006Z" transform="translate(-47.719 -86.105)" fill="#99cef6"/>
        <path id="Path_627" data-name="Path 627" d="M252.28,246c.05.073.1.158.142.231h0Q252.356,246.11,252.28,246Z" transform="translate(-146.651 -96.2)" fill="#f9db7d"/>
        <path id="Path_628" data-name="Path 628" d="M56.6,0a23.085,23.085,0,0,0,4.354,4.372c2.215,1.553,4.438,3.087,6.6,4.792q1.591,1.254,3.123,2.618h0c1.951,1.382,3.768,3.13,5.7,4.579h0l-.708-.98q-.716-.968-1.436-1.906l-.724-.932q-.733-.926-1.47-1.827c-.741-.9-1.491-1.766-2.248-2.625q-1.851-2.076-3.81-4.049Q65.2,3.258,64.4,2.491c-.532-.512-1.063-1.011-1.6-1.5L61.7,0Z" transform="translate(-32.902)" fill="#99cef6"/>
        <path id="Path_629" data-name="Path 629" d="M1163.74,590.314a14.194,14.194,0,0,1,6.025,2.034c.486.3,1.193,1.139,1.75,1.443h0c5.221,7.137,10.74,14.645,17.208,19.322.712.511-.151-1.047-.222-1.187a29.769,29.769,0,0,0-2.981-4.177c-2.093-2.667-4.287-5.651-6.787-7.46-.168-.128-.657-.645-1.064-1l-1.482-2.016c-1.532-2.058-3.09-4.092-4.685-6.053l-.234-.079A28.137,28.137,0,0,0,1163.74,590.314Z" transform="translate(-676.487 -230.843)" fill="#bbdfff"/>
        <path id="Path_630" data-name="Path 630" d="M989.836,582.377a30.121,30.121,0,0,0,2.977,4.177c1.327,1.705,2.7,3.361,4.12,4.908a11.823,11.823,0,0,0,2.671,2.551,41.168,41.168,0,0,0,21.667,3.441c6.7-.8,13-3.544,19.2-7.259,5.929-3.556,11.9-7.49,18.385-8.178h.364a1.1,1.1,0,0,1,.2,0,15.2,15.2,0,0,1,2.931,0,28.144,28.144,0,0,1,7.537.828l.234.079-.046-.055-.712-.871-.766-.919q-.766-.914-1.549-1.8c-.205-.237-.419-.469-.624-.7q-1.256-1.407-2.554-2.734c-5.07-5.182-10.468-7.587-16.677-6.583-6.481,1.041-12.414,5.158-18.389,8.677-12.607,7.429-26.085,9.067-39.19,3.264C988.894,580.872,989.714,582.145,989.836,582.377Z" transform="translate(-575.097 -222.529)" fill="#99cef6"/>
        <path id="Path_631" data-name="Path 631" d="M1156.74,590.235a16.864,16.864,0,0,1,2.88,0h.05a15.222,15.222,0,0,0-2.931,0Z" transform="translate(-672.418 -230.789)" fill="#f9db7d"/>
        <path id="Path_632" data-name="Path 632" d="M1423.02,832.059a10.473,10.473,0,0,0,1.076.749,17.185,17.185,0,0,0,4.853,1.5q6.281,1.59,12.6,2.6c7.788,1.248,15.613,1.346,23.409,2.4a39.878,39.878,0,0,1,12.117,3.41,28.149,28.149,0,0,1,4.04,2.381,54.332,54.332,0,0,0-3.546-6.224c-.565-.871-1.139-1.79-1.729-2.691h0a43.234,43.234,0,0,0-4.187-3.538c-8.441-6.162-18.167-6.473-27.4-7.137a144.608,144.608,0,0,1-15.91-1.973q-2.466-.457-4.924-1c.079-.432.163-.859.255-1.285q-.07.245-.122.5C1422.827,825.032,1422.99,828.606,1423.02,832.059Z" transform="translate(-827.186 -321.157)" fill="#bbdfff"/>
        <path id="Path_633" data-name="Path 633" d="M1401.542,685.37a1.18,1.18,0,0,1-.222-.25,8.3,8.3,0,0,0,.615.98c-.079-.165-.163-.323-.255-.481Z" transform="translate(-814.593 -267.922)" fill="#ffefca"/>
        <path id="Path_634" data-name="Path 634" d="M1342.945,645.237a28.5,28.5,0,0,0,2.977,4.183,41.559,41.559,0,0,0,6.791,7.46c3.735,2.862,7.469,5.755,11.066,8.982.816.731,1.629,1.474,2.42,2.259.113.116.473.4.837.725h0l.1.091c-1-1.827-1.876-3.745-2.805-5.627q-1.93-2.107-3.873-4.11a157.818,157.818,0,0,0-17.744-15.15C1342.015,643.514,1342.878,645.115,1342.945,645.237Z" transform="translate(-780.369 -251.818)" fill="#bbdfff"/>
        <path id="Path_635" data-name="Path 635" d="M1401.18,684.85a.262.262,0,0,0,.054.152A.442.442,0,0,1,1401.18,684.85Z" transform="translate(-814.512 -267.816)" fill="#ffefca"/>
        <path id="Path_636" data-name="Path 636" d="M1526.578,936.436c-.046.786.921,1.87,1.256,2.381,1.143,1.693,2.382,3.246,3.626,4.774s2.512,3,3.823,4.329h0c.138.122,1.842,1.754,1.859,1.431.875-15.394,7.813-27.439,12.837-40.385,4.359-11.223,7.716-24.808,3.923-37.359-1.867-6.175-5.3-11.064-8.713-15.473-.766-.986-1.541-1.973-2.332-2.941l-.98-1.218c-.369-.444-.741-.883-1.114-1.309l-.029-.043-.561-.609q-1.08-1.218-2.194-2.387c-.243-.256-.49-.505-.737-.749-.4-.4-.8-.792-1.2-1.169.59.9,1.164,1.827,1.729,2.692a54.348,54.348,0,0,1,3.546,6.223l.088.061a33.14,33.14,0,0,1,3.01,8.726,47.1,47.1,0,0,1-.1,15.37C1540.989,899.662,1527.821,914.581,1526.578,936.436Z" transform="translate(-887.405 -330.722)" fill="#99cef6"/>
        <path id="Path_637" data-name="Path 637" d="M1396.1,754.074c-.335,2.162-.77,4.713-.285,6.881.6,2.692,2.734,4.945,4.111,6.7l1.3,1.687.452.609.461.609c.574.725,1.164,1.443,1.771,2.125l.419.475.419.457.331.335c.218.213.44.426.666.609l.335.292.452.365a49.369,49.369,0,0,1,.486-10.352q.051-.254.121-.5a.262.262,0,0,1,.029-.146l.214-.968c.092-.4.184-.792.281-1.181l.247-.968c.1-.384.205-.767.314-1.151,1.315-4.671,3.015-9.079,4.577-13.579,2.78-8,4.9-16.283,4.216-25.4a61.739,61.739,0,0,0-7.219-24.3q-1.49-2.783-3.157-5.4-.239-.384-.49-.767c-.419-.609-.812-1.218-1.231-1.827l-.452-.658-.578-.822-.582-.81q-1.784-2.466-3.672-4.774-.578-.722-1.164-1.407c-.477-.578-.963-1.145-1.449-1.705q-.544-.609-1.093-1.218c-.419-.475-.837-.95-1.256-1.413.929,1.882,1.809,3.818,2.805,5.627l.038.036.138.128a3.016,3.016,0,0,1,.615.725.485.485,0,0,0-.075-.1,2.75,2.75,0,0,0-.339-.3l-.2-.165.138.25c.092.158.176.317.255.481l.121.177.289.408.084.122c.054.073.1.134.134.189l.046.067.025.036a56.782,56.782,0,0,1,7.783,30.788c-.469,9.743-4.057,18.214-6.988,26.757A75.953,75.953,0,0,0,1396.1,754.074Z" transform="translate(-810.733 -264.309)" fill="#99cef6"/>
        <path id="Path_638" data-name="Path 638" d="M1401.18,684.85a.262.262,0,0,0,.054.152A.442.442,0,0,1,1401.18,684.85Z" transform="translate(-814.512 -267.816)" fill="#f9db7d"/>
      </g>
    </g>
    <path id="Path_484" data-name="Path 484" d="M1427.679,3245.454s50.016,293.714,361.981,363.1,311.117,293.382,311.117,293.382H1373V3245.454Z" transform="translate(-1373 371.822)" fill="#e2e2e2"/>
    <g id="Group_85" data-name="Group 85" transform="translate(0 3728.717)" opacity="0.13">
      <path id="Path_410" data-name="Path 410" d="M0,0H109.19L0,109.19Z" transform="translate(0 0)" fill="#fff"/>
      <path id="Path_411" data-name="Path 411" d="M0,0H109.19L0,109.19Z" transform="translate(0 109.19)" fill="#fff"/>
      <g id="Group_72" data-name="Group 72" transform="translate(0 327.57)">
        <path id="Path_398" data-name="Path 398" d="M0,0H109.19L0,109.19Z" transform="translate(0 0)" fill="#fff"/>
        <path id="Path_399" data-name="Path 399" d="M0,0H109.19L0,109.19Z" transform="translate(0 109.19)" fill="#fff"/>
        <path id="Path_397" data-name="Path 397" d="M0,0H109.19L0,109.19Z" transform="translate(109.19 0)" fill="#fff"/>
      </g>
      <g id="Group_73" data-name="Group 73" transform="translate(109.19 109.19)">
        <path id="Path_398-2" data-name="Path 398" d="M0,0H109.19L0,109.19Z" transform="translate(0 0)" fill="#fff"/>
        <path id="Path_399-2" data-name="Path 399" d="M0,0H109.19L0,109.19Z" transform="translate(0 109.19)" fill="#fff"/>
      </g>
    </g>
  </g>
</svg>
