<svg xmlns="http://www.w3.org/2000/svg" width="688.214" height="815" viewBox="0 0 688.214 815">
  <g id="Red_Section_BG" data-name="Red Section BG" transform="translate(-682.765 0)" opacity="0.74">
    <g id="Layer_2" data-name="Layer 2" transform="translate(682.765 0)">
      <g id="Layer_2-2" data-name="Layer 2">
        <path id="Path_491" data-name="Path 491" d="M438.3,246.168c-.347-4.214-.824-8.4-1.415-12.583h0a302.089,302.089,0,0,0-8.132-38.292c-9.213-33.463-23.277-64.966-32.258-98.473-5.147-19.022-5.018-37.853,1.917-56.245a94.22,94.22,0,0,1,13.318-24.04,46.691,46.691,0,0,1,4.658-5.209.519.519,0,0,1,.129-.117c.527-.512,1.068-1.01,1.608-1.463s1.042-.922,1.583-1.361c1.094-.893,2.2-1.756,3.333-2.59.54-.41,1.094-.8,1.634-1.185l1.686-1.214c.566-.4,1.132-.775,1.711-1.141l1.827-1.2c.515-.337,1.016-.688,1.518-1.054h-6.691c-.836.673-1.66,1.346-2.483,2.048s-1.943,1.639-2.908,2.487S417.716,6,416.905,6.7l-2.123,1.961h0l-.463.439q-2.574,2.414-5.147,5t-4.9,5.253c-.8.893-1.583,1.8-2.355,2.707a117.672,117.672,0,0,0-19.726,31.664,88.042,88.042,0,0,0-6.009,45.959c2.432,16.534,8.647,32.439,14.038,47.949,11.285,32.468,23.586,64.981,28.848,99.6.528,3.453,1.107,7.155,1.6,11,.27,2.092.528,4.214.733,6.365,1.081,11.706.836,23.792-4.182,33.156l-.064.117a53.183,53.183,0,0,0,9.47-5.107c1-1.141,1.969-2.3,2.908-3.468,9.663-11.954,10.024-26.674,8.8-42.067Z" transform="translate(107.63 0)" fill="#ffecb7"/>
        <path id="Path_492" data-name="Path 492" d="M407.933,203.59h0l-.283.19a2.522,2.522,0,0,1,.283-.19Z" transform="translate(116.885 94.302)" fill="#ffecb7"/>
        <path id="Path_493" data-name="Path 493" d="M34.723,653.631A109.412,109.412,0,0,0,48.517,642.8c10.809-9.847,20.987-20.865,26.738-35.453,11.516-29.264,6.06-62.522-2.972-91.581-1.287-4.112-2.573-8.209-4.027-12.291-2.007-5.955-4.1-11.881-6.176-17.822C54.153,462.8,46.7,439.741,46.072,414.882c-.425-16.8,2.5-33.654,10.41-47.978a74.358,74.358,0,0,1,6.3-9.642c.18-.249,3.088-3.19,2.573-2.926a21.626,21.626,0,0,1,1.982-1.463A106.291,106.291,0,0,1,88.972,340.9c16.972-7.2,34.9-10.9,52.64-14.749l56.693-12.262c3.86-.819,8.325-6.745,11.13-9.569,1.531-1.463,3.937-3.321,4.89-5.355.193-.41,1.557-1.77.36-1.463-32.606,7.053-66.344,12.027-98.2,22.8a146.378,146.378,0,0,0-72.263,54.4c-29.337,42.257-12.211,89.723,3.423,135.7,2.573,7.653,5.147,15.246,7.463,22.782a216.89,216.89,0,0,1,8.055,34.3c2.3,17.368,1.84,35.848-3.86,52.353a75.236,75.236,0,0,1-4.658,10.784,57.618,57.618,0,0,1-3.243,5.458c-.566.8-1.145,1.595-1.724,2.4l-.669.8h0a83.788,83.788,0,0,1-9.959,4.741c-1.583.673-3.165,1.273-4.774,1.829Z" transform="translate(8.099 137.782)" fill="#ffecb7"/>
        <path id="Path_494" data-name="Path 494" d="M418.889,0A173.679,173.679,0,0,0,396.05,22.065c1.132-.819,2.265-1.668,3.345-2.531,3.654-2.926,7.373-5.853,11.259-8.384a87.1,87.1,0,0,1,13.369-10.1C424.538.717,425.04.366,425.542,0Z" transform="translate(113.559 0)" fill="#f9db7d"/>
        <path id="Path_495" data-name="Path 495" d="M382.28,212.683,355.49,229.73A551.418,551.418,0,0,1,277,227.754a26.239,26.239,0,0,1,2.072-3.058,75.621,75.621,0,0,1,5.945-6.116c1.892-1.8,6.652-7.638,9.329-7.316a546.684,546.684,0,0,0,87.935,1.419Z" transform="translate(79.424 97.851)" fill="#f9db7d"/>
        <path id="Path_496" data-name="Path 496" d="M433.347,200.09l-.1.117-1.608,1.814-1.75,1.887c-.592.629-1.184,1.244-1.8,1.858s-1,1.024-1.518,1.463-1.081,1.054-1.621,1.551l-.9.834c-2.406,2.209-4.915,4.3-7.489,6.233-.8.6-1.608,1.171-2.419,1.741-.6.424-1.2.834-1.814,1.229-.386.249-.772.512-1.171.746-.669.424-1.351.849-2.033,1.244l-.553.322-.991.556-1.287.717-.9.454c-.6.322-1.222.615-1.853.907s-1.364.629-2.046.922c-14.051,5.984-29.415,7.214-44.251,8.56-1.7.161-3.41.307-5.147.424l23.161-17.032c3.86-.351,7.823-.775,11.735-1.229a127.45,127.45,0,0,0,24.358-4.755,66.305,66.305,0,0,0,10.706-4.39c.463-.249.965-.541,1.454-.863h0l.283-.19h0a53.138,53.138,0,0,0,9.56-5.121Z" transform="translate(100.955 92.681)" fill="#f9db7d"/>
        <path id="Path_497" data-name="Path 497" d="M51,536.265c.939-1.873,1.827-3.79,2.792-5.633.09-.176.18-.366.283-.541l-.437.6-.669.8h0a83.776,83.776,0,0,1-9.959,4.741A80.994,80.994,0,0,1,31.249,540.2c-3.86.995-8.235,6.657-11.13,9.569-1.364,1.375-4.272,3.453-4.877,5.355-.129.381-1.608,1.829-.373,1.463C28.187,553.179,39.7,546.346,50.4,536.952,50.6,536.733,50.794,536.484,51,536.265Z" transform="translate(4.123 245.535)" fill="#f9db7d"/>
        <path id="Path_498" data-name="Path 498" d="M207.514,297.431c-32.606,7.053-66.344,12.027-98.2,22.8A146.52,146.52,0,0,0,53.48,355.081a83.907,83.907,0,0,1,9.007-3.848,110.763,110.763,0,0,1,19.3-10.359c16.972-7.2,34.9-10.9,52.64-14.749l56.693-12.262c3.86-.819,8.325-6.745,11.13-9.569,1.531-1.463,3.937-3.322,4.89-5.355C207.347,298.528,208.711,297.167,207.514,297.431Z" transform="translate(15.334 137.753)" fill="#f9db7d"/>
        <path id="Path_499" data-name="Path 499" d="M131,348.75Z" transform="translate(37.562 161.539)" fill="#fcb2b2"/>
        <path id="Path_500" data-name="Path 500" d="M131.107,348.7l-.077.073h0Z" transform="translate(37.57 161.516)" fill="#fcb2b2"/>
        <path id="Path_501" data-name="Path 501" d="M135.269,345.19l-.129.132h0Z" transform="translate(38.749 159.891)" fill="#fcb2b2"/>
        <path id="Path_502" data-name="Path 502" d="M407.523,180.311l-.4.4-.219.2h0c.463-.527-.811.541-1.055.863l.3-.2a.52.52,0,0,1-.129.117l.27-.219.347-.278h.141l.656-.615h0Zm.489-.439h0l.064-.073Zm0,0h0s.052-.059.039-.029Zm.129-.132Z" transform="translate(116.369 83.255)" fill="#fcb2b2"/>
        <path id="Path_503" data-name="Path 503" d="M418.981,223.08c-19.3,13.652-39.155,26.337-59.37,38.321-66.781,39.506-136.947,72.15-198.62,122.031-5.481,4.39-10.448,8.648-15.441,13.169-9.007,6.467-17.808,13.169-26.661,19.768,16.457-16.651,33.635-32.351,51.212-47.173,62.381-52.573,132.533-88.3,201.489-127.693q14.694-8.384,29.183-17.207Q409.832,223.841,418.981,223.08Z" transform="translate(34.089 103.33)" fill="#fcb2b2"/>
        <path id="Path_504" data-name="Path 504" d="M379.313,211.44l-23.161,17.032q-9.1.746-18.181,1.171L364.785,212.6Q372.055,212.142,379.313,211.44Z" transform="translate(96.906 97.938)" fill="#f9db7d"/>
        <path id="Path_505" data-name="Path 505" d="M423.941,182.27c-9.908,9.35-20.163,18.144-30.367,26.572q-10,8.267-20.24,16.1-7.257.7-14.514,1.156c14.746-9.789,29.209-20.134,43.247-31.225h0a225.269,225.269,0,0,0,21.874-12.6Z" transform="translate(102.884 84.427)" fill="#fcb2b2"/>
        <path id="Path_506" data-name="Path 506" d="M153,361.292l-5.031,5.107q-2.406,2.5-4.812,5.019-2.651,2.78-5.263,5.619l-.09.088-5.147,5.589q-2.573,2.853-5.147,5.75c-1.7,1.917-3.4,3.863-5.07,5.853s-3.358,3.921-5.018,5.853q-2.715,3.336-5.481,6.658c-.991,1.214-1.982,2.444-2.959,3.673s-2.316,2.926-3.448,4.39q-2.573,3.219-5.057,6.5c-.8,1.039-1.583,2.063-2.355,3.1q-5.867,7.77-11.478,15.744c-.631.878-1.287,1.77-1.853,2.648q-2.406,3.482-4.787,7.023l-1.518,2.224c-.746,1.112-1.48,2.239-2.213,3.365-.914,1.463-1.814,2.78-2.715,4.185l-.785,1.244-1.969,3.117c-.219.351-.437.688-.643,1.039q-1.724,2.765-3.4,5.531l-2.278,3.8c-2.985,5.033-5.906,10.14-8.711,15.3q-2.226,4.009-4.336,8.092c-.528.966-1.029,1.946-1.531,2.926s-1.287,2.356-1.814,3.541A494.412,494.412,0,0,0,21.681,567.09C12.867,593.018,4.053,619.385.836,647.1c-.36,3.16-.63,6.321-.836,9.54H29.376c2.831-2.136,14.527-9.13,14.386-10.842-.347-4.39-.669-8.574-.939-12.7a78.227,78.227,0,0,1-23.83,10.7c-1.287.322.244-1.127.373-1.463.6-1.9,3.513-3.98,4.877-5.355,2.9-2.926,7.244-8.574,11.13-9.569,2.355-.6,4.671-1.273,6.974-2.063-1.467-27.318-.476-51.051,8.4-78.252q5.713-17.558,12.52-34.5,4.452-11.091,9.445-21.948c1.2-2.59,2.406-5.151,3.654-7.711A493.3,493.3,0,0,1,157.6,363.282c3.152-3.38,5.79-6.116,8.724-9.072l2.149-2.136h.077l.116-.117h.064l.18-.19.077-.073.45-.439,2.882-2.766,1.132-1.068.154-.146.09-.1.193-.176.193-.176h0l2.7-2.487c.9-.834,1.789-1.639,2.689-2.444C170.71,347.991,161.858,354.634,153,361.292Z" transform="translate(0 158.362)" fill="#f87e7d"/>
        <path id="Path_507" data-name="Path 507" d="M131,348.75Z" transform="translate(37.562 161.539)" fill="#d87777"/>
        <path id="Path_508" data-name="Path 508" d="M131.88,348.1l-.45.439Z" transform="translate(37.685 161.238)" fill="#d87777"/>
        <path id="Path_509" data-name="Path 509" d="M135.3,345.19l-.129.132-.154.146.09-.1Z" transform="translate(38.714 159.891)" fill="#d87777"/>
        <path id="Path_510" data-name="Path 510" d="M135.43,345Z" transform="translate(38.832 159.802)" fill="#d87777"/>
        <path id="Path_511" data-name="Path 511" d="M138.152,343.31l-2.7,2.5h0Z" transform="translate(38.838 159.02)" fill="#d87777"/>
        <path id="Path_512" data-name="Path 512" d="M131,348.8Z" transform="translate(37.562 161.563)" fill="#d87777"/>
        <path id="Path_513" data-name="Path 513" d="M131,348.75Z" transform="translate(37.562 161.539)" fill="#d87777"/>
        <path id="Path_514" data-name="Path 514" d="M406.64,180.788h0a.618.618,0,0,1,.154-.132.725.725,0,0,0-.154.132Zm.656-.658Zm-.656.615Z" transform="translate(116.596 83.435)" fill="#d87777"/>
        <path id="Path_515" data-name="Path 515" d="M454.659,0h-41.5c-3.049,3.365-4.89,6.028-4.285,6.994a275.477,275.477,0,0,1,36.865,97.42c6.9,39.506,7.952,79.364-7.72,116.529a156.474,156.474,0,0,1-25.915,41.774c-.283.337-.476.556-.592.717h0l.386-.351h0l.09-.088h.077l-.129.117h0l-.064.073h0l-.4.366h0a.4.4,0,0,0-.064.146l-.245.19-.167.146a.619.619,0,0,0-.154.132h-.077l-.347.278-.27.219-.142.132-4,3.468q-5.675,4.829-11.5,9.452c-.656.541-1.287,1.053-1.994,1.58a225.255,225.255,0,0,0,21.874-12.6l.18-.117c4.246-4.009,8.428-8.121,12.494-12.335l2.741-2.926c1.853-1.99,3.693-4.009,5.494-6.043,1.171-1.332,2.342-2.678,3.5-4.038l.116-.132c1.107-1.317,2.213-2.648,3.307-3.994.772-.951,1.544-1.9,2.29-2.926s1.75-2.224,2.573-3.351c1.827-2.4,3.616-4.858,5.34-7.316.708-1.01,1.4-2.019,2.085-3.058,1-1.463,1.994-3.014,2.959-4.551.759-1.2,1.518-2.429,2.252-3.658,20.459-34.18,26.918-75.15,22.119-115.753C477.781,62.7,469.147,29.893,454.659,0Z" transform="translate(112.544 0)" fill="#f87e7d"/>
      </g>
    </g>
    <path id="Path_472" data-name="Path 472" d="M2470-423.515s93.6,94.975,0,240.387-407.57,154.794-497.275,574.613h569.225v-815Z" transform="translate(-1171.188 423.515)" fill="#f87e7d"/>
    <g id="Group_86" data-name="Group 86" transform="translate(1162.647 398.034)" opacity="0.09">
      <g id="Group_70" data-name="Group 70" transform="translate(0)">
        <path id="Path_398" data-name="Path 398" d="M0,0H208.331L0,208.331Z" fill="#fff"/>
        <path id="Path_399" data-name="Path 399" d="M0,0H208.331L0,208.331Z" transform="translate(0 208.331)" fill="#fff"/>
      </g>
    </g>
  </g>
</svg>
