<svg xmlns="http://www.w3.org/2000/svg" width="768.482" height="622.656" viewBox="0 0 768.482 622.656">
  <g id="Group_154" data-name="Group 154" transform="translate(-0.001 -2799.345)">
    <path id="Subtraction_2" data-name="Subtraction 2" d="M768,622.656H0V125.619a228.244,228.244,0,0,1,29.312-18.556A240.434,240.434,0,0,1,62.73,92.5c11.311-3.951,22.778-7.427,34.085-10.333,10.959-2.817,22.082-5.18,33.062-7.022,10.613-1.781,21.4-3.128,32.048-4,10.272-.842,20.719-1.269,31.05-1.269,10.441,0,21.081.436,31.622,1.3,10.064.821,20.342,2.053,30.548,3.663,9.688,1.528,19.611,3.443,29.492,5.691,9.311,2.119,18.883,4.6,28.454,7.382,17.263,5.014,34.881,11.06,53.86,18.484,15.059,5.89,30.919,12.623,49.914,21.189,10.221,4.609,20.186,9.219,29.821,13.678,51.062,23.625,95.16,44.028,133.063,44.028a97.267,97.267,0,0,0,11.719-.692,85.086,85.086,0,0,0,11.319-2.155c32.243-8.486,56.149-28.18,71.056-58.537a165.819,165.819,0,0,0,13.633-42.28,241.847,241.847,0,0,0,3.977-40.043,280.123,280.123,0,0,0-1.026-29.855C689.769,4.375,689.057.042,689.05,0H768V622.656Z" transform="translate(0.001 2799.345)" fill="#fcb2b2"/>
    <path id="Subtraction_1" data-name="Subtraction 1" d="M768,622.656H0V158.912a238.922,238.922,0,0,1,20.344-20.554A227.188,227.188,0,0,1,69.515,104.85,241.713,241.713,0,0,1,98.668,92.493c11.3-3.948,22.771-7.425,34.085-10.333,10.96-2.818,22.083-5.18,33.059-7.022,10.614-1.781,21.4-3.127,32.048-4,10.274-.842,20.72-1.269,31.049-1.269,10.441,0,21.08.436,31.62,1.3,10.065.821,20.344,2.053,30.548,3.663,9.688,1.527,19.61,3.442,29.493,5.691,9.311,2.119,18.884,4.6,28.453,7.382,17.267,5.014,34.885,11.06,53.862,18.483,15.066,5.893,30.927,12.626,49.913,21.188,10.216,4.607,20.18,9.217,29.816,13.676,51.063,23.626,95.164,44.031,133.069,44.031a97.3,97.3,0,0,0,11.72-.692,85.037,85.037,0,0,0,11.319-2.156c32.242-8.486,56.148-28.181,71.057-58.537a165.905,165.905,0,0,0,13.632-42.279,241.72,241.72,0,0,0,3.976-40.042,280.637,280.637,0,0,0-1.025-29.854C725.7,4.374,724.992.042,724.984,0H768V622.655Z" transform="translate(0.002 2799.346)" fill="#f87e7d"/>
    <g id="Group_134" data-name="Group 134" transform="translate(519.578 3090.258)" opacity="0.09">
      <g id="Group_70" data-name="Group 70" transform="translate(124.531 124.193)">
        <path id="Path_398" data-name="Path 398" d="M0,0H124.374L0,124.374Z" fill="#fff"/>
      </g>
      <g id="Group_70-2" data-name="Group 70" transform="translate(0)">
        <path id="Path_398-2" data-name="Path 398" d="M0,0H124.374L0,124.374Z" fill="#fff"/>
        <path id="Path_399" data-name="Path 399" d="M0,0H124.374L0,124.374Z" transform="translate(0 124.374)" fill="#fff"/>
        <path id="Path_397" data-name="Path 397" d="M0,0H124.374L0,124.374Z" transform="translate(124.374)" fill="#fff"/>
      </g>
    </g>
  </g>
</svg>
