<svg xmlns="http://www.w3.org/2000/svg" width="768.105" height="654.684" viewBox="0 0 768.105 654.684">
  <g id="Yellow_Section_BG" data-name="Yellow Section BG" transform="translate(-409.165 -1001.944)">
    <g id="Layer_2" data-name="Layer 2" transform="translate(569.112 1001.944)">
      <g id="Layer_1" data-name="Layer 1">
        <path id="Path_516" data-name="Path 516" d="M167.3,394.335a30.457,30.457,0,0,1-3.306-.555,27.055,27.055,0,0,0,3.306.555Z" transform="translate(-40.209 -85.873)" fill="#fcb2b2"/>
        <path id="Path_517" data-name="Path 517" d="M154.661,390.806c-.694-.3-1.381-.61-2.061-.946C153.279,390.2,153.966,390.517,154.661,390.806Z" transform="translate(-37.416 -85.018)" fill="#fcb2b2"/>
        <path id="Path_518" data-name="Path 518" d="M149.365,388.2a52.832,52.832,0,0,1-5.835-3.589,50.561,50.561,0,0,0,5.835,3.589Z" transform="translate(-35.192 -83.873)" fill="#fcb2b2"/>
        <path id="Path_519" data-name="Path 519" d="M141.752,383.424q-2.823-1.978-5.472-4.254A66.149,66.149,0,0,0,141.752,383.424Z" transform="translate(-33.414 -82.687)" fill="#fcb2b2"/>
        <path id="Path_520" data-name="Path 520" d="M78,56.27c.174.125.385.3.566.446h0c2.264,3.042,4.763,5.8,6.793,9.055a113.348,113.348,0,0,1,9.9,21.112c20.818,57.4,12.4,120.26,9.571,179.929-.34,7.209-.755,14.583,1.336,21.573,1.736,5.755,5.284,10.368,9.48,14.466l1.193,1.173h0c2.068.977,4.2,1.806,6.378,2.643l-.883-.438a29.292,29.292,0,0,1-3.087-5.778c-2.725-7.374-2.038-15.592-1.668-23.3.755-15.083,1.751-30.159,2.566-45.227,1.63-29.917,2.551-60.115-1.555-89.867-3.774-27.367-11.2-58.285-30.479-78.552q-1.947-2.049-4-4.027c-1.185-.594-2.385-1.173-3.57-1.759a20.254,20.254,0,0,0-1.955-1.1,2.3,2.3,0,0,0-.242-.172A1.812,1.812,0,0,1,78,56.27Z" transform="translate(-19.125 -12.271)" fill="#fcb2b2"/>
        <path id="Path_521" data-name="Path 521" d="M676.68,726.84a47.925,47.925,0,0,0,3.223,5.192q1.842,1.384,3.691,2.666c12.741,8.875,27.86,14.857,42.609,19.04a168.669,168.669,0,0,0,47.87,6.349,22.7,22.7,0,0,0-1.509-2.033,57.412,57.412,0,0,0-4.355-4.081c-1.51-1.314-4.74-4.957-6.839-4.934a167,167,0,0,1-55.592-8.9A163.371,163.371,0,0,1,680.114,728.9C678.952,728.263,677.82,727.536,676.68,726.84Z" transform="translate(-165.915 -158.504)" fill="#fcb2b2"/>
        <path id="Path_522" data-name="Path 522" d="M519,572.08a32.061,32.061,0,0,0,3.412,6.13h0a58.872,58.872,0,0,0,6.748,3.972c11.586,5.778,24.909,5.638,37.454,4.785,13.254-.915,26.886-3.089,40.088-.524a46.542,46.542,0,0,1,9.45,2.87c1.026.446,1.993.985,2.966,1.509.181.1.362.2.551.3a27.164,27.164,0,0,0-3.117-4.692,1.14,1.14,0,0,0-.309-.281.354.354,0,0,0-.068-.156c-.03-.055-.2-.289-.294-.438.559.43,1.11.868,1.668,1.314a55.1,55.1,0,0,0-15.851-9.493,58.479,58.479,0,0,0-17.9-3.01c-13.338-.461-26.577,1.931-39.9,2.033a66.159,66.159,0,0,1-20.38-2.557A43.867,43.867,0,0,1,519,572.08Z" transform="translate(-127.254 -124.755)" fill="#fcb2b2"/>
        <path id="Path_523" data-name="Path 523" d="M442.791,420.432c.694,1.353,2.461,2.541,3.578,3.573,2.174,1.994,5.284,5.622,8.159,6.388a66.455,66.455,0,0,1,11.451,4.113,60.944,60.944,0,0,1,5.9,3.206c.6.368,2.491,2.15,3.336,2.4-.755-.289-1.857-1.955,0,0h0l.128.133a2.472,2.472,0,0,1,.189.211,18.465,18.465,0,0,0-2.755-3.292l-.317-.407-.106-.117a22.49,22.49,0,0,0-1.993-2.713c-8.371-6.545-17.557-11.831-27.852-14.536C441.613,419.189,442.647,420.19,442.791,420.432Z" transform="translate(-108.41 -91.452)" fill="#fcb2b2"/>
        <path id="Path_524" data-name="Path 524" d="M205.47,350.012c8.718-8.718,15.534-19.423,22.078-29.924.234-.367,13.692,9.508,12.726,11.056-5.548,8.9-11.934,18.641-19.467,26.961Z" transform="translate(-50.379 -69.8)" fill="#d87777"/>
        <path id="Path_525" data-name="Path 525" d="M196.4,373.754c-9.813,9.008-21.331,15.146-35.227,14.489-.392,0-.755-.047-1.17-.078s-.755-.07-1.155-.117l-.838-.109q-.838-.117-1.653-.282l-.815-.172H155.4l-.755-.188-.362-.094-.838-.235-.234-.07c-.34-.094-.679-.2-1.011-.313s-.649-.219-.966-.328l-.2-.078-.8-.3-.249-.1-.951-.391c-.694-.3-1.381-.61-2.061-.946-.34-.164-.672-.336-1.011-.516a52.769,52.769,0,0,1-5.835-3.581c-.468-.328-.936-.665-1.4-1.009q-1.4-1.032-2.74-2.135l-1.336-1.118-.113-.094c-.513-.438-1.019-.884-1.51-1.329-1.193-1.063-2.363-2.158-3.51-3.261,2.068.97,4.2,1.8,6.378,2.635.377.172.755.344,1.132.5l.181.078.143.047.6.242c.2.086.393.164.6.235l.883.313c13.692,4.645,28.4-.422,39.665-8.859.755-.547,1.449-1.1,2.151-1.681Z" transform="translate(-31.757 -79.577)" fill="#d87777"/>
        <path id="Path_526" data-name="Path 526" d="M137.91,376.55q1.3.61,2.649,1.1c-.8-.3-1.585-.641-2.363-1Z" transform="translate(-33.814 -82.115)" fill="#d87777"/>
        <path id="Path_527" data-name="Path 527" d="M57.3,39.29q-.2,2.565-.355,5.137a78.138,78.138,0,0,1,11.586,5.419c1.351.782,2.695,1.564,3.985,2.479l.3.242c.121.07.242.125.362.211a2.3,2.3,0,0,1,.242.172,20.256,20.256,0,0,1,1.955,1.1c1.185.586,2.385,1.165,3.57,1.759q-3.85-3.73-8.009-7.116c-.423-.36-.853-.7-1.291-1.04l-.068-.055c-.6-.461-1.2-.93-1.8-1.376-.755-.586-1.51-1.157-2.31-1.7l-.845-.594c-.521-.375-1.042-.727-1.57-1.071s-.989-.672-1.51-.977c-.619-.407-1.245-.782-1.879-1.181s-1.268-.782-1.9-1.134A4.318,4.318,0,0,0,57.3,39.29Z" transform="translate(-13.964 -8.568)" fill="#d87777"/>
        <path id="Path_528" data-name="Path 528" d="M0,23.1s1.321,1.814,1.51,2.041a55.763,55.763,0,0,0,4.355,4.074c1.7,1.486,4.529,4.692,6.846,4.934,1.351.149,2.695.3,4.046.493.1-2.932.226-5.833.385-8.75A149.77,149.77,0,0,0,0,23.1Z" transform="translate(0 -5.037)" fill="#d87777"/>
        <path id="Path_529" data-name="Path 529" d="M479.51,438a22.486,22.486,0,0,1,1.993,2.713l.106.117.317.407a18.461,18.461,0,0,1,2.755,3.292h0c.219.235.43.477.634.712l.627.727a57.516,57.516,0,0,1,3.774,4.934,66.321,66.321,0,0,1,6.039,10.877,70.489,70.489,0,0,1,5.752,26.335,64.266,64.266,0,0,1-.755,11.377c-.249,1.626-.551,3.245-.891,4.856,1.51,1.024,3.065,2.08,4.582,3.128q4.333,3.026,8.6,6.138c.287-1.314.521-2.643.687-3.988a.872.872,0,0,1,.038-.313,71.939,71.939,0,0,0-1.034-23.168c-3.148-15.044-11.028-27.735-21.791-38.166l-1.713-1.634c-.808-.782-1.615-1.517-2.438-2.252l-1.766-1.564-1.593-1.368-.4-.344c-.536-.446-1.079-.9-1.623-1.337S480.129,438.493,479.51,438Z" transform="translate(-117.571 -95.516)" fill="#d87777"/>
        <path id="Path_530" data-name="Path 530" d="M503.95,554.735c.483.618.981,1.22,1.51,1.814.2.242.4.477.6.711.37.415.755.782,1.125,1.22s.755.782,1.17,1.2l.6.594q1.268,1.243,2.612,2.416c.294.258.6.508.891.782s.672.547,1,.829c1.411,1.149,2.876,2.236,4.363,3.229a32.059,32.059,0,0,1-3.412-6.13h0a17.626,17.626,0,0,1-1.132-9.516c.9-6.724,3.457-13.035,4.869-19.665q-4.257-3.128-8.6-6.138c-1.51-1.063-3.019-2.119-4.582-3.128-.755,3.487-1.668,6.943-2.687,10.462C500.1,540.715,498.923,548.339,503.95,554.735Z" transform="translate(-122.695 -114.041)" fill="#d87777"/>
        <path id="Path_531" data-name="Path 531" d="M647.34,589.35c.1.149.2.289.294.438s0,.1.068.156a1.141,1.141,0,0,1,.309.281,27.17,27.17,0,0,1,3.117,4.692h0a.2.2,0,0,1,.083,0l.106.125.642.868a50.828,50.828,0,0,1,8.454,19.791,72.052,72.052,0,0,1,.649,22.879l12.379,13.668a78.393,78.393,0,0,0,.491-20.463c-1.9-16.225-10.19-28.533-22.086-38.784-.4-.344-.8-.7-1.208-1.024-.544-.461-1.095-.907-1.638-1.353S647.9,589.78,647.34,589.35Z" transform="translate(-158.721 -128.521)" fill="#d87777"/>
        <path id="Path_532" data-name="Path 532" d="M617.653,612.139l-.113-.109c.076.086.159.156.234.235l-.068-.078Z" transform="translate(-151.415 -133.467)" fill="#bbdfff"/>
        <path id="Path_533" data-name="Path 533" d="M617.22,611.72Z" transform="translate(-151.336 -133.4)" fill="#bbdfff"/>
        <path id="Path_534" data-name="Path 534" d="M616.93,611.43Z" transform="translate(-151.265 -133.336)" fill="#bbdfff"/>
        <path id="Path_535" data-name="Path 535" d="M599.691,595.394c-.468-.43-.944-.868-1.411-1.314.566.532,1.132,1.048,1.7,1.564.106.094.226.219.37.344a.383.383,0,0,0,.106.094.262.262,0,0,0,.045.047.457.457,0,0,0-.106-.1c-.249-.242-.755-.688-.943-.891Z" transform="translate(-146.692 -129.553)" fill="#bbdfff"/>
        <path id="Path_536" data-name="Path 536" d="M129.79,312.65l.045.039h0Z" transform="translate(-31.823 -68.18)" fill="#bbdfff"/>
        <path id="Path_537" data-name="Path 537" d="M129.471,312.391a1.621,1.621,0,0,0,.181.156h0l-.332-.3c.091.086.174.149.249.227Z" transform="translate(-31.708 -68.093)" fill="#bbdfff"/>
        <path id="Path_538" data-name="Path 538" d="M128.98,311.987a.16.16,0,0,1-.06-.047.665.665,0,0,0,.106.1h0Z" transform="translate(-31.61 -68.026)" fill="#bbdfff"/>
        <path id="Path_539" data-name="Path 539" d="M129.393,312.339s0-.039-.053-.039a.991.991,0,0,0,.136.125l-.068-.078Z" transform="translate(-31.713 -68.104)" fill="#bbdfff"/>
        <path id="Path_540" data-name="Path 540" d="M523.87,533.48l1.51,1.1c1.344.985,2.664,1.978,4,2.964a.663.663,0,0,0,.128.094.512.512,0,0,0,.136.1h0l.136.1.219.172.053.039a.49.49,0,0,0,.1.063h.038l.053.047a.184.184,0,0,1,.06.047h.045a.209.209,0,0,1,.068.055c.242.172.483.36.755.547,5.088,3.855,10.107,7.819,15.1,11.768l.189.149a1.605,1.605,0,0,1,.128.109l.362.289.234.187,2.046,1.666,3.661,2.995c1.374,1.126,2.748,2.275,4.121,3.417l1.17.977.272.227.136.109c2.664,2.205,5.284,4.512,7.865,6.795l3.08,2.7c.113.1.226.219.347.313l.234.2-.113-.086.128.11.136.117.272.235.06.063a.939.939,0,0,0,.143.125l.128.125h0s.068.063.091.078h0a.073.073,0,0,0,.038,0c.249.234.5.469.755.688l1.985,1.806q6.891,4.887,13.67,9.954c2.431,1.822,4.952,3.519,7.458,5.239q5.525,5.208,10.967,10.533c-16.991-16.663-34.721-32.528-52.9-47.784Q538.959,540.181,524.549,529a.911.911,0,0,1-.038.313A30.163,30.163,0,0,1,523.87,533.48Z" transform="translate(-128.448 -115.36)" fill="#ffecb7"/>
        <path id="Path_541" data-name="Path 541" d="M213.184,372.325c2.008-1.845,3.933-3.816,5.789-5.872l-15.338-8.093a75.527,75.527,0,0,1-5.646,5.1Z" transform="translate(-48.545 -78.149)" fill="#d87777"/>
        <path id="Path_542" data-name="Path 542" d="M218.12,374.582c11.662,6.6,23.5,12.839,35.325,18.915,55.977,28.783,114.391,52.757,167.93,86.411q7.239,4.551,14.341,9.336c.34-1.611.642-3.229.891-4.856q-16.04-11.846-32.774-22.582c-53.531-34.186-112.006-58.6-168.323-87.169q-5.782-2.948-11.579-5.927C222.053,370.767,220.128,372.737,218.12,374.582Z" transform="translate(-53.481 -80.406)" fill="#ffecb7"/>
        <path id="Path_543" data-name="Path 543" d="M114.67,304.93a341.147,341.147,0,0,0,30.864,25.553c10.311,7.624,21.044,14.677,32.027,21.323a75.5,75.5,0,0,0,5.646-5.1c-18.334-9.915-36.337-20.557-53.237-32.755l-.755-.524-.068-.055-.71-.547-2.053-1.564a.066.066,0,0,1-.038,0H126.3a.316.316,0,0,1-.083-.078h-.083l-.106-.078h0C122.173,309.105,118.406,307.065,114.67,304.93Z" transform="translate(-28.116 -66.497)" fill="#ffecb7"/>
        <path id="Path_544" data-name="Path 544" d="M659.721,701.426c.355.485.755.97,1.109,1.439.272.352.559.7.845,1.032s.627.735.951,1.095c1.079,1.22,2.227,2.4,3.419,3.55.3.3.6.579.913.868,1.645,1.525,3.359,2.979,5.11,4.371l1.253.977c.453.352.913.7,1.366,1.032a47.959,47.959,0,0,1-3.223-5.192l-.06-.039c-.219-.3-.43-.61-.627-.931a20.274,20.274,0,0,1-2.657-12.612c.755-7.819,3.918-15.295,5.767-22.934.189-.735.355-1.47.506-2.205q.6-2.909,1.034-5.849L663.05,652.36c-.1.876-.219,1.759-.347,2.643-.211,1.431-.46,2.831-.755,4.23-1.51,7.186-3.835,14.075-5.563,21.2C654.565,687.977,655.1,695.124,659.721,701.426Z" transform="translate(-160.701 -142.262)" fill="#d87777"/>
        <path id="Path_545" data-name="Path 545" d="M738.931,800.758c-10.077-40.91-33.589-89.922-59.041-122.864.189-.735.355-1.47.506-2.2q.6-2.909,1.034-5.849c30.789,34.96,60.438,85.676,76.289,130.918Z" transform="translate(-166.702 -146.074)" fill="#f9db7d"/>
        <path id="Path_546" data-name="Path 546" d="M590,586.74c1.034.93,2.068,1.884,3.1,2.831l3.155,2.909c.385.368.755.735,1.17,1.079l.083.07h0l.1.1h0l.083.07.476.454.136.133h0a.1.1,0,0,0,.053.047.251.251,0,0,0,.045.047c1.155,1.126,2.325,2.221,3.48,3.323q4.091,3.91,8.114,7.921l.257.25h0a1.261,1.261,0,0,1,.106.1l.091.094h0a.636.636,0,0,0,.106.1l.128.133c.076.086.159.156.234.234L612,607.735c1.336,1.353,2.665,2.7,3.993,4.058,4.8,4.934,9.926,10.361,14.281,15.177q7.873,8.687,15.526,17.844c.294-1.4.543-2.8.755-4.23.128-.884.249-1.767.347-2.643-1.947-2.1-3.895-4.168-5.85-6.255-1.412-1.493-2.838-2.971-4.265-4.449s-2.748-2.838-4.129-4.238c-.219-.235-.445-.454-.664-.672-.944-.977-1.895-1.931-2.853-2.885s-1.857-1.869-2.785-2.784a1.67,1.67,0,0,0-.2-.2q-2.083-2.064-4.174-4.121-5.442-5.309-10.967-10.532c-2.506-1.72-5.027-3.417-7.458-5.239Q596.869,591.635,590,586.74Z" transform="translate(-144.662 -127.952)" fill="#f9db7d"/>
        <path id="Path_547" data-name="Path 547" d="M617.653,612.139l-.113-.109c.076.086.159.156.234.235l-.068-.078Z" transform="translate(-151.415 -133.467)" fill="#99cef6"/>
        <path id="Path_548" data-name="Path 548" d="M617.22,611.72h0a.643.643,0,0,0,.106.1Z" transform="translate(-151.336 -133.4)" fill="#99cef6"/>
        <path id="Path_549" data-name="Path 549" d="M616.93,611.43h0l.2.2A1.153,1.153,0,0,1,616.93,611.43Z" transform="translate(-151.265 -133.336)" fill="#99cef6"/>
        <path id="Path_550" data-name="Path 550" d="M600.774,596.351c-.249-.242-.755-.688-.943-.891l.242.235.287.274c.106.094.227.219.37.344a.384.384,0,0,0,.106.094.258.258,0,0,0,.045.047A.457.457,0,0,0,600.774,596.351Z" transform="translate(-147.072 -129.854)" fill="#99cef6"/>
        <path id="Path_551" data-name="Path 551" d="M589.89,586.67c1.057.97,2.121,1.931,3.178,2.885-1.034-.946-2.068-1.9-3.1-2.831A.228.228,0,0,1,589.89,586.67Z" transform="translate(-144.635 -127.937)" fill="#99cef6"/>
        <path id="Path_552" data-name="Path 552" d="M128.75,311.74Z" transform="translate(-31.568 -67.982)" fill="#99cef6"/>
        <path id="Path_553" data-name="Path 553" d="M128.75,311.82Z" transform="translate(-31.568 -67.999)" fill="#99cef6"/>
        <path id="Path_554" data-name="Path 554" d="M128.82,311.86Z" transform="translate(-31.585 -68.008)" fill="#99cef6"/>
        <path id="Path_555" data-name="Path 555" d="M128.94,312Z" transform="translate(-31.615 -68.039)" fill="#99cef6"/>
        <path id="Path_556" data-name="Path 556" d="M129.163,312.149s-.038-.039-.053-.039h0Z" transform="translate(-31.656 -68.063)" fill="#99cef6"/>
        <path id="Path_557" data-name="Path 557" d="M50.789,0A3.166,3.166,0,0,1,51.8,2.025c-.672,6.154-2.415,22.512-2.883,28.7-1.827-1.009-3.706-2.041-5.6-2.932-.581-.289-1.17-.547-1.759-.782A100.488,100.488,0,0,0,22.74,20.893C22.921,17.312,24.25,4.3,24.552.039Z" transform="translate(-5.576)" fill="#f9db7d"/>
        <path id="Path_558" data-name="Path 558" d="M48.327,44.094a481.193,481.193,0,0,0-.068,63.289,317.214,317.214,0,0,0,5.669,43.53,259.111,259.111,0,0,0,13.066,41.864c5.729,14.528,12.515,28.7,21.2,41.591q1.985,2.94,4.114,5.778a117.212,117.212,0,0,0,9.3,10.947l.249.258.151.149.068.063.393.383v.047h0a.218.218,0,0,0,.045.063h0a.1.1,0,0,0,.053.047.662.662,0,0,0,.106.1.459.459,0,0,1,.075.086c.023.039-.038-.039-.053-.039h0a.1.1,0,0,1,.045.039h0l.053.055a.985.985,0,0,0,.136.125l.053.055a.254.254,0,0,0,.106.063c-3.857-1.83-7.616-3.863-11.322-5.99h0q-2.559-2.393-5.05-4.864c-.694-.68-1.374-1.361-2.053-2.056q-2.423-2.463-4.77-4.973c-.4-.43-.755-.844-1.177-1.275q-1.7-1.83-3.336-3.706a174.692,174.692,0,0,1-25.52-39.245,270.074,270.074,0,0,1-25.113-83.666A427.835,427.835,0,0,1,21.984,37.76a118.037,118.037,0,0,1,26.343,6.334Z" transform="translate(-5.303 -8.234)" fill="#f9db7d"/>
        <path id="Path_559" data-name="Path 559" d="M129,312Z" transform="translate(-31.629 -68.039)" fill="#99cef6"/>
        <path id="Path_560" data-name="Path 560" d="M128.91,312Z" transform="translate(-31.607 -68.039)" fill="#99cef6"/>
        <path id="Path_561" data-name="Path 561" d="M128.715,311.8Z" transform="translate(-31.549 -67.995)" fill="#99cef6"/>
        <path id="Path_562" data-name="Path 562" d="M22.22,35.431a118.027,118.027,0,0,1,26.215,6.255q.158-2.565.355-5.137c-1.827-1.009-3.706-2.041-5.6-2.932-.581-.289-1.17-.547-1.759-.782A100.488,100.488,0,0,0,22.612,26.72Q22.363,31.036,22.22,35.431Z" transform="translate(-5.448 -5.827)" fill="#d87777"/>
      </g>
    </g>
    <path id="Path_482" data-name="Path 482" d="M1821.733,630.3S1772.5,871.073,2071.62,996.272s303.88,287.957,303.88,287.957H1707.27V630.3Z" transform="translate(-1298 371.878)" fill="#f9db7d"/>
    <g id="Group_133" data-name="Group 133" transform="translate(409.165 1402.449)">
      <path id="Path_397" data-name="Path 397" d="M0,0H244.105L0,252.875Z" transform="translate(0 0)" fill="#fff" opacity="0.09"/>
    </g>
  </g>
</svg>
